<?xml version="1.0" standalone="no"?>
<svg
    xmlns:xlink="http://www.w3.org/1999/xlink"
    xmlns:dc="http://purl.org/dc/elements/1.1/"
    xmlns:cc="http://creativecommons.org/ns#"
    xmlns:rdf="http://www.w3.org/1999/02/22-rdf-syntax-ns#"
    xmlns:svg="http://www.w3.org/2000/svg"
    xmlns="http://www.w3.org/2000/svg"
    version="1.1"
    viewBox="0 0 320 202">
<defs>
<radialGradient id="radial1" gradientUnits="userSpaceOnUse" cx="79.8151" cy="245.755" fx="80.6424" fy="224.815" r="27.7424" spreadMethod="pad" gradientTransform="translate(29.2246, 135.636) scale(0.897376, -0.185714)">
<stop offset="0" stop-color="rgb(0,0,0)" stop-opacity="0.7843137254902"/>
<stop offset="0.366" stop-color="rgb(0,0,0)" stop-opacity="0.35686274509804"/>
<stop offset="0.471" stop-color="rgb(0,0,0)" stop-opacity="0.24705882352941"/>
<stop offset="1" stop-color="rgb(255,255,255)" stop-opacity="0"/>
</radialGradient>
<radialGradient id="radial2" gradientUnits="userSpaceOnUse" cx="134.558" cy="529.195" fx="136.047" fy="491.513" r="49.9214" spreadMethod="pad" gradientTransform="translate(46.1063, 170.56) scale(0.382157, -0.159933)">
<stop offset="0" stop-color="rgb(0,0,0)" stop-opacity="0.7843137254902"/>
<stop offset="0.366" stop-color="rgb(0,0,0)" stop-opacity="0.35686274509804"/>
<stop offset="0.471" stop-color="rgb(0,0,0)" stop-opacity="0.24705882352941"/>
<stop offset="1" stop-color="rgb(255,255,255)" stop-opacity="0"/>
</radialGradient>
<radialGradient id="radial3" gradientUnits="userSpaceOnUse" cx="357.013" cy="223.891" fx="357.013" fy="223.891" r="166.09" spreadMethod="pad" gradientTransform="translate(73.7429, 120.538) scale(0.0713777, -0.0713777)">
<stop offset="0" stop-color="rgb(255,255,255)" stop-opacity="1"/>
<stop offset="0.327" stop-color="rgb(238,238,238)" stop-opacity="1"/>
<stop offset="0.689" stop-color="rgb(199,199,199)" stop-opacity="1"/>
<stop offset="1" stop-color="rgb(255,255,255)" stop-opacity="1"/>
</radialGradient>
<radialGradient id="radial4" gradientUnits="userSpaceOnUse" cx="505.053" cy="247.062" fx="509.803" fy="250.23" r="144.101" spreadMethod="pad" gradientTransform="translate(63.1144, 118.524) scale(0.0713777, -0.0713777)">
<stop offset="0" stop-color="rgb(0,0,0)" stop-opacity="0"/>
<stop offset="0.686" stop-color="rgb(0,0,0)" stop-opacity="0.12156862745098"/>
<stop offset="0.867" stop-color="rgb(0,0,0)" stop-opacity="0.38823529411765"/>
<stop offset="1" stop-color="rgb(0,0,0)" stop-opacity="0.70196078431373"/>
</radialGradient>
<linearGradient id="linear1" gradientUnits="userSpaceOnUse" x1="661.664" y1="141.265" x2="641.006" y2="184.179" spreadMethod="pad" gradientTransform="translate(63.1144, 118.524) scale(0.0623468, -0.0817167)">
<stop offset="0" stop-color="rgb(255,255,255)" stop-opacity="0.61960784313725"/>
<stop offset="1" stop-color="rgb(255,255,255)" stop-opacity="0"/>
</linearGradient>
<radialGradient id="radial5" gradientUnits="userSpaceOnUse" cx="336.859" cy="323.569" fx="336.859" fy="323.569" r="157.65" spreadMethod="pad" gradientTransform="translate(86.1345, 111.742) scale(0.0398749, -0.0398749)">
<stop offset="0" stop-color="rgb(221,238,255)" stop-opacity="1"/>
<stop offset="0.327" stop-color="rgb(170,204,238)" stop-opacity="1"/>
<stop offset="0.689" stop-color="rgb(51,102,153)" stop-opacity="1"/>
<stop offset="1" stop-color="rgb(170,204,238)" stop-opacity="1"/>
</radialGradient>
<radialGradient id="radial6" gradientUnits="userSpaceOnUse" cx="174.214" cy="88.3423" fx="174.563" fy="79.4852" r="15.5111" spreadMethod="pad" gradientTransform="translate(29.2246, 135.636) scale(0.408234, -0.408234)">
<stop offset="0" stop-color="rgb(0,0,0)" stop-opacity="0"/>
<stop offset="0.686" stop-color="rgb(0,0,0)" stop-opacity="0.12156862745098"/>
<stop offset="0.867" stop-color="rgb(0,0,0)" stop-opacity="0.38823529411765"/>
<stop offset="1" stop-color="rgb(0,0,0)" stop-opacity="0.70196078431373"/>
</radialGradient>
<linearGradient id="linear2" gradientUnits="userSpaceOnUse" x1="330.793" y1="190.097" x2="324.419" y2="203.338" spreadMethod="pad" gradientTransform="translate(65.9015, 132.294) scale(0.112884, -0.147954)">
<stop offset="0" stop-color="rgb(255,255,255)" stop-opacity="0.61960784313725"/>
<stop offset="1" stop-color="rgb(255,255,255)" stop-opacity="0"/>
</linearGradient>
<radialGradient id="radial7" gradientUnits="userSpaceOnUse" cx="165.823" cy="92.4432" fx="165.673" fy="92.6048" r="21.7888" spreadMethod="pad" gradientTransform="translate(29.2246, 135.636) scale(0.424303, -0.392774)">
<stop offset="0" stop-color="rgb(165,0,0)" stop-opacity="0"/>
<stop offset="0.679" stop-color="rgb(170,0,0)" stop-opacity="0"/>
<stop offset="0.804" stop-color="rgb(163,0,0)" stop-opacity="0.18823529411765"/>
<stop offset="0.851" stop-color="rgb(159,0,0)" stop-opacity="0.38823529411765"/>
<stop offset="1" stop-color="rgb(146,35,35)" stop-opacity="0"/>
</radialGradient>
<radialGradient id="radial8" gradientUnits="userSpaceOnUse" cx="134.558" cy="529.195" fx="136.047" fy="491.513" r="49.9214" spreadMethod="pad" gradientTransform="translate(32.967, 203.741) scale(0.645028, -0.269945)">
<stop offset="0" stop-color="rgb(0,0,0)" stop-opacity="0.7843137254902"/>
<stop offset="0.366" stop-color="rgb(0,0,0)" stop-opacity="0.35686274509804"/>
<stop offset="0.471" stop-color="rgb(0,0,0)" stop-opacity="0.24705882352941"/>
<stop offset="1" stop-color="rgb(255,255,255)" stop-opacity="0"/>
</radialGradient>
<radialGradient id="radial9" gradientUnits="userSpaceOnUse" cx="167.915" cy="411.374" fx="170.528" fy="345.226" r="87.6342" spreadMethod="pad" gradientTransform="translate(41.0028, 110.293) scale(0.479493, -0.0992319)">
<stop offset="0" stop-color="rgb(0,0,0)" stop-opacity="0.7843137254902"/>
<stop offset="0.366" stop-color="rgb(0,0,0)" stop-opacity="0.35686274509804"/>
<stop offset="0.471" stop-color="rgb(0,0,0)" stop-opacity="0.24705882352941"/>
<stop offset="1" stop-color="rgb(255,255,255)" stop-opacity="0"/>
</radialGradient>
<radialGradient id="radial10" gradientUnits="userSpaceOnUse" cx="357.013" cy="223.891" fx="357.013" fy="223.891" r="166.09" spreadMethod="pad" gradientTransform="translate(79.6138, 119.312) scale(0.120476, -0.120476)">
<stop offset="0" stop-color="rgb(255,255,255)" stop-opacity="1"/>
<stop offset="0.327" stop-color="rgb(238,238,238)" stop-opacity="1"/>
<stop offset="0.689" stop-color="rgb(199,199,199)" stop-opacity="1"/>
<stop offset="1" stop-color="rgb(255,255,255)" stop-opacity="1"/>
</radialGradient>
<radialGradient id="radial11" gradientUnits="userSpaceOnUse" cx="505.053" cy="247.062" fx="509.803" fy="250.23" r="144.101" spreadMethod="pad" gradientTransform="translate(61.6744, 115.912) scale(0.120476, -0.120476)">
<stop offset="0" stop-color="rgb(0,0,0)" stop-opacity="0"/>
<stop offset="0.686" stop-color="rgb(0,0,0)" stop-opacity="0.12156862745098"/>
<stop offset="0.867" stop-color="rgb(0,0,0)" stop-opacity="0.38823529411765"/>
<stop offset="1" stop-color="rgb(0,0,0)" stop-opacity="0.70196078431373"/>
</radialGradient>
<linearGradient id="linear3" gradientUnits="userSpaceOnUse" x1="661.664" y1="141.265" x2="641.006" y2="184.179" spreadMethod="pad" gradientTransform="translate(61.6744, 115.912) scale(0.105233, -0.137927)">
<stop offset="0" stop-color="rgb(255,255,255)" stop-opacity="0.61960784313725"/>
<stop offset="1" stop-color="rgb(255,255,255)" stop-opacity="0"/>
</linearGradient>
<radialGradient id="radial12" gradientUnits="userSpaceOnUse" cx="356.12" cy="287.594" fx="311.514" fy="363.158" r="150.006" spreadMethod="pad" gradientTransform="translate(101.386, 102.37) scale(0.0673033, -0.0673033)">
<stop offset="0" stop-color="rgb(221,238,255)" stop-opacity="1"/>
<stop offset="0.327" stop-color="rgb(170,204,238)" stop-opacity="1"/>
<stop offset="0.689" stop-color="rgb(51,102,153)" stop-opacity="1"/>
<stop offset="1" stop-color="rgb(170,204,238)" stop-opacity="1"/>
</radialGradient>
<radialGradient id="radial13" gradientUnits="userSpaceOnUse" cx="266.518" cy="253.544" fx="267.619" fy="225.566" r="48.9975" spreadMethod="pad" gradientTransform="translate(67.2356, 137.058) scale(0.218131, -0.218131)">
<stop offset="0" stop-color="rgb(0,0,0)" stop-opacity="0"/>
<stop offset="0.686" stop-color="rgb(0,0,0)" stop-opacity="0.12156862745098"/>
<stop offset="0.867" stop-color="rgb(0,0,0)" stop-opacity="0.38823529411765"/>
<stop offset="1" stop-color="rgb(0,0,0)" stop-opacity="0.70196078431373"/>
</radialGradient>
<linearGradient id="linear4" gradientUnits="userSpaceOnUse" x1="330.793" y1="190.097" x2="324.419" y2="203.338" spreadMethod="pad" gradientTransform="translate(67.2356, 137.058) scale(0.190532, -0.249727)">
<stop offset="0" stop-color="rgb(255,255,255)" stop-opacity="0.61960784313725"/>
<stop offset="1" stop-color="rgb(255,255,255)" stop-opacity="0"/>
</linearGradient>
<radialGradient id="radial14" gradientUnits="userSpaceOnUse" cx="188.456" cy="303.72" fx="187.982" fy="304.231" r="68.8278" spreadMethod="pad" gradientTransform="translate(80.5038, 147.252) scale(0.226717, -0.20987)">
<stop offset="0" stop-color="rgb(165,0,0)" stop-opacity="0"/>
<stop offset="0.679" stop-color="rgb(170,0,0)" stop-opacity="0"/>
<stop offset="0.804" stop-color="rgb(163,0,0)" stop-opacity="0.18823529411765"/>
<stop offset="0.851" stop-color="rgb(159,0,0)" stop-opacity="0.38823529411765"/>
<stop offset="1" stop-color="rgb(146,35,35)" stop-opacity="0"/>
</radialGradient>
<radialGradient id="radial15" gradientUnits="userSpaceOnUse" cx="89.4021" cy="659.416" fx="91.7364" fy="600.331" r="78.2765" spreadMethod="pad" gradientTransform="translate(11.7301, 146.382) scale(0.761544, -0.157603)">
<stop offset="0" stop-color="rgb(0,0,0)" stop-opacity="0.7843137254902"/>
<stop offset="0.366" stop-color="rgb(0,0,0)" stop-opacity="0.35686274509804"/>
<stop offset="0.471" stop-color="rgb(0,0,0)" stop-opacity="0.24705882352941"/>
<stop offset="1" stop-color="rgb(255,255,255)" stop-opacity="0"/>
</radialGradient>
<radialGradient id="radial16" gradientUnits="userSpaceOnUse" cx="129.045" cy="503.884" fx="131.498" fy="441.812" r="82.2338" spreadMethod="pad" gradientTransform="translate(11.7301, 146.382) scale(0.516271, -0.232478)">
<stop offset="0" stop-color="rgb(0,0,0)" stop-opacity="0.7843137254902"/>
<stop offset="0.366" stop-color="rgb(0,0,0)" stop-opacity="0.35686274509804"/>
<stop offset="0.471" stop-color="rgb(0,0,0)" stop-opacity="0.24705882352941"/>
<stop offset="1" stop-color="rgb(255,255,255)" stop-opacity="0"/>
</radialGradient>
<radialGradient id="radial17" gradientUnits="userSpaceOnUse" cx="357.013" cy="223.891" fx="357.013" fy="223.891" r="166.09" spreadMethod="pad" gradientTransform="translate(141.036, 113.161) scale(-0.170912)">
<stop offset="0" stop-color="rgb(255,255,255)" stop-opacity="1"/>
<stop offset="0.327" stop-color="rgb(238,238,238)" stop-opacity="1"/>
<stop offset="0.689" stop-color="rgb(199,199,199)" stop-opacity="1"/>
<stop offset="1" stop-color="rgb(255,255,255)" stop-opacity="1"/>
</radialGradient>
<radialGradient id="radial18" gradientUnits="userSpaceOnUse" cx="196.191" cy="231.479" fx="198.538" fy="233.044" r="71.2057" spreadMethod="pad" gradientTransform="translate(11.7301, 146.382) scale(0.346678, -0.346205)">
<stop offset="0" stop-color="rgb(0,0,0)" stop-opacity="0"/>
<stop offset="0.686" stop-color="rgb(0,0,0)" stop-opacity="0.12156862745098"/>
<stop offset="0.867" stop-color="rgb(0,0,0)" stop-opacity="0.38823529411765"/>
<stop offset="1" stop-color="rgb(0,0,0)" stop-opacity="0.70196078431373"/>
</radialGradient>
<linearGradient id="linear5" gradientUnits="userSpaceOnUse" x1="267.168" y1="169.091" x2="256.977" y2="190.261" spreadMethod="pad" gradientTransform="translate(11.7301, 146.382) scale(0.302609, -0.396623)">
<stop offset="0" stop-color="rgb(255,255,255)" stop-opacity="0.61960784313725"/>
<stop offset="1" stop-color="rgb(255,255,255)" stop-opacity="0"/>
</linearGradient>
<radialGradient id="radial19" gradientUnits="userSpaceOnUse" cx="356.12" cy="287.594" fx="311.514" fy="363.158" r="150.006" spreadMethod="pad" gradientTransform="translate(41.9751, 89.1264) scale(0.0954789, -0.0954789)">
<stop offset="0" stop-color="rgb(221,238,255)" stop-opacity="1"/>
<stop offset="0.327" stop-color="rgb(170,204,238)" stop-opacity="1"/>
<stop offset="0.689" stop-color="rgb(51,102,153)" stop-opacity="1"/>
<stop offset="1" stop-color="rgb(170,204,238)" stop-opacity="1"/>
</radialGradient>
<radialGradient id="radial20" gradientUnits="userSpaceOnUse" cx="185.378" cy="249.693" fx="186.362" fy="224.703" r="43.7655" spreadMethod="pad" gradientTransform="translate(11.7301, 146.382) scale(0.346441, -0.346441)">
<stop offset="0" stop-color="rgb(0,0,0)" stop-opacity="0"/>
<stop offset="0.686" stop-color="rgb(0,0,0)" stop-opacity="0.12156862745098"/>
<stop offset="0.867" stop-color="rgb(0,0,0)" stop-opacity="0.38823529411765"/>
<stop offset="1" stop-color="rgb(0,0,0)" stop-opacity="0.70196078431373"/>
</radialGradient>
<linearGradient id="linear6" gradientUnits="userSpaceOnUse" x1="235.005" y1="193.788" x2="229.312" y2="205.615" spreadMethod="pad" gradientTransform="translate(11.7301, 146.382) scale(0.302609, -0.396623)">
<stop offset="0" stop-color="rgb(255,255,255)" stop-opacity="0.61960784313725"/>
<stop offset="1" stop-color="rgb(255,255,255)" stop-opacity="0"/>
</linearGradient>
<radialGradient id="radial21" gradientUnits="userSpaceOnUse" cx="192.355" cy="252.039" fx="191.931" fy="252.495" r="61.4782" spreadMethod="pad" gradientTransform="translate(11.7301, 146.382) scale(0.360078, -0.333321)">
<stop offset="0" stop-color="rgb(165,0,0)" stop-opacity="0"/>
<stop offset="0.679" stop-color="rgb(170,0,0)" stop-opacity="0"/>
<stop offset="0.804" stop-color="rgb(163,0,0)" stop-opacity="0.18823529411765"/>
<stop offset="0.851" stop-color="rgb(159,0,0)" stop-opacity="0.38823529411765"/>
<stop offset="1" stop-color="rgb(146,35,35)" stop-opacity="0"/>
</radialGradient>
</defs>
<g transform="translate(0, 202) scale(1, -1)">
<path id="p1" fill-rule="evenodd" fill="url(#radial1)" fill-opacity="0.743169" d="M 236.07717234 160.873777836 C 236.07717234 167.04016344 211.85735123 172.044797472 182.0127918 172.044797472 152.168771827 172.044797472 127.947512165 167.04016344 127.947512165 160.873777836 127.947512165 154.707392232 152.168771827 149.7027582 182.0127918 149.7027582 211.85735123 149.7027582 236.07717234 154.707392232 236.07717234 160.873777836 Z "/>
<path id="p2" fill-rule="evenodd" fill="url(#radial2)" fill-opacity="0.721311" d="M 217.31845426 153.179215848 C 217.31845426 162.73498608 198.75573889 170.490409416 175.886538289 170.490409416 153.016618412 170.490409416 134.455341594 162.73498608 134.455341594 153.179215848 134.455341594 143.623266084 153.016618412 135.867842748 175.886538289 135.867842748 198.75573889 135.867842748 217.31845426 143.623266084 217.31845426 153.179215848 Z "/>
<path id="p3" fill-rule="evenodd" fill="url(#radial3)" d="M 194.68643492 178.582455252 C 194.68643492 169.621295004 187.40196723 162.348633216 178.426481664 162.348633216 169.451175917 162.348633216 162.166888046 169.621295004 162.166888046 178.582455252 162.166888046 187.54271784 169.451175917 194.81555916 178.426481664 194.81555916 178.426481664 194.81555916 178.426481664 194.81555916 178.426481664 194.81555916 187.40196723 194.81555916 194.68643492 187.54271784 194.68643492 178.582455252 Z "/>
<path id="p4" fill-rule="evenodd" fill="url(#radial4)" d="M 194.77814261 178.490175804 C 194.77814261 169.529195088 187.49367492 162.256353768 178.51890863 162.256353768 169.543423064 162.256353768 162.259135193 169.529195088 162.259135193 178.490175804 162.259135193 178.490175804 162.259135193 178.490175804 162.259135193 178.490175804 162.259135193 187.45115652 169.543423064 194.72399784 178.51890863 194.72399784 178.51890863 194.72399784 178.51890863 194.72399784 178.51890863 194.72399784 187.49367492 194.72399784 194.77814261 187.45115652 194.77814261 178.490175804 Z "/>
<path id="p5" fill-rule="evenodd" fill="url(#linear1)" d="M 183.69230126 190.05077988 C 183.69217035643 190.05830208249 183.69210511319 190.06578252155 183.69210511319 190.07322122753 183.69210511319 190.75916292052 184.24687789382 191.09024203884 185.02938940127 191.09024203884 186.90174566547 191.09024203884 190.07796624216 189.1947267129 190.07796624216 185.72950893058 190.07796624216 185.08923660623 189.96952885463 184.39537403856 189.72439299467 183.64997650673 189.62656327005 183.35250050595 189.50696188113 183.04681664504 189.36379252 182.73305556 187.29195703641 186.25328679224 185.80139699773 187.36023883614 184.8697337925 188.05213078446 184.09846375973 188.62490807421 183.71021833428 188.91323531772 183.69230126 190.05077988 Z "/>
<path id="p6" fill-rule="evenodd" fill="url(#radial5)" d="M 189.56878618 179.484064956 C 189.56878618 174.477994668 185.49948221 170.415005976 180.4843303 170.415005976 175.470796761 170.415005976 171.401492791 174.477994668 171.401492791 179.484064956 171.401492791 179.484064956 171.401492791 179.484064956 171.401492791 179.484064956 171.401492791 184.49067384 175.470796761 188.553483 180.4843303 188.553483 185.49948221 188.553483 189.56878618 184.49067384 189.56878618 179.484064956 189.56878618 179.484064956 189.56878618 179.484064956 189.56878618 179.484064956 Z "/>
<path id="p7" fill-rule="evenodd" fill="url(#radial6)" d="M 189.58676808 179.495375472 C 189.58676808 174.489305184 185.51746411 170.426496024 180.5023122 170.426496024 180.5023122 170.426496024 180.5023122 170.426496024 180.5023122 170.426496024 175.48895848 170.426496024 171.41965451 174.489305184 171.41965451 179.495375472 171.41965451 184.50144576 175.48895848 188.56425492 180.5023122 188.56425492 185.51746411 188.56425492 189.58676808 184.50144576 189.58676808 179.495375472 189.58676808 179.495375472 189.58676808 179.495375472 189.58676808 179.495375472 Z "/>
<path id="p8" fill-rule="evenodd" fill="url(#linear2)" d="M 183.42616914 185.89102344 C 183.42609681734 185.89520183153 183.4260607706 185.89935715762 183.4260607706 185.90348943491 183.4260607706 186.2867225292 183.736097522 186.4717136112 184.17337531501 186.4717136112 185.21941664983 186.4717136112 186.99358989305 185.41310934436 186.99358989305 183.47729385977 186.99358989305 183.11973172201 186.93305982577 182.73224147311 186.7962307343 182.31596621072 186.741539352 182.14957857144 186.6746580766 181.97859210222 186.59457992 181.8030798 185.43755124816 183.76963962817 184.60512767175 184.38771801806 184.08464411778 184.77417948567 183.6538533141 185.09404366764 183.43675532706 185.25523993608 183.42616914 185.89102344 Z "/>
<path id="p9" fill-rule="evenodd" fill="rgb(0,0,0)" d="M 183.94224967 179.75461968 C 183.94224967 178.061094324 182.56663432 176.686956396 180.87094115 176.686956396 179.174888342 176.686956396 177.798553716 178.061094324 177.798553716 179.75461968 177.798553716 181.44760644 179.174888342 182.82102624 180.87094115 182.82102624 182.56663432 182.82102624 183.94224967 181.44760644 183.94224967 179.75461968 183.94224967 179.75461968 183.94224967 179.75461968 183.94224967 179.75461968 Z "/>
<path id="p10" fill-rule="evenodd" fill="url(#radial7)" d="M 181.61359362 193.26260736 C 181.49894097306 193.10401919122 181.35123776134 192.92721622887 181.19596676539 192.74135451516 180.76381464431 192.224061937 180.2730404246 191.63659782649 180.2730404246 191.17636198741 180.2730404246 191.05503231305 180.30714832106 190.94254476717 180.38542985 190.842516 180.3476641375 190.85112082125 180.31114233512 190.8552232054 180.2758622612 190.8552232054 179.76825643001 190.8552232054 179.51770252676 190.00598297866 179.51770252676 189.49904307779 179.51770252676 189.28336593401 179.56305452934 189.12964753467 179.65325812643 189.12964753467 179.69294463705 189.12964753467 179.7413130722 189.15940280994 179.798320815 189.226728 179.73298457427 189.34662787881 179.7046455368 189.46699956664 179.7046455368 189.58412333524 179.7046455368 190.14698645393 180.35913190459 190.63483930201 180.70715824595 190.63483930201 180.83320308571 190.63483930201 180.9190503607 190.5708489125 180.9190503607 190.42325606756 180.9190503607 190.30513200392 180.86406176058 190.13345723652 180.73068233 189.89817768 180.50683922332 189.68357454178 180.42144788016 189.5525336837 180.42144788016 189.48737717261 180.42144788016 189.4526799632 180.44566303759 189.43666614457 180.4860806159 189.43666614457 180.6899536154 189.43666614457 181.30607480487 189.84411561112 181.30607480487 190.3163967315 181.30607480487 190.33885530056 181.30468155459 190.36146047507 181.30178446968 190.38417541206 181.2912621342 190.4666770286 181.26090161435 190.55062660256 181.20540449 190.63425888 180.79446457859 190.89381132257 180.61184708218 191.20184624623 180.61184708218 191.4990420883 180.61184708218 191.92750791509 180.99141483213 192.33344487201 181.61359362 192.5390934 181.71171951683 192.63706268306 181.83451833944 192.88914953952 181.83451833944 193.06869237246 181.83451833944 193.18104200302 181.78643425477 193.26498571815 181.65413179301 193.26498571815 181.64563999005 193.26498571815 181.63680123395 193.26463989652 181.62760597002 193.2639335679 181.6230240977 193.26358161416 181.61835370839 193.26314015048 181.61359362 193.26260736 Z M 171.34772691 192.38290056 C 171.08863146021 192.01239609657 170.84828592963 191.58768897126 170.63032682197 191.14377274942 170.26529402575 190.40031228345 169.96305237883 189.60297267602 169.740684507 188.91613764 169.77632661591 188.89126624804 169.80999049368 188.87983810025 169.84202890761 188.87983810025 170.01303843611 188.87983810025 170.1377378435 189.20543064416 170.26977299151 189.55017694751 170.41831368381 189.93801954348 170.57613881669 190.35010399187 170.81963265219 190.35010399187 170.92797085761 190.35010399187 171.05326842554 190.26852589708 171.202253339 190.06693776 171.35234479136 189.95100793568 171.5922556605 189.9082397388 171.82851502492 189.9082397388 172.19501581001 189.9082397388 172.5527295345 190.01115806077 172.5527295345 190.10353612147 172.5527295345 190.1637161121 172.40091891479 190.21942290675 172.000829518 190.23928848 171.99381780273 190.2392188369 171.98681470298 190.23918409793 171.9798208953 190.23918409793 171.35834006929 190.23918409793 170.81023299564 190.51349623179 170.81023299564 190.94622972401 170.81023299564 191.136309318 170.91598664893 191.35695527065 171.167728091 191.59834572 171.18317034839 191.671680423 171.27423040321 191.77900275382 171.36914077939 191.89086302901 171.4834971466 192.02564212504 171.60344323686 192.16700920422 171.60344323686 192.2634508211 171.60344323686 192.33582652599 171.53589053194 192.38290056 171.34772691 192.38290056 Z M 190.89225402 187.93230228 C 190.38071006645 187.78174580076 190.36981535953 187.22884268013 190.35934527848 186.69748919554 190.34814319073 186.12898658923 190.33742717911 185.58515220182 189.71454808022 185.58515220182 189.66306532193 185.58515220182 189.60740057126 185.58886740666 189.5472079 185.59659096 189.34959595268 186.05060155128 188.95126754998 186.2602581859 188.58354165242 186.2602581859 188.16600511175 186.2602581859 187.78792316008 185.98995625109 187.78792316008 185.50014572165 187.78792316008 185.40466414945 187.80229025085 185.30084126424 187.83353283 185.18905332 187.92023481662 185.28246149016 188.00223408518 185.40024864725 188.08348553306 185.51696160365 188.25407837005 185.76200824419 188.42137467858 186.00231961428 188.62197809819 186.00231961428 188.75187272857 186.00231961428 188.89573241549 185.90156149503 189.06349479 185.636088 189.37684051959 185.37448122907 189.62393888158 185.26589950941 189.82203208039 185.26589950941 190.35599032031 185.26589950941 190.53389339106 186.05481806531 190.69342178563 186.76225335655 190.769173234 187.09817630044 190.84078158074 187.41572648808 190.94440153 187.62171192 191.01948448951 187.66378306069 191.05278393079 187.73290495812 191.05278393079 187.79561205219 191.05278393079 187.87026690505 191.005586356 187.93582961853 190.92550743768 187.93582961853 190.91498036003 187.93582961853 190.9038850463 187.93469660219 190.89225402 187.93230228 Z M 186.07130663 180.21960756 C 186.2168001371 179.79063280624 187.01038800904 179.69738318324 187.76898074722 179.60824562287 188.21046916452 179.55636903814 188.64010456436 179.5058852285 188.92323597 179.391426444 188.99835714797 179.16139086991 189.20987530922 179.10023016273 189.46927564861 179.10023016273 189.61733906526 179.10023016273 189.78100261673 179.12015647592 189.94380562961 179.13997801708 190.10490556943 179.15959220623 190.26516288059 179.17910380392 190.40862808709 179.17910380392 190.71360048529 179.17910380392 190.94269188685 179.09093382706 190.94269188685 178.7281512776 190.94269188685 178.59345481898 190.9111107058 178.42090190083 190.84010651 178.200949752 190.71962778 177.46379136 190.11363775 176.273673732 189.70005405 175.509406008 189.68471265023 175.44823508987 189.6776957681 175.40182891485 189.6776957681 175.36832694637 189.6776957681 175.31976296373 189.69244033841 175.29831458271 189.71794640288 175.29831458271 189.87077165004 175.29831458271 190.40994241826 176.06832716829 190.47867032 176.38929234 190.64092447706 176.66611956584 190.70308865025 176.89490741293 190.74604056187 177.05298681594 190.78760558716 177.20596194875 190.81117902042 177.2927211666 190.89005437958 177.2927211666 190.94375569526 177.2927211666 191.02309166189 177.25250480468 191.15119338 177.165588708 191.39311219753 177.09336994765 191.68093300721 177.05930295798 191.99261495951 177.05930295798 192.84162051029 177.05930295798 193.86767322938 177.31207643778 194.62529646 177.735064212 194.57359182213 177.88408910633 194.47169560623 177.94196252201 194.33468977591 177.94196252201 194.11853123785 177.94196252201 193.81497645937 177.79790172743 193.48325764881 177.64047486804 193.08368950526 177.45084812411 192.64325778817 177.2418283767 192.26548152749 177.2418283767 192.10484413716 177.2418283767 191.95553551921 177.27962136836 191.82551463 177.372768636 191.23224816196 177.48208354219 191.16267062219 178.05586801345 191.09719531081 178.59582267478 191.03333857222 179.12242946648 190.9733837518 179.61685834465 190.43533254635 179.61685834465 190.26927382833 179.61685834465 190.05767525944 179.56976278382 189.78636717 179.46198252 189.43678195596 179.53905676206 189.05433796443 179.62684773966 188.65646759897 179.71817988009 187.91440500547 179.88852220986 187.11868104298 180.07118264148 186.3823935 180.21960756 186.27809848 180.21960756 186.17560165 180.21960756 186.07130663 180.21960756 Z M 162.223351212 179.80488864 C 162.38680720696 179.57968065222 162.55278750726 179.24717133761 162.73261445479 178.88692295294 163.06298795946 178.22508376236 163.44009681458 177.46961936856 163.934149178 177.113883492 163.9779337523 177.08302711583 164.02118468266 177.0587732544 164.06376440583 177.04047343431 164.13584364539 177.00949537673 164.20599947736 176.9955791869 164.27356459654 176.9955791869 164.73996522656 176.9955791869 165.08291547596 177.65870129455 165.08291547596 177.95022276484 165.08291547596 178.03235565315 165.05569321312 178.08499210506 164.99633990353 178.08499210506 164.95344246784 178.08499210506 164.89376094769 178.05749674639 164.815442097 177.993769824 164.6953123349 177.56248870541 164.50082744816 177.39395596628 164.28478092615 177.39395596628 163.76542901403 177.39395596628 163.1214792352 178.36785333086 163.086302593 179.0068689 163.08356335716 179.01093857818 163.08080308368 179.01504090208 163.0780219041 179.01917429667 162.88179913982 179.31080095651 162.58150920999 179.75709244335 162.223351212 179.80488864 Z M 162.171383521 176.647997952 C 162.377456095 176.069366316 163.58314249 175.0840947 164.292888083 174.513362472 164.38383407123 174.4966528432 164.45295497189 174.48879494172 164.50313023029 174.48879494172 164.57807956875 174.48879494172 164.61075565071 174.50632821298 164.61075565071 174.53808233975 164.61075565071 174.62443456683 164.3691112626 174.81595209287 164.0788252372 175.04602100473 163.64515126269 175.38973338042 163.10291408537 175.81948854064 163.095653181 176.113172124 162.886343865 176.397909876 162.535516996 176.644048248 162.171383521 176.647997952 Z M 188.04212287 174.267044568 C 187.92909134062 174.31555465743 187.82612322071 174.33706214793 187.73263078615 174.33706214793 187.59716409603 174.33706214793 187.48159143425 174.29190756439 187.38412490721 174.21831486133 187.07264389855 173.98312920246 186.94608034586 173.4575058113 186.94608034586 173.18704255122 186.94608034586 173.08492324086 186.96412330835 173.01917968464 186.99706822786 173.01917968464 187.04356108256 173.01917968464 187.11973222428 173.15011256351 187.21675366 173.494518372 187.36321257391 173.80419185311 187.55990980856 173.92106496243 187.74861752635 173.92106496243 188.06342849613 173.92106496243 188.35600427272 173.59580171928 188.35600427272 173.29779082134 188.35600427272 173.12084504826 188.25285778137 172.95350698715 187.98997536 172.86956748 187.73784756032 172.5173871896 187.63071671251 172.2313926172 187.63071671251 171.99661224721 187.63071671251 171.2405154762 188.74179776922 171.01557412218 189.69923103018 170.82173917844 190.03264201852 170.75423922539 190.34742059264 170.69051145481 190.5901581 170.609439132 190.68798975865 170.56834169854 190.78977483954 170.55072140931 190.89130832168 170.55072140931 191.38418902223 170.55072140931 191.87114083046 170.96594125018 191.87114083046 171.12640057796 191.87114083046 171.16483035536 191.84320948966 171.18864718218 191.78073874059 171.18864718218 191.68667933883 171.18864718218 191.51431919276 171.13465450077 191.24110288 170.9952534 191.10082446014 170.974392766 190.95609042666 170.96475096764 190.80857628898 170.96475096764 190.58096841455 170.96475096764 190.34674190636 170.98770533465 190.11205147714 171.02782107738 189.29582969926 171.16733824033 188.47399654167 171.51443167035 187.90546043 171.825409368 187.90228997349 171.86661981327 187.90076875682 171.90606131547 187.90076875682 171.94383908116 187.90076875682 172.47427546024 188.20067474742 172.67670823758 188.44609814966 172.842365952 188.61606030405 172.95708827178 188.75989301002 173.05417354201 188.75989301002 173.23034764425 188.75989301002 173.42904792538 188.57692697361 173.72835515831 188.04212287 174.267044568 Z M 175.132377403 166.761709308 C 174.9249920446 166.53173957094 174.54384737375 166.52691524723 174.16120090348 166.52207191454 173.58754970844 166.51481094705 173.0105232139 166.50750725684 173.0105232139 165.74149532994 173.0105232139 165.66940896384 173.01563333224 165.5906035148 173.026337275 165.504446712 173.0732269724 165.32780021583 173.09447715914 165.15706927855 173.09447715914 164.9936116001 173.09447715914 164.1616318354 172.54395142453 163.51807941062 172.021688522 163.241984448 172.12552099484 163.22316510466 172.22027474672 163.21421786124 172.30681231048 163.21421786124 173.13233421882 163.21421786124 173.21017184452 164.02842917096 173.28909352039 164.85398005979 173.34546164599 165.44361219411 173.40238277012 166.03902890435 173.732666307 166.347708516 173.82609530888 166.28321943587 174.11298639588 166.24811998687 174.423697774 166.24811998687 174.89008683362 166.24811998687 175.41014562926 166.32720290625 175.41014562926 166.50467934851 175.41014562926 166.57466216624 175.32928188125 166.65994415613 175.132377403 166.761709308 Z "/>
<path id="p11" fill-rule="evenodd" fill="url(#radial8)" d="M 286.1459747 107.487065124 C 286.1459747 123.616040472 254.81790852 136.706257188 216.21616379 136.706257188 177.614778698 136.706257188 146.285993242 123.616040472 146.285993242 107.487065124 146.285993242 91.358089776 177.614778698 78.26787306 216.21616379 78.26787306 216.21616379 78.26787306 216.21616379 78.26787306 216.21616379 78.26787306 254.81790852 78.26787306 286.1459747 91.358089776 286.1459747 107.487065124 Z "/>
<path id="p12" fill-rule="evenodd" fill="url(#radial9)" fill-opacity="0.693989" d="M 310.89086729 123.545125332 C 310.89086729 133.953133968 270.00901764 142.4002941 219.63632117 142.4002941 169.264164157 142.4002941 128.382134688 133.953133968 128.382134688 123.545125332 128.382134688 113.137116696 169.264164157 104.689956564 219.63632117 104.689956564 270.00901764 104.689956564 310.89086729 113.137116696 310.89086729 123.545125332 Z "/>
<path id="p13" fill-rule="evenodd" fill="url(#radial10)" d="M 247.94702453 150.36433362 C 247.94702453 135.239301216 235.6527995 122.963980248 220.50304875 122.963980248 205.35509619 122.963980248 193.05907297 135.239301216 193.05907297 150.36433362 193.05907297 165.489366024 205.35509619 177.764686992 220.50304875 177.764686992 220.50304875 177.764686992 220.50304875 177.764686992 220.50304875 177.764686992 235.6527995 177.764686992 247.94702453 165.489366024 247.94702453 150.36433362 Z "/>
<path id="p14" fill-rule="evenodd" fill="url(#radial11)" d="M 248.10346706 150.208679376 C 248.10346706 135.083646972 235.80924203 122.808326004 220.65949128 122.808326004 205.50974053 122.808326004 193.2155155 135.083646972 193.2155155 150.208679376 193.2155155 165.33371178 205.50974053 177.609032748 220.65949128 177.609032748 235.80924203 177.609032748 248.10346706 165.33371178 248.10346706 150.208679376 Z "/>
<path id="p15" fill-rule="evenodd" fill="url(#linear3)" d="M 229.39150192 169.720037604 C 229.39128646686 169.73257608413 229.39117907926 169.74504583573 229.39117907926 169.757446908 229.39117907926 170.91580093128 230.32813309589 171.47492957177 231.64953219032 171.47492957177 234.80983502721 171.47492957177 240.16913010596 168.27676261997 240.16913010596 162.428949614 240.16913010596 161.34768346523 239.9859046001 160.17583026509 239.57167417791 158.91685746645 239.4065763505 158.41507473228 239.20478241922 157.89945268297 238.96326729 157.370210856 235.4666028059 163.31183088496 232.95128886759 165.17984870085 231.37903578836 166.34749490133 230.0777207718 167.31392680393 229.42244618153 167.80057166772 229.39150192 169.720037604 Z "/>
<path id="p16" fill-rule="evenodd" fill="url(#radial12)" d="M 240.8495686 148.123415196 C 240.8495686 139.673921148 233.98228099 132.816337344 225.51820066 132.816337344 217.05591852 132.816337344 210.18683272 139.673921148 210.18683272 148.123415196 210.18683272 156.572909244 217.05591852 163.430493048 225.51820066 163.430493048 233.98228099 163.430493048 240.8495686 156.572909244 240.8495686 148.123415196 240.8495686 148.123415196 240.8495686 148.123415196 240.8495686 148.123415196 Z "/>
<path id="p17" fill-rule="evenodd" fill="url(#radial13)" d="M 240.88013783 148.006898928 C 240.88013783 139.557225348 234.01285022 132.699641544 225.54876989 132.699641544 217.08648775 132.699641544 210.21740195 139.557225348 210.21740195 148.006898928 210.21740195 148.006898928 210.21740195 148.006898928 210.21740195 148.006898928 210.21740195 156.456392976 217.08648775 163.31397678 225.54876989 163.31397678 234.01285022 163.31397678 240.88013783 156.456392976 240.88013783 148.006898928 240.88013783 148.006898928 240.88013783 148.006898928 240.88013783 148.006898928 Z "/>
<path id="p18" fill-rule="evenodd" fill="url(#linear4)" d="M 230.48300325 158.936268492 C 230.48288422706 158.94323400536 230.4828249018 158.9501615524 230.4828249018 158.95705116015 230.4828249018 159.60427644261 231.00637905898 159.91668193789 231.74473592264 159.91668193789 233.51046319905 159.91668193789 236.50463166023 158.13005744405 236.50463166023 154.86335537292 236.50463166023 154.25908889863 236.40218113841 153.60417907474 236.17055385561 152.90056613417 236.07834356705 152.62045944079 235.96566111563 152.33263419083 235.83082031 152.037212796 233.87753558362 155.35691804875 232.47242972045 156.40025824873 231.59399141177 157.05252938692 230.86718295971 157.59221005839 230.50091493429 157.86417686523 230.48300325 158.936268492 Z "/>
<path id="p19" fill-rule="evenodd" fill="rgb(0,0,0)" d="M 231.40008015 147.0905676 C 231.40008015 144.233136288 229.07861686 141.913941912 226.21589838 141.913941912 226.21589838 141.913941912 226.21589838 141.913941912 226.21589838 141.913941912 223.3531799 141.913941912 221.03171661 144.233136288 221.03171661 147.0905676 221.03171661 149.947998912 223.3531799 152.267193288 226.21589838 152.267193288 229.07861686 152.267193288 231.40008015 149.947998912 231.40008015 147.0905676 Z "/>
<path id="p20" fill-rule="evenodd" fill="url(#radial14)" d="M 230.91636704 175.1469309 C 230.87771557371 175.14848438588 230.83988431053 175.14925191673 230.80285514436 175.14925191673 229.16693271731 175.14925191673 229.0965512724 173.6511775076 229.03042801442 172.24373893092 228.97184941294 170.99688894196 228.91661271747 169.82117167672 227.77920290114 169.82117167672 227.5931383374 169.82117167672 227.37811433519 169.85263439848 227.1293789 169.920395316 226.92162558809 170.0700472893 226.73254494923 170.13113249871 226.56484016146 170.13241263128 226.56304065098 170.1324263674 226.56124360166 170.13243321768 226.55944901685 170.13243321768 226.01711435999 170.13243321768 225.69985970411 169.50680592115 225.69985970411 169.23628532292 225.69985970411 169.16166631874 225.72399797873 169.11406555635 225.77420898393 169.11406555635 225.84477526022 169.11406555635 225.96683867374 169.2080834416 226.14576897 169.453253052 226.56608872653 169.29513592716 226.96211276645 169.22183361345 227.32537600991 169.22183361345 228.68343445108 169.22183361345 229.58361628355 170.24633296738 229.58361628355 171.69379715484 229.58361628355 171.97107152712 229.55058434587 172.26386648371 229.48141142 172.56795372 229.36177824245 172.78836415167 229.31071183905 172.98135254678 229.31071183905 173.15208160624 229.31071183905 173.7337942575 229.90355169647 174.05709393095 230.39700138582 174.32619210549 230.74875237457 174.51801621849 231.04999906764 174.68229828603 231.04999906764 174.89300862709 231.04999906764 174.97020520414 231.00956507053 175.05363348671 230.91636704 175.1469309 Z M 205.25439755 172.455387156 C 205.17096662753 172.31406264284 205.13541565542 172.18204854392 205.13541565542 172.05805100544 205.13541565542 171.65528313578 205.51050522595 171.3370960253 205.83815942749 171.05914816479 206.09224449027 170.84360873556 206.31780432867 170.65226714981 206.31780432867 170.46444578281 206.31780432867 170.30368934406 206.15256685977 170.14551169788 205.69855048 169.976947896 205.61985475744 169.68865599304 205.58318803424 169.4054064435 205.58318803424 169.13229569391 205.58318803424 167.60382319992 206.73163188544 166.3929095561 208.08856758444 166.3929095561 208.14568937345 166.3929095561 208.20318062817 166.39505540055 208.26097123 166.399413732 207.98463322572 166.14870420333 207.86942052098 165.80126717368 207.86942052098 165.54665958489 207.86942052098 165.35100546129 207.93745603892 165.21016906897 208.0526924913 165.21016906897 208.15733076951 165.21016906897 208.3008871815 165.32629154878 208.46776308 165.622937832 208.68501473154 165.97085006169 208.77640311916 166.22959971205 208.77640311916 166.42619924374 208.77640311916 166.89385226726 208.25930429506 167.00984405559 207.68911576939 167.13774453359 206.98845076303 167.29491253189 206.20761902227 167.47006293984 206.20761902227 168.3378229053 206.20761902227 168.44014971028 206.21847670301 168.55210744221 206.24160386 168.6748023 206.18771157179 168.8639746906 206.16285741786 169.03112613474 206.16285741786 169.17988903987 206.16285741786 169.97295256083 206.869216656 170.24341070821 207.64802220997 170.54160785199 208.32681880932 170.8015125305 209.06065022744 171.08248951094 209.42979473 171.748928736 209.63416824889 171.38357459168 209.70493668479 170.86514292272 209.77975585124 170.3170366259 209.91361776842 169.33639806516 210.06044615399 168.26077043529 211.00860555 167.79689082 211.36644536 165.982360896 212.50110325 163.743237792 214.22197108 163.138394484 214.21566672781 163.65444759586 213.69443850598 164.1767071708 213.12035568435 164.75192592882 212.41143320624 165.46225115024 211.62191144492 166.25333513649 211.62191144492 167.21321777292 211.62191144492 167.24972109657 211.62305325179 167.28646853694 211.62538472 167.323464936 211.51606808926 168.04257441285 211.14268624071 168.52123263568 210.78474989652 168.98009043784 210.39899572225 169.47460940873 210.03118110716 169.94613069631 210.03118110716 170.67085201516 210.03118110716 170.94396342811 210.0834167094 171.25303332553 210.20661281 171.61284348 210.04974701084 172.06251810946 209.79914597267 172.23265354791 209.50554160076 172.23265354791 208.89246171562 172.23265354791 208.09187753425 171.49082441799 207.5656857152 171.00324993378 207.43105369608 170.87849858854 207.3143847466 170.77039199926 207.2234156 170.695614492 206.50814025471 170.72784897534 206.21479951731 171.24483300621 205.9489399038 171.71338427481 205.75429498017 172.05642669742 205.57438050318 172.37350816505 205.25439755 172.455387156 Z M 199.39589453 162.569098512 C 199.28415453082 162.59608529033 199.17449541053 162.60826278479 199.06805474575 162.60826278479 198.29645652673 162.60826278479 197.69398602454 161.96834347233 197.69398602454 161.6910456316 197.69398602454 161.61434641527 197.74007793033 161.56538949447 197.84143164797 161.56538949447 197.990949705 161.56538949447 198.26073104167 161.67193178217 198.68021491 161.95312422 198.92504243196 161.99508741371 199.17809268454 162.01423511793 199.43616136049 162.01423511793 201.1720982896 162.01423511793 203.13510774631 161.1478439685 204.34990798 160.531410312 204.24111984541 159.94869350146 203.91274393216 159.47348612271 203.612068993 159.03836605472 203.31249789718 158.6048434075 203.04042475614 158.21111427279 203.04042475614 157.79049637078 203.04042475614 157.37721844565 203.30308514429 156.93798200793 204.06039939 156.409535124 204.19666142785 156.32465740121 204.34024336098 156.28708005295 204.4856409125 156.28708005295 205.28242229472 156.28708005295 206.13372780644 157.41555078292 206.13372780644 158.07239007499 206.13372780644 158.3348995184 205.99775343533 158.52207785296 205.66798125 158.531782896 205.71545209836 158.34428527933 205.7370585678 158.17813713983 205.7370585678 158.03162230633 205.7370585678 157.34381303479 205.2608944477 157.08868323919 204.74907614885 157.08868323919 204.15440632086 157.08868323919 203.51160485641 157.43309769487 203.51160485641 157.84344265006 203.51160485641 158.01636296462 203.62575348398 158.2009912115 203.90575505 158.376487716 204.50379715466 158.90340706346 204.7672225192 159.49485470847 204.7672225192 160.04220026589 204.7672225192 161.06853838315 203.84100005103 161.93981039851 202.45792364458 161.93981039851 202.36301812215 161.93981039851 202.26596146308 161.9357079382 202.16690532 161.927271612 202.11817211479 161.94486619989 202.06935266656 161.96256249975 202.02044461441 161.98029091717 201.21694815744 162.27154603689 200.38953726391 162.57146977241 199.52774332526 162.57146977241 199.48388324554 162.57146977241 199.43993410713 162.57069291234 199.39589453 162.569098512 Z M 243.82557305 156.202534728 C 243.7457243774 156.10213521199 243.71004644742 156.00598793418 243.71004644742 155.91269808301 243.71004644742 155.56298008651 244.21142622308 155.25341733241 244.76677927606 154.91053030559 245.45612333924 154.48491432129 246.22862703116 154.00795377753 246.22862703116 153.33911936567 246.22862703116 153.32776452431 246.22840437974 153.31635438096 246.22795489 153.304888248 246.2299043214 153.29483524903 246.23197047242 153.28488526698 246.23415090042 153.27503754534 246.37082981945 152.65773857926 246.95654181398 152.44225552035 247.389646264 152.44225552035 247.6633271501 152.44225552035 247.8760712358 152.52829876411 247.8760712358 152.65336933729 247.8760712358 152.76992036882 247.69132335801 152.92036290085 247.19897749 153.066649284 246.83788822397 153.40749789103 246.51692732147 153.79709141669 246.19510681943 154.18772835423 245.52970396923 154.99541751631 244.86062628209 155.8075673235 243.82557305 156.202534728 Z M 201.21026824 154.701467676 C 200.6374359306 154.47998115837 200.2473879619 153.36929046314 199.93739931933 152.48657467286 199.71794231824 151.86165448694 199.53861070525 151.35099433768 199.36295534879 151.35099433768 199.32174211596 151.35099433768 199.2807312579 151.37910574174 199.239452 151.440448428 199.15361039713 151.42341056053 199.06452670331 151.41596020943 198.97248116534 151.41596020943 198.6726616224 151.41596020943 198.34141698464 151.49500825457 197.98843253374 151.57924427722 197.58586038412 151.67531388206 197.15501131405 151.77813147623 196.71025267485 151.77813147623 196.41324815875 151.77813147623 196.11004079667 151.73228090422 195.8049091 151.607951784 195.59177284778 151.40073055704 195.0784831198 151.2694834883 194.55203033072 151.13487065342 193.81444925349 150.94627277377 193.05103025516 150.7510681938 193.05103025516 150.33106292138 193.05103025516 150.25921073806 193.0733728401 150.18077943034 193.12200962 150.094676556 194.13769420436 150.66387908207 195.63849507606 151.17478118008 196.88680240393 151.17478118008 197.98171994869 151.17478118008 198.8823834499 150.78172242346 199.09104850894 149.69018606074 199.12096622772 149.53368512047 199.13665860822 149.36282565044 199.13665860822 149.17670746503 199.13665860822 148.89714085816 199.10125220577 148.58314631871 199.02546739 148.231672992 199.03291236883 147.66696039615 199.36821440171 147.52584873836 199.81314399417 147.52584873836 200.03524595448 147.52584873836 200.28466547734 147.56101167141 200.53425713145 147.59619887137 200.78419352356 147.63143467217 201.03430252275 147.66669480696 201.25732606182 147.66669480696 201.55079989245 147.66669480696 201.79737364423 147.60563979461 201.93493881 147.403132812 202.68049407408 147.36809515935 203.48640671444 147.1447265301 204.28979598576 146.9220572837 205.15877619831 146.68120869888 206.02480419241 146.44117835782 206.80830632176 146.44117835782 207.05974767704 146.44117835782 207.3026897327 146.46589896865 207.53450247 146.52324648 206.9731428394 147.03137347363 205.95022870114 147.16524694739 204.9064275846 147.30185399597 204.08116559305 147.40985982504 203.24284719123 147.51957440652 202.60926006 147.817313136 202.39084808254 148.10969512678 202.01340197281 148.18291676077 201.58870643695 148.18291676077 201.37335250313 148.18291676077 201.14584939494 148.1640893914 200.92077208442 148.14546277265 200.70044399853 148.12722918328 200.48244041966 148.10918796206 200.28043303656 148.10918796206 199.70511497498 148.10918796206 199.2595441875 148.25552270993 199.2595441875 148.96051050716 199.2595441875 149.17789105912 199.30190798512 149.44838699786 199.39589453 149.784086196 199.69259588 151.005801456 200.52335966 152.9881938 201.41706009 154.3391721 201.45916965107 154.38121445213 201.47821043762 154.43661849358 201.47821043762 154.49185588658 201.47821043762 154.60279379958 201.40140737808 154.71305951815 201.28043212647 154.71305951815 201.25843876146 154.71305951815 201.2349854422 154.70941507813 201.21026824 154.701467676 Z M 244.81098117 151.544038392 C 244.80422706319 151.54967319041 244.79747330682 151.55519737657 244.79072021463 151.56061200223 244.59723891834 151.71574520077 244.40430281596 151.78094384519 244.21929018503 151.78094384519 243.47045328393 151.78094384519 242.85142012516 150.71284785925 242.85142012516 150.21681303879 242.85142012516 150.06679659501 242.90803979297 149.96910354084 243.03481208455 149.96910354084 243.11404851049 149.96910354084 243.22069089475 150.00726849642 243.35804365 150.094676556 243.50708352139 150.83389750821 243.83945590809 151.12306840874 244.22121644951 151.12306840874 245.02167456668 151.12306840874 246.03926174284 149.85176345971 246.03926174284 148.79215813852 246.03926174284 148.76575208399 246.03862978167 148.73947750314 246.03734675 148.713357348 246.07652882702 147.8544040089 247.24338020707 147.19480889482 247.63916575911 147.19480889482 247.72027693268 147.19480889482 247.76900392259 147.2225113925 247.76900392259 147.28187774204 247.76900392259 147.39813357498 247.58214303881 147.63581565139 247.08569152 148.024672596 246.58403706591 148.41665534997 246.38468434414 149.07216531446 246.1892562874 149.71477022799 245.93705486752 150.54405684281 245.69138962491 151.35185125378 244.81098117 151.544038392 Z M 204.26898943 137.93084496 C 204.1380621366 137.09792412028 203.71505029696 136.60774199626 203.23428114309 136.60774199626 202.86986496104 136.60774199626 202.47226475061 136.88937243107 202.14352885 137.516844168 201.73104235423 137.72977087638 201.39571833393 137.82253545681 201.12075642508 137.82253545681 200.1460638754 137.82253545681 199.92986968808 136.6568740733 199.7238251276 135.54593677007 199.59067737202 134.82803959204 199.46176795326 134.13299439552 199.13515698 133.790118912 199.13814901687 133.50140009477 199.21371821426 133.38258094735 199.32612450037 133.38258094735 199.67254919242 133.38258094735 200.36885603007 134.51113642468 200.36885603007 135.27301032254 200.36885603007 135.45249357789 200.33021200579 135.61162653493 200.23924564 135.730859832 200.2212643797 135.8654936044 200.21272197277 135.98940804493 200.21272197277 136.10315339244 200.21272197277 136.88450895606 200.61581973715 137.18600694578 201.13143269928 137.18600694578 201.8318382254 137.18600694578 202.7398606325 136.62967257049 203.12713878 135.9640719 203.15891092648 135.9526769929 203.19321043404 135.94726241521 203.22956818785 135.94726241521 203.7467146108 135.94726241521 204.68027980058 137.042725004 204.68027980058 137.60557174749 204.68027980058 137.80015479093 204.56870289368 137.93108118859 204.28976977346 137.93108118859 204.28294349751 137.93108118859 204.27601698888 137.93100277439 204.26898943 137.93084496 Z M 234.70155699 131.874871536 C 234.35746678153 130.64093099591 233.85886020119 129.36289916424 232.86727420225 129.36289916424 232.52709772794 129.36289916424 232.12890140816 129.51331357623 231.65901951 129.867524244 231.41499992523 130.00205665197 231.18137470386 130.0547041624 230.97731055569 130.0547041624 230.55555551577 130.0547041624 230.26007255683 129.82981683665 230.26007255683 129.63816076644 230.26007255683 129.49585388924 230.42297929894 129.37186818898 230.81806166983 129.37186818898 230.92729777057 129.37186818898 231.05428286383 129.38134645023 231.20048106 129.402536364 231.22035624455 129.40297687241 231.24049997037 129.40319760396 231.26088569733 129.40319760396 232.04154846683 129.40319760396 233.17709977135 129.07950040118 233.17709977135 128.37849203226 233.17709977135 128.29952215826 233.16268913214 128.21576404169 233.13173712 128.127141036 233.13176581167 128.12548673661 233.13178010806 128.12382511014 233.13178010806 128.1221562077 233.13178010806 127.87843221286 232.82687747054 127.47953194754 232.52505180917 127.08465725121 232.22925713374 126.69767281754 231.93641769666 126.31455468483 231.93641769666 126.08515075086 231.93641769666 125.95176931028 232.03541392491 125.8703519291 232.29038450863 125.8703519291 232.29854874824 125.8703519291 232.30687290849 125.87043540641 232.31535886 125.870603328 233.32139966559 127.30659434108 233.91677105324 128.80557141431 234.53394823904 130.35944933124 234.70551472434 130.79140530583 234.87876627662 131.22760380337 235.06299318 131.66787114 235.04784490365 131.80776905534 234.90891317384 131.88281623102 234.77520097216 131.88281623102 234.75018888182 131.88281623102 234.72535942864 131.88019024596 234.70155699 131.874871536 Z M 218.21395288 131.408985996 C 218.21396502833 131.40699887155 218.21397109417 131.40500106102 218.21397109417 131.40299264141 218.21397109417 130.69996538533 217.47073486486 128.69702978447 216.69769469634 128.69702978447 216.59216558095 128.69702978447 216.48608105499 128.73435544129 216.38125606346 128.81740906616 216.28202629455 128.8960295543 216.18392518876 129.01562666804 216.0884923 129.183327792 216.39252759911 129.58499954733 216.89675175121 130.43770512479 216.89675175121 130.72989471224 216.89675175121 130.79354185459 216.87282674867 130.83059299508 216.81769609805 130.83059299508 216.79489819938 130.83059299508 216.76676404529 130.82425714367 216.73277879256 130.8108461167 216.62151614589 130.76694041536 216.44754084463 130.64720228161 216.19278732 130.425689232 215.77207411036 130.11489364899 215.61938868791 129.78679705965 215.61938868791 129.45348426043 215.61938868791 128.99155160575 215.91264739916 128.51960031955 216.19214326381 128.0697980537 216.44658122215 127.66032233452 216.68961349739 127.26920217173 216.68961349739 126.92070584025 216.68961349739 126.52329413035 216.37356855086 126.18131146367 215.39798734 125.930746548 214.83274680607 125.68027124237 214.6433950645 125.2502948041 214.6433950645 124.91041906582 214.6433950645 124.62585025639 214.77613560135 124.40444440068 214.93212867952 124.40444440068 215.09006992131 124.40444440068 215.27184812296 124.63141496811 215.36382173 125.24960214 216.83221771491 125.50649149365 217.12108785633 126.83258765055 217.12108785633 127.73127518857 217.12108785633 127.74175529453 217.12104857225 127.75217727627 217.12097141657 127.76253876033 217.11867135777 128.07142103946 217.08271582213 128.32654065311 217.05052395 128.46502026 217.08007501744 128.46136252067 217.10948351943 128.45957712784 217.13872123934 128.45957712784 217.91940936498 128.45957712784 218.57833585943 129.73249953716 218.57833585943 130.62299339284 218.57833585943 130.98576418532 218.46898058286 131.28506723049 218.21395288 131.408985996 Z "/>
<path id="p21" fill-rule="evenodd" fill="url(#radial15)" fill-opacity="0.693989" d="M 15.6614257145 74.54976534 C 15.6614257145 89.315015616 73.658178056 101.298417552 145.118608294 101.298417552 216.57939817 101.298417552 274.57642024 89.315015616 274.57642024 74.54976534 274.57642024 59.784515064 216.57939817 47.801113128 145.118608294 47.801113128 73.658178056 47.801113128 15.6614257145 59.784515064 15.6614257145 74.54976534 Z "/>
<path id="p22" fill-rule="evenodd" fill="url(#radial16)" d="M 49.83144128 49.903971444 C 49.83144128 72.785145312 91.136944494 91.355217264 142.030936245 91.355217264 192.92600691 91.355217264 234.23043121 72.785145312 234.23043121 49.903971444 234.23043121 27.022797576 192.92600691 8.45236656 142.030936245 8.45236656 91.136944494 8.45236656 49.83144128 27.022797576 49.83144128 49.903971444 49.83144128 49.903971444 49.83144128 49.903971444 49.83144128 49.903971444 Z "/>
<path id="p23" fill-rule="evenodd" fill="url(#radial17)" d="M 104.955854825 112.59618678 C 104.955854825 91.1394198 122.397938187 73.724995332 143.889185791 73.724995332 165.380433395 73.724995332 182.8219773 91.1394198 182.8219773 112.59618678 182.8219773 112.59618678 182.8219773 112.59618678 182.8219773 112.59618678 182.8219773 134.053133292 165.380433395 151.467378228 143.889185791 151.467378228 122.397938187 151.467378228 104.955854825 134.053133292 104.955854825 112.59618678 Z "/>
<path id="p24" fill-rule="evenodd" fill="url(#radial18)" d="M 136.004841917 150.84458172 C 121.402819841 147.68392086 108.939564951 135.8743059 105.817367654 121.164710544 105.17213516932 118.41738822964 104.86109885401 115.61340140208 104.86109885401 112.81182905359 104.86109885401 99.132981158957 112.27601859372 85.511693001448 124.410112797 78.824601792 130.29873553659 75.392170347424 137.07720825894 73.695428113514 143.85389321784 73.695428113514 153.03746784664 73.695428113514 162.21775926304 76.81148083331 169.175693209 82.946656512 177.90448062977 90.267627562231 182.90834702239 101.57079113213 182.90834702239 112.8612419298 182.90834702239 117.38674792001 182.10441851634 121.91021145761 180.41420089 126.174371472 175.166003556 140.52328704 160.926856222 151.048171008 145.578765115 151.4666601 145.01820287479 151.49738522487 144.45819450525 151.51144409787 143.8987476677 151.51144409787 141.25463266934 151.51144409787 138.62306113623 151.19739789943 136.004841917 150.84458172 Z "/>
<path id="p25" fill-rule="evenodd" fill="url(#linear5)" d="M 156.942786458 137.576987388 C 156.94248212942 137.59473715307 156.94233044289 137.61238983457 156.94233044289 137.62994550184 156.94233044289 139.27337316924 158.27160145344 140.06663839934 160.14628856778 140.06663839934 164.62983743166 140.06663839934 172.23309599101 135.52926370096 172.23309599101 127.23285598636 172.23309599101 125.69873179363 171.97311558144 124.03607390242 171.38535528958 122.2498036325 171.15128240161 121.53842954585 170.8652237968 120.807450601 170.522897157 120.057177636 165.5623917459 128.48657784269 161.99362230918 131.13646553256 159.76279876035 132.79289976433 157.91659841635 134.16374303435 156.98675731285 134.85416995528 156.942786458 137.576987388 Z "/>
<path id="p26" fill-rule="evenodd" fill="url(#radial19)" d="M 158.524294563 109.417213656 C 158.524294563 97.430400612 148.78044241 87.702100128 136.774467237 87.702100128 124.768492064 87.702100128 115.024639911 97.430400612 115.024639911 109.417213656 115.024639911 121.4040267 124.768492064 131.132327184 136.774467237 131.132327184 148.78044241 131.132327184 158.524294563 121.4040267 158.524294563 109.417213656 Z "/>
<path id="p27" fill-rule="evenodd" fill="url(#radial20)" d="M 158.480958184 109.251864684 C 158.480958184 97.26505164 148.736926212 87.536751156 136.730951039 87.536751156 124.724975866 87.536751156 114.980943894 97.26505164 114.980943894 109.251864684 114.980943894 121.238677728 124.724975866 130.967157744 136.730951039 130.967157744 148.736926212 130.967157744 158.480958184 121.238677728 158.480958184 109.251864684 Z "/>
<path id="p28" fill-rule="evenodd" fill="url(#linear6)" d="M 143.647149417 122.118923124 C 143.64697926872 122.12884277867 143.6468944618 122.13870815469 143.6468944618 122.14851929086 143.6468944618 123.06658100549 144.38946282955 123.50971924736 145.4367239547 123.50971924736 147.9414441044 123.50971924736 152.18905668965 120.97489598403 152.18905668965 116.34009803244 152.18905668965 115.48310987852 152.04383451907 114.55432542108 151.71552016322 113.55649363069 151.58475880426 113.15907622083 151.4249539479 112.75070598941 151.233713027 112.331556612 148.46249970124 117.04065045787 146.46880744905 118.52099525649 145.22255922336 119.44635225512 144.19119447502 120.21215522146 143.67174034263 120.59785728865 143.647149417 122.118923124 Z "/>
<path id="p29" fill-rule="evenodd" fill="rgb(0,0,0)" d="M 128.429966542 107.952053004 C 128.429966542 103.898399976 131.725329536 100.608476076 135.785462737 100.608476076 139.845595938 100.608476076 143.140958932 103.898399976 143.140958932 107.952053004 143.140958932 112.005885564 139.845595938 115.295809464 135.785462737 115.295809464 131.725329536 115.295809464 128.429966542 112.005885564 128.429966542 107.952053004 Z "/>
<path id="p30" fill-rule="evenodd" fill="url(#radial21)" d="M 128.939753407 147.713723172 C 128.93161130185 147.67293725474 128.92769839275 147.63339734598 128.92769839275 147.59497484649 128.92769839275 147.17595446318 129.39306887301 146.88982990691 129.91357749617 146.56980466864 130.57400623889 146.16375209554 131.32320130028 145.70312316958 131.32320130028 144.84721088111 131.32320130028 144.61991856924 131.27036822694 144.36475096032 131.149009641 144.07532766 131.00780017851 143.5512411611 130.943231577 143.08249678903 130.943231577 142.66343023413 130.943231577 139.81817277018 133.91968108151 139.26293724909 136.09421196 139.224911616 136.39202364205 139.36304106402 136.51907534984 139.47187469272 136.51907534984 139.5631291731 136.51907534984 139.75530507255 135.95560643919 139.86951819823 135.2368918902 140.01519905757 134.93644184184 140.07609920394 134.60886171244 140.14249852035 134.283974087 140.222391408 133.26026452 140.474274804 132.476793137 140.690790396 132.270360925 141.00533046 131.76279891718 141.77886240032 131.72502683278 142.86371208235 131.68769450603 143.9359315122 131.62202203054 145.82210658763 131.55771040445 147.66919679237 128.939753407 147.713723172 Z M 165.23028453 143.935113168 C 164.80112987926 142.64913535705 163.77622352534 141.63439941849 162.74934525169 141.63439941849 162.15539772815 141.63439941849 161.56079050314 141.97387712784 161.080421648 142.796700756 160.32366863547 143.42450575631 159.80809271995 143.68064995468 159.45195385819 143.68064995468 158.74757988941 143.68064995468 158.666879179 142.6786853358 158.57745930528 141.56846524928 158.47221780588 140.26180687782 158.35489870315 138.80519528845 157.194533058 138.655615644 156.496116062 135.667305504 154.907774835 132.866067708 152.580377518 130.943279988 152.58427581634 130.94326123853 152.58817209139 130.94325187354 152.59206634244 130.94325187354 153.50086728479 130.94325187354 154.29943801619 131.45328342817 154.97860008373 132.22574279092 156.3029119016 133.73197688702 157.1732094482 136.23601102718 157.521444 137.90211984 159.01695756237 137.98841786091 159.09943709537 139.73582623428 159.16524436058 141.1300165515 159.20965595706 142.07091901245 159.24647409264 142.85094668798 159.70490455949 142.85094668798 159.99448446561 142.85094668798 160.45229427883 142.53970345893 161.186514858 141.76116018 161.41952005553 141.63466945143 161.65641204054 141.51411726505 161.89034177314 141.3950725421 163.16004533052 140.7489318975 164.34248071432 140.14720123631 164.34248071432 138.88134735891 164.34248071432 138.36386827348 164.14487665192 137.73540346547 163.67485018 136.947548196 163.3802284283 136.83834773707 163.06238099397 136.74155423562 162.74636770688 136.6453192837 161.64706200156 136.31054971538 160.56995156832 135.98253923293 160.56995156832 135.16251888005 160.56995156832 134.78859164769 160.79391914935 134.31235897189 161.341878474 133.686528948 161.36093197336 133.68581886956 161.37926154447 133.68546849206 161.39688789243 133.68546849206 161.68911368908 133.68546849206 161.78805117732 133.78177344787 161.78805117732 133.93189748792 161.78805117732 134.0802670073 161.69141276785 134.28120497967 161.58921720665 134.49369780697 161.47455110532 134.73212033513 161.35288886735 134.98508976568 161.35288886735 135.19467164539 161.35288886735 135.46612495347 161.55698680477 135.66479224525 162.24473447298 135.66479224525 162.41102853749 135.66479224525 162.60559913725 135.65317718104 162.832398165 135.628167528 162.89416902853 135.6213570389 162.95444049906 135.61803209379 163.01322857726 135.61803209379 164.33951435202 135.61803209379 164.91079182815 137.31034309177 164.91079182815 138.8508583416 164.91079182815 140.03211841872 164.57489480841 141.1241263521 163.98593705 141.295454172 164.40447422591 141.4416407651 165.73901070478 142.75794210845 165.73901070478 143.47950522078 165.73901070478 143.59844906228 165.70274753823 143.70123216792 165.6201405482 143.77994936349 165.53858888876 143.85766092184 165.41186995632 143.91191754166 165.23028453 143.935113168 Z M 173.836242051 129.856213728 C 173.25695147952 129.68171695677 172.46826188819 129.55775445393 171.61737642748 129.42401629826 169.1807836173 129.041044155 166.23417310067 128.57790983884 166.23417310067 126.61841420497 166.23417310067 126.15040546396 166.40226317269 125.59703644874 166.785539061 124.93901178 166.97194696539 124.5245131282 167.26095239162 124.22722041661 167.51080732769 123.9702008429 167.78062141133 123.69264978929 168.00478026166 123.46206314144 168.00478026166 123.18155923382 168.00478026166 122.87137390941 167.73067299295 122.50014846226 166.941082496 121.936877676 166.83269409909 121.89946561627 166.72795241041 121.88225736994 166.62683709607 121.88225736994 165.82561914414 121.88225736994 165.25208917154 122.96270590348 164.89613087497 123.63328048178 164.73596649014 123.93500730161 164.61985110169 124.15375210515 164.54686315232 124.15375210515 164.48453283138 124.15375210515 164.4536546412 123.99422512397 164.4536546412 123.59061887664 164.4536546412 123.37691436723 164.46231156212 123.0947804941 164.479540205 122.73166584 164.72265039434 121.54523533455 165.37491119884 121.10493788324 166.10122999753 121.10493788324 167.34305520883 121.10493788324 168.80137065962 122.39203864428 168.80137065962 123.43766216783 168.80137065962 123.91737559746 168.49442284864 124.34626263735 167.718799671 124.576716204 167.14007636717 125.31992273814 166.89563218253 125.91026602906 166.89563218253 126.38593364387 166.89563218253 127.77160426526 168.97003245218 128.18411508822 170.89800700151 128.56750800405 171.79505182001 128.7458924276 172.66039782113 128.91797329179 173.270351658 129.178839492 173.99212130416 128.98804159373 175.40649205036 128.63381680517 176.02329454897 128.63381680517 176.20936168027 128.63381680517 176.32284915132 128.66605168273 176.32284915132 128.74473190123 176.32284915132 128.88257328982 175.97453101923 129.16296569527 175.057932337 129.662319168 L 174.44600828 129.797506764 173.836242051 129.856213728 Z M 110.742610064 120.849811416 C 109.29264728019 120.16948486225 108.12554417538 118.87165628595 107.0413258662 117.66599630714 106.35792343916 116.90604699737 105.70745121685 116.18271635526 105.039830298 115.673724324 105.16173749841 115.65411769158 105.27978193526 115.64472928942 105.39430789773 115.64472928942 106.6450857145 115.64472928942 107.4761945875 116.76453872995 108.33612378584 117.92317975252 109.13286353883 118.99668134302 109.95434367728 120.10351733542 111.157272678 120.383925876 111.16510376804 120.41753057314 111.16881210416 120.4501022639 111.16881210416 120.48136500386 111.16881210416 120.69737701826 110.99176826069 120.8508969414 110.77438765109 120.8508969414 110.7638841547 120.8508969414 110.75328648513 120.85053852248 110.742610064 120.849811416 Z M 171.140395603 118.779448392 C 171.11965000275 118.68367019997 171.10994439014 118.5856859474 171.10994439014 118.48565902674 171.10994439014 117.7984323685 171.56807483155 117.01478640407 172.05159555585 116.18770959347 172.59185577029 115.26357817035 173.16381482158 114.28522492888 173.16381482158 113.32656697901 173.16381482158 113.29804848238 173.16330865807 113.26954741539 173.162280439 113.241065724 173.73453972094 112.9182405818 174.00662755774 112.19597921632 174.00662755774 111.44179047291 174.00662755774 110.29388137199 173.37630328142 109.072008651 172.21467754347 109.072008651 171.85475934485 109.072008651 171.4438357446 109.18930949312 170.984852168 109.46245572 169.71309454185 109.36067340947 168.3866003733 108.95961186143 167.00790168766 108.54276643365 165.52429880888 108.09420353655 163.9802447624 107.62736340953 162.378894647 107.495503128 162.60345544481 107.10100373533 163.02572174268 106.95304494318 163.56433746374 106.95304494318 164.38613018668 106.95304494318 165.47877411099 107.29747996918 166.55330786155 107.6362061105 167.59280236636 107.9638868021 168.615348542 108.28622485822 169.3593412888 108.28622485822 169.39871801511 108.28622485822 169.4373144617 108.28532192965 169.475091844 108.283469076 169.89897275054 108.62054596309 170.51306950539 108.69483788461 171.16902996754 108.69483788461 171.43020032398 108.69483788461 171.69800704325 108.68306090214 171.96308674912 108.67140384194 172.22282238273 108.65998179096 172.47993984911 108.64867487565 172.72563073586 108.64867487565 173.74306323096 108.64867487565 174.5645438781 108.84257462687 174.5645438781 110.02515758649 174.5645438781 110.27399069268 174.52817328152 110.56659719542 174.44960466 110.9103813 174.4404201782 111.04330774397 174.43592585994 111.17069595186 174.43592585994 111.29273183107 174.43592585994 113.20361522098 175.53786377228 113.80218970288 176.98985174616 113.80218970288 178.51848113593 113.80218970288 180.43508980326 113.13875746684 181.86233230455 112.64471885575 182.23214424629 112.51670880988 182.56910127954 112.4000714588 182.8579411 112.309294644 182.66579572482 113.4292543883 180.63034129699 113.89034992287 178.99223565335 114.2614332481 178.45345425921 114.38348446749 177.95765750121 114.49579829189 177.584569106 114.61861476 177.4718466081 114.63187735445 177.35921773465 114.63795697801 177.2470207918 114.63795697801 176.53679109495 114.63795697801 175.84386950522 114.39433733804 175.25407104123 114.18697406406 174.81708273972 114.03333628706 174.43670382044 113.8996014219 174.14783720817 113.8996014219 173.80849083123 113.8996014219 173.59543511671 114.08416091187 173.565254818 114.637824684 173.27120881724 115.08226984851 173.04987835783 115.66050778989 172.82501938581 116.24796416364 172.42160060743 117.3019178063 172.00682431055 118.38554358778 171.140395603 118.779448392 Z M 109.446474712 114.276247236 C 108.27424007006 113.69876451124 107.66678974573 112.32153347968 107.06617375892 110.95979747927 106.5533555142 109.79711936076 106.04551956614 108.64573726646 105.195373733 108.013093884 105.20091706009 108.01305861399 105.2064473745 108.01304101022 105.2119647209 108.01304101022 106.79814191994 108.01304101022 107.31251264105 109.46799233828 107.8163905064 110.8932635275 108.28320840954 112.21370674143 108.741020184 113.50867517938 110.033763566 113.597616276 110.09592722575 113.61205180396 110.15676261408 113.61883140067 110.21625649467 113.61883140067 110.83036562075 113.61883140067 111.30153938343 112.89647692439 111.61522027068 112.41557410047 111.7717351755 112.17562177067 111.88904013833 111.99578203488 111.96532677754 111.99578203488 112.03486899851 111.99578203488 112.07032506128 112.145228554 112.07032506128 112.53481857448 112.07032506128 112.74635849755 112.05987161373 113.02869949944 112.038745416 113.396360904 111.71805067759 114.18531985773 110.91132505766 114.28904284303 110.14769169441 114.28904284303 110.00680507688 114.28904284303 109.86738525271 114.28551227403 109.73275507619 114.28210299467 109.63433593984 114.27961069809 109.53847643728 114.27718321985 109.446474712 114.276247236 Z M 166.578207754 94.969375956 C 166.52787381559 94.732092286464 166.50438725646 94.510732798423 166.50438725646 94.305488077015 166.50438725646 93.044273813173 167.39124334151 92.391555615892 168.38513275498 92.391555615892 169.29349058418 92.391555615892 170.2912523885 92.936765246719 170.78309525 94.060944036 170.86939140922 94.067776886009 170.95167459347 94.071113983344 171.03013668501 94.071113983344 172.59500281457 94.071113983344 172.63994381955 92.7437088469 172.68721245715 91.347553322981 172.72463062485 90.24234733048 172.76350738278 89.094059520714 173.558961153 88.527049668 173.65760686272 88.518971101221 173.74425887274 88.51506930602 173.81994911973 88.51506930602 174.14832391328 88.51506930602 174.2703792479 88.588507882661 174.2703792479 88.712931483831 174.2703792479 88.86542608463 174.08703800689 89.094506093993 173.87548624673 89.358834397509 173.58699311852 89.719298896126 173.24603751979 90.145313857757 173.24603751979 90.532046612589 173.24603751979 90.667450890136 173.28783409346 90.798039697116 173.388312922 90.919313568 173.47522603941 91.255867497661 173.51535673367 91.575974380232 173.51535673367 91.876792642546 173.51535673367 93.542844569348 172.2843927591 94.617239733363 170.95248849106 94.617239733363 170.06796381564 94.617239733363 169.13892085295 94.143392958161 168.496337027 93.054308112 168.35211514786 92.966269997676 168.22839039465 92.927568279431 168.12081757901 92.927568279431 167.72474392441 92.927568279431 167.54763363861 93.452227229611 167.37260204587 93.970728406891 167.20163138321 94.477199772907 167.03264407651 94.977795785874 166.6635038229 94.977795785874 166.63619454954 94.977795785874 166.60778980877 94.975055948012 166.578207754 94.969375956 Z M 123.49609282 86.377153968 C 123.49495258115 86.335650794953 123.49438946745 86.294125347534 123.49438946745 86.252578369654 123.49438946745 84.569088504865 124.41895611978 82.850248147486 125.33591612371 81.145549133227 125.80242341894 80.278276271902 126.26696187865 79.414663626898 126.606781701 78.561228348 126.75316435757 78.048143677668 127.03876547052 77.853973077531 127.28150186049 77.853973077531 127.51038883484 77.853973077531 127.70116287365 78.026618811701 127.70116287365 78.267323597015 127.70116287365 78.475016796528 127.55912819965 78.733381173329 127.17698775 78.97522914 126.37722130143 79.610446377138 125.96545222007 80.439722687177 125.96545222007 81.167346903216 125.96545222007 82.08567893192 126.6213541484 82.842090584636 127.98094814039 82.842090584636 128.03279421257 82.842090584636 128.08566356808 82.840990638401 128.139558857 82.83875778 128.41564659179 82.721808044533 128.67742721258 82.673793362683 128.91334030645 82.673793362683 129.57475000482 82.673793362683 130.03283416298 83.051201344389 130.03283416298 83.344991820334 130.03283416298 83.53221106548 129.84680937122 83.685473822893 129.4088321954 83.685473822893 129.21899813758 83.685473822893 128.9818311075 83.656681152908 128.691962825 83.589381072 128.07081285814 83.489637214866 127.54234437234 83.314470800718 127.08237278572 83.162008401156 126.60565579611 83.003995562404 126.20251378791 82.870369921771 125.84602351275 82.870369921771 125.20299468633 82.870369921771 124.71175241083 83.305135658894 124.214289906 84.815764164 123.99595559515 84.981452247305 123.98523055941 85.299361663413 123.97490899981 85.605311318725 123.96163238671 85.998854092863 123.94902335128 86.372608660108 123.49609282 86.377153968 Z M 147.033141187 85.704268032 C 146.75072687433 85.396197965421 146.62151877437 85.046690428566 146.6022735765 84.68170817657 146.60055945427 84.649200108959 146.59971767047 84.616569280048 146.59971767047 84.583834034468 146.59971767047 83.007605210826 148.55139440749 81.189286217735 149.043697426 81.176830056 148.64941612059 80.708668040908 148.48643157682 80.274335932432 148.48643157682 79.867554095162 148.48643157682 78.812473708005 149.5828956703 77.942735332086 150.58383999665 77.148765244099 151.21290206721 76.649779981512 151.80423643076 76.180721129489 152.061959341 75.714389424 152.10942803614 75.857439692791 152.13128300622 75.996013440442 152.13128300622 76.130610763929 152.13128300622 76.953122640707 151.31514853082 77.627142122484 150.54063067228 78.266791765251 149.84126937899 78.844371993365 149.17583990025 79.393929016057 149.17583990025 79.999482694324 149.17583990025 80.44482068905 149.53573525561 80.920444291644 150.50670481 81.459772488 150.58668031344 81.508301340288 150.65680878632 81.560568997256 150.71779569791 81.616074029678 150.95761859269 81.834340165852 151.0560808891 82.102667480512 151.0560808891 82.390564975385 151.0560808891 83.479088973829 149.64851023044 84.84737905998 149.15204706092 84.84737905998 149.0457469783 84.84737905998 148.98121672969 84.784649634013 148.98121672969 84.643013270848 148.98121672969 84.514089278383 149.03468317325 84.319787057952 149.158781586 84.0479058 149.94640540414 83.52145873108 150.24232534015 83.053084968173 150.24232534015 82.693086157137 150.24232534015 82.232136907148 149.75717279185 81.948865392495 149.19785955137 81.948865392495 148.46120863451 81.948865392495 147.59591445643 82.440243916434 147.540950043 83.664245916 147.42484332131 83.799179913522 147.3915090263 83.986257852064 147.3915090263 84.193170156128 147.3915090263 84.333581775989 147.40685960456 84.483127201745 147.42211133865 84.631709686943 147.43716791397 84.778390934294 147.45212815853 84.92413372669 147.45212815853 85.059223968388 147.45212815853 85.370150880243 147.37287668198 85.624646203105 147.033141187 85.704268032 Z "/>
</g>
</svg>
