<?xml version="1.0" encoding="UTF-8" standalone="no"?>
<!-- Created with Inkscape (http://www.inkscape.org/) -->

<svg
   xmlns:dc="http://purl.org/dc/elements/1.1/"
   xmlns:cc="http://creativecommons.org/ns#"
   xmlns:rdf="http://www.w3.org/1999/02/22-rdf-syntax-ns#"
   xmlns:svg="http://www.w3.org/2000/svg"
   xmlns="http://www.w3.org/2000/svg"
   version="1.1"
   width="100%"
   height="100%"
   viewBox="0 0 685 738"
   id="svg2">
  <metadata
     id="metadata9">
    <rdf:RDF>
      <cc:Work
         rdf:about="">
        <dc:format>image/svg+xml</dc:format>
        <dc:type
           rdf:resource="http://purl.org/dc/dcmitype/StillImage" />
        <dc:title></dc:title>
      </cc:Work>
    </rdf:RDF>
  </metadata>
  <defs
     id="defs4" />
  <g
     transform="translate(-0.5,-0.5)"
     id="g3760">
    <path
       d="M 654,595 C 651,674 587,707 542,707 488,707 436,656 404,618 450,565 490,497 536,418 575,352 596,317 685,316 L 685,285 C 667.47069,285.94753 646.12567,286.67061 627.87692,287.16923 607.60713,287.72308 591.15741,288 588,288 582.45785,288 558.38494,287.74615 532.40769,287.23846 506.82554,286.73849 479.39655,285.99234 466,285 L 466,316 C 512,316 537,335 537,360 537,367.62015 534.09667,373.4983 532.27229,377.19197 531.70252,378.34554 531.23799,379.28604 531,380 476,477 431,545 388,598 385.19801,594.76693 377.93619,585.86617 367.82665,572.73959 331.03243,524.96468 256.51634,421.21315 222,331 276,271 344,195 344,129 344,110.64818 341.45339,86.407326 333.88372,63.89726 322.47954,29.984415 299.67437,0 257,0 195,0 121,55 121,161 121,203 127,275 162,364 L 71,461 C 26,507 0,534 0,588 0,675 82,738 181,738 266,738 325,695 362,662 431,722 490,738 538,738 614,738 677,681 679,595 L 654,595 z"
       id="path3758"
       style="fill:none;stroke:#ff0000;stroke-opacity:1" />
    <path
       d="M 214,307 C 187,227 184,169 184,138 184,54 224,22 259,22 319,22 319,126 319,128 319,193.28459 239.74649,279.11638 214.80036,306.13312 214.527,306.42918 214.26015,306.71817 214,307 z"
       id="path3756"
       style="fill:none;stroke:#ff0000;stroke-opacity:1" />
    <path
       d="M 171,387 C 193,434 208,464 251,526 270,554 306,606 343,643 279,700 217,707 189,707 155.43023,707 131.67549,691.13236 115.28778,668.65981 91.157496,635.56982 83,588.15942 83,556 83,475 117,439 171,387 z"
       id="p1-8"
       style="fill:none;stroke:#ff0000;stroke-opacity:1" />
  </g>
  <path
     d="M 654,595 649.74684,707 542,707 654,595 z"
     id="path3837"
     style="opacity:0.32083333" />
  <path
     d="M 542,707 478.94737,707 404,618 542,707 z"
     id="path3835"
     style="opacity:0.32083333" />
  <path
     d="M 404,618 451.23077,563.58194 536,418 404,618 z"
     id="path3833"
     style="opacity:0.32083333" />
  <path
     d="M 536,418 595.67969,317.0036 685,316 536,418 z"
     id="path3831"
     style="opacity:0.32083333" />
  <path
     d="M 685,285 662.23874,286.23034 627.87692,287.16923 685,285 z"
     id="path3829"
     style="opacity:0.32083333" />
  <path
     d="M 627.87692,287.16923 597.47223,288 588,288 627.87692,287.16923 z"
     id="path3827"
     style="opacity:0.32083333" />
  <path
     d="M 588,288 571.37356,288 532.40769,287.23846 588,288 z"
     id="path3825"
     style="opacity:0.32083333" />
  <path
     d="M 532.40769,287.23846 483.24925,286.27772 466,285 532.40769,287.23846 z"
     id="path3823"
     style="opacity:0.32083333" />
  <path
     d="M 466,316 537,316 537,360 466,316 z"
     id="path3821"
     style="opacity:0.32083333" />
  <path
     d="M 537,360 537,367.62015 532.27229,377.19197 537,360 z"
     id="path3819"
     style="opacity:0.32083333" />
  <path
     d="M 532.27229,377.19197 531.23799,379.28604 531,380 532.27229,377.19197 z"
     id="path3817"
     style="opacity:0.32083333" />
  <path
     d="M 531,380 452.39729,518.62659 388,598 531,380 z"
     id="path3815"
     style="opacity:0.32083333" />
  <path
     d="M 388,598 381.54464,590.55151 367.82665,572.73959 388,598 z"
     id="path3813"
     style="opacity:0.32083333" />
  <path
     d="M 367.82665,572.73959 261.8366,435.11838 222,331 367.82665,572.73959 z"
     id="path3811"
     style="opacity:0.32083333" />
  <path
     d="M 222,331 344,195.44444 344,129 222,331 z"
     id="path3809"
     style="opacity:0.32083333" />
  <path
     d="M 344,129 344,93.980234 333.88372,63.89726 344,129 z"
     id="path3807"
     style="opacity:0.32083333" />
  <path
     d="M 333.88372,63.89726 312.39641,0 257,0 333.88372,63.89726 z"
     id="path3805"
     style="opacity:0.32083333" />
  <path
     d="M 257,0 121,0 121,161 257,0 z"
     id="path3803"
     style="opacity:0.32083333" />
  <path
     d="M 121,161 121,259.74286 162,364 121,161 z"
     id="path3801"
     style="opacity:0.32083333" />
  <path
     d="M 71,461 0,533.57778 0,588 71,461 z"
     id="path3799"
     style="opacity:0.32083333" />
  <path
     d="M 0,588 0,738 181,738 0,588 z"
     id="path3797"
     style="opacity:0.32083333" />
  <path
     d="M 181,738 276.78788,738 362,662 181,738 z"
     id="path3795"
     style="opacity:0.32083333" />
  <path
     d="M 362,662 449.4,738 538,738 362,662 z"
     id="path3793"
     style="opacity:0.32083333" />
  <path
     d="M 538,738 675.67442,738 679,595 538,738 z"
     id="path3791"
     style="opacity:0.32083333" />
  <path
     d="M 214,307 184,218.11111 184,138 214,307 z"
     id="path3789"
     style="opacity:0.32083333;fill:#00ff00;fill-opacity:1" />
  <path
     d="M 184,138 184,22 259,22 184,138 z"
     id="path3787"
     style="opacity:0.32083333;fill:#00ff00;fill-opacity:1" />
  <path
     d="M 259,22 319,22 319,128 259,22 z"
     id="path3785"
     style="opacity:0.32083333;fill:#00ff00;fill-opacity:1" />
  <path
     d="M 319,128 319,193.28459 214.80036,306.13312 319,128 z"
     id="path3783"
     style="opacity:0.32083333;fill:#00ff00;fill-opacity:1" />
  <path
     d="M 214.80036,306.13312 214.26015,306.71817 214,307 214.80036,306.13312 z"
     id="path3781"
     style="opacity:0.32083333" />
  <path
     d="M 171,387 205.05479,459.75342 251,526 171,387 z"
     id="path3779"
     style="opacity:0.32083333;fill:#0000ff;fill-opacity:1" />
  <path
     d="M 251,526 303.77778,603.77778 343,643 251,526 z"
     id="path3777"
     style="opacity:0.32083333;fill:#0000ff;fill-opacity:1" />
  <path
     d="M 343,643 271.14035,707 189,707 343,643 z"
     id="path3775"
     style="opacity:0.32083333;fill:#0000ff;fill-opacity:1" />
  <path
     d="M 189,707 143.24668,707 115.28778,668.65981 189,707 z"
     id="path3773"
     style="opacity:0.32083333;fill:#0000ff;fill-opacity:1" />
  <path
     d="M 115.28778,668.65981 83,624.3834 83,556 115.28778,668.65981 z"
     id="path3771"
     style="opacity:0.32083333;fill:#0000ff;fill-opacity:1" />
  <path
     d="M 83,556 83,471.74074 171,387 83,556 z"
     id="p1"
     style="opacity:0.32083333;fill:#0000ff;fill-opacity:1" />
</svg>
