<?xml version="1.0" standalone="no"?>
<svg
    xmlns:xlink="http://www.w3.org/1999/xlink"
    xmlns:dc="http://purl.org/dc/elements/1.1/"
    xmlns:cc="http://creativecommons.org/ns#"
    xmlns:rdf="http://www.w3.org/1999/02/22-rdf-syntax-ns#"
    xmlns:svg="http://www.w3.org/2000/svg"
    xmlns="http://www.w3.org/2000/svg"
    version="1.1"
    viewBox="0 0 685 738">
<defs>
</defs>
<g transform="translate(0, 738) scale(1, -1)">
<path id="p1" fill="rgb(0,0,0)" d="M 654 143 C 651 64 587 31 542 31 488 31 436 82 404 120 450 173 490 241 536 320 575 386 596 421 685 422 L 685 453 C 667.47068802862 452.05246962317 646.1256673434 451.32939270009 627.87692307692 450.83076923077 607.60712543132 450.27692307692 591.15740886951 450 588 450 582.45785378979 450 558.3849383488 450.25384615385 532.40769230769 450.76153846154 506.82554319506 451.26150910116 479.39655021129 452.00766294731 466 453 L 466 422 C 512 422 537 403 537 378 537 370.37985254003 534.09666763441 364.50170449941 532.27229063844 360.80803229316 531.7025184325 359.65445944851 531.237985254 358.71395576201 531 358 476 261 431 193 388 140 385.19800838479 143.23306724832 377.93618793452 152.1338336412 367.82665474148 165.26040652465 331.0324317648 213.03531762797 256.51633607159 316.7868489038 222 407 276 467 344 543 344 609 344 627.35181847276 341.4533894801 651.59267377281 333.88372492765 674.10273970739 322.47954392199 708.01558546015 299.67436713986 738 257 738 195 738 121 683 121 577 121 535 127 463 162 374 L 71 277 C 26 231 0 204 0 150 0 63 82 0 181 0 266 0 325 43 362 76 431 16 490 0 538 0 614 0 677 57 679 143 L 654 143 Z M 214 431 C 187 511 184 569 184 600 184 684 224 716 259 716 319 716 319 612 319 610 319 544.71541125282 239.74649225002 458.88361679269 214.80036472453 431.86688338704 214.52699637392 431.5708246163 214.26014954648 431.28182867536 214 431 Z M 171 351 C 193 304 208 274 251 212 270 184 306 132 343 95 279 38 217 31 189 31 155.43022704122 31 131.67548955787 46.86764068528 115.28778052942 69.340192788981 91.157495854691 102.43017984506 83 149.840575178 83 182 83 263 117 299 171 351 Z "/>
</g>
</svg>
