<?xml version="1.0" standalone="no"?>
<svg
    xmlns:xlink="http://www.w3.org/1999/xlink"
    xmlns:dc="http://purl.org/dc/elements/1.1/"
    xmlns:cc="http://creativecommons.org/ns#"
    xmlns:rdf="http://www.w3.org/1999/02/22-rdf-syntax-ns#"
    xmlns:svg="http://www.w3.org/2000/svg"
    xmlns="http://www.w3.org/2000/svg"
    version="1.1"
    viewBox="0 0 256 256">
<defs>
</defs>
<g transform="translate(0, 64) scale(1, -1)">
<polygon id="p1" fill="rgb(204,250,167)" points="1 -63 87 -183 30 -138"/>
<polygon id="p2" fill="rgb(201,98,50)" points="87 56 1 -63 30 10"/>
<polygon id="p3" fill="rgb(85,51,51)" points="228 10 87 56 170 56"/>
<polygon id="p4" fill="rgb(56,56,95)" points="228 -137 228 10 255 -63"/>
<polygon id="p5" fill="rgb(143,54,79)" points="228 10 124 -63 87 56"/>
<polygon id="p6" fill="rgb(85,77,174)" points="124 -63 228 10 228 -137"/>
<polygon id="p7" fill="rgb(251,165,109)" points="124 -63 1 -63 87 56"/>
<polygon id="p8" fill="rgb(254,254,225)" points="87 -183 1 -63 124 -63"/>
<polygon id="p9" fill="rgb(152,208,255)" points="87 -183 124 -63 228 -137"/>
<polygon id="p10" fill="rgb(50,159,231)" points="168 -183 87 -183 228 -137"/>
</g>
</svg>
