<?xml version="1.0" standalone="no"?>
<svg
    xmlns:xlink="http://www.w3.org/1999/xlink"
    xmlns:dc="http://purl.org/dc/elements/1.1/"
    xmlns:cc="http://creativecommons.org/ns#"
    xmlns:rdf="http://www.w3.org/1999/02/22-rdf-syntax-ns#"
    xmlns:svg="http://www.w3.org/2000/svg"
    xmlns="http://www.w3.org/2000/svg"
    version="1.1"
    viewBox="0 0 512 512">
<defs>
</defs>
<g transform="translate(0, 512) scale(1, -1)">
<path id="p1" fill="rgb(255,0,0)" d="M 256 512 A 256 255.99999999869 90.000930871794 0 1 1.3120695073705e-09 256 256 255.99999999869 89.990006864238 0 1 34.29749663232 128 256 255.99999999869 90.002482297897 0 1 256 0 256 255.99999999869 89.999379385194 0 1 477.70250336768 128 256 255.99999999869 90.001619073683 0 1 511.99999999869 256 256 255.99999999869 90.002792464152 0 1 256 512 Z "/>
<path id="p2" fill="none" stroke="rgb(255,255,255)" stroke-width="0.75" d="M 0 0 L 512 0 512 512 0 512 Z "/>
<path id="p3" fill="none" stroke="rgb(0,0,0)" stroke-width="0.5" d="M 0 0 L 512 0 512 512 0 512 Z "/>
<path id="p4" fill="none" stroke="rgb(255,255,255)" stroke-width="0.75" d="M 256 0 L 256 512 M 0 256 L 512 256 "/>
<path id="p5" fill="none" stroke="rgb(0,0,0)" stroke-width="0.5" d="M 256 0 L 256 512 M 0 256 L 512 256 "/>
</g>
</svg>
