<?xml version="1.0" standalone="no"?>
<svg
    xmlns:xlink="http://www.w3.org/1999/xlink"
    xmlns:dc="http://purl.org/dc/elements/1.1/"
    xmlns:cc="http://creativecommons.org/ns#"
    xmlns:rdf="http://www.w3.org/1999/02/22-rdf-syntax-ns#"
    xmlns:svg="http://www.w3.org/2000/svg"
    xmlns="http://www.w3.org/2000/svg"
    version="1.1"
    viewBox="0 0 512 512">
<defs>
</defs>
<g transform="translate(0, 512) scale(1, -1)">
<path id="p1" fill="rgb(255,0,0)" d="M 256 512 A 256 255.99999999869 90.000930871794 0 1 1.3120695073705e-09 256 256 255.99999999869 89.990006864238 0 1 34.29749663232 128 256 255.99999999869 90.002482297897 0 1 256 0 256 255.99999999869 89.999379385194 0 1 477.70250336768 128 256 255.99999999869 90.001619073683 0 1 511.99999999869 256 256 255.99999999869 90.002792464152 0 1 256 512 Z "/>
<path id="p2" fill="none" stroke="rgb(255,255,255)" stroke-width="0.75" d="M 0 0 L 512 0 512 512 0 512 Z "/>
<path id="p3" fill="none" stroke="rgb(0,0,0)" stroke-width="0.5" d="M 0 0 L 512 0 512 512 0 512 Z "/>
<path id="p4" fill="none" stroke="rgb(255,255,255)" stroke-width="0.75" d="M 256 0 L 256 512 M 0 256 L 512 256 "/>
<path id="p5" fill="none" stroke="rgb(0,0,0)" stroke-width="0.5" d="M 256 0 L 256 512 M 0 256 L 512 256 "/>
<path id="p6" fill="none" stroke="rgb(255,255,255)" stroke-width="0.75" d="M 128 0 L 128 256 M 0 128 L 256 128 "/>
<path id="p7" fill="none" stroke="rgb(0,0,0)" stroke-width="0.5" d="M 128 0 L 128 256 M 0 128 L 256 128 "/>
<path id="p8" fill="none" stroke="rgb(255,255,255)" stroke-width="0.75" d="M 64 0 L 64 128 M 0 64 L 128 64 "/>
<path id="p9" fill="none" stroke="rgb(0,0,0)" stroke-width="0.5" d="M 64 0 L 64 128 M 0 64 L 128 64 "/>
<path id="p10" fill="none" stroke="rgb(255,255,255)" stroke-width="0.75" d="M 96 0 L 96 64 M 64 32 L 128 32 "/>
<path id="p11" fill="none" stroke="rgb(0,0,0)" stroke-width="0.5" d="M 96 0 L 96 64 M 64 32 L 128 32 "/>
<path id="p12" fill="none" stroke="rgb(255,255,255)" stroke-width="0.75" d="M 80 32 L 80 64 M 64 48 L 96 48 "/>
<path id="p13" fill="none" stroke="rgb(0,0,0)" stroke-width="0.5" d="M 80 32 L 80 64 M 64 48 L 96 48 "/>
<path id="p14" fill="none" stroke="rgb(255,255,255)" stroke-width="0.75" d="M 112 32 L 112 64 M 96 48 L 128 48 "/>
<path id="p15" fill="none" stroke="rgb(0,0,0)" stroke-width="0.5" d="M 112 32 L 112 64 M 96 48 L 128 48 "/>
<path id="p16" fill="none" stroke="rgb(255,255,255)" stroke-width="0.75" d="M 32 64 L 32 128 M 0 96 L 64 96 "/>
<path id="p17" fill="none" stroke="rgb(0,0,0)" stroke-width="0.5" d="M 32 64 L 32 128 M 0 96 L 64 96 "/>
<path id="p18" fill="none" stroke="rgb(255,255,255)" stroke-width="0.75" d="M 48 64 L 48 96 M 32 80 L 64 80 "/>
<path id="p19" fill="none" stroke="rgb(0,0,0)" stroke-width="0.5" d="M 48 64 L 48 96 M 32 80 L 64 80 "/>
<path id="p20" fill="none" stroke="rgb(255,255,255)" stroke-width="0.75" d="M 48 96 L 48 128 M 32 112 L 64 112 "/>
<path id="p21" fill="none" stroke="rgb(0,0,0)" stroke-width="0.5" d="M 48 96 L 48 128 M 32 112 L 64 112 "/>
<path id="p22" fill="none" stroke="rgb(255,255,255)" stroke-width="0.75" d="M 96 64 L 96 128 M 64 96 L 128 96 "/>
<path id="p23" fill="none" stroke="rgb(0,0,0)" stroke-width="0.5" d="M 96 64 L 96 128 M 64 96 L 128 96 "/>
<path id="p24" fill="none" stroke="rgb(255,255,255)" stroke-width="0.75" d="M 80 64 L 80 96 M 64 80 L 96 80 "/>
<path id="p25" fill="none" stroke="rgb(0,0,0)" stroke-width="0.5" d="M 80 64 L 80 96 M 64 80 L 96 80 "/>
<path id="p26" fill="none" stroke="rgb(255,255,255)" stroke-width="0.75" d="M 192 0 L 192 128 M 128 64 L 256 64 "/>
<path id="p27" fill="none" stroke="rgb(0,0,0)" stroke-width="0.5" d="M 192 0 L 192 128 M 128 64 L 256 64 "/>
<path id="p28" fill="none" stroke="rgb(255,255,255)" stroke-width="0.75" d="M 160 0 L 160 64 M 128 32 L 192 32 "/>
<path id="p29" fill="none" stroke="rgb(0,0,0)" stroke-width="0.5" d="M 160 0 L 160 64 M 128 32 L 192 32 "/>
<path id="p30" fill="none" stroke="rgb(255,255,255)" stroke-width="0.75" d="M 144 0 L 144 32 M 128 16 L 160 16 "/>
<path id="p31" fill="none" stroke="rgb(0,0,0)" stroke-width="0.5" d="M 144 0 L 144 32 M 128 16 L 160 16 "/>
<path id="p32" fill="none" stroke="rgb(255,255,255)" stroke-width="0.75" d="M 176 0 L 176 32 M 160 16 L 192 16 "/>
<path id="p33" fill="none" stroke="rgb(0,0,0)" stroke-width="0.5" d="M 176 0 L 176 32 M 160 16 L 192 16 "/>
<path id="p34" fill="none" stroke="rgb(255,255,255)" stroke-width="0.75" d="M 144 32 L 144 64 M 128 48 L 160 48 "/>
<path id="p35" fill="none" stroke="rgb(0,0,0)" stroke-width="0.5" d="M 144 32 L 144 64 M 128 48 L 160 48 "/>
<path id="p36" fill="none" stroke="rgb(255,255,255)" stroke-width="0.75" d="M 224 0 L 224 64 M 192 32 L 256 32 "/>
<path id="p37" fill="none" stroke="rgb(0,0,0)" stroke-width="0.5" d="M 224 0 L 224 64 M 192 32 L 256 32 "/>
<path id="p38" fill="none" stroke="rgb(255,255,255)" stroke-width="0.75" d="M 208 0 L 208 32 M 192 16 L 224 16 "/>
<path id="p39" fill="none" stroke="rgb(0,0,0)" stroke-width="0.5" d="M 208 0 L 208 32 M 192 16 L 224 16 "/>
<path id="p40" fill="none" stroke="rgb(255,255,255)" stroke-width="0.75" d="M 240 0 L 240 32 M 224 16 L 256 16 "/>
<path id="p41" fill="none" stroke="rgb(0,0,0)" stroke-width="0.5" d="M 240 0 L 240 32 M 224 16 L 256 16 "/>
<path id="p42" fill="none" stroke="rgb(255,255,255)" stroke-width="0.75" d="M 64 128 L 64 256 M 0 192 L 128 192 "/>
<path id="p43" fill="none" stroke="rgb(0,0,0)" stroke-width="0.5" d="M 64 128 L 64 256 M 0 192 L 128 192 "/>
<path id="p44" fill="none" stroke="rgb(255,255,255)" stroke-width="0.75" d="M 32 128 L 32 192 M 0 160 L 64 160 "/>
<path id="p45" fill="none" stroke="rgb(0,0,0)" stroke-width="0.5" d="M 32 128 L 32 192 M 0 160 L 64 160 "/>
<path id="p46" fill="none" stroke="rgb(255,255,255)" stroke-width="0.75" d="M 16 128 L 16 160 M 0 144 L 32 144 "/>
<path id="p47" fill="none" stroke="rgb(0,0,0)" stroke-width="0.5" d="M 16 128 L 16 160 M 0 144 L 32 144 "/>
<path id="p48" fill="none" stroke="rgb(255,255,255)" stroke-width="0.75" d="M 48 128 L 48 160 M 32 144 L 64 144 "/>
<path id="p49" fill="none" stroke="rgb(0,0,0)" stroke-width="0.5" d="M 48 128 L 48 160 M 32 144 L 64 144 "/>
<path id="p50" fill="none" stroke="rgb(255,255,255)" stroke-width="0.75" d="M 16 160 L 16 192 M 0 176 L 32 176 "/>
<path id="p51" fill="none" stroke="rgb(0,0,0)" stroke-width="0.5" d="M 16 160 L 16 192 M 0 176 L 32 176 "/>
<path id="p52" fill="none" stroke="rgb(255,255,255)" stroke-width="0.75" d="M 32 192 L 32 256 M 0 224 L 64 224 "/>
<path id="p53" fill="none" stroke="rgb(0,0,0)" stroke-width="0.5" d="M 32 192 L 32 256 M 0 224 L 64 224 "/>
<path id="p54" fill="none" stroke="rgb(255,255,255)" stroke-width="0.75" d="M 16 192 L 16 224 M 0 208 L 32 208 "/>
<path id="p55" fill="none" stroke="rgb(0,0,0)" stroke-width="0.5" d="M 16 192 L 16 224 M 0 208 L 32 208 "/>
<path id="p56" fill="none" stroke="rgb(255,255,255)" stroke-width="0.75" d="M 16 224 L 16 256 M 0 240 L 32 240 "/>
<path id="p57" fill="none" stroke="rgb(0,0,0)" stroke-width="0.5" d="M 16 224 L 16 256 M 0 240 L 32 240 "/>
<path id="p58" fill="none" stroke="rgb(255,255,255)" stroke-width="0.75" d="M 384 0 L 384 256 M 256 128 L 512 128 "/>
<path id="p59" fill="none" stroke="rgb(0,0,0)" stroke-width="0.5" d="M 384 0 L 384 256 M 256 128 L 512 128 "/>
<path id="p60" fill="none" stroke="rgb(255,255,255)" stroke-width="0.75" d="M 320 0 L 320 128 M 256 64 L 384 64 "/>
<path id="p61" fill="none" stroke="rgb(0,0,0)" stroke-width="0.5" d="M 320 0 L 320 128 M 256 64 L 384 64 "/>
<path id="p62" fill="none" stroke="rgb(255,255,255)" stroke-width="0.75" d="M 288 0 L 288 64 M 256 32 L 320 32 "/>
<path id="p63" fill="none" stroke="rgb(0,0,0)" stroke-width="0.5" d="M 288 0 L 288 64 M 256 32 L 320 32 "/>
<path id="p64" fill="none" stroke="rgb(255,255,255)" stroke-width="0.75" d="M 272 0 L 272 32 M 256 16 L 288 16 "/>
<path id="p65" fill="none" stroke="rgb(0,0,0)" stroke-width="0.5" d="M 272 0 L 272 32 M 256 16 L 288 16 "/>
<path id="p66" fill="none" stroke="rgb(255,255,255)" stroke-width="0.75" d="M 304 0 L 304 32 M 288 16 L 320 16 "/>
<path id="p67" fill="none" stroke="rgb(0,0,0)" stroke-width="0.5" d="M 304 0 L 304 32 M 288 16 L 320 16 "/>
<path id="p68" fill="none" stroke="rgb(255,255,255)" stroke-width="0.75" d="M 352 0 L 352 64 M 320 32 L 384 32 "/>
<path id="p69" fill="none" stroke="rgb(0,0,0)" stroke-width="0.5" d="M 352 0 L 352 64 M 320 32 L 384 32 "/>
<path id="p70" fill="none" stroke="rgb(255,255,255)" stroke-width="0.75" d="M 336 0 L 336 32 M 320 16 L 352 16 "/>
<path id="p71" fill="none" stroke="rgb(0,0,0)" stroke-width="0.5" d="M 336 0 L 336 32 M 320 16 L 352 16 "/>
<path id="p72" fill="none" stroke="rgb(255,255,255)" stroke-width="0.75" d="M 368 0 L 368 32 M 352 16 L 384 16 "/>
<path id="p73" fill="none" stroke="rgb(0,0,0)" stroke-width="0.5" d="M 368 0 L 368 32 M 352 16 L 384 16 "/>
<path id="p74" fill="none" stroke="rgb(255,255,255)" stroke-width="0.75" d="M 368 32 L 368 64 M 352 48 L 384 48 "/>
<path id="p75" fill="none" stroke="rgb(0,0,0)" stroke-width="0.5" d="M 368 32 L 368 64 M 352 48 L 384 48 "/>
<path id="p76" fill="none" stroke="rgb(255,255,255)" stroke-width="0.75" d="M 448 0 L 448 128 M 384 64 L 512 64 "/>
<path id="p77" fill="none" stroke="rgb(0,0,0)" stroke-width="0.5" d="M 448 0 L 448 128 M 384 64 L 512 64 "/>
<path id="p78" fill="none" stroke="rgb(255,255,255)" stroke-width="0.75" d="M 416 0 L 416 64 M 384 32 L 448 32 "/>
<path id="p79" fill="none" stroke="rgb(0,0,0)" stroke-width="0.5" d="M 416 0 L 416 64 M 384 32 L 448 32 "/>
<path id="p80" fill="none" stroke="rgb(255,255,255)" stroke-width="0.75" d="M 400 32 L 400 64 M 384 48 L 416 48 "/>
<path id="p81" fill="none" stroke="rgb(0,0,0)" stroke-width="0.5" d="M 400 32 L 400 64 M 384 48 L 416 48 "/>
<path id="p82" fill="none" stroke="rgb(255,255,255)" stroke-width="0.75" d="M 432 32 L 432 64 M 416 48 L 448 48 "/>
<path id="p83" fill="none" stroke="rgb(0,0,0)" stroke-width="0.5" d="M 432 32 L 432 64 M 416 48 L 448 48 "/>
<path id="p84" fill="none" stroke="rgb(255,255,255)" stroke-width="0.75" d="M 416 64 L 416 128 M 384 96 L 448 96 "/>
<path id="p85" fill="none" stroke="rgb(0,0,0)" stroke-width="0.5" d="M 416 64 L 416 128 M 384 96 L 448 96 "/>
<path id="p86" fill="none" stroke="rgb(255,255,255)" stroke-width="0.75" d="M 432 64 L 432 96 M 416 80 L 448 80 "/>
<path id="p87" fill="none" stroke="rgb(0,0,0)" stroke-width="0.5" d="M 432 64 L 432 96 M 416 80 L 448 80 "/>
<path id="p88" fill="none" stroke="rgb(255,255,255)" stroke-width="0.75" d="M 480 64 L 480 128 M 448 96 L 512 96 "/>
<path id="p89" fill="none" stroke="rgb(0,0,0)" stroke-width="0.5" d="M 480 64 L 480 128 M 448 96 L 512 96 "/>
<path id="p90" fill="none" stroke="rgb(255,255,255)" stroke-width="0.75" d="M 464 64 L 464 96 M 448 80 L 480 80 "/>
<path id="p91" fill="none" stroke="rgb(0,0,0)" stroke-width="0.5" d="M 464 64 L 464 96 M 448 80 L 480 80 "/>
<path id="p92" fill="none" stroke="rgb(255,255,255)" stroke-width="0.75" d="M 464 96 L 464 128 M 448 112 L 480 112 "/>
<path id="p93" fill="none" stroke="rgb(0,0,0)" stroke-width="0.5" d="M 464 96 L 464 128 M 448 112 L 480 112 "/>
<path id="p94" fill="none" stroke="rgb(255,255,255)" stroke-width="0.75" d="M 448 128 L 448 256 M 384 192 L 512 192 "/>
<path id="p95" fill="none" stroke="rgb(0,0,0)" stroke-width="0.5" d="M 448 128 L 448 256 M 384 192 L 512 192 "/>
<path id="p96" fill="none" stroke="rgb(255,255,255)" stroke-width="0.75" d="M 480 128 L 480 192 M 448 160 L 512 160 "/>
<path id="p97" fill="none" stroke="rgb(0,0,0)" stroke-width="0.5" d="M 480 128 L 480 192 M 448 160 L 512 160 "/>
<path id="p98" fill="none" stroke="rgb(255,255,255)" stroke-width="0.75" d="M 464 128 L 464 160 M 448 144 L 480 144 "/>
<path id="p99" fill="none" stroke="rgb(0,0,0)" stroke-width="0.5" d="M 464 128 L 464 160 M 448 144 L 480 144 "/>
<path id="p100" fill="none" stroke="rgb(255,255,255)" stroke-width="0.75" d="M 496 128 L 496 160 M 480 144 L 512 144 "/>
<path id="p101" fill="none" stroke="rgb(0,0,0)" stroke-width="0.5" d="M 496 128 L 496 160 M 480 144 L 512 144 "/>
<path id="p102" fill="none" stroke="rgb(255,255,255)" stroke-width="0.75" d="M 496 160 L 496 192 M 480 176 L 512 176 "/>
<path id="p103" fill="none" stroke="rgb(0,0,0)" stroke-width="0.5" d="M 496 160 L 496 192 M 480 176 L 512 176 "/>
<path id="p104" fill="none" stroke="rgb(255,255,255)" stroke-width="0.75" d="M 480 192 L 480 256 M 448 224 L 512 224 "/>
<path id="p105" fill="none" stroke="rgb(0,0,0)" stroke-width="0.5" d="M 480 192 L 480 256 M 448 224 L 512 224 "/>
<path id="p106" fill="none" stroke="rgb(255,255,255)" stroke-width="0.75" d="M 496 192 L 496 224 M 480 208 L 512 208 "/>
<path id="p107" fill="none" stroke="rgb(0,0,0)" stroke-width="0.5" d="M 496 192 L 496 224 M 480 208 L 512 208 "/>
<path id="p108" fill="none" stroke="rgb(255,255,255)" stroke-width="0.75" d="M 496 224 L 496 256 M 480 240 L 512 240 "/>
<path id="p109" fill="none" stroke="rgb(0,0,0)" stroke-width="0.5" d="M 496 224 L 496 256 M 480 240 L 512 240 "/>
<path id="p110" fill="none" stroke="rgb(255,255,255)" stroke-width="0.75" d="M 128 256 L 128 512 M 0 384 L 256 384 "/>
<path id="p111" fill="none" stroke="rgb(0,0,0)" stroke-width="0.5" d="M 128 256 L 128 512 M 0 384 L 256 384 "/>
<path id="p112" fill="none" stroke="rgb(255,255,255)" stroke-width="0.75" d="M 64 256 L 64 384 M 0 320 L 128 320 "/>
<path id="p113" fill="none" stroke="rgb(0,0,0)" stroke-width="0.5" d="M 64 256 L 64 384 M 0 320 L 128 320 "/>
<path id="p114" fill="none" stroke="rgb(255,255,255)" stroke-width="0.75" d="M 32 256 L 32 320 M 0 288 L 64 288 "/>
<path id="p115" fill="none" stroke="rgb(0,0,0)" stroke-width="0.5" d="M 32 256 L 32 320 M 0 288 L 64 288 "/>
<path id="p116" fill="none" stroke="rgb(255,255,255)" stroke-width="0.75" d="M 16 256 L 16 288 M 0 272 L 32 272 "/>
<path id="p117" fill="none" stroke="rgb(0,0,0)" stroke-width="0.5" d="M 16 256 L 16 288 M 0 272 L 32 272 "/>
<path id="p118" fill="none" stroke="rgb(255,255,255)" stroke-width="0.75" d="M 16 288 L 16 320 M 0 304 L 32 304 "/>
<path id="p119" fill="none" stroke="rgb(0,0,0)" stroke-width="0.5" d="M 16 288 L 16 320 M 0 304 L 32 304 "/>
<path id="p120" fill="none" stroke="rgb(255,255,255)" stroke-width="0.75" d="M 32 320 L 32 384 M 0 352 L 64 352 "/>
<path id="p121" fill="none" stroke="rgb(0,0,0)" stroke-width="0.5" d="M 32 320 L 32 384 M 0 352 L 64 352 "/>
<path id="p122" fill="none" stroke="rgb(255,255,255)" stroke-width="0.75" d="M 16 320 L 16 352 M 0 336 L 32 336 "/>
<path id="p123" fill="none" stroke="rgb(0,0,0)" stroke-width="0.5" d="M 16 320 L 16 352 M 0 336 L 32 336 "/>
<path id="p124" fill="none" stroke="rgb(255,255,255)" stroke-width="0.75" d="M 16 352 L 16 384 M 0 368 L 32 368 "/>
<path id="p125" fill="none" stroke="rgb(0,0,0)" stroke-width="0.5" d="M 16 352 L 16 384 M 0 368 L 32 368 "/>
<path id="p126" fill="none" stroke="rgb(255,255,255)" stroke-width="0.75" d="M 48 352 L 48 384 M 32 368 L 64 368 "/>
<path id="p127" fill="none" stroke="rgb(0,0,0)" stroke-width="0.5" d="M 48 352 L 48 384 M 32 368 L 64 368 "/>
<path id="p128" fill="none" stroke="rgb(255,255,255)" stroke-width="0.75" d="M 64 384 L 64 512 M 0 448 L 128 448 "/>
<path id="p129" fill="none" stroke="rgb(0,0,0)" stroke-width="0.5" d="M 64 384 L 64 512 M 0 448 L 128 448 "/>
<path id="p130" fill="none" stroke="rgb(255,255,255)" stroke-width="0.75" d="M 32 384 L 32 448 M 0 416 L 64 416 "/>
<path id="p131" fill="none" stroke="rgb(0,0,0)" stroke-width="0.5" d="M 32 384 L 32 448 M 0 416 L 64 416 "/>
<path id="p132" fill="none" stroke="rgb(255,255,255)" stroke-width="0.75" d="M 48 384 L 48 416 M 32 400 L 64 400 "/>
<path id="p133" fill="none" stroke="rgb(0,0,0)" stroke-width="0.5" d="M 48 384 L 48 416 M 32 400 L 64 400 "/>
<path id="p134" fill="none" stroke="rgb(255,255,255)" stroke-width="0.75" d="M 48 416 L 48 448 M 32 432 L 64 432 "/>
<path id="p135" fill="none" stroke="rgb(0,0,0)" stroke-width="0.5" d="M 48 416 L 48 448 M 32 432 L 64 432 "/>
<path id="p136" fill="none" stroke="rgb(255,255,255)" stroke-width="0.75" d="M 96 384 L 96 448 M 64 416 L 128 416 "/>
<path id="p137" fill="none" stroke="rgb(0,0,0)" stroke-width="0.5" d="M 96 384 L 96 448 M 64 416 L 128 416 "/>
<path id="p138" fill="none" stroke="rgb(255,255,255)" stroke-width="0.75" d="M 80 416 L 80 448 M 64 432 L 96 432 "/>
<path id="p139" fill="none" stroke="rgb(0,0,0)" stroke-width="0.5" d="M 80 416 L 80 448 M 64 432 L 96 432 "/>
<path id="p140" fill="none" stroke="rgb(255,255,255)" stroke-width="0.75" d="M 96 448 L 96 512 M 64 480 L 128 480 "/>
<path id="p141" fill="none" stroke="rgb(0,0,0)" stroke-width="0.5" d="M 96 448 L 96 512 M 64 480 L 128 480 "/>
<path id="p142" fill="none" stroke="rgb(255,255,255)" stroke-width="0.75" d="M 80 448 L 80 480 M 64 464 L 96 464 "/>
<path id="p143" fill="none" stroke="rgb(0,0,0)" stroke-width="0.5" d="M 80 448 L 80 480 M 64 464 L 96 464 "/>
<path id="p144" fill="none" stroke="rgb(255,255,255)" stroke-width="0.75" d="M 112 448 L 112 480 M 96 464 L 128 464 "/>
<path id="p145" fill="none" stroke="rgb(0,0,0)" stroke-width="0.5" d="M 112 448 L 112 480 M 96 464 L 128 464 "/>
<path id="p146" fill="none" stroke="rgb(255,255,255)" stroke-width="0.75" d="M 192 384 L 192 512 M 128 448 L 256 448 "/>
<path id="p147" fill="none" stroke="rgb(0,0,0)" stroke-width="0.5" d="M 192 384 L 192 512 M 128 448 L 256 448 "/>
<path id="p148" fill="none" stroke="rgb(255,255,255)" stroke-width="0.75" d="M 160 448 L 160 512 M 128 480 L 192 480 "/>
<path id="p149" fill="none" stroke="rgb(0,0,0)" stroke-width="0.5" d="M 160 448 L 160 512 M 128 480 L 192 480 "/>
<path id="p150" fill="none" stroke="rgb(255,255,255)" stroke-width="0.75" d="M 144 448 L 144 480 M 128 464 L 160 464 "/>
<path id="p151" fill="none" stroke="rgb(0,0,0)" stroke-width="0.5" d="M 144 448 L 144 480 M 128 464 L 160 464 "/>
<path id="p152" fill="none" stroke="rgb(255,255,255)" stroke-width="0.75" d="M 144 480 L 144 512 M 128 496 L 160 496 "/>
<path id="p153" fill="none" stroke="rgb(0,0,0)" stroke-width="0.5" d="M 144 480 L 144 512 M 128 496 L 160 496 "/>
<path id="p154" fill="none" stroke="rgb(255,255,255)" stroke-width="0.75" d="M 176 480 L 176 512 M 160 496 L 192 496 "/>
<path id="p155" fill="none" stroke="rgb(0,0,0)" stroke-width="0.5" d="M 176 480 L 176 512 M 160 496 L 192 496 "/>
<path id="p156" fill="none" stroke="rgb(255,255,255)" stroke-width="0.75" d="M 224 448 L 224 512 M 192 480 L 256 480 "/>
<path id="p157" fill="none" stroke="rgb(0,0,0)" stroke-width="0.5" d="M 224 448 L 224 512 M 192 480 L 256 480 "/>
<path id="p158" fill="none" stroke="rgb(255,255,255)" stroke-width="0.75" d="M 208 480 L 208 512 M 192 496 L 224 496 "/>
<path id="p159" fill="none" stroke="rgb(0,0,0)" stroke-width="0.5" d="M 208 480 L 208 512 M 192 496 L 224 496 "/>
<path id="p160" fill="none" stroke="rgb(255,255,255)" stroke-width="0.75" d="M 240 480 L 240 512 M 224 496 L 256 496 "/>
<path id="p161" fill="none" stroke="rgb(0,0,0)" stroke-width="0.5" d="M 240 480 L 240 512 M 224 496 L 256 496 "/>
<path id="p162" fill="none" stroke="rgb(255,255,255)" stroke-width="0.75" d="M 384 256 L 384 512 M 256 384 L 512 384 "/>
<path id="p163" fill="none" stroke="rgb(0,0,0)" stroke-width="0.5" d="M 384 256 L 384 512 M 256 384 L 512 384 "/>
<path id="p164" fill="none" stroke="rgb(255,255,255)" stroke-width="0.75" d="M 448 256 L 448 384 M 384 320 L 512 320 "/>
<path id="p165" fill="none" stroke="rgb(0,0,0)" stroke-width="0.5" d="M 448 256 L 448 384 M 384 320 L 512 320 "/>
<path id="p166" fill="none" stroke="rgb(255,255,255)" stroke-width="0.75" d="M 480 256 L 480 320 M 448 288 L 512 288 "/>
<path id="p167" fill="none" stroke="rgb(0,0,0)" stroke-width="0.5" d="M 480 256 L 480 320 M 448 288 L 512 288 "/>
<path id="p168" fill="none" stroke="rgb(255,255,255)" stroke-width="0.75" d="M 496 256 L 496 288 M 480 272 L 512 272 "/>
<path id="p169" fill="none" stroke="rgb(0,0,0)" stroke-width="0.5" d="M 496 256 L 496 288 M 480 272 L 512 272 "/>
<path id="p170" fill="none" stroke="rgb(255,255,255)" stroke-width="0.75" d="M 496 288 L 496 320 M 480 304 L 512 304 "/>
<path id="p171" fill="none" stroke="rgb(0,0,0)" stroke-width="0.5" d="M 496 288 L 496 320 M 480 304 L 512 304 "/>
<path id="p172" fill="none" stroke="rgb(255,255,255)" stroke-width="0.75" d="M 480 320 L 480 384 M 448 352 L 512 352 "/>
<path id="p173" fill="none" stroke="rgb(0,0,0)" stroke-width="0.5" d="M 480 320 L 480 384 M 448 352 L 512 352 "/>
<path id="p174" fill="none" stroke="rgb(255,255,255)" stroke-width="0.75" d="M 496 320 L 496 352 M 480 336 L 512 336 "/>
<path id="p175" fill="none" stroke="rgb(0,0,0)" stroke-width="0.5" d="M 496 320 L 496 352 M 480 336 L 512 336 "/>
<path id="p176" fill="none" stroke="rgb(255,255,255)" stroke-width="0.75" d="M 464 352 L 464 384 M 448 368 L 480 368 "/>
<path id="p177" fill="none" stroke="rgb(0,0,0)" stroke-width="0.5" d="M 464 352 L 464 384 M 448 368 L 480 368 "/>
<path id="p178" fill="none" stroke="rgb(255,255,255)" stroke-width="0.75" d="M 496 352 L 496 384 M 480 368 L 512 368 "/>
<path id="p179" fill="none" stroke="rgb(0,0,0)" stroke-width="0.5" d="M 496 352 L 496 384 M 480 368 L 512 368 "/>
<path id="p180" fill="none" stroke="rgb(255,255,255)" stroke-width="0.75" d="M 320 384 L 320 512 M 256 448 L 384 448 "/>
<path id="p181" fill="none" stroke="rgb(0,0,0)" stroke-width="0.5" d="M 320 384 L 320 512 M 256 448 L 384 448 "/>
<path id="p182" fill="none" stroke="rgb(255,255,255)" stroke-width="0.75" d="M 288 448 L 288 512 M 256 480 L 320 480 "/>
<path id="p183" fill="none" stroke="rgb(0,0,0)" stroke-width="0.5" d="M 288 448 L 288 512 M 256 480 L 320 480 "/>
<path id="p184" fill="none" stroke="rgb(255,255,255)" stroke-width="0.75" d="M 272 480 L 272 512 M 256 496 L 288 496 "/>
<path id="p185" fill="none" stroke="rgb(0,0,0)" stroke-width="0.5" d="M 272 480 L 272 512 M 256 496 L 288 496 "/>
<path id="p186" fill="none" stroke="rgb(255,255,255)" stroke-width="0.75" d="M 304 480 L 304 512 M 288 496 L 320 496 "/>
<path id="p187" fill="none" stroke="rgb(0,0,0)" stroke-width="0.5" d="M 304 480 L 304 512 M 288 496 L 320 496 "/>
<path id="p188" fill="none" stroke="rgb(255,255,255)" stroke-width="0.75" d="M 352 448 L 352 512 M 320 480 L 384 480 "/>
<path id="p189" fill="none" stroke="rgb(0,0,0)" stroke-width="0.5" d="M 352 448 L 352 512 M 320 480 L 384 480 "/>
<path id="p190" fill="none" stroke="rgb(255,255,255)" stroke-width="0.75" d="M 368 448 L 368 480 M 352 464 L 384 464 "/>
<path id="p191" fill="none" stroke="rgb(0,0,0)" stroke-width="0.5" d="M 368 448 L 368 480 M 352 464 L 384 464 "/>
<path id="p192" fill="none" stroke="rgb(255,255,255)" stroke-width="0.75" d="M 336 480 L 336 512 M 320 496 L 352 496 "/>
<path id="p193" fill="none" stroke="rgb(0,0,0)" stroke-width="0.5" d="M 336 480 L 336 512 M 320 496 L 352 496 "/>
<path id="p194" fill="none" stroke="rgb(255,255,255)" stroke-width="0.75" d="M 368 480 L 368 512 M 352 496 L 384 496 "/>
<path id="p195" fill="none" stroke="rgb(0,0,0)" stroke-width="0.5" d="M 368 480 L 368 512 M 352 496 L 384 496 "/>
<path id="p196" fill="none" stroke="rgb(255,255,255)" stroke-width="0.75" d="M 448 384 L 448 512 M 384 448 L 512 448 "/>
<path id="p197" fill="none" stroke="rgb(0,0,0)" stroke-width="0.5" d="M 448 384 L 448 512 M 384 448 L 512 448 "/>
<path id="p198" fill="none" stroke="rgb(255,255,255)" stroke-width="0.75" d="M 416 384 L 416 448 M 384 416 L 448 416 "/>
<path id="p199" fill="none" stroke="rgb(0,0,0)" stroke-width="0.5" d="M 416 384 L 416 448 M 384 416 L 448 416 "/>
<path id="p200" fill="none" stroke="rgb(255,255,255)" stroke-width="0.75" d="M 432 416 L 432 448 M 416 432 L 448 432 "/>
<path id="p201" fill="none" stroke="rgb(0,0,0)" stroke-width="0.5" d="M 432 416 L 432 448 M 416 432 L 448 432 "/>
<path id="p202" fill="none" stroke="rgb(255,255,255)" stroke-width="0.75" d="M 480 384 L 480 448 M 448 416 L 512 416 "/>
<path id="p203" fill="none" stroke="rgb(0,0,0)" stroke-width="0.5" d="M 480 384 L 480 448 M 448 416 L 512 416 "/>
<path id="p204" fill="none" stroke="rgb(255,255,255)" stroke-width="0.75" d="M 464 384 L 464 416 M 448 400 L 480 400 "/>
<path id="p205" fill="none" stroke="rgb(0,0,0)" stroke-width="0.5" d="M 464 384 L 464 416 M 448 400 L 480 400 "/>
<path id="p206" fill="none" stroke="rgb(255,255,255)" stroke-width="0.75" d="M 464 416 L 464 448 M 448 432 L 480 432 "/>
<path id="p207" fill="none" stroke="rgb(0,0,0)" stroke-width="0.5" d="M 464 416 L 464 448 M 448 432 L 480 432 "/>
<path id="p208" fill="none" stroke="rgb(255,255,255)" stroke-width="0.75" d="M 416 448 L 416 512 M 384 480 L 448 480 "/>
<path id="p209" fill="none" stroke="rgb(0,0,0)" stroke-width="0.5" d="M 416 448 L 416 512 M 384 480 L 448 480 "/>
<path id="p210" fill="none" stroke="rgb(255,255,255)" stroke-width="0.75" d="M 400 448 L 400 480 M 384 464 L 416 464 "/>
<path id="p211" fill="none" stroke="rgb(0,0,0)" stroke-width="0.5" d="M 400 448 L 400 480 M 384 464 L 416 464 "/>
<path id="p212" fill="none" stroke="rgb(255,255,255)" stroke-width="0.75" d="M 432 448 L 432 480 M 416 464 L 448 464 "/>
<path id="p213" fill="none" stroke="rgb(0,0,0)" stroke-width="0.5" d="M 432 448 L 432 480 M 416 464 L 448 464 "/>
</g>
</svg>
