<?xml version="1.0" standalone="no"?>
<svg
    xmlns:xlink="http://www.w3.org/1999/xlink"
    xmlns:dc="http://purl.org/dc/elements/1.1/"
    xmlns:cc="http://creativecommons.org/ns#"
    xmlns:rdf="http://www.w3.org/1999/02/22-rdf-syntax-ns#"
    xmlns:svg="http://www.w3.org/2000/svg"
    xmlns="http://www.w3.org/2000/svg"
    version="1.1"
    viewBox="0 0 512 512">
<defs>
</defs>
<g transform="translate(0, 512) scale(1, -1)">
<path id="p1" fill-rule="evenodd" fill="rgb(255,0,0)" d="M 512 256 L 177 499 49 106 463 106 335 499 0 256 335 13 463 406 49 406 177 13 512 256 Z "/>
<path id="p2" fill="none" stroke="rgb(255,255,255)" stroke-width="0.75" d="M 0 0 L 512 0 512 512 0 512 Z "/>
<path id="p3" fill="none" stroke="rgb(0,0,0)" stroke-width="0.5" d="M 0 0 L 512 0 512 512 0 512 Z "/>
<path id="p4" fill="none" stroke="rgb(255,255,255)" stroke-width="0.75" d="M 256 0 L 256 512 M 0 256 L 512 256 "/>
<path id="p5" fill="none" stroke="rgb(0,0,0)" stroke-width="0.5" d="M 256 0 L 256 512 M 0 256 L 512 256 "/>
<path id="p6" fill="none" stroke="rgb(255,255,255)" stroke-width="0.75" d="M 128 0 L 128 256 M 0 128 L 256 128 "/>
<path id="p7" fill="none" stroke="rgb(0,0,0)" stroke-width="0.5" d="M 128 0 L 128 256 M 0 128 L 256 128 "/>
<path id="p8" fill="none" stroke="rgb(255,255,255)" stroke-width="0.75" d="M 64 0 L 64 128 M 0 64 L 128 64 "/>
<path id="p9" fill="none" stroke="rgb(0,0,0)" stroke-width="0.5" d="M 64 0 L 64 128 M 0 64 L 128 64 "/>
<path id="p10" fill="none" stroke="rgb(255,255,255)" stroke-width="0.75" d="M 32 64 L 32 128 M 0 96 L 64 96 "/>
<path id="p11" fill="none" stroke="rgb(0,0,0)" stroke-width="0.5" d="M 32 64 L 32 128 M 0 96 L 64 96 "/>
<path id="p12" fill="none" stroke="rgb(255,255,255)" stroke-width="0.75" d="M 48 96 L 48 128 M 32 112 L 64 112 "/>
<path id="p13" fill="none" stroke="rgb(0,0,0)" stroke-width="0.5" d="M 48 96 L 48 128 M 32 112 L 64 112 "/>
<path id="p14" fill="none" stroke="rgb(255,255,255)" stroke-width="0.75" d="M 192 0 L 192 128 M 128 64 L 256 64 "/>
<path id="p15" fill="none" stroke="rgb(0,0,0)" stroke-width="0.5" d="M 192 0 L 192 128 M 128 64 L 256 64 "/>
<path id="p16" fill="none" stroke="rgb(255,255,255)" stroke-width="0.75" d="M 160 0 L 160 64 M 128 32 L 192 32 "/>
<path id="p17" fill="none" stroke="rgb(0,0,0)" stroke-width="0.5" d="M 160 0 L 160 64 M 128 32 L 192 32 "/>
<path id="p18" fill="none" stroke="rgb(255,255,255)" stroke-width="0.75" d="M 176 0 L 176 32 M 160 16 L 192 16 "/>
<path id="p19" fill="none" stroke="rgb(0,0,0)" stroke-width="0.5" d="M 176 0 L 176 32 M 160 16 L 192 16 "/>
<path id="p20" fill="none" stroke="rgb(255,255,255)" stroke-width="0.75" d="M 176 32 L 176 64 M 160 48 L 192 48 "/>
<path id="p21" fill="none" stroke="rgb(0,0,0)" stroke-width="0.5" d="M 176 32 L 176 64 M 160 48 L 192 48 "/>
<path id="p22" fill="none" stroke="rgb(255,255,255)" stroke-width="0.75" d="M 160 64 L 160 128 M 128 96 L 192 96 "/>
<path id="p23" fill="none" stroke="rgb(0,0,0)" stroke-width="0.5" d="M 160 64 L 160 128 M 128 96 L 192 96 "/>
<path id="p24" fill="none" stroke="rgb(255,255,255)" stroke-width="0.75" d="M 176 64 L 176 96 M 160 80 L 192 80 "/>
<path id="p25" fill="none" stroke="rgb(0,0,0)" stroke-width="0.5" d="M 176 64 L 176 96 M 160 80 L 192 80 "/>
<path id="p26" fill="none" stroke="rgb(255,255,255)" stroke-width="0.75" d="M 144 96 L 144 128 M 128 112 L 160 112 "/>
<path id="p27" fill="none" stroke="rgb(0,0,0)" stroke-width="0.5" d="M 144 96 L 144 128 M 128 112 L 160 112 "/>
<path id="p28" fill="none" stroke="rgb(255,255,255)" stroke-width="0.75" d="M 176 96 L 176 128 M 160 112 L 192 112 "/>
<path id="p29" fill="none" stroke="rgb(0,0,0)" stroke-width="0.5" d="M 176 96 L 176 128 M 160 112 L 192 112 "/>
<path id="p30" fill="none" stroke="rgb(255,255,255)" stroke-width="0.75" d="M 224 64 L 224 128 M 192 96 L 256 96 "/>
<path id="p31" fill="none" stroke="rgb(0,0,0)" stroke-width="0.5" d="M 224 64 L 224 128 M 192 96 L 256 96 "/>
<path id="p32" fill="none" stroke="rgb(255,255,255)" stroke-width="0.75" d="M 208 64 L 208 96 M 192 80 L 224 80 "/>
<path id="p33" fill="none" stroke="rgb(0,0,0)" stroke-width="0.5" d="M 208 64 L 208 96 M 192 80 L 224 80 "/>
<path id="p34" fill="none" stroke="rgb(255,255,255)" stroke-width="0.75" d="M 240 64 L 240 96 M 224 80 L 256 80 "/>
<path id="p35" fill="none" stroke="rgb(0,0,0)" stroke-width="0.5" d="M 240 64 L 240 96 M 224 80 L 256 80 "/>
<path id="p36" fill="none" stroke="rgb(255,255,255)" stroke-width="0.75" d="M 208 96 L 208 128 M 192 112 L 224 112 "/>
<path id="p37" fill="none" stroke="rgb(0,0,0)" stroke-width="0.5" d="M 208 96 L 208 128 M 192 112 L 224 112 "/>
<path id="p38" fill="none" stroke="rgb(255,255,255)" stroke-width="0.75" d="M 240 96 L 240 128 M 224 112 L 256 112 "/>
<path id="p39" fill="none" stroke="rgb(0,0,0)" stroke-width="0.5" d="M 240 96 L 240 128 M 224 112 L 256 112 "/>
<path id="p40" fill="none" stroke="rgb(255,255,255)" stroke-width="0.75" d="M 64 128 L 64 256 M 0 192 L 128 192 "/>
<path id="p41" fill="none" stroke="rgb(0,0,0)" stroke-width="0.5" d="M 64 128 L 64 256 M 0 192 L 128 192 "/>
<path id="p42" fill="none" stroke="rgb(255,255,255)" stroke-width="0.75" d="M 96 128 L 96 192 M 64 160 L 128 160 "/>
<path id="p43" fill="none" stroke="rgb(0,0,0)" stroke-width="0.5" d="M 96 128 L 96 192 M 64 160 L 128 160 "/>
<path id="p44" fill="none" stroke="rgb(255,255,255)" stroke-width="0.75" d="M 80 128 L 80 160 M 64 144 L 96 144 "/>
<path id="p45" fill="none" stroke="rgb(0,0,0)" stroke-width="0.5" d="M 80 128 L 80 160 M 64 144 L 96 144 "/>
<path id="p46" fill="none" stroke="rgb(255,255,255)" stroke-width="0.75" d="M 80 160 L 80 192 M 64 176 L 96 176 "/>
<path id="p47" fill="none" stroke="rgb(0,0,0)" stroke-width="0.5" d="M 80 160 L 80 192 M 64 176 L 96 176 "/>
<path id="p48" fill="none" stroke="rgb(255,255,255)" stroke-width="0.75" d="M 112 160 L 112 192 M 96 176 L 128 176 "/>
<path id="p49" fill="none" stroke="rgb(0,0,0)" stroke-width="0.5" d="M 112 160 L 112 192 M 96 176 L 128 176 "/>
<path id="p50" fill="none" stroke="rgb(255,255,255)" stroke-width="0.75" d="M 32 192 L 32 256 M 0 224 L 64 224 "/>
<path id="p51" fill="none" stroke="rgb(0,0,0)" stroke-width="0.5" d="M 32 192 L 32 256 M 0 224 L 64 224 "/>
<path id="p52" fill="none" stroke="rgb(255,255,255)" stroke-width="0.75" d="M 16 224 L 16 256 M 0 240 L 32 240 "/>
<path id="p53" fill="none" stroke="rgb(0,0,0)" stroke-width="0.5" d="M 16 224 L 16 256 M 0 240 L 32 240 "/>
<path id="p54" fill="none" stroke="rgb(255,255,255)" stroke-width="0.75" d="M 48 224 L 48 256 M 32 240 L 64 240 "/>
<path id="p55" fill="none" stroke="rgb(0,0,0)" stroke-width="0.5" d="M 48 224 L 48 256 M 32 240 L 64 240 "/>
<path id="p56" fill="none" stroke="rgb(255,255,255)" stroke-width="0.75" d="M 96 192 L 96 256 M 64 224 L 128 224 "/>
<path id="p57" fill="none" stroke="rgb(0,0,0)" stroke-width="0.5" d="M 96 192 L 96 256 M 64 224 L 128 224 "/>
<path id="p58" fill="none" stroke="rgb(255,255,255)" stroke-width="0.75" d="M 80 192 L 80 224 M 64 208 L 96 208 "/>
<path id="p59" fill="none" stroke="rgb(0,0,0)" stroke-width="0.5" d="M 80 192 L 80 224 M 64 208 L 96 208 "/>
<path id="p60" fill="none" stroke="rgb(255,255,255)" stroke-width="0.75" d="M 112 192 L 112 224 M 96 208 L 128 208 "/>
<path id="p61" fill="none" stroke="rgb(0,0,0)" stroke-width="0.5" d="M 112 192 L 112 224 M 96 208 L 128 208 "/>
<path id="p62" fill="none" stroke="rgb(255,255,255)" stroke-width="0.75" d="M 80 224 L 80 256 M 64 240 L 96 240 "/>
<path id="p63" fill="none" stroke="rgb(0,0,0)" stroke-width="0.5" d="M 80 224 L 80 256 M 64 240 L 96 240 "/>
<path id="p64" fill="none" stroke="rgb(255,255,255)" stroke-width="0.75" d="M 112 224 L 112 256 M 96 240 L 128 240 "/>
<path id="p65" fill="none" stroke="rgb(0,0,0)" stroke-width="0.5" d="M 112 224 L 112 256 M 96 240 L 128 240 "/>
<path id="p66" fill="none" stroke="rgb(255,255,255)" stroke-width="0.75" d="M 192 128 L 192 256 M 128 192 L 256 192 "/>
<path id="p67" fill="none" stroke="rgb(0,0,0)" stroke-width="0.5" d="M 192 128 L 192 256 M 128 192 L 256 192 "/>
<path id="p68" fill="none" stroke="rgb(255,255,255)" stroke-width="0.75" d="M 160 128 L 160 192 M 128 160 L 192 160 "/>
<path id="p69" fill="none" stroke="rgb(0,0,0)" stroke-width="0.5" d="M 160 128 L 160 192 M 128 160 L 192 160 "/>
<path id="p70" fill="none" stroke="rgb(255,255,255)" stroke-width="0.75" d="M 144 128 L 144 160 M 128 144 L 160 144 "/>
<path id="p71" fill="none" stroke="rgb(0,0,0)" stroke-width="0.5" d="M 144 128 L 144 160 M 128 144 L 160 144 "/>
<path id="p72" fill="none" stroke="rgb(255,255,255)" stroke-width="0.75" d="M 176 128 L 176 160 M 160 144 L 192 144 "/>
<path id="p73" fill="none" stroke="rgb(0,0,0)" stroke-width="0.5" d="M 176 128 L 176 160 M 160 144 L 192 144 "/>
<path id="p74" fill="none" stroke="rgb(255,255,255)" stroke-width="0.75" d="M 144 160 L 144 192 M 128 176 L 160 176 "/>
<path id="p75" fill="none" stroke="rgb(0,0,0)" stroke-width="0.5" d="M 144 160 L 144 192 M 128 176 L 160 176 "/>
<path id="p76" fill="none" stroke="rgb(255,255,255)" stroke-width="0.75" d="M 384 0 L 384 256 M 256 128 L 512 128 "/>
<path id="p77" fill="none" stroke="rgb(0,0,0)" stroke-width="0.5" d="M 384 0 L 384 256 M 256 128 L 512 128 "/>
<path id="p78" fill="none" stroke="rgb(255,255,255)" stroke-width="0.75" d="M 320 0 L 320 128 M 256 64 L 384 64 "/>
<path id="p79" fill="none" stroke="rgb(0,0,0)" stroke-width="0.5" d="M 320 0 L 320 128 M 256 64 L 384 64 "/>
<path id="p80" fill="none" stroke="rgb(255,255,255)" stroke-width="0.75" d="M 352 0 L 352 64 M 320 32 L 384 32 "/>
<path id="p81" fill="none" stroke="rgb(0,0,0)" stroke-width="0.5" d="M 352 0 L 352 64 M 320 32 L 384 32 "/>
<path id="p82" fill="none" stroke="rgb(255,255,255)" stroke-width="0.75" d="M 336 0 L 336 32 M 320 16 L 352 16 "/>
<path id="p83" fill="none" stroke="rgb(0,0,0)" stroke-width="0.5" d="M 336 0 L 336 32 M 320 16 L 352 16 "/>
<path id="p84" fill="none" stroke="rgb(255,255,255)" stroke-width="0.75" d="M 336 32 L 336 64 M 320 48 L 352 48 "/>
<path id="p85" fill="none" stroke="rgb(0,0,0)" stroke-width="0.5" d="M 336 32 L 336 64 M 320 48 L 352 48 "/>
<path id="p86" fill="none" stroke="rgb(255,255,255)" stroke-width="0.75" d="M 288 64 L 288 128 M 256 96 L 320 96 "/>
<path id="p87" fill="none" stroke="rgb(0,0,0)" stroke-width="0.5" d="M 288 64 L 288 128 M 256 96 L 320 96 "/>
<path id="p88" fill="none" stroke="rgb(255,255,255)" stroke-width="0.75" d="M 272 64 L 272 96 M 256 80 L 288 80 "/>
<path id="p89" fill="none" stroke="rgb(0,0,0)" stroke-width="0.5" d="M 272 64 L 272 96 M 256 80 L 288 80 "/>
<path id="p90" fill="none" stroke="rgb(255,255,255)" stroke-width="0.75" d="M 304 64 L 304 96 M 288 80 L 320 80 "/>
<path id="p91" fill="none" stroke="rgb(0,0,0)" stroke-width="0.5" d="M 304 64 L 304 96 M 288 80 L 320 80 "/>
<path id="p92" fill="none" stroke="rgb(255,255,255)" stroke-width="0.75" d="M 272 96 L 272 128 M 256 112 L 288 112 "/>
<path id="p93" fill="none" stroke="rgb(0,0,0)" stroke-width="0.5" d="M 272 96 L 272 128 M 256 112 L 288 112 "/>
<path id="p94" fill="none" stroke="rgb(255,255,255)" stroke-width="0.75" d="M 304 96 L 304 128 M 288 112 L 320 112 "/>
<path id="p95" fill="none" stroke="rgb(0,0,0)" stroke-width="0.5" d="M 304 96 L 304 128 M 288 112 L 320 112 "/>
<path id="p96" fill="none" stroke="rgb(255,255,255)" stroke-width="0.75" d="M 352 64 L 352 128 M 320 96 L 384 96 "/>
<path id="p97" fill="none" stroke="rgb(0,0,0)" stroke-width="0.5" d="M 352 64 L 352 128 M 320 96 L 384 96 "/>
<path id="p98" fill="none" stroke="rgb(255,255,255)" stroke-width="0.75" d="M 336 64 L 336 96 M 320 80 L 352 80 "/>
<path id="p99" fill="none" stroke="rgb(0,0,0)" stroke-width="0.5" d="M 336 64 L 336 96 M 320 80 L 352 80 "/>
<path id="p100" fill="none" stroke="rgb(255,255,255)" stroke-width="0.75" d="M 336 96 L 336 128 M 320 112 L 352 112 "/>
<path id="p101" fill="none" stroke="rgb(0,0,0)" stroke-width="0.5" d="M 336 96 L 336 128 M 320 112 L 352 112 "/>
<path id="p102" fill="none" stroke="rgb(255,255,255)" stroke-width="0.75" d="M 368 96 L 368 128 M 352 112 L 384 112 "/>
<path id="p103" fill="none" stroke="rgb(0,0,0)" stroke-width="0.5" d="M 368 96 L 368 128 M 352 112 L 384 112 "/>
<path id="p104" fill="none" stroke="rgb(255,255,255)" stroke-width="0.75" d="M 448 0 L 448 128 M 384 64 L 512 64 "/>
<path id="p105" fill="none" stroke="rgb(0,0,0)" stroke-width="0.5" d="M 448 0 L 448 128 M 384 64 L 512 64 "/>
<path id="p106" fill="none" stroke="rgb(255,255,255)" stroke-width="0.75" d="M 480 64 L 480 128 M 448 96 L 512 96 "/>
<path id="p107" fill="none" stroke="rgb(0,0,0)" stroke-width="0.5" d="M 480 64 L 480 128 M 448 96 L 512 96 "/>
<path id="p108" fill="none" stroke="rgb(255,255,255)" stroke-width="0.75" d="M 464 96 L 464 128 M 448 112 L 480 112 "/>
<path id="p109" fill="none" stroke="rgb(0,0,0)" stroke-width="0.5" d="M 464 96 L 464 128 M 448 112 L 480 112 "/>
<path id="p110" fill="none" stroke="rgb(255,255,255)" stroke-width="0.75" d="M 320 128 L 320 256 M 256 192 L 384 192 "/>
<path id="p111" fill="none" stroke="rgb(0,0,0)" stroke-width="0.5" d="M 320 128 L 320 256 M 256 192 L 384 192 "/>
<path id="p112" fill="none" stroke="rgb(255,255,255)" stroke-width="0.75" d="M 352 128 L 352 192 M 320 160 L 384 160 "/>
<path id="p113" fill="none" stroke="rgb(0,0,0)" stroke-width="0.5" d="M 352 128 L 352 192 M 320 160 L 384 160 "/>
<path id="p114" fill="none" stroke="rgb(255,255,255)" stroke-width="0.75" d="M 336 128 L 336 160 M 320 144 L 352 144 "/>
<path id="p115" fill="none" stroke="rgb(0,0,0)" stroke-width="0.5" d="M 336 128 L 336 160 M 320 144 L 352 144 "/>
<path id="p116" fill="none" stroke="rgb(255,255,255)" stroke-width="0.75" d="M 368 128 L 368 160 M 352 144 L 384 144 "/>
<path id="p117" fill="none" stroke="rgb(0,0,0)" stroke-width="0.5" d="M 368 128 L 368 160 M 352 144 L 384 144 "/>
<path id="p118" fill="none" stroke="rgb(255,255,255)" stroke-width="0.75" d="M 368 160 L 368 192 M 352 176 L 384 176 "/>
<path id="p119" fill="none" stroke="rgb(0,0,0)" stroke-width="0.5" d="M 368 160 L 368 192 M 352 176 L 384 176 "/>
<path id="p120" fill="none" stroke="rgb(255,255,255)" stroke-width="0.75" d="M 448 128 L 448 256 M 384 192 L 512 192 "/>
<path id="p121" fill="none" stroke="rgb(0,0,0)" stroke-width="0.5" d="M 448 128 L 448 256 M 384 192 L 512 192 "/>
<path id="p122" fill="none" stroke="rgb(255,255,255)" stroke-width="0.75" d="M 416 128 L 416 192 M 384 160 L 448 160 "/>
<path id="p123" fill="none" stroke="rgb(0,0,0)" stroke-width="0.5" d="M 416 128 L 416 192 M 384 160 L 448 160 "/>
<path id="p124" fill="none" stroke="rgb(255,255,255)" stroke-width="0.75" d="M 432 128 L 432 160 M 416 144 L 448 144 "/>
<path id="p125" fill="none" stroke="rgb(0,0,0)" stroke-width="0.5" d="M 432 128 L 432 160 M 416 144 L 448 144 "/>
<path id="p126" fill="none" stroke="rgb(255,255,255)" stroke-width="0.75" d="M 400 160 L 400 192 M 384 176 L 416 176 "/>
<path id="p127" fill="none" stroke="rgb(0,0,0)" stroke-width="0.5" d="M 400 160 L 400 192 M 384 176 L 416 176 "/>
<path id="p128" fill="none" stroke="rgb(255,255,255)" stroke-width="0.75" d="M 432 160 L 432 192 M 416 176 L 448 176 "/>
<path id="p129" fill="none" stroke="rgb(0,0,0)" stroke-width="0.5" d="M 432 160 L 432 192 M 416 176 L 448 176 "/>
<path id="p130" fill="none" stroke="rgb(255,255,255)" stroke-width="0.75" d="M 416 192 L 416 256 M 384 224 L 448 224 "/>
<path id="p131" fill="none" stroke="rgb(0,0,0)" stroke-width="0.5" d="M 416 192 L 416 256 M 384 224 L 448 224 "/>
<path id="p132" fill="none" stroke="rgb(255,255,255)" stroke-width="0.75" d="M 400 192 L 400 224 M 384 208 L 416 208 "/>
<path id="p133" fill="none" stroke="rgb(0,0,0)" stroke-width="0.5" d="M 400 192 L 400 224 M 384 208 L 416 208 "/>
<path id="p134" fill="none" stroke="rgb(255,255,255)" stroke-width="0.75" d="M 432 192 L 432 224 M 416 208 L 448 208 "/>
<path id="p135" fill="none" stroke="rgb(0,0,0)" stroke-width="0.5" d="M 432 192 L 432 224 M 416 208 L 448 208 "/>
<path id="p136" fill="none" stroke="rgb(255,255,255)" stroke-width="0.75" d="M 400 224 L 400 256 M 384 240 L 416 240 "/>
<path id="p137" fill="none" stroke="rgb(0,0,0)" stroke-width="0.5" d="M 400 224 L 400 256 M 384 240 L 416 240 "/>
<path id="p138" fill="none" stroke="rgb(255,255,255)" stroke-width="0.75" d="M 432 224 L 432 256 M 416 240 L 448 240 "/>
<path id="p139" fill="none" stroke="rgb(0,0,0)" stroke-width="0.5" d="M 432 224 L 432 256 M 416 240 L 448 240 "/>
<path id="p140" fill="none" stroke="rgb(255,255,255)" stroke-width="0.75" d="M 480 192 L 480 256 M 448 224 L 512 224 "/>
<path id="p141" fill="none" stroke="rgb(0,0,0)" stroke-width="0.5" d="M 480 192 L 480 256 M 448 224 L 512 224 "/>
<path id="p142" fill="none" stroke="rgb(255,255,255)" stroke-width="0.75" d="M 464 224 L 464 256 M 448 240 L 480 240 "/>
<path id="p143" fill="none" stroke="rgb(0,0,0)" stroke-width="0.5" d="M 464 224 L 464 256 M 448 240 L 480 240 "/>
<path id="p144" fill="none" stroke="rgb(255,255,255)" stroke-width="0.75" d="M 496 224 L 496 256 M 480 240 L 512 240 "/>
<path id="p145" fill="none" stroke="rgb(0,0,0)" stroke-width="0.5" d="M 496 224 L 496 256 M 480 240 L 512 240 "/>
<path id="p146" fill="none" stroke="rgb(255,255,255)" stroke-width="0.75" d="M 128 256 L 128 512 M 0 384 L 256 384 "/>
<path id="p147" fill="none" stroke="rgb(0,0,0)" stroke-width="0.5" d="M 128 256 L 128 512 M 0 384 L 256 384 "/>
<path id="p148" fill="none" stroke="rgb(255,255,255)" stroke-width="0.75" d="M 64 256 L 64 384 M 0 320 L 128 320 "/>
<path id="p149" fill="none" stroke="rgb(0,0,0)" stroke-width="0.5" d="M 64 256 L 64 384 M 0 320 L 128 320 "/>
<path id="p150" fill="none" stroke="rgb(255,255,255)" stroke-width="0.75" d="M 32 256 L 32 320 M 0 288 L 64 288 "/>
<path id="p151" fill="none" stroke="rgb(0,0,0)" stroke-width="0.5" d="M 32 256 L 32 320 M 0 288 L 64 288 "/>
<path id="p152" fill="none" stroke="rgb(255,255,255)" stroke-width="0.75" d="M 16 256 L 16 288 M 0 272 L 32 272 "/>
<path id="p153" fill="none" stroke="rgb(0,0,0)" stroke-width="0.5" d="M 16 256 L 16 288 M 0 272 L 32 272 "/>
<path id="p154" fill="none" stroke="rgb(255,255,255)" stroke-width="0.75" d="M 48 256 L 48 288 M 32 272 L 64 272 "/>
<path id="p155" fill="none" stroke="rgb(0,0,0)" stroke-width="0.5" d="M 48 256 L 48 288 M 32 272 L 64 272 "/>
<path id="p156" fill="none" stroke="rgb(255,255,255)" stroke-width="0.75" d="M 96 256 L 96 320 M 64 288 L 128 288 "/>
<path id="p157" fill="none" stroke="rgb(0,0,0)" stroke-width="0.5" d="M 96 256 L 96 320 M 64 288 L 128 288 "/>
<path id="p158" fill="none" stroke="rgb(255,255,255)" stroke-width="0.75" d="M 80 256 L 80 288 M 64 272 L 96 272 "/>
<path id="p159" fill="none" stroke="rgb(0,0,0)" stroke-width="0.5" d="M 80 256 L 80 288 M 64 272 L 96 272 "/>
<path id="p160" fill="none" stroke="rgb(255,255,255)" stroke-width="0.75" d="M 112 256 L 112 288 M 96 272 L 128 272 "/>
<path id="p161" fill="none" stroke="rgb(0,0,0)" stroke-width="0.5" d="M 112 256 L 112 288 M 96 272 L 128 272 "/>
<path id="p162" fill="none" stroke="rgb(255,255,255)" stroke-width="0.75" d="M 80 288 L 80 320 M 64 304 L 96 304 "/>
<path id="p163" fill="none" stroke="rgb(0,0,0)" stroke-width="0.5" d="M 80 288 L 80 320 M 64 304 L 96 304 "/>
<path id="p164" fill="none" stroke="rgb(255,255,255)" stroke-width="0.75" d="M 112 288 L 112 320 M 96 304 L 128 304 "/>
<path id="p165" fill="none" stroke="rgb(0,0,0)" stroke-width="0.5" d="M 112 288 L 112 320 M 96 304 L 128 304 "/>
<path id="p166" fill="none" stroke="rgb(255,255,255)" stroke-width="0.75" d="M 96 320 L 96 384 M 64 352 L 128 352 "/>
<path id="p167" fill="none" stroke="rgb(0,0,0)" stroke-width="0.5" d="M 96 320 L 96 384 M 64 352 L 128 352 "/>
<path id="p168" fill="none" stroke="rgb(255,255,255)" stroke-width="0.75" d="M 80 320 L 80 352 M 64 336 L 96 336 "/>
<path id="p169" fill="none" stroke="rgb(0,0,0)" stroke-width="0.5" d="M 80 320 L 80 352 M 64 336 L 96 336 "/>
<path id="p170" fill="none" stroke="rgb(255,255,255)" stroke-width="0.75" d="M 112 320 L 112 352 M 96 336 L 128 336 "/>
<path id="p171" fill="none" stroke="rgb(0,0,0)" stroke-width="0.5" d="M 112 320 L 112 352 M 96 336 L 128 336 "/>
<path id="p172" fill="none" stroke="rgb(255,255,255)" stroke-width="0.75" d="M 80 352 L 80 384 M 64 368 L 96 368 "/>
<path id="p173" fill="none" stroke="rgb(0,0,0)" stroke-width="0.5" d="M 80 352 L 80 384 M 64 368 L 96 368 "/>
<path id="p174" fill="none" stroke="rgb(255,255,255)" stroke-width="0.75" d="M 192 256 L 192 384 M 128 320 L 256 320 "/>
<path id="p175" fill="none" stroke="rgb(0,0,0)" stroke-width="0.5" d="M 192 256 L 192 384 M 128 320 L 256 320 "/>
<path id="p176" fill="none" stroke="rgb(255,255,255)" stroke-width="0.75" d="M 160 320 L 160 384 M 128 352 L 192 352 "/>
<path id="p177" fill="none" stroke="rgb(0,0,0)" stroke-width="0.5" d="M 160 320 L 160 384 M 128 352 L 192 352 "/>
<path id="p178" fill="none" stroke="rgb(255,255,255)" stroke-width="0.75" d="M 144 320 L 144 352 M 128 336 L 160 336 "/>
<path id="p179" fill="none" stroke="rgb(0,0,0)" stroke-width="0.5" d="M 144 320 L 144 352 M 128 336 L 160 336 "/>
<path id="p180" fill="none" stroke="rgb(255,255,255)" stroke-width="0.75" d="M 144 352 L 144 384 M 128 368 L 160 368 "/>
<path id="p181" fill="none" stroke="rgb(0,0,0)" stroke-width="0.5" d="M 144 352 L 144 384 M 128 368 L 160 368 "/>
<path id="p182" fill="none" stroke="rgb(255,255,255)" stroke-width="0.75" d="M 176 352 L 176 384 M 160 368 L 192 368 "/>
<path id="p183" fill="none" stroke="rgb(0,0,0)" stroke-width="0.5" d="M 176 352 L 176 384 M 160 368 L 192 368 "/>
<path id="p184" fill="none" stroke="rgb(255,255,255)" stroke-width="0.75" d="M 64 384 L 64 512 M 0 448 L 128 448 "/>
<path id="p185" fill="none" stroke="rgb(0,0,0)" stroke-width="0.5" d="M 64 384 L 64 512 M 0 448 L 128 448 "/>
<path id="p186" fill="none" stroke="rgb(255,255,255)" stroke-width="0.75" d="M 32 384 L 32 448 M 0 416 L 64 416 "/>
<path id="p187" fill="none" stroke="rgb(0,0,0)" stroke-width="0.5" d="M 32 384 L 32 448 M 0 416 L 64 416 "/>
<path id="p188" fill="none" stroke="rgb(255,255,255)" stroke-width="0.75" d="M 48 384 L 48 416 M 32 400 L 64 400 "/>
<path id="p189" fill="none" stroke="rgb(0,0,0)" stroke-width="0.5" d="M 48 384 L 48 416 M 32 400 L 64 400 "/>
<path id="p190" fill="none" stroke="rgb(255,255,255)" stroke-width="0.75" d="M 192 384 L 192 512 M 128 448 L 256 448 "/>
<path id="p191" fill="none" stroke="rgb(0,0,0)" stroke-width="0.5" d="M 192 384 L 192 512 M 128 448 L 256 448 "/>
<path id="p192" fill="none" stroke="rgb(255,255,255)" stroke-width="0.75" d="M 160 384 L 160 448 M 128 416 L 192 416 "/>
<path id="p193" fill="none" stroke="rgb(0,0,0)" stroke-width="0.5" d="M 160 384 L 160 448 M 128 416 L 192 416 "/>
<path id="p194" fill="none" stroke="rgb(255,255,255)" stroke-width="0.75" d="M 144 384 L 144 416 M 128 400 L 160 400 "/>
<path id="p195" fill="none" stroke="rgb(0,0,0)" stroke-width="0.5" d="M 144 384 L 144 416 M 128 400 L 160 400 "/>
<path id="p196" fill="none" stroke="rgb(255,255,255)" stroke-width="0.75" d="M 176 384 L 176 416 M 160 400 L 192 400 "/>
<path id="p197" fill="none" stroke="rgb(0,0,0)" stroke-width="0.5" d="M 176 384 L 176 416 M 160 400 L 192 400 "/>
<path id="p198" fill="none" stroke="rgb(255,255,255)" stroke-width="0.75" d="M 176 416 L 176 448 M 160 432 L 192 432 "/>
<path id="p199" fill="none" stroke="rgb(0,0,0)" stroke-width="0.5" d="M 176 416 L 176 448 M 160 432 L 192 432 "/>
<path id="p200" fill="none" stroke="rgb(255,255,255)" stroke-width="0.75" d="M 224 384 L 224 448 M 192 416 L 256 416 "/>
<path id="p201" fill="none" stroke="rgb(0,0,0)" stroke-width="0.5" d="M 224 384 L 224 448 M 192 416 L 256 416 "/>
<path id="p202" fill="none" stroke="rgb(255,255,255)" stroke-width="0.75" d="M 208 384 L 208 416 M 192 400 L 224 400 "/>
<path id="p203" fill="none" stroke="rgb(0,0,0)" stroke-width="0.5" d="M 208 384 L 208 416 M 192 400 L 224 400 "/>
<path id="p204" fill="none" stroke="rgb(255,255,255)" stroke-width="0.75" d="M 240 384 L 240 416 M 224 400 L 256 400 "/>
<path id="p205" fill="none" stroke="rgb(0,0,0)" stroke-width="0.5" d="M 240 384 L 240 416 M 224 400 L 256 400 "/>
<path id="p206" fill="none" stroke="rgb(255,255,255)" stroke-width="0.75" d="M 208 416 L 208 448 M 192 432 L 224 432 "/>
<path id="p207" fill="none" stroke="rgb(0,0,0)" stroke-width="0.5" d="M 208 416 L 208 448 M 192 432 L 224 432 "/>
<path id="p208" fill="none" stroke="rgb(255,255,255)" stroke-width="0.75" d="M 240 416 L 240 448 M 224 432 L 256 432 "/>
<path id="p209" fill="none" stroke="rgb(0,0,0)" stroke-width="0.5" d="M 240 416 L 240 448 M 224 432 L 256 432 "/>
<path id="p210" fill="none" stroke="rgb(255,255,255)" stroke-width="0.75" d="M 160 448 L 160 512 M 128 480 L 192 480 "/>
<path id="p211" fill="none" stroke="rgb(0,0,0)" stroke-width="0.5" d="M 160 448 L 160 512 M 128 480 L 192 480 "/>
<path id="p212" fill="none" stroke="rgb(255,255,255)" stroke-width="0.75" d="M 176 448 L 176 480 M 160 464 L 192 464 "/>
<path id="p213" fill="none" stroke="rgb(0,0,0)" stroke-width="0.5" d="M 176 448 L 176 480 M 160 464 L 192 464 "/>
<path id="p214" fill="none" stroke="rgb(255,255,255)" stroke-width="0.75" d="M 176 480 L 176 512 M 160 496 L 192 496 "/>
<path id="p215" fill="none" stroke="rgb(0,0,0)" stroke-width="0.5" d="M 176 480 L 176 512 M 160 496 L 192 496 "/>
<path id="p216" fill="none" stroke="rgb(255,255,255)" stroke-width="0.75" d="M 384 256 L 384 512 M 256 384 L 512 384 "/>
<path id="p217" fill="none" stroke="rgb(0,0,0)" stroke-width="0.5" d="M 384 256 L 384 512 M 256 384 L 512 384 "/>
<path id="p218" fill="none" stroke="rgb(255,255,255)" stroke-width="0.75" d="M 320 256 L 320 384 M 256 320 L 384 320 "/>
<path id="p219" fill="none" stroke="rgb(0,0,0)" stroke-width="0.5" d="M 320 256 L 320 384 M 256 320 L 384 320 "/>
<path id="p220" fill="none" stroke="rgb(255,255,255)" stroke-width="0.75" d="M 352 320 L 352 384 M 320 352 L 384 352 "/>
<path id="p221" fill="none" stroke="rgb(0,0,0)" stroke-width="0.5" d="M 352 320 L 352 384 M 320 352 L 384 352 "/>
<path id="p222" fill="none" stroke="rgb(255,255,255)" stroke-width="0.75" d="M 368 320 L 368 352 M 352 336 L 384 336 "/>
<path id="p223" fill="none" stroke="rgb(0,0,0)" stroke-width="0.5" d="M 368 320 L 368 352 M 352 336 L 384 336 "/>
<path id="p224" fill="none" stroke="rgb(255,255,255)" stroke-width="0.75" d="M 336 352 L 336 384 M 320 368 L 352 368 "/>
<path id="p225" fill="none" stroke="rgb(0,0,0)" stroke-width="0.5" d="M 336 352 L 336 384 M 320 368 L 352 368 "/>
<path id="p226" fill="none" stroke="rgb(255,255,255)" stroke-width="0.75" d="M 368 352 L 368 384 M 352 368 L 384 368 "/>
<path id="p227" fill="none" stroke="rgb(0,0,0)" stroke-width="0.5" d="M 368 352 L 368 384 M 352 368 L 384 368 "/>
<path id="p228" fill="none" stroke="rgb(255,255,255)" stroke-width="0.75" d="M 448 256 L 448 384 M 384 320 L 512 320 "/>
<path id="p229" fill="none" stroke="rgb(0,0,0)" stroke-width="0.5" d="M 448 256 L 448 384 M 384 320 L 512 320 "/>
<path id="p230" fill="none" stroke="rgb(255,255,255)" stroke-width="0.75" d="M 416 256 L 416 320 M 384 288 L 448 288 "/>
<path id="p231" fill="none" stroke="rgb(0,0,0)" stroke-width="0.5" d="M 416 256 L 416 320 M 384 288 L 448 288 "/>
<path id="p232" fill="none" stroke="rgb(255,255,255)" stroke-width="0.75" d="M 400 256 L 400 288 M 384 272 L 416 272 "/>
<path id="p233" fill="none" stroke="rgb(0,0,0)" stroke-width="0.5" d="M 400 256 L 400 288 M 384 272 L 416 272 "/>
<path id="p234" fill="none" stroke="rgb(255,255,255)" stroke-width="0.75" d="M 432 256 L 432 288 M 416 272 L 448 272 "/>
<path id="p235" fill="none" stroke="rgb(0,0,0)" stroke-width="0.5" d="M 432 256 L 432 288 M 416 272 L 448 272 "/>
<path id="p236" fill="none" stroke="rgb(255,255,255)" stroke-width="0.75" d="M 400 288 L 400 320 M 384 304 L 416 304 "/>
<path id="p237" fill="none" stroke="rgb(0,0,0)" stroke-width="0.5" d="M 400 288 L 400 320 M 384 304 L 416 304 "/>
<path id="p238" fill="none" stroke="rgb(255,255,255)" stroke-width="0.75" d="M 432 288 L 432 320 M 416 304 L 448 304 "/>
<path id="p239" fill="none" stroke="rgb(0,0,0)" stroke-width="0.5" d="M 432 288 L 432 320 M 416 304 L 448 304 "/>
<path id="p240" fill="none" stroke="rgb(255,255,255)" stroke-width="0.75" d="M 480 256 L 480 320 M 448 288 L 512 288 "/>
<path id="p241" fill="none" stroke="rgb(0,0,0)" stroke-width="0.5" d="M 480 256 L 480 320 M 448 288 L 512 288 "/>
<path id="p242" fill="none" stroke="rgb(255,255,255)" stroke-width="0.75" d="M 464 256 L 464 288 M 448 272 L 480 272 "/>
<path id="p243" fill="none" stroke="rgb(0,0,0)" stroke-width="0.5" d="M 464 256 L 464 288 M 448 272 L 480 272 "/>
<path id="p244" fill="none" stroke="rgb(255,255,255)" stroke-width="0.75" d="M 496 256 L 496 288 M 480 272 L 512 272 "/>
<path id="p245" fill="none" stroke="rgb(0,0,0)" stroke-width="0.5" d="M 496 256 L 496 288 M 480 272 L 512 272 "/>
<path id="p246" fill="none" stroke="rgb(255,255,255)" stroke-width="0.75" d="M 416 320 L 416 384 M 384 352 L 448 352 "/>
<path id="p247" fill="none" stroke="rgb(0,0,0)" stroke-width="0.5" d="M 416 320 L 416 384 M 384 352 L 448 352 "/>
<path id="p248" fill="none" stroke="rgb(255,255,255)" stroke-width="0.75" d="M 400 320 L 400 352 M 384 336 L 416 336 "/>
<path id="p249" fill="none" stroke="rgb(0,0,0)" stroke-width="0.5" d="M 400 320 L 400 352 M 384 336 L 416 336 "/>
<path id="p250" fill="none" stroke="rgb(255,255,255)" stroke-width="0.75" d="M 432 320 L 432 352 M 416 336 L 448 336 "/>
<path id="p251" fill="none" stroke="rgb(0,0,0)" stroke-width="0.5" d="M 432 320 L 432 352 M 416 336 L 448 336 "/>
<path id="p252" fill="none" stroke="rgb(255,255,255)" stroke-width="0.75" d="M 432 352 L 432 384 M 416 368 L 448 368 "/>
<path id="p253" fill="none" stroke="rgb(0,0,0)" stroke-width="0.5" d="M 432 352 L 432 384 M 416 368 L 448 368 "/>
<path id="p254" fill="none" stroke="rgb(255,255,255)" stroke-width="0.75" d="M 320 384 L 320 512 M 256 448 L 384 448 "/>
<path id="p255" fill="none" stroke="rgb(0,0,0)" stroke-width="0.5" d="M 320 384 L 320 512 M 256 448 L 384 448 "/>
<path id="p256" fill="none" stroke="rgb(255,255,255)" stroke-width="0.75" d="M 288 384 L 288 448 M 256 416 L 320 416 "/>
<path id="p257" fill="none" stroke="rgb(0,0,0)" stroke-width="0.5" d="M 288 384 L 288 448 M 256 416 L 320 416 "/>
<path id="p258" fill="none" stroke="rgb(255,255,255)" stroke-width="0.75" d="M 272 384 L 272 416 M 256 400 L 288 400 "/>
<path id="p259" fill="none" stroke="rgb(0,0,0)" stroke-width="0.5" d="M 272 384 L 272 416 M 256 400 L 288 400 "/>
<path id="p260" fill="none" stroke="rgb(255,255,255)" stroke-width="0.75" d="M 304 384 L 304 416 M 288 400 L 320 400 "/>
<path id="p261" fill="none" stroke="rgb(0,0,0)" stroke-width="0.5" d="M 304 384 L 304 416 M 288 400 L 320 400 "/>
<path id="p262" fill="none" stroke="rgb(255,255,255)" stroke-width="0.75" d="M 272 416 L 272 448 M 256 432 L 288 432 "/>
<path id="p263" fill="none" stroke="rgb(0,0,0)" stroke-width="0.5" d="M 272 416 L 272 448 M 256 432 L 288 432 "/>
<path id="p264" fill="none" stroke="rgb(255,255,255)" stroke-width="0.75" d="M 304 416 L 304 448 M 288 432 L 320 432 "/>
<path id="p265" fill="none" stroke="rgb(0,0,0)" stroke-width="0.5" d="M 304 416 L 304 448 M 288 432 L 320 432 "/>
<path id="p266" fill="none" stroke="rgb(255,255,255)" stroke-width="0.75" d="M 352 384 L 352 448 M 320 416 L 384 416 "/>
<path id="p267" fill="none" stroke="rgb(0,0,0)" stroke-width="0.5" d="M 352 384 L 352 448 M 320 416 L 384 416 "/>
<path id="p268" fill="none" stroke="rgb(255,255,255)" stroke-width="0.75" d="M 336 384 L 336 416 M 320 400 L 352 400 "/>
<path id="p269" fill="none" stroke="rgb(0,0,0)" stroke-width="0.5" d="M 336 384 L 336 416 M 320 400 L 352 400 "/>
<path id="p270" fill="none" stroke="rgb(255,255,255)" stroke-width="0.75" d="M 368 384 L 368 416 M 352 400 L 384 400 "/>
<path id="p271" fill="none" stroke="rgb(0,0,0)" stroke-width="0.5" d="M 368 384 L 368 416 M 352 400 L 384 400 "/>
<path id="p272" fill="none" stroke="rgb(255,255,255)" stroke-width="0.75" d="M 336 416 L 336 448 M 320 432 L 352 432 "/>
<path id="p273" fill="none" stroke="rgb(0,0,0)" stroke-width="0.5" d="M 336 416 L 336 448 M 320 432 L 352 432 "/>
<path id="p274" fill="none" stroke="rgb(255,255,255)" stroke-width="0.75" d="M 352 448 L 352 512 M 320 480 L 384 480 "/>
<path id="p275" fill="none" stroke="rgb(0,0,0)" stroke-width="0.5" d="M 352 448 L 352 512 M 320 480 L 384 480 "/>
<path id="p276" fill="none" stroke="rgb(255,255,255)" stroke-width="0.75" d="M 336 448 L 336 480 M 320 464 L 352 464 "/>
<path id="p277" fill="none" stroke="rgb(0,0,0)" stroke-width="0.5" d="M 336 448 L 336 480 M 320 464 L 352 464 "/>
<path id="p278" fill="none" stroke="rgb(255,255,255)" stroke-width="0.75" d="M 336 480 L 336 512 M 320 496 L 352 496 "/>
<path id="p279" fill="none" stroke="rgb(0,0,0)" stroke-width="0.5" d="M 336 480 L 336 512 M 320 496 L 352 496 "/>
<path id="p280" fill="none" stroke="rgb(255,255,255)" stroke-width="0.75" d="M 448 384 L 448 512 M 384 448 L 512 448 "/>
<path id="p281" fill="none" stroke="rgb(0,0,0)" stroke-width="0.5" d="M 448 384 L 448 512 M 384 448 L 512 448 "/>
<path id="p282" fill="none" stroke="rgb(255,255,255)" stroke-width="0.75" d="M 480 384 L 480 448 M 448 416 L 512 416 "/>
<path id="p283" fill="none" stroke="rgb(0,0,0)" stroke-width="0.5" d="M 480 384 L 480 448 M 448 416 L 512 416 "/>
<path id="p284" fill="none" stroke="rgb(255,255,255)" stroke-width="0.75" d="M 464 384 L 464 416 M 448 400 L 480 400 "/>
<path id="p285" fill="none" stroke="rgb(0,0,0)" stroke-width="0.5" d="M 464 384 L 464 416 M 448 400 L 480 400 "/>
</g>
</svg>
