<?xml version="1.0" standalone="no"?>
<svg
    xmlns:xlink="http://www.w3.org/1999/xlink"
    xmlns:dc="http://purl.org/dc/elements/1.1/"
    xmlns:cc="http://creativecommons.org/ns#"
    xmlns:rdf="http://www.w3.org/1999/02/22-rdf-syntax-ns#"
    xmlns:svg="http://www.w3.org/2000/svg"
    xmlns="http://www.w3.org/2000/svg"
    version="1.1"
    viewBox="0 0 512 73">
<defs>
</defs>
<g transform="translate(0, 73) scale(1, -1)">
<path id="p1" fill="rgb(0,0,0)" d="M 43.112956928 38.204884135088 L 71.696288768 38.204884135088 71.696288768 55.962889236842 Q 71.696288768 60.722766892982 71.106473984 62.233112687719 70.652770304 63.377314047368 69.200918528 64.201139026316 67.249992704 65.299572331579 65.07221504 65.299572331579 L 62.894437376 65.299572331579 62.894437376 66.99299034386 89.209250816 66.99299034386 89.209250816 65.299572331579 87.031473152 65.299572331579 Q 84.853695488 65.299572331579 82.902769664 64.246907080702 81.450917888 63.514618210526 80.906473472 62.004272415789 80.407399424 60.539694675439 80.407399424 55.962889236842 L 80.407399424 15.915841649123 Q 80.407399424 11.201732047368 80.997214208 9.6913862526316 81.450917888 8.5471848929825 82.857399296 7.7233599140351 84.853695488 6.6249266087719 87.031473152 6.6249266087719 L 89.209250816 6.6249266087719 89.209250816 4.9315085964912 62.894437376 4.9315085964912 62.894437376 6.6249266087719 65.07221504 6.6249266087719 Q 68.837955584 6.6249266087719 70.562029568 8.8675612736842 71.696288768 10.332139014035 71.696288768 15.915841649123 L 71.696288768 34.818048110526 43.112956928 34.818048110526 43.112956928 15.915841649123 Q 43.112956928 11.201732047368 43.702771712 9.6913862526316 44.156475392 8.5471848929825 45.608327168 7.7233599140351 47.559252992 6.6249266087719 49.737030656 6.6249266087719 L 51.960178688 6.6249266087719 51.960178688 4.9315085964912 25.59999488 4.9315085964912 25.59999488 6.6249266087719 27.777772544 6.6249266087719 Q 31.588883456 6.6249266087719 33.31295744 8.8675612736842 34.401846272 10.332139014035 34.401846272 15.915841649123 L 34.401846272 55.962889236842 Q 34.401846272 60.722766892982 33.812031488 62.233112687719 33.358327808 63.377314047368 31.9518464 64.201139026316 29.955550208 65.299572331579 27.777772544 65.299572331579 L 25.59999488 65.299572331579 25.59999488 66.99299034386 51.960178688 66.99299034386 51.960178688 65.299572331579 49.737030656 65.299572331579 Q 47.559252992 65.299572331579 45.608327168 64.246907080702 44.20184576 63.514618210526 43.657401344 62.004272415789 43.112956928 60.539694675439 43.112956928 55.962889236842 L 43.112956928 38.204884135088 Z "/>
<path id="p2" fill="rgb(0,0,0)" d="M 101.005546496 31.065067650877 Q 101.00509728444 30.972625243999 101.00509728444 30.880577660058 101.00509728444 21.675819265954 105.497212928 16.419290247368 110.034249728 11.110195938596 116.159249408 11.110195938596 120.242582528 11.110195938596 123.237026816 13.352830603509 126.276841472 15.641233322807 128.318508032 21.133399849123 L 129.72498944 20.218038761404 Q 128.772211712 13.947815310526 124.189804544 8.7760251649123 119.607397376 3.6500030736842 112.71110144 3.6500030736842 105.22499072 3.6500030736842 99.871287296 9.5083140350877 94.56295424 15.412393050877 94.56295424 25.344060852632 94.56295424 36.099553633333 100.0073984 42.095168757895 105.497212928 48.136551936842 113.754619904 48.136551936842 120.741656576 48.136551936842 125.233323008 43.468210389474 129.72498944 38.845636896491 129.72498944 31.065067650877 L 101.005546496 31.065067650877 Z M 101.005546496 33.719614805263 L 120.242582528 33.719614805263 Q 120.015730688 37.747203591228 119.2898048 39.394853549123 118.1555456 41.957864594737 115.8870272 43.422442335088 113.663879168 44.887020075439 111.213879296 44.887020075439 107.448138752 44.887020075439 104.453694464 41.912096540351 101.504620544 38.982941059649 101.005546496 33.719614805263 Z "/>
<path id="p3" fill="rgb(0,0,0)" d="M 149.551840256 70.013681933333 L 149.551840256 14.405495854386 Q 149.551840256 10.469443177193 150.096284672 9.187937654386 150.686099456 7.9064321315789 151.865729024 7.2199113157895 153.045358592 6.579158554386 156.26665472 6.579158554386 L 156.26665472 4.9315085964912 135.895359488 4.9315085964912 135.895359488 6.579158554386 Q 138.753692672 6.579158554386 139.797211136 7.1741432614035 140.8407296 7.7691279684211 141.430544384 9.1421696 142.020359168 10.515211231579 142.020359168 14.405495854386 L 142.020359168 52.484517103509 Q 142.020359168 59.578565533333 141.702766592 61.180447436842 141.385174016 62.828097394737 140.659248128 63.423082101754 139.978692608 64.018066808772 138.889803776 64.018066808772 137.710174208 64.018066808772 135.895359488 63.285777938596 L 135.124063232 64.887659842105 147.510173696 70.013681933333 149.551840256 70.013681933333 Z "/>
<path id="p4" fill="rgb(0,0,0)" d="M 175.367579648 70.013681933333 L 175.367579648 14.405495854386 Q 175.367579648 10.469443177193 175.912024064 9.187937654386 176.501838848 7.9064321315789 177.681468416 7.2199113157895 178.861097984 6.579158554386 182.082394112 6.579158554386 L 182.082394112 4.9315085964912 161.71109888 4.9315085964912 161.71109888 6.579158554386 Q 164.569432064 6.579158554386 165.612950528 7.1741432614035 166.656468992 7.7691279684211 167.246283776 9.1421696 167.83609856 10.515211231579 167.83609856 14.405495854386 L 167.83609856 52.484517103509 Q 167.83609856 59.578565533333 167.518505984 61.180447436842 167.200913408 62.828097394737 166.47498752 63.423082101754 165.794432 64.018066808772 164.705543168 64.018066808772 163.5259136 64.018066808772 161.71109888 63.285777938596 L 160.939802624 64.887659842105 173.325913088 70.013681933333 175.367579648 70.013681933333 Z "/>
<path id="p5" fill="rgb(0,0,0)" d="M 207.217577984 48.090783882456 Q 216.654614528 48.090783882456 222.371280896 40.859431289474 227.225910272 34.680743947368 227.225910272 26.671334429825 227.225910272 21.041863740351 224.54905856 15.275088887719 221.872206848 9.5083140350877 217.153688576 6.579158554386 212.480540672 3.6500030736842 206.718503936 3.6500030736842 197.32683776 3.6500030736842 191.791652864 11.201732047368 187.11850496 17.563491607018 187.11850496 25.481365015789 187.11850496 31.248139868421 189.931467776 36.923378612281 192.78980096 42.644385410526 197.417578496 45.344700619298 202.045356032 48.090783882456 207.217577984 48.090783882456 Z M 205.811096576 45.115860347368 Q 203.406467072 45.115860347368 200.9564672 43.651282607018 198.551837696 42.232472921053 197.054615552 38.616796624561 195.557393408 35.00112032807 195.557393408 29.325881584211 195.557393408 20.172270707018 199.14165248 13.535902821053 202.77128192 6.8995349350877 208.66942976 6.8995349350877 213.070355456 6.8995349350877 215.92868864 10.560979285965 218.787021824 14.222423636842 218.787021824 23.147194242105 218.787021824 34.314599512281 214.023133184 40.722127126316 210.801837056 45.115860347368 205.811096576 45.115860347368 Z "/>
<path id="p6" fill="rgb(0,0,0)" d="M 254.2666496 46.855046414035 L 271.688870912 46.855046414035 271.688870912 45.161628401754 Q 269.284241408 44.978556184211 268.512945152 44.292035368421 267.787019264 43.605514552632 267.787019264 42.324009029825 267.787019264 40.90519934386 268.55831552 38.891404950877 L 277.450907648 14.771640289474 286.388870144 34.406135621053 284.029611008 40.584822963158 Q 282.940722176 43.330906226316 281.171277824 44.383571477193 280.173129728 45.024324238596 277.450907648 45.161628401754 L 277.450907648 46.855046414035 297.232388096 46.855046414035 297.232388096 45.161628401754 Q 293.9657216 45.024324238596 292.60461056 43.971658987719 291.6972032 43.239370117544 291.6972032 41.637488214035 291.6972032 40.722127126316 292.060166144 39.760997984211 L 301.497202688 15.687001377193 310.253683712 38.891404950877 Q 311.161091072 41.362879887719 311.161091072 42.82745762807 311.161091072 43.697050661404 310.253683712 44.383571477193 309.39164672 45.070092292982 306.805535744 45.161628401754 L 306.805535744 46.855046414035 319.917572096 46.855046414035 319.917572096 45.161628401754 Q 315.97035008 44.566643694737 314.110164992 39.760997984211 L 300.226832384 3.6500030736842 298.366647296 3.6500030736842 287.976833024 30.424314889474 275.862944768 3.6500030736842 274.184241152 3.6500030736842 260.84535296 38.891404950877 Q 259.529612288 42.232472921053 258.259241984 43.376674280702 256.98887168 44.566643694737 254.2666496 45.161628401754 L 254.2666496 46.855046414035 Z "/>
<path id="p7" fill="rgb(0,0,0)" d="M 344.009237504 48.090783882456 Q 353.446274048 48.090783882456 359.162940416 40.859431289474 364.017569792 34.680743947368 364.017569792 26.671334429825 364.017569792 21.041863740351 361.34071808 15.275088887719 358.663866368 9.5083140350877 353.945348096 6.579158554386 349.272200192 3.6500030736842 343.510163456 3.6500030736842 334.11849728 3.6500030736842 328.583312384 11.201732047368 323.91016448 17.563491607018 323.91016448 25.481365015789 323.91016448 31.248139868421 326.723127296 36.923378612281 329.58146048 42.644385410526 334.209238016 45.344700619298 338.837015552 48.090783882456 344.009237504 48.090783882456 Z M 342.602756096 45.115860347368 Q 340.198126592 45.115860347368 337.74812672 43.651282607018 335.343497216 42.232472921053 333.846275072 38.616796624561 332.349052928 35.00112032807 332.349052928 29.325881584211 332.349052928 20.172270707018 335.933312 13.535902821053 339.56294144 6.8995349350877 345.46108928 6.8995349350877 349.862014976 6.8995349350877 352.72034816 10.560979285965 355.578681344 14.222423636842 355.578681344 23.147194242105 355.578681344 34.314599512281 350.814792704 40.722127126316 347.593496576 45.115860347368 342.602756096 45.115860347368 Z "/>
<path id="p8" fill="rgb(0,0,0)" d="M 382.301828096 48.090783882456 L 382.301828096 38.662564678947 Q 387.519420416 48.090783882456 393.009234944 48.090783882456 395.504605184 48.090783882456 397.137938432 46.534670033333 398.77127168 45.024324238596 398.77127168 43.010529845614 398.77127168 41.225575724561 397.591642112 39.98983825614 396.412012544 38.754100787719 394.778679296 38.754100787719 393.190716416 38.754100787719 391.194420224 40.310214636842 389.2434944 41.912096540351 388.290716672 41.912096540351 387.474050048 41.912096540351 386.52127232 40.996735452632 384.47960576 39.120245222807 382.301828096 34.818048110526 L 382.301828096 14.725872235088 Q 382.301828096 11.247500101754 383.163865088 9.4625459807018 383.753679872 8.2268085122807 385.250902016 7.4029835333333 386.74812416 6.579158554386 389.561086976 6.579158554386 L 389.561086976 4.9315085964912 368.282384384 4.9315085964912 368.282384384 6.579158554386 Q 371.458310144 6.579158554386 373.000902656 7.5860557508772 374.135161856 8.3183446210526 374.588865536 9.9202265245614 374.815717376 10.698283449123 374.815717376 14.3597278 L 374.815717376 30.607387107018 Q 374.815717376 37.930275808772 374.4981248 39.303317440351 374.225902592 40.722127126316 373.409235968 41.362879887719 372.637939712 42.003632649123 371.458310144 42.003632649123 370.051828736 42.003632649123 368.282384384 41.317111833333 L 367.828680704 42.964761791228 380.39627264 48.090783882456 382.301828096 48.090783882456 Z "/>
<path id="p9" fill="rgb(0,0,0)" d="M 415.376826368 70.013681933333 L 415.376826368 14.405495854386 Q 415.376826368 10.469443177193 415.921270784 9.187937654386 416.511085568 7.9064321315789 417.690715136 7.2199113157895 418.870344704 6.579158554386 422.091640832 6.579158554386 L 422.091640832 4.9315085964912 401.7203456 4.9315085964912 401.7203456 6.579158554386 Q 404.578678784 6.579158554386 405.622197248 7.1741432614035 406.665715712 7.7691279684211 407.255530496 9.1421696 407.84534528 10.515211231579 407.84534528 14.405495854386 L 407.84534528 52.484517103509 Q 407.84534528 59.578565533333 407.527752704 61.180447436842 407.210160128 62.828097394737 406.48423424 63.423082101754 405.80367872 64.018066808772 404.714789888 64.018066808772 403.53516032 64.018066808772 401.7203456 63.285777938596 L 400.949049344 64.887659842105 413.335159808 70.013681933333 415.376826368 70.013681933333 Z "/>
<path id="p10" fill="rgb(0,0,0)" d="M 456.255527936 9.6456181982456 Q 453.21571328 6.4418543912281 450.312009728 5.0230447052632 447.408306176 3.6500030736842 444.050898944 3.6500030736842 437.245343744 3.6500030736842 432.163862528 9.3710098719298 427.082381312 15.137784724561 427.082381312 24.154091438596 427.082381312 33.170398152632 432.708306944 40.630591017544 438.334232576 48.136551936842 447.181454336 48.136551936842 452.671268864 48.136551936842 456.255527936 44.612411749123 L 456.255527936 52.347212940351 Q 456.255527936 59.532797478947 455.892564992 61.180447436842 455.574972416 62.828097394737 454.849046528 63.423082101754 454.12312064 64.018066808772 453.034231808 64.018066808772 451.85460224 64.018066808772 449.903676416 63.285777938596 L 449.313861632 64.887659842105 461.699972096 70.013681933333 463.741638656 70.013681933333 463.741638656 21.545312338596 Q 463.741638656 14.176655582456 464.059231232 12.529005624561 464.422194176 10.927123721053 465.148120064 10.286370959649 465.91941632 9.6456181982456 466.917564416 9.6456181982456 468.142564352 9.6456181982456 470.184230912 10.423675122807 L 470.68330496 8.8217932192982 458.342564864 3.6500030736842 456.255527936 3.6500030736842 456.255527936 9.6456181982456 Z M 456.255527936 12.849382005263 L 456.255527936 34.451903675439 Q 455.983305728 37.564131373684 454.622194688 40.127142419298 453.261083648 42.690153464912 450.992565248 43.971658987719 448.769417216 45.298932564912 446.63700992 45.298932564912 442.644417536 45.298932564912 439.513862144 41.683256268421 435.385158656 36.923378612281 435.385158656 27.769767735088 435.385158656 18.524620749123 439.37775104 13.581670875439 443.370343424 8.6844890561404 448.270343168 8.6844890561404 452.399046656 8.6844890561404 456.255527936 12.849382005263 Z "/>
<path id="p11" fill="rgb(0,0,0)" d="M 486.7897856 21.362240121053 L 485.065711616 21.362240121053 481.073119232 58.434364173684 Q 480.800897024 60.86007105614 480.800897024 62.050040470175 480.800897024 64.933427896491 482.298119168 66.672613963158 483.84071168 68.411800029825 485.973118976 68.411800029825 488.105526272 68.411800029825 489.557378048 66.672613963158 491.054600192 64.933427896491 491.054600192 61.500823817544 491.054600192 60.402390512281 490.87311872 58.434364173684 L 486.7897856 21.362240121053 Z M 485.88237824 13.764743092982 Q 487.969415168 13.764743092982 489.421266944 12.254397298246 490.918489088 10.789819557895 490.918489088 8.7302571105263 490.918489088 6.6249266087719 489.421266944 5.1145808140351 487.969415168 3.6500030736842 485.88237824 3.6500030736842 483.795341312 3.6500030736842 482.298119168 5.1145808140351 480.846267392 6.6249266087719 480.846267392 8.7302571105263 480.846267392 10.789819557895 482.298119168 12.254397298246 483.795341312 13.764743092982 485.88237824 13.764743092982 Z "/>
<path id="p12" fill="none" stroke="rgb(255,255,255)" stroke-width="0.75" d="M 0 0 L 512 0 512 512 0 512 Z "/>
<path id="p13" fill="none" stroke="rgb(0,0,0)" stroke-width="0.5" d="M 0 0 L 512 0 512 512 0 512 Z "/>
<path id="p14" fill="none" stroke="rgb(255,255,255)" stroke-width="0.75" d="M 256 0 L 256 512 M 0 256 L 512 256 "/>
<path id="p15" fill="none" stroke="rgb(0,0,0)" stroke-width="0.5" d="M 256 0 L 256 512 M 0 256 L 512 256 "/>
<path id="p16" fill="none" stroke="rgb(255,255,255)" stroke-width="0.75" d="M 128 0 L 128 256 M 0 128 L 256 128 "/>
<path id="p17" fill="none" stroke="rgb(0,0,0)" stroke-width="0.5" d="M 128 0 L 128 256 M 0 128 L 256 128 "/>
<path id="p18" fill="none" stroke="rgb(255,255,255)" stroke-width="0.75" d="M 64 0 L 64 128 M 0 64 L 128 64 "/>
<path id="p19" fill="none" stroke="rgb(0,0,0)" stroke-width="0.5" d="M 64 0 L 64 128 M 0 64 L 128 64 "/>
<path id="p20" fill="none" stroke="rgb(255,255,255)" stroke-width="0.75" d="M 32 0 L 32 64 M 0 32 L 64 32 "/>
<path id="p21" fill="none" stroke="rgb(0,0,0)" stroke-width="0.5" d="M 32 0 L 32 64 M 0 32 L 64 32 "/>
<path id="p22" fill="none" stroke="rgb(255,255,255)" stroke-width="0.75" d="M 16 0 L 16 32 M 0 16 L 32 16 "/>
<path id="p23" fill="none" stroke="rgb(0,0,0)" stroke-width="0.5" d="M 16 0 L 16 32 M 0 16 L 32 16 "/>
<path id="p24" fill="none" stroke="rgb(255,255,255)" stroke-width="0.75" d="M 48 0 L 48 32 M 32 16 L 64 16 "/>
<path id="p25" fill="none" stroke="rgb(0,0,0)" stroke-width="0.5" d="M 48 0 L 48 32 M 32 16 L 64 16 "/>
<path id="p26" fill="none" stroke="rgb(255,255,255)" stroke-width="0.75" d="M 48 32 L 48 64 M 32 48 L 64 48 "/>
<path id="p27" fill="none" stroke="rgb(0,0,0)" stroke-width="0.5" d="M 48 32 L 48 64 M 32 48 L 64 48 "/>
<path id="p28" fill="none" stroke="rgb(255,255,255)" stroke-width="0.75" d="M 96 0 L 96 64 M 64 32 L 128 32 "/>
<path id="p29" fill="none" stroke="rgb(0,0,0)" stroke-width="0.5" d="M 96 0 L 96 64 M 64 32 L 128 32 "/>
<path id="p30" fill="none" stroke="rgb(255,255,255)" stroke-width="0.75" d="M 80 0 L 80 32 M 64 16 L 96 16 "/>
<path id="p31" fill="none" stroke="rgb(0,0,0)" stroke-width="0.5" d="M 80 0 L 80 32 M 64 16 L 96 16 "/>
<path id="p32" fill="none" stroke="rgb(255,255,255)" stroke-width="0.75" d="M 112 0 L 112 32 M 96 16 L 128 16 "/>
<path id="p33" fill="none" stroke="rgb(0,0,0)" stroke-width="0.5" d="M 112 0 L 112 32 M 96 16 L 128 16 "/>
<path id="p34" fill="none" stroke="rgb(255,255,255)" stroke-width="0.75" d="M 80 32 L 80 64 M 64 48 L 96 48 "/>
<path id="p35" fill="none" stroke="rgb(0,0,0)" stroke-width="0.5" d="M 80 32 L 80 64 M 64 48 L 96 48 "/>
<path id="p36" fill="none" stroke="rgb(255,255,255)" stroke-width="0.75" d="M 112 32 L 112 64 M 96 48 L 128 48 "/>
<path id="p37" fill="none" stroke="rgb(0,0,0)" stroke-width="0.5" d="M 112 32 L 112 64 M 96 48 L 128 48 "/>
<path id="p38" fill="none" stroke="rgb(255,255,255)" stroke-width="0.75" d="M 32 64 L 32 128 M 0 96 L 64 96 "/>
<path id="p39" fill="none" stroke="rgb(0,0,0)" stroke-width="0.5" d="M 32 64 L 32 128 M 0 96 L 64 96 "/>
<path id="p40" fill="none" stroke="rgb(255,255,255)" stroke-width="0.75" d="M 16 64 L 16 96 M 0 80 L 32 80 "/>
<path id="p41" fill="none" stroke="rgb(0,0,0)" stroke-width="0.5" d="M 16 64 L 16 96 M 0 80 L 32 80 "/>
<path id="p42" fill="none" stroke="rgb(255,255,255)" stroke-width="0.75" d="M 48 64 L 48 96 M 32 80 L 64 80 "/>
<path id="p43" fill="none" stroke="rgb(0,0,0)" stroke-width="0.5" d="M 48 64 L 48 96 M 32 80 L 64 80 "/>
<path id="p44" fill="none" stroke="rgb(255,255,255)" stroke-width="0.75" d="M 96 64 L 96 128 M 64 96 L 128 96 "/>
<path id="p45" fill="none" stroke="rgb(0,0,0)" stroke-width="0.5" d="M 96 64 L 96 128 M 64 96 L 128 96 "/>
<path id="p46" fill="none" stroke="rgb(255,255,255)" stroke-width="0.75" d="M 80 64 L 80 96 M 64 80 L 96 80 "/>
<path id="p47" fill="none" stroke="rgb(0,0,0)" stroke-width="0.5" d="M 80 64 L 80 96 M 64 80 L 96 80 "/>
<path id="p48" fill="none" stroke="rgb(255,255,255)" stroke-width="0.75" d="M 192 0 L 192 128 M 128 64 L 256 64 "/>
<path id="p49" fill="none" stroke="rgb(0,0,0)" stroke-width="0.5" d="M 192 0 L 192 128 M 128 64 L 256 64 "/>
<path id="p50" fill="none" stroke="rgb(255,255,255)" stroke-width="0.75" d="M 160 0 L 160 64 M 128 32 L 192 32 "/>
<path id="p51" fill="none" stroke="rgb(0,0,0)" stroke-width="0.5" d="M 160 0 L 160 64 M 128 32 L 192 32 "/>
<path id="p52" fill="none" stroke="rgb(255,255,255)" stroke-width="0.75" d="M 144 0 L 144 32 M 128 16 L 160 16 "/>
<path id="p53" fill="none" stroke="rgb(0,0,0)" stroke-width="0.5" d="M 144 0 L 144 32 M 128 16 L 160 16 "/>
<path id="p54" fill="none" stroke="rgb(255,255,255)" stroke-width="0.75" d="M 176 0 L 176 32 M 160 16 L 192 16 "/>
<path id="p55" fill="none" stroke="rgb(0,0,0)" stroke-width="0.5" d="M 176 0 L 176 32 M 160 16 L 192 16 "/>
<path id="p56" fill="none" stroke="rgb(255,255,255)" stroke-width="0.75" d="M 144 32 L 144 64 M 128 48 L 160 48 "/>
<path id="p57" fill="none" stroke="rgb(0,0,0)" stroke-width="0.5" d="M 144 32 L 144 64 M 128 48 L 160 48 "/>
<path id="p58" fill="none" stroke="rgb(255,255,255)" stroke-width="0.75" d="M 176 32 L 176 64 M 160 48 L 192 48 "/>
<path id="p59" fill="none" stroke="rgb(0,0,0)" stroke-width="0.5" d="M 176 32 L 176 64 M 160 48 L 192 48 "/>
<path id="p60" fill="none" stroke="rgb(255,255,255)" stroke-width="0.75" d="M 224 0 L 224 64 M 192 32 L 256 32 "/>
<path id="p61" fill="none" stroke="rgb(0,0,0)" stroke-width="0.5" d="M 224 0 L 224 64 M 192 32 L 256 32 "/>
<path id="p62" fill="none" stroke="rgb(255,255,255)" stroke-width="0.75" d="M 208 0 L 208 32 M 192 16 L 224 16 "/>
<path id="p63" fill="none" stroke="rgb(0,0,0)" stroke-width="0.5" d="M 208 0 L 208 32 M 192 16 L 224 16 "/>
<path id="p64" fill="none" stroke="rgb(255,255,255)" stroke-width="0.75" d="M 240 0 L 240 32 M 224 16 L 256 16 "/>
<path id="p65" fill="none" stroke="rgb(0,0,0)" stroke-width="0.5" d="M 240 0 L 240 32 M 224 16 L 256 16 "/>
<path id="p66" fill="none" stroke="rgb(255,255,255)" stroke-width="0.75" d="M 208 32 L 208 64 M 192 48 L 224 48 "/>
<path id="p67" fill="none" stroke="rgb(0,0,0)" stroke-width="0.5" d="M 208 32 L 208 64 M 192 48 L 224 48 "/>
<path id="p68" fill="none" stroke="rgb(255,255,255)" stroke-width="0.75" d="M 240 32 L 240 64 M 224 48 L 256 48 "/>
<path id="p69" fill="none" stroke="rgb(0,0,0)" stroke-width="0.5" d="M 240 32 L 240 64 M 224 48 L 256 48 "/>
<path id="p70" fill="none" stroke="rgb(255,255,255)" stroke-width="0.75" d="M 160 64 L 160 128 M 128 96 L 192 96 "/>
<path id="p71" fill="none" stroke="rgb(0,0,0)" stroke-width="0.5" d="M 160 64 L 160 128 M 128 96 L 192 96 "/>
<path id="p72" fill="none" stroke="rgb(255,255,255)" stroke-width="0.75" d="M 144 64 L 144 96 M 128 80 L 160 80 "/>
<path id="p73" fill="none" stroke="rgb(0,0,0)" stroke-width="0.5" d="M 144 64 L 144 96 M 128 80 L 160 80 "/>
<path id="p74" fill="none" stroke="rgb(255,255,255)" stroke-width="0.75" d="M 176 64 L 176 96 M 160 80 L 192 80 "/>
<path id="p75" fill="none" stroke="rgb(0,0,0)" stroke-width="0.5" d="M 176 64 L 176 96 M 160 80 L 192 80 "/>
<path id="p76" fill="none" stroke="rgb(255,255,255)" stroke-width="0.75" d="M 384 0 L 384 256 M 256 128 L 512 128 "/>
<path id="p77" fill="none" stroke="rgb(0,0,0)" stroke-width="0.5" d="M 384 0 L 384 256 M 256 128 L 512 128 "/>
<path id="p78" fill="none" stroke="rgb(255,255,255)" stroke-width="0.75" d="M 320 0 L 320 128 M 256 64 L 384 64 "/>
<path id="p79" fill="none" stroke="rgb(0,0,0)" stroke-width="0.5" d="M 320 0 L 320 128 M 256 64 L 384 64 "/>
<path id="p80" fill="none" stroke="rgb(255,255,255)" stroke-width="0.75" d="M 288 0 L 288 64 M 256 32 L 320 32 "/>
<path id="p81" fill="none" stroke="rgb(0,0,0)" stroke-width="0.5" d="M 288 0 L 288 64 M 256 32 L 320 32 "/>
<path id="p82" fill="none" stroke="rgb(255,255,255)" stroke-width="0.75" d="M 272 0 L 272 32 M 256 16 L 288 16 "/>
<path id="p83" fill="none" stroke="rgb(0,0,0)" stroke-width="0.5" d="M 272 0 L 272 32 M 256 16 L 288 16 "/>
<path id="p84" fill="none" stroke="rgb(255,255,255)" stroke-width="0.75" d="M 304 0 L 304 32 M 288 16 L 320 16 "/>
<path id="p85" fill="none" stroke="rgb(0,0,0)" stroke-width="0.5" d="M 304 0 L 304 32 M 288 16 L 320 16 "/>
<path id="p86" fill="none" stroke="rgb(255,255,255)" stroke-width="0.75" d="M 272 32 L 272 64 M 256 48 L 288 48 "/>
<path id="p87" fill="none" stroke="rgb(0,0,0)" stroke-width="0.5" d="M 272 32 L 272 64 M 256 48 L 288 48 "/>
<path id="p88" fill="none" stroke="rgb(255,255,255)" stroke-width="0.75" d="M 304 32 L 304 64 M 288 48 L 320 48 "/>
<path id="p89" fill="none" stroke="rgb(0,0,0)" stroke-width="0.5" d="M 304 32 L 304 64 M 288 48 L 320 48 "/>
<path id="p90" fill="none" stroke="rgb(255,255,255)" stroke-width="0.75" d="M 352 0 L 352 64 M 320 32 L 384 32 "/>
<path id="p91" fill="none" stroke="rgb(0,0,0)" stroke-width="0.5" d="M 352 0 L 352 64 M 320 32 L 384 32 "/>
<path id="p92" fill="none" stroke="rgb(255,255,255)" stroke-width="0.75" d="M 336 0 L 336 32 M 320 16 L 352 16 "/>
<path id="p93" fill="none" stroke="rgb(0,0,0)" stroke-width="0.5" d="M 336 0 L 336 32 M 320 16 L 352 16 "/>
<path id="p94" fill="none" stroke="rgb(255,255,255)" stroke-width="0.75" d="M 368 0 L 368 32 M 352 16 L 384 16 "/>
<path id="p95" fill="none" stroke="rgb(0,0,0)" stroke-width="0.5" d="M 368 0 L 368 32 M 352 16 L 384 16 "/>
<path id="p96" fill="none" stroke="rgb(255,255,255)" stroke-width="0.75" d="M 336 32 L 336 64 M 320 48 L 352 48 "/>
<path id="p97" fill="none" stroke="rgb(0,0,0)" stroke-width="0.5" d="M 336 32 L 336 64 M 320 48 L 352 48 "/>
<path id="p98" fill="none" stroke="rgb(255,255,255)" stroke-width="0.75" d="M 368 32 L 368 64 M 352 48 L 384 48 "/>
<path id="p99" fill="none" stroke="rgb(0,0,0)" stroke-width="0.5" d="M 368 32 L 368 64 M 352 48 L 384 48 "/>
<path id="p100" fill="none" stroke="rgb(255,255,255)" stroke-width="0.75" d="M 448 0 L 448 128 M 384 64 L 512 64 "/>
<path id="p101" fill="none" stroke="rgb(0,0,0)" stroke-width="0.5" d="M 448 0 L 448 128 M 384 64 L 512 64 "/>
<path id="p102" fill="none" stroke="rgb(255,255,255)" stroke-width="0.75" d="M 416 0 L 416 64 M 384 32 L 448 32 "/>
<path id="p103" fill="none" stroke="rgb(0,0,0)" stroke-width="0.5" d="M 416 0 L 416 64 M 384 32 L 448 32 "/>
<path id="p104" fill="none" stroke="rgb(255,255,255)" stroke-width="0.75" d="M 400 0 L 400 32 M 384 16 L 416 16 "/>
<path id="p105" fill="none" stroke="rgb(0,0,0)" stroke-width="0.5" d="M 400 0 L 400 32 M 384 16 L 416 16 "/>
<path id="p106" fill="none" stroke="rgb(255,255,255)" stroke-width="0.75" d="M 432 0 L 432 32 M 416 16 L 448 16 "/>
<path id="p107" fill="none" stroke="rgb(0,0,0)" stroke-width="0.5" d="M 432 0 L 432 32 M 416 16 L 448 16 "/>
<path id="p108" fill="none" stroke="rgb(255,255,255)" stroke-width="0.75" d="M 400 32 L 400 64 M 384 48 L 416 48 "/>
<path id="p109" fill="none" stroke="rgb(0,0,0)" stroke-width="0.5" d="M 400 32 L 400 64 M 384 48 L 416 48 "/>
<path id="p110" fill="none" stroke="rgb(255,255,255)" stroke-width="0.75" d="M 432 32 L 432 64 M 416 48 L 448 48 "/>
<path id="p111" fill="none" stroke="rgb(0,0,0)" stroke-width="0.5" d="M 432 32 L 432 64 M 416 48 L 448 48 "/>
<path id="p112" fill="none" stroke="rgb(255,255,255)" stroke-width="0.75" d="M 480 0 L 480 64 M 448 32 L 512 32 "/>
<path id="p113" fill="none" stroke="rgb(0,0,0)" stroke-width="0.5" d="M 480 0 L 480 64 M 448 32 L 512 32 "/>
<path id="p114" fill="none" stroke="rgb(255,255,255)" stroke-width="0.75" d="M 464 0 L 464 32 M 448 16 L 480 16 "/>
<path id="p115" fill="none" stroke="rgb(0,0,0)" stroke-width="0.5" d="M 464 0 L 464 32 M 448 16 L 480 16 "/>
<path id="p116" fill="none" stroke="rgb(255,255,255)" stroke-width="0.75" d="M 496 0 L 496 32 M 480 16 L 512 16 "/>
<path id="p117" fill="none" stroke="rgb(0,0,0)" stroke-width="0.5" d="M 496 0 L 496 32 M 480 16 L 512 16 "/>
<path id="p118" fill="none" stroke="rgb(255,255,255)" stroke-width="0.75" d="M 464 32 L 464 64 M 448 48 L 480 48 "/>
<path id="p119" fill="none" stroke="rgb(0,0,0)" stroke-width="0.5" d="M 464 32 L 464 64 M 448 48 L 480 48 "/>
<path id="p120" fill="none" stroke="rgb(255,255,255)" stroke-width="0.75" d="M 496 32 L 496 64 M 480 48 L 512 48 "/>
<path id="p121" fill="none" stroke="rgb(0,0,0)" stroke-width="0.5" d="M 496 32 L 496 64 M 480 48 L 512 48 "/>
<path id="p122" fill="none" stroke="rgb(255,255,255)" stroke-width="0.75" d="M 416 64 L 416 128 M 384 96 L 448 96 "/>
<path id="p123" fill="none" stroke="rgb(0,0,0)" stroke-width="0.5" d="M 416 64 L 416 128 M 384 96 L 448 96 "/>
<path id="p124" fill="none" stroke="rgb(255,255,255)" stroke-width="0.75" d="M 400 64 L 400 96 M 384 80 L 416 80 "/>
<path id="p125" fill="none" stroke="rgb(0,0,0)" stroke-width="0.5" d="M 400 64 L 400 96 M 384 80 L 416 80 "/>
<path id="p126" fill="none" stroke="rgb(255,255,255)" stroke-width="0.75" d="M 480 64 L 480 128 M 448 96 L 512 96 "/>
<path id="p127" fill="none" stroke="rgb(0,0,0)" stroke-width="0.5" d="M 480 64 L 480 128 M 448 96 L 512 96 "/>
<path id="p128" fill="none" stroke="rgb(255,255,255)" stroke-width="0.75" d="M 464 64 L 464 96 M 448 80 L 480 80 "/>
<path id="p129" fill="none" stroke="rgb(0,0,0)" stroke-width="0.5" d="M 464 64 L 464 96 M 448 80 L 480 80 "/>
<path id="p130" fill="none" stroke="rgb(255,255,255)" stroke-width="0.75" d="M 496 64 L 496 96 M 480 80 L 512 80 "/>
<path id="p131" fill="none" stroke="rgb(0,0,0)" stroke-width="0.5" d="M 496 64 L 496 96 M 480 80 L 512 80 "/>
</g>
</svg>
