<?xml version="1.0" standalone="no"?>
<svg
    xmlns:xlink="http://www.w3.org/1999/xlink"
    xmlns:dc="http://purl.org/dc/elements/1.1/"
    xmlns:cc="http://creativecommons.org/ns#"
    xmlns:rdf="http://www.w3.org/1999/02/22-rdf-syntax-ns#"
    xmlns:svg="http://www.w3.org/2000/svg"
    xmlns="http://www.w3.org/2000/svg"
    version="1.1"
    viewBox="0 0 512 72">
<defs>
</defs>
<g transform="translate(0, 72) scale(1, -1)">
<path id="p1" fill="rgb(0,0,0)" d="M 77.666254336 59.0608305 C 77.666254336 62.302047814286 77.84579328 63.292419771429 84.758042624 63.292419771429 L 86.912509952 63.292419771429 86.912509952 66.083468014286 C 83.770578432 65.813366571429 77.127637504 65.813366571429 73.716397568 65.813366571429 70.305157632 65.813366571429 63.572447232 65.813366571429 60.430515712 66.083468014286 L 60.430515712 63.292419771429 62.58498304 63.292419771429 C 69.497232384 63.292419771429 69.676771328 62.302047814286 69.676771328 59.0608305 69.676771328 59.0608305 69.676771328 59.0608305 69.676771328 59.0608305 L 69.676771328 37.992917957143 42.8356992 37.992917957143 42.8356992 59.0608305 C 42.8356992 62.302047814286 43.015238144 63.292419771429 49.927487488 63.292419771429 L 52.081954816 63.292419771429 52.081954816 66.083468014286 C 48.940023296 65.813366571429 42.297082368 65.813366571429 38.885842432 65.813366571429 35.474602496 65.813366571429 28.741892096 65.813366571429 25.599960576 66.083468014286 L 25.599960576 63.292419771429 27.754427904 63.292419771429 C 34.666677248 63.292419771429 34.846216192 62.302047814286 34.846216192 59.0608305 L 34.846216192 11.613010371429 C 34.846216192 8.3717930571429 34.666677248 7.3814211 27.754427904 7.3814211 L 25.599960576 7.3814211 25.599960576 4.5903728571429 C 28.741892096 4.8604743 35.384833024 4.8604743 38.79607296 4.8604743 42.207312896 4.8604743 48.940023296 4.8604743 52.081954816 4.5903728571429 L 52.081954816 7.3814211 49.927487488 7.3814211 C 43.015238144 7.3814211 42.8356992 8.3717930571429 42.8356992 11.613010371429 L 42.8356992 35.201869714286 69.676771328 35.201869714286 69.676771328 11.613010371429 C 69.676771328 8.3717930571429 69.497232384 7.3814211 62.58498304 7.3814211 L 60.430515712 7.3814211 60.430515712 4.5903728571429 C 63.572447232 4.8604743 70.21538816 4.8604743 73.626628096 4.8604743 77.037868032 4.8604743 83.770578432 4.8604743 86.912509952 4.5903728571429 L 86.912509952 7.3814211 84.758042624 7.3814211 C 77.84579328 7.3814211 77.666254336 8.3717930571429 77.666254336 11.613010371429 L 77.666254336 59.0608305 Z "/>
<path id="p2" fill="rgb(0,0,0)" d="M 100.018852864 27.278894057143 C 100.557469696 40.693932385714 108.098105344 42.944777742857 111.150267392 42.944777742857 120.396523008 42.944777742857 121.294217728 30.790212814286 121.294217728 27.278894057143 121.294217728 27.278894057143 121.294217728 27.278894057143 121.294217728 27.278894057143 L 100.018852864 27.278894057143 Z M 99.929083392 25.388183957143 L 124.97476608 25.388183957143 C 126.949694464 25.388183957143 127.21900288 25.388183957143 127.21900288 27.278894057143 127.21900288 27.278894057143 127.21900288 27.278894057143 127.21900288 27.278894057143 127.21900288 36.192241671429 122.371451392 44.925521657143 111.150267392 44.925521657143 100.73700864 44.925521657143 92.478217216 35.652038785714 92.478217216 24.397812 92.478217216 12.333280885714 101.904011776 3.6000009 112.227501056 3.6000009 123.17937664 3.6000009 127.21900288 13.593754285714 127.21900288 15.304396757143 127.21900288 15.304396757143 127.21900288 15.304396757143 127.21900288 15.304396757143 127.21900288 16.2047349 126.500847104 16.384802528571 126.051999744 16.384802528571 125.244074496 16.384802528571 125.064535552 15.844599642857 124.884996608 15.124329128571 121.743065088 5.8508462571429 113.663812608 5.8508462571429 112.766117888 5.8508462571429 108.277644288 5.8508462571429 104.686865408 8.5518606857143 102.622167552 11.883111814286 99.929083392 16.2047349 99.929083392 22.146966642857 99.929083392 25.388183957143 Z "/>
<path id="p3" fill="rgb(0,0,0)" d="M 145.711514112 67.073839971429 L 132.784710144 66.083468014286 132.784710144 63.292419771429 C 139.068573184 63.292419771429 139.78672896 62.662183071429 139.78672896 58.250526171429 L 139.78672896 11.432942742857 C 139.78672896 7.3814211 138.799264768 7.3814211 132.784710144 7.3814211 L 132.784710144 4.5903728571429 C 135.74710272 4.6804066714286 140.504884736 4.8604743 142.749121536 4.8604743 144.993358336 4.8604743 149.392062464 4.6804066714286 152.713532928 4.5903728571429 L 152.713532928 7.3814211 C 146.698978304 7.3814211 145.711514112 7.3814211 145.711514112 11.432942742857 L 145.711514112 67.073839971429 Z "/>
<path id="p4" fill="rgb(0,0,0)" d="M 170.577657856 67.073839971429 L 157.650853888 66.083468014286 157.650853888 63.292419771429 C 163.934716928 63.292419771429 164.652872704 62.662183071429 164.652872704 58.250526171429 L 164.652872704 11.432942742857 C 164.652872704 7.3814211 163.665408512 7.3814211 157.650853888 7.3814211 L 157.650853888 4.5903728571429 C 160.613246464 4.6804066714286 165.37102848 4.8604743 167.61526528 4.8604743 169.85950208 4.8604743 174.258206208 4.6804066714286 177.579676672 4.5903728571429 L 177.579676672 7.3814211 C 171.565122048 7.3814211 170.577657856 7.3814211 170.577657856 11.432942742857 L 170.577657856 67.073839971429 Z "/>
<path id="p5" fill="rgb(0,0,0)" d="M 221.836026368 23.857609114286 C 221.836026368 35.381937342857 212.859079168 44.925521657143 201.996973056 44.925521657143 190.775789056 44.925521657143 182.068150272 35.1118359 182.068150272 23.857609114286 182.068150272 12.243247071429 191.40417536 3.6000009 201.907203584 3.6000009 212.769309696 3.6000009 221.836026368 12.4233147 221.836026368 23.857609114286 Z M 201.996973056 5.8508462571429 C 198.13688576 5.8508462571429 194.187028992 7.7415563571429 191.763253248 11.883111814286 189.519016448 15.844599642857 189.519016448 21.336662314286 189.519016448 24.577879628571 189.519016448 28.089198385714 189.519016448 32.951024357143 191.673483776 36.912512185714 194.09725952 41.054067642857 198.316424704 42.944777742857 201.907203584 42.944777742857 205.857060352 42.944777742857 209.717147648 40.964033828571 212.05115392 37.092579814286 214.385160192 33.2211258 214.385160192 27.999164571429 214.385160192 24.577879628571 214.385160192 21.336662314286 214.385160192 16.474836342857 212.410231808 12.513348514286 210.435303424 8.4618268714286 206.485446656 5.8508462571429 201.996973056 5.8508462571429 Z "/>
<path id="p6" fill="rgb(0,0,0)" d="M 309.8998784 34.841734457143 C 311.515728896 39.343425171429 314.298582528 40.513864757143 317.440514048 40.603898571429 L 317.440514048 43.394946814286 C 315.465585664 43.214879185714 312.862270976 43.124845371429 310.887342592 43.124845371429 308.284027904 43.124845371429 304.244401664 43.304913 302.538781696 43.394946814286 L 302.538781696 40.603898571429 C 305.770482688 40.513864757143 307.745411072 38.8932561 307.745411072 36.282275485714 307.745411072 35.7420726 307.745411072 35.562004971429 307.296563712 34.391565385714 L 299.12754176 11.342908928571 290.240364032 36.462343114286 C 289.881286144 37.542748885714 289.791516672 37.722816514286 289.791516672 38.172985585714 289.791516672 40.603898571429 293.29252608 40.603898571429 295.08791552 40.603898571429 L 295.08791552 43.394946814286 C 292.484600832 43.304913 287.90635776 43.124845371429 285.751890432 43.124845371429 283.058806272 43.124845371429 280.455491584 43.214879185714 277.762407424 43.394946814286 L 277.762407424 40.603898571429 C 281.083877888 40.603898571429 282.52018944 40.423830942857 283.41788416 39.253391357143 283.86673152 38.713188471429 284.854195712 36.012174042857 285.482582016 34.301531571429 L 277.762407424 12.513348514286 269.234307584 36.552376928571 C 268.785460224 37.6327827 268.785460224 37.812850328571 268.785460224 38.172985585714 268.785460224 40.603898571429 272.286469632 40.603898571429 274.081859072 40.603898571429 L 274.081859072 43.394946814286 C 271.388774912 43.304913 266.36168448 43.124845371429 264.296986624 43.124845371429 263.937908736 43.124845371429 259.18012672 43.214879185714 255.948425728 43.394946814286 L 255.948425728 40.603898571429 C 260.436899328 40.603898571429 261.514132992 40.333797128571 262.591366656 37.452715071429 L 273.902320128 5.5807448142857 C 274.351167488 4.3202714142857 274.620475904 3.6000009 275.78747904 3.6000009 276.954482176 3.6000009 277.13402112 4.1402037857143 277.58286848 5.4006771857143 L 286.649585152 30.880246628571 295.806071296 5.3106433714286 C 296.165149184 4.3202714142857 296.4344576 3.6000009 297.601460736 3.6000009 298.768463872 3.6000009 299.037772288 4.4103052285714 299.396850176 5.3106433714286 L 309.8998784 34.841734457143 Z "/>
<path id="p7" fill="rgb(0,0,0)" d="M 361.427555328 23.857609114286 C 361.427555328 35.381937342857 352.450608128 44.925521657143 341.588502016 44.925521657143 330.367318016 44.925521657143 321.659679232 35.1118359 321.659679232 23.857609114286 321.659679232 12.243247071429 330.99570432 3.6000009 341.498732544 3.6000009 352.360838656 3.6000009 361.427555328 12.4233147 361.427555328 23.857609114286 Z M 341.588502016 5.8508462571429 C 337.72841472 5.8508462571429 333.778557952 7.7415563571429 331.354782208 11.883111814286 329.110545408 15.844599642857 329.110545408 21.336662314286 329.110545408 24.577879628571 329.110545408 28.089198385714 329.110545408 32.951024357143 331.265012736 36.912512185714 333.68878848 41.054067642857 337.907953664 42.944777742857 341.498732544 42.944777742857 345.448589312 42.944777742857 349.308676608 40.964033828571 351.64268288 37.092579814286 353.976689152 33.2211258 353.976689152 27.999164571429 353.976689152 24.577879628571 353.976689152 21.336662314286 353.976689152 16.474836342857 352.001760768 12.513348514286 350.026832384 8.4618268714286 346.076975616 5.8508462571429 341.588502016 5.8508462571429 Z "/>
<path id="p8" fill="rgb(0,0,0)" d="M 379.02237184 34.4815992 L 379.02237184 44.385318771429 366.544415232 43.394946814286 366.544415232 40.603898571429 C 372.828278272 40.603898571429 373.546434048 39.973661871429 373.546434048 35.562004971429 L 373.546434048 11.432942742857 C 373.546434048 7.3814211 372.558969856 7.3814211 366.544415232 7.3814211 L 366.544415232 4.5903728571429 C 370.04542464 4.6804066714286 374.264589824 4.8604743 376.77813504 4.8604743 380.36891392 4.8604743 384.588079104 4.8604743 388.178857984 4.5903728571429 L 388.178857984 7.3814211 386.293699072 7.3814211 C 379.650758144 7.3814211 379.4712192 8.3717930571429 379.4712192 11.613010371429 L 379.4712192 25.478217771429 C 379.4712192 34.391565385714 383.241537024 42.404574857143 390.064016896 42.404574857143 390.6924032 42.404574857143 390.871942144 42.404574857143 391.051481088 42.314541042857 390.782172672 42.224507228571 388.986783232 41.144101457143 388.986783232 38.803222285714 388.986783232 36.282275485714 390.871942144 34.931768271429 392.846870528 34.931768271429 394.462721024 34.931768271429 396.706957824 36.012174042857 396.706957824 38.8932561 396.706957824 41.774338157143 393.924104192 44.385318771429 390.064016896 44.385318771429 383.51084544 44.385318771429 380.279144448 38.353053214286 379.02237184 34.4815992 Z "/>
<path id="p9" fill="rgb(0,0,0)" d="M 415.019930112 67.073839971429 L 402.093126144 66.083468014286 402.093126144 63.292419771429 C 408.376989184 63.292419771429 409.09514496 62.662183071429 409.09514496 58.250526171429 L 409.09514496 11.432942742857 C 409.09514496 7.3814211 408.107680768 7.3814211 402.093126144 7.3814211 L 402.093126144 4.5903728571429 C 405.05551872 4.6804066714286 409.813300736 4.8604743 412.057537536 4.8604743 414.301774336 4.8604743 418.700478464 4.6804066714286 422.021948928 4.5903728571429 L 422.021948928 7.3814211 C 416.007394304 7.3814211 415.019930112 7.3814211 415.019930112 11.432942742857 L 415.019930112 67.073839971429 Z "/>
<path id="p10" fill="rgb(0,0,0)" d="M 458.109276672 9.5422326428571 L 458.109276672 3.6000009 471.305389056 4.5903728571429 471.305389056 7.3814211 C 465.021526016 7.3814211 464.30337024 8.0116578 464.30337024 12.4233147 L 464.30337024 67.073839971429 451.376566272 66.083468014286 451.376566272 63.292419771429 C 457.660429312 63.292419771429 458.378585088 62.662183071429 458.378585088 58.250526171429 L 458.378585088 38.803222285714 C 455.7752704 42.0444396 451.915183104 44.385318771429 447.067631616 44.385318771429 436.47483392 44.385318771429 427.04903936 35.562004971429 427.04903936 23.947642928571 427.04903936 12.513348514286 435.846447616 3.6000009 446.080167424 3.6000009 451.825413632 3.6000009 455.865039872 6.6611505857143 458.109276672 9.5422326428571 Z M 458.109276672 33.671294871429 L 458.109276672 15.214362942857 C 458.109276672 13.593754285714 458.109276672 13.413686657143 457.12181248 11.883111814286 454.42872832 7.5614887285714 450.38910208 5.5807448142857 446.529014784 5.5807448142857 442.489388544 5.5807448142857 439.257687552 7.9216239857143 437.103220224 11.342908928571 434.769213952 15.034295314286 434.499905536 20.166222728571 434.499905536 23.857609114286 434.499905536 27.188860242857 434.67944448 32.5908891 437.282759168 36.642410742857 439.16791808 39.433458985714 442.579158016 42.404574857143 447.426709504 42.404574857143 450.568641024 42.404574857143 454.338958848 41.054067642857 457.12181248 37.002546 458.109276672 35.471971157143 458.109276672 35.291903528571 458.109276672 33.671294871429 Z "/>
<path id="p11" fill="rgb(0,0,0)" d="M 487.553663488 23.407440042857 L 491.054672896 64.462859357143 C 491.054672896 67.433975228571 488.630897152 69.054583885714 486.29689088 69.054583885714 483.962884608 69.054583885714 481.539108864 67.433975228571 481.539108864 64.462859357143 L 485.040118272 23.497473857143 C 485.129887744 22.146966642857 485.219657216 21.426696128571 486.29689088 21.426696128571 487.1945856 21.426696128571 487.463894016 21.8768652 487.553663488 23.407440042857 Z M 491.054672896 9.3621650142857 C 491.054672896 11.973145628571 488.900205568 14.133957171429 486.29689088 14.133957171429 483.693576192 14.133957171429 481.539108864 11.973145628571 481.539108864 9.3621650142857 481.539108864 6.7511844 483.693576192 4.5903728571429 486.29689088 4.5903728571429 488.900205568 4.5903728571429 491.054672896 6.7511844 491.054672896 9.3621650142857 Z "/>
<path id="p12" fill="none" stroke="rgb(255,255,255)" stroke-width="0.75" d="M 0 0 L 512 0 512 512 0 512 Z "/>
<path id="p13" fill="none" stroke="rgb(0,0,0)" stroke-width="0.5" d="M 0 0 L 512 0 512 512 0 512 Z "/>
<path id="p14" fill="none" stroke="rgb(255,255,255)" stroke-width="0.75" d="M 256 0 L 256 512 M 0 256 L 512 256 "/>
<path id="p15" fill="none" stroke="rgb(0,0,0)" stroke-width="0.5" d="M 256 0 L 256 512 M 0 256 L 512 256 "/>
<path id="p16" fill="none" stroke="rgb(255,255,255)" stroke-width="0.75" d="M 128 0 L 128 256 M 0 128 L 256 128 "/>
<path id="p17" fill="none" stroke="rgb(0,0,0)" stroke-width="0.5" d="M 128 0 L 128 256 M 0 128 L 256 128 "/>
<path id="p18" fill="none" stroke="rgb(255,255,255)" stroke-width="0.75" d="M 64 0 L 64 128 M 0 64 L 128 64 "/>
<path id="p19" fill="none" stroke="rgb(0,0,0)" stroke-width="0.5" d="M 64 0 L 64 128 M 0 64 L 128 64 "/>
<path id="p20" fill="none" stroke="rgb(255,255,255)" stroke-width="0.75" d="M 32 0 L 32 64 M 0 32 L 64 32 "/>
<path id="p21" fill="none" stroke="rgb(0,0,0)" stroke-width="0.5" d="M 32 0 L 32 64 M 0 32 L 64 32 "/>
<path id="p22" fill="none" stroke="rgb(255,255,255)" stroke-width="0.75" d="M 16 0 L 16 32 M 0 16 L 32 16 "/>
<path id="p23" fill="none" stroke="rgb(0,0,0)" stroke-width="0.5" d="M 16 0 L 16 32 M 0 16 L 32 16 "/>
<path id="p24" fill="none" stroke="rgb(255,255,255)" stroke-width="0.75" d="M 24 0 L 24 16 M 16 8 L 32 8 "/>
<path id="p25" fill="none" stroke="rgb(0,0,0)" stroke-width="0.5" d="M 24 0 L 24 16 M 16 8 L 32 8 "/>
<path id="p26" fill="none" stroke="rgb(255,255,255)" stroke-width="0.75" d="M 48 0 L 48 32 M 32 16 L 64 16 "/>
<path id="p27" fill="none" stroke="rgb(0,0,0)" stroke-width="0.5" d="M 48 0 L 48 32 M 32 16 L 64 16 "/>
<path id="p28" fill="none" stroke="rgb(255,255,255)" stroke-width="0.75" d="M 40 0 L 40 16 M 32 8 L 48 8 "/>
<path id="p29" fill="none" stroke="rgb(0,0,0)" stroke-width="0.5" d="M 40 0 L 40 16 M 32 8 L 48 8 "/>
<path id="p30" fill="none" stroke="rgb(255,255,255)" stroke-width="0.75" d="M 56 0 L 56 16 M 48 8 L 64 8 "/>
<path id="p31" fill="none" stroke="rgb(0,0,0)" stroke-width="0.5" d="M 56 0 L 56 16 M 48 8 L 64 8 "/>
<path id="p32" fill="none" stroke="rgb(255,255,255)" stroke-width="0.75" d="M 40 16 L 40 32 M 32 24 L 48 24 "/>
<path id="p33" fill="none" stroke="rgb(0,0,0)" stroke-width="0.5" d="M 40 16 L 40 32 M 32 24 L 48 24 "/>
<path id="p34" fill="none" stroke="rgb(255,255,255)" stroke-width="0.75" d="M 16 32 L 16 64 M 0 48 L 32 48 "/>
<path id="p35" fill="none" stroke="rgb(0,0,0)" stroke-width="0.5" d="M 16 32 L 16 64 M 0 48 L 32 48 "/>
<path id="p36" fill="none" stroke="rgb(255,255,255)" stroke-width="0.75" d="M 24 48 L 24 64 M 16 56 L 32 56 "/>
<path id="p37" fill="none" stroke="rgb(0,0,0)" stroke-width="0.5" d="M 24 48 L 24 64 M 16 56 L 32 56 "/>
<path id="p38" fill="none" stroke="rgb(255,255,255)" stroke-width="0.75" d="M 48 32 L 48 64 M 32 48 L 64 48 "/>
<path id="p39" fill="none" stroke="rgb(0,0,0)" stroke-width="0.5" d="M 48 32 L 48 64 M 32 48 L 64 48 "/>
<path id="p40" fill="none" stroke="rgb(255,255,255)" stroke-width="0.75" d="M 40 32 L 40 48 M 32 40 L 48 40 "/>
<path id="p41" fill="none" stroke="rgb(0,0,0)" stroke-width="0.5" d="M 40 32 L 40 48 M 32 40 L 48 40 "/>
<path id="p42" fill="none" stroke="rgb(255,255,255)" stroke-width="0.75" d="M 56 32 L 56 48 M 48 40 L 64 40 "/>
<path id="p43" fill="none" stroke="rgb(0,0,0)" stroke-width="0.5" d="M 56 32 L 56 48 M 48 40 L 64 40 "/>
<path id="p44" fill="none" stroke="rgb(255,255,255)" stroke-width="0.75" d="M 40 48 L 40 64 M 32 56 L 48 56 "/>
<path id="p45" fill="none" stroke="rgb(0,0,0)" stroke-width="0.5" d="M 40 48 L 40 64 M 32 56 L 48 56 "/>
<path id="p46" fill="none" stroke="rgb(255,255,255)" stroke-width="0.75" d="M 56 48 L 56 64 M 48 56 L 64 56 "/>
<path id="p47" fill="none" stroke="rgb(0,0,0)" stroke-width="0.5" d="M 56 48 L 56 64 M 48 56 L 64 56 "/>
<path id="p48" fill="none" stroke="rgb(255,255,255)" stroke-width="0.75" d="M 96 0 L 96 64 M 64 32 L 128 32 "/>
<path id="p49" fill="none" stroke="rgb(0,0,0)" stroke-width="0.5" d="M 96 0 L 96 64 M 64 32 L 128 32 "/>
<path id="p50" fill="none" stroke="rgb(255,255,255)" stroke-width="0.75" d="M 80 0 L 80 32 M 64 16 L 96 16 "/>
<path id="p51" fill="none" stroke="rgb(0,0,0)" stroke-width="0.5" d="M 80 0 L 80 32 M 64 16 L 96 16 "/>
<path id="p52" fill="none" stroke="rgb(255,255,255)" stroke-width="0.75" d="M 72 0 L 72 16 M 64 8 L 80 8 "/>
<path id="p53" fill="none" stroke="rgb(0,0,0)" stroke-width="0.5" d="M 72 0 L 72 16 M 64 8 L 80 8 "/>
<path id="p54" fill="none" stroke="rgb(255,255,255)" stroke-width="0.75" d="M 88 0 L 88 16 M 80 8 L 96 8 "/>
<path id="p55" fill="none" stroke="rgb(0,0,0)" stroke-width="0.5" d="M 88 0 L 88 16 M 80 8 L 96 8 "/>
<path id="p56" fill="none" stroke="rgb(255,255,255)" stroke-width="0.75" d="M 88 16 L 88 32 M 80 24 L 96 24 "/>
<path id="p57" fill="none" stroke="rgb(0,0,0)" stroke-width="0.5" d="M 88 16 L 88 32 M 80 24 L 96 24 "/>
<path id="p58" fill="none" stroke="rgb(255,255,255)" stroke-width="0.75" d="M 112 0 L 112 32 M 96 16 L 128 16 "/>
<path id="p59" fill="none" stroke="rgb(0,0,0)" stroke-width="0.5" d="M 112 0 L 112 32 M 96 16 L 128 16 "/>
<path id="p60" fill="none" stroke="rgb(255,255,255)" stroke-width="0.75" d="M 104 0 L 104 16 M 96 8 L 112 8 "/>
<path id="p61" fill="none" stroke="rgb(0,0,0)" stroke-width="0.5" d="M 104 0 L 104 16 M 96 8 L 112 8 "/>
<path id="p62" fill="none" stroke="rgb(255,255,255)" stroke-width="0.75" d="M 120 0 L 120 16 M 112 8 L 128 8 "/>
<path id="p63" fill="none" stroke="rgb(0,0,0)" stroke-width="0.5" d="M 120 0 L 120 16 M 112 8 L 128 8 "/>
<path id="p64" fill="none" stroke="rgb(255,255,255)" stroke-width="0.75" d="M 104 16 L 104 32 M 96 24 L 112 24 "/>
<path id="p65" fill="none" stroke="rgb(0,0,0)" stroke-width="0.5" d="M 104 16 L 104 32 M 96 24 L 112 24 "/>
<path id="p66" fill="none" stroke="rgb(255,255,255)" stroke-width="0.75" d="M 120 16 L 120 32 M 112 24 L 128 24 "/>
<path id="p67" fill="none" stroke="rgb(0,0,0)" stroke-width="0.5" d="M 120 16 L 120 32 M 112 24 L 128 24 "/>
<path id="p68" fill="none" stroke="rgb(255,255,255)" stroke-width="0.75" d="M 80 32 L 80 64 M 64 48 L 96 48 "/>
<path id="p69" fill="none" stroke="rgb(0,0,0)" stroke-width="0.5" d="M 80 32 L 80 64 M 64 48 L 96 48 "/>
<path id="p70" fill="none" stroke="rgb(255,255,255)" stroke-width="0.75" d="M 72 32 L 72 48 M 64 40 L 80 40 "/>
<path id="p71" fill="none" stroke="rgb(0,0,0)" stroke-width="0.5" d="M 72 32 L 72 48 M 64 40 L 80 40 "/>
<path id="p72" fill="none" stroke="rgb(255,255,255)" stroke-width="0.75" d="M 88 32 L 88 48 M 80 40 L 96 40 "/>
<path id="p73" fill="none" stroke="rgb(0,0,0)" stroke-width="0.5" d="M 88 32 L 88 48 M 80 40 L 96 40 "/>
<path id="p74" fill="none" stroke="rgb(255,255,255)" stroke-width="0.75" d="M 72 48 L 72 64 M 64 56 L 80 56 "/>
<path id="p75" fill="none" stroke="rgb(0,0,0)" stroke-width="0.5" d="M 72 48 L 72 64 M 64 56 L 80 56 "/>
<path id="p76" fill="none" stroke="rgb(255,255,255)" stroke-width="0.75" d="M 88 48 L 88 64 M 80 56 L 96 56 "/>
<path id="p77" fill="none" stroke="rgb(0,0,0)" stroke-width="0.5" d="M 88 48 L 88 64 M 80 56 L 96 56 "/>
<path id="p78" fill="none" stroke="rgb(255,255,255)" stroke-width="0.75" d="M 112 32 L 112 64 M 96 48 L 128 48 "/>
<path id="p79" fill="none" stroke="rgb(0,0,0)" stroke-width="0.5" d="M 112 32 L 112 64 M 96 48 L 128 48 "/>
<path id="p80" fill="none" stroke="rgb(255,255,255)" stroke-width="0.75" d="M 104 32 L 104 48 M 96 40 L 112 40 "/>
<path id="p81" fill="none" stroke="rgb(0,0,0)" stroke-width="0.5" d="M 104 32 L 104 48 M 96 40 L 112 40 "/>
<path id="p82" fill="none" stroke="rgb(255,255,255)" stroke-width="0.75" d="M 120 32 L 120 48 M 112 40 L 128 40 "/>
<path id="p83" fill="none" stroke="rgb(0,0,0)" stroke-width="0.5" d="M 120 32 L 120 48 M 112 40 L 128 40 "/>
<path id="p84" fill="none" stroke="rgb(255,255,255)" stroke-width="0.75" d="M 32 64 L 32 128 M 0 96 L 64 96 "/>
<path id="p85" fill="none" stroke="rgb(0,0,0)" stroke-width="0.5" d="M 32 64 L 32 128 M 0 96 L 64 96 "/>
<path id="p86" fill="none" stroke="rgb(255,255,255)" stroke-width="0.75" d="M 16 64 L 16 96 M 0 80 L 32 80 "/>
<path id="p87" fill="none" stroke="rgb(0,0,0)" stroke-width="0.5" d="M 16 64 L 16 96 M 0 80 L 32 80 "/>
<path id="p88" fill="none" stroke="rgb(255,255,255)" stroke-width="0.75" d="M 24 64 L 24 80 M 16 72 L 32 72 "/>
<path id="p89" fill="none" stroke="rgb(0,0,0)" stroke-width="0.5" d="M 24 64 L 24 80 M 16 72 L 32 72 "/>
<path id="p90" fill="none" stroke="rgb(255,255,255)" stroke-width="0.75" d="M 48 64 L 48 96 M 32 80 L 64 80 "/>
<path id="p91" fill="none" stroke="rgb(0,0,0)" stroke-width="0.5" d="M 48 64 L 48 96 M 32 80 L 64 80 "/>
<path id="p92" fill="none" stroke="rgb(255,255,255)" stroke-width="0.75" d="M 40 64 L 40 80 M 32 72 L 48 72 "/>
<path id="p93" fill="none" stroke="rgb(0,0,0)" stroke-width="0.5" d="M 40 64 L 40 80 M 32 72 L 48 72 "/>
<path id="p94" fill="none" stroke="rgb(255,255,255)" stroke-width="0.75" d="M 56 64 L 56 80 M 48 72 L 64 72 "/>
<path id="p95" fill="none" stroke="rgb(0,0,0)" stroke-width="0.5" d="M 56 64 L 56 80 M 48 72 L 64 72 "/>
<path id="p96" fill="none" stroke="rgb(255,255,255)" stroke-width="0.75" d="M 96 64 L 96 128 M 64 96 L 128 96 "/>
<path id="p97" fill="none" stroke="rgb(0,0,0)" stroke-width="0.5" d="M 96 64 L 96 128 M 64 96 L 128 96 "/>
<path id="p98" fill="none" stroke="rgb(255,255,255)" stroke-width="0.75" d="M 80 64 L 80 96 M 64 80 L 96 80 "/>
<path id="p99" fill="none" stroke="rgb(0,0,0)" stroke-width="0.5" d="M 80 64 L 80 96 M 64 80 L 96 80 "/>
<path id="p100" fill="none" stroke="rgb(255,255,255)" stroke-width="0.75" d="M 72 64 L 72 80 M 64 72 L 80 72 "/>
<path id="p101" fill="none" stroke="rgb(0,0,0)" stroke-width="0.5" d="M 72 64 L 72 80 M 64 72 L 80 72 "/>
<path id="p102" fill="none" stroke="rgb(255,255,255)" stroke-width="0.75" d="M 88 64 L 88 80 M 80 72 L 96 72 "/>
<path id="p103" fill="none" stroke="rgb(0,0,0)" stroke-width="0.5" d="M 88 64 L 88 80 M 80 72 L 96 72 "/>
<path id="p104" fill="none" stroke="rgb(255,255,255)" stroke-width="0.75" d="M 192 0 L 192 128 M 128 64 L 256 64 "/>
<path id="p105" fill="none" stroke="rgb(0,0,0)" stroke-width="0.5" d="M 192 0 L 192 128 M 128 64 L 256 64 "/>
<path id="p106" fill="none" stroke="rgb(255,255,255)" stroke-width="0.75" d="M 160 0 L 160 64 M 128 32 L 192 32 "/>
<path id="p107" fill="none" stroke="rgb(0,0,0)" stroke-width="0.5" d="M 160 0 L 160 64 M 128 32 L 192 32 "/>
<path id="p108" fill="none" stroke="rgb(255,255,255)" stroke-width="0.75" d="M 144 0 L 144 32 M 128 16 L 160 16 "/>
<path id="p109" fill="none" stroke="rgb(0,0,0)" stroke-width="0.5" d="M 144 0 L 144 32 M 128 16 L 160 16 "/>
<path id="p110" fill="none" stroke="rgb(255,255,255)" stroke-width="0.75" d="M 136 0 L 136 16 M 128 8 L 144 8 "/>
<path id="p111" fill="none" stroke="rgb(0,0,0)" stroke-width="0.5" d="M 136 0 L 136 16 M 128 8 L 144 8 "/>
<path id="p112" fill="none" stroke="rgb(255,255,255)" stroke-width="0.75" d="M 152 0 L 152 16 M 144 8 L 160 8 "/>
<path id="p113" fill="none" stroke="rgb(0,0,0)" stroke-width="0.5" d="M 152 0 L 152 16 M 144 8 L 160 8 "/>
<path id="p114" fill="none" stroke="rgb(255,255,255)" stroke-width="0.75" d="M 176 0 L 176 32 M 160 16 L 192 16 "/>
<path id="p115" fill="none" stroke="rgb(0,0,0)" stroke-width="0.5" d="M 176 0 L 176 32 M 160 16 L 192 16 "/>
<path id="p116" fill="none" stroke="rgb(255,255,255)" stroke-width="0.75" d="M 168 0 L 168 16 M 160 8 L 176 8 "/>
<path id="p117" fill="none" stroke="rgb(0,0,0)" stroke-width="0.5" d="M 168 0 L 168 16 M 160 8 L 176 8 "/>
<path id="p118" fill="none" stroke="rgb(255,255,255)" stroke-width="0.75" d="M 184 0 L 184 16 M 176 8 L 192 8 "/>
<path id="p119" fill="none" stroke="rgb(0,0,0)" stroke-width="0.5" d="M 184 0 L 184 16 M 176 8 L 192 8 "/>
<path id="p120" fill="none" stroke="rgb(255,255,255)" stroke-width="0.75" d="M 184 16 L 184 32 M 176 24 L 192 24 "/>
<path id="p121" fill="none" stroke="rgb(0,0,0)" stroke-width="0.5" d="M 184 16 L 184 32 M 176 24 L 192 24 "/>
<path id="p122" fill="none" stroke="rgb(255,255,255)" stroke-width="0.75" d="M 144 32 L 144 64 M 128 48 L 160 48 "/>
<path id="p123" fill="none" stroke="rgb(0,0,0)" stroke-width="0.5" d="M 144 32 L 144 64 M 128 48 L 160 48 "/>
<path id="p124" fill="none" stroke="rgb(255,255,255)" stroke-width="0.75" d="M 136 48 L 136 64 M 128 56 L 144 56 "/>
<path id="p125" fill="none" stroke="rgb(0,0,0)" stroke-width="0.5" d="M 136 48 L 136 64 M 128 56 L 144 56 "/>
<path id="p126" fill="none" stroke="rgb(255,255,255)" stroke-width="0.75" d="M 152 48 L 152 64 M 144 56 L 160 56 "/>
<path id="p127" fill="none" stroke="rgb(0,0,0)" stroke-width="0.5" d="M 152 48 L 152 64 M 144 56 L 160 56 "/>
<path id="p128" fill="none" stroke="rgb(255,255,255)" stroke-width="0.75" d="M 176 32 L 176 64 M 160 48 L 192 48 "/>
<path id="p129" fill="none" stroke="rgb(0,0,0)" stroke-width="0.5" d="M 176 32 L 176 64 M 160 48 L 192 48 "/>
<path id="p130" fill="none" stroke="rgb(255,255,255)" stroke-width="0.75" d="M 184 32 L 184 48 M 176 40 L 192 40 "/>
<path id="p131" fill="none" stroke="rgb(0,0,0)" stroke-width="0.5" d="M 184 32 L 184 48 M 176 40 L 192 40 "/>
<path id="p132" fill="none" stroke="rgb(255,255,255)" stroke-width="0.75" d="M 168 48 L 168 64 M 160 56 L 176 56 "/>
<path id="p133" fill="none" stroke="rgb(0,0,0)" stroke-width="0.5" d="M 168 48 L 168 64 M 160 56 L 176 56 "/>
<path id="p134" fill="none" stroke="rgb(255,255,255)" stroke-width="0.75" d="M 224 0 L 224 64 M 192 32 L 256 32 "/>
<path id="p135" fill="none" stroke="rgb(0,0,0)" stroke-width="0.5" d="M 224 0 L 224 64 M 192 32 L 256 32 "/>
<path id="p136" fill="none" stroke="rgb(255,255,255)" stroke-width="0.75" d="M 208 0 L 208 32 M 192 16 L 224 16 "/>
<path id="p137" fill="none" stroke="rgb(0,0,0)" stroke-width="0.5" d="M 208 0 L 208 32 M 192 16 L 224 16 "/>
<path id="p138" fill="none" stroke="rgb(255,255,255)" stroke-width="0.75" d="M 200 0 L 200 16 M 192 8 L 208 8 "/>
<path id="p139" fill="none" stroke="rgb(0,0,0)" stroke-width="0.5" d="M 200 0 L 200 16 M 192 8 L 208 8 "/>
<path id="p140" fill="none" stroke="rgb(255,255,255)" stroke-width="0.75" d="M 216 0 L 216 16 M 208 8 L 224 8 "/>
<path id="p141" fill="none" stroke="rgb(0,0,0)" stroke-width="0.5" d="M 216 0 L 216 16 M 208 8 L 224 8 "/>
<path id="p142" fill="none" stroke="rgb(255,255,255)" stroke-width="0.75" d="M 216 16 L 216 32 M 208 24 L 224 24 "/>
<path id="p143" fill="none" stroke="rgb(0,0,0)" stroke-width="0.5" d="M 216 16 L 216 32 M 208 24 L 224 24 "/>
<path id="p144" fill="none" stroke="rgb(255,255,255)" stroke-width="0.75" d="M 208 32 L 208 64 M 192 48 L 224 48 "/>
<path id="p145" fill="none" stroke="rgb(0,0,0)" stroke-width="0.5" d="M 208 32 L 208 64 M 192 48 L 224 48 "/>
<path id="p146" fill="none" stroke="rgb(255,255,255)" stroke-width="0.75" d="M 200 32 L 200 48 M 192 40 L 208 40 "/>
<path id="p147" fill="none" stroke="rgb(0,0,0)" stroke-width="0.5" d="M 200 32 L 200 48 M 192 40 L 208 40 "/>
<path id="p148" fill="none" stroke="rgb(255,255,255)" stroke-width="0.75" d="M 216 32 L 216 48 M 208 40 L 224 40 "/>
<path id="p149" fill="none" stroke="rgb(0,0,0)" stroke-width="0.5" d="M 216 32 L 216 48 M 208 40 L 224 40 "/>
<path id="p150" fill="none" stroke="rgb(255,255,255)" stroke-width="0.75" d="M 240 32 L 240 64 M 224 48 L 256 48 "/>
<path id="p151" fill="none" stroke="rgb(0,0,0)" stroke-width="0.5" d="M 240 32 L 240 64 M 224 48 L 256 48 "/>
<path id="p152" fill="none" stroke="rgb(255,255,255)" stroke-width="0.75" d="M 248 32 L 248 48 M 240 40 L 256 40 "/>
<path id="p153" fill="none" stroke="rgb(0,0,0)" stroke-width="0.5" d="M 248 32 L 248 48 M 240 40 L 256 40 "/>
<path id="p154" fill="none" stroke="rgb(255,255,255)" stroke-width="0.75" d="M 160 64 L 160 128 M 128 96 L 192 96 "/>
<path id="p155" fill="none" stroke="rgb(0,0,0)" stroke-width="0.5" d="M 160 64 L 160 128 M 128 96 L 192 96 "/>
<path id="p156" fill="none" stroke="rgb(255,255,255)" stroke-width="0.75" d="M 144 64 L 144 96 M 128 80 L 160 80 "/>
<path id="p157" fill="none" stroke="rgb(0,0,0)" stroke-width="0.5" d="M 144 64 L 144 96 M 128 80 L 160 80 "/>
<path id="p158" fill="none" stroke="rgb(255,255,255)" stroke-width="0.75" d="M 136 64 L 136 80 M 128 72 L 144 72 "/>
<path id="p159" fill="none" stroke="rgb(0,0,0)" stroke-width="0.5" d="M 136 64 L 136 80 M 128 72 L 144 72 "/>
<path id="p160" fill="none" stroke="rgb(255,255,255)" stroke-width="0.75" d="M 152 64 L 152 80 M 144 72 L 160 72 "/>
<path id="p161" fill="none" stroke="rgb(0,0,0)" stroke-width="0.5" d="M 152 64 L 152 80 M 144 72 L 160 72 "/>
<path id="p162" fill="none" stroke="rgb(255,255,255)" stroke-width="0.75" d="M 176 64 L 176 96 M 160 80 L 192 80 "/>
<path id="p163" fill="none" stroke="rgb(0,0,0)" stroke-width="0.5" d="M 176 64 L 176 96 M 160 80 L 192 80 "/>
<path id="p164" fill="none" stroke="rgb(255,255,255)" stroke-width="0.75" d="M 168 64 L 168 80 M 160 72 L 176 72 "/>
<path id="p165" fill="none" stroke="rgb(0,0,0)" stroke-width="0.5" d="M 168 64 L 168 80 M 160 72 L 176 72 "/>
<path id="p166" fill="none" stroke="rgb(255,255,255)" stroke-width="0.75" d="M 384 0 L 384 256 M 256 128 L 512 128 "/>
<path id="p167" fill="none" stroke="rgb(0,0,0)" stroke-width="0.5" d="M 384 0 L 384 256 M 256 128 L 512 128 "/>
<path id="p168" fill="none" stroke="rgb(255,255,255)" stroke-width="0.75" d="M 320 0 L 320 128 M 256 64 L 384 64 "/>
<path id="p169" fill="none" stroke="rgb(0,0,0)" stroke-width="0.5" d="M 320 0 L 320 128 M 256 64 L 384 64 "/>
<path id="p170" fill="none" stroke="rgb(255,255,255)" stroke-width="0.75" d="M 288 0 L 288 64 M 256 32 L 320 32 "/>
<path id="p171" fill="none" stroke="rgb(0,0,0)" stroke-width="0.5" d="M 288 0 L 288 64 M 256 32 L 320 32 "/>
<path id="p172" fill="none" stroke="rgb(255,255,255)" stroke-width="0.75" d="M 272 0 L 272 32 M 256 16 L 288 16 "/>
<path id="p173" fill="none" stroke="rgb(0,0,0)" stroke-width="0.5" d="M 272 0 L 272 32 M 256 16 L 288 16 "/>
<path id="p174" fill="none" stroke="rgb(255,255,255)" stroke-width="0.75" d="M 280 0 L 280 16 M 272 8 L 288 8 "/>
<path id="p175" fill="none" stroke="rgb(0,0,0)" stroke-width="0.5" d="M 280 0 L 280 16 M 272 8 L 288 8 "/>
<path id="p176" fill="none" stroke="rgb(255,255,255)" stroke-width="0.75" d="M 264 16 L 264 32 M 256 24 L 272 24 "/>
<path id="p177" fill="none" stroke="rgb(0,0,0)" stroke-width="0.5" d="M 264 16 L 264 32 M 256 24 L 272 24 "/>
<path id="p178" fill="none" stroke="rgb(255,255,255)" stroke-width="0.75" d="M 280 16 L 280 32 M 272 24 L 288 24 "/>
<path id="p179" fill="none" stroke="rgb(0,0,0)" stroke-width="0.5" d="M 280 16 L 280 32 M 272 24 L 288 24 "/>
<path id="p180" fill="none" stroke="rgb(255,255,255)" stroke-width="0.75" d="M 304 0 L 304 32 M 288 16 L 320 16 "/>
<path id="p181" fill="none" stroke="rgb(0,0,0)" stroke-width="0.5" d="M 304 0 L 304 32 M 288 16 L 320 16 "/>
<path id="p182" fill="none" stroke="rgb(255,255,255)" stroke-width="0.75" d="M 296 0 L 296 16 M 288 8 L 304 8 "/>
<path id="p183" fill="none" stroke="rgb(0,0,0)" stroke-width="0.5" d="M 296 0 L 296 16 M 288 8 L 304 8 "/>
<path id="p184" fill="none" stroke="rgb(255,255,255)" stroke-width="0.75" d="M 296 16 L 296 32 M 288 24 L 304 24 "/>
<path id="p185" fill="none" stroke="rgb(0,0,0)" stroke-width="0.5" d="M 296 16 L 296 32 M 288 24 L 304 24 "/>
<path id="p186" fill="none" stroke="rgb(255,255,255)" stroke-width="0.75" d="M 312 16 L 312 32 M 304 24 L 320 24 "/>
<path id="p187" fill="none" stroke="rgb(0,0,0)" stroke-width="0.5" d="M 312 16 L 312 32 M 304 24 L 320 24 "/>
<path id="p188" fill="none" stroke="rgb(255,255,255)" stroke-width="0.75" d="M 272 32 L 272 64 M 256 48 L 288 48 "/>
<path id="p189" fill="none" stroke="rgb(0,0,0)" stroke-width="0.5" d="M 272 32 L 272 64 M 256 48 L 288 48 "/>
<path id="p190" fill="none" stroke="rgb(255,255,255)" stroke-width="0.75" d="M 264 32 L 264 48 M 256 40 L 272 40 "/>
<path id="p191" fill="none" stroke="rgb(0,0,0)" stroke-width="0.5" d="M 264 32 L 264 48 M 256 40 L 272 40 "/>
<path id="p192" fill="none" stroke="rgb(255,255,255)" stroke-width="0.75" d="M 280 32 L 280 48 M 272 40 L 288 40 "/>
<path id="p193" fill="none" stroke="rgb(0,0,0)" stroke-width="0.5" d="M 280 32 L 280 48 M 272 40 L 288 40 "/>
<path id="p194" fill="none" stroke="rgb(255,255,255)" stroke-width="0.75" d="M 304 32 L 304 64 M 288 48 L 320 48 "/>
<path id="p195" fill="none" stroke="rgb(0,0,0)" stroke-width="0.5" d="M 304 32 L 304 64 M 288 48 L 320 48 "/>
<path id="p196" fill="none" stroke="rgb(255,255,255)" stroke-width="0.75" d="M 296 32 L 296 48 M 288 40 L 304 40 "/>
<path id="p197" fill="none" stroke="rgb(0,0,0)" stroke-width="0.5" d="M 296 32 L 296 48 M 288 40 L 304 40 "/>
<path id="p198" fill="none" stroke="rgb(255,255,255)" stroke-width="0.75" d="M 312 32 L 312 48 M 304 40 L 320 40 "/>
<path id="p199" fill="none" stroke="rgb(0,0,0)" stroke-width="0.5" d="M 312 32 L 312 48 M 304 40 L 320 40 "/>
<path id="p200" fill="none" stroke="rgb(255,255,255)" stroke-width="0.75" d="M 352 0 L 352 64 M 320 32 L 384 32 "/>
<path id="p201" fill="none" stroke="rgb(0,0,0)" stroke-width="0.5" d="M 352 0 L 352 64 M 320 32 L 384 32 "/>
<path id="p202" fill="none" stroke="rgb(255,255,255)" stroke-width="0.75" d="M 336 0 L 336 32 M 320 16 L 352 16 "/>
<path id="p203" fill="none" stroke="rgb(0,0,0)" stroke-width="0.5" d="M 336 0 L 336 32 M 320 16 L 352 16 "/>
<path id="p204" fill="none" stroke="rgb(255,255,255)" stroke-width="0.75" d="M 328 0 L 328 16 M 320 8 L 336 8 "/>
<path id="p205" fill="none" stroke="rgb(0,0,0)" stroke-width="0.5" d="M 328 0 L 328 16 M 320 8 L 336 8 "/>
<path id="p206" fill="none" stroke="rgb(255,255,255)" stroke-width="0.75" d="M 344 0 L 344 16 M 336 8 L 352 8 "/>
<path id="p207" fill="none" stroke="rgb(0,0,0)" stroke-width="0.5" d="M 344 0 L 344 16 M 336 8 L 352 8 "/>
<path id="p208" fill="none" stroke="rgb(255,255,255)" stroke-width="0.75" d="M 328 16 L 328 32 M 320 24 L 336 24 "/>
<path id="p209" fill="none" stroke="rgb(0,0,0)" stroke-width="0.5" d="M 328 16 L 328 32 M 320 24 L 336 24 "/>
<path id="p210" fill="none" stroke="rgb(255,255,255)" stroke-width="0.75" d="M 368 0 L 368 32 M 352 16 L 384 16 "/>
<path id="p211" fill="none" stroke="rgb(0,0,0)" stroke-width="0.5" d="M 368 0 L 368 32 M 352 16 L 384 16 "/>
<path id="p212" fill="none" stroke="rgb(255,255,255)" stroke-width="0.75" d="M 360 0 L 360 16 M 352 8 L 368 8 "/>
<path id="p213" fill="none" stroke="rgb(0,0,0)" stroke-width="0.5" d="M 360 0 L 360 16 M 352 8 L 368 8 "/>
<path id="p214" fill="none" stroke="rgb(255,255,255)" stroke-width="0.75" d="M 376 0 L 376 16 M 368 8 L 384 8 "/>
<path id="p215" fill="none" stroke="rgb(0,0,0)" stroke-width="0.5" d="M 376 0 L 376 16 M 368 8 L 384 8 "/>
<path id="p216" fill="none" stroke="rgb(255,255,255)" stroke-width="0.75" d="M 360 16 L 360 32 M 352 24 L 368 24 "/>
<path id="p217" fill="none" stroke="rgb(0,0,0)" stroke-width="0.5" d="M 360 16 L 360 32 M 352 24 L 368 24 "/>
<path id="p218" fill="none" stroke="rgb(255,255,255)" stroke-width="0.75" d="M 376 16 L 376 32 M 368 24 L 384 24 "/>
<path id="p219" fill="none" stroke="rgb(0,0,0)" stroke-width="0.5" d="M 376 16 L 376 32 M 368 24 L 384 24 "/>
<path id="p220" fill="none" stroke="rgb(255,255,255)" stroke-width="0.75" d="M 336 32 L 336 64 M 320 48 L 352 48 "/>
<path id="p221" fill="none" stroke="rgb(0,0,0)" stroke-width="0.5" d="M 336 32 L 336 64 M 320 48 L 352 48 "/>
<path id="p222" fill="none" stroke="rgb(255,255,255)" stroke-width="0.75" d="M 328 32 L 328 48 M 320 40 L 336 40 "/>
<path id="p223" fill="none" stroke="rgb(0,0,0)" stroke-width="0.5" d="M 328 32 L 328 48 M 320 40 L 336 40 "/>
<path id="p224" fill="none" stroke="rgb(255,255,255)" stroke-width="0.75" d="M 344 32 L 344 48 M 336 40 L 352 40 "/>
<path id="p225" fill="none" stroke="rgb(0,0,0)" stroke-width="0.5" d="M 344 32 L 344 48 M 336 40 L 352 40 "/>
<path id="p226" fill="none" stroke="rgb(255,255,255)" stroke-width="0.75" d="M 368 32 L 368 64 M 352 48 L 384 48 "/>
<path id="p227" fill="none" stroke="rgb(0,0,0)" stroke-width="0.5" d="M 368 32 L 368 64 M 352 48 L 384 48 "/>
<path id="p228" fill="none" stroke="rgb(255,255,255)" stroke-width="0.75" d="M 360 32 L 360 48 M 352 40 L 368 40 "/>
<path id="p229" fill="none" stroke="rgb(0,0,0)" stroke-width="0.5" d="M 360 32 L 360 48 M 352 40 L 368 40 "/>
<path id="p230" fill="none" stroke="rgb(255,255,255)" stroke-width="0.75" d="M 376 32 L 376 48 M 368 40 L 384 40 "/>
<path id="p231" fill="none" stroke="rgb(0,0,0)" stroke-width="0.5" d="M 376 32 L 376 48 M 368 40 L 384 40 "/>
<path id="p232" fill="none" stroke="rgb(255,255,255)" stroke-width="0.75" d="M 448 0 L 448 128 M 384 64 L 512 64 "/>
<path id="p233" fill="none" stroke="rgb(0,0,0)" stroke-width="0.5" d="M 448 0 L 448 128 M 384 64 L 512 64 "/>
<path id="p234" fill="none" stroke="rgb(255,255,255)" stroke-width="0.75" d="M 416 0 L 416 64 M 384 32 L 448 32 "/>
<path id="p235" fill="none" stroke="rgb(0,0,0)" stroke-width="0.5" d="M 416 0 L 416 64 M 384 32 L 448 32 "/>
<path id="p236" fill="none" stroke="rgb(255,255,255)" stroke-width="0.75" d="M 400 0 L 400 32 M 384 16 L 416 16 "/>
<path id="p237" fill="none" stroke="rgb(0,0,0)" stroke-width="0.5" d="M 400 0 L 400 32 M 384 16 L 416 16 "/>
<path id="p238" fill="none" stroke="rgb(255,255,255)" stroke-width="0.75" d="M 392 0 L 392 16 M 384 8 L 400 8 "/>
<path id="p239" fill="none" stroke="rgb(0,0,0)" stroke-width="0.5" d="M 392 0 L 392 16 M 384 8 L 400 8 "/>
<path id="p240" fill="none" stroke="rgb(255,255,255)" stroke-width="0.75" d="M 408 0 L 408 16 M 400 8 L 416 8 "/>
<path id="p241" fill="none" stroke="rgb(0,0,0)" stroke-width="0.5" d="M 408 0 L 408 16 M 400 8 L 416 8 "/>
<path id="p242" fill="none" stroke="rgb(255,255,255)" stroke-width="0.75" d="M 432 0 L 432 32 M 416 16 L 448 16 "/>
<path id="p243" fill="none" stroke="rgb(0,0,0)" stroke-width="0.5" d="M 432 0 L 432 32 M 416 16 L 448 16 "/>
<path id="p244" fill="none" stroke="rgb(255,255,255)" stroke-width="0.75" d="M 424 0 L 424 16 M 416 8 L 432 8 "/>
<path id="p245" fill="none" stroke="rgb(0,0,0)" stroke-width="0.5" d="M 424 0 L 424 16 M 416 8 L 432 8 "/>
<path id="p246" fill="none" stroke="rgb(255,255,255)" stroke-width="0.75" d="M 440 0 L 440 16 M 432 8 L 448 8 "/>
<path id="p247" fill="none" stroke="rgb(0,0,0)" stroke-width="0.5" d="M 440 0 L 440 16 M 432 8 L 448 8 "/>
<path id="p248" fill="none" stroke="rgb(255,255,255)" stroke-width="0.75" d="M 424 16 L 424 32 M 416 24 L 432 24 "/>
<path id="p249" fill="none" stroke="rgb(0,0,0)" stroke-width="0.5" d="M 424 16 L 424 32 M 416 24 L 432 24 "/>
<path id="p250" fill="none" stroke="rgb(255,255,255)" stroke-width="0.75" d="M 440 16 L 440 32 M 432 24 L 448 24 "/>
<path id="p251" fill="none" stroke="rgb(0,0,0)" stroke-width="0.5" d="M 440 16 L 440 32 M 432 24 L 448 24 "/>
<path id="p252" fill="none" stroke="rgb(255,255,255)" stroke-width="0.75" d="M 400 32 L 400 64 M 384 48 L 416 48 "/>
<path id="p253" fill="none" stroke="rgb(0,0,0)" stroke-width="0.5" d="M 400 32 L 400 64 M 384 48 L 416 48 "/>
<path id="p254" fill="none" stroke="rgb(255,255,255)" stroke-width="0.75" d="M 392 32 L 392 48 M 384 40 L 400 40 "/>
<path id="p255" fill="none" stroke="rgb(0,0,0)" stroke-width="0.5" d="M 392 32 L 392 48 M 384 40 L 400 40 "/>
<path id="p256" fill="none" stroke="rgb(255,255,255)" stroke-width="0.75" d="M 408 48 L 408 64 M 400 56 L 416 56 "/>
<path id="p257" fill="none" stroke="rgb(0,0,0)" stroke-width="0.5" d="M 408 48 L 408 64 M 400 56 L 416 56 "/>
<path id="p258" fill="none" stroke="rgb(255,255,255)" stroke-width="0.75" d="M 432 32 L 432 64 M 416 48 L 448 48 "/>
<path id="p259" fill="none" stroke="rgb(0,0,0)" stroke-width="0.5" d="M 432 32 L 432 64 M 416 48 L 448 48 "/>
<path id="p260" fill="none" stroke="rgb(255,255,255)" stroke-width="0.75" d="M 424 32 L 424 48 M 416 40 L 432 40 "/>
<path id="p261" fill="none" stroke="rgb(0,0,0)" stroke-width="0.5" d="M 424 32 L 424 48 M 416 40 L 432 40 "/>
<path id="p262" fill="none" stroke="rgb(255,255,255)" stroke-width="0.75" d="M 440 32 L 440 48 M 432 40 L 448 40 "/>
<path id="p263" fill="none" stroke="rgb(0,0,0)" stroke-width="0.5" d="M 440 32 L 440 48 M 432 40 L 448 40 "/>
<path id="p264" fill="none" stroke="rgb(255,255,255)" stroke-width="0.75" d="M 480 0 L 480 64 M 448 32 L 512 32 "/>
<path id="p265" fill="none" stroke="rgb(0,0,0)" stroke-width="0.5" d="M 480 0 L 480 64 M 448 32 L 512 32 "/>
<path id="p266" fill="none" stroke="rgb(255,255,255)" stroke-width="0.75" d="M 464 0 L 464 32 M 448 16 L 480 16 "/>
<path id="p267" fill="none" stroke="rgb(0,0,0)" stroke-width="0.5" d="M 464 0 L 464 32 M 448 16 L 480 16 "/>
<path id="p268" fill="none" stroke="rgb(255,255,255)" stroke-width="0.75" d="M 456 0 L 456 16 M 448 8 L 464 8 "/>
<path id="p269" fill="none" stroke="rgb(0,0,0)" stroke-width="0.5" d="M 456 0 L 456 16 M 448 8 L 464 8 "/>
<path id="p270" fill="none" stroke="rgb(255,255,255)" stroke-width="0.75" d="M 472 0 L 472 16 M 464 8 L 480 8 "/>
<path id="p271" fill="none" stroke="rgb(0,0,0)" stroke-width="0.5" d="M 472 0 L 472 16 M 464 8 L 480 8 "/>
<path id="p272" fill="none" stroke="rgb(255,255,255)" stroke-width="0.75" d="M 456 16 L 456 32 M 448 24 L 464 24 "/>
<path id="p273" fill="none" stroke="rgb(0,0,0)" stroke-width="0.5" d="M 456 16 L 456 32 M 448 24 L 464 24 "/>
<path id="p274" fill="none" stroke="rgb(255,255,255)" stroke-width="0.75" d="M 496 0 L 496 32 M 480 16 L 512 16 "/>
<path id="p275" fill="none" stroke="rgb(0,0,0)" stroke-width="0.5" d="M 496 0 L 496 32 M 480 16 L 512 16 "/>
<path id="p276" fill="none" stroke="rgb(255,255,255)" stroke-width="0.75" d="M 488 0 L 488 16 M 480 8 L 496 8 "/>
<path id="p277" fill="none" stroke="rgb(0,0,0)" stroke-width="0.5" d="M 488 0 L 488 16 M 480 8 L 496 8 "/>
<path id="p278" fill="none" stroke="rgb(255,255,255)" stroke-width="0.75" d="M 488 16 L 488 32 M 480 24 L 496 24 "/>
<path id="p279" fill="none" stroke="rgb(0,0,0)" stroke-width="0.5" d="M 488 16 L 488 32 M 480 24 L 496 24 "/>
<path id="p280" fill="none" stroke="rgb(255,255,255)" stroke-width="0.75" d="M 464 32 L 464 64 M 448 48 L 480 48 "/>
<path id="p281" fill="none" stroke="rgb(0,0,0)" stroke-width="0.5" d="M 464 32 L 464 64 M 448 48 L 480 48 "/>
<path id="p282" fill="none" stroke="rgb(255,255,255)" stroke-width="0.75" d="M 456 32 L 456 48 M 448 40 L 464 40 "/>
<path id="p283" fill="none" stroke="rgb(0,0,0)" stroke-width="0.5" d="M 456 32 L 456 48 M 448 40 L 464 40 "/>
<path id="p284" fill="none" stroke="rgb(255,255,255)" stroke-width="0.75" d="M 456 48 L 456 64 M 448 56 L 464 56 "/>
<path id="p285" fill="none" stroke="rgb(0,0,0)" stroke-width="0.5" d="M 456 48 L 456 64 M 448 56 L 464 56 "/>
<path id="p286" fill="none" stroke="rgb(255,255,255)" stroke-width="0.75" d="M 496 32 L 496 64 M 480 48 L 512 48 "/>
<path id="p287" fill="none" stroke="rgb(0,0,0)" stroke-width="0.5" d="M 496 32 L 496 64 M 480 48 L 512 48 "/>
<path id="p288" fill="none" stroke="rgb(255,255,255)" stroke-width="0.75" d="M 488 32 L 488 48 M 480 40 L 496 40 "/>
<path id="p289" fill="none" stroke="rgb(0,0,0)" stroke-width="0.5" d="M 488 32 L 488 48 M 480 40 L 496 40 "/>
<path id="p290" fill="none" stroke="rgb(255,255,255)" stroke-width="0.75" d="M 488 48 L 488 64 M 480 56 L 496 56 "/>
<path id="p291" fill="none" stroke="rgb(0,0,0)" stroke-width="0.5" d="M 488 48 L 488 64 M 480 56 L 496 56 "/>
<path id="p292" fill="none" stroke="rgb(255,255,255)" stroke-width="0.75" d="M 416 64 L 416 128 M 384 96 L 448 96 "/>
<path id="p293" fill="none" stroke="rgb(0,0,0)" stroke-width="0.5" d="M 416 64 L 416 128 M 384 96 L 448 96 "/>
<path id="p294" fill="none" stroke="rgb(255,255,255)" stroke-width="0.75" d="M 400 64 L 400 96 M 384 80 L 416 80 "/>
<path id="p295" fill="none" stroke="rgb(0,0,0)" stroke-width="0.5" d="M 400 64 L 400 96 M 384 80 L 416 80 "/>
<path id="p296" fill="none" stroke="rgb(255,255,255)" stroke-width="0.75" d="M 408 64 L 408 80 M 400 72 L 416 72 "/>
<path id="p297" fill="none" stroke="rgb(0,0,0)" stroke-width="0.5" d="M 408 64 L 408 80 M 400 72 L 416 72 "/>
<path id="p298" fill="none" stroke="rgb(255,255,255)" stroke-width="0.75" d="M 480 64 L 480 128 M 448 96 L 512 96 "/>
<path id="p299" fill="none" stroke="rgb(0,0,0)" stroke-width="0.5" d="M 480 64 L 480 128 M 448 96 L 512 96 "/>
<path id="p300" fill="none" stroke="rgb(255,255,255)" stroke-width="0.75" d="M 464 64 L 464 96 M 448 80 L 480 80 "/>
<path id="p301" fill="none" stroke="rgb(0,0,0)" stroke-width="0.5" d="M 464 64 L 464 96 M 448 80 L 480 80 "/>
<path id="p302" fill="none" stroke="rgb(255,255,255)" stroke-width="0.75" d="M 456 64 L 456 80 M 448 72 L 464 72 "/>
<path id="p303" fill="none" stroke="rgb(0,0,0)" stroke-width="0.5" d="M 456 64 L 456 80 M 448 72 L 464 72 "/>
<path id="p304" fill="none" stroke="rgb(255,255,255)" stroke-width="0.75" d="M 472 64 L 472 80 M 464 72 L 480 72 "/>
<path id="p305" fill="none" stroke="rgb(0,0,0)" stroke-width="0.5" d="M 472 64 L 472 80 M 464 72 L 480 72 "/>
<path id="p306" fill="none" stroke="rgb(255,255,255)" stroke-width="0.75" d="M 496 64 L 496 96 M 480 80 L 512 80 "/>
<path id="p307" fill="none" stroke="rgb(0,0,0)" stroke-width="0.5" d="M 496 64 L 496 96 M 480 80 L 512 80 "/>
<path id="p308" fill="none" stroke="rgb(255,255,255)" stroke-width="0.75" d="M 488 64 L 488 80 M 480 72 L 496 72 "/>
<path id="p309" fill="none" stroke="rgb(0,0,0)" stroke-width="0.5" d="M 488 64 L 488 80 M 480 72 L 496 72 "/>
</g>
</svg>
