<?xml version="1.0" standalone="no"?>
<svg
    xmlns:xlink="http://www.w3.org/1999/xlink"
    xmlns:dc="http://purl.org/dc/elements/1.1/"
    xmlns:cc="http://creativecommons.org/ns#"
    xmlns:rdf="http://www.w3.org/1999/02/22-rdf-syntax-ns#"
    xmlns:svg="http://www.w3.org/2000/svg"
    xmlns="http://www.w3.org/2000/svg"
    version="1.1"
    viewBox="0 0 512 512">
<defs>
</defs>
<g transform="translate(0, 512) scale(1, -1)">
<path id="p1" fill="rgb(204,250,167)" d="M 2 258 L 174 18 60 108 2 258 Z "/>
<path id="p2" fill="rgb(201,97,50)" d="M 174 496 L 2 258 60 404 174 496 Z "/>
<path id="p3" fill="rgb(85,51,51)" d="M 456 404 L 174 496 340 496 456 404 Z "/>
<path id="p4" fill="rgb(56,56,95)" d="M 456 110 L 456 404 510 258 456 110 Z "/>
<path id="p5" fill="rgb(143,54,79)" d="M 456 404 L 248 258 174 496 456 404 Z "/>
<path id="p6" fill="rgb(85,77,174)" d="M 248 258 L 456 404 456 110 248 258 Z "/>
<path id="p7" fill="rgb(251,165,109)" d="M 248 258 L 2 258 174 496 248 258 Z "/>
<path id="p8" fill="rgb(254,254,225)" d="M 174 18 L 2 258 248 258 174 18 Z "/>
<path id="p9" fill="rgb(152,208,255)" d="M 174 18 L 248 258 456 110 174 18 Z "/>
<path id="p10" fill="rgb(50,159,231)" d="M 336 18 L 174 18 456 110 336 18 Z "/>
<path id="p11" fill="none" stroke="rgb(255,255,255)" stroke-width="0.75" d="M 0 0 L 512 0 512 512 0 512 Z "/>
<path id="p12" fill="none" stroke="rgb(0,0,0)" stroke-width="0.5" d="M 0 0 L 512 0 512 512 0 512 Z "/>
<path id="p13" fill="none" stroke="rgb(255,255,255)" stroke-width="0.75" d="M 256 0 L 256 512 M 0 256 L 512 256 "/>
<path id="p14" fill="none" stroke="rgb(0,0,0)" stroke-width="0.5" d="M 256 0 L 256 512 M 0 256 L 512 256 "/>
<path id="p15" fill="none" stroke="rgb(255,255,255)" stroke-width="0.75" d="M 128 0 L 128 256 M 0 128 L 256 128 "/>
<path id="p16" fill="none" stroke="rgb(0,0,0)" stroke-width="0.5" d="M 128 0 L 128 256 M 0 128 L 256 128 "/>
<path id="p17" fill="none" stroke="rgb(255,255,255)" stroke-width="0.75" d="M 64 0 L 64 128 M 0 64 L 128 64 "/>
<path id="p18" fill="none" stroke="rgb(0,0,0)" stroke-width="0.5" d="M 64 0 L 64 128 M 0 64 L 128 64 "/>
<path id="p19" fill="none" stroke="rgb(255,255,255)" stroke-width="0.75" d="M 32 64 L 32 128 M 0 96 L 64 96 "/>
<path id="p20" fill="none" stroke="rgb(0,0,0)" stroke-width="0.5" d="M 32 64 L 32 128 M 0 96 L 64 96 "/>
<path id="p21" fill="none" stroke="rgb(255,255,255)" stroke-width="0.75" d="M 48 96 L 48 128 M 32 112 L 64 112 "/>
<path id="p22" fill="none" stroke="rgb(0,0,0)" stroke-width="0.5" d="M 48 96 L 48 128 M 32 112 L 64 112 "/>
<path id="p23" fill="none" stroke="rgb(255,255,255)" stroke-width="0.75" d="M 96 64 L 96 128 M 64 96 L 128 96 "/>
<path id="p24" fill="none" stroke="rgb(0,0,0)" stroke-width="0.5" d="M 96 64 L 96 128 M 64 96 L 128 96 "/>
<path id="p25" fill="none" stroke="rgb(255,255,255)" stroke-width="0.75" d="M 112 64 L 112 96 M 96 80 L 128 80 "/>
<path id="p26" fill="none" stroke="rgb(0,0,0)" stroke-width="0.5" d="M 112 64 L 112 96 M 96 80 L 128 80 "/>
<path id="p27" fill="none" stroke="rgb(255,255,255)" stroke-width="0.75" d="M 80 96 L 80 128 M 64 112 L 96 112 "/>
<path id="p28" fill="none" stroke="rgb(0,0,0)" stroke-width="0.5" d="M 80 96 L 80 128 M 64 112 L 96 112 "/>
<path id="p29" fill="none" stroke="rgb(255,255,255)" stroke-width="0.75" d="M 112 96 L 112 128 M 96 112 L 128 112 "/>
<path id="p30" fill="none" stroke="rgb(0,0,0)" stroke-width="0.5" d="M 112 96 L 112 128 M 96 112 L 128 112 "/>
<path id="p31" fill="none" stroke="rgb(255,255,255)" stroke-width="0.75" d="M 192 0 L 192 128 M 128 64 L 256 64 "/>
<path id="p32" fill="none" stroke="rgb(0,0,0)" stroke-width="0.5" d="M 192 0 L 192 128 M 128 64 L 256 64 "/>
<path id="p33" fill="none" stroke="rgb(255,255,255)" stroke-width="0.75" d="M 160 0 L 160 64 M 128 32 L 192 32 "/>
<path id="p34" fill="none" stroke="rgb(0,0,0)" stroke-width="0.5" d="M 160 0 L 160 64 M 128 32 L 192 32 "/>
<path id="p35" fill="none" stroke="rgb(255,255,255)" stroke-width="0.75" d="M 176 0 L 176 32 M 160 16 L 192 16 "/>
<path id="p36" fill="none" stroke="rgb(0,0,0)" stroke-width="0.5" d="M 176 0 L 176 32 M 160 16 L 192 16 "/>
<path id="p37" fill="none" stroke="rgb(255,255,255)" stroke-width="0.75" d="M 144 32 L 144 64 M 128 48 L 160 48 "/>
<path id="p38" fill="none" stroke="rgb(0,0,0)" stroke-width="0.5" d="M 144 32 L 144 64 M 128 48 L 160 48 "/>
<path id="p39" fill="none" stroke="rgb(255,255,255)" stroke-width="0.75" d="M 176 32 L 176 64 M 160 48 L 192 48 "/>
<path id="p40" fill="none" stroke="rgb(0,0,0)" stroke-width="0.5" d="M 176 32 L 176 64 M 160 48 L 192 48 "/>
<path id="p41" fill="none" stroke="rgb(255,255,255)" stroke-width="0.75" d="M 224 0 L 224 64 M 192 32 L 256 32 "/>
<path id="p42" fill="none" stroke="rgb(0,0,0)" stroke-width="0.5" d="M 224 0 L 224 64 M 192 32 L 256 32 "/>
<path id="p43" fill="none" stroke="rgb(255,255,255)" stroke-width="0.75" d="M 208 0 L 208 32 M 192 16 L 224 16 "/>
<path id="p44" fill="none" stroke="rgb(0,0,0)" stroke-width="0.5" d="M 208 0 L 208 32 M 192 16 L 224 16 "/>
<path id="p45" fill="none" stroke="rgb(255,255,255)" stroke-width="0.75" d="M 208 32 L 208 64 M 192 48 L 224 48 "/>
<path id="p46" fill="none" stroke="rgb(0,0,0)" stroke-width="0.5" d="M 208 32 L 208 64 M 192 48 L 224 48 "/>
<path id="p47" fill="none" stroke="rgb(255,255,255)" stroke-width="0.75" d="M 240 32 L 240 64 M 224 48 L 256 48 "/>
<path id="p48" fill="none" stroke="rgb(0,0,0)" stroke-width="0.5" d="M 240 32 L 240 64 M 224 48 L 256 48 "/>
<path id="p49" fill="none" stroke="rgb(255,255,255)" stroke-width="0.75" d="M 160 64 L 160 128 M 128 96 L 192 96 "/>
<path id="p50" fill="none" stroke="rgb(0,0,0)" stroke-width="0.5" d="M 160 64 L 160 128 M 128 96 L 192 96 "/>
<path id="p51" fill="none" stroke="rgb(255,255,255)" stroke-width="0.75" d="M 144 64 L 144 96 M 128 80 L 160 80 "/>
<path id="p52" fill="none" stroke="rgb(0,0,0)" stroke-width="0.5" d="M 144 64 L 144 96 M 128 80 L 160 80 "/>
<path id="p53" fill="none" stroke="rgb(255,255,255)" stroke-width="0.75" d="M 176 64 L 176 96 M 160 80 L 192 80 "/>
<path id="p54" fill="none" stroke="rgb(0,0,0)" stroke-width="0.5" d="M 176 64 L 176 96 M 160 80 L 192 80 "/>
<path id="p55" fill="none" stroke="rgb(255,255,255)" stroke-width="0.75" d="M 224 64 L 224 128 M 192 96 L 256 96 "/>
<path id="p56" fill="none" stroke="rgb(0,0,0)" stroke-width="0.5" d="M 224 64 L 224 128 M 192 96 L 256 96 "/>
<path id="p57" fill="none" stroke="rgb(255,255,255)" stroke-width="0.75" d="M 208 64 L 208 96 M 192 80 L 224 80 "/>
<path id="p58" fill="none" stroke="rgb(0,0,0)" stroke-width="0.5" d="M 208 64 L 208 96 M 192 80 L 224 80 "/>
<path id="p59" fill="none" stroke="rgb(255,255,255)" stroke-width="0.75" d="M 208 96 L 208 128 M 192 112 L 224 112 "/>
<path id="p60" fill="none" stroke="rgb(0,0,0)" stroke-width="0.5" d="M 208 96 L 208 128 M 192 112 L 224 112 "/>
<path id="p61" fill="none" stroke="rgb(255,255,255)" stroke-width="0.75" d="M 64 128 L 64 256 M 0 192 L 128 192 "/>
<path id="p62" fill="none" stroke="rgb(0,0,0)" stroke-width="0.5" d="M 64 128 L 64 256 M 0 192 L 128 192 "/>
<path id="p63" fill="none" stroke="rgb(255,255,255)" stroke-width="0.75" d="M 32 128 L 32 192 M 0 160 L 64 160 "/>
<path id="p64" fill="none" stroke="rgb(0,0,0)" stroke-width="0.5" d="M 32 128 L 32 192 M 0 160 L 64 160 "/>
<path id="p65" fill="none" stroke="rgb(255,255,255)" stroke-width="0.75" d="M 48 128 L 48 160 M 32 144 L 64 144 "/>
<path id="p66" fill="none" stroke="rgb(0,0,0)" stroke-width="0.5" d="M 48 128 L 48 160 M 32 144 L 64 144 "/>
<path id="p67" fill="none" stroke="rgb(255,255,255)" stroke-width="0.75" d="M 48 160 L 48 192 M 32 176 L 64 176 "/>
<path id="p68" fill="none" stroke="rgb(0,0,0)" stroke-width="0.5" d="M 48 160 L 48 192 M 32 176 L 64 176 "/>
<path id="p69" fill="none" stroke="rgb(255,255,255)" stroke-width="0.75" d="M 96 128 L 96 192 M 64 160 L 128 160 "/>
<path id="p70" fill="none" stroke="rgb(0,0,0)" stroke-width="0.5" d="M 96 128 L 96 192 M 64 160 L 128 160 "/>
<path id="p71" fill="none" stroke="rgb(255,255,255)" stroke-width="0.75" d="M 80 128 L 80 160 M 64 144 L 96 144 "/>
<path id="p72" fill="none" stroke="rgb(0,0,0)" stroke-width="0.5" d="M 80 128 L 80 160 M 64 144 L 96 144 "/>
<path id="p73" fill="none" stroke="rgb(255,255,255)" stroke-width="0.75" d="M 80 160 L 80 192 M 64 176 L 96 176 "/>
<path id="p74" fill="none" stroke="rgb(0,0,0)" stroke-width="0.5" d="M 80 160 L 80 192 M 64 176 L 96 176 "/>
<path id="p75" fill="none" stroke="rgb(255,255,255)" stroke-width="0.75" d="M 32 192 L 32 256 M 0 224 L 64 224 "/>
<path id="p76" fill="none" stroke="rgb(0,0,0)" stroke-width="0.5" d="M 32 192 L 32 256 M 0 224 L 64 224 "/>
<path id="p77" fill="none" stroke="rgb(255,255,255)" stroke-width="0.75" d="M 16 192 L 16 224 M 0 208 L 32 208 "/>
<path id="p78" fill="none" stroke="rgb(0,0,0)" stroke-width="0.5" d="M 16 192 L 16 224 M 0 208 L 32 208 "/>
<path id="p79" fill="none" stroke="rgb(255,255,255)" stroke-width="0.75" d="M 48 192 L 48 224 M 32 208 L 64 208 "/>
<path id="p80" fill="none" stroke="rgb(0,0,0)" stroke-width="0.5" d="M 48 192 L 48 224 M 32 208 L 64 208 "/>
<path id="p81" fill="none" stroke="rgb(255,255,255)" stroke-width="0.75" d="M 16 224 L 16 256 M 0 240 L 32 240 "/>
<path id="p82" fill="none" stroke="rgb(0,0,0)" stroke-width="0.5" d="M 16 224 L 16 256 M 0 240 L 32 240 "/>
<path id="p83" fill="none" stroke="rgb(255,255,255)" stroke-width="0.75" d="M 192 128 L 192 256 M 128 192 L 256 192 "/>
<path id="p84" fill="none" stroke="rgb(0,0,0)" stroke-width="0.5" d="M 192 128 L 192 256 M 128 192 L 256 192 "/>
<path id="p85" fill="none" stroke="rgb(255,255,255)" stroke-width="0.75" d="M 224 128 L 224 192 M 192 160 L 256 160 "/>
<path id="p86" fill="none" stroke="rgb(0,0,0)" stroke-width="0.5" d="M 224 128 L 224 192 M 192 160 L 256 160 "/>
<path id="p87" fill="none" stroke="rgb(255,255,255)" stroke-width="0.75" d="M 208 128 L 208 160 M 192 144 L 224 144 "/>
<path id="p88" fill="none" stroke="rgb(0,0,0)" stroke-width="0.5" d="M 208 128 L 208 160 M 192 144 L 224 144 "/>
<path id="p89" fill="none" stroke="rgb(255,255,255)" stroke-width="0.75" d="M 208 160 L 208 192 M 192 176 L 224 176 "/>
<path id="p90" fill="none" stroke="rgb(0,0,0)" stroke-width="0.5" d="M 208 160 L 208 192 M 192 176 L 224 176 "/>
<path id="p91" fill="none" stroke="rgb(255,255,255)" stroke-width="0.75" d="M 240 160 L 240 192 M 224 176 L 256 176 "/>
<path id="p92" fill="none" stroke="rgb(0,0,0)" stroke-width="0.5" d="M 240 160 L 240 192 M 224 176 L 256 176 "/>
<path id="p93" fill="none" stroke="rgb(255,255,255)" stroke-width="0.75" d="M 224 192 L 224 256 M 192 224 L 256 224 "/>
<path id="p94" fill="none" stroke="rgb(0,0,0)" stroke-width="0.5" d="M 224 192 L 224 256 M 192 224 L 256 224 "/>
<path id="p95" fill="none" stroke="rgb(255,255,255)" stroke-width="0.75" d="M 240 192 L 240 224 M 224 208 L 256 208 "/>
<path id="p96" fill="none" stroke="rgb(0,0,0)" stroke-width="0.5" d="M 240 192 L 240 224 M 224 208 L 256 208 "/>
<path id="p97" fill="none" stroke="rgb(255,255,255)" stroke-width="0.75" d="M 240 224 L 240 256 M 224 240 L 256 240 "/>
<path id="p98" fill="none" stroke="rgb(0,0,0)" stroke-width="0.5" d="M 240 224 L 240 256 M 224 240 L 256 240 "/>
<path id="p99" fill="none" stroke="rgb(255,255,255)" stroke-width="0.75" d="M 384 0 L 384 256 M 256 128 L 512 128 "/>
<path id="p100" fill="none" stroke="rgb(0,0,0)" stroke-width="0.5" d="M 384 0 L 384 256 M 256 128 L 512 128 "/>
<path id="p101" fill="none" stroke="rgb(255,255,255)" stroke-width="0.75" d="M 320 0 L 320 128 M 256 64 L 384 64 "/>
<path id="p102" fill="none" stroke="rgb(0,0,0)" stroke-width="0.5" d="M 320 0 L 320 128 M 256 64 L 384 64 "/>
<path id="p103" fill="none" stroke="rgb(255,255,255)" stroke-width="0.75" d="M 288 0 L 288 64 M 256 32 L 320 32 "/>
<path id="p104" fill="none" stroke="rgb(0,0,0)" stroke-width="0.5" d="M 288 0 L 288 64 M 256 32 L 320 32 "/>
<path id="p105" fill="none" stroke="rgb(255,255,255)" stroke-width="0.75" d="M 272 32 L 272 64 M 256 48 L 288 48 "/>
<path id="p106" fill="none" stroke="rgb(0,0,0)" stroke-width="0.5" d="M 272 32 L 272 64 M 256 48 L 288 48 "/>
<path id="p107" fill="none" stroke="rgb(255,255,255)" stroke-width="0.75" d="M 304 32 L 304 64 M 288 48 L 320 48 "/>
<path id="p108" fill="none" stroke="rgb(0,0,0)" stroke-width="0.5" d="M 304 32 L 304 64 M 288 48 L 320 48 "/>
<path id="p109" fill="none" stroke="rgb(255,255,255)" stroke-width="0.75" d="M 352 0 L 352 64 M 320 32 L 384 32 "/>
<path id="p110" fill="none" stroke="rgb(0,0,0)" stroke-width="0.5" d="M 352 0 L 352 64 M 320 32 L 384 32 "/>
<path id="p111" fill="none" stroke="rgb(255,255,255)" stroke-width="0.75" d="M 336 0 L 336 32 M 320 16 L 352 16 "/>
<path id="p112" fill="none" stroke="rgb(0,0,0)" stroke-width="0.5" d="M 336 0 L 336 32 M 320 16 L 352 16 "/>
<path id="p113" fill="none" stroke="rgb(255,255,255)" stroke-width="0.75" d="M 368 32 L 368 64 M 352 48 L 384 48 "/>
<path id="p114" fill="none" stroke="rgb(0,0,0)" stroke-width="0.5" d="M 368 32 L 368 64 M 352 48 L 384 48 "/>
<path id="p115" fill="none" stroke="rgb(255,255,255)" stroke-width="0.75" d="M 288 64 L 288 128 M 256 96 L 320 96 "/>
<path id="p116" fill="none" stroke="rgb(0,0,0)" stroke-width="0.5" d="M 288 64 L 288 128 M 256 96 L 320 96 "/>
<path id="p117" fill="none" stroke="rgb(255,255,255)" stroke-width="0.75" d="M 304 64 L 304 96 M 288 80 L 320 80 "/>
<path id="p118" fill="none" stroke="rgb(0,0,0)" stroke-width="0.5" d="M 304 64 L 304 96 M 288 80 L 320 80 "/>
<path id="p119" fill="none" stroke="rgb(255,255,255)" stroke-width="0.75" d="M 352 64 L 352 128 M 320 96 L 384 96 "/>
<path id="p120" fill="none" stroke="rgb(0,0,0)" stroke-width="0.5" d="M 352 64 L 352 128 M 320 96 L 384 96 "/>
<path id="p121" fill="none" stroke="rgb(255,255,255)" stroke-width="0.75" d="M 336 64 L 336 96 M 320 80 L 352 80 "/>
<path id="p122" fill="none" stroke="rgb(0,0,0)" stroke-width="0.5" d="M 336 64 L 336 96 M 320 80 L 352 80 "/>
<path id="p123" fill="none" stroke="rgb(255,255,255)" stroke-width="0.75" d="M 368 64 L 368 96 M 352 80 L 384 80 "/>
<path id="p124" fill="none" stroke="rgb(0,0,0)" stroke-width="0.5" d="M 368 64 L 368 96 M 352 80 L 384 80 "/>
<path id="p125" fill="none" stroke="rgb(255,255,255)" stroke-width="0.75" d="M 448 0 L 448 128 M 384 64 L 512 64 "/>
<path id="p126" fill="none" stroke="rgb(0,0,0)" stroke-width="0.5" d="M 448 0 L 448 128 M 384 64 L 512 64 "/>
<path id="p127" fill="none" stroke="rgb(255,255,255)" stroke-width="0.75" d="M 416 64 L 416 128 M 384 96 L 448 96 "/>
<path id="p128" fill="none" stroke="rgb(0,0,0)" stroke-width="0.5" d="M 416 64 L 416 128 M 384 96 L 448 96 "/>
<path id="p129" fill="none" stroke="rgb(255,255,255)" stroke-width="0.75" d="M 400 64 L 400 96 M 384 80 L 416 80 "/>
<path id="p130" fill="none" stroke="rgb(0,0,0)" stroke-width="0.5" d="M 400 64 L 400 96 M 384 80 L 416 80 "/>
<path id="p131" fill="none" stroke="rgb(255,255,255)" stroke-width="0.75" d="M 400 96 L 400 128 M 384 112 L 416 112 "/>
<path id="p132" fill="none" stroke="rgb(0,0,0)" stroke-width="0.5" d="M 400 96 L 400 128 M 384 112 L 416 112 "/>
<path id="p133" fill="none" stroke="rgb(255,255,255)" stroke-width="0.75" d="M 432 96 L 432 128 M 416 112 L 448 112 "/>
<path id="p134" fill="none" stroke="rgb(0,0,0)" stroke-width="0.5" d="M 432 96 L 432 128 M 416 112 L 448 112 "/>
<path id="p135" fill="none" stroke="rgb(255,255,255)" stroke-width="0.75" d="M 480 64 L 480 128 M 448 96 L 512 96 "/>
<path id="p136" fill="none" stroke="rgb(0,0,0)" stroke-width="0.5" d="M 480 64 L 480 128 M 448 96 L 512 96 "/>
<path id="p137" fill="none" stroke="rgb(255,255,255)" stroke-width="0.75" d="M 464 96 L 464 128 M 448 112 L 480 112 "/>
<path id="p138" fill="none" stroke="rgb(0,0,0)" stroke-width="0.5" d="M 464 96 L 464 128 M 448 112 L 480 112 "/>
<path id="p139" fill="none" stroke="rgb(255,255,255)" stroke-width="0.75" d="M 320 128 L 320 256 M 256 192 L 384 192 "/>
<path id="p140" fill="none" stroke="rgb(0,0,0)" stroke-width="0.5" d="M 320 128 L 320 256 M 256 192 L 384 192 "/>
<path id="p141" fill="none" stroke="rgb(255,255,255)" stroke-width="0.75" d="M 352 128 L 352 192 M 320 160 L 384 160 "/>
<path id="p142" fill="none" stroke="rgb(0,0,0)" stroke-width="0.5" d="M 352 128 L 352 192 M 320 160 L 384 160 "/>
<path id="p143" fill="none" stroke="rgb(255,255,255)" stroke-width="0.75" d="M 336 160 L 336 192 M 320 176 L 352 176 "/>
<path id="p144" fill="none" stroke="rgb(0,0,0)" stroke-width="0.5" d="M 336 160 L 336 192 M 320 176 L 352 176 "/>
<path id="p145" fill="none" stroke="rgb(255,255,255)" stroke-width="0.75" d="M 368 160 L 368 192 M 352 176 L 384 176 "/>
<path id="p146" fill="none" stroke="rgb(0,0,0)" stroke-width="0.5" d="M 368 160 L 368 192 M 352 176 L 384 176 "/>
<path id="p147" fill="none" stroke="rgb(255,255,255)" stroke-width="0.75" d="M 288 192 L 288 256 M 256 224 L 320 224 "/>
<path id="p148" fill="none" stroke="rgb(0,0,0)" stroke-width="0.5" d="M 288 192 L 288 256 M 256 224 L 320 224 "/>
<path id="p149" fill="none" stroke="rgb(255,255,255)" stroke-width="0.75" d="M 304 192 L 304 224 M 288 208 L 320 208 "/>
<path id="p150" fill="none" stroke="rgb(0,0,0)" stroke-width="0.5" d="M 304 192 L 304 224 M 288 208 L 320 208 "/>
<path id="p151" fill="none" stroke="rgb(255,255,255)" stroke-width="0.75" d="M 272 224 L 272 256 M 256 240 L 288 240 "/>
<path id="p152" fill="none" stroke="rgb(0,0,0)" stroke-width="0.5" d="M 272 224 L 272 256 M 256 240 L 288 240 "/>
<path id="p153" fill="none" stroke="rgb(255,255,255)" stroke-width="0.75" d="M 304 224 L 304 256 M 288 240 L 320 240 "/>
<path id="p154" fill="none" stroke="rgb(0,0,0)" stroke-width="0.5" d="M 304 224 L 304 256 M 288 240 L 320 240 "/>
<path id="p155" fill="none" stroke="rgb(255,255,255)" stroke-width="0.75" d="M 352 192 L 352 256 M 320 224 L 384 224 "/>
<path id="p156" fill="none" stroke="rgb(0,0,0)" stroke-width="0.5" d="M 352 192 L 352 256 M 320 224 L 384 224 "/>
<path id="p157" fill="none" stroke="rgb(255,255,255)" stroke-width="0.75" d="M 336 192 L 336 224 M 320 208 L 352 208 "/>
<path id="p158" fill="none" stroke="rgb(0,0,0)" stroke-width="0.5" d="M 336 192 L 336 224 M 320 208 L 352 208 "/>
<path id="p159" fill="none" stroke="rgb(255,255,255)" stroke-width="0.75" d="M 448 128 L 448 256 M 384 192 L 512 192 "/>
<path id="p160" fill="none" stroke="rgb(0,0,0)" stroke-width="0.5" d="M 448 128 L 448 256 M 384 192 L 512 192 "/>
<path id="p161" fill="none" stroke="rgb(255,255,255)" stroke-width="0.75" d="M 416 128 L 416 192 M 384 160 L 448 160 "/>
<path id="p162" fill="none" stroke="rgb(0,0,0)" stroke-width="0.5" d="M 416 128 L 416 192 M 384 160 L 448 160 "/>
<path id="p163" fill="none" stroke="rgb(255,255,255)" stroke-width="0.75" d="M 400 128 L 400 160 M 384 144 L 416 144 "/>
<path id="p164" fill="none" stroke="rgb(0,0,0)" stroke-width="0.5" d="M 400 128 L 400 160 M 384 144 L 416 144 "/>
<path id="p165" fill="none" stroke="rgb(255,255,255)" stroke-width="0.75" d="M 432 128 L 432 160 M 416 144 L 448 144 "/>
<path id="p166" fill="none" stroke="rgb(0,0,0)" stroke-width="0.5" d="M 432 128 L 432 160 M 416 144 L 448 144 "/>
<path id="p167" fill="none" stroke="rgb(255,255,255)" stroke-width="0.75" d="M 400 160 L 400 192 M 384 176 L 416 176 "/>
<path id="p168" fill="none" stroke="rgb(0,0,0)" stroke-width="0.5" d="M 400 160 L 400 192 M 384 176 L 416 176 "/>
<path id="p169" fill="none" stroke="rgb(255,255,255)" stroke-width="0.75" d="M 480 128 L 480 192 M 448 160 L 512 160 "/>
<path id="p170" fill="none" stroke="rgb(0,0,0)" stroke-width="0.5" d="M 480 128 L 480 192 M 448 160 L 512 160 "/>
<path id="p171" fill="none" stroke="rgb(255,255,255)" stroke-width="0.75" d="M 464 128 L 464 160 M 448 144 L 480 144 "/>
<path id="p172" fill="none" stroke="rgb(0,0,0)" stroke-width="0.5" d="M 464 128 L 464 160 M 448 144 L 480 144 "/>
<path id="p173" fill="none" stroke="rgb(255,255,255)" stroke-width="0.75" d="M 464 160 L 464 192 M 448 176 L 480 176 "/>
<path id="p174" fill="none" stroke="rgb(0,0,0)" stroke-width="0.5" d="M 464 160 L 464 192 M 448 176 L 480 176 "/>
<path id="p175" fill="none" stroke="rgb(255,255,255)" stroke-width="0.75" d="M 480 192 L 480 256 M 448 224 L 512 224 "/>
<path id="p176" fill="none" stroke="rgb(0,0,0)" stroke-width="0.5" d="M 480 192 L 480 256 M 448 224 L 512 224 "/>
<path id="p177" fill="none" stroke="rgb(255,255,255)" stroke-width="0.75" d="M 496 192 L 496 224 M 480 208 L 512 208 "/>
<path id="p178" fill="none" stroke="rgb(0,0,0)" stroke-width="0.5" d="M 496 192 L 496 224 M 480 208 L 512 208 "/>
<path id="p179" fill="none" stroke="rgb(255,255,255)" stroke-width="0.75" d="M 496 224 L 496 256 M 480 240 L 512 240 "/>
<path id="p180" fill="none" stroke="rgb(0,0,0)" stroke-width="0.5" d="M 496 224 L 496 256 M 480 240 L 512 240 "/>
<path id="p181" fill="none" stroke="rgb(255,255,255)" stroke-width="0.75" d="M 128 256 L 128 512 M 0 384 L 256 384 "/>
<path id="p182" fill="none" stroke="rgb(0,0,0)" stroke-width="0.5" d="M 128 256 L 128 512 M 0 384 L 256 384 "/>
<path id="p183" fill="none" stroke="rgb(255,255,255)" stroke-width="0.75" d="M 64 256 L 64 384 M 0 320 L 128 320 "/>
<path id="p184" fill="none" stroke="rgb(0,0,0)" stroke-width="0.5" d="M 64 256 L 64 384 M 0 320 L 128 320 "/>
<path id="p185" fill="none" stroke="rgb(255,255,255)" stroke-width="0.75" d="M 32 256 L 32 320 M 0 288 L 64 288 "/>
<path id="p186" fill="none" stroke="rgb(0,0,0)" stroke-width="0.5" d="M 32 256 L 32 320 M 0 288 L 64 288 "/>
<path id="p187" fill="none" stroke="rgb(255,255,255)" stroke-width="0.75" d="M 16 256 L 16 288 M 0 272 L 32 272 "/>
<path id="p188" fill="none" stroke="rgb(0,0,0)" stroke-width="0.5" d="M 16 256 L 16 288 M 0 272 L 32 272 "/>
<path id="p189" fill="none" stroke="rgb(255,255,255)" stroke-width="0.75" d="M 16 288 L 16 320 M 0 304 L 32 304 "/>
<path id="p190" fill="none" stroke="rgb(0,0,0)" stroke-width="0.5" d="M 16 288 L 16 320 M 0 304 L 32 304 "/>
<path id="p191" fill="none" stroke="rgb(255,255,255)" stroke-width="0.75" d="M 48 288 L 48 320 M 32 304 L 64 304 "/>
<path id="p192" fill="none" stroke="rgb(0,0,0)" stroke-width="0.5" d="M 48 288 L 48 320 M 32 304 L 64 304 "/>
<path id="p193" fill="none" stroke="rgb(255,255,255)" stroke-width="0.75" d="M 32 320 L 32 384 M 0 352 L 64 352 "/>
<path id="p194" fill="none" stroke="rgb(0,0,0)" stroke-width="0.5" d="M 32 320 L 32 384 M 0 352 L 64 352 "/>
<path id="p195" fill="none" stroke="rgb(255,255,255)" stroke-width="0.75" d="M 48 320 L 48 352 M 32 336 L 64 336 "/>
<path id="p196" fill="none" stroke="rgb(0,0,0)" stroke-width="0.5" d="M 48 320 L 48 352 M 32 336 L 64 336 "/>
<path id="p197" fill="none" stroke="rgb(255,255,255)" stroke-width="0.75" d="M 48 352 L 48 384 M 32 368 L 64 368 "/>
<path id="p198" fill="none" stroke="rgb(0,0,0)" stroke-width="0.5" d="M 48 352 L 48 384 M 32 368 L 64 368 "/>
<path id="p199" fill="none" stroke="rgb(255,255,255)" stroke-width="0.75" d="M 96 320 L 96 384 M 64 352 L 128 352 "/>
<path id="p200" fill="none" stroke="rgb(0,0,0)" stroke-width="0.5" d="M 96 320 L 96 384 M 64 352 L 128 352 "/>
<path id="p201" fill="none" stroke="rgb(255,255,255)" stroke-width="0.75" d="M 80 320 L 80 352 M 64 336 L 96 336 "/>
<path id="p202" fill="none" stroke="rgb(0,0,0)" stroke-width="0.5" d="M 80 320 L 80 352 M 64 336 L 96 336 "/>
<path id="p203" fill="none" stroke="rgb(255,255,255)" stroke-width="0.75" d="M 80 352 L 80 384 M 64 368 L 96 368 "/>
<path id="p204" fill="none" stroke="rgb(0,0,0)" stroke-width="0.5" d="M 80 352 L 80 384 M 64 368 L 96 368 "/>
<path id="p205" fill="none" stroke="rgb(255,255,255)" stroke-width="0.75" d="M 192 256 L 192 384 M 128 320 L 256 320 "/>
<path id="p206" fill="none" stroke="rgb(0,0,0)" stroke-width="0.5" d="M 192 256 L 192 384 M 128 320 L 256 320 "/>
<path id="p207" fill="none" stroke="rgb(255,255,255)" stroke-width="0.75" d="M 224 256 L 224 320 M 192 288 L 256 288 "/>
<path id="p208" fill="none" stroke="rgb(0,0,0)" stroke-width="0.5" d="M 224 256 L 224 320 M 192 288 L 256 288 "/>
<path id="p209" fill="none" stroke="rgb(255,255,255)" stroke-width="0.75" d="M 240 256 L 240 288 M 224 272 L 256 272 "/>
<path id="p210" fill="none" stroke="rgb(0,0,0)" stroke-width="0.5" d="M 240 256 L 240 288 M 224 272 L 256 272 "/>
<path id="p211" fill="none" stroke="rgb(255,255,255)" stroke-width="0.75" d="M 240 288 L 240 320 M 224 304 L 256 304 "/>
<path id="p212" fill="none" stroke="rgb(0,0,0)" stroke-width="0.5" d="M 240 288 L 240 320 M 224 304 L 256 304 "/>
<path id="p213" fill="none" stroke="rgb(255,255,255)" stroke-width="0.75" d="M 224 320 L 224 384 M 192 352 L 256 352 "/>
<path id="p214" fill="none" stroke="rgb(0,0,0)" stroke-width="0.5" d="M 224 320 L 224 384 M 192 352 L 256 352 "/>
<path id="p215" fill="none" stroke="rgb(255,255,255)" stroke-width="0.75" d="M 208 320 L 208 352 M 192 336 L 224 336 "/>
<path id="p216" fill="none" stroke="rgb(0,0,0)" stroke-width="0.5" d="M 208 320 L 208 352 M 192 336 L 224 336 "/>
<path id="p217" fill="none" stroke="rgb(255,255,255)" stroke-width="0.75" d="M 240 320 L 240 352 M 224 336 L 256 336 "/>
<path id="p218" fill="none" stroke="rgb(0,0,0)" stroke-width="0.5" d="M 240 320 L 240 352 M 224 336 L 256 336 "/>
<path id="p219" fill="none" stroke="rgb(255,255,255)" stroke-width="0.75" d="M 208 352 L 208 384 M 192 368 L 224 368 "/>
<path id="p220" fill="none" stroke="rgb(0,0,0)" stroke-width="0.5" d="M 208 352 L 208 384 M 192 368 L 224 368 "/>
<path id="p221" fill="none" stroke="rgb(255,255,255)" stroke-width="0.75" d="M 64 384 L 64 512 M 0 448 L 128 448 "/>
<path id="p222" fill="none" stroke="rgb(0,0,0)" stroke-width="0.5" d="M 64 384 L 64 512 M 0 448 L 128 448 "/>
<path id="p223" fill="none" stroke="rgb(255,255,255)" stroke-width="0.75" d="M 32 384 L 32 448 M 0 416 L 64 416 "/>
<path id="p224" fill="none" stroke="rgb(0,0,0)" stroke-width="0.5" d="M 32 384 L 32 448 M 0 416 L 64 416 "/>
<path id="p225" fill="none" stroke="rgb(255,255,255)" stroke-width="0.75" d="M 48 384 L 48 416 M 32 400 L 64 400 "/>
<path id="p226" fill="none" stroke="rgb(0,0,0)" stroke-width="0.5" d="M 48 384 L 48 416 M 32 400 L 64 400 "/>
<path id="p227" fill="none" stroke="rgb(255,255,255)" stroke-width="0.75" d="M 96 384 L 96 448 M 64 416 L 128 416 "/>
<path id="p228" fill="none" stroke="rgb(0,0,0)" stroke-width="0.5" d="M 96 384 L 96 448 M 64 416 L 128 416 "/>
<path id="p229" fill="none" stroke="rgb(255,255,255)" stroke-width="0.75" d="M 80 384 L 80 416 M 64 400 L 96 400 "/>
<path id="p230" fill="none" stroke="rgb(0,0,0)" stroke-width="0.5" d="M 80 384 L 80 416 M 64 400 L 96 400 "/>
<path id="p231" fill="none" stroke="rgb(255,255,255)" stroke-width="0.75" d="M 112 384 L 112 416 M 96 400 L 128 400 "/>
<path id="p232" fill="none" stroke="rgb(0,0,0)" stroke-width="0.5" d="M 112 384 L 112 416 M 96 400 L 128 400 "/>
<path id="p233" fill="none" stroke="rgb(255,255,255)" stroke-width="0.75" d="M 112 416 L 112 448 M 96 432 L 128 432 "/>
<path id="p234" fill="none" stroke="rgb(0,0,0)" stroke-width="0.5" d="M 112 416 L 112 448 M 96 432 L 128 432 "/>
<path id="p235" fill="none" stroke="rgb(255,255,255)" stroke-width="0.75" d="M 192 384 L 192 512 M 128 448 L 256 448 "/>
<path id="p236" fill="none" stroke="rgb(0,0,0)" stroke-width="0.5" d="M 192 384 L 192 512 M 128 448 L 256 448 "/>
<path id="p237" fill="none" stroke="rgb(255,255,255)" stroke-width="0.75" d="M 160 384 L 160 448 M 128 416 L 192 416 "/>
<path id="p238" fill="none" stroke="rgb(0,0,0)" stroke-width="0.5" d="M 160 384 L 160 448 M 128 416 L 192 416 "/>
<path id="p239" fill="none" stroke="rgb(255,255,255)" stroke-width="0.75" d="M 144 416 L 144 448 M 128 432 L 160 432 "/>
<path id="p240" fill="none" stroke="rgb(0,0,0)" stroke-width="0.5" d="M 144 416 L 144 448 M 128 432 L 160 432 "/>
<path id="p241" fill="none" stroke="rgb(255,255,255)" stroke-width="0.75" d="M 176 416 L 176 448 M 160 432 L 192 432 "/>
<path id="p242" fill="none" stroke="rgb(0,0,0)" stroke-width="0.5" d="M 176 416 L 176 448 M 160 432 L 192 432 "/>
<path id="p243" fill="none" stroke="rgb(255,255,255)" stroke-width="0.75" d="M 224 384 L 224 448 M 192 416 L 256 416 "/>
<path id="p244" fill="none" stroke="rgb(0,0,0)" stroke-width="0.5" d="M 224 384 L 224 448 M 192 416 L 256 416 "/>
<path id="p245" fill="none" stroke="rgb(255,255,255)" stroke-width="0.75" d="M 208 384 L 208 416 M 192 400 L 224 400 "/>
<path id="p246" fill="none" stroke="rgb(0,0,0)" stroke-width="0.5" d="M 208 384 L 208 416 M 192 400 L 224 400 "/>
<path id="p247" fill="none" stroke="rgb(255,255,255)" stroke-width="0.75" d="M 208 416 L 208 448 M 192 432 L 224 432 "/>
<path id="p248" fill="none" stroke="rgb(0,0,0)" stroke-width="0.5" d="M 208 416 L 208 448 M 192 432 L 224 432 "/>
<path id="p249" fill="none" stroke="rgb(255,255,255)" stroke-width="0.75" d="M 160 448 L 160 512 M 128 480 L 192 480 "/>
<path id="p250" fill="none" stroke="rgb(0,0,0)" stroke-width="0.5" d="M 160 448 L 160 512 M 128 480 L 192 480 "/>
<path id="p251" fill="none" stroke="rgb(255,255,255)" stroke-width="0.75" d="M 144 448 L 144 480 M 128 464 L 160 464 "/>
<path id="p252" fill="none" stroke="rgb(0,0,0)" stroke-width="0.5" d="M 144 448 L 144 480 M 128 464 L 160 464 "/>
<path id="p253" fill="none" stroke="rgb(255,255,255)" stroke-width="0.75" d="M 176 448 L 176 480 M 160 464 L 192 464 "/>
<path id="p254" fill="none" stroke="rgb(0,0,0)" stroke-width="0.5" d="M 176 448 L 176 480 M 160 464 L 192 464 "/>
<path id="p255" fill="none" stroke="rgb(255,255,255)" stroke-width="0.75" d="M 176 480 L 176 512 M 160 496 L 192 496 "/>
<path id="p256" fill="none" stroke="rgb(0,0,0)" stroke-width="0.5" d="M 176 480 L 176 512 M 160 496 L 192 496 "/>
<path id="p257" fill="none" stroke="rgb(255,255,255)" stroke-width="0.75" d="M 224 448 L 224 512 M 192 480 L 256 480 "/>
<path id="p258" fill="none" stroke="rgb(0,0,0)" stroke-width="0.5" d="M 224 448 L 224 512 M 192 480 L 256 480 "/>
<path id="p259" fill="none" stroke="rgb(255,255,255)" stroke-width="0.75" d="M 208 448 L 208 480 M 192 464 L 224 464 "/>
<path id="p260" fill="none" stroke="rgb(0,0,0)" stroke-width="0.5" d="M 208 448 L 208 480 M 192 464 L 224 464 "/>
<path id="p261" fill="none" stroke="rgb(255,255,255)" stroke-width="0.75" d="M 240 448 L 240 480 M 224 464 L 256 464 "/>
<path id="p262" fill="none" stroke="rgb(0,0,0)" stroke-width="0.5" d="M 240 448 L 240 480 M 224 464 L 256 464 "/>
<path id="p263" fill="none" stroke="rgb(255,255,255)" stroke-width="0.75" d="M 208 480 L 208 512 M 192 496 L 224 496 "/>
<path id="p264" fill="none" stroke="rgb(0,0,0)" stroke-width="0.5" d="M 208 480 L 208 512 M 192 496 L 224 496 "/>
<path id="p265" fill="none" stroke="rgb(255,255,255)" stroke-width="0.75" d="M 384 256 L 384 512 M 256 384 L 512 384 "/>
<path id="p266" fill="none" stroke="rgb(0,0,0)" stroke-width="0.5" d="M 384 256 L 384 512 M 256 384 L 512 384 "/>
<path id="p267" fill="none" stroke="rgb(255,255,255)" stroke-width="0.75" d="M 320 256 L 320 384 M 256 320 L 384 320 "/>
<path id="p268" fill="none" stroke="rgb(0,0,0)" stroke-width="0.5" d="M 320 256 L 320 384 M 256 320 L 384 320 "/>
<path id="p269" fill="none" stroke="rgb(255,255,255)" stroke-width="0.75" d="M 288 256 L 288 320 M 256 288 L 320 288 "/>
<path id="p270" fill="none" stroke="rgb(0,0,0)" stroke-width="0.5" d="M 288 256 L 288 320 M 256 288 L 320 288 "/>
<path id="p271" fill="none" stroke="rgb(255,255,255)" stroke-width="0.75" d="M 272 256 L 272 288 M 256 272 L 288 272 "/>
<path id="p272" fill="none" stroke="rgb(0,0,0)" stroke-width="0.5" d="M 272 256 L 272 288 M 256 272 L 288 272 "/>
<path id="p273" fill="none" stroke="rgb(255,255,255)" stroke-width="0.75" d="M 304 256 L 304 288 M 288 272 L 320 272 "/>
<path id="p274" fill="none" stroke="rgb(0,0,0)" stroke-width="0.5" d="M 304 256 L 304 288 M 288 272 L 320 272 "/>
<path id="p275" fill="none" stroke="rgb(255,255,255)" stroke-width="0.75" d="M 304 288 L 304 320 M 288 304 L 320 304 "/>
<path id="p276" fill="none" stroke="rgb(0,0,0)" stroke-width="0.5" d="M 304 288 L 304 320 M 288 304 L 320 304 "/>
<path id="p277" fill="none" stroke="rgb(255,255,255)" stroke-width="0.75" d="M 352 256 L 352 320 M 320 288 L 384 288 "/>
<path id="p278" fill="none" stroke="rgb(0,0,0)" stroke-width="0.5" d="M 352 256 L 352 320 M 320 288 L 384 288 "/>
<path id="p279" fill="none" stroke="rgb(255,255,255)" stroke-width="0.75" d="M 336 288 L 336 320 M 320 304 L 352 304 "/>
<path id="p280" fill="none" stroke="rgb(0,0,0)" stroke-width="0.5" d="M 336 288 L 336 320 M 320 304 L 352 304 "/>
<path id="p281" fill="none" stroke="rgb(255,255,255)" stroke-width="0.75" d="M 352 320 L 352 384 M 320 352 L 384 352 "/>
<path id="p282" fill="none" stroke="rgb(0,0,0)" stroke-width="0.5" d="M 352 320 L 352 384 M 320 352 L 384 352 "/>
<path id="p283" fill="none" stroke="rgb(255,255,255)" stroke-width="0.75" d="M 336 320 L 336 352 M 320 336 L 352 336 "/>
<path id="p284" fill="none" stroke="rgb(0,0,0)" stroke-width="0.5" d="M 336 320 L 336 352 M 320 336 L 352 336 "/>
<path id="p285" fill="none" stroke="rgb(255,255,255)" stroke-width="0.75" d="M 368 320 L 368 352 M 352 336 L 384 336 "/>
<path id="p286" fill="none" stroke="rgb(0,0,0)" stroke-width="0.5" d="M 368 320 L 368 352 M 352 336 L 384 336 "/>
<path id="p287" fill="none" stroke="rgb(255,255,255)" stroke-width="0.75" d="M 368 352 L 368 384 M 352 368 L 384 368 "/>
<path id="p288" fill="none" stroke="rgb(0,0,0)" stroke-width="0.5" d="M 368 352 L 368 384 M 352 368 L 384 368 "/>
<path id="p289" fill="none" stroke="rgb(255,255,255)" stroke-width="0.75" d="M 448 256 L 448 384 M 384 320 L 512 320 "/>
<path id="p290" fill="none" stroke="rgb(0,0,0)" stroke-width="0.5" d="M 448 256 L 448 384 M 384 320 L 512 320 "/>
<path id="p291" fill="none" stroke="rgb(255,255,255)" stroke-width="0.75" d="M 480 256 L 480 320 M 448 288 L 512 288 "/>
<path id="p292" fill="none" stroke="rgb(0,0,0)" stroke-width="0.5" d="M 480 256 L 480 320 M 448 288 L 512 288 "/>
<path id="p293" fill="none" stroke="rgb(255,255,255)" stroke-width="0.75" d="M 496 256 L 496 288 M 480 272 L 512 272 "/>
<path id="p294" fill="none" stroke="rgb(0,0,0)" stroke-width="0.5" d="M 496 256 L 496 288 M 480 272 L 512 272 "/>
<path id="p295" fill="none" stroke="rgb(255,255,255)" stroke-width="0.75" d="M 496 288 L 496 320 M 480 304 L 512 304 "/>
<path id="p296" fill="none" stroke="rgb(0,0,0)" stroke-width="0.5" d="M 496 288 L 496 320 M 480 304 L 512 304 "/>
<path id="p297" fill="none" stroke="rgb(255,255,255)" stroke-width="0.75" d="M 416 320 L 416 384 M 384 352 L 448 352 "/>
<path id="p298" fill="none" stroke="rgb(0,0,0)" stroke-width="0.5" d="M 416 320 L 416 384 M 384 352 L 448 352 "/>
<path id="p299" fill="none" stroke="rgb(255,255,255)" stroke-width="0.75" d="M 400 352 L 400 384 M 384 368 L 416 368 "/>
<path id="p300" fill="none" stroke="rgb(0,0,0)" stroke-width="0.5" d="M 400 352 L 400 384 M 384 368 L 416 368 "/>
<path id="p301" fill="none" stroke="rgb(255,255,255)" stroke-width="0.75" d="M 432 352 L 432 384 M 416 368 L 448 368 "/>
<path id="p302" fill="none" stroke="rgb(0,0,0)" stroke-width="0.5" d="M 432 352 L 432 384 M 416 368 L 448 368 "/>
<path id="p303" fill="none" stroke="rgb(255,255,255)" stroke-width="0.75" d="M 480 320 L 480 384 M 448 352 L 512 352 "/>
<path id="p304" fill="none" stroke="rgb(0,0,0)" stroke-width="0.5" d="M 480 320 L 480 384 M 448 352 L 512 352 "/>
<path id="p305" fill="none" stroke="rgb(255,255,255)" stroke-width="0.75" d="M 464 320 L 464 352 M 448 336 L 480 336 "/>
<path id="p306" fill="none" stroke="rgb(0,0,0)" stroke-width="0.5" d="M 464 320 L 464 352 M 448 336 L 480 336 "/>
<path id="p307" fill="none" stroke="rgb(255,255,255)" stroke-width="0.75" d="M 464 352 L 464 384 M 448 368 L 480 368 "/>
<path id="p308" fill="none" stroke="rgb(0,0,0)" stroke-width="0.5" d="M 464 352 L 464 384 M 448 368 L 480 368 "/>
<path id="p309" fill="none" stroke="rgb(255,255,255)" stroke-width="0.75" d="M 320 384 L 320 512 M 256 448 L 384 448 "/>
<path id="p310" fill="none" stroke="rgb(0,0,0)" stroke-width="0.5" d="M 320 384 L 320 512 M 256 448 L 384 448 "/>
<path id="p311" fill="none" stroke="rgb(255,255,255)" stroke-width="0.75" d="M 352 384 L 352 448 M 320 416 L 384 416 "/>
<path id="p312" fill="none" stroke="rgb(0,0,0)" stroke-width="0.5" d="M 352 384 L 352 448 M 320 416 L 384 416 "/>
<path id="p313" fill="none" stroke="rgb(255,255,255)" stroke-width="0.75" d="M 336 416 L 336 448 M 320 432 L 352 432 "/>
<path id="p314" fill="none" stroke="rgb(0,0,0)" stroke-width="0.5" d="M 336 416 L 336 448 M 320 432 L 352 432 "/>
<path id="p315" fill="none" stroke="rgb(255,255,255)" stroke-width="0.75" d="M 368 416 L 368 448 M 352 432 L 384 432 "/>
<path id="p316" fill="none" stroke="rgb(0,0,0)" stroke-width="0.5" d="M 368 416 L 368 448 M 352 432 L 384 432 "/>
<path id="p317" fill="none" stroke="rgb(255,255,255)" stroke-width="0.75" d="M 288 448 L 288 512 M 256 480 L 320 480 "/>
<path id="p318" fill="none" stroke="rgb(0,0,0)" stroke-width="0.5" d="M 288 448 L 288 512 M 256 480 L 320 480 "/>
<path id="p319" fill="none" stroke="rgb(255,255,255)" stroke-width="0.75" d="M 272 448 L 272 480 M 256 464 L 288 464 "/>
<path id="p320" fill="none" stroke="rgb(0,0,0)" stroke-width="0.5" d="M 272 448 L 272 480 M 256 464 L 288 464 "/>
<path id="p321" fill="none" stroke="rgb(255,255,255)" stroke-width="0.75" d="M 304 448 L 304 480 M 288 464 L 320 464 "/>
<path id="p322" fill="none" stroke="rgb(0,0,0)" stroke-width="0.5" d="M 304 448 L 304 480 M 288 464 L 320 464 "/>
<path id="p323" fill="none" stroke="rgb(255,255,255)" stroke-width="0.75" d="M 352 448 L 352 512 M 320 480 L 384 480 "/>
<path id="p324" fill="none" stroke="rgb(0,0,0)" stroke-width="0.5" d="M 352 448 L 352 512 M 320 480 L 384 480 "/>
<path id="p325" fill="none" stroke="rgb(255,255,255)" stroke-width="0.75" d="M 336 448 L 336 480 M 320 464 L 352 464 "/>
<path id="p326" fill="none" stroke="rgb(0,0,0)" stroke-width="0.5" d="M 336 448 L 336 480 M 320 464 L 352 464 "/>
<path id="p327" fill="none" stroke="rgb(255,255,255)" stroke-width="0.75" d="M 368 448 L 368 480 M 352 464 L 384 464 "/>
<path id="p328" fill="none" stroke="rgb(0,0,0)" stroke-width="0.5" d="M 368 448 L 368 480 M 352 464 L 384 464 "/>
<path id="p329" fill="none" stroke="rgb(255,255,255)" stroke-width="0.75" d="M 336 480 L 336 512 M 320 496 L 352 496 "/>
<path id="p330" fill="none" stroke="rgb(0,0,0)" stroke-width="0.5" d="M 336 480 L 336 512 M 320 496 L 352 496 "/>
<path id="p331" fill="none" stroke="rgb(255,255,255)" stroke-width="0.75" d="M 448 384 L 448 512 M 384 448 L 512 448 "/>
<path id="p332" fill="none" stroke="rgb(0,0,0)" stroke-width="0.5" d="M 448 384 L 448 512 M 384 448 L 512 448 "/>
<path id="p333" fill="none" stroke="rgb(255,255,255)" stroke-width="0.75" d="M 416 384 L 416 448 M 384 416 L 448 416 "/>
<path id="p334" fill="none" stroke="rgb(0,0,0)" stroke-width="0.5" d="M 416 384 L 416 448 M 384 416 L 448 416 "/>
<path id="p335" fill="none" stroke="rgb(255,255,255)" stroke-width="0.75" d="M 432 384 L 432 416 M 416 400 L 448 400 "/>
<path id="p336" fill="none" stroke="rgb(0,0,0)" stroke-width="0.5" d="M 432 384 L 432 416 M 416 400 L 448 400 "/>
<path id="p337" fill="none" stroke="rgb(255,255,255)" stroke-width="0.75" d="M 400 416 L 400 448 M 384 432 L 416 432 "/>
<path id="p338" fill="none" stroke="rgb(0,0,0)" stroke-width="0.5" d="M 400 416 L 400 448 M 384 432 L 416 432 "/>
<path id="p339" fill="none" stroke="rgb(255,255,255)" stroke-width="0.75" d="M 432 416 L 432 448 M 416 432 L 448 432 "/>
<path id="p340" fill="none" stroke="rgb(0,0,0)" stroke-width="0.5" d="M 432 416 L 432 448 M 416 432 L 448 432 "/>
<path id="p341" fill="none" stroke="rgb(255,255,255)" stroke-width="0.75" d="M 480 384 L 480 448 M 448 416 L 512 416 "/>
<path id="p342" fill="none" stroke="rgb(0,0,0)" stroke-width="0.5" d="M 480 384 L 480 448 M 448 416 L 512 416 "/>
<path id="p343" fill="none" stroke="rgb(255,255,255)" stroke-width="0.75" d="M 464 384 L 464 416 M 448 400 L 480 400 "/>
<path id="p344" fill="none" stroke="rgb(0,0,0)" stroke-width="0.5" d="M 464 384 L 464 416 M 448 400 L 480 400 "/>
</g>
</svg>
