<?xml version="1.0" standalone="no"?>
<svg
    xmlns:xlink="http://www.w3.org/1999/xlink"
    xmlns:dc="http://purl.org/dc/elements/1.1/"
    xmlns:cc="http://creativecommons.org/ns#"
    xmlns:rdf="http://www.w3.org/1999/02/22-rdf-syntax-ns#"
    xmlns:svg="http://www.w3.org/2000/svg"
    xmlns="http://www.w3.org/2000/svg"
    version="1.1"
    viewBox="0 0 512 171">
<defs>
</defs>
<g transform="translate(0, 171) scale(1, -1)">
<path id="p1" fill="rgb(128,0,128)" d="M 85.333333333333 153.9 A 68.4 68.266666666317 90.000000000004 0 1 17.066666667017 85.5 68.4 68.266666666317 90.000000000026 0 1 26.212665768619 51.3 68.4 68.266666666317 90.000000000006 0 1 85.333333333333 17.1 68.4 68.266666666317 89.999999999991 0 1 144.45400089805 51.3 68.4 68.266666666317 89.999999999963 0 1 153.59999999965 85.5 68.4 68.266666666317 90.000000000004 0 1 85.333333333333 153.9 Z "/>
<path id="p2" fill="rgb(0,0,255)" fill-opacity="0.752941" d="M 170.66666666667 153.9 A 68.4 68.266666666317 90.000000000009 0 1 102.40000000035 85.5 68.4 68.266666666317 90.000000000032 0 1 111.54599910195 51.3 68.4 68.266666666317 89.999999999998 0 1 170.66666666667 17.1 68.4 68.266666666317 90.000000000013 0 1 229.78733423138 51.3 68.4 68.266666666317 89.999999999974 0 1 238.93333333298 85.5 68.4 68.266666666317 89.999999999991 0 1 170.66666666667 153.9 Z "/>
<path id="p3" fill="rgb(0,255,0)" fill-opacity="0.501961" d="M 256 153.9 A 68.4 68.266666666317 90 0 1 187.73333333368 85.5 68.4 68.266666666317 90.000000000026 0 1 196.87933243529 51.3 68.4 68.266666666317 90.000000000008 0 1 256 17.1 68.4 68.266666666317 89.999999999971 0 1 315.12066756471 51.3 68.4 68.266666666317 89.999999999997 0 1 324.26666666632 85.5 68.4 68.266666666317 89.999999999991 0 1 256 153.9 Z "/>
<path id="p4" fill="rgb(255,255,0)" fill-opacity="0.25098" d="M 341.33333333333 153.9 A 68.4 68.266666666317 90.000000000014 0 1 273.06666666702 85.5 68.4 68.266666666317 89.999999999979 0 1 282.21266576862 51.3 68.4 68.266666666317 90.000000000001 0 1 341.33333333333 17.1 68.4 68.266666666317 90.000000000029 0 1 400.45400089805 51.3 68.4 68.266666666317 89.999999999975 0 1 409.59999999965 85.5 68.4 68.266666666317 89.99999999999 0 1 341.33333333333 153.9 Z "/>
<path id="p5" fill="rgb(255,0,0)" fill-opacity="0.12549" d="M 426.66666666667 153.9 A 68.4 68.266666666317 90.000000000017 0 1 358.40000000035 85.5 68.4 68.266666666317 90.00000000005 0 1 367.54599910195 51.3 68.4 68.266666666317 90.000000000001 0 1 426.66666666667 17.1 68.4 68.266666666317 90.000000000029 0 1 485.78733423138 51.3 68.4 68.266666666317 90.00000000001 0 1 494.93333333298 85.5 68.4 68.266666666317 90 0 1 426.66666666667 153.9 Z "/>
<path id="p6" fill="none" stroke="rgb(255,255,255)" stroke-width="0.75" d="M 0 0 L 512 0 512 512 0 512 Z "/>
<path id="p7" fill="none" stroke="rgb(0,0,0)" stroke-width="0.5" d="M 0 0 L 512 0 512 512 0 512 Z "/>
<path id="p8" fill="none" stroke="rgb(255,255,255)" stroke-width="0.75" d="M 256 0 L 256 512 M 0 256 L 512 256 "/>
<path id="p9" fill="none" stroke="rgb(0,0,0)" stroke-width="0.5" d="M 256 0 L 256 512 M 0 256 L 512 256 "/>
<path id="p10" fill="none" stroke="rgb(255,255,255)" stroke-width="0.75" d="M 128 0 L 128 256 M 0 128 L 256 128 "/>
<path id="p11" fill="none" stroke="rgb(0,0,0)" stroke-width="0.5" d="M 128 0 L 128 256 M 0 128 L 256 128 "/>
<path id="p12" fill="none" stroke="rgb(255,255,255)" stroke-width="0.75" d="M 64 0 L 64 128 M 0 64 L 128 64 "/>
<path id="p13" fill="none" stroke="rgb(0,0,0)" stroke-width="0.5" d="M 64 0 L 64 128 M 0 64 L 128 64 "/>
<path id="p14" fill="none" stroke="rgb(255,255,255)" stroke-width="0.75" d="M 32 0 L 32 64 M 0 32 L 64 32 "/>
<path id="p15" fill="none" stroke="rgb(0,0,0)" stroke-width="0.5" d="M 32 0 L 32 64 M 0 32 L 64 32 "/>
<path id="p16" fill="none" stroke="rgb(255,255,255)" stroke-width="0.75" d="M 48 0 L 48 32 M 32 16 L 64 16 "/>
<path id="p17" fill="none" stroke="rgb(0,0,0)" stroke-width="0.5" d="M 48 0 L 48 32 M 32 16 L 64 16 "/>
<path id="p18" fill="none" stroke="rgb(255,255,255)" stroke-width="0.75" d="M 16 32 L 16 64 M 0 48 L 32 48 "/>
<path id="p19" fill="none" stroke="rgb(0,0,0)" stroke-width="0.5" d="M 16 32 L 16 64 M 0 48 L 32 48 "/>
<path id="p20" fill="none" stroke="rgb(255,255,255)" stroke-width="0.75" d="M 48 32 L 48 64 M 32 48 L 64 48 "/>
<path id="p21" fill="none" stroke="rgb(0,0,0)" stroke-width="0.5" d="M 48 32 L 48 64 M 32 48 L 64 48 "/>
<path id="p22" fill="none" stroke="rgb(255,255,255)" stroke-width="0.75" d="M 96 0 L 96 64 M 64 32 L 128 32 "/>
<path id="p23" fill="none" stroke="rgb(0,0,0)" stroke-width="0.5" d="M 96 0 L 96 64 M 64 32 L 128 32 "/>
<path id="p24" fill="none" stroke="rgb(255,255,255)" stroke-width="0.75" d="M 80 0 L 80 32 M 64 16 L 96 16 "/>
<path id="p25" fill="none" stroke="rgb(0,0,0)" stroke-width="0.5" d="M 80 0 L 80 32 M 64 16 L 96 16 "/>
<path id="p26" fill="none" stroke="rgb(255,255,255)" stroke-width="0.75" d="M 112 0 L 112 32 M 96 16 L 128 16 "/>
<path id="p27" fill="none" stroke="rgb(0,0,0)" stroke-width="0.5" d="M 112 0 L 112 32 M 96 16 L 128 16 "/>
<path id="p28" fill="none" stroke="rgb(255,255,255)" stroke-width="0.75" d="M 112 32 L 112 64 M 96 48 L 128 48 "/>
<path id="p29" fill="none" stroke="rgb(0,0,0)" stroke-width="0.5" d="M 112 32 L 112 64 M 96 48 L 128 48 "/>
<path id="p30" fill="none" stroke="rgb(255,255,255)" stroke-width="0.75" d="M 32 64 L 32 128 M 0 96 L 64 96 "/>
<path id="p31" fill="none" stroke="rgb(0,0,0)" stroke-width="0.5" d="M 32 64 L 32 128 M 0 96 L 64 96 "/>
<path id="p32" fill="none" stroke="rgb(255,255,255)" stroke-width="0.75" d="M 16 64 L 16 96 M 0 80 L 32 80 "/>
<path id="p33" fill="none" stroke="rgb(0,0,0)" stroke-width="0.5" d="M 16 64 L 16 96 M 0 80 L 32 80 "/>
<path id="p34" fill="none" stroke="rgb(255,255,255)" stroke-width="0.75" d="M 16 96 L 16 128 M 0 112 L 32 112 "/>
<path id="p35" fill="none" stroke="rgb(0,0,0)" stroke-width="0.5" d="M 16 96 L 16 128 M 0 112 L 32 112 "/>
<path id="p36" fill="none" stroke="rgb(255,255,255)" stroke-width="0.75" d="M 48 96 L 48 128 M 32 112 L 64 112 "/>
<path id="p37" fill="none" stroke="rgb(0,0,0)" stroke-width="0.5" d="M 48 96 L 48 128 M 32 112 L 64 112 "/>
<path id="p38" fill="none" stroke="rgb(255,255,255)" stroke-width="0.75" d="M 96 64 L 96 128 M 64 96 L 128 96 "/>
<path id="p39" fill="none" stroke="rgb(0,0,0)" stroke-width="0.5" d="M 96 64 L 96 128 M 64 96 L 128 96 "/>
<path id="p40" fill="none" stroke="rgb(255,255,255)" stroke-width="0.75" d="M 112 64 L 112 96 M 96 80 L 128 80 "/>
<path id="p41" fill="none" stroke="rgb(0,0,0)" stroke-width="0.5" d="M 112 64 L 112 96 M 96 80 L 128 80 "/>
<path id="p42" fill="none" stroke="rgb(255,255,255)" stroke-width="0.75" d="M 112 96 L 112 128 M 96 112 L 128 112 "/>
<path id="p43" fill="none" stroke="rgb(0,0,0)" stroke-width="0.5" d="M 112 96 L 112 128 M 96 112 L 128 112 "/>
<path id="p44" fill="none" stroke="rgb(255,255,255)" stroke-width="0.75" d="M 192 0 L 192 128 M 128 64 L 256 64 "/>
<path id="p45" fill="none" stroke="rgb(0,0,0)" stroke-width="0.5" d="M 192 0 L 192 128 M 128 64 L 256 64 "/>
<path id="p46" fill="none" stroke="rgb(255,255,255)" stroke-width="0.75" d="M 160 0 L 160 64 M 128 32 L 192 32 "/>
<path id="p47" fill="none" stroke="rgb(0,0,0)" stroke-width="0.5" d="M 160 0 L 160 64 M 128 32 L 192 32 "/>
<path id="p48" fill="none" stroke="rgb(255,255,255)" stroke-width="0.75" d="M 144 0 L 144 32 M 128 16 L 160 16 "/>
<path id="p49" fill="none" stroke="rgb(0,0,0)" stroke-width="0.5" d="M 144 0 L 144 32 M 128 16 L 160 16 "/>
<path id="p50" fill="none" stroke="rgb(255,255,255)" stroke-width="0.75" d="M 176 0 L 176 32 M 160 16 L 192 16 "/>
<path id="p51" fill="none" stroke="rgb(0,0,0)" stroke-width="0.5" d="M 176 0 L 176 32 M 160 16 L 192 16 "/>
<path id="p52" fill="none" stroke="rgb(255,255,255)" stroke-width="0.75" d="M 144 32 L 144 64 M 128 48 L 160 48 "/>
<path id="p53" fill="none" stroke="rgb(0,0,0)" stroke-width="0.5" d="M 144 32 L 144 64 M 128 48 L 160 48 "/>
<path id="p54" fill="none" stroke="rgb(255,255,255)" stroke-width="0.75" d="M 176 32 L 176 64 M 160 48 L 192 48 "/>
<path id="p55" fill="none" stroke="rgb(0,0,0)" stroke-width="0.5" d="M 176 32 L 176 64 M 160 48 L 192 48 "/>
<path id="p56" fill="none" stroke="rgb(255,255,255)" stroke-width="0.75" d="M 224 0 L 224 64 M 192 32 L 256 32 "/>
<path id="p57" fill="none" stroke="rgb(0,0,0)" stroke-width="0.5" d="M 224 0 L 224 64 M 192 32 L 256 32 "/>
<path id="p58" fill="none" stroke="rgb(255,255,255)" stroke-width="0.75" d="M 208 0 L 208 32 M 192 16 L 224 16 "/>
<path id="p59" fill="none" stroke="rgb(0,0,0)" stroke-width="0.5" d="M 208 0 L 208 32 M 192 16 L 224 16 "/>
<path id="p60" fill="none" stroke="rgb(255,255,255)" stroke-width="0.75" d="M 240 0 L 240 32 M 224 16 L 256 16 "/>
<path id="p61" fill="none" stroke="rgb(0,0,0)" stroke-width="0.5" d="M 240 0 L 240 32 M 224 16 L 256 16 "/>
<path id="p62" fill="none" stroke="rgb(255,255,255)" stroke-width="0.75" d="M 208 32 L 208 64 M 192 48 L 224 48 "/>
<path id="p63" fill="none" stroke="rgb(0,0,0)" stroke-width="0.5" d="M 208 32 L 208 64 M 192 48 L 224 48 "/>
<path id="p64" fill="none" stroke="rgb(255,255,255)" stroke-width="0.75" d="M 240 32 L 240 64 M 224 48 L 256 48 "/>
<path id="p65" fill="none" stroke="rgb(0,0,0)" stroke-width="0.5" d="M 240 32 L 240 64 M 224 48 L 256 48 "/>
<path id="p66" fill="none" stroke="rgb(255,255,255)" stroke-width="0.75" d="M 160 64 L 160 128 M 128 96 L 192 96 "/>
<path id="p67" fill="none" stroke="rgb(0,0,0)" stroke-width="0.5" d="M 160 64 L 160 128 M 128 96 L 192 96 "/>
<path id="p68" fill="none" stroke="rgb(255,255,255)" stroke-width="0.75" d="M 144 64 L 144 96 M 128 80 L 160 80 "/>
<path id="p69" fill="none" stroke="rgb(0,0,0)" stroke-width="0.5" d="M 144 64 L 144 96 M 128 80 L 160 80 "/>
<path id="p70" fill="none" stroke="rgb(255,255,255)" stroke-width="0.75" d="M 176 64 L 176 96 M 160 80 L 192 80 "/>
<path id="p71" fill="none" stroke="rgb(0,0,0)" stroke-width="0.5" d="M 176 64 L 176 96 M 160 80 L 192 80 "/>
<path id="p72" fill="none" stroke="rgb(255,255,255)" stroke-width="0.75" d="M 144 96 L 144 128 M 128 112 L 160 112 "/>
<path id="p73" fill="none" stroke="rgb(0,0,0)" stroke-width="0.5" d="M 144 96 L 144 128 M 128 112 L 160 112 "/>
<path id="p74" fill="none" stroke="rgb(255,255,255)" stroke-width="0.75" d="M 176 96 L 176 128 M 160 112 L 192 112 "/>
<path id="p75" fill="none" stroke="rgb(0,0,0)" stroke-width="0.5" d="M 176 96 L 176 128 M 160 112 L 192 112 "/>
<path id="p76" fill="none" stroke="rgb(255,255,255)" stroke-width="0.75" d="M 224 64 L 224 128 M 192 96 L 256 96 "/>
<path id="p77" fill="none" stroke="rgb(0,0,0)" stroke-width="0.5" d="M 224 64 L 224 128 M 192 96 L 256 96 "/>
<path id="p78" fill="none" stroke="rgb(255,255,255)" stroke-width="0.75" d="M 240 64 L 240 96 M 224 80 L 256 80 "/>
<path id="p79" fill="none" stroke="rgb(0,0,0)" stroke-width="0.5" d="M 240 64 L 240 96 M 224 80 L 256 80 "/>
<path id="p80" fill="none" stroke="rgb(255,255,255)" stroke-width="0.75" d="M 208 96 L 208 128 M 192 112 L 224 112 "/>
<path id="p81" fill="none" stroke="rgb(0,0,0)" stroke-width="0.5" d="M 208 96 L 208 128 M 192 112 L 224 112 "/>
<path id="p82" fill="none" stroke="rgb(255,255,255)" stroke-width="0.75" d="M 240 96 L 240 128 M 224 112 L 256 112 "/>
<path id="p83" fill="none" stroke="rgb(0,0,0)" stroke-width="0.5" d="M 240 96 L 240 128 M 224 112 L 256 112 "/>
<path id="p84" fill="none" stroke="rgb(255,255,255)" stroke-width="0.75" d="M 64 128 L 64 256 M 0 192 L 128 192 "/>
<path id="p85" fill="none" stroke="rgb(0,0,0)" stroke-width="0.5" d="M 64 128 L 64 256 M 0 192 L 128 192 "/>
<path id="p86" fill="none" stroke="rgb(255,255,255)" stroke-width="0.75" d="M 32 128 L 32 192 M 0 160 L 64 160 "/>
<path id="p87" fill="none" stroke="rgb(0,0,0)" stroke-width="0.5" d="M 32 128 L 32 192 M 0 160 L 64 160 "/>
<path id="p88" fill="none" stroke="rgb(255,255,255)" stroke-width="0.75" d="M 16 128 L 16 160 M 0 144 L 32 144 "/>
<path id="p89" fill="none" stroke="rgb(0,0,0)" stroke-width="0.5" d="M 16 128 L 16 160 M 0 144 L 32 144 "/>
<path id="p90" fill="none" stroke="rgb(255,255,255)" stroke-width="0.75" d="M 48 128 L 48 160 M 32 144 L 64 144 "/>
<path id="p91" fill="none" stroke="rgb(0,0,0)" stroke-width="0.5" d="M 48 128 L 48 160 M 32 144 L 64 144 "/>
<path id="p92" fill="none" stroke="rgb(255,255,255)" stroke-width="0.75" d="M 96 128 L 96 192 M 64 160 L 128 160 "/>
<path id="p93" fill="none" stroke="rgb(0,0,0)" stroke-width="0.5" d="M 96 128 L 96 192 M 64 160 L 128 160 "/>
<path id="p94" fill="none" stroke="rgb(255,255,255)" stroke-width="0.75" d="M 80 128 L 80 160 M 64 144 L 96 144 "/>
<path id="p95" fill="none" stroke="rgb(0,0,0)" stroke-width="0.5" d="M 80 128 L 80 160 M 64 144 L 96 144 "/>
<path id="p96" fill="none" stroke="rgb(255,255,255)" stroke-width="0.75" d="M 112 128 L 112 160 M 96 144 L 128 144 "/>
<path id="p97" fill="none" stroke="rgb(0,0,0)" stroke-width="0.5" d="M 112 128 L 112 160 M 96 144 L 128 144 "/>
<path id="p98" fill="none" stroke="rgb(255,255,255)" stroke-width="0.75" d="M 192 128 L 192 256 M 128 192 L 256 192 "/>
<path id="p99" fill="none" stroke="rgb(0,0,0)" stroke-width="0.5" d="M 192 128 L 192 256 M 128 192 L 256 192 "/>
<path id="p100" fill="none" stroke="rgb(255,255,255)" stroke-width="0.75" d="M 160 128 L 160 192 M 128 160 L 192 160 "/>
<path id="p101" fill="none" stroke="rgb(0,0,0)" stroke-width="0.5" d="M 160 128 L 160 192 M 128 160 L 192 160 "/>
<path id="p102" fill="none" stroke="rgb(255,255,255)" stroke-width="0.75" d="M 144 128 L 144 160 M 128 144 L 160 144 "/>
<path id="p103" fill="none" stroke="rgb(0,0,0)" stroke-width="0.5" d="M 144 128 L 144 160 M 128 144 L 160 144 "/>
<path id="p104" fill="none" stroke="rgb(255,255,255)" stroke-width="0.75" d="M 176 128 L 176 160 M 160 144 L 192 144 "/>
<path id="p105" fill="none" stroke="rgb(0,0,0)" stroke-width="0.5" d="M 176 128 L 176 160 M 160 144 L 192 144 "/>
<path id="p106" fill="none" stroke="rgb(255,255,255)" stroke-width="0.75" d="M 224 128 L 224 192 M 192 160 L 256 160 "/>
<path id="p107" fill="none" stroke="rgb(0,0,0)" stroke-width="0.5" d="M 224 128 L 224 192 M 192 160 L 256 160 "/>
<path id="p108" fill="none" stroke="rgb(255,255,255)" stroke-width="0.75" d="M 208 128 L 208 160 M 192 144 L 224 144 "/>
<path id="p109" fill="none" stroke="rgb(0,0,0)" stroke-width="0.5" d="M 208 128 L 208 160 M 192 144 L 224 144 "/>
<path id="p110" fill="none" stroke="rgb(255,255,255)" stroke-width="0.75" d="M 240 128 L 240 160 M 224 144 L 256 144 "/>
<path id="p111" fill="none" stroke="rgb(0,0,0)" stroke-width="0.5" d="M 240 128 L 240 160 M 224 144 L 256 144 "/>
<path id="p112" fill="none" stroke="rgb(255,255,255)" stroke-width="0.75" d="M 384 0 L 384 256 M 256 128 L 512 128 "/>
<path id="p113" fill="none" stroke="rgb(0,0,0)" stroke-width="0.5" d="M 384 0 L 384 256 M 256 128 L 512 128 "/>
<path id="p114" fill="none" stroke="rgb(255,255,255)" stroke-width="0.75" d="M 320 0 L 320 128 M 256 64 L 384 64 "/>
<path id="p115" fill="none" stroke="rgb(0,0,0)" stroke-width="0.5" d="M 320 0 L 320 128 M 256 64 L 384 64 "/>
<path id="p116" fill="none" stroke="rgb(255,255,255)" stroke-width="0.75" d="M 288 0 L 288 64 M 256 32 L 320 32 "/>
<path id="p117" fill="none" stroke="rgb(0,0,0)" stroke-width="0.5" d="M 288 0 L 288 64 M 256 32 L 320 32 "/>
<path id="p118" fill="none" stroke="rgb(255,255,255)" stroke-width="0.75" d="M 272 0 L 272 32 M 256 16 L 288 16 "/>
<path id="p119" fill="none" stroke="rgb(0,0,0)" stroke-width="0.5" d="M 272 0 L 272 32 M 256 16 L 288 16 "/>
<path id="p120" fill="none" stroke="rgb(255,255,255)" stroke-width="0.75" d="M 304 0 L 304 32 M 288 16 L 320 16 "/>
<path id="p121" fill="none" stroke="rgb(0,0,0)" stroke-width="0.5" d="M 304 0 L 304 32 M 288 16 L 320 16 "/>
<path id="p122" fill="none" stroke="rgb(255,255,255)" stroke-width="0.75" d="M 272 32 L 272 64 M 256 48 L 288 48 "/>
<path id="p123" fill="none" stroke="rgb(0,0,0)" stroke-width="0.5" d="M 272 32 L 272 64 M 256 48 L 288 48 "/>
<path id="p124" fill="none" stroke="rgb(255,255,255)" stroke-width="0.75" d="M 304 32 L 304 64 M 288 48 L 320 48 "/>
<path id="p125" fill="none" stroke="rgb(0,0,0)" stroke-width="0.5" d="M 304 32 L 304 64 M 288 48 L 320 48 "/>
<path id="p126" fill="none" stroke="rgb(255,255,255)" stroke-width="0.75" d="M 352 0 L 352 64 M 320 32 L 384 32 "/>
<path id="p127" fill="none" stroke="rgb(0,0,0)" stroke-width="0.5" d="M 352 0 L 352 64 M 320 32 L 384 32 "/>
<path id="p128" fill="none" stroke="rgb(255,255,255)" stroke-width="0.75" d="M 336 0 L 336 32 M 320 16 L 352 16 "/>
<path id="p129" fill="none" stroke="rgb(0,0,0)" stroke-width="0.5" d="M 336 0 L 336 32 M 320 16 L 352 16 "/>
<path id="p130" fill="none" stroke="rgb(255,255,255)" stroke-width="0.75" d="M 368 0 L 368 32 M 352 16 L 384 16 "/>
<path id="p131" fill="none" stroke="rgb(0,0,0)" stroke-width="0.5" d="M 368 0 L 368 32 M 352 16 L 384 16 "/>
<path id="p132" fill="none" stroke="rgb(255,255,255)" stroke-width="0.75" d="M 336 32 L 336 64 M 320 48 L 352 48 "/>
<path id="p133" fill="none" stroke="rgb(0,0,0)" stroke-width="0.5" d="M 336 32 L 336 64 M 320 48 L 352 48 "/>
<path id="p134" fill="none" stroke="rgb(255,255,255)" stroke-width="0.75" d="M 368 32 L 368 64 M 352 48 L 384 48 "/>
<path id="p135" fill="none" stroke="rgb(0,0,0)" stroke-width="0.5" d="M 368 32 L 368 64 M 352 48 L 384 48 "/>
<path id="p136" fill="none" stroke="rgb(255,255,255)" stroke-width="0.75" d="M 288 64 L 288 128 M 256 96 L 320 96 "/>
<path id="p137" fill="none" stroke="rgb(0,0,0)" stroke-width="0.5" d="M 288 64 L 288 128 M 256 96 L 320 96 "/>
<path id="p138" fill="none" stroke="rgb(255,255,255)" stroke-width="0.75" d="M 272 64 L 272 96 M 256 80 L 288 80 "/>
<path id="p139" fill="none" stroke="rgb(0,0,0)" stroke-width="0.5" d="M 272 64 L 272 96 M 256 80 L 288 80 "/>
<path id="p140" fill="none" stroke="rgb(255,255,255)" stroke-width="0.75" d="M 272 96 L 272 128 M 256 112 L 288 112 "/>
<path id="p141" fill="none" stroke="rgb(0,0,0)" stroke-width="0.5" d="M 272 96 L 272 128 M 256 112 L 288 112 "/>
<path id="p142" fill="none" stroke="rgb(255,255,255)" stroke-width="0.75" d="M 304 96 L 304 128 M 288 112 L 320 112 "/>
<path id="p143" fill="none" stroke="rgb(0,0,0)" stroke-width="0.5" d="M 304 96 L 304 128 M 288 112 L 320 112 "/>
<path id="p144" fill="none" stroke="rgb(255,255,255)" stroke-width="0.75" d="M 352 64 L 352 128 M 320 96 L 384 96 "/>
<path id="p145" fill="none" stroke="rgb(0,0,0)" stroke-width="0.5" d="M 352 64 L 352 128 M 320 96 L 384 96 "/>
<path id="p146" fill="none" stroke="rgb(255,255,255)" stroke-width="0.75" d="M 336 64 L 336 96 M 320 80 L 352 80 "/>
<path id="p147" fill="none" stroke="rgb(0,0,0)" stroke-width="0.5" d="M 336 64 L 336 96 M 320 80 L 352 80 "/>
<path id="p148" fill="none" stroke="rgb(255,255,255)" stroke-width="0.75" d="M 368 64 L 368 96 M 352 80 L 384 80 "/>
<path id="p149" fill="none" stroke="rgb(0,0,0)" stroke-width="0.5" d="M 368 64 L 368 96 M 352 80 L 384 80 "/>
<path id="p150" fill="none" stroke="rgb(255,255,255)" stroke-width="0.75" d="M 336 96 L 336 128 M 320 112 L 352 112 "/>
<path id="p151" fill="none" stroke="rgb(0,0,0)" stroke-width="0.5" d="M 336 96 L 336 128 M 320 112 L 352 112 "/>
<path id="p152" fill="none" stroke="rgb(255,255,255)" stroke-width="0.75" d="M 368 96 L 368 128 M 352 112 L 384 112 "/>
<path id="p153" fill="none" stroke="rgb(0,0,0)" stroke-width="0.5" d="M 368 96 L 368 128 M 352 112 L 384 112 "/>
<path id="p154" fill="none" stroke="rgb(255,255,255)" stroke-width="0.75" d="M 448 0 L 448 128 M 384 64 L 512 64 "/>
<path id="p155" fill="none" stroke="rgb(0,0,0)" stroke-width="0.5" d="M 448 0 L 448 128 M 384 64 L 512 64 "/>
<path id="p156" fill="none" stroke="rgb(255,255,255)" stroke-width="0.75" d="M 416 0 L 416 64 M 384 32 L 448 32 "/>
<path id="p157" fill="none" stroke="rgb(0,0,0)" stroke-width="0.5" d="M 416 0 L 416 64 M 384 32 L 448 32 "/>
<path id="p158" fill="none" stroke="rgb(255,255,255)" stroke-width="0.75" d="M 400 0 L 400 32 M 384 16 L 416 16 "/>
<path id="p159" fill="none" stroke="rgb(0,0,0)" stroke-width="0.5" d="M 400 0 L 400 32 M 384 16 L 416 16 "/>
<path id="p160" fill="none" stroke="rgb(255,255,255)" stroke-width="0.75" d="M 432 0 L 432 32 M 416 16 L 448 16 "/>
<path id="p161" fill="none" stroke="rgb(0,0,0)" stroke-width="0.5" d="M 432 0 L 432 32 M 416 16 L 448 16 "/>
<path id="p162" fill="none" stroke="rgb(255,255,255)" stroke-width="0.75" d="M 400 32 L 400 64 M 384 48 L 416 48 "/>
<path id="p163" fill="none" stroke="rgb(0,0,0)" stroke-width="0.5" d="M 400 32 L 400 64 M 384 48 L 416 48 "/>
<path id="p164" fill="none" stroke="rgb(255,255,255)" stroke-width="0.75" d="M 480 0 L 480 64 M 448 32 L 512 32 "/>
<path id="p165" fill="none" stroke="rgb(0,0,0)" stroke-width="0.5" d="M 480 0 L 480 64 M 448 32 L 512 32 "/>
<path id="p166" fill="none" stroke="rgb(255,255,255)" stroke-width="0.75" d="M 464 0 L 464 32 M 448 16 L 480 16 "/>
<path id="p167" fill="none" stroke="rgb(0,0,0)" stroke-width="0.5" d="M 464 0 L 464 32 M 448 16 L 480 16 "/>
<path id="p168" fill="none" stroke="rgb(255,255,255)" stroke-width="0.75" d="M 464 32 L 464 64 M 448 48 L 480 48 "/>
<path id="p169" fill="none" stroke="rgb(0,0,0)" stroke-width="0.5" d="M 464 32 L 464 64 M 448 48 L 480 48 "/>
<path id="p170" fill="none" stroke="rgb(255,255,255)" stroke-width="0.75" d="M 496 32 L 496 64 M 480 48 L 512 48 "/>
<path id="p171" fill="none" stroke="rgb(0,0,0)" stroke-width="0.5" d="M 496 32 L 496 64 M 480 48 L 512 48 "/>
<path id="p172" fill="none" stroke="rgb(255,255,255)" stroke-width="0.75" d="M 416 64 L 416 128 M 384 96 L 448 96 "/>
<path id="p173" fill="none" stroke="rgb(0,0,0)" stroke-width="0.5" d="M 416 64 L 416 128 M 384 96 L 448 96 "/>
<path id="p174" fill="none" stroke="rgb(255,255,255)" stroke-width="0.75" d="M 400 64 L 400 96 M 384 80 L 416 80 "/>
<path id="p175" fill="none" stroke="rgb(0,0,0)" stroke-width="0.5" d="M 400 64 L 400 96 M 384 80 L 416 80 "/>
<path id="p176" fill="none" stroke="rgb(255,255,255)" stroke-width="0.75" d="M 400 96 L 400 128 M 384 112 L 416 112 "/>
<path id="p177" fill="none" stroke="rgb(0,0,0)" stroke-width="0.5" d="M 400 96 L 400 128 M 384 112 L 416 112 "/>
<path id="p178" fill="none" stroke="rgb(255,255,255)" stroke-width="0.75" d="M 480 64 L 480 128 M 448 96 L 512 96 "/>
<path id="p179" fill="none" stroke="rgb(0,0,0)" stroke-width="0.5" d="M 480 64 L 480 128 M 448 96 L 512 96 "/>
<path id="p180" fill="none" stroke="rgb(255,255,255)" stroke-width="0.75" d="M 496 64 L 496 96 M 480 80 L 512 80 "/>
<path id="p181" fill="none" stroke="rgb(0,0,0)" stroke-width="0.5" d="M 496 64 L 496 96 M 480 80 L 512 80 "/>
<path id="p182" fill="none" stroke="rgb(255,255,255)" stroke-width="0.75" d="M 464 96 L 464 128 M 448 112 L 480 112 "/>
<path id="p183" fill="none" stroke="rgb(0,0,0)" stroke-width="0.5" d="M 464 96 L 464 128 M 448 112 L 480 112 "/>
<path id="p184" fill="none" stroke="rgb(255,255,255)" stroke-width="0.75" d="M 496 96 L 496 128 M 480 112 L 512 112 "/>
<path id="p185" fill="none" stroke="rgb(0,0,0)" stroke-width="0.5" d="M 496 96 L 496 128 M 480 112 L 512 112 "/>
<path id="p186" fill="none" stroke="rgb(255,255,255)" stroke-width="0.75" d="M 320 128 L 320 256 M 256 192 L 384 192 "/>
<path id="p187" fill="none" stroke="rgb(0,0,0)" stroke-width="0.5" d="M 320 128 L 320 256 M 256 192 L 384 192 "/>
<path id="p188" fill="none" stroke="rgb(255,255,255)" stroke-width="0.75" d="M 288 128 L 288 192 M 256 160 L 320 160 "/>
<path id="p189" fill="none" stroke="rgb(0,0,0)" stroke-width="0.5" d="M 288 128 L 288 192 M 256 160 L 320 160 "/>
<path id="p190" fill="none" stroke="rgb(255,255,255)" stroke-width="0.75" d="M 272 128 L 272 160 M 256 144 L 288 144 "/>
<path id="p191" fill="none" stroke="rgb(0,0,0)" stroke-width="0.5" d="M 272 128 L 272 160 M 256 144 L 288 144 "/>
<path id="p192" fill="none" stroke="rgb(255,255,255)" stroke-width="0.75" d="M 304 128 L 304 160 M 288 144 L 320 144 "/>
<path id="p193" fill="none" stroke="rgb(0,0,0)" stroke-width="0.5" d="M 304 128 L 304 160 M 288 144 L 320 144 "/>
<path id="p194" fill="none" stroke="rgb(255,255,255)" stroke-width="0.75" d="M 352 128 L 352 192 M 320 160 L 384 160 "/>
<path id="p195" fill="none" stroke="rgb(0,0,0)" stroke-width="0.5" d="M 352 128 L 352 192 M 320 160 L 384 160 "/>
<path id="p196" fill="none" stroke="rgb(255,255,255)" stroke-width="0.75" d="M 336 128 L 336 160 M 320 144 L 352 144 "/>
<path id="p197" fill="none" stroke="rgb(0,0,0)" stroke-width="0.5" d="M 336 128 L 336 160 M 320 144 L 352 144 "/>
<path id="p198" fill="none" stroke="rgb(255,255,255)" stroke-width="0.75" d="M 368 128 L 368 160 M 352 144 L 384 144 "/>
<path id="p199" fill="none" stroke="rgb(0,0,0)" stroke-width="0.5" d="M 368 128 L 368 160 M 352 144 L 384 144 "/>
<path id="p200" fill="none" stroke="rgb(255,255,255)" stroke-width="0.75" d="M 448 128 L 448 256 M 384 192 L 512 192 "/>
<path id="p201" fill="none" stroke="rgb(0,0,0)" stroke-width="0.5" d="M 448 128 L 448 256 M 384 192 L 512 192 "/>
<path id="p202" fill="none" stroke="rgb(255,255,255)" stroke-width="0.75" d="M 416 128 L 416 192 M 384 160 L 448 160 "/>
<path id="p203" fill="none" stroke="rgb(0,0,0)" stroke-width="0.5" d="M 416 128 L 416 192 M 384 160 L 448 160 "/>
<path id="p204" fill="none" stroke="rgb(255,255,255)" stroke-width="0.75" d="M 400 128 L 400 160 M 384 144 L 416 144 "/>
<path id="p205" fill="none" stroke="rgb(0,0,0)" stroke-width="0.5" d="M 400 128 L 400 160 M 384 144 L 416 144 "/>
<path id="p206" fill="none" stroke="rgb(255,255,255)" stroke-width="0.75" d="M 432 128 L 432 160 M 416 144 L 448 144 "/>
<path id="p207" fill="none" stroke="rgb(0,0,0)" stroke-width="0.5" d="M 432 128 L 432 160 M 416 144 L 448 144 "/>
<path id="p208" fill="none" stroke="rgb(255,255,255)" stroke-width="0.75" d="M 480 128 L 480 192 M 448 160 L 512 160 "/>
<path id="p209" fill="none" stroke="rgb(0,0,0)" stroke-width="0.5" d="M 480 128 L 480 192 M 448 160 L 512 160 "/>
<path id="p210" fill="none" stroke="rgb(255,255,255)" stroke-width="0.75" d="M 464 128 L 464 160 M 448 144 L 480 144 "/>
<path id="p211" fill="none" stroke="rgb(0,0,0)" stroke-width="0.5" d="M 464 128 L 464 160 M 448 144 L 480 144 "/>
<path id="p212" fill="none" stroke="rgb(255,255,255)" stroke-width="0.75" d="M 496 128 L 496 160 M 480 144 L 512 144 "/>
<path id="p213" fill="none" stroke="rgb(0,0,0)" stroke-width="0.5" d="M 496 128 L 496 160 M 480 144 L 512 144 "/>
</g>
</svg>
