<?xml version="1.0" standalone="no"?>
<svg
    xmlns:xlink="http://www.w3.org/1999/xlink"
    xmlns:dc="http://purl.org/dc/elements/1.1/"
    xmlns:cc="http://creativecommons.org/ns#"
    xmlns:rdf="http://www.w3.org/1999/02/22-rdf-syntax-ns#"
    xmlns:svg="http://www.w3.org/2000/svg"
    xmlns="http://www.w3.org/2000/svg"
    version="1.1"
    viewBox="0 0 512 171">
<defs>
</defs>
<g transform="translate(0, 171) scale(1, -1)">
<path id="p1" fill="rgb(128,0,128)" d="M 85.333333333333 153.9 A 68.4 68.266666666317 90.000000000004 0 1 17.066666667017 85.5 68.4 68.266666666317 90.000000000026 0 1 26.212665768619 51.3 68.4 68.266666666317 90.000000000006 0 1 85.333333333333 17.1 68.4 68.266666666317 89.999999999991 0 1 144.45400089805 51.3 68.4 68.266666666317 89.999999999963 0 1 153.59999999965 85.5 68.4 68.266666666317 90.000000000004 0 1 85.333333333333 153.9 Z "/>
<path id="p2" fill="rgb(0,0,255)" fill-opacity="0.752941" d="M 170.66666666667 153.9 A 68.4 68.266666666317 90.000000000009 0 1 102.40000000035 85.5 68.4 68.266666666317 90.000000000032 0 1 111.54599910195 51.3 68.4 68.266666666317 89.999999999998 0 1 170.66666666667 17.1 68.4 68.266666666317 90.000000000013 0 1 229.78733423138 51.3 68.4 68.266666666317 89.999999999974 0 1 238.93333333298 85.5 68.4 68.266666666317 89.999999999991 0 1 170.66666666667 153.9 Z "/>
<path id="p3" fill="rgb(0,255,0)" fill-opacity="0.501961" d="M 256 153.9 A 68.4 68.266666666317 90 0 1 187.73333333368 85.5 68.4 68.266666666317 90.000000000026 0 1 196.87933243529 51.3 68.4 68.266666666317 90.000000000008 0 1 256 17.1 68.4 68.266666666317 89.999999999971 0 1 315.12066756471 51.3 68.4 68.266666666317 89.999999999997 0 1 324.26666666632 85.5 68.4 68.266666666317 89.999999999991 0 1 256 153.9 Z "/>
<path id="p4" fill="rgb(255,255,0)" fill-opacity="0.25098" d="M 341.33333333333 153.9 A 68.4 68.266666666317 90.000000000014 0 1 273.06666666702 85.5 68.4 68.266666666317 89.999999999979 0 1 282.21266576862 51.3 68.4 68.266666666317 90.000000000001 0 1 341.33333333333 17.1 68.4 68.266666666317 90.000000000029 0 1 400.45400089805 51.3 68.4 68.266666666317 89.999999999975 0 1 409.59999999965 85.5 68.4 68.266666666317 89.99999999999 0 1 341.33333333333 153.9 Z "/>
<path id="p5" fill="rgb(255,0,0)" fill-opacity="0.12549" d="M 426.66666666667 153.9 A 68.4 68.266666666317 90.000000000017 0 1 358.40000000035 85.5 68.4 68.266666666317 90.00000000005 0 1 367.54599910195 51.3 68.4 68.266666666317 90.000000000001 0 1 426.66666666667 17.1 68.4 68.266666666317 90.000000000029 0 1 485.78733423138 51.3 68.4 68.266666666317 90.00000000001 0 1 494.93333333298 85.5 68.4 68.266666666317 90 0 1 426.66666666667 153.9 Z "/>
<path id="p6" fill="none" stroke="rgb(255,255,255)" stroke-width="0.75" d="M 0 0 L 512 0 512 512 0 512 Z "/>
<path id="p7" fill="none" stroke="rgb(0,0,0)" stroke-width="0.5" d="M 0 0 L 512 0 512 512 0 512 Z "/>
<path id="p8" fill="none" stroke="rgb(255,255,255)" stroke-width="0.75" d="M 256 0 L 256 512 M 0 256 L 512 256 "/>
<path id="p9" fill="none" stroke="rgb(0,0,0)" stroke-width="0.5" d="M 256 0 L 256 512 M 0 256 L 512 256 "/>
<path id="p10" fill="none" stroke="rgb(255,255,255)" stroke-width="0.75" d="M 128 0 L 128 256 M 0 128 L 256 128 "/>
<path id="p11" fill="none" stroke="rgb(0,0,0)" stroke-width="0.5" d="M 128 0 L 128 256 M 0 128 L 256 128 "/>
<path id="p12" fill="none" stroke="rgb(255,255,255)" stroke-width="0.75" d="M 64 0 L 64 128 M 0 64 L 128 64 "/>
<path id="p13" fill="none" stroke="rgb(0,0,0)" stroke-width="0.5" d="M 64 0 L 64 128 M 0 64 L 128 64 "/>
<path id="p14" fill="none" stroke="rgb(255,255,255)" stroke-width="0.75" d="M 192 0 L 192 128 M 128 64 L 256 64 "/>
<path id="p15" fill="none" stroke="rgb(0,0,0)" stroke-width="0.5" d="M 192 0 L 192 128 M 128 64 L 256 64 "/>
<path id="p16" fill="none" stroke="rgb(255,255,255)" stroke-width="0.75" d="M 64 128 L 64 256 M 0 192 L 128 192 "/>
<path id="p17" fill="none" stroke="rgb(0,0,0)" stroke-width="0.5" d="M 64 128 L 64 256 M 0 192 L 128 192 "/>
<path id="p18" fill="none" stroke="rgb(255,255,255)" stroke-width="0.75" d="M 192 128 L 192 256 M 128 192 L 256 192 "/>
<path id="p19" fill="none" stroke="rgb(0,0,0)" stroke-width="0.5" d="M 192 128 L 192 256 M 128 192 L 256 192 "/>
<path id="p20" fill="none" stroke="rgb(255,255,255)" stroke-width="0.75" d="M 384 0 L 384 256 M 256 128 L 512 128 "/>
<path id="p21" fill="none" stroke="rgb(0,0,0)" stroke-width="0.5" d="M 384 0 L 384 256 M 256 128 L 512 128 "/>
<path id="p22" fill="none" stroke="rgb(255,255,255)" stroke-width="0.75" d="M 320 0 L 320 128 M 256 64 L 384 64 "/>
<path id="p23" fill="none" stroke="rgb(0,0,0)" stroke-width="0.5" d="M 320 0 L 320 128 M 256 64 L 384 64 "/>
<path id="p24" fill="none" stroke="rgb(255,255,255)" stroke-width="0.75" d="M 448 0 L 448 128 M 384 64 L 512 64 "/>
<path id="p25" fill="none" stroke="rgb(0,0,0)" stroke-width="0.5" d="M 448 0 L 448 128 M 384 64 L 512 64 "/>
<path id="p26" fill="none" stroke="rgb(255,255,255)" stroke-width="0.75" d="M 320 128 L 320 256 M 256 192 L 384 192 "/>
<path id="p27" fill="none" stroke="rgb(0,0,0)" stroke-width="0.5" d="M 320 128 L 320 256 M 256 192 L 384 192 "/>
<path id="p28" fill="none" stroke="rgb(255,255,255)" stroke-width="0.75" d="M 448 128 L 448 256 M 384 192 L 512 192 "/>
<path id="p29" fill="none" stroke="rgb(0,0,0)" stroke-width="0.5" d="M 448 128 L 448 256 M 384 192 L 512 192 "/>
</g>
</svg>
