<?xml version="1.0" standalone="no"?>
<svg
    xmlns:xlink="http://www.w3.org/1999/xlink"
    xmlns:dc="http://purl.org/dc/elements/1.1/"
    xmlns:cc="http://creativecommons.org/ns#"
    xmlns:rdf="http://www.w3.org/1999/02/22-rdf-syntax-ns#"
    xmlns:svg="http://www.w3.org/2000/svg"
    xmlns="http://www.w3.org/2000/svg"
    version="1.1"
    viewBox="0 0 512 512">
<defs>
</defs>
<g transform="translate(0, 512) scale(1, -1)">
<path id="p1" fill="rgb(255,0,0)" d="M 0 0 L 256 256 512 0 0 0 Z "/>
<path id="p2" fill="none" stroke="rgb(255,255,255)" stroke-width="0.75" d="M 0 0 L 512 0 512 512 0 512 Z "/>
<path id="p3" fill="none" stroke="rgb(0,0,0)" stroke-width="0.5" d="M 0 0 L 512 0 512 512 0 512 Z "/>
<path id="p4" fill="none" stroke="rgb(255,255,255)" stroke-width="0.75" d="M 256 0 L 256 512 M 0 256 L 512 256 "/>
<path id="p5" fill="none" stroke="rgb(0,0,0)" stroke-width="0.5" d="M 256 0 L 256 512 M 0 256 L 512 256 "/>
<path id="p6" fill="none" stroke="rgb(255,255,255)" stroke-width="0.75" d="M 128 0 L 128 256 M 0 128 L 256 128 "/>
<path id="p7" fill="none" stroke="rgb(0,0,0)" stroke-width="0.5" d="M 128 0 L 128 256 M 0 128 L 256 128 "/>
<path id="p8" fill="none" stroke="rgb(255,255,255)" stroke-width="0.75" d="M 192 0 L 192 128 M 128 64 L 256 64 "/>
<path id="p9" fill="none" stroke="rgb(0,0,0)" stroke-width="0.5" d="M 192 0 L 192 128 M 128 64 L 256 64 "/>
<path id="p10" fill="none" stroke="rgb(255,255,255)" stroke-width="0.75" d="M 160 64 L 160 128 M 128 96 L 192 96 "/>
<path id="p11" fill="none" stroke="rgb(0,0,0)" stroke-width="0.5" d="M 160 64 L 160 128 M 128 96 L 192 96 "/>
<path id="p12" fill="none" stroke="rgb(255,255,255)" stroke-width="0.75" d="M 192 128 L 192 256 M 128 192 L 256 192 "/>
<path id="p13" fill="none" stroke="rgb(0,0,0)" stroke-width="0.5" d="M 192 128 L 192 256 M 128 192 L 256 192 "/>
<path id="p14" fill="none" stroke="rgb(255,255,255)" stroke-width="0.75" d="M 224 128 L 224 192 M 192 160 L 256 160 "/>
<path id="p15" fill="none" stroke="rgb(0,0,0)" stroke-width="0.5" d="M 224 128 L 224 192 M 192 160 L 256 160 "/>
<path id="p16" fill="none" stroke="rgb(255,255,255)" stroke-width="0.75" d="M 224 192 L 224 256 M 192 224 L 256 224 "/>
<path id="p17" fill="none" stroke="rgb(0,0,0)" stroke-width="0.5" d="M 224 192 L 224 256 M 192 224 L 256 224 "/>
<path id="p18" fill="none" stroke="rgb(255,255,255)" stroke-width="0.75" d="M 384 0 L 384 256 M 256 128 L 512 128 "/>
<path id="p19" fill="none" stroke="rgb(0,0,0)" stroke-width="0.5" d="M 384 0 L 384 256 M 256 128 L 512 128 "/>
<path id="p20" fill="none" stroke="rgb(255,255,255)" stroke-width="0.75" d="M 320 0 L 320 128 M 256 64 L 384 64 "/>
<path id="p21" fill="none" stroke="rgb(0,0,0)" stroke-width="0.5" d="M 320 0 L 320 128 M 256 64 L 384 64 "/>
<path id="p22" fill="none" stroke="rgb(255,255,255)" stroke-width="0.75" d="M 352 64 L 352 128 M 320 96 L 384 96 "/>
<path id="p23" fill="none" stroke="rgb(0,0,0)" stroke-width="0.5" d="M 352 64 L 352 128 M 320 96 L 384 96 "/>
<path id="p24" fill="none" stroke="rgb(255,255,255)" stroke-width="0.75" d="M 320 128 L 320 256 M 256 192 L 384 192 "/>
<path id="p25" fill="none" stroke="rgb(0,0,0)" stroke-width="0.5" d="M 320 128 L 320 256 M 256 192 L 384 192 "/>
<path id="p26" fill="none" stroke="rgb(255,255,255)" stroke-width="0.75" d="M 288 128 L 288 192 M 256 160 L 320 160 "/>
<path id="p27" fill="none" stroke="rgb(0,0,0)" stroke-width="0.5" d="M 288 128 L 288 192 M 256 160 L 320 160 "/>
<path id="p28" fill="none" stroke="rgb(255,255,255)" stroke-width="0.75" d="M 288 192 L 288 256 M 256 224 L 320 224 "/>
<path id="p29" fill="none" stroke="rgb(0,0,0)" stroke-width="0.5" d="M 288 192 L 288 256 M 256 224 L 320 224 "/>
<path id="p30" fill="none" stroke="rgb(255,255,255)" stroke-width="0.75" d="M 128 256 L 128 512 M 0 384 L 256 384 "/>
<path id="p31" fill="none" stroke="rgb(0,0,0)" stroke-width="0.5" d="M 128 256 L 128 512 M 0 384 L 256 384 "/>
<path id="p32" fill="none" stroke="rgb(255,255,255)" stroke-width="0.75" d="M 192 256 L 192 384 M 128 320 L 256 320 "/>
<path id="p33" fill="none" stroke="rgb(0,0,0)" stroke-width="0.5" d="M 192 256 L 192 384 M 128 320 L 256 320 "/>
<path id="p34" fill="none" stroke="rgb(255,255,255)" stroke-width="0.75" d="M 224 256 L 224 320 M 192 288 L 256 288 "/>
<path id="p35" fill="none" stroke="rgb(0,0,0)" stroke-width="0.5" d="M 224 256 L 224 320 M 192 288 L 256 288 "/>
<path id="p36" fill="none" stroke="rgb(255,255,255)" stroke-width="0.75" d="M 384 256 L 384 512 M 256 384 L 512 384 "/>
<path id="p37" fill="none" stroke="rgb(0,0,0)" stroke-width="0.5" d="M 384 256 L 384 512 M 256 384 L 512 384 "/>
<path id="p38" fill="none" stroke="rgb(255,255,255)" stroke-width="0.75" d="M 320 256 L 320 384 M 256 320 L 384 320 "/>
<path id="p39" fill="none" stroke="rgb(0,0,0)" stroke-width="0.5" d="M 320 256 L 320 384 M 256 320 L 384 320 "/>
<path id="p40" fill="none" stroke="rgb(255,255,255)" stroke-width="0.75" d="M 288 256 L 288 320 M 256 288 L 320 288 "/>
<path id="p41" fill="none" stroke="rgb(0,0,0)" stroke-width="0.5" d="M 288 256 L 288 320 M 256 288 L 320 288 "/>
</g>
</svg>
