<?xml version="1.0" standalone="no"?>
<svg
    xmlns:xlink="http://www.w3.org/1999/xlink"
    xmlns:dc="http://purl.org/dc/elements/1.1/"
    xmlns:cc="http://creativecommons.org/ns#"
    xmlns:rdf="http://www.w3.org/1999/02/22-rdf-syntax-ns#"
    xmlns:svg="http://www.w3.org/2000/svg"
    xmlns="http://www.w3.org/2000/svg"
    version="1.1"
    viewBox="0 0 512 512">
<defs>
</defs>
<g transform="translate(0, 512) scale(1, -1)">
<path id="p1" fill="rgb(255,0,0)" d="M 0 0 L 256 256 512 0 0 0 Z "/>
<path id="p2" fill="none" stroke="rgb(255,255,255)" stroke-width="0.75" d="M 0 0 L 512 0 512 512 0 512 Z "/>
<path id="p3" fill="none" stroke="rgb(0,0,0)" stroke-width="0.5" d="M 0 0 L 512 0 512 512 0 512 Z "/>
<path id="p4" fill="none" stroke="rgb(255,255,255)" stroke-width="0.75" d="M 256 0 L 256 512 M 0 256 L 512 256 "/>
<path id="p5" fill="none" stroke="rgb(0,0,0)" stroke-width="0.5" d="M 256 0 L 256 512 M 0 256 L 512 256 "/>
<path id="p6" fill="none" stroke="rgb(255,255,255)" stroke-width="0.75" d="M 128 0 L 128 256 M 0 128 L 256 128 "/>
<path id="p7" fill="none" stroke="rgb(0,0,0)" stroke-width="0.5" d="M 128 0 L 128 256 M 0 128 L 256 128 "/>
<path id="p8" fill="none" stroke="rgb(255,255,255)" stroke-width="0.75" d="M 192 0 L 192 128 M 128 64 L 256 64 "/>
<path id="p9" fill="none" stroke="rgb(0,0,0)" stroke-width="0.5" d="M 192 0 L 192 128 M 128 64 L 256 64 "/>
<path id="p10" fill="none" stroke="rgb(255,255,255)" stroke-width="0.75" d="M 160 64 L 160 128 M 128 96 L 192 96 "/>
<path id="p11" fill="none" stroke="rgb(0,0,0)" stroke-width="0.5" d="M 160 64 L 160 128 M 128 96 L 192 96 "/>
<path id="p12" fill="none" stroke="rgb(255,255,255)" stroke-width="0.75" d="M 144 96 L 144 128 M 128 112 L 160 112 "/>
<path id="p13" fill="none" stroke="rgb(0,0,0)" stroke-width="0.5" d="M 144 96 L 144 128 M 128 112 L 160 112 "/>
<path id="p14" fill="none" stroke="rgb(255,255,255)" stroke-width="0.75" d="M 136 112 L 136 128 M 128 120 L 144 120 "/>
<path id="p15" fill="none" stroke="rgb(0,0,0)" stroke-width="0.5" d="M 136 112 L 136 128 M 128 120 L 144 120 "/>
<path id="p16" fill="none" stroke="rgb(255,255,255)" stroke-width="0.75" d="M 132 120 L 132 128 M 128 124 L 136 124 "/>
<path id="p17" fill="none" stroke="rgb(0,0,0)" stroke-width="0.5" d="M 132 120 L 132 128 M 128 124 L 136 124 "/>
<path id="p18" fill="none" stroke="rgb(255,255,255)" stroke-width="0.75" d="M 192 128 L 192 256 M 128 192 L 256 192 "/>
<path id="p19" fill="none" stroke="rgb(0,0,0)" stroke-width="0.5" d="M 192 128 L 192 256 M 128 192 L 256 192 "/>
<path id="p20" fill="none" stroke="rgb(255,255,255)" stroke-width="0.75" d="M 224 128 L 224 192 M 192 160 L 256 160 "/>
<path id="p21" fill="none" stroke="rgb(0,0,0)" stroke-width="0.5" d="M 224 128 L 224 192 M 192 160 L 256 160 "/>
<path id="p22" fill="none" stroke="rgb(255,255,255)" stroke-width="0.75" d="M 208 160 L 208 192 M 192 176 L 224 176 "/>
<path id="p23" fill="none" stroke="rgb(0,0,0)" stroke-width="0.5" d="M 208 160 L 208 192 M 192 176 L 224 176 "/>
<path id="p24" fill="none" stroke="rgb(255,255,255)" stroke-width="0.75" d="M 200 176 L 200 192 M 192 184 L 208 184 "/>
<path id="p25" fill="none" stroke="rgb(0,0,0)" stroke-width="0.5" d="M 200 176 L 200 192 M 192 184 L 208 184 "/>
<path id="p26" fill="none" stroke="rgb(255,255,255)" stroke-width="0.75" d="M 196 184 L 196 192 M 192 188 L 200 188 "/>
<path id="p27" fill="none" stroke="rgb(0,0,0)" stroke-width="0.5" d="M 196 184 L 196 192 M 192 188 L 200 188 "/>
<path id="p28" fill="none" stroke="rgb(255,255,255)" stroke-width="0.75" d="M 224 192 L 224 256 M 192 224 L 256 224 "/>
<path id="p29" fill="none" stroke="rgb(0,0,0)" stroke-width="0.5" d="M 224 192 L 224 256 M 192 224 L 256 224 "/>
<path id="p30" fill="none" stroke="rgb(255,255,255)" stroke-width="0.75" d="M 240 192 L 240 224 M 224 208 L 256 208 "/>
<path id="p31" fill="none" stroke="rgb(0,0,0)" stroke-width="0.5" d="M 240 192 L 240 224 M 224 208 L 256 208 "/>
<path id="p32" fill="none" stroke="rgb(255,255,255)" stroke-width="0.75" d="M 232 208 L 232 224 M 224 216 L 240 216 "/>
<path id="p33" fill="none" stroke="rgb(0,0,0)" stroke-width="0.5" d="M 232 208 L 232 224 M 224 216 L 240 216 "/>
<path id="p34" fill="none" stroke="rgb(255,255,255)" stroke-width="0.75" d="M 228 216 L 228 224 M 224 220 L 232 220 "/>
<path id="p35" fill="none" stroke="rgb(0,0,0)" stroke-width="0.5" d="M 228 216 L 228 224 M 224 220 L 232 220 "/>
<path id="p36" fill="none" stroke="rgb(255,255,255)" stroke-width="0.75" d="M 240 224 L 240 256 M 224 240 L 256 240 "/>
<path id="p37" fill="none" stroke="rgb(0,0,0)" stroke-width="0.5" d="M 240 224 L 240 256 M 224 240 L 256 240 "/>
<path id="p38" fill="none" stroke="rgb(255,255,255)" stroke-width="0.75" d="M 248 224 L 248 240 M 240 232 L 256 232 "/>
<path id="p39" fill="none" stroke="rgb(0,0,0)" stroke-width="0.5" d="M 248 224 L 248 240 M 240 232 L 256 232 "/>
<path id="p40" fill="none" stroke="rgb(255,255,255)" stroke-width="0.75" d="M 244 232 L 244 240 M 240 236 L 248 236 "/>
<path id="p41" fill="none" stroke="rgb(0,0,0)" stroke-width="0.5" d="M 244 232 L 244 240 M 240 236 L 248 236 "/>
<path id="p42" fill="none" stroke="rgb(255,255,255)" stroke-width="0.75" d="M 248 240 L 248 256 M 240 248 L 256 248 "/>
<path id="p43" fill="none" stroke="rgb(0,0,0)" stroke-width="0.5" d="M 248 240 L 248 256 M 240 248 L 256 248 "/>
<path id="p44" fill="none" stroke="rgb(255,255,255)" stroke-width="0.75" d="M 252 240 L 252 248 M 248 244 L 256 244 "/>
<path id="p45" fill="none" stroke="rgb(0,0,0)" stroke-width="0.5" d="M 252 240 L 252 248 M 248 244 L 256 244 "/>
<path id="p46" fill="none" stroke="rgb(255,255,255)" stroke-width="0.75" d="M 252 248 L 252 256 M 248 252 L 256 252 "/>
<path id="p47" fill="none" stroke="rgb(0,0,0)" stroke-width="0.5" d="M 252 248 L 252 256 M 248 252 L 256 252 "/>
<path id="p48" fill="none" stroke="rgb(255,255,255)" stroke-width="0.75" d="M 384 0 L 384 256 M 256 128 L 512 128 "/>
<path id="p49" fill="none" stroke="rgb(0,0,0)" stroke-width="0.5" d="M 384 0 L 384 256 M 256 128 L 512 128 "/>
<path id="p50" fill="none" stroke="rgb(255,255,255)" stroke-width="0.75" d="M 320 0 L 320 128 M 256 64 L 384 64 "/>
<path id="p51" fill="none" stroke="rgb(0,0,0)" stroke-width="0.5" d="M 320 0 L 320 128 M 256 64 L 384 64 "/>
<path id="p52" fill="none" stroke="rgb(255,255,255)" stroke-width="0.75" d="M 352 64 L 352 128 M 320 96 L 384 96 "/>
<path id="p53" fill="none" stroke="rgb(0,0,0)" stroke-width="0.5" d="M 352 64 L 352 128 M 320 96 L 384 96 "/>
<path id="p54" fill="none" stroke="rgb(255,255,255)" stroke-width="0.75" d="M 368 96 L 368 128 M 352 112 L 384 112 "/>
<path id="p55" fill="none" stroke="rgb(0,0,0)" stroke-width="0.5" d="M 368 96 L 368 128 M 352 112 L 384 112 "/>
<path id="p56" fill="none" stroke="rgb(255,255,255)" stroke-width="0.75" d="M 376 112 L 376 128 M 368 120 L 384 120 "/>
<path id="p57" fill="none" stroke="rgb(0,0,0)" stroke-width="0.5" d="M 376 112 L 376 128 M 368 120 L 384 120 "/>
<path id="p58" fill="none" stroke="rgb(255,255,255)" stroke-width="0.75" d="M 380 120 L 380 128 M 376 124 L 384 124 "/>
<path id="p59" fill="none" stroke="rgb(0,0,0)" stroke-width="0.5" d="M 380 120 L 380 128 M 376 124 L 384 124 "/>
<path id="p60" fill="none" stroke="rgb(255,255,255)" stroke-width="0.75" d="M 320 128 L 320 256 M 256 192 L 384 192 "/>
<path id="p61" fill="none" stroke="rgb(0,0,0)" stroke-width="0.5" d="M 320 128 L 320 256 M 256 192 L 384 192 "/>
<path id="p62" fill="none" stroke="rgb(255,255,255)" stroke-width="0.75" d="M 288 128 L 288 192 M 256 160 L 320 160 "/>
<path id="p63" fill="none" stroke="rgb(0,0,0)" stroke-width="0.5" d="M 288 128 L 288 192 M 256 160 L 320 160 "/>
<path id="p64" fill="none" stroke="rgb(255,255,255)" stroke-width="0.75" d="M 304 160 L 304 192 M 288 176 L 320 176 "/>
<path id="p65" fill="none" stroke="rgb(0,0,0)" stroke-width="0.5" d="M 304 160 L 304 192 M 288 176 L 320 176 "/>
<path id="p66" fill="none" stroke="rgb(255,255,255)" stroke-width="0.75" d="M 312 176 L 312 192 M 304 184 L 320 184 "/>
<path id="p67" fill="none" stroke="rgb(0,0,0)" stroke-width="0.5" d="M 312 176 L 312 192 M 304 184 L 320 184 "/>
<path id="p68" fill="none" stroke="rgb(255,255,255)" stroke-width="0.75" d="M 316 184 L 316 192 M 312 188 L 320 188 "/>
<path id="p69" fill="none" stroke="rgb(0,0,0)" stroke-width="0.5" d="M 316 184 L 316 192 M 312 188 L 320 188 "/>
<path id="p70" fill="none" stroke="rgb(255,255,255)" stroke-width="0.75" d="M 288 192 L 288 256 M 256 224 L 320 224 "/>
<path id="p71" fill="none" stroke="rgb(0,0,0)" stroke-width="0.5" d="M 288 192 L 288 256 M 256 224 L 320 224 "/>
<path id="p72" fill="none" stroke="rgb(255,255,255)" stroke-width="0.75" d="M 272 192 L 272 224 M 256 208 L 288 208 "/>
<path id="p73" fill="none" stroke="rgb(0,0,0)" stroke-width="0.5" d="M 272 192 L 272 224 M 256 208 L 288 208 "/>
<path id="p74" fill="none" stroke="rgb(255,255,255)" stroke-width="0.75" d="M 280 208 L 280 224 M 272 216 L 288 216 "/>
<path id="p75" fill="none" stroke="rgb(0,0,0)" stroke-width="0.5" d="M 280 208 L 280 224 M 272 216 L 288 216 "/>
<path id="p76" fill="none" stroke="rgb(255,255,255)" stroke-width="0.75" d="M 284 216 L 284 224 M 280 220 L 288 220 "/>
<path id="p77" fill="none" stroke="rgb(0,0,0)" stroke-width="0.5" d="M 284 216 L 284 224 M 280 220 L 288 220 "/>
<path id="p78" fill="none" stroke="rgb(255,255,255)" stroke-width="0.75" d="M 272 224 L 272 256 M 256 240 L 288 240 "/>
<path id="p79" fill="none" stroke="rgb(0,0,0)" stroke-width="0.5" d="M 272 224 L 272 256 M 256 240 L 288 240 "/>
<path id="p80" fill="none" stroke="rgb(255,255,255)" stroke-width="0.75" d="M 264 224 L 264 240 M 256 232 L 272 232 "/>
<path id="p81" fill="none" stroke="rgb(0,0,0)" stroke-width="0.5" d="M 264 224 L 264 240 M 256 232 L 272 232 "/>
<path id="p82" fill="none" stroke="rgb(255,255,255)" stroke-width="0.75" d="M 268 232 L 268 240 M 264 236 L 272 236 "/>
<path id="p83" fill="none" stroke="rgb(0,0,0)" stroke-width="0.5" d="M 268 232 L 268 240 M 264 236 L 272 236 "/>
<path id="p84" fill="none" stroke="rgb(255,255,255)" stroke-width="0.75" d="M 264 240 L 264 256 M 256 248 L 272 248 "/>
<path id="p85" fill="none" stroke="rgb(0,0,0)" stroke-width="0.5" d="M 264 240 L 264 256 M 256 248 L 272 248 "/>
<path id="p86" fill="none" stroke="rgb(255,255,255)" stroke-width="0.75" d="M 260 240 L 260 248 M 256 244 L 264 244 "/>
<path id="p87" fill="none" stroke="rgb(0,0,0)" stroke-width="0.5" d="M 260 240 L 260 248 M 256 244 L 264 244 "/>
<path id="p88" fill="none" stroke="rgb(255,255,255)" stroke-width="0.75" d="M 260 248 L 260 256 M 256 252 L 264 252 "/>
<path id="p89" fill="none" stroke="rgb(0,0,0)" stroke-width="0.5" d="M 260 248 L 260 256 M 256 252 L 264 252 "/>
<path id="p90" fill="none" stroke="rgb(255,255,255)" stroke-width="0.75" d="M 128 256 L 128 512 M 0 384 L 256 384 "/>
<path id="p91" fill="none" stroke="rgb(0,0,0)" stroke-width="0.5" d="M 128 256 L 128 512 M 0 384 L 256 384 "/>
<path id="p92" fill="none" stroke="rgb(255,255,255)" stroke-width="0.75" d="M 192 256 L 192 384 M 128 320 L 256 320 "/>
<path id="p93" fill="none" stroke="rgb(0,0,0)" stroke-width="0.5" d="M 192 256 L 192 384 M 128 320 L 256 320 "/>
<path id="p94" fill="none" stroke="rgb(255,255,255)" stroke-width="0.75" d="M 224 256 L 224 320 M 192 288 L 256 288 "/>
<path id="p95" fill="none" stroke="rgb(0,0,0)" stroke-width="0.5" d="M 224 256 L 224 320 M 192 288 L 256 288 "/>
<path id="p96" fill="none" stroke="rgb(255,255,255)" stroke-width="0.75" d="M 240 256 L 240 288 M 224 272 L 256 272 "/>
<path id="p97" fill="none" stroke="rgb(0,0,0)" stroke-width="0.5" d="M 240 256 L 240 288 M 224 272 L 256 272 "/>
<path id="p98" fill="none" stroke="rgb(255,255,255)" stroke-width="0.75" d="M 248 256 L 248 272 M 240 264 L 256 264 "/>
<path id="p99" fill="none" stroke="rgb(0,0,0)" stroke-width="0.5" d="M 248 256 L 248 272 M 240 264 L 256 264 "/>
<path id="p100" fill="none" stroke="rgb(255,255,255)" stroke-width="0.75" d="M 252 256 L 252 264 M 248 260 L 256 260 "/>
<path id="p101" fill="none" stroke="rgb(0,0,0)" stroke-width="0.5" d="M 252 256 L 252 264 M 248 260 L 256 260 "/>
<path id="p102" fill="none" stroke="rgb(255,255,255)" stroke-width="0.75" d="M 384 256 L 384 512 M 256 384 L 512 384 "/>
<path id="p103" fill="none" stroke="rgb(0,0,0)" stroke-width="0.5" d="M 384 256 L 384 512 M 256 384 L 512 384 "/>
<path id="p104" fill="none" stroke="rgb(255,255,255)" stroke-width="0.75" d="M 320 256 L 320 384 M 256 320 L 384 320 "/>
<path id="p105" fill="none" stroke="rgb(0,0,0)" stroke-width="0.5" d="M 320 256 L 320 384 M 256 320 L 384 320 "/>
<path id="p106" fill="none" stroke="rgb(255,255,255)" stroke-width="0.75" d="M 288 256 L 288 320 M 256 288 L 320 288 "/>
<path id="p107" fill="none" stroke="rgb(0,0,0)" stroke-width="0.5" d="M 288 256 L 288 320 M 256 288 L 320 288 "/>
<path id="p108" fill="none" stroke="rgb(255,255,255)" stroke-width="0.75" d="M 272 256 L 272 288 M 256 272 L 288 272 "/>
<path id="p109" fill="none" stroke="rgb(0,0,0)" stroke-width="0.5" d="M 272 256 L 272 288 M 256 272 L 288 272 "/>
<path id="p110" fill="none" stroke="rgb(255,255,255)" stroke-width="0.75" d="M 264 256 L 264 272 M 256 264 L 272 264 "/>
<path id="p111" fill="none" stroke="rgb(0,0,0)" stroke-width="0.5" d="M 264 256 L 264 272 M 256 264 L 272 264 "/>
<path id="p112" fill="none" stroke="rgb(255,255,255)" stroke-width="0.75" d="M 260 256 L 260 264 M 256 260 L 264 260 "/>
<path id="p113" fill="none" stroke="rgb(0,0,0)" stroke-width="0.5" d="M 260 256 L 260 264 M 256 260 L 264 260 "/>
</g>
</svg>
