<?xml version="1.0" standalone="no"?>
<svg
    xmlns:xlink="http://www.w3.org/1999/xlink"
    xmlns:dc="http://purl.org/dc/elements/1.1/"
    xmlns:cc="http://creativecommons.org/ns#"
    xmlns:rdf="http://www.w3.org/1999/02/22-rdf-syntax-ns#"
    xmlns:svg="http://www.w3.org/2000/svg"
    xmlns="http://www.w3.org/2000/svg"
    version="1.1"
    viewBox="0 0 512 512">
<defs>
<radialGradient id="radial1" gradientUnits="userSpaceOnUse" cx="100" cy="100" fx="150" fy="100" r="100" spreadMethod="pad" gradientTransform="matrix(0.707107, 0.707107, -0.353553, 0.353553, 64.6447, -6.06602)">
<stop offset="0" stop-color="rgb(255,0,0)" stop-opacity="1"/>
<stop offset="1" stop-color="rgb(0,255,0)" stop-opacity="1"/>
</radialGradient>
</defs>
<g transform="translate(0, 512) scale(1, -1)">
<path id="p1" fill="url(#radial1)" d="M 165.490688 346.5095168 A 256.00007921762 127.99985859013 45 0 1 53.614480365297 134.56830024123 256.00007921762 127.99985859013 45 0 1 134.56860744123 53.614173165297 256.00007921757 127.99985859013 -135 0 1 144.48764795119 53.97777275119 256.00007921762 127.99985859013 45 0 1 458.02243204881 367.51255684881 256.00007921759 127.99985859014 -135.00000000001 0 1 458.3860316347 377.43159735877 256.00007921762 127.99985859013 45 0 1 377.43190455877 458.3857244347 256.00007921762 127.99985859013 45 0 1 165.490688 346.5095168 Z "/>
<path id="p2" fill="none" stroke="rgb(255,255,255)" stroke-width="0.75" d="M 0 0 L 512 0 512 512 0 512 Z "/>
<path id="p3" fill="none" stroke="rgb(0,0,0)" stroke-width="0.5" d="M 0 0 L 512 0 512 512 0 512 Z "/>
<path id="p4" fill="none" stroke="rgb(255,255,255)" stroke-width="0.75" d="M 256 0 L 256 512 M 0 256 L 512 256 "/>
<path id="p5" fill="none" stroke="rgb(0,0,0)" stroke-width="0.5" d="M 256 0 L 256 512 M 0 256 L 512 256 "/>
<path id="p6" fill="none" stroke="rgb(255,255,255)" stroke-width="0.75" d="M 128 0 L 128 256 M 0 128 L 256 128 "/>
<path id="p7" fill="none" stroke="rgb(0,0,0)" stroke-width="0.5" d="M 128 0 L 128 256 M 0 128 L 256 128 "/>
<path id="p8" fill="none" stroke="rgb(255,255,255)" stroke-width="0.75" d="M 64 0 L 64 128 M 0 64 L 128 64 "/>
<path id="p9" fill="none" stroke="rgb(0,0,0)" stroke-width="0.5" d="M 64 0 L 64 128 M 0 64 L 128 64 "/>
<path id="p10" fill="none" stroke="rgb(255,255,255)" stroke-width="0.75" d="M 96 0 L 96 64 M 64 32 L 128 32 "/>
<path id="p11" fill="none" stroke="rgb(0,0,0)" stroke-width="0.5" d="M 96 0 L 96 64 M 64 32 L 128 32 "/>
<path id="p12" fill="none" stroke="rgb(255,255,255)" stroke-width="0.75" d="M 80 32 L 80 64 M 64 48 L 96 48 "/>
<path id="p13" fill="none" stroke="rgb(0,0,0)" stroke-width="0.5" d="M 80 32 L 80 64 M 64 48 L 96 48 "/>
<path id="p14" fill="none" stroke="rgb(255,255,255)" stroke-width="0.75" d="M 88 48 L 88 64 M 80 56 L 96 56 "/>
<path id="p15" fill="none" stroke="rgb(0,0,0)" stroke-width="0.5" d="M 88 48 L 88 64 M 80 56 L 96 56 "/>
<path id="p16" fill="none" stroke="rgb(255,255,255)" stroke-width="0.75" d="M 112 32 L 112 64 M 96 48 L 128 48 "/>
<path id="p17" fill="none" stroke="rgb(0,0,0)" stroke-width="0.5" d="M 112 32 L 112 64 M 96 48 L 128 48 "/>
<path id="p18" fill="none" stroke="rgb(255,255,255)" stroke-width="0.75" d="M 104 48 L 104 64 M 96 56 L 112 56 "/>
<path id="p19" fill="none" stroke="rgb(0,0,0)" stroke-width="0.5" d="M 104 48 L 104 64 M 96 56 L 112 56 "/>
<path id="p20" fill="none" stroke="rgb(255,255,255)" stroke-width="0.75" d="M 120 48 L 120 64 M 112 56 L 128 56 "/>
<path id="p21" fill="none" stroke="rgb(0,0,0)" stroke-width="0.5" d="M 120 48 L 120 64 M 112 56 L 128 56 "/>
<path id="p22" fill="none" stroke="rgb(255,255,255)" stroke-width="0.75" d="M 32 64 L 32 128 M 0 96 L 64 96 "/>
<path id="p23" fill="none" stroke="rgb(0,0,0)" stroke-width="0.5" d="M 32 64 L 32 128 M 0 96 L 64 96 "/>
<path id="p24" fill="none" stroke="rgb(255,255,255)" stroke-width="0.75" d="M 48 64 L 48 96 M 32 80 L 64 80 "/>
<path id="p25" fill="none" stroke="rgb(0,0,0)" stroke-width="0.5" d="M 48 64 L 48 96 M 32 80 L 64 80 "/>
<path id="p26" fill="none" stroke="rgb(255,255,255)" stroke-width="0.75" d="M 56 80 L 56 96 M 48 88 L 64 88 "/>
<path id="p27" fill="none" stroke="rgb(0,0,0)" stroke-width="0.5" d="M 56 80 L 56 96 M 48 88 L 64 88 "/>
<path id="p28" fill="none" stroke="rgb(255,255,255)" stroke-width="0.75" d="M 48 96 L 48 128 M 32 112 L 64 112 "/>
<path id="p29" fill="none" stroke="rgb(0,0,0)" stroke-width="0.5" d="M 48 96 L 48 128 M 32 112 L 64 112 "/>
<path id="p30" fill="none" stroke="rgb(255,255,255)" stroke-width="0.75" d="M 56 96 L 56 112 M 48 104 L 64 104 "/>
<path id="p31" fill="none" stroke="rgb(0,0,0)" stroke-width="0.5" d="M 56 96 L 56 112 M 48 104 L 64 104 "/>
<path id="p32" fill="none" stroke="rgb(255,255,255)" stroke-width="0.75" d="M 56 112 L 56 128 M 48 120 L 64 120 "/>
<path id="p33" fill="none" stroke="rgb(0,0,0)" stroke-width="0.5" d="M 56 112 L 56 128 M 48 120 L 64 120 "/>
<path id="p34" fill="none" stroke="rgb(255,255,255)" stroke-width="0.75" d="M 96 64 L 96 128 M 64 96 L 128 96 "/>
<path id="p35" fill="none" stroke="rgb(0,0,0)" stroke-width="0.5" d="M 96 64 L 96 128 M 64 96 L 128 96 "/>
<path id="p36" fill="none" stroke="rgb(255,255,255)" stroke-width="0.75" d="M 80 64 L 80 96 M 64 80 L 96 80 "/>
<path id="p37" fill="none" stroke="rgb(0,0,0)" stroke-width="0.5" d="M 80 64 L 80 96 M 64 80 L 96 80 "/>
<path id="p38" fill="none" stroke="rgb(255,255,255)" stroke-width="0.75" d="M 72 64 L 72 80 M 64 72 L 80 72 "/>
<path id="p39" fill="none" stroke="rgb(0,0,0)" stroke-width="0.5" d="M 72 64 L 72 80 M 64 72 L 80 72 "/>
<path id="p40" fill="none" stroke="rgb(255,255,255)" stroke-width="0.75" d="M 88 64 L 88 80 M 80 72 L 96 72 "/>
<path id="p41" fill="none" stroke="rgb(0,0,0)" stroke-width="0.5" d="M 88 64 L 88 80 M 80 72 L 96 72 "/>
<path id="p42" fill="none" stroke="rgb(255,255,255)" stroke-width="0.75" d="M 72 80 L 72 96 M 64 88 L 80 88 "/>
<path id="p43" fill="none" stroke="rgb(0,0,0)" stroke-width="0.5" d="M 72 80 L 72 96 M 64 88 L 80 88 "/>
<path id="p44" fill="none" stroke="rgb(255,255,255)" stroke-width="0.75" d="M 192 0 L 192 128 M 128 64 L 256 64 "/>
<path id="p45" fill="none" stroke="rgb(0,0,0)" stroke-width="0.5" d="M 192 0 L 192 128 M 128 64 L 256 64 "/>
<path id="p46" fill="none" stroke="rgb(255,255,255)" stroke-width="0.75" d="M 160 0 L 160 64 M 128 32 L 192 32 "/>
<path id="p47" fill="none" stroke="rgb(0,0,0)" stroke-width="0.5" d="M 160 0 L 160 64 M 128 32 L 192 32 "/>
<path id="p48" fill="none" stroke="rgb(255,255,255)" stroke-width="0.75" d="M 144 32 L 144 64 M 128 48 L 160 48 "/>
<path id="p49" fill="none" stroke="rgb(0,0,0)" stroke-width="0.5" d="M 144 32 L 144 64 M 128 48 L 160 48 "/>
<path id="p50" fill="none" stroke="rgb(255,255,255)" stroke-width="0.75" d="M 136 48 L 136 64 M 128 56 L 144 56 "/>
<path id="p51" fill="none" stroke="rgb(0,0,0)" stroke-width="0.5" d="M 136 48 L 136 64 M 128 56 L 144 56 "/>
<path id="p52" fill="none" stroke="rgb(255,255,255)" stroke-width="0.75" d="M 152 48 L 152 64 M 144 56 L 160 56 "/>
<path id="p53" fill="none" stroke="rgb(0,0,0)" stroke-width="0.5" d="M 152 48 L 152 64 M 144 56 L 160 56 "/>
<path id="p54" fill="none" stroke="rgb(255,255,255)" stroke-width="0.75" d="M 176 32 L 176 64 M 160 48 L 192 48 "/>
<path id="p55" fill="none" stroke="rgb(0,0,0)" stroke-width="0.5" d="M 176 32 L 176 64 M 160 48 L 192 48 "/>
<path id="p56" fill="none" stroke="rgb(255,255,255)" stroke-width="0.75" d="M 168 48 L 168 64 M 160 56 L 176 56 "/>
<path id="p57" fill="none" stroke="rgb(0,0,0)" stroke-width="0.5" d="M 168 48 L 168 64 M 160 56 L 176 56 "/>
<path id="p58" fill="none" stroke="rgb(255,255,255)" stroke-width="0.75" d="M 184 48 L 184 64 M 176 56 L 192 56 "/>
<path id="p59" fill="none" stroke="rgb(0,0,0)" stroke-width="0.5" d="M 184 48 L 184 64 M 176 56 L 192 56 "/>
<path id="p60" fill="none" stroke="rgb(255,255,255)" stroke-width="0.75" d="M 224 0 L 224 64 M 192 32 L 256 32 "/>
<path id="p61" fill="none" stroke="rgb(0,0,0)" stroke-width="0.5" d="M 224 0 L 224 64 M 192 32 L 256 32 "/>
<path id="p62" fill="none" stroke="rgb(255,255,255)" stroke-width="0.75" d="M 208 32 L 208 64 M 192 48 L 224 48 "/>
<path id="p63" fill="none" stroke="rgb(0,0,0)" stroke-width="0.5" d="M 208 32 L 208 64 M 192 48 L 224 48 "/>
<path id="p64" fill="none" stroke="rgb(255,255,255)" stroke-width="0.75" d="M 200 48 L 200 64 M 192 56 L 208 56 "/>
<path id="p65" fill="none" stroke="rgb(0,0,0)" stroke-width="0.5" d="M 200 48 L 200 64 M 192 56 L 208 56 "/>
<path id="p66" fill="none" stroke="rgb(255,255,255)" stroke-width="0.75" d="M 160 64 L 160 128 M 128 96 L 192 96 "/>
<path id="p67" fill="none" stroke="rgb(0,0,0)" stroke-width="0.5" d="M 160 64 L 160 128 M 128 96 L 192 96 "/>
<path id="p68" fill="none" stroke="rgb(255,255,255)" stroke-width="0.75" d="M 176 64 L 176 96 M 160 80 L 192 80 "/>
<path id="p69" fill="none" stroke="rgb(0,0,0)" stroke-width="0.5" d="M 176 64 L 176 96 M 160 80 L 192 80 "/>
<path id="p70" fill="none" stroke="rgb(255,255,255)" stroke-width="0.75" d="M 184 64 L 184 80 M 176 72 L 192 72 "/>
<path id="p71" fill="none" stroke="rgb(0,0,0)" stroke-width="0.5" d="M 184 64 L 184 80 M 176 72 L 192 72 "/>
<path id="p72" fill="none" stroke="rgb(255,255,255)" stroke-width="0.75" d="M 224 64 L 224 128 M 192 96 L 256 96 "/>
<path id="p73" fill="none" stroke="rgb(0,0,0)" stroke-width="0.5" d="M 224 64 L 224 128 M 192 96 L 256 96 "/>
<path id="p74" fill="none" stroke="rgb(255,255,255)" stroke-width="0.75" d="M 208 64 L 208 96 M 192 80 L 224 80 "/>
<path id="p75" fill="none" stroke="rgb(0,0,0)" stroke-width="0.5" d="M 208 64 L 208 96 M 192 80 L 224 80 "/>
<path id="p76" fill="none" stroke="rgb(255,255,255)" stroke-width="0.75" d="M 200 64 L 200 80 M 192 72 L 208 72 "/>
<path id="p77" fill="none" stroke="rgb(0,0,0)" stroke-width="0.5" d="M 200 64 L 200 80 M 192 72 L 208 72 "/>
<path id="p78" fill="none" stroke="rgb(255,255,255)" stroke-width="0.75" d="M 216 64 L 216 80 M 208 72 L 224 72 "/>
<path id="p79" fill="none" stroke="rgb(0,0,0)" stroke-width="0.5" d="M 216 64 L 216 80 M 208 72 L 224 72 "/>
<path id="p80" fill="none" stroke="rgb(255,255,255)" stroke-width="0.75" d="M 240 64 L 240 96 M 224 80 L 256 80 "/>
<path id="p81" fill="none" stroke="rgb(0,0,0)" stroke-width="0.5" d="M 240 64 L 240 96 M 224 80 L 256 80 "/>
<path id="p82" fill="none" stroke="rgb(255,255,255)" stroke-width="0.75" d="M 232 64 L 232 80 M 224 72 L 240 72 "/>
<path id="p83" fill="none" stroke="rgb(0,0,0)" stroke-width="0.5" d="M 232 64 L 232 80 M 224 72 L 240 72 "/>
<path id="p84" fill="none" stroke="rgb(255,255,255)" stroke-width="0.75" d="M 232 80 L 232 96 M 224 88 L 240 88 "/>
<path id="p85" fill="none" stroke="rgb(0,0,0)" stroke-width="0.5" d="M 232 80 L 232 96 M 224 88 L 240 88 "/>
<path id="p86" fill="none" stroke="rgb(255,255,255)" stroke-width="0.75" d="M 248 80 L 248 96 M 240 88 L 256 88 "/>
<path id="p87" fill="none" stroke="rgb(0,0,0)" stroke-width="0.5" d="M 248 80 L 248 96 M 240 88 L 256 88 "/>
<path id="p88" fill="none" stroke="rgb(255,255,255)" stroke-width="0.75" d="M 64 128 L 64 256 M 0 192 L 128 192 "/>
<path id="p89" fill="none" stroke="rgb(0,0,0)" stroke-width="0.5" d="M 64 128 L 64 256 M 0 192 L 128 192 "/>
<path id="p90" fill="none" stroke="rgb(255,255,255)" stroke-width="0.75" d="M 32 128 L 32 192 M 0 160 L 64 160 "/>
<path id="p91" fill="none" stroke="rgb(0,0,0)" stroke-width="0.5" d="M 32 128 L 32 192 M 0 160 L 64 160 "/>
<path id="p92" fill="none" stroke="rgb(255,255,255)" stroke-width="0.75" d="M 48 128 L 48 160 M 32 144 L 64 144 "/>
<path id="p93" fill="none" stroke="rgb(0,0,0)" stroke-width="0.5" d="M 48 128 L 48 160 M 32 144 L 64 144 "/>
<path id="p94" fill="none" stroke="rgb(255,255,255)" stroke-width="0.75" d="M 56 128 L 56 144 M 48 136 L 64 136 "/>
<path id="p95" fill="none" stroke="rgb(0,0,0)" stroke-width="0.5" d="M 56 128 L 56 144 M 48 136 L 64 136 "/>
<path id="p96" fill="none" stroke="rgb(255,255,255)" stroke-width="0.75" d="M 56 144 L 56 160 M 48 152 L 64 152 "/>
<path id="p97" fill="none" stroke="rgb(0,0,0)" stroke-width="0.5" d="M 56 144 L 56 160 M 48 152 L 64 152 "/>
<path id="p98" fill="none" stroke="rgb(255,255,255)" stroke-width="0.75" d="M 48 160 L 48 192 M 32 176 L 64 176 "/>
<path id="p99" fill="none" stroke="rgb(0,0,0)" stroke-width="0.5" d="M 48 160 L 48 192 M 32 176 L 64 176 "/>
<path id="p100" fill="none" stroke="rgb(255,255,255)" stroke-width="0.75" d="M 56 160 L 56 176 M 48 168 L 64 168 "/>
<path id="p101" fill="none" stroke="rgb(0,0,0)" stroke-width="0.5" d="M 56 160 L 56 176 M 48 168 L 64 168 "/>
<path id="p102" fill="none" stroke="rgb(255,255,255)" stroke-width="0.75" d="M 56 176 L 56 192 M 48 184 L 64 184 "/>
<path id="p103" fill="none" stroke="rgb(0,0,0)" stroke-width="0.5" d="M 56 176 L 56 192 M 48 184 L 64 184 "/>
<path id="p104" fill="none" stroke="rgb(255,255,255)" stroke-width="0.75" d="M 96 128 L 96 192 M 64 160 L 128 160 "/>
<path id="p105" fill="none" stroke="rgb(0,0,0)" stroke-width="0.5" d="M 96 128 L 96 192 M 64 160 L 128 160 "/>
<path id="p106" fill="none" stroke="rgb(255,255,255)" stroke-width="0.75" d="M 80 160 L 80 192 M 64 176 L 96 176 "/>
<path id="p107" fill="none" stroke="rgb(0,0,0)" stroke-width="0.5" d="M 80 160 L 80 192 M 64 176 L 96 176 "/>
<path id="p108" fill="none" stroke="rgb(255,255,255)" stroke-width="0.75" d="M 72 176 L 72 192 M 64 184 L 80 184 "/>
<path id="p109" fill="none" stroke="rgb(0,0,0)" stroke-width="0.5" d="M 72 176 L 72 192 M 64 184 L 80 184 "/>
<path id="p110" fill="none" stroke="rgb(255,255,255)" stroke-width="0.75" d="M 32 192 L 32 256 M 0 224 L 64 224 "/>
<path id="p111" fill="none" stroke="rgb(0,0,0)" stroke-width="0.5" d="M 32 192 L 32 256 M 0 224 L 64 224 "/>
<path id="p112" fill="none" stroke="rgb(255,255,255)" stroke-width="0.75" d="M 48 192 L 48 224 M 32 208 L 64 208 "/>
<path id="p113" fill="none" stroke="rgb(0,0,0)" stroke-width="0.5" d="M 48 192 L 48 224 M 32 208 L 64 208 "/>
<path id="p114" fill="none" stroke="rgb(255,255,255)" stroke-width="0.75" d="M 56 192 L 56 208 M 48 200 L 64 200 "/>
<path id="p115" fill="none" stroke="rgb(0,0,0)" stroke-width="0.5" d="M 56 192 L 56 208 M 48 200 L 64 200 "/>
<path id="p116" fill="none" stroke="rgb(255,255,255)" stroke-width="0.75" d="M 96 192 L 96 256 M 64 224 L 128 224 "/>
<path id="p117" fill="none" stroke="rgb(0,0,0)" stroke-width="0.5" d="M 96 192 L 96 256 M 64 224 L 128 224 "/>
<path id="p118" fill="none" stroke="rgb(255,255,255)" stroke-width="0.75" d="M 80 192 L 80 224 M 64 208 L 96 208 "/>
<path id="p119" fill="none" stroke="rgb(0,0,0)" stroke-width="0.5" d="M 80 192 L 80 224 M 64 208 L 96 208 "/>
<path id="p120" fill="none" stroke="rgb(255,255,255)" stroke-width="0.75" d="M 72 192 L 72 208 M 64 200 L 80 200 "/>
<path id="p121" fill="none" stroke="rgb(0,0,0)" stroke-width="0.5" d="M 72 192 L 72 208 M 64 200 L 80 200 "/>
<path id="p122" fill="none" stroke="rgb(255,255,255)" stroke-width="0.75" d="M 72 208 L 72 224 M 64 216 L 80 216 "/>
<path id="p123" fill="none" stroke="rgb(0,0,0)" stroke-width="0.5" d="M 72 208 L 72 224 M 64 216 L 80 216 "/>
<path id="p124" fill="none" stroke="rgb(255,255,255)" stroke-width="0.75" d="M 80 224 L 80 256 M 64 240 L 96 240 "/>
<path id="p125" fill="none" stroke="rgb(0,0,0)" stroke-width="0.5" d="M 80 224 L 80 256 M 64 240 L 96 240 "/>
<path id="p126" fill="none" stroke="rgb(255,255,255)" stroke-width="0.75" d="M 72 224 L 72 240 M 64 232 L 80 232 "/>
<path id="p127" fill="none" stroke="rgb(0,0,0)" stroke-width="0.5" d="M 72 224 L 72 240 M 64 232 L 80 232 "/>
<path id="p128" fill="none" stroke="rgb(255,255,255)" stroke-width="0.75" d="M 88 224 L 88 240 M 80 232 L 96 232 "/>
<path id="p129" fill="none" stroke="rgb(0,0,0)" stroke-width="0.5" d="M 88 224 L 88 240 M 80 232 L 96 232 "/>
<path id="p130" fill="none" stroke="rgb(255,255,255)" stroke-width="0.75" d="M 88 240 L 88 256 M 80 248 L 96 248 "/>
<path id="p131" fill="none" stroke="rgb(0,0,0)" stroke-width="0.5" d="M 88 240 L 88 256 M 80 248 L 96 248 "/>
<path id="p132" fill="none" stroke="rgb(255,255,255)" stroke-width="0.75" d="M 384 0 L 384 256 M 256 128 L 512 128 "/>
<path id="p133" fill="none" stroke="rgb(0,0,0)" stroke-width="0.5" d="M 384 0 L 384 256 M 256 128 L 512 128 "/>
<path id="p134" fill="none" stroke="rgb(255,255,255)" stroke-width="0.75" d="M 320 0 L 320 128 M 256 64 L 384 64 "/>
<path id="p135" fill="none" stroke="rgb(0,0,0)" stroke-width="0.5" d="M 320 0 L 320 128 M 256 64 L 384 64 "/>
<path id="p136" fill="none" stroke="rgb(255,255,255)" stroke-width="0.75" d="M 288 64 L 288 128 M 256 96 L 320 96 "/>
<path id="p137" fill="none" stroke="rgb(0,0,0)" stroke-width="0.5" d="M 288 64 L 288 128 M 256 96 L 320 96 "/>
<path id="p138" fill="none" stroke="rgb(255,255,255)" stroke-width="0.75" d="M 272 64 L 272 96 M 256 80 L 288 80 "/>
<path id="p139" fill="none" stroke="rgb(0,0,0)" stroke-width="0.5" d="M 272 64 L 272 96 M 256 80 L 288 80 "/>
<path id="p140" fill="none" stroke="rgb(255,255,255)" stroke-width="0.75" d="M 264 80 L 264 96 M 256 88 L 272 88 "/>
<path id="p141" fill="none" stroke="rgb(0,0,0)" stroke-width="0.5" d="M 264 80 L 264 96 M 256 88 L 272 88 "/>
<path id="p142" fill="none" stroke="rgb(255,255,255)" stroke-width="0.75" d="M 272 96 L 272 128 M 256 112 L 288 112 "/>
<path id="p143" fill="none" stroke="rgb(0,0,0)" stroke-width="0.5" d="M 272 96 L 272 128 M 256 112 L 288 112 "/>
<path id="p144" fill="none" stroke="rgb(255,255,255)" stroke-width="0.75" d="M 264 96 L 264 112 M 256 104 L 272 104 "/>
<path id="p145" fill="none" stroke="rgb(0,0,0)" stroke-width="0.5" d="M 264 96 L 264 112 M 256 104 L 272 104 "/>
<path id="p146" fill="none" stroke="rgb(255,255,255)" stroke-width="0.75" d="M 280 96 L 280 112 M 272 104 L 288 104 "/>
<path id="p147" fill="none" stroke="rgb(0,0,0)" stroke-width="0.5" d="M 280 96 L 280 112 M 272 104 L 288 104 "/>
<path id="p148" fill="none" stroke="rgb(255,255,255)" stroke-width="0.75" d="M 280 112 L 280 128 M 272 120 L 288 120 "/>
<path id="p149" fill="none" stroke="rgb(0,0,0)" stroke-width="0.5" d="M 280 112 L 280 128 M 272 120 L 288 120 "/>
<path id="p150" fill="none" stroke="rgb(255,255,255)" stroke-width="0.75" d="M 304 96 L 304 128 M 288 112 L 320 112 "/>
<path id="p151" fill="none" stroke="rgb(0,0,0)" stroke-width="0.5" d="M 304 96 L 304 128 M 288 112 L 320 112 "/>
<path id="p152" fill="none" stroke="rgb(255,255,255)" stroke-width="0.75" d="M 296 112 L 296 128 M 288 120 L 304 120 "/>
<path id="p153" fill="none" stroke="rgb(0,0,0)" stroke-width="0.5" d="M 296 112 L 296 128 M 288 120 L 304 120 "/>
<path id="p154" fill="none" stroke="rgb(255,255,255)" stroke-width="0.75" d="M 312 112 L 312 128 M 304 120 L 320 120 "/>
<path id="p155" fill="none" stroke="rgb(0,0,0)" stroke-width="0.5" d="M 312 112 L 312 128 M 304 120 L 320 120 "/>
<path id="p156" fill="none" stroke="rgb(255,255,255)" stroke-width="0.75" d="M 320 128 L 320 256 M 256 192 L 384 192 "/>
<path id="p157" fill="none" stroke="rgb(0,0,0)" stroke-width="0.5" d="M 320 128 L 320 256 M 256 192 L 384 192 "/>
<path id="p158" fill="none" stroke="rgb(255,255,255)" stroke-width="0.75" d="M 288 128 L 288 192 M 256 160 L 320 160 "/>
<path id="p159" fill="none" stroke="rgb(0,0,0)" stroke-width="0.5" d="M 288 128 L 288 192 M 256 160 L 320 160 "/>
<path id="p160" fill="none" stroke="rgb(255,255,255)" stroke-width="0.75" d="M 304 128 L 304 160 M 288 144 L 320 144 "/>
<path id="p161" fill="none" stroke="rgb(0,0,0)" stroke-width="0.5" d="M 304 128 L 304 160 M 288 144 L 320 144 "/>
<path id="p162" fill="none" stroke="rgb(255,255,255)" stroke-width="0.75" d="M 312 128 L 312 144 M 304 136 L 320 136 "/>
<path id="p163" fill="none" stroke="rgb(0,0,0)" stroke-width="0.5" d="M 312 128 L 312 144 M 304 136 L 320 136 "/>
<path id="p164" fill="none" stroke="rgb(255,255,255)" stroke-width="0.75" d="M 352 128 L 352 192 M 320 160 L 384 160 "/>
<path id="p165" fill="none" stroke="rgb(0,0,0)" stroke-width="0.5" d="M 352 128 L 352 192 M 320 160 L 384 160 "/>
<path id="p166" fill="none" stroke="rgb(255,255,255)" stroke-width="0.75" d="M 336 128 L 336 160 M 320 144 L 352 144 "/>
<path id="p167" fill="none" stroke="rgb(0,0,0)" stroke-width="0.5" d="M 336 128 L 336 160 M 320 144 L 352 144 "/>
<path id="p168" fill="none" stroke="rgb(255,255,255)" stroke-width="0.75" d="M 328 128 L 328 144 M 320 136 L 336 136 "/>
<path id="p169" fill="none" stroke="rgb(0,0,0)" stroke-width="0.5" d="M 328 128 L 328 144 M 320 136 L 336 136 "/>
<path id="p170" fill="none" stroke="rgb(255,255,255)" stroke-width="0.75" d="M 328 144 L 328 160 M 320 152 L 336 152 "/>
<path id="p171" fill="none" stroke="rgb(0,0,0)" stroke-width="0.5" d="M 328 144 L 328 160 M 320 152 L 336 152 "/>
<path id="p172" fill="none" stroke="rgb(255,255,255)" stroke-width="0.75" d="M 344 144 L 344 160 M 336 152 L 352 152 "/>
<path id="p173" fill="none" stroke="rgb(0,0,0)" stroke-width="0.5" d="M 344 144 L 344 160 M 336 152 L 352 152 "/>
<path id="p174" fill="none" stroke="rgb(255,255,255)" stroke-width="0.75" d="M 336 160 L 336 192 M 320 176 L 352 176 "/>
<path id="p175" fill="none" stroke="rgb(0,0,0)" stroke-width="0.5" d="M 336 160 L 336 192 M 320 176 L 352 176 "/>
<path id="p176" fill="none" stroke="rgb(255,255,255)" stroke-width="0.75" d="M 344 160 L 344 176 M 336 168 L 352 168 "/>
<path id="p177" fill="none" stroke="rgb(0,0,0)" stroke-width="0.5" d="M 344 160 L 344 176 M 336 168 L 352 168 "/>
<path id="p178" fill="none" stroke="rgb(255,255,255)" stroke-width="0.75" d="M 368 160 L 368 192 M 352 176 L 384 176 "/>
<path id="p179" fill="none" stroke="rgb(0,0,0)" stroke-width="0.5" d="M 368 160 L 368 192 M 352 176 L 384 176 "/>
<path id="p180" fill="none" stroke="rgb(255,255,255)" stroke-width="0.75" d="M 360 160 L 360 176 M 352 168 L 368 168 "/>
<path id="p181" fill="none" stroke="rgb(0,0,0)" stroke-width="0.5" d="M 360 160 L 360 176 M 352 168 L 368 168 "/>
<path id="p182" fill="none" stroke="rgb(255,255,255)" stroke-width="0.75" d="M 360 176 L 360 192 M 352 184 L 368 184 "/>
<path id="p183" fill="none" stroke="rgb(0,0,0)" stroke-width="0.5" d="M 360 176 L 360 192 M 352 184 L 368 184 "/>
<path id="p184" fill="none" stroke="rgb(255,255,255)" stroke-width="0.75" d="M 376 176 L 376 192 M 368 184 L 384 184 "/>
<path id="p185" fill="none" stroke="rgb(0,0,0)" stroke-width="0.5" d="M 376 176 L 376 192 M 368 184 L 384 184 "/>
<path id="p186" fill="none" stroke="rgb(255,255,255)" stroke-width="0.75" d="M 352 192 L 352 256 M 320 224 L 384 224 "/>
<path id="p187" fill="none" stroke="rgb(0,0,0)" stroke-width="0.5" d="M 352 192 L 352 256 M 320 224 L 384 224 "/>
<path id="p188" fill="none" stroke="rgb(255,255,255)" stroke-width="0.75" d="M 368 192 L 368 224 M 352 208 L 384 208 "/>
<path id="p189" fill="none" stroke="rgb(0,0,0)" stroke-width="0.5" d="M 368 192 L 368 224 M 352 208 L 384 208 "/>
<path id="p190" fill="none" stroke="rgb(255,255,255)" stroke-width="0.75" d="M 376 192 L 376 208 M 368 200 L 384 200 "/>
<path id="p191" fill="none" stroke="rgb(0,0,0)" stroke-width="0.5" d="M 376 192 L 376 208 M 368 200 L 384 200 "/>
<path id="p192" fill="none" stroke="rgb(255,255,255)" stroke-width="0.75" d="M 448 128 L 448 256 M 384 192 L 512 192 "/>
<path id="p193" fill="none" stroke="rgb(0,0,0)" stroke-width="0.5" d="M 448 128 L 448 256 M 384 192 L 512 192 "/>
<path id="p194" fill="none" stroke="rgb(255,255,255)" stroke-width="0.75" d="M 416 192 L 416 256 M 384 224 L 448 224 "/>
<path id="p195" fill="none" stroke="rgb(0,0,0)" stroke-width="0.5" d="M 416 192 L 416 256 M 384 224 L 448 224 "/>
<path id="p196" fill="none" stroke="rgb(255,255,255)" stroke-width="0.75" d="M 400 192 L 400 224 M 384 208 L 416 208 "/>
<path id="p197" fill="none" stroke="rgb(0,0,0)" stroke-width="0.5" d="M 400 192 L 400 224 M 384 208 L 416 208 "/>
<path id="p198" fill="none" stroke="rgb(255,255,255)" stroke-width="0.75" d="M 392 192 L 392 208 M 384 200 L 400 200 "/>
<path id="p199" fill="none" stroke="rgb(0,0,0)" stroke-width="0.5" d="M 392 192 L 392 208 M 384 200 L 400 200 "/>
<path id="p200" fill="none" stroke="rgb(255,255,255)" stroke-width="0.75" d="M 392 208 L 392 224 M 384 216 L 400 216 "/>
<path id="p201" fill="none" stroke="rgb(0,0,0)" stroke-width="0.5" d="M 392 208 L 392 224 M 384 216 L 400 216 "/>
<path id="p202" fill="none" stroke="rgb(255,255,255)" stroke-width="0.75" d="M 400 224 L 400 256 M 384 240 L 416 240 "/>
<path id="p203" fill="none" stroke="rgb(0,0,0)" stroke-width="0.5" d="M 400 224 L 400 256 M 384 240 L 416 240 "/>
<path id="p204" fill="none" stroke="rgb(255,255,255)" stroke-width="0.75" d="M 392 224 L 392 240 M 384 232 L 400 232 "/>
<path id="p205" fill="none" stroke="rgb(0,0,0)" stroke-width="0.5" d="M 392 224 L 392 240 M 384 232 L 400 232 "/>
<path id="p206" fill="none" stroke="rgb(255,255,255)" stroke-width="0.75" d="M 408 224 L 408 240 M 400 232 L 416 232 "/>
<path id="p207" fill="none" stroke="rgb(0,0,0)" stroke-width="0.5" d="M 408 224 L 408 240 M 400 232 L 416 232 "/>
<path id="p208" fill="none" stroke="rgb(255,255,255)" stroke-width="0.75" d="M 408 240 L 408 256 M 400 248 L 416 248 "/>
<path id="p209" fill="none" stroke="rgb(0,0,0)" stroke-width="0.5" d="M 408 240 L 408 256 M 400 248 L 416 248 "/>
<path id="p210" fill="none" stroke="rgb(255,255,255)" stroke-width="0.75" d="M 432 224 L 432 256 M 416 240 L 448 240 "/>
<path id="p211" fill="none" stroke="rgb(0,0,0)" stroke-width="0.5" d="M 432 224 L 432 256 M 416 240 L 448 240 "/>
<path id="p212" fill="none" stroke="rgb(255,255,255)" stroke-width="0.75" d="M 424 240 L 424 256 M 416 248 L 432 248 "/>
<path id="p213" fill="none" stroke="rgb(0,0,0)" stroke-width="0.5" d="M 424 240 L 424 256 M 416 248 L 432 248 "/>
<path id="p214" fill="none" stroke="rgb(255,255,255)" stroke-width="0.75" d="M 128 256 L 128 512 M 0 384 L 256 384 "/>
<path id="p215" fill="none" stroke="rgb(0,0,0)" stroke-width="0.5" d="M 128 256 L 128 512 M 0 384 L 256 384 "/>
<path id="p216" fill="none" stroke="rgb(255,255,255)" stroke-width="0.75" d="M 64 256 L 64 384 M 0 320 L 128 320 "/>
<path id="p217" fill="none" stroke="rgb(0,0,0)" stroke-width="0.5" d="M 64 256 L 64 384 M 0 320 L 128 320 "/>
<path id="p218" fill="none" stroke="rgb(255,255,255)" stroke-width="0.75" d="M 96 256 L 96 320 M 64 288 L 128 288 "/>
<path id="p219" fill="none" stroke="rgb(0,0,0)" stroke-width="0.5" d="M 96 256 L 96 320 M 64 288 L 128 288 "/>
<path id="p220" fill="none" stroke="rgb(255,255,255)" stroke-width="0.75" d="M 80 256 L 80 288 M 64 272 L 96 272 "/>
<path id="p221" fill="none" stroke="rgb(0,0,0)" stroke-width="0.5" d="M 80 256 L 80 288 M 64 272 L 96 272 "/>
<path id="p222" fill="none" stroke="rgb(255,255,255)" stroke-width="0.75" d="M 88 256 L 88 272 M 80 264 L 96 264 "/>
<path id="p223" fill="none" stroke="rgb(0,0,0)" stroke-width="0.5" d="M 88 256 L 88 272 M 80 264 L 96 264 "/>
<path id="p224" fill="none" stroke="rgb(255,255,255)" stroke-width="0.75" d="M 112 256 L 112 288 M 96 272 L 128 272 "/>
<path id="p225" fill="none" stroke="rgb(0,0,0)" stroke-width="0.5" d="M 112 256 L 112 288 M 96 272 L 128 272 "/>
<path id="p226" fill="none" stroke="rgb(255,255,255)" stroke-width="0.75" d="M 104 256 L 104 272 M 96 264 L 112 264 "/>
<path id="p227" fill="none" stroke="rgb(0,0,0)" stroke-width="0.5" d="M 104 256 L 104 272 M 96 264 L 112 264 "/>
<path id="p228" fill="none" stroke="rgb(255,255,255)" stroke-width="0.75" d="M 104 272 L 104 288 M 96 280 L 112 280 "/>
<path id="p229" fill="none" stroke="rgb(0,0,0)" stroke-width="0.5" d="M 104 272 L 104 288 M 96 280 L 112 280 "/>
<path id="p230" fill="none" stroke="rgb(255,255,255)" stroke-width="0.75" d="M 120 272 L 120 288 M 112 280 L 128 280 "/>
<path id="p231" fill="none" stroke="rgb(0,0,0)" stroke-width="0.5" d="M 120 272 L 120 288 M 112 280 L 128 280 "/>
<path id="p232" fill="none" stroke="rgb(255,255,255)" stroke-width="0.75" d="M 112 288 L 112 320 M 96 304 L 128 304 "/>
<path id="p233" fill="none" stroke="rgb(0,0,0)" stroke-width="0.5" d="M 112 288 L 112 320 M 96 304 L 128 304 "/>
<path id="p234" fill="none" stroke="rgb(255,255,255)" stroke-width="0.75" d="M 120 288 L 120 304 M 112 296 L 128 296 "/>
<path id="p235" fill="none" stroke="rgb(0,0,0)" stroke-width="0.5" d="M 120 288 L 120 304 M 112 296 L 128 296 "/>
<path id="p236" fill="none" stroke="rgb(255,255,255)" stroke-width="0.75" d="M 120 304 L 120 320 M 112 312 L 128 312 "/>
<path id="p237" fill="none" stroke="rgb(0,0,0)" stroke-width="0.5" d="M 120 304 L 120 320 M 112 312 L 128 312 "/>
<path id="p238" fill="none" stroke="rgb(255,255,255)" stroke-width="0.75" d="M 192 256 L 192 384 M 128 320 L 256 320 "/>
<path id="p239" fill="none" stroke="rgb(0,0,0)" stroke-width="0.5" d="M 192 256 L 192 384 M 128 320 L 256 320 "/>
<path id="p240" fill="none" stroke="rgb(255,255,255)" stroke-width="0.75" d="M 160 256 L 160 320 M 128 288 L 192 288 "/>
<path id="p241" fill="none" stroke="rgb(0,0,0)" stroke-width="0.5" d="M 160 256 L 160 320 M 128 288 L 192 288 "/>
<path id="p242" fill="none" stroke="rgb(255,255,255)" stroke-width="0.75" d="M 144 288 L 144 320 M 128 304 L 160 304 "/>
<path id="p243" fill="none" stroke="rgb(0,0,0)" stroke-width="0.5" d="M 144 288 L 144 320 M 128 304 L 160 304 "/>
<path id="p244" fill="none" stroke="rgb(255,255,255)" stroke-width="0.75" d="M 136 304 L 136 320 M 128 312 L 144 312 "/>
<path id="p245" fill="none" stroke="rgb(0,0,0)" stroke-width="0.5" d="M 136 304 L 136 320 M 128 312 L 144 312 "/>
<path id="p246" fill="none" stroke="rgb(255,255,255)" stroke-width="0.75" d="M 160 320 L 160 384 M 128 352 L 192 352 "/>
<path id="p247" fill="none" stroke="rgb(0,0,0)" stroke-width="0.5" d="M 160 320 L 160 384 M 128 352 L 192 352 "/>
<path id="p248" fill="none" stroke="rgb(255,255,255)" stroke-width="0.75" d="M 144 320 L 144 352 M 128 336 L 160 336 "/>
<path id="p249" fill="none" stroke="rgb(0,0,0)" stroke-width="0.5" d="M 144 320 L 144 352 M 128 336 L 160 336 "/>
<path id="p250" fill="none" stroke="rgb(255,255,255)" stroke-width="0.75" d="M 136 320 L 136 336 M 128 328 L 144 328 "/>
<path id="p251" fill="none" stroke="rgb(0,0,0)" stroke-width="0.5" d="M 136 320 L 136 336 M 128 328 L 144 328 "/>
<path id="p252" fill="none" stroke="rgb(255,255,255)" stroke-width="0.75" d="M 152 320 L 152 336 M 144 328 L 160 328 "/>
<path id="p253" fill="none" stroke="rgb(0,0,0)" stroke-width="0.5" d="M 152 320 L 152 336 M 144 328 L 160 328 "/>
<path id="p254" fill="none" stroke="rgb(255,255,255)" stroke-width="0.75" d="M 152 336 L 152 352 M 144 344 L 160 344 "/>
<path id="p255" fill="none" stroke="rgb(0,0,0)" stroke-width="0.5" d="M 152 336 L 152 352 M 144 344 L 160 344 "/>
<path id="p256" fill="none" stroke="rgb(255,255,255)" stroke-width="0.75" d="M 176 320 L 176 352 M 160 336 L 192 336 "/>
<path id="p257" fill="none" stroke="rgb(0,0,0)" stroke-width="0.5" d="M 176 320 L 176 352 M 160 336 L 192 336 "/>
<path id="p258" fill="none" stroke="rgb(255,255,255)" stroke-width="0.75" d="M 168 336 L 168 352 M 160 344 L 176 344 "/>
<path id="p259" fill="none" stroke="rgb(0,0,0)" stroke-width="0.5" d="M 168 336 L 168 352 M 160 344 L 176 344 "/>
<path id="p260" fill="none" stroke="rgb(255,255,255)" stroke-width="0.75" d="M 176 352 L 176 384 M 160 368 L 192 368 "/>
<path id="p261" fill="none" stroke="rgb(0,0,0)" stroke-width="0.5" d="M 176 352 L 176 384 M 160 368 L 192 368 "/>
<path id="p262" fill="none" stroke="rgb(255,255,255)" stroke-width="0.75" d="M 168 352 L 168 368 M 160 360 L 176 360 "/>
<path id="p263" fill="none" stroke="rgb(0,0,0)" stroke-width="0.5" d="M 168 352 L 168 368 M 160 360 L 176 360 "/>
<path id="p264" fill="none" stroke="rgb(255,255,255)" stroke-width="0.75" d="M 184 352 L 184 368 M 176 360 L 192 360 "/>
<path id="p265" fill="none" stroke="rgb(0,0,0)" stroke-width="0.5" d="M 184 352 L 184 368 M 176 360 L 192 360 "/>
<path id="p266" fill="none" stroke="rgb(255,255,255)" stroke-width="0.75" d="M 184 368 L 184 384 M 176 376 L 192 376 "/>
<path id="p267" fill="none" stroke="rgb(0,0,0)" stroke-width="0.5" d="M 184 368 L 184 384 M 176 376 L 192 376 "/>
<path id="p268" fill="none" stroke="rgb(255,255,255)" stroke-width="0.75" d="M 224 320 L 224 384 M 192 352 L 256 352 "/>
<path id="p269" fill="none" stroke="rgb(0,0,0)" stroke-width="0.5" d="M 224 320 L 224 384 M 192 352 L 256 352 "/>
<path id="p270" fill="none" stroke="rgb(255,255,255)" stroke-width="0.75" d="M 208 352 L 208 384 M 192 368 L 224 368 "/>
<path id="p271" fill="none" stroke="rgb(0,0,0)" stroke-width="0.5" d="M 208 352 L 208 384 M 192 368 L 224 368 "/>
<path id="p272" fill="none" stroke="rgb(255,255,255)" stroke-width="0.75" d="M 200 368 L 200 384 M 192 376 L 208 376 "/>
<path id="p273" fill="none" stroke="rgb(0,0,0)" stroke-width="0.5" d="M 200 368 L 200 384 M 192 376 L 208 376 "/>
<path id="p274" fill="none" stroke="rgb(255,255,255)" stroke-width="0.75" d="M 192 384 L 192 512 M 128 448 L 256 448 "/>
<path id="p275" fill="none" stroke="rgb(0,0,0)" stroke-width="0.5" d="M 192 384 L 192 512 M 128 448 L 256 448 "/>
<path id="p276" fill="none" stroke="rgb(255,255,255)" stroke-width="0.75" d="M 224 384 L 224 448 M 192 416 L 256 416 "/>
<path id="p277" fill="none" stroke="rgb(0,0,0)" stroke-width="0.5" d="M 224 384 L 224 448 M 192 416 L 256 416 "/>
<path id="p278" fill="none" stroke="rgb(255,255,255)" stroke-width="0.75" d="M 208 384 L 208 416 M 192 400 L 224 400 "/>
<path id="p279" fill="none" stroke="rgb(0,0,0)" stroke-width="0.5" d="M 208 384 L 208 416 M 192 400 L 224 400 "/>
<path id="p280" fill="none" stroke="rgb(255,255,255)" stroke-width="0.75" d="M 200 384 L 200 400 M 192 392 L 208 392 "/>
<path id="p281" fill="none" stroke="rgb(0,0,0)" stroke-width="0.5" d="M 200 384 L 200 400 M 192 392 L 208 392 "/>
<path id="p282" fill="none" stroke="rgb(255,255,255)" stroke-width="0.75" d="M 216 384 L 216 400 M 208 392 L 224 392 "/>
<path id="p283" fill="none" stroke="rgb(0,0,0)" stroke-width="0.5" d="M 216 384 L 216 400 M 208 392 L 224 392 "/>
<path id="p284" fill="none" stroke="rgb(255,255,255)" stroke-width="0.75" d="M 240 384 L 240 416 M 224 400 L 256 400 "/>
<path id="p285" fill="none" stroke="rgb(0,0,0)" stroke-width="0.5" d="M 240 384 L 240 416 M 224 400 L 256 400 "/>
<path id="p286" fill="none" stroke="rgb(255,255,255)" stroke-width="0.75" d="M 232 384 L 232 400 M 224 392 L 240 392 "/>
<path id="p287" fill="none" stroke="rgb(0,0,0)" stroke-width="0.5" d="M 232 384 L 232 400 M 224 392 L 240 392 "/>
<path id="p288" fill="none" stroke="rgb(255,255,255)" stroke-width="0.75" d="M 232 400 L 232 416 M 224 408 L 240 408 "/>
<path id="p289" fill="none" stroke="rgb(0,0,0)" stroke-width="0.5" d="M 232 400 L 232 416 M 224 408 L 240 408 "/>
<path id="p290" fill="none" stroke="rgb(255,255,255)" stroke-width="0.75" d="M 248 400 L 248 416 M 240 408 L 256 408 "/>
<path id="p291" fill="none" stroke="rgb(0,0,0)" stroke-width="0.5" d="M 248 400 L 248 416 M 240 408 L 256 408 "/>
<path id="p292" fill="none" stroke="rgb(255,255,255)" stroke-width="0.75" d="M 240 416 L 240 448 M 224 432 L 256 432 "/>
<path id="p293" fill="none" stroke="rgb(0,0,0)" stroke-width="0.5" d="M 240 416 L 240 448 M 224 432 L 256 432 "/>
<path id="p294" fill="none" stroke="rgb(255,255,255)" stroke-width="0.75" d="M 248 416 L 248 432 M 240 424 L 256 424 "/>
<path id="p295" fill="none" stroke="rgb(0,0,0)" stroke-width="0.5" d="M 248 416 L 248 432 M 240 424 L 256 424 "/>
<path id="p296" fill="none" stroke="rgb(255,255,255)" stroke-width="0.75" d="M 384 256 L 384 512 M 256 384 L 512 384 "/>
<path id="p297" fill="none" stroke="rgb(0,0,0)" stroke-width="0.5" d="M 384 256 L 384 512 M 256 384 L 512 384 "/>
<path id="p298" fill="none" stroke="rgb(255,255,255)" stroke-width="0.75" d="M 448 256 L 448 384 M 384 320 L 512 320 "/>
<path id="p299" fill="none" stroke="rgb(0,0,0)" stroke-width="0.5" d="M 448 256 L 448 384 M 384 320 L 512 320 "/>
<path id="p300" fill="none" stroke="rgb(255,255,255)" stroke-width="0.75" d="M 416 256 L 416 320 M 384 288 L 448 288 "/>
<path id="p301" fill="none" stroke="rgb(0,0,0)" stroke-width="0.5" d="M 416 256 L 416 320 M 384 288 L 448 288 "/>
<path id="p302" fill="none" stroke="rgb(255,255,255)" stroke-width="0.75" d="M 432 256 L 432 288 M 416 272 L 448 272 "/>
<path id="p303" fill="none" stroke="rgb(0,0,0)" stroke-width="0.5" d="M 432 256 L 432 288 M 416 272 L 448 272 "/>
<path id="p304" fill="none" stroke="rgb(255,255,255)" stroke-width="0.75" d="M 424 256 L 424 272 M 416 264 L 432 264 "/>
<path id="p305" fill="none" stroke="rgb(0,0,0)" stroke-width="0.5" d="M 424 256 L 424 272 M 416 264 L 432 264 "/>
<path id="p306" fill="none" stroke="rgb(255,255,255)" stroke-width="0.75" d="M 424 272 L 424 288 M 416 280 L 432 280 "/>
<path id="p307" fill="none" stroke="rgb(0,0,0)" stroke-width="0.5" d="M 424 272 L 424 288 M 416 280 L 432 280 "/>
<path id="p308" fill="none" stroke="rgb(255,255,255)" stroke-width="0.75" d="M 440 272 L 440 288 M 432 280 L 448 280 "/>
<path id="p309" fill="none" stroke="rgb(0,0,0)" stroke-width="0.5" d="M 440 272 L 440 288 M 432 280 L 448 280 "/>
<path id="p310" fill="none" stroke="rgb(255,255,255)" stroke-width="0.75" d="M 432 288 L 432 320 M 416 304 L 448 304 "/>
<path id="p311" fill="none" stroke="rgb(0,0,0)" stroke-width="0.5" d="M 432 288 L 432 320 M 416 304 L 448 304 "/>
<path id="p312" fill="none" stroke="rgb(255,255,255)" stroke-width="0.75" d="M 440 288 L 440 304 M 432 296 L 448 296 "/>
<path id="p313" fill="none" stroke="rgb(0,0,0)" stroke-width="0.5" d="M 440 288 L 440 304 M 432 296 L 448 296 "/>
<path id="p314" fill="none" stroke="rgb(255,255,255)" stroke-width="0.75" d="M 440 304 L 440 320 M 432 312 L 448 312 "/>
<path id="p315" fill="none" stroke="rgb(0,0,0)" stroke-width="0.5" d="M 440 304 L 440 320 M 432 312 L 448 312 "/>
<path id="p316" fill="none" stroke="rgb(255,255,255)" stroke-width="0.75" d="M 480 256 L 480 320 M 448 288 L 512 288 "/>
<path id="p317" fill="none" stroke="rgb(0,0,0)" stroke-width="0.5" d="M 480 256 L 480 320 M 448 288 L 512 288 "/>
<path id="p318" fill="none" stroke="rgb(255,255,255)" stroke-width="0.75" d="M 464 288 L 464 320 M 448 304 L 480 304 "/>
<path id="p319" fill="none" stroke="rgb(0,0,0)" stroke-width="0.5" d="M 464 288 L 464 320 M 448 304 L 480 304 "/>
<path id="p320" fill="none" stroke="rgb(255,255,255)" stroke-width="0.75" d="M 456 304 L 456 320 M 448 312 L 464 312 "/>
<path id="p321" fill="none" stroke="rgb(0,0,0)" stroke-width="0.5" d="M 456 304 L 456 320 M 448 312 L 464 312 "/>
<path id="p322" fill="none" stroke="rgb(255,255,255)" stroke-width="0.75" d="M 416 320 L 416 384 M 384 352 L 448 352 "/>
<path id="p323" fill="none" stroke="rgb(0,0,0)" stroke-width="0.5" d="M 416 320 L 416 384 M 384 352 L 448 352 "/>
<path id="p324" fill="none" stroke="rgb(255,255,255)" stroke-width="0.75" d="M 432 320 L 432 352 M 416 336 L 448 336 "/>
<path id="p325" fill="none" stroke="rgb(0,0,0)" stroke-width="0.5" d="M 432 320 L 432 352 M 416 336 L 448 336 "/>
<path id="p326" fill="none" stroke="rgb(255,255,255)" stroke-width="0.75" d="M 440 320 L 440 336 M 432 328 L 448 328 "/>
<path id="p327" fill="none" stroke="rgb(0,0,0)" stroke-width="0.5" d="M 440 320 L 440 336 M 432 328 L 448 328 "/>
<path id="p328" fill="none" stroke="rgb(255,255,255)" stroke-width="0.75" d="M 480 320 L 480 384 M 448 352 L 512 352 "/>
<path id="p329" fill="none" stroke="rgb(0,0,0)" stroke-width="0.5" d="M 480 320 L 480 384 M 448 352 L 512 352 "/>
<path id="p330" fill="none" stroke="rgb(255,255,255)" stroke-width="0.75" d="M 464 320 L 464 352 M 448 336 L 480 336 "/>
<path id="p331" fill="none" stroke="rgb(0,0,0)" stroke-width="0.5" d="M 464 320 L 464 352 M 448 336 L 480 336 "/>
<path id="p332" fill="none" stroke="rgb(255,255,255)" stroke-width="0.75" d="M 456 320 L 456 336 M 448 328 L 464 328 "/>
<path id="p333" fill="none" stroke="rgb(0,0,0)" stroke-width="0.5" d="M 456 320 L 456 336 M 448 328 L 464 328 "/>
<path id="p334" fill="none" stroke="rgb(255,255,255)" stroke-width="0.75" d="M 456 336 L 456 352 M 448 344 L 464 344 "/>
<path id="p335" fill="none" stroke="rgb(0,0,0)" stroke-width="0.5" d="M 456 336 L 456 352 M 448 344 L 464 344 "/>
<path id="p336" fill="none" stroke="rgb(255,255,255)" stroke-width="0.75" d="M 464 352 L 464 384 M 448 368 L 480 368 "/>
<path id="p337" fill="none" stroke="rgb(0,0,0)" stroke-width="0.5" d="M 464 352 L 464 384 M 448 368 L 480 368 "/>
<path id="p338" fill="none" stroke="rgb(255,255,255)" stroke-width="0.75" d="M 456 352 L 456 368 M 448 360 L 464 360 "/>
<path id="p339" fill="none" stroke="rgb(0,0,0)" stroke-width="0.5" d="M 456 352 L 456 368 M 448 360 L 464 360 "/>
<path id="p340" fill="none" stroke="rgb(255,255,255)" stroke-width="0.75" d="M 456 368 L 456 384 M 448 376 L 464 376 "/>
<path id="p341" fill="none" stroke="rgb(0,0,0)" stroke-width="0.5" d="M 456 368 L 456 384 M 448 376 L 464 376 "/>
<path id="p342" fill="none" stroke="rgb(255,255,255)" stroke-width="0.75" d="M 320 384 L 320 512 M 256 448 L 384 448 "/>
<path id="p343" fill="none" stroke="rgb(0,0,0)" stroke-width="0.5" d="M 320 384 L 320 512 M 256 448 L 384 448 "/>
<path id="p344" fill="none" stroke="rgb(255,255,255)" stroke-width="0.75" d="M 288 384 L 288 448 M 256 416 L 320 416 "/>
<path id="p345" fill="none" stroke="rgb(0,0,0)" stroke-width="0.5" d="M 288 384 L 288 448 M 256 416 L 320 416 "/>
<path id="p346" fill="none" stroke="rgb(255,255,255)" stroke-width="0.75" d="M 272 416 L 272 448 M 256 432 L 288 432 "/>
<path id="p347" fill="none" stroke="rgb(0,0,0)" stroke-width="0.5" d="M 272 416 L 272 448 M 256 432 L 288 432 "/>
<path id="p348" fill="none" stroke="rgb(255,255,255)" stroke-width="0.75" d="M 264 416 L 264 432 M 256 424 L 272 424 "/>
<path id="p349" fill="none" stroke="rgb(0,0,0)" stroke-width="0.5" d="M 264 416 L 264 432 M 256 424 L 272 424 "/>
<path id="p350" fill="none" stroke="rgb(255,255,255)" stroke-width="0.75" d="M 280 416 L 280 432 M 272 424 L 288 424 "/>
<path id="p351" fill="none" stroke="rgb(0,0,0)" stroke-width="0.5" d="M 280 416 L 280 432 M 272 424 L 288 424 "/>
<path id="p352" fill="none" stroke="rgb(255,255,255)" stroke-width="0.75" d="M 280 432 L 280 448 M 272 440 L 288 440 "/>
<path id="p353" fill="none" stroke="rgb(0,0,0)" stroke-width="0.5" d="M 280 432 L 280 448 M 272 440 L 288 440 "/>
<path id="p354" fill="none" stroke="rgb(255,255,255)" stroke-width="0.75" d="M 304 416 L 304 448 M 288 432 L 320 432 "/>
<path id="p355" fill="none" stroke="rgb(0,0,0)" stroke-width="0.5" d="M 304 416 L 304 448 M 288 432 L 320 432 "/>
<path id="p356" fill="none" stroke="rgb(255,255,255)" stroke-width="0.75" d="M 296 432 L 296 448 M 288 440 L 304 440 "/>
<path id="p357" fill="none" stroke="rgb(0,0,0)" stroke-width="0.5" d="M 296 432 L 296 448 M 288 440 L 304 440 "/>
<path id="p358" fill="none" stroke="rgb(255,255,255)" stroke-width="0.75" d="M 312 432 L 312 448 M 304 440 L 320 440 "/>
<path id="p359" fill="none" stroke="rgb(0,0,0)" stroke-width="0.5" d="M 312 432 L 312 448 M 304 440 L 320 440 "/>
<path id="p360" fill="none" stroke="rgb(255,255,255)" stroke-width="0.75" d="M 352 384 L 352 448 M 320 416 L 384 416 "/>
<path id="p361" fill="none" stroke="rgb(0,0,0)" stroke-width="0.5" d="M 352 384 L 352 448 M 320 416 L 384 416 "/>
<path id="p362" fill="none" stroke="rgb(255,255,255)" stroke-width="0.75" d="M 336 416 L 336 448 M 320 432 L 352 432 "/>
<path id="p363" fill="none" stroke="rgb(0,0,0)" stroke-width="0.5" d="M 336 416 L 336 448 M 320 432 L 352 432 "/>
<path id="p364" fill="none" stroke="rgb(255,255,255)" stroke-width="0.75" d="M 328 432 L 328 448 M 320 440 L 336 440 "/>
<path id="p365" fill="none" stroke="rgb(0,0,0)" stroke-width="0.5" d="M 328 432 L 328 448 M 320 440 L 336 440 "/>
<path id="p366" fill="none" stroke="rgb(255,255,255)" stroke-width="0.75" d="M 288 448 L 288 512 M 256 480 L 320 480 "/>
<path id="p367" fill="none" stroke="rgb(0,0,0)" stroke-width="0.5" d="M 288 448 L 288 512 M 256 480 L 320 480 "/>
<path id="p368" fill="none" stroke="rgb(255,255,255)" stroke-width="0.75" d="M 304 448 L 304 480 M 288 464 L 320 464 "/>
<path id="p369" fill="none" stroke="rgb(0,0,0)" stroke-width="0.5" d="M 304 448 L 304 480 M 288 464 L 320 464 "/>
<path id="p370" fill="none" stroke="rgb(255,255,255)" stroke-width="0.75" d="M 312 448 L 312 464 M 304 456 L 320 456 "/>
<path id="p371" fill="none" stroke="rgb(0,0,0)" stroke-width="0.5" d="M 312 448 L 312 464 M 304 456 L 320 456 "/>
<path id="p372" fill="none" stroke="rgb(255,255,255)" stroke-width="0.75" d="M 352 448 L 352 512 M 320 480 L 384 480 "/>
<path id="p373" fill="none" stroke="rgb(0,0,0)" stroke-width="0.5" d="M 352 448 L 352 512 M 320 480 L 384 480 "/>
<path id="p374" fill="none" stroke="rgb(255,255,255)" stroke-width="0.75" d="M 336 448 L 336 480 M 320 464 L 352 464 "/>
<path id="p375" fill="none" stroke="rgb(0,0,0)" stroke-width="0.5" d="M 336 448 L 336 480 M 320 464 L 352 464 "/>
<path id="p376" fill="none" stroke="rgb(255,255,255)" stroke-width="0.75" d="M 328 448 L 328 464 M 320 456 L 336 456 "/>
<path id="p377" fill="none" stroke="rgb(0,0,0)" stroke-width="0.5" d="M 328 448 L 328 464 M 320 456 L 336 456 "/>
<path id="p378" fill="none" stroke="rgb(255,255,255)" stroke-width="0.75" d="M 344 448 L 344 464 M 336 456 L 352 456 "/>
<path id="p379" fill="none" stroke="rgb(0,0,0)" stroke-width="0.5" d="M 344 448 L 344 464 M 336 456 L 352 456 "/>
<path id="p380" fill="none" stroke="rgb(255,255,255)" stroke-width="0.75" d="M 368 448 L 368 480 M 352 464 L 384 464 "/>
<path id="p381" fill="none" stroke="rgb(0,0,0)" stroke-width="0.5" d="M 368 448 L 368 480 M 352 464 L 384 464 "/>
<path id="p382" fill="none" stroke="rgb(255,255,255)" stroke-width="0.75" d="M 360 448 L 360 464 M 352 456 L 368 456 "/>
<path id="p383" fill="none" stroke="rgb(0,0,0)" stroke-width="0.5" d="M 360 448 L 360 464 M 352 456 L 368 456 "/>
<path id="p384" fill="none" stroke="rgb(255,255,255)" stroke-width="0.75" d="M 376 448 L 376 464 M 368 456 L 384 456 "/>
<path id="p385" fill="none" stroke="rgb(0,0,0)" stroke-width="0.5" d="M 376 448 L 376 464 M 368 456 L 384 456 "/>
<path id="p386" fill="none" stroke="rgb(255,255,255)" stroke-width="0.75" d="M 448 384 L 448 512 M 384 448 L 512 448 "/>
<path id="p387" fill="none" stroke="rgb(0,0,0)" stroke-width="0.5" d="M 448 384 L 448 512 M 384 448 L 512 448 "/>
<path id="p388" fill="none" stroke="rgb(255,255,255)" stroke-width="0.75" d="M 416 384 L 416 448 M 384 416 L 448 416 "/>
<path id="p389" fill="none" stroke="rgb(0,0,0)" stroke-width="0.5" d="M 416 384 L 416 448 M 384 416 L 448 416 "/>
<path id="p390" fill="none" stroke="rgb(255,255,255)" stroke-width="0.75" d="M 432 416 L 432 448 M 416 432 L 448 432 "/>
<path id="p391" fill="none" stroke="rgb(0,0,0)" stroke-width="0.5" d="M 432 416 L 432 448 M 416 432 L 448 432 "/>
<path id="p392" fill="none" stroke="rgb(255,255,255)" stroke-width="0.75" d="M 440 416 L 440 432 M 432 424 L 448 424 "/>
<path id="p393" fill="none" stroke="rgb(0,0,0)" stroke-width="0.5" d="M 440 416 L 440 432 M 432 424 L 448 424 "/>
<path id="p394" fill="none" stroke="rgb(255,255,255)" stroke-width="0.75" d="M 424 432 L 424 448 M 416 440 L 432 440 "/>
<path id="p395" fill="none" stroke="rgb(0,0,0)" stroke-width="0.5" d="M 424 432 L 424 448 M 416 440 L 432 440 "/>
<path id="p396" fill="none" stroke="rgb(255,255,255)" stroke-width="0.75" d="M 440 432 L 440 448 M 432 440 L 448 440 "/>
<path id="p397" fill="none" stroke="rgb(0,0,0)" stroke-width="0.5" d="M 440 432 L 440 448 M 432 440 L 448 440 "/>
<path id="p398" fill="none" stroke="rgb(255,255,255)" stroke-width="0.75" d="M 480 384 L 480 448 M 448 416 L 512 416 "/>
<path id="p399" fill="none" stroke="rgb(0,0,0)" stroke-width="0.5" d="M 480 384 L 480 448 M 448 416 L 512 416 "/>
<path id="p400" fill="none" stroke="rgb(255,255,255)" stroke-width="0.75" d="M 464 384 L 464 416 M 448 400 L 480 400 "/>
<path id="p401" fill="none" stroke="rgb(0,0,0)" stroke-width="0.5" d="M 464 384 L 464 416 M 448 400 L 480 400 "/>
<path id="p402" fill="none" stroke="rgb(255,255,255)" stroke-width="0.75" d="M 456 384 L 456 400 M 448 392 L 464 392 "/>
<path id="p403" fill="none" stroke="rgb(0,0,0)" stroke-width="0.5" d="M 456 384 L 456 400 M 448 392 L 464 392 "/>
<path id="p404" fill="none" stroke="rgb(255,255,255)" stroke-width="0.75" d="M 456 400 L 456 416 M 448 408 L 464 408 "/>
<path id="p405" fill="none" stroke="rgb(0,0,0)" stroke-width="0.5" d="M 456 400 L 456 416 M 448 408 L 464 408 "/>
<path id="p406" fill="none" stroke="rgb(255,255,255)" stroke-width="0.75" d="M 464 416 L 464 448 M 448 432 L 480 432 "/>
<path id="p407" fill="none" stroke="rgb(0,0,0)" stroke-width="0.5" d="M 464 416 L 464 448 M 448 432 L 480 432 "/>
<path id="p408" fill="none" stroke="rgb(255,255,255)" stroke-width="0.75" d="M 456 416 L 456 432 M 448 424 L 464 424 "/>
<path id="p409" fill="none" stroke="rgb(0,0,0)" stroke-width="0.5" d="M 456 416 L 456 432 M 448 424 L 464 424 "/>
<path id="p410" fill="none" stroke="rgb(255,255,255)" stroke-width="0.75" d="M 416 448 L 416 512 M 384 480 L 448 480 "/>
<path id="p411" fill="none" stroke="rgb(0,0,0)" stroke-width="0.5" d="M 416 448 L 416 512 M 384 480 L 448 480 "/>
<path id="p412" fill="none" stroke="rgb(255,255,255)" stroke-width="0.75" d="M 400 448 L 400 480 M 384 464 L 416 464 "/>
<path id="p413" fill="none" stroke="rgb(0,0,0)" stroke-width="0.5" d="M 400 448 L 400 480 M 384 464 L 416 464 "/>
<path id="p414" fill="none" stroke="rgb(255,255,255)" stroke-width="0.75" d="M 392 448 L 392 464 M 384 456 L 400 456 "/>
<path id="p415" fill="none" stroke="rgb(0,0,0)" stroke-width="0.5" d="M 392 448 L 392 464 M 384 456 L 400 456 "/>
<path id="p416" fill="none" stroke="rgb(255,255,255)" stroke-width="0.75" d="M 408 448 L 408 464 M 400 456 L 416 456 "/>
<path id="p417" fill="none" stroke="rgb(0,0,0)" stroke-width="0.5" d="M 408 448 L 408 464 M 400 456 L 416 456 "/>
<path id="p418" fill="none" stroke="rgb(255,255,255)" stroke-width="0.75" d="M 432 448 L 432 480 M 416 464 L 448 464 "/>
<path id="p419" fill="none" stroke="rgb(0,0,0)" stroke-width="0.5" d="M 432 448 L 432 480 M 416 464 L 448 464 "/>
<path id="p420" fill="none" stroke="rgb(255,255,255)" stroke-width="0.75" d="M 424 448 L 424 464 M 416 456 L 432 456 "/>
<path id="p421" fill="none" stroke="rgb(0,0,0)" stroke-width="0.5" d="M 424 448 L 424 464 M 416 456 L 432 456 "/>
</g>
</svg>
