<?xml version="1.0" standalone="no"?>
<svg
    xmlns:xlink="http://www.w3.org/1999/xlink"
    xmlns:dc="http://purl.org/dc/elements/1.1/"
    xmlns:cc="http://creativecommons.org/ns#"
    xmlns:rdf="http://www.w3.org/1999/02/22-rdf-syntax-ns#"
    xmlns:svg="http://www.w3.org/2000/svg"
    xmlns="http://www.w3.org/2000/svg"
    version="1.1"
    viewBox="0 0 512 512">
<defs>
<linearGradient id="linear1" gradientUnits="userSpaceOnUse" x1="0" y1="0" x2="200" y2="200" spreadMethod="pad" gradientTransform="matrix(0.499995, 0.499995, -0.499995, 0.499995, 100, 0.000959005)">
<stop offset="0" stop-color="rgb(255,0,0)" stop-opacity="1"/>
<stop offset="1" stop-color="rgb(0,255,0)" stop-opacity="1"/>
</linearGradient>
</defs>
<g transform="translate(0, 512) scale(1, -1)">
<path id="p1" fill="url(#linear1)" d="M 256 0.0024550528 L 511.99744 255.9998950528 256 511.9973350528 0.0025599999999883 255.9998950528 256 0.0024550528 Z "/>
<path id="p2" fill="none" stroke="rgb(255,255,255)" stroke-width="0.75" d="M 0 0 L 512 0 512 512 0 512 Z "/>
<path id="p3" fill="none" stroke="rgb(0,0,0)" stroke-width="0.5" d="M 0 0 L 512 0 512 512 0 512 Z "/>
<path id="p4" fill="none" stroke="rgb(255,255,255)" stroke-width="0.75" d="M 256 0 L 256 512 M 0 256 L 512 256 "/>
<path id="p5" fill="none" stroke="rgb(0,0,0)" stroke-width="0.5" d="M 256 0 L 256 512 M 0 256 L 512 256 "/>
<path id="p6" fill="none" stroke="rgb(255,255,255)" stroke-width="0.75" d="M 128 0 L 128 256 M 0 128 L 256 128 "/>
<path id="p7" fill="none" stroke="rgb(0,0,0)" stroke-width="0.5" d="M 128 0 L 128 256 M 0 128 L 256 128 "/>
<path id="p8" fill="none" stroke="rgb(255,255,255)" stroke-width="0.75" d="M 192 0 L 192 128 M 128 64 L 256 64 "/>
<path id="p9" fill="none" stroke="rgb(0,0,0)" stroke-width="0.5" d="M 192 0 L 192 128 M 128 64 L 256 64 "/>
<path id="p10" fill="none" stroke="rgb(255,255,255)" stroke-width="0.75" d="M 224 0 L 224 64 M 192 32 L 256 32 "/>
<path id="p11" fill="none" stroke="rgb(0,0,0)" stroke-width="0.5" d="M 224 0 L 224 64 M 192 32 L 256 32 "/>
<path id="p12" fill="none" stroke="rgb(255,255,255)" stroke-width="0.75" d="M 240 0 L 240 32 M 224 16 L 256 16 "/>
<path id="p13" fill="none" stroke="rgb(0,0,0)" stroke-width="0.5" d="M 240 0 L 240 32 M 224 16 L 256 16 "/>
<path id="p14" fill="none" stroke="rgb(255,255,255)" stroke-width="0.75" d="M 248 0 L 248 16 M 240 8 L 256 8 "/>
<path id="p15" fill="none" stroke="rgb(0,0,0)" stroke-width="0.5" d="M 248 0 L 248 16 M 240 8 L 256 8 "/>
<path id="p16" fill="none" stroke="rgb(255,255,255)" stroke-width="0.75" d="M 252 0 L 252 8 M 248 4 L 256 4 "/>
<path id="p17" fill="none" stroke="rgb(0,0,0)" stroke-width="0.5" d="M 252 0 L 252 8 M 248 4 L 256 4 "/>
<path id="p18" fill="none" stroke="rgb(255,255,255)" stroke-width="0.75" d="M 252 8 L 252 16 M 248 12 L 256 12 "/>
<path id="p19" fill="none" stroke="rgb(0,0,0)" stroke-width="0.5" d="M 252 8 L 252 16 M 248 12 L 256 12 "/>
<path id="p20" fill="none" stroke="rgb(255,255,255)" stroke-width="0.75" d="M 248 16 L 248 32 M 240 24 L 256 24 "/>
<path id="p21" fill="none" stroke="rgb(0,0,0)" stroke-width="0.5" d="M 248 16 L 248 32 M 240 24 L 256 24 "/>
<path id="p22" fill="none" stroke="rgb(255,255,255)" stroke-width="0.75" d="M 244 16 L 244 24 M 240 20 L 248 20 "/>
<path id="p23" fill="none" stroke="rgb(0,0,0)" stroke-width="0.5" d="M 244 16 L 244 24 M 240 20 L 248 20 "/>
<path id="p24" fill="none" stroke="rgb(255,255,255)" stroke-width="0.75" d="M 240 32 L 240 64 M 224 48 L 256 48 "/>
<path id="p25" fill="none" stroke="rgb(0,0,0)" stroke-width="0.5" d="M 240 32 L 240 64 M 224 48 L 256 48 "/>
<path id="p26" fill="none" stroke="rgb(255,255,255)" stroke-width="0.75" d="M 232 32 L 232 48 M 224 40 L 240 40 "/>
<path id="p27" fill="none" stroke="rgb(0,0,0)" stroke-width="0.5" d="M 232 32 L 232 48 M 224 40 L 240 40 "/>
<path id="p28" fill="none" stroke="rgb(255,255,255)" stroke-width="0.75" d="M 228 32 L 228 40 M 224 36 L 232 36 "/>
<path id="p29" fill="none" stroke="rgb(0,0,0)" stroke-width="0.5" d="M 228 32 L 228 40 M 224 36 L 232 36 "/>
<path id="p30" fill="none" stroke="rgb(255,255,255)" stroke-width="0.75" d="M 224 64 L 224 128 M 192 96 L 256 96 "/>
<path id="p31" fill="none" stroke="rgb(0,0,0)" stroke-width="0.5" d="M 224 64 L 224 128 M 192 96 L 256 96 "/>
<path id="p32" fill="none" stroke="rgb(255,255,255)" stroke-width="0.75" d="M 208 64 L 208 96 M 192 80 L 224 80 "/>
<path id="p33" fill="none" stroke="rgb(0,0,0)" stroke-width="0.5" d="M 208 64 L 208 96 M 192 80 L 224 80 "/>
<path id="p34" fill="none" stroke="rgb(255,255,255)" stroke-width="0.75" d="M 200 64 L 200 80 M 192 72 L 208 72 "/>
<path id="p35" fill="none" stroke="rgb(0,0,0)" stroke-width="0.5" d="M 200 64 L 200 80 M 192 72 L 208 72 "/>
<path id="p36" fill="none" stroke="rgb(255,255,255)" stroke-width="0.75" d="M 196 64 L 196 72 M 192 68 L 200 68 "/>
<path id="p37" fill="none" stroke="rgb(0,0,0)" stroke-width="0.5" d="M 196 64 L 196 72 M 192 68 L 200 68 "/>
<path id="p38" fill="none" stroke="rgb(255,255,255)" stroke-width="0.75" d="M 64 128 L 64 256 M 0 192 L 128 192 "/>
<path id="p39" fill="none" stroke="rgb(0,0,0)" stroke-width="0.5" d="M 64 128 L 64 256 M 0 192 L 128 192 "/>
<path id="p40" fill="none" stroke="rgb(255,255,255)" stroke-width="0.75" d="M 32 192 L 32 256 M 0 224 L 64 224 "/>
<path id="p41" fill="none" stroke="rgb(0,0,0)" stroke-width="0.5" d="M 32 192 L 32 256 M 0 224 L 64 224 "/>
<path id="p42" fill="none" stroke="rgb(255,255,255)" stroke-width="0.75" d="M 16 224 L 16 256 M 0 240 L 32 240 "/>
<path id="p43" fill="none" stroke="rgb(0,0,0)" stroke-width="0.5" d="M 16 224 L 16 256 M 0 240 L 32 240 "/>
<path id="p44" fill="none" stroke="rgb(255,255,255)" stroke-width="0.75" d="M 8 240 L 8 256 M 0 248 L 16 248 "/>
<path id="p45" fill="none" stroke="rgb(0,0,0)" stroke-width="0.5" d="M 8 240 L 8 256 M 0 248 L 16 248 "/>
<path id="p46" fill="none" stroke="rgb(255,255,255)" stroke-width="0.75" d="M 4 248 L 4 256 M 0 252 L 8 252 "/>
<path id="p47" fill="none" stroke="rgb(0,0,0)" stroke-width="0.5" d="M 4 248 L 4 256 M 0 252 L 8 252 "/>
<path id="p48" fill="none" stroke="rgb(255,255,255)" stroke-width="0.75" d="M 12 248 L 12 256 M 8 252 L 16 252 "/>
<path id="p49" fill="none" stroke="rgb(0,0,0)" stroke-width="0.5" d="M 12 248 L 12 256 M 8 252 L 16 252 "/>
<path id="p50" fill="none" stroke="rgb(255,255,255)" stroke-width="0.75" d="M 24 240 L 24 256 M 16 248 L 32 248 "/>
<path id="p51" fill="none" stroke="rgb(0,0,0)" stroke-width="0.5" d="M 24 240 L 24 256 M 16 248 L 32 248 "/>
<path id="p52" fill="none" stroke="rgb(255,255,255)" stroke-width="0.75" d="M 20 240 L 20 248 M 16 244 L 24 244 "/>
<path id="p53" fill="none" stroke="rgb(0,0,0)" stroke-width="0.5" d="M 20 240 L 20 248 M 16 244 L 24 244 "/>
<path id="p54" fill="none" stroke="rgb(255,255,255)" stroke-width="0.75" d="M 48 224 L 48 256 M 32 240 L 64 240 "/>
<path id="p55" fill="none" stroke="rgb(0,0,0)" stroke-width="0.5" d="M 48 224 L 48 256 M 32 240 L 64 240 "/>
<path id="p56" fill="none" stroke="rgb(255,255,255)" stroke-width="0.75" d="M 40 224 L 40 240 M 32 232 L 48 232 "/>
<path id="p57" fill="none" stroke="rgb(0,0,0)" stroke-width="0.5" d="M 40 224 L 40 240 M 32 232 L 48 232 "/>
<path id="p58" fill="none" stroke="rgb(255,255,255)" stroke-width="0.75" d="M 36 224 L 36 232 M 32 228 L 40 228 "/>
<path id="p59" fill="none" stroke="rgb(0,0,0)" stroke-width="0.5" d="M 36 224 L 36 232 M 32 228 L 40 228 "/>
<path id="p60" fill="none" stroke="rgb(255,255,255)" stroke-width="0.75" d="M 96 192 L 96 256 M 64 224 L 128 224 "/>
<path id="p61" fill="none" stroke="rgb(0,0,0)" stroke-width="0.5" d="M 96 192 L 96 256 M 64 224 L 128 224 "/>
<path id="p62" fill="none" stroke="rgb(255,255,255)" stroke-width="0.75" d="M 80 192 L 80 224 M 64 208 L 96 208 "/>
<path id="p63" fill="none" stroke="rgb(0,0,0)" stroke-width="0.5" d="M 80 192 L 80 224 M 64 208 L 96 208 "/>
<path id="p64" fill="none" stroke="rgb(255,255,255)" stroke-width="0.75" d="M 72 192 L 72 208 M 64 200 L 80 200 "/>
<path id="p65" fill="none" stroke="rgb(0,0,0)" stroke-width="0.5" d="M 72 192 L 72 208 M 64 200 L 80 200 "/>
<path id="p66" fill="none" stroke="rgb(255,255,255)" stroke-width="0.75" d="M 68 192 L 68 200 M 64 196 L 72 196 "/>
<path id="p67" fill="none" stroke="rgb(0,0,0)" stroke-width="0.5" d="M 68 192 L 68 200 M 64 196 L 72 196 "/>
<path id="p68" fill="none" stroke="rgb(255,255,255)" stroke-width="0.75" d="M 192 128 L 192 256 M 128 192 L 256 192 "/>
<path id="p69" fill="none" stroke="rgb(0,0,0)" stroke-width="0.5" d="M 192 128 L 192 256 M 128 192 L 256 192 "/>
<path id="p70" fill="none" stroke="rgb(255,255,255)" stroke-width="0.75" d="M 160 128 L 160 192 M 128 160 L 192 160 "/>
<path id="p71" fill="none" stroke="rgb(0,0,0)" stroke-width="0.5" d="M 160 128 L 160 192 M 128 160 L 192 160 "/>
<path id="p72" fill="none" stroke="rgb(255,255,255)" stroke-width="0.75" d="M 144 128 L 144 160 M 128 144 L 160 144 "/>
<path id="p73" fill="none" stroke="rgb(0,0,0)" stroke-width="0.5" d="M 144 128 L 144 160 M 128 144 L 160 144 "/>
<path id="p74" fill="none" stroke="rgb(255,255,255)" stroke-width="0.75" d="M 136 128 L 136 144 M 128 136 L 144 136 "/>
<path id="p75" fill="none" stroke="rgb(0,0,0)" stroke-width="0.5" d="M 136 128 L 136 144 M 128 136 L 144 136 "/>
<path id="p76" fill="none" stroke="rgb(255,255,255)" stroke-width="0.75" d="M 132 128 L 132 136 M 128 132 L 136 132 "/>
<path id="p77" fill="none" stroke="rgb(0,0,0)" stroke-width="0.5" d="M 132 128 L 132 136 M 128 132 L 136 132 "/>
<path id="p78" fill="none" stroke="rgb(255,255,255)" stroke-width="0.75" d="M 384 0 L 384 256 M 256 128 L 512 128 "/>
<path id="p79" fill="none" stroke="rgb(0,0,0)" stroke-width="0.5" d="M 384 0 L 384 256 M 256 128 L 512 128 "/>
<path id="p80" fill="none" stroke="rgb(255,255,255)" stroke-width="0.75" d="M 320 0 L 320 128 M 256 64 L 384 64 "/>
<path id="p81" fill="none" stroke="rgb(0,0,0)" stroke-width="0.5" d="M 320 0 L 320 128 M 256 64 L 384 64 "/>
<path id="p82" fill="none" stroke="rgb(255,255,255)" stroke-width="0.75" d="M 288 0 L 288 64 M 256 32 L 320 32 "/>
<path id="p83" fill="none" stroke="rgb(0,0,0)" stroke-width="0.5" d="M 288 0 L 288 64 M 256 32 L 320 32 "/>
<path id="p84" fill="none" stroke="rgb(255,255,255)" stroke-width="0.75" d="M 272 0 L 272 32 M 256 16 L 288 16 "/>
<path id="p85" fill="none" stroke="rgb(0,0,0)" stroke-width="0.5" d="M 272 0 L 272 32 M 256 16 L 288 16 "/>
<path id="p86" fill="none" stroke="rgb(255,255,255)" stroke-width="0.75" d="M 264 0 L 264 16 M 256 8 L 272 8 "/>
<path id="p87" fill="none" stroke="rgb(0,0,0)" stroke-width="0.5" d="M 264 0 L 264 16 M 256 8 L 272 8 "/>
<path id="p88" fill="none" stroke="rgb(255,255,255)" stroke-width="0.75" d="M 260 0 L 260 8 M 256 4 L 264 4 "/>
<path id="p89" fill="none" stroke="rgb(0,0,0)" stroke-width="0.5" d="M 260 0 L 260 8 M 256 4 L 264 4 "/>
<path id="p90" fill="none" stroke="rgb(255,255,255)" stroke-width="0.75" d="M 260 8 L 260 16 M 256 12 L 264 12 "/>
<path id="p91" fill="none" stroke="rgb(0,0,0)" stroke-width="0.5" d="M 260 8 L 260 16 M 256 12 L 264 12 "/>
<path id="p92" fill="none" stroke="rgb(255,255,255)" stroke-width="0.75" d="M 264 16 L 264 32 M 256 24 L 272 24 "/>
<path id="p93" fill="none" stroke="rgb(0,0,0)" stroke-width="0.5" d="M 264 16 L 264 32 M 256 24 L 272 24 "/>
<path id="p94" fill="none" stroke="rgb(255,255,255)" stroke-width="0.75" d="M 268 16 L 268 24 M 264 20 L 272 20 "/>
<path id="p95" fill="none" stroke="rgb(0,0,0)" stroke-width="0.5" d="M 268 16 L 268 24 M 264 20 L 272 20 "/>
<path id="p96" fill="none" stroke="rgb(255,255,255)" stroke-width="0.75" d="M 272 32 L 272 64 M 256 48 L 288 48 "/>
<path id="p97" fill="none" stroke="rgb(0,0,0)" stroke-width="0.5" d="M 272 32 L 272 64 M 256 48 L 288 48 "/>
<path id="p98" fill="none" stroke="rgb(255,255,255)" stroke-width="0.75" d="M 280 32 L 280 48 M 272 40 L 288 40 "/>
<path id="p99" fill="none" stroke="rgb(0,0,0)" stroke-width="0.5" d="M 280 32 L 280 48 M 272 40 L 288 40 "/>
<path id="p100" fill="none" stroke="rgb(255,255,255)" stroke-width="0.75" d="M 284 32 L 284 40 M 280 36 L 288 36 "/>
<path id="p101" fill="none" stroke="rgb(0,0,0)" stroke-width="0.5" d="M 284 32 L 284 40 M 280 36 L 288 36 "/>
<path id="p102" fill="none" stroke="rgb(255,255,255)" stroke-width="0.75" d="M 288 64 L 288 128 M 256 96 L 320 96 "/>
<path id="p103" fill="none" stroke="rgb(0,0,0)" stroke-width="0.5" d="M 288 64 L 288 128 M 256 96 L 320 96 "/>
<path id="p104" fill="none" stroke="rgb(255,255,255)" stroke-width="0.75" d="M 304 64 L 304 96 M 288 80 L 320 80 "/>
<path id="p105" fill="none" stroke="rgb(0,0,0)" stroke-width="0.5" d="M 304 64 L 304 96 M 288 80 L 320 80 "/>
<path id="p106" fill="none" stroke="rgb(255,255,255)" stroke-width="0.75" d="M 312 64 L 312 80 M 304 72 L 320 72 "/>
<path id="p107" fill="none" stroke="rgb(0,0,0)" stroke-width="0.5" d="M 312 64 L 312 80 M 304 72 L 320 72 "/>
<path id="p108" fill="none" stroke="rgb(255,255,255)" stroke-width="0.75" d="M 316 64 L 316 72 M 312 68 L 320 68 "/>
<path id="p109" fill="none" stroke="rgb(0,0,0)" stroke-width="0.5" d="M 316 64 L 316 72 M 312 68 L 320 68 "/>
<path id="p110" fill="none" stroke="rgb(255,255,255)" stroke-width="0.75" d="M 320 128 L 320 256 M 256 192 L 384 192 "/>
<path id="p111" fill="none" stroke="rgb(0,0,0)" stroke-width="0.5" d="M 320 128 L 320 256 M 256 192 L 384 192 "/>
<path id="p112" fill="none" stroke="rgb(255,255,255)" stroke-width="0.75" d="M 352 128 L 352 192 M 320 160 L 384 160 "/>
<path id="p113" fill="none" stroke="rgb(0,0,0)" stroke-width="0.5" d="M 352 128 L 352 192 M 320 160 L 384 160 "/>
<path id="p114" fill="none" stroke="rgb(255,255,255)" stroke-width="0.75" d="M 368 128 L 368 160 M 352 144 L 384 144 "/>
<path id="p115" fill="none" stroke="rgb(0,0,0)" stroke-width="0.5" d="M 368 128 L 368 160 M 352 144 L 384 144 "/>
<path id="p116" fill="none" stroke="rgb(255,255,255)" stroke-width="0.75" d="M 376 128 L 376 144 M 368 136 L 384 136 "/>
<path id="p117" fill="none" stroke="rgb(0,0,0)" stroke-width="0.5" d="M 376 128 L 376 144 M 368 136 L 384 136 "/>
<path id="p118" fill="none" stroke="rgb(255,255,255)" stroke-width="0.75" d="M 380 128 L 380 136 M 376 132 L 384 132 "/>
<path id="p119" fill="none" stroke="rgb(0,0,0)" stroke-width="0.5" d="M 380 128 L 380 136 M 376 132 L 384 132 "/>
<path id="p120" fill="none" stroke="rgb(255,255,255)" stroke-width="0.75" d="M 448 128 L 448 256 M 384 192 L 512 192 "/>
<path id="p121" fill="none" stroke="rgb(0,0,0)" stroke-width="0.5" d="M 448 128 L 448 256 M 384 192 L 512 192 "/>
<path id="p122" fill="none" stroke="rgb(255,255,255)" stroke-width="0.75" d="M 416 192 L 416 256 M 384 224 L 448 224 "/>
<path id="p123" fill="none" stroke="rgb(0,0,0)" stroke-width="0.5" d="M 416 192 L 416 256 M 384 224 L 448 224 "/>
<path id="p124" fill="none" stroke="rgb(255,255,255)" stroke-width="0.75" d="M 432 192 L 432 224 M 416 208 L 448 208 "/>
<path id="p125" fill="none" stroke="rgb(0,0,0)" stroke-width="0.5" d="M 432 192 L 432 224 M 416 208 L 448 208 "/>
<path id="p126" fill="none" stroke="rgb(255,255,255)" stroke-width="0.75" d="M 440 192 L 440 208 M 432 200 L 448 200 "/>
<path id="p127" fill="none" stroke="rgb(0,0,0)" stroke-width="0.5" d="M 440 192 L 440 208 M 432 200 L 448 200 "/>
<path id="p128" fill="none" stroke="rgb(255,255,255)" stroke-width="0.75" d="M 444 192 L 444 200 M 440 196 L 448 196 "/>
<path id="p129" fill="none" stroke="rgb(0,0,0)" stroke-width="0.5" d="M 444 192 L 444 200 M 440 196 L 448 196 "/>
<path id="p130" fill="none" stroke="rgb(255,255,255)" stroke-width="0.75" d="M 480 192 L 480 256 M 448 224 L 512 224 "/>
<path id="p131" fill="none" stroke="rgb(0,0,0)" stroke-width="0.5" d="M 480 192 L 480 256 M 448 224 L 512 224 "/>
<path id="p132" fill="none" stroke="rgb(255,255,255)" stroke-width="0.75" d="M 464 224 L 464 256 M 448 240 L 480 240 "/>
<path id="p133" fill="none" stroke="rgb(0,0,0)" stroke-width="0.5" d="M 464 224 L 464 256 M 448 240 L 480 240 "/>
<path id="p134" fill="none" stroke="rgb(255,255,255)" stroke-width="0.75" d="M 472 224 L 472 240 M 464 232 L 480 232 "/>
<path id="p135" fill="none" stroke="rgb(0,0,0)" stroke-width="0.5" d="M 472 224 L 472 240 M 464 232 L 480 232 "/>
<path id="p136" fill="none" stroke="rgb(255,255,255)" stroke-width="0.75" d="M 476 224 L 476 232 M 472 228 L 480 228 "/>
<path id="p137" fill="none" stroke="rgb(0,0,0)" stroke-width="0.5" d="M 476 224 L 476 232 M 472 228 L 480 228 "/>
<path id="p138" fill="none" stroke="rgb(255,255,255)" stroke-width="0.75" d="M 496 224 L 496 256 M 480 240 L 512 240 "/>
<path id="p139" fill="none" stroke="rgb(0,0,0)" stroke-width="0.5" d="M 496 224 L 496 256 M 480 240 L 512 240 "/>
<path id="p140" fill="none" stroke="rgb(255,255,255)" stroke-width="0.75" d="M 488 240 L 488 256 M 480 248 L 496 248 "/>
<path id="p141" fill="none" stroke="rgb(0,0,0)" stroke-width="0.5" d="M 488 240 L 488 256 M 480 248 L 496 248 "/>
<path id="p142" fill="none" stroke="rgb(255,255,255)" stroke-width="0.75" d="M 492 240 L 492 248 M 488 244 L 496 244 "/>
<path id="p143" fill="none" stroke="rgb(0,0,0)" stroke-width="0.5" d="M 492 240 L 492 248 M 488 244 L 496 244 "/>
<path id="p144" fill="none" stroke="rgb(255,255,255)" stroke-width="0.75" d="M 504 240 L 504 256 M 496 248 L 512 248 "/>
<path id="p145" fill="none" stroke="rgb(0,0,0)" stroke-width="0.5" d="M 504 240 L 504 256 M 496 248 L 512 248 "/>
<path id="p146" fill="none" stroke="rgb(255,255,255)" stroke-width="0.75" d="M 500 248 L 500 256 M 496 252 L 504 252 "/>
<path id="p147" fill="none" stroke="rgb(0,0,0)" stroke-width="0.5" d="M 500 248 L 500 256 M 496 252 L 504 252 "/>
<path id="p148" fill="none" stroke="rgb(255,255,255)" stroke-width="0.75" d="M 508 248 L 508 256 M 504 252 L 512 252 "/>
<path id="p149" fill="none" stroke="rgb(0,0,0)" stroke-width="0.5" d="M 508 248 L 508 256 M 504 252 L 512 252 "/>
<path id="p150" fill="none" stroke="rgb(255,255,255)" stroke-width="0.75" d="M 128 256 L 128 512 M 0 384 L 256 384 "/>
<path id="p151" fill="none" stroke="rgb(0,0,0)" stroke-width="0.5" d="M 128 256 L 128 512 M 0 384 L 256 384 "/>
<path id="p152" fill="none" stroke="rgb(255,255,255)" stroke-width="0.75" d="M 64 256 L 64 384 M 0 320 L 128 320 "/>
<path id="p153" fill="none" stroke="rgb(0,0,0)" stroke-width="0.5" d="M 64 256 L 64 384 M 0 320 L 128 320 "/>
<path id="p154" fill="none" stroke="rgb(255,255,255)" stroke-width="0.75" d="M 32 256 L 32 320 M 0 288 L 64 288 "/>
<path id="p155" fill="none" stroke="rgb(0,0,0)" stroke-width="0.5" d="M 32 256 L 32 320 M 0 288 L 64 288 "/>
<path id="p156" fill="none" stroke="rgb(255,255,255)" stroke-width="0.75" d="M 16 256 L 16 288 M 0 272 L 32 272 "/>
<path id="p157" fill="none" stroke="rgb(0,0,0)" stroke-width="0.5" d="M 16 256 L 16 288 M 0 272 L 32 272 "/>
<path id="p158" fill="none" stroke="rgb(255,255,255)" stroke-width="0.75" d="M 8 256 L 8 272 M 0 264 L 16 264 "/>
<path id="p159" fill="none" stroke="rgb(0,0,0)" stroke-width="0.5" d="M 8 256 L 8 272 M 0 264 L 16 264 "/>
<path id="p160" fill="none" stroke="rgb(255,255,255)" stroke-width="0.75" d="M 4 256 L 4 264 M 0 260 L 8 260 "/>
<path id="p161" fill="none" stroke="rgb(0,0,0)" stroke-width="0.5" d="M 4 256 L 4 264 M 0 260 L 8 260 "/>
<path id="p162" fill="none" stroke="rgb(255,255,255)" stroke-width="0.75" d="M 12 256 L 12 264 M 8 260 L 16 260 "/>
<path id="p163" fill="none" stroke="rgb(0,0,0)" stroke-width="0.5" d="M 12 256 L 12 264 M 8 260 L 16 260 "/>
<path id="p164" fill="none" stroke="rgb(255,255,255)" stroke-width="0.75" d="M 24 256 L 24 272 M 16 264 L 32 264 "/>
<path id="p165" fill="none" stroke="rgb(0,0,0)" stroke-width="0.5" d="M 24 256 L 24 272 M 16 264 L 32 264 "/>
<path id="p166" fill="none" stroke="rgb(255,255,255)" stroke-width="0.75" d="M 20 264 L 20 272 M 16 268 L 24 268 "/>
<path id="p167" fill="none" stroke="rgb(0,0,0)" stroke-width="0.5" d="M 20 264 L 20 272 M 16 268 L 24 268 "/>
<path id="p168" fill="none" stroke="rgb(255,255,255)" stroke-width="0.75" d="M 48 256 L 48 288 M 32 272 L 64 272 "/>
<path id="p169" fill="none" stroke="rgb(0,0,0)" stroke-width="0.5" d="M 48 256 L 48 288 M 32 272 L 64 272 "/>
<path id="p170" fill="none" stroke="rgb(255,255,255)" stroke-width="0.75" d="M 40 272 L 40 288 M 32 280 L 48 280 "/>
<path id="p171" fill="none" stroke="rgb(0,0,0)" stroke-width="0.5" d="M 40 272 L 40 288 M 32 280 L 48 280 "/>
<path id="p172" fill="none" stroke="rgb(255,255,255)" stroke-width="0.75" d="M 36 280 L 36 288 M 32 284 L 40 284 "/>
<path id="p173" fill="none" stroke="rgb(0,0,0)" stroke-width="0.5" d="M 36 280 L 36 288 M 32 284 L 40 284 "/>
<path id="p174" fill="none" stroke="rgb(255,255,255)" stroke-width="0.75" d="M 96 256 L 96 320 M 64 288 L 128 288 "/>
<path id="p175" fill="none" stroke="rgb(0,0,0)" stroke-width="0.5" d="M 96 256 L 96 320 M 64 288 L 128 288 "/>
<path id="p176" fill="none" stroke="rgb(255,255,255)" stroke-width="0.75" d="M 80 288 L 80 320 M 64 304 L 96 304 "/>
<path id="p177" fill="none" stroke="rgb(0,0,0)" stroke-width="0.5" d="M 80 288 L 80 320 M 64 304 L 96 304 "/>
<path id="p178" fill="none" stroke="rgb(255,255,255)" stroke-width="0.75" d="M 72 304 L 72 320 M 64 312 L 80 312 "/>
<path id="p179" fill="none" stroke="rgb(0,0,0)" stroke-width="0.5" d="M 72 304 L 72 320 M 64 312 L 80 312 "/>
<path id="p180" fill="none" stroke="rgb(255,255,255)" stroke-width="0.75" d="M 68 312 L 68 320 M 64 316 L 72 316 "/>
<path id="p181" fill="none" stroke="rgb(0,0,0)" stroke-width="0.5" d="M 68 312 L 68 320 M 64 316 L 72 316 "/>
<path id="p182" fill="none" stroke="rgb(255,255,255)" stroke-width="0.75" d="M 192 256 L 192 384 M 128 320 L 256 320 "/>
<path id="p183" fill="none" stroke="rgb(0,0,0)" stroke-width="0.5" d="M 192 256 L 192 384 M 128 320 L 256 320 "/>
<path id="p184" fill="none" stroke="rgb(255,255,255)" stroke-width="0.75" d="M 160 320 L 160 384 M 128 352 L 192 352 "/>
<path id="p185" fill="none" stroke="rgb(0,0,0)" stroke-width="0.5" d="M 160 320 L 160 384 M 128 352 L 192 352 "/>
<path id="p186" fill="none" stroke="rgb(255,255,255)" stroke-width="0.75" d="M 144 352 L 144 384 M 128 368 L 160 368 "/>
<path id="p187" fill="none" stroke="rgb(0,0,0)" stroke-width="0.5" d="M 144 352 L 144 384 M 128 368 L 160 368 "/>
<path id="p188" fill="none" stroke="rgb(255,255,255)" stroke-width="0.75" d="M 136 368 L 136 384 M 128 376 L 144 376 "/>
<path id="p189" fill="none" stroke="rgb(0,0,0)" stroke-width="0.5" d="M 136 368 L 136 384 M 128 376 L 144 376 "/>
<path id="p190" fill="none" stroke="rgb(255,255,255)" stroke-width="0.75" d="M 132 376 L 132 384 M 128 380 L 136 380 "/>
<path id="p191" fill="none" stroke="rgb(0,0,0)" stroke-width="0.5" d="M 132 376 L 132 384 M 128 380 L 136 380 "/>
<path id="p192" fill="none" stroke="rgb(255,255,255)" stroke-width="0.75" d="M 192 384 L 192 512 M 128 448 L 256 448 "/>
<path id="p193" fill="none" stroke="rgb(0,0,0)" stroke-width="0.5" d="M 192 384 L 192 512 M 128 448 L 256 448 "/>
<path id="p194" fill="none" stroke="rgb(255,255,255)" stroke-width="0.75" d="M 224 384 L 224 448 M 192 416 L 256 416 "/>
<path id="p195" fill="none" stroke="rgb(0,0,0)" stroke-width="0.5" d="M 224 384 L 224 448 M 192 416 L 256 416 "/>
<path id="p196" fill="none" stroke="rgb(255,255,255)" stroke-width="0.75" d="M 208 416 L 208 448 M 192 432 L 224 432 "/>
<path id="p197" fill="none" stroke="rgb(0,0,0)" stroke-width="0.5" d="M 208 416 L 208 448 M 192 432 L 224 432 "/>
<path id="p198" fill="none" stroke="rgb(255,255,255)" stroke-width="0.75" d="M 200 432 L 200 448 M 192 440 L 208 440 "/>
<path id="p199" fill="none" stroke="rgb(0,0,0)" stroke-width="0.5" d="M 200 432 L 200 448 M 192 440 L 208 440 "/>
<path id="p200" fill="none" stroke="rgb(255,255,255)" stroke-width="0.75" d="M 196 440 L 196 448 M 192 444 L 200 444 "/>
<path id="p201" fill="none" stroke="rgb(0,0,0)" stroke-width="0.5" d="M 196 440 L 196 448 M 192 444 L 200 444 "/>
<path id="p202" fill="none" stroke="rgb(255,255,255)" stroke-width="0.75" d="M 224 448 L 224 512 M 192 480 L 256 480 "/>
<path id="p203" fill="none" stroke="rgb(0,0,0)" stroke-width="0.5" d="M 224 448 L 224 512 M 192 480 L 256 480 "/>
<path id="p204" fill="none" stroke="rgb(255,255,255)" stroke-width="0.75" d="M 240 448 L 240 480 M 224 464 L 256 464 "/>
<path id="p205" fill="none" stroke="rgb(0,0,0)" stroke-width="0.5" d="M 240 448 L 240 480 M 224 464 L 256 464 "/>
<path id="p206" fill="none" stroke="rgb(255,255,255)" stroke-width="0.75" d="M 232 464 L 232 480 M 224 472 L 240 472 "/>
<path id="p207" fill="none" stroke="rgb(0,0,0)" stroke-width="0.5" d="M 232 464 L 232 480 M 224 472 L 240 472 "/>
<path id="p208" fill="none" stroke="rgb(255,255,255)" stroke-width="0.75" d="M 228 472 L 228 480 M 224 476 L 232 476 "/>
<path id="p209" fill="none" stroke="rgb(0,0,0)" stroke-width="0.5" d="M 228 472 L 228 480 M 224 476 L 232 476 "/>
<path id="p210" fill="none" stroke="rgb(255,255,255)" stroke-width="0.75" d="M 240 480 L 240 512 M 224 496 L 256 496 "/>
<path id="p211" fill="none" stroke="rgb(0,0,0)" stroke-width="0.5" d="M 240 480 L 240 512 M 224 496 L 256 496 "/>
<path id="p212" fill="none" stroke="rgb(255,255,255)" stroke-width="0.75" d="M 248 480 L 248 496 M 240 488 L 256 488 "/>
<path id="p213" fill="none" stroke="rgb(0,0,0)" stroke-width="0.5" d="M 248 480 L 248 496 M 240 488 L 256 488 "/>
<path id="p214" fill="none" stroke="rgb(255,255,255)" stroke-width="0.75" d="M 244 488 L 244 496 M 240 492 L 248 492 "/>
<path id="p215" fill="none" stroke="rgb(0,0,0)" stroke-width="0.5" d="M 244 488 L 244 496 M 240 492 L 248 492 "/>
<path id="p216" fill="none" stroke="rgb(255,255,255)" stroke-width="0.75" d="M 248 496 L 248 512 M 240 504 L 256 504 "/>
<path id="p217" fill="none" stroke="rgb(0,0,0)" stroke-width="0.5" d="M 248 496 L 248 512 M 240 504 L 256 504 "/>
<path id="p218" fill="none" stroke="rgb(255,255,255)" stroke-width="0.75" d="M 252 496 L 252 504 M 248 500 L 256 500 "/>
<path id="p219" fill="none" stroke="rgb(0,0,0)" stroke-width="0.5" d="M 252 496 L 252 504 M 248 500 L 256 500 "/>
<path id="p220" fill="none" stroke="rgb(255,255,255)" stroke-width="0.75" d="M 252 504 L 252 512 M 248 508 L 256 508 "/>
<path id="p221" fill="none" stroke="rgb(0,0,0)" stroke-width="0.5" d="M 252 504 L 252 512 M 248 508 L 256 508 "/>
<path id="p222" fill="none" stroke="rgb(255,255,255)" stroke-width="0.75" d="M 384 256 L 384 512 M 256 384 L 512 384 "/>
<path id="p223" fill="none" stroke="rgb(0,0,0)" stroke-width="0.5" d="M 384 256 L 384 512 M 256 384 L 512 384 "/>
<path id="p224" fill="none" stroke="rgb(255,255,255)" stroke-width="0.75" d="M 320 256 L 320 384 M 256 320 L 384 320 "/>
<path id="p225" fill="none" stroke="rgb(0,0,0)" stroke-width="0.5" d="M 320 256 L 320 384 M 256 320 L 384 320 "/>
<path id="p226" fill="none" stroke="rgb(255,255,255)" stroke-width="0.75" d="M 352 320 L 352 384 M 320 352 L 384 352 "/>
<path id="p227" fill="none" stroke="rgb(0,0,0)" stroke-width="0.5" d="M 352 320 L 352 384 M 320 352 L 384 352 "/>
<path id="p228" fill="none" stroke="rgb(255,255,255)" stroke-width="0.75" d="M 368 352 L 368 384 M 352 368 L 384 368 "/>
<path id="p229" fill="none" stroke="rgb(0,0,0)" stroke-width="0.5" d="M 368 352 L 368 384 M 352 368 L 384 368 "/>
<path id="p230" fill="none" stroke="rgb(255,255,255)" stroke-width="0.75" d="M 376 368 L 376 384 M 368 376 L 384 376 "/>
<path id="p231" fill="none" stroke="rgb(0,0,0)" stroke-width="0.5" d="M 376 368 L 376 384 M 368 376 L 384 376 "/>
<path id="p232" fill="none" stroke="rgb(255,255,255)" stroke-width="0.75" d="M 380 376 L 380 384 M 376 380 L 384 380 "/>
<path id="p233" fill="none" stroke="rgb(0,0,0)" stroke-width="0.5" d="M 380 376 L 380 384 M 376 380 L 384 380 "/>
<path id="p234" fill="none" stroke="rgb(255,255,255)" stroke-width="0.75" d="M 448 256 L 448 384 M 384 320 L 512 320 "/>
<path id="p235" fill="none" stroke="rgb(0,0,0)" stroke-width="0.5" d="M 448 256 L 448 384 M 384 320 L 512 320 "/>
<path id="p236" fill="none" stroke="rgb(255,255,255)" stroke-width="0.75" d="M 416 256 L 416 320 M 384 288 L 448 288 "/>
<path id="p237" fill="none" stroke="rgb(0,0,0)" stroke-width="0.5" d="M 416 256 L 416 320 M 384 288 L 448 288 "/>
<path id="p238" fill="none" stroke="rgb(255,255,255)" stroke-width="0.75" d="M 432 288 L 432 320 M 416 304 L 448 304 "/>
<path id="p239" fill="none" stroke="rgb(0,0,0)" stroke-width="0.5" d="M 432 288 L 432 320 M 416 304 L 448 304 "/>
<path id="p240" fill="none" stroke="rgb(255,255,255)" stroke-width="0.75" d="M 440 304 L 440 320 M 432 312 L 448 312 "/>
<path id="p241" fill="none" stroke="rgb(0,0,0)" stroke-width="0.5" d="M 440 304 L 440 320 M 432 312 L 448 312 "/>
<path id="p242" fill="none" stroke="rgb(255,255,255)" stroke-width="0.75" d="M 444 312 L 444 320 M 440 316 L 448 316 "/>
<path id="p243" fill="none" stroke="rgb(0,0,0)" stroke-width="0.5" d="M 444 312 L 444 320 M 440 316 L 448 316 "/>
<path id="p244" fill="none" stroke="rgb(255,255,255)" stroke-width="0.75" d="M 480 256 L 480 320 M 448 288 L 512 288 "/>
<path id="p245" fill="none" stroke="rgb(0,0,0)" stroke-width="0.5" d="M 480 256 L 480 320 M 448 288 L 512 288 "/>
<path id="p246" fill="none" stroke="rgb(255,255,255)" stroke-width="0.75" d="M 464 256 L 464 288 M 448 272 L 480 272 "/>
<path id="p247" fill="none" stroke="rgb(0,0,0)" stroke-width="0.5" d="M 464 256 L 464 288 M 448 272 L 480 272 "/>
<path id="p248" fill="none" stroke="rgb(255,255,255)" stroke-width="0.75" d="M 472 272 L 472 288 M 464 280 L 480 280 "/>
<path id="p249" fill="none" stroke="rgb(0,0,0)" stroke-width="0.5" d="M 472 272 L 472 288 M 464 280 L 480 280 "/>
<path id="p250" fill="none" stroke="rgb(255,255,255)" stroke-width="0.75" d="M 476 280 L 476 288 M 472 284 L 480 284 "/>
<path id="p251" fill="none" stroke="rgb(0,0,0)" stroke-width="0.5" d="M 476 280 L 476 288 M 472 284 L 480 284 "/>
<path id="p252" fill="none" stroke="rgb(255,255,255)" stroke-width="0.75" d="M 496 256 L 496 288 M 480 272 L 512 272 "/>
<path id="p253" fill="none" stroke="rgb(0,0,0)" stroke-width="0.5" d="M 496 256 L 496 288 M 480 272 L 512 272 "/>
<path id="p254" fill="none" stroke="rgb(255,255,255)" stroke-width="0.75" d="M 488 256 L 488 272 M 480 264 L 496 264 "/>
<path id="p255" fill="none" stroke="rgb(0,0,0)" stroke-width="0.5" d="M 488 256 L 488 272 M 480 264 L 496 264 "/>
<path id="p256" fill="none" stroke="rgb(255,255,255)" stroke-width="0.75" d="M 492 264 L 492 272 M 488 268 L 496 268 "/>
<path id="p257" fill="none" stroke="rgb(0,0,0)" stroke-width="0.5" d="M 492 264 L 492 272 M 488 268 L 496 268 "/>
<path id="p258" fill="none" stroke="rgb(255,255,255)" stroke-width="0.75" d="M 504 256 L 504 272 M 496 264 L 512 264 "/>
<path id="p259" fill="none" stroke="rgb(0,0,0)" stroke-width="0.5" d="M 504 256 L 504 272 M 496 264 L 512 264 "/>
<path id="p260" fill="none" stroke="rgb(255,255,255)" stroke-width="0.75" d="M 500 256 L 500 264 M 496 260 L 504 260 "/>
<path id="p261" fill="none" stroke="rgb(0,0,0)" stroke-width="0.5" d="M 500 256 L 500 264 M 496 260 L 504 260 "/>
<path id="p262" fill="none" stroke="rgb(255,255,255)" stroke-width="0.75" d="M 508 256 L 508 264 M 504 260 L 512 260 "/>
<path id="p263" fill="none" stroke="rgb(0,0,0)" stroke-width="0.5" d="M 508 256 L 508 264 M 504 260 L 512 260 "/>
<path id="p264" fill="none" stroke="rgb(255,255,255)" stroke-width="0.75" d="M 320 384 L 320 512 M 256 448 L 384 448 "/>
<path id="p265" fill="none" stroke="rgb(0,0,0)" stroke-width="0.5" d="M 320 384 L 320 512 M 256 448 L 384 448 "/>
<path id="p266" fill="none" stroke="rgb(255,255,255)" stroke-width="0.75" d="M 288 384 L 288 448 M 256 416 L 320 416 "/>
<path id="p267" fill="none" stroke="rgb(0,0,0)" stroke-width="0.5" d="M 288 384 L 288 448 M 256 416 L 320 416 "/>
<path id="p268" fill="none" stroke="rgb(255,255,255)" stroke-width="0.75" d="M 304 416 L 304 448 M 288 432 L 320 432 "/>
<path id="p269" fill="none" stroke="rgb(0,0,0)" stroke-width="0.5" d="M 304 416 L 304 448 M 288 432 L 320 432 "/>
<path id="p270" fill="none" stroke="rgb(255,255,255)" stroke-width="0.75" d="M 312 432 L 312 448 M 304 440 L 320 440 "/>
<path id="p271" fill="none" stroke="rgb(0,0,0)" stroke-width="0.5" d="M 312 432 L 312 448 M 304 440 L 320 440 "/>
<path id="p272" fill="none" stroke="rgb(255,255,255)" stroke-width="0.75" d="M 316 440 L 316 448 M 312 444 L 320 444 "/>
<path id="p273" fill="none" stroke="rgb(0,0,0)" stroke-width="0.5" d="M 316 440 L 316 448 M 312 444 L 320 444 "/>
<path id="p274" fill="none" stroke="rgb(255,255,255)" stroke-width="0.75" d="M 288 448 L 288 512 M 256 480 L 320 480 "/>
<path id="p275" fill="none" stroke="rgb(0,0,0)" stroke-width="0.5" d="M 288 448 L 288 512 M 256 480 L 320 480 "/>
<path id="p276" fill="none" stroke="rgb(255,255,255)" stroke-width="0.75" d="M 272 448 L 272 480 M 256 464 L 288 464 "/>
<path id="p277" fill="none" stroke="rgb(0,0,0)" stroke-width="0.5" d="M 272 448 L 272 480 M 256 464 L 288 464 "/>
<path id="p278" fill="none" stroke="rgb(255,255,255)" stroke-width="0.75" d="M 280 464 L 280 480 M 272 472 L 288 472 "/>
<path id="p279" fill="none" stroke="rgb(0,0,0)" stroke-width="0.5" d="M 280 464 L 280 480 M 272 472 L 288 472 "/>
<path id="p280" fill="none" stroke="rgb(255,255,255)" stroke-width="0.75" d="M 284 472 L 284 480 M 280 476 L 288 476 "/>
<path id="p281" fill="none" stroke="rgb(0,0,0)" stroke-width="0.5" d="M 284 472 L 284 480 M 280 476 L 288 476 "/>
<path id="p282" fill="none" stroke="rgb(255,255,255)" stroke-width="0.75" d="M 272 480 L 272 512 M 256 496 L 288 496 "/>
<path id="p283" fill="none" stroke="rgb(0,0,0)" stroke-width="0.5" d="M 272 480 L 272 512 M 256 496 L 288 496 "/>
<path id="p284" fill="none" stroke="rgb(255,255,255)" stroke-width="0.75" d="M 264 480 L 264 496 M 256 488 L 272 488 "/>
<path id="p285" fill="none" stroke="rgb(0,0,0)" stroke-width="0.5" d="M 264 480 L 264 496 M 256 488 L 272 488 "/>
<path id="p286" fill="none" stroke="rgb(255,255,255)" stroke-width="0.75" d="M 268 488 L 268 496 M 264 492 L 272 492 "/>
<path id="p287" fill="none" stroke="rgb(0,0,0)" stroke-width="0.5" d="M 268 488 L 268 496 M 264 492 L 272 492 "/>
<path id="p288" fill="none" stroke="rgb(255,255,255)" stroke-width="0.75" d="M 264 496 L 264 512 M 256 504 L 272 504 "/>
<path id="p289" fill="none" stroke="rgb(0,0,0)" stroke-width="0.5" d="M 264 496 L 264 512 M 256 504 L 272 504 "/>
<path id="p290" fill="none" stroke="rgb(255,255,255)" stroke-width="0.75" d="M 260 496 L 260 504 M 256 500 L 264 500 "/>
<path id="p291" fill="none" stroke="rgb(0,0,0)" stroke-width="0.5" d="M 260 496 L 260 504 M 256 500 L 264 500 "/>
<path id="p292" fill="none" stroke="rgb(255,255,255)" stroke-width="0.75" d="M 260 504 L 260 512 M 256 508 L 264 508 "/>
<path id="p293" fill="none" stroke="rgb(0,0,0)" stroke-width="0.5" d="M 260 504 L 260 512 M 256 508 L 264 508 "/>
</g>
</svg>
