<?xml version="1.0" standalone="no"?>
<svg
    xmlns:xlink="http://www.w3.org/1999/xlink"
    xmlns:dc="http://purl.org/dc/elements/1.1/"
    xmlns:cc="http://creativecommons.org/ns#"
    xmlns:rdf="http://www.w3.org/1999/02/22-rdf-syntax-ns#"
    xmlns:svg="http://www.w3.org/2000/svg"
    xmlns="http://www.w3.org/2000/svg"
    version="1.1"
    viewBox="0 0 512 512">
<defs>
<radialGradient id="radial1" gradientUnits="userSpaceOnUse" cx="100" cy="100" fx="150" fy="100" r="100" spreadMethod="pad" gradientTransform="matrix(0.707107, 0.707107, -0.353553, 0.353553, 64.6447, -6.06602)">
<stop offset="0" stop-color="rgb(255,0,0)" stop-opacity="1"/>
<stop offset="1" stop-color="rgb(0,255,0)" stop-opacity="1"/>
</radialGradient>
</defs>
<g transform="translate(0, 512) scale(1, -1)">
<path id="p1" fill="url(#radial1)" d="M 165.490688 346.5095168 A 256.00007921762 127.99985859013 45 0 1 53.614480365297 134.56830024123 256.00007921762 127.99985859013 45 0 1 134.56860744123 53.614173165297 256.00007921757 127.99985859013 -135 0 1 144.48764795119 53.97777275119 256.00007921762 127.99985859013 45 0 1 458.02243204881 367.51255684881 256.00007921759 127.99985859014 -135.00000000001 0 1 458.3860316347 377.43159735877 256.00007921762 127.99985859013 45 0 1 377.43190455877 458.3857244347 256.00007921762 127.99985859013 45 0 1 165.490688 346.5095168 Z "/>
<path id="p2" fill="none" stroke="rgb(255,255,255)" stroke-width="0.75" d="M 0 0 L 512 0 512 512 0 512 Z "/>
<path id="p3" fill="none" stroke="rgb(0,0,0)" stroke-width="0.5" d="M 0 0 L 512 0 512 512 0 512 Z "/>
<path id="p4" fill="none" stroke="rgb(255,255,255)" stroke-width="0.75" d="M 256 0 L 256 512 M 0 256 L 512 256 "/>
<path id="p5" fill="none" stroke="rgb(0,0,0)" stroke-width="0.5" d="M 256 0 L 256 512 M 0 256 L 512 256 "/>
<path id="p6" fill="none" stroke="rgb(255,255,255)" stroke-width="0.75" d="M 128 0 L 128 256 M 0 128 L 256 128 "/>
<path id="p7" fill="none" stroke="rgb(0,0,0)" stroke-width="0.5" d="M 128 0 L 128 256 M 0 128 L 256 128 "/>
<path id="p8" fill="none" stroke="rgb(255,255,255)" stroke-width="0.75" d="M 64 0 L 64 128 M 0 64 L 128 64 "/>
<path id="p9" fill="none" stroke="rgb(0,0,0)" stroke-width="0.5" d="M 64 0 L 64 128 M 0 64 L 128 64 "/>
<path id="p10" fill="none" stroke="rgb(255,255,255)" stroke-width="0.75" d="M 96 0 L 96 64 M 64 32 L 128 32 "/>
<path id="p11" fill="none" stroke="rgb(0,0,0)" stroke-width="0.5" d="M 96 0 L 96 64 M 64 32 L 128 32 "/>
<path id="p12" fill="none" stroke="rgb(255,255,255)" stroke-width="0.75" d="M 80 32 L 80 64 M 64 48 L 96 48 "/>
<path id="p13" fill="none" stroke="rgb(0,0,0)" stroke-width="0.5" d="M 80 32 L 80 64 M 64 48 L 96 48 "/>
<path id="p14" fill="none" stroke="rgb(255,255,255)" stroke-width="0.75" d="M 112 32 L 112 64 M 96 48 L 128 48 "/>
<path id="p15" fill="none" stroke="rgb(0,0,0)" stroke-width="0.5" d="M 112 32 L 112 64 M 96 48 L 128 48 "/>
<path id="p16" fill="none" stroke="rgb(255,255,255)" stroke-width="0.75" d="M 32 64 L 32 128 M 0 96 L 64 96 "/>
<path id="p17" fill="none" stroke="rgb(0,0,0)" stroke-width="0.5" d="M 32 64 L 32 128 M 0 96 L 64 96 "/>
<path id="p18" fill="none" stroke="rgb(255,255,255)" stroke-width="0.75" d="M 48 64 L 48 96 M 32 80 L 64 80 "/>
<path id="p19" fill="none" stroke="rgb(0,0,0)" stroke-width="0.5" d="M 48 64 L 48 96 M 32 80 L 64 80 "/>
<path id="p20" fill="none" stroke="rgb(255,255,255)" stroke-width="0.75" d="M 48 96 L 48 128 M 32 112 L 64 112 "/>
<path id="p21" fill="none" stroke="rgb(0,0,0)" stroke-width="0.5" d="M 48 96 L 48 128 M 32 112 L 64 112 "/>
<path id="p22" fill="none" stroke="rgb(255,255,255)" stroke-width="0.75" d="M 96 64 L 96 128 M 64 96 L 128 96 "/>
<path id="p23" fill="none" stroke="rgb(0,0,0)" stroke-width="0.5" d="M 96 64 L 96 128 M 64 96 L 128 96 "/>
<path id="p24" fill="none" stroke="rgb(255,255,255)" stroke-width="0.75" d="M 80 64 L 80 96 M 64 80 L 96 80 "/>
<path id="p25" fill="none" stroke="rgb(0,0,0)" stroke-width="0.5" d="M 80 64 L 80 96 M 64 80 L 96 80 "/>
<path id="p26" fill="none" stroke="rgb(255,255,255)" stroke-width="0.75" d="M 192 0 L 192 128 M 128 64 L 256 64 "/>
<path id="p27" fill="none" stroke="rgb(0,0,0)" stroke-width="0.5" d="M 192 0 L 192 128 M 128 64 L 256 64 "/>
<path id="p28" fill="none" stroke="rgb(255,255,255)" stroke-width="0.75" d="M 160 0 L 160 64 M 128 32 L 192 32 "/>
<path id="p29" fill="none" stroke="rgb(0,0,0)" stroke-width="0.5" d="M 160 0 L 160 64 M 128 32 L 192 32 "/>
<path id="p30" fill="none" stroke="rgb(255,255,255)" stroke-width="0.75" d="M 144 32 L 144 64 M 128 48 L 160 48 "/>
<path id="p31" fill="none" stroke="rgb(0,0,0)" stroke-width="0.5" d="M 144 32 L 144 64 M 128 48 L 160 48 "/>
<path id="p32" fill="none" stroke="rgb(255,255,255)" stroke-width="0.75" d="M 176 32 L 176 64 M 160 48 L 192 48 "/>
<path id="p33" fill="none" stroke="rgb(0,0,0)" stroke-width="0.5" d="M 176 32 L 176 64 M 160 48 L 192 48 "/>
<path id="p34" fill="none" stroke="rgb(255,255,255)" stroke-width="0.75" d="M 224 0 L 224 64 M 192 32 L 256 32 "/>
<path id="p35" fill="none" stroke="rgb(0,0,0)" stroke-width="0.5" d="M 224 0 L 224 64 M 192 32 L 256 32 "/>
<path id="p36" fill="none" stroke="rgb(255,255,255)" stroke-width="0.75" d="M 208 32 L 208 64 M 192 48 L 224 48 "/>
<path id="p37" fill="none" stroke="rgb(0,0,0)" stroke-width="0.5" d="M 208 32 L 208 64 M 192 48 L 224 48 "/>
<path id="p38" fill="none" stroke="rgb(255,255,255)" stroke-width="0.75" d="M 160 64 L 160 128 M 128 96 L 192 96 "/>
<path id="p39" fill="none" stroke="rgb(0,0,0)" stroke-width="0.5" d="M 160 64 L 160 128 M 128 96 L 192 96 "/>
<path id="p40" fill="none" stroke="rgb(255,255,255)" stroke-width="0.75" d="M 176 64 L 176 96 M 160 80 L 192 80 "/>
<path id="p41" fill="none" stroke="rgb(0,0,0)" stroke-width="0.5" d="M 176 64 L 176 96 M 160 80 L 192 80 "/>
<path id="p42" fill="none" stroke="rgb(255,255,255)" stroke-width="0.75" d="M 224 64 L 224 128 M 192 96 L 256 96 "/>
<path id="p43" fill="none" stroke="rgb(0,0,0)" stroke-width="0.5" d="M 224 64 L 224 128 M 192 96 L 256 96 "/>
<path id="p44" fill="none" stroke="rgb(255,255,255)" stroke-width="0.75" d="M 208 64 L 208 96 M 192 80 L 224 80 "/>
<path id="p45" fill="none" stroke="rgb(0,0,0)" stroke-width="0.5" d="M 208 64 L 208 96 M 192 80 L 224 80 "/>
<path id="p46" fill="none" stroke="rgb(255,255,255)" stroke-width="0.75" d="M 240 64 L 240 96 M 224 80 L 256 80 "/>
<path id="p47" fill="none" stroke="rgb(0,0,0)" stroke-width="0.5" d="M 240 64 L 240 96 M 224 80 L 256 80 "/>
<path id="p48" fill="none" stroke="rgb(255,255,255)" stroke-width="0.75" d="M 64 128 L 64 256 M 0 192 L 128 192 "/>
<path id="p49" fill="none" stroke="rgb(0,0,0)" stroke-width="0.5" d="M 64 128 L 64 256 M 0 192 L 128 192 "/>
<path id="p50" fill="none" stroke="rgb(255,255,255)" stroke-width="0.75" d="M 32 128 L 32 192 M 0 160 L 64 160 "/>
<path id="p51" fill="none" stroke="rgb(0,0,0)" stroke-width="0.5" d="M 32 128 L 32 192 M 0 160 L 64 160 "/>
<path id="p52" fill="none" stroke="rgb(255,255,255)" stroke-width="0.75" d="M 48 128 L 48 160 M 32 144 L 64 144 "/>
<path id="p53" fill="none" stroke="rgb(0,0,0)" stroke-width="0.5" d="M 48 128 L 48 160 M 32 144 L 64 144 "/>
<path id="p54" fill="none" stroke="rgb(255,255,255)" stroke-width="0.75" d="M 48 160 L 48 192 M 32 176 L 64 176 "/>
<path id="p55" fill="none" stroke="rgb(0,0,0)" stroke-width="0.5" d="M 48 160 L 48 192 M 32 176 L 64 176 "/>
<path id="p56" fill="none" stroke="rgb(255,255,255)" stroke-width="0.75" d="M 96 128 L 96 192 M 64 160 L 128 160 "/>
<path id="p57" fill="none" stroke="rgb(0,0,0)" stroke-width="0.5" d="M 96 128 L 96 192 M 64 160 L 128 160 "/>
<path id="p58" fill="none" stroke="rgb(255,255,255)" stroke-width="0.75" d="M 80 160 L 80 192 M 64 176 L 96 176 "/>
<path id="p59" fill="none" stroke="rgb(0,0,0)" stroke-width="0.5" d="M 80 160 L 80 192 M 64 176 L 96 176 "/>
<path id="p60" fill="none" stroke="rgb(255,255,255)" stroke-width="0.75" d="M 32 192 L 32 256 M 0 224 L 64 224 "/>
<path id="p61" fill="none" stroke="rgb(0,0,0)" stroke-width="0.5" d="M 32 192 L 32 256 M 0 224 L 64 224 "/>
<path id="p62" fill="none" stroke="rgb(255,255,255)" stroke-width="0.75" d="M 48 192 L 48 224 M 32 208 L 64 208 "/>
<path id="p63" fill="none" stroke="rgb(0,0,0)" stroke-width="0.5" d="M 48 192 L 48 224 M 32 208 L 64 208 "/>
<path id="p64" fill="none" stroke="rgb(255,255,255)" stroke-width="0.75" d="M 96 192 L 96 256 M 64 224 L 128 224 "/>
<path id="p65" fill="none" stroke="rgb(0,0,0)" stroke-width="0.5" d="M 96 192 L 96 256 M 64 224 L 128 224 "/>
<path id="p66" fill="none" stroke="rgb(255,255,255)" stroke-width="0.75" d="M 80 192 L 80 224 M 64 208 L 96 208 "/>
<path id="p67" fill="none" stroke="rgb(0,0,0)" stroke-width="0.5" d="M 80 192 L 80 224 M 64 208 L 96 208 "/>
<path id="p68" fill="none" stroke="rgb(255,255,255)" stroke-width="0.75" d="M 80 224 L 80 256 M 64 240 L 96 240 "/>
<path id="p69" fill="none" stroke="rgb(0,0,0)" stroke-width="0.5" d="M 80 224 L 80 256 M 64 240 L 96 240 "/>
<path id="p70" fill="none" stroke="rgb(255,255,255)" stroke-width="0.75" d="M 384 0 L 384 256 M 256 128 L 512 128 "/>
<path id="p71" fill="none" stroke="rgb(0,0,0)" stroke-width="0.5" d="M 384 0 L 384 256 M 256 128 L 512 128 "/>
<path id="p72" fill="none" stroke="rgb(255,255,255)" stroke-width="0.75" d="M 320 0 L 320 128 M 256 64 L 384 64 "/>
<path id="p73" fill="none" stroke="rgb(0,0,0)" stroke-width="0.5" d="M 320 0 L 320 128 M 256 64 L 384 64 "/>
<path id="p74" fill="none" stroke="rgb(255,255,255)" stroke-width="0.75" d="M 288 64 L 288 128 M 256 96 L 320 96 "/>
<path id="p75" fill="none" stroke="rgb(0,0,0)" stroke-width="0.5" d="M 288 64 L 288 128 M 256 96 L 320 96 "/>
<path id="p76" fill="none" stroke="rgb(255,255,255)" stroke-width="0.75" d="M 272 64 L 272 96 M 256 80 L 288 80 "/>
<path id="p77" fill="none" stroke="rgb(0,0,0)" stroke-width="0.5" d="M 272 64 L 272 96 M 256 80 L 288 80 "/>
<path id="p78" fill="none" stroke="rgb(255,255,255)" stroke-width="0.75" d="M 272 96 L 272 128 M 256 112 L 288 112 "/>
<path id="p79" fill="none" stroke="rgb(0,0,0)" stroke-width="0.5" d="M 272 96 L 272 128 M 256 112 L 288 112 "/>
<path id="p80" fill="none" stroke="rgb(255,255,255)" stroke-width="0.75" d="M 304 96 L 304 128 M 288 112 L 320 112 "/>
<path id="p81" fill="none" stroke="rgb(0,0,0)" stroke-width="0.5" d="M 304 96 L 304 128 M 288 112 L 320 112 "/>
<path id="p82" fill="none" stroke="rgb(255,255,255)" stroke-width="0.75" d="M 320 128 L 320 256 M 256 192 L 384 192 "/>
<path id="p83" fill="none" stroke="rgb(0,0,0)" stroke-width="0.5" d="M 320 128 L 320 256 M 256 192 L 384 192 "/>
<path id="p84" fill="none" stroke="rgb(255,255,255)" stroke-width="0.75" d="M 288 128 L 288 192 M 256 160 L 320 160 "/>
<path id="p85" fill="none" stroke="rgb(0,0,0)" stroke-width="0.5" d="M 288 128 L 288 192 M 256 160 L 320 160 "/>
<path id="p86" fill="none" stroke="rgb(255,255,255)" stroke-width="0.75" d="M 304 128 L 304 160 M 288 144 L 320 144 "/>
<path id="p87" fill="none" stroke="rgb(0,0,0)" stroke-width="0.5" d="M 304 128 L 304 160 M 288 144 L 320 144 "/>
<path id="p88" fill="none" stroke="rgb(255,255,255)" stroke-width="0.75" d="M 352 128 L 352 192 M 320 160 L 384 160 "/>
<path id="p89" fill="none" stroke="rgb(0,0,0)" stroke-width="0.5" d="M 352 128 L 352 192 M 320 160 L 384 160 "/>
<path id="p90" fill="none" stroke="rgb(255,255,255)" stroke-width="0.75" d="M 336 128 L 336 160 M 320 144 L 352 144 "/>
<path id="p91" fill="none" stroke="rgb(0,0,0)" stroke-width="0.5" d="M 336 128 L 336 160 M 320 144 L 352 144 "/>
<path id="p92" fill="none" stroke="rgb(255,255,255)" stroke-width="0.75" d="M 336 160 L 336 192 M 320 176 L 352 176 "/>
<path id="p93" fill="none" stroke="rgb(0,0,0)" stroke-width="0.5" d="M 336 160 L 336 192 M 320 176 L 352 176 "/>
<path id="p94" fill="none" stroke="rgb(255,255,255)" stroke-width="0.75" d="M 368 160 L 368 192 M 352 176 L 384 176 "/>
<path id="p95" fill="none" stroke="rgb(0,0,0)" stroke-width="0.5" d="M 368 160 L 368 192 M 352 176 L 384 176 "/>
<path id="p96" fill="none" stroke="rgb(255,255,255)" stroke-width="0.75" d="M 352 192 L 352 256 M 320 224 L 384 224 "/>
<path id="p97" fill="none" stroke="rgb(0,0,0)" stroke-width="0.5" d="M 352 192 L 352 256 M 320 224 L 384 224 "/>
<path id="p98" fill="none" stroke="rgb(255,255,255)" stroke-width="0.75" d="M 368 192 L 368 224 M 352 208 L 384 208 "/>
<path id="p99" fill="none" stroke="rgb(0,0,0)" stroke-width="0.5" d="M 368 192 L 368 224 M 352 208 L 384 208 "/>
<path id="p100" fill="none" stroke="rgb(255,255,255)" stroke-width="0.75" d="M 448 128 L 448 256 M 384 192 L 512 192 "/>
<path id="p101" fill="none" stroke="rgb(0,0,0)" stroke-width="0.5" d="M 448 128 L 448 256 M 384 192 L 512 192 "/>
<path id="p102" fill="none" stroke="rgb(255,255,255)" stroke-width="0.75" d="M 416 192 L 416 256 M 384 224 L 448 224 "/>
<path id="p103" fill="none" stroke="rgb(0,0,0)" stroke-width="0.5" d="M 416 192 L 416 256 M 384 224 L 448 224 "/>
<path id="p104" fill="none" stroke="rgb(255,255,255)" stroke-width="0.75" d="M 400 192 L 400 224 M 384 208 L 416 208 "/>
<path id="p105" fill="none" stroke="rgb(0,0,0)" stroke-width="0.5" d="M 400 192 L 400 224 M 384 208 L 416 208 "/>
<path id="p106" fill="none" stroke="rgb(255,255,255)" stroke-width="0.75" d="M 400 224 L 400 256 M 384 240 L 416 240 "/>
<path id="p107" fill="none" stroke="rgb(0,0,0)" stroke-width="0.5" d="M 400 224 L 400 256 M 384 240 L 416 240 "/>
<path id="p108" fill="none" stroke="rgb(255,255,255)" stroke-width="0.75" d="M 432 224 L 432 256 M 416 240 L 448 240 "/>
<path id="p109" fill="none" stroke="rgb(0,0,0)" stroke-width="0.5" d="M 432 224 L 432 256 M 416 240 L 448 240 "/>
<path id="p110" fill="none" stroke="rgb(255,255,255)" stroke-width="0.75" d="M 128 256 L 128 512 M 0 384 L 256 384 "/>
<path id="p111" fill="none" stroke="rgb(0,0,0)" stroke-width="0.5" d="M 128 256 L 128 512 M 0 384 L 256 384 "/>
<path id="p112" fill="none" stroke="rgb(255,255,255)" stroke-width="0.75" d="M 64 256 L 64 384 M 0 320 L 128 320 "/>
<path id="p113" fill="none" stroke="rgb(0,0,0)" stroke-width="0.5" d="M 64 256 L 64 384 M 0 320 L 128 320 "/>
<path id="p114" fill="none" stroke="rgb(255,255,255)" stroke-width="0.75" d="M 96 256 L 96 320 M 64 288 L 128 288 "/>
<path id="p115" fill="none" stroke="rgb(0,0,0)" stroke-width="0.5" d="M 96 256 L 96 320 M 64 288 L 128 288 "/>
<path id="p116" fill="none" stroke="rgb(255,255,255)" stroke-width="0.75" d="M 80 256 L 80 288 M 64 272 L 96 272 "/>
<path id="p117" fill="none" stroke="rgb(0,0,0)" stroke-width="0.5" d="M 80 256 L 80 288 M 64 272 L 96 272 "/>
<path id="p118" fill="none" stroke="rgb(255,255,255)" stroke-width="0.75" d="M 112 256 L 112 288 M 96 272 L 128 272 "/>
<path id="p119" fill="none" stroke="rgb(0,0,0)" stroke-width="0.5" d="M 112 256 L 112 288 M 96 272 L 128 272 "/>
<path id="p120" fill="none" stroke="rgb(255,255,255)" stroke-width="0.75" d="M 112 288 L 112 320 M 96 304 L 128 304 "/>
<path id="p121" fill="none" stroke="rgb(0,0,0)" stroke-width="0.5" d="M 112 288 L 112 320 M 96 304 L 128 304 "/>
<path id="p122" fill="none" stroke="rgb(255,255,255)" stroke-width="0.75" d="M 192 256 L 192 384 M 128 320 L 256 320 "/>
<path id="p123" fill="none" stroke="rgb(0,0,0)" stroke-width="0.5" d="M 192 256 L 192 384 M 128 320 L 256 320 "/>
<path id="p124" fill="none" stroke="rgb(255,255,255)" stroke-width="0.75" d="M 160 256 L 160 320 M 128 288 L 192 288 "/>
<path id="p125" fill="none" stroke="rgb(0,0,0)" stroke-width="0.5" d="M 160 256 L 160 320 M 128 288 L 192 288 "/>
<path id="p126" fill="none" stroke="rgb(255,255,255)" stroke-width="0.75" d="M 144 288 L 144 320 M 128 304 L 160 304 "/>
<path id="p127" fill="none" stroke="rgb(0,0,0)" stroke-width="0.5" d="M 144 288 L 144 320 M 128 304 L 160 304 "/>
<path id="p128" fill="none" stroke="rgb(255,255,255)" stroke-width="0.75" d="M 160 320 L 160 384 M 128 352 L 192 352 "/>
<path id="p129" fill="none" stroke="rgb(0,0,0)" stroke-width="0.5" d="M 160 320 L 160 384 M 128 352 L 192 352 "/>
<path id="p130" fill="none" stroke="rgb(255,255,255)" stroke-width="0.75" d="M 144 320 L 144 352 M 128 336 L 160 336 "/>
<path id="p131" fill="none" stroke="rgb(0,0,0)" stroke-width="0.5" d="M 144 320 L 144 352 M 128 336 L 160 336 "/>
<path id="p132" fill="none" stroke="rgb(255,255,255)" stroke-width="0.75" d="M 176 320 L 176 352 M 160 336 L 192 336 "/>
<path id="p133" fill="none" stroke="rgb(0,0,0)" stroke-width="0.5" d="M 176 320 L 176 352 M 160 336 L 192 336 "/>
<path id="p134" fill="none" stroke="rgb(255,255,255)" stroke-width="0.75" d="M 176 352 L 176 384 M 160 368 L 192 368 "/>
<path id="p135" fill="none" stroke="rgb(0,0,0)" stroke-width="0.5" d="M 176 352 L 176 384 M 160 368 L 192 368 "/>
<path id="p136" fill="none" stroke="rgb(255,255,255)" stroke-width="0.75" d="M 224 320 L 224 384 M 192 352 L 256 352 "/>
<path id="p137" fill="none" stroke="rgb(0,0,0)" stroke-width="0.5" d="M 224 320 L 224 384 M 192 352 L 256 352 "/>
<path id="p138" fill="none" stroke="rgb(255,255,255)" stroke-width="0.75" d="M 208 352 L 208 384 M 192 368 L 224 368 "/>
<path id="p139" fill="none" stroke="rgb(0,0,0)" stroke-width="0.5" d="M 208 352 L 208 384 M 192 368 L 224 368 "/>
<path id="p140" fill="none" stroke="rgb(255,255,255)" stroke-width="0.75" d="M 192 384 L 192 512 M 128 448 L 256 448 "/>
<path id="p141" fill="none" stroke="rgb(0,0,0)" stroke-width="0.5" d="M 192 384 L 192 512 M 128 448 L 256 448 "/>
<path id="p142" fill="none" stroke="rgb(255,255,255)" stroke-width="0.75" d="M 224 384 L 224 448 M 192 416 L 256 416 "/>
<path id="p143" fill="none" stroke="rgb(0,0,0)" stroke-width="0.5" d="M 224 384 L 224 448 M 192 416 L 256 416 "/>
<path id="p144" fill="none" stroke="rgb(255,255,255)" stroke-width="0.75" d="M 208 384 L 208 416 M 192 400 L 224 400 "/>
<path id="p145" fill="none" stroke="rgb(0,0,0)" stroke-width="0.5" d="M 208 384 L 208 416 M 192 400 L 224 400 "/>
<path id="p146" fill="none" stroke="rgb(255,255,255)" stroke-width="0.75" d="M 240 384 L 240 416 M 224 400 L 256 400 "/>
<path id="p147" fill="none" stroke="rgb(0,0,0)" stroke-width="0.5" d="M 240 384 L 240 416 M 224 400 L 256 400 "/>
<path id="p148" fill="none" stroke="rgb(255,255,255)" stroke-width="0.75" d="M 240 416 L 240 448 M 224 432 L 256 432 "/>
<path id="p149" fill="none" stroke="rgb(0,0,0)" stroke-width="0.5" d="M 240 416 L 240 448 M 224 432 L 256 432 "/>
<path id="p150" fill="none" stroke="rgb(255,255,255)" stroke-width="0.75" d="M 384 256 L 384 512 M 256 384 L 512 384 "/>
<path id="p151" fill="none" stroke="rgb(0,0,0)" stroke-width="0.5" d="M 384 256 L 384 512 M 256 384 L 512 384 "/>
<path id="p152" fill="none" stroke="rgb(255,255,255)" stroke-width="0.75" d="M 448 256 L 448 384 M 384 320 L 512 320 "/>
<path id="p153" fill="none" stroke="rgb(0,0,0)" stroke-width="0.5" d="M 448 256 L 448 384 M 384 320 L 512 320 "/>
<path id="p154" fill="none" stroke="rgb(255,255,255)" stroke-width="0.75" d="M 416 256 L 416 320 M 384 288 L 448 288 "/>
<path id="p155" fill="none" stroke="rgb(0,0,0)" stroke-width="0.5" d="M 416 256 L 416 320 M 384 288 L 448 288 "/>
<path id="p156" fill="none" stroke="rgb(255,255,255)" stroke-width="0.75" d="M 432 256 L 432 288 M 416 272 L 448 272 "/>
<path id="p157" fill="none" stroke="rgb(0,0,0)" stroke-width="0.5" d="M 432 256 L 432 288 M 416 272 L 448 272 "/>
<path id="p158" fill="none" stroke="rgb(255,255,255)" stroke-width="0.75" d="M 432 288 L 432 320 M 416 304 L 448 304 "/>
<path id="p159" fill="none" stroke="rgb(0,0,0)" stroke-width="0.5" d="M 432 288 L 432 320 M 416 304 L 448 304 "/>
<path id="p160" fill="none" stroke="rgb(255,255,255)" stroke-width="0.75" d="M 480 256 L 480 320 M 448 288 L 512 288 "/>
<path id="p161" fill="none" stroke="rgb(0,0,0)" stroke-width="0.5" d="M 480 256 L 480 320 M 448 288 L 512 288 "/>
<path id="p162" fill="none" stroke="rgb(255,255,255)" stroke-width="0.75" d="M 464 288 L 464 320 M 448 304 L 480 304 "/>
<path id="p163" fill="none" stroke="rgb(0,0,0)" stroke-width="0.5" d="M 464 288 L 464 320 M 448 304 L 480 304 "/>
<path id="p164" fill="none" stroke="rgb(255,255,255)" stroke-width="0.75" d="M 416 320 L 416 384 M 384 352 L 448 352 "/>
<path id="p165" fill="none" stroke="rgb(0,0,0)" stroke-width="0.5" d="M 416 320 L 416 384 M 384 352 L 448 352 "/>
<path id="p166" fill="none" stroke="rgb(255,255,255)" stroke-width="0.75" d="M 432 320 L 432 352 M 416 336 L 448 336 "/>
<path id="p167" fill="none" stroke="rgb(0,0,0)" stroke-width="0.5" d="M 432 320 L 432 352 M 416 336 L 448 336 "/>
<path id="p168" fill="none" stroke="rgb(255,255,255)" stroke-width="0.75" d="M 480 320 L 480 384 M 448 352 L 512 352 "/>
<path id="p169" fill="none" stroke="rgb(0,0,0)" stroke-width="0.5" d="M 480 320 L 480 384 M 448 352 L 512 352 "/>
<path id="p170" fill="none" stroke="rgb(255,255,255)" stroke-width="0.75" d="M 464 320 L 464 352 M 448 336 L 480 336 "/>
<path id="p171" fill="none" stroke="rgb(0,0,0)" stroke-width="0.5" d="M 464 320 L 464 352 M 448 336 L 480 336 "/>
<path id="p172" fill="none" stroke="rgb(255,255,255)" stroke-width="0.75" d="M 464 352 L 464 384 M 448 368 L 480 368 "/>
<path id="p173" fill="none" stroke="rgb(0,0,0)" stroke-width="0.5" d="M 464 352 L 464 384 M 448 368 L 480 368 "/>
<path id="p174" fill="none" stroke="rgb(255,255,255)" stroke-width="0.75" d="M 320 384 L 320 512 M 256 448 L 384 448 "/>
<path id="p175" fill="none" stroke="rgb(0,0,0)" stroke-width="0.5" d="M 320 384 L 320 512 M 256 448 L 384 448 "/>
<path id="p176" fill="none" stroke="rgb(255,255,255)" stroke-width="0.75" d="M 288 384 L 288 448 M 256 416 L 320 416 "/>
<path id="p177" fill="none" stroke="rgb(0,0,0)" stroke-width="0.5" d="M 288 384 L 288 448 M 256 416 L 320 416 "/>
<path id="p178" fill="none" stroke="rgb(255,255,255)" stroke-width="0.75" d="M 272 416 L 272 448 M 256 432 L 288 432 "/>
<path id="p179" fill="none" stroke="rgb(0,0,0)" stroke-width="0.5" d="M 272 416 L 272 448 M 256 432 L 288 432 "/>
<path id="p180" fill="none" stroke="rgb(255,255,255)" stroke-width="0.75" d="M 304 416 L 304 448 M 288 432 L 320 432 "/>
<path id="p181" fill="none" stroke="rgb(0,0,0)" stroke-width="0.5" d="M 304 416 L 304 448 M 288 432 L 320 432 "/>
<path id="p182" fill="none" stroke="rgb(255,255,255)" stroke-width="0.75" d="M 352 384 L 352 448 M 320 416 L 384 416 "/>
<path id="p183" fill="none" stroke="rgb(0,0,0)" stroke-width="0.5" d="M 352 384 L 352 448 M 320 416 L 384 416 "/>
<path id="p184" fill="none" stroke="rgb(255,255,255)" stroke-width="0.75" d="M 336 416 L 336 448 M 320 432 L 352 432 "/>
<path id="p185" fill="none" stroke="rgb(0,0,0)" stroke-width="0.5" d="M 336 416 L 336 448 M 320 432 L 352 432 "/>
<path id="p186" fill="none" stroke="rgb(255,255,255)" stroke-width="0.75" d="M 288 448 L 288 512 M 256 480 L 320 480 "/>
<path id="p187" fill="none" stroke="rgb(0,0,0)" stroke-width="0.5" d="M 288 448 L 288 512 M 256 480 L 320 480 "/>
<path id="p188" fill="none" stroke="rgb(255,255,255)" stroke-width="0.75" d="M 304 448 L 304 480 M 288 464 L 320 464 "/>
<path id="p189" fill="none" stroke="rgb(0,0,0)" stroke-width="0.5" d="M 304 448 L 304 480 M 288 464 L 320 464 "/>
<path id="p190" fill="none" stroke="rgb(255,255,255)" stroke-width="0.75" d="M 352 448 L 352 512 M 320 480 L 384 480 "/>
<path id="p191" fill="none" stroke="rgb(0,0,0)" stroke-width="0.5" d="M 352 448 L 352 512 M 320 480 L 384 480 "/>
<path id="p192" fill="none" stroke="rgb(255,255,255)" stroke-width="0.75" d="M 336 448 L 336 480 M 320 464 L 352 464 "/>
<path id="p193" fill="none" stroke="rgb(0,0,0)" stroke-width="0.5" d="M 336 448 L 336 480 M 320 464 L 352 464 "/>
<path id="p194" fill="none" stroke="rgb(255,255,255)" stroke-width="0.75" d="M 368 448 L 368 480 M 352 464 L 384 464 "/>
<path id="p195" fill="none" stroke="rgb(0,0,0)" stroke-width="0.5" d="M 368 448 L 368 480 M 352 464 L 384 464 "/>
<path id="p196" fill="none" stroke="rgb(255,255,255)" stroke-width="0.75" d="M 448 384 L 448 512 M 384 448 L 512 448 "/>
<path id="p197" fill="none" stroke="rgb(0,0,0)" stroke-width="0.5" d="M 448 384 L 448 512 M 384 448 L 512 448 "/>
<path id="p198" fill="none" stroke="rgb(255,255,255)" stroke-width="0.75" d="M 416 384 L 416 448 M 384 416 L 448 416 "/>
<path id="p199" fill="none" stroke="rgb(0,0,0)" stroke-width="0.5" d="M 416 384 L 416 448 M 384 416 L 448 416 "/>
<path id="p200" fill="none" stroke="rgb(255,255,255)" stroke-width="0.75" d="M 432 416 L 432 448 M 416 432 L 448 432 "/>
<path id="p201" fill="none" stroke="rgb(0,0,0)" stroke-width="0.5" d="M 432 416 L 432 448 M 416 432 L 448 432 "/>
<path id="p202" fill="none" stroke="rgb(255,255,255)" stroke-width="0.75" d="M 480 384 L 480 448 M 448 416 L 512 416 "/>
<path id="p203" fill="none" stroke="rgb(0,0,0)" stroke-width="0.5" d="M 480 384 L 480 448 M 448 416 L 512 416 "/>
<path id="p204" fill="none" stroke="rgb(255,255,255)" stroke-width="0.75" d="M 464 384 L 464 416 M 448 400 L 480 400 "/>
<path id="p205" fill="none" stroke="rgb(0,0,0)" stroke-width="0.5" d="M 464 384 L 464 416 M 448 400 L 480 400 "/>
<path id="p206" fill="none" stroke="rgb(255,255,255)" stroke-width="0.75" d="M 464 416 L 464 448 M 448 432 L 480 432 "/>
<path id="p207" fill="none" stroke="rgb(0,0,0)" stroke-width="0.5" d="M 464 416 L 464 448 M 448 432 L 480 432 "/>
<path id="p208" fill="none" stroke="rgb(255,255,255)" stroke-width="0.75" d="M 416 448 L 416 512 M 384 480 L 448 480 "/>
<path id="p209" fill="none" stroke="rgb(0,0,0)" stroke-width="0.5" d="M 416 448 L 416 512 M 384 480 L 448 480 "/>
<path id="p210" fill="none" stroke="rgb(255,255,255)" stroke-width="0.75" d="M 400 448 L 400 480 M 384 464 L 416 464 "/>
<path id="p211" fill="none" stroke="rgb(0,0,0)" stroke-width="0.5" d="M 400 448 L 400 480 M 384 464 L 416 464 "/>
<path id="p212" fill="none" stroke="rgb(255,255,255)" stroke-width="0.75" d="M 432 448 L 432 480 M 416 464 L 448 464 "/>
<path id="p213" fill="none" stroke="rgb(0,0,0)" stroke-width="0.5" d="M 432 448 L 432 480 M 416 464 L 448 464 "/>
</g>
</svg>
