<?xml version="1.0" standalone="no"?>
<svg
    xmlns:xlink="http://www.w3.org/1999/xlink"
    xmlns:dc="http://purl.org/dc/elements/1.1/"
    xmlns:cc="http://creativecommons.org/ns#"
    xmlns:rdf="http://www.w3.org/1999/02/22-rdf-syntax-ns#"
    xmlns:svg="http://www.w3.org/2000/svg"
    xmlns="http://www.w3.org/2000/svg"
    version="1.1"
    viewBox="0 0 512 512">
<defs>
</defs>
<g transform="translate(0, 512) scale(1, -1)">
<path id="p1" fill="rgb(255,0,0)" d="M 256 512 A 256 255.99999999869 90.000930871794 0 1 1.3120695073705e-09 256 256 255.99999999869 89.990006864238 0 1 34.29749663232 128 256 255.99999999869 90.002482297897 0 1 256 0 256 255.99999999869 89.999379385194 0 1 477.70250336768 128 256 255.99999999869 90.001619073683 0 1 511.99999999869 256 256 255.99999999869 90.002792464152 0 1 256 512 Z "/>
<path id="p2" fill="rgb(0,0,255)" d="M 0 -0.25 L 512 -0.25 512 0.25 0 0.25 Z "/>
<path id="p3" fill="rgb(0,0,255)" d="M 0 511.75 L 512 511.75 512 512.25 0 512.25 Z "/>
<path id="p4" fill="rgb(0,0,255)" d="M -0.25 0 L -0.25 512 0.25 512 0.25 0 Z "/>
<path id="p5" fill="rgb(0,0,255)" d="M 511.75 0 L 511.75 512 512.25 512 512.25 0 Z "/>
<path id="p6" fill="rgb(0,0,255)" d="M 0 255.75 L 512 255.75 512 256.25 0 256.25 Z "/>
<path id="p7" fill="rgb(0,0,255)" d="M 255.75 0 L 255.75 512 256.25 512 256.25 0 Z "/>
<path id="p8" fill="rgb(0,0,255)" d="M 0 127.75 L 256 127.75 256 128.25 0 128.25 Z "/>
<path id="p9" fill="rgb(0,0,255)" d="M 127.75 0 L 127.75 256 128.25 256 128.25 0 Z "/>
<path id="p10" fill="rgb(0,0,255)" d="M 0 63.75 L 128 63.75 128 64.25 0 64.25 Z "/>
<path id="p11" fill="rgb(0,0,255)" d="M 63.75 0 L 63.75 128 64.25 128 64.25 0 Z "/>
<path id="p12" fill="rgb(0,0,255)" d="M 64 31.75 L 128 31.75 128 32.25 64 32.25 Z "/>
<path id="p13" fill="rgb(0,0,255)" d="M 95.75 0 L 95.75 64 96.25 64 96.25 0 Z "/>
<path id="p14" fill="rgb(0,0,255)" d="M 64 47.75 L 96 47.75 96 48.25 64 48.25 Z "/>
<path id="p15" fill="rgb(0,0,255)" d="M 79.75 32 L 79.75 64 80.25 64 80.25 32 Z "/>
<path id="p16" fill="rgb(0,0,255)" d="M 80 55.75 L 96 55.75 96 56.25 80 56.25 Z "/>
<path id="p17" fill="rgb(0,0,255)" d="M 87.75 48 L 87.75 64 88.25 64 88.25 48 Z "/>
<path id="p18" fill="rgb(0,0,255)" d="M 96 47.75 L 128 47.75 128 48.25 96 48.25 Z "/>
<path id="p19" fill="rgb(0,0,255)" d="M 111.75 32 L 111.75 64 112.25 64 112.25 32 Z "/>
<path id="p20" fill="rgb(0,0,255)" d="M 96 39.75 L 112 39.75 112 40.25 96 40.25 Z "/>
<path id="p21" fill="rgb(0,0,255)" d="M 103.75 32 L 103.75 48 104.25 48 104.25 32 Z "/>
<path id="p22" fill="rgb(0,0,255)" d="M 112 39.75 L 128 39.75 128 40.25 112 40.25 Z "/>
<path id="p23" fill="rgb(0,0,255)" d="M 119.75 32 L 119.75 48 120.25 48 120.25 32 Z "/>
<path id="p24" fill="rgb(0,0,255)" d="M 96 55.75 L 112 55.75 112 56.25 96 56.25 Z "/>
<path id="p25" fill="rgb(0,0,255)" d="M 103.75 48 L 103.75 64 104.25 64 104.25 48 Z "/>
<path id="p26" fill="rgb(0,0,255)" d="M 0 95.75 L 64 95.75 64 96.25 0 96.25 Z "/>
<path id="p27" fill="rgb(0,0,255)" d="M 31.75 64 L 31.75 128 32.25 128 32.25 64 Z "/>
<path id="p28" fill="rgb(0,0,255)" d="M 32 79.75 L 64 79.75 64 80.25 32 80.25 Z "/>
<path id="p29" fill="rgb(0,0,255)" d="M 47.75 64 L 47.75 96 48.25 96 48.25 64 Z "/>
<path id="p30" fill="rgb(0,0,255)" d="M 48 87.75 L 64 87.75 64 88.25 48 88.25 Z "/>
<path id="p31" fill="rgb(0,0,255)" d="M 55.75 80 L 55.75 96 56.25 96 56.25 80 Z "/>
<path id="p32" fill="rgb(0,0,255)" d="M 32 111.75 L 64 111.75 64 112.25 32 112.25 Z "/>
<path id="p33" fill="rgb(0,0,255)" d="M 47.75 96 L 47.75 128 48.25 128 48.25 96 Z "/>
<path id="p34" fill="rgb(0,0,255)" d="M 32 103.75 L 48 103.75 48 104.25 32 104.25 Z "/>
<path id="p35" fill="rgb(0,0,255)" d="M 39.75 96 L 39.75 112 40.25 112 40.25 96 Z "/>
<path id="p36" fill="rgb(0,0,255)" d="M 48 103.75 L 64 103.75 64 104.25 48 104.25 Z "/>
<path id="p37" fill="rgb(0,0,255)" d="M 55.75 96 L 55.75 112 56.25 112 56.25 96 Z "/>
<path id="p38" fill="rgb(0,0,255)" d="M 32 119.75 L 48 119.75 48 120.25 32 120.25 Z "/>
<path id="p39" fill="rgb(0,0,255)" d="M 39.75 112 L 39.75 128 40.25 128 40.25 112 Z "/>
<path id="p40" fill="rgb(0,0,255)" d="M 64 95.75 L 128 95.75 128 96.25 64 96.25 Z "/>
<path id="p41" fill="rgb(0,0,255)" d="M 95.75 64 L 95.75 128 96.25 128 96.25 64 Z "/>
<path id="p42" fill="rgb(0,0,255)" d="M 64 79.75 L 96 79.75 96 80.25 64 80.25 Z "/>
<path id="p43" fill="rgb(0,0,255)" d="M 79.75 64 L 79.75 96 80.25 96 80.25 64 Z "/>
<path id="p44" fill="rgb(0,0,255)" d="M 64 71.75 L 80 71.75 80 72.25 64 72.25 Z "/>
<path id="p45" fill="rgb(0,0,255)" d="M 71.75 64 L 71.75 80 72.25 80 72.25 64 Z "/>
<path id="p46" fill="rgb(0,0,255)" d="M 80 71.75 L 96 71.75 96 72.25 80 72.25 Z "/>
<path id="p47" fill="rgb(0,0,255)" d="M 87.75 64 L 87.75 80 88.25 80 88.25 64 Z "/>
<path id="p48" fill="rgb(0,0,255)" d="M 64 87.75 L 80 87.75 80 88.25 64 88.25 Z "/>
<path id="p49" fill="rgb(0,0,255)" d="M 71.75 80 L 71.75 96 72.25 96 72.25 80 Z "/>
<path id="p50" fill="rgb(0,0,255)" d="M 128 63.75 L 256 63.75 256 64.25 128 64.25 Z "/>
<path id="p51" fill="rgb(0,0,255)" d="M 191.75 0 L 191.75 128 192.25 128 192.25 0 Z "/>
<path id="p52" fill="rgb(0,0,255)" d="M 128 31.75 L 192 31.75 192 32.25 128 32.25 Z "/>
<path id="p53" fill="rgb(0,0,255)" d="M 159.75 0 L 159.75 64 160.25 64 160.25 0 Z "/>
<path id="p54" fill="rgb(0,0,255)" d="M 128 15.75 L 160 15.75 160 16.25 128 16.25 Z "/>
<path id="p55" fill="rgb(0,0,255)" d="M 143.75 0 L 143.75 32 144.25 32 144.25 0 Z "/>
<path id="p56" fill="rgb(0,0,255)" d="M 128 23.75 L 144 23.75 144 24.25 128 24.25 Z "/>
<path id="p57" fill="rgb(0,0,255)" d="M 135.75 16 L 135.75 32 136.25 32 136.25 16 Z "/>
<path id="p58" fill="rgb(0,0,255)" d="M 144 23.75 L 160 23.75 160 24.25 144 24.25 Z "/>
<path id="p59" fill="rgb(0,0,255)" d="M 151.75 16 L 151.75 32 152.25 32 152.25 16 Z "/>
<path id="p60" fill="rgb(0,0,255)" d="M 160 15.75 L 192 15.75 192 16.25 160 16.25 Z "/>
<path id="p61" fill="rgb(0,0,255)" d="M 175.75 0 L 175.75 32 176.25 32 176.25 0 Z "/>
<path id="p62" fill="rgb(0,0,255)" d="M 160 7.75 L 176 7.75 176 8.25 160 8.25 Z "/>
<path id="p63" fill="rgb(0,0,255)" d="M 167.75 0 L 167.75 16 168.25 16 168.25 0 Z "/>
<path id="p64" fill="rgb(0,0,255)" d="M 176 7.75 L 192 7.75 192 8.25 176 8.25 Z "/>
<path id="p65" fill="rgb(0,0,255)" d="M 183.75 0 L 183.75 16 184.25 16 184.25 0 Z "/>
<path id="p66" fill="rgb(0,0,255)" d="M 160 23.75 L 176 23.75 176 24.25 160 24.25 Z "/>
<path id="p67" fill="rgb(0,0,255)" d="M 167.75 16 L 167.75 32 168.25 32 168.25 16 Z "/>
<path id="p68" fill="rgb(0,0,255)" d="M 128 47.75 L 160 47.75 160 48.25 128 48.25 Z "/>
<path id="p69" fill="rgb(0,0,255)" d="M 143.75 32 L 143.75 64 144.25 64 144.25 32 Z "/>
<path id="p70" fill="rgb(0,0,255)" d="M 128 39.75 L 144 39.75 144 40.25 128 40.25 Z "/>
<path id="p71" fill="rgb(0,0,255)" d="M 135.75 32 L 135.75 48 136.25 48 136.25 32 Z "/>
<path id="p72" fill="rgb(0,0,255)" d="M 192 31.75 L 256 31.75 256 32.25 192 32.25 Z "/>
<path id="p73" fill="rgb(0,0,255)" d="M 223.75 0 L 223.75 64 224.25 64 224.25 0 Z "/>
<path id="p74" fill="rgb(0,0,255)" d="M 192 15.75 L 224 15.75 224 16.25 192 16.25 Z "/>
<path id="p75" fill="rgb(0,0,255)" d="M 207.75 0 L 207.75 32 208.25 32 208.25 0 Z "/>
<path id="p76" fill="rgb(0,0,255)" d="M 192 7.75 L 208 7.75 208 8.25 192 8.25 Z "/>
<path id="p77" fill="rgb(0,0,255)" d="M 199.75 0 L 199.75 16 200.25 16 200.25 0 Z "/>
<path id="p78" fill="rgb(0,0,255)" d="M 208 7.75 L 224 7.75 224 8.25 208 8.25 Z "/>
<path id="p79" fill="rgb(0,0,255)" d="M 215.75 0 L 215.75 16 216.25 16 216.25 0 Z "/>
<path id="p80" fill="rgb(0,0,255)" d="M 224 15.75 L 256 15.75 256 16.25 224 16.25 Z "/>
<path id="p81" fill="rgb(0,0,255)" d="M 239.75 0 L 239.75 32 240.25 32 240.25 0 Z "/>
<path id="p82" fill="rgb(0,0,255)" d="M 224 7.75 L 240 7.75 240 8.25 224 8.25 Z "/>
<path id="p83" fill="rgb(0,0,255)" d="M 231.75 0 L 231.75 16 232.25 16 232.25 0 Z "/>
<path id="p84" fill="rgb(0,0,255)" d="M 240 7.75 L 256 7.75 256 8.25 240 8.25 Z "/>
<path id="p85" fill="rgb(0,0,255)" d="M 247.75 0 L 247.75 16 248.25 16 248.25 0 Z "/>
<path id="p86" fill="rgb(0,0,255)" d="M 0 191.75 L 128 191.75 128 192.25 0 192.25 Z "/>
<path id="p87" fill="rgb(0,0,255)" d="M 63.75 128 L 63.75 256 64.25 256 64.25 128 Z "/>
<path id="p88" fill="rgb(0,0,255)" d="M 0 159.75 L 64 159.75 64 160.25 0 160.25 Z "/>
<path id="p89" fill="rgb(0,0,255)" d="M 31.75 128 L 31.75 192 32.25 192 32.25 128 Z "/>
<path id="p90" fill="rgb(0,0,255)" d="M 0 143.75 L 32 143.75 32 144.25 0 144.25 Z "/>
<path id="p91" fill="rgb(0,0,255)" d="M 15.75 128 L 15.75 160 16.25 160 16.25 128 Z "/>
<path id="p92" fill="rgb(0,0,255)" d="M 16 135.75 L 32 135.75 32 136.25 16 136.25 Z "/>
<path id="p93" fill="rgb(0,0,255)" d="M 23.75 128 L 23.75 144 24.25 144 24.25 128 Z "/>
<path id="p94" fill="rgb(0,0,255)" d="M 16 151.75 L 32 151.75 32 152.25 16 152.25 Z "/>
<path id="p95" fill="rgb(0,0,255)" d="M 23.75 144 L 23.75 160 24.25 160 24.25 144 Z "/>
<path id="p96" fill="rgb(0,0,255)" d="M 32 143.75 L 64 143.75 64 144.25 32 144.25 Z "/>
<path id="p97" fill="rgb(0,0,255)" d="M 47.75 128 L 47.75 160 48.25 160 48.25 128 Z "/>
<path id="p98" fill="rgb(0,0,255)" d="M 32 135.75 L 48 135.75 48 136.25 32 136.25 Z "/>
<path id="p99" fill="rgb(0,0,255)" d="M 39.75 128 L 39.75 144 40.25 144 40.25 128 Z "/>
<path id="p100" fill="rgb(0,0,255)" d="M 0 175.75 L 32 175.75 32 176.25 0 176.25 Z "/>
<path id="p101" fill="rgb(0,0,255)" d="M 15.75 160 L 15.75 192 16.25 192 16.25 160 Z "/>
<path id="p102" fill="rgb(0,0,255)" d="M 0 167.75 L 16 167.75 16 168.25 0 168.25 Z "/>
<path id="p103" fill="rgb(0,0,255)" d="M 7.75 160 L 7.75 176 8.25 176 8.25 160 Z "/>
<path id="p104" fill="rgb(0,0,255)" d="M 16 167.75 L 32 167.75 32 168.25 16 168.25 Z "/>
<path id="p105" fill="rgb(0,0,255)" d="M 23.75 160 L 23.75 176 24.25 176 24.25 160 Z "/>
<path id="p106" fill="rgb(0,0,255)" d="M 0 183.75 L 16 183.75 16 184.25 0 184.25 Z "/>
<path id="p107" fill="rgb(0,0,255)" d="M 7.75 176 L 7.75 192 8.25 192 8.25 176 Z "/>
<path id="p108" fill="rgb(0,0,255)" d="M 0 223.75 L 64 223.75 64 224.25 0 224.25 Z "/>
<path id="p109" fill="rgb(0,0,255)" d="M 31.75 192 L 31.75 256 32.25 256 32.25 192 Z "/>
<path id="p110" fill="rgb(0,0,255)" d="M 0 207.75 L 32 207.75 32 208.25 0 208.25 Z "/>
<path id="p111" fill="rgb(0,0,255)" d="M 15.75 192 L 15.75 224 16.25 224 16.25 192 Z "/>
<path id="p112" fill="rgb(0,0,255)" d="M 0 199.75 L 16 199.75 16 200.25 0 200.25 Z "/>
<path id="p113" fill="rgb(0,0,255)" d="M 7.75 192 L 7.75 208 8.25 208 8.25 192 Z "/>
<path id="p114" fill="rgb(0,0,255)" d="M 0 215.75 L 16 215.75 16 216.25 0 216.25 Z "/>
<path id="p115" fill="rgb(0,0,255)" d="M 7.75 208 L 7.75 224 8.25 224 8.25 208 Z "/>
<path id="p116" fill="rgb(0,0,255)" d="M 0 239.75 L 32 239.75 32 240.25 0 240.25 Z "/>
<path id="p117" fill="rgb(0,0,255)" d="M 15.75 224 L 15.75 256 16.25 256 16.25 224 Z "/>
<path id="p118" fill="rgb(0,0,255)" d="M 0 231.75 L 16 231.75 16 232.25 0 232.25 Z "/>
<path id="p119" fill="rgb(0,0,255)" d="M 7.75 224 L 7.75 240 8.25 240 8.25 224 Z "/>
<path id="p120" fill="rgb(0,0,255)" d="M 0 247.75 L 16 247.75 16 248.25 0 248.25 Z "/>
<path id="p121" fill="rgb(0,0,255)" d="M 7.75 240 L 7.75 256 8.25 256 8.25 240 Z "/>
<path id="p122" fill="rgb(0,0,255)" d="M 256 127.75 L 512 127.75 512 128.25 256 128.25 Z "/>
<path id="p123" fill="rgb(0,0,255)" d="M 383.75 0 L 383.75 256 384.25 256 384.25 0 Z "/>
<path id="p124" fill="rgb(0,0,255)" d="M 256 63.75 L 384 63.75 384 64.25 256 64.25 Z "/>
<path id="p125" fill="rgb(0,0,255)" d="M 319.75 0 L 319.75 128 320.25 128 320.25 0 Z "/>
<path id="p126" fill="rgb(0,0,255)" d="M 256 31.75 L 320 31.75 320 32.25 256 32.25 Z "/>
<path id="p127" fill="rgb(0,0,255)" d="M 287.75 0 L 287.75 64 288.25 64 288.25 0 Z "/>
<path id="p128" fill="rgb(0,0,255)" d="M 256 15.75 L 288 15.75 288 16.25 256 16.25 Z "/>
<path id="p129" fill="rgb(0,0,255)" d="M 271.75 0 L 271.75 32 272.25 32 272.25 0 Z "/>
<path id="p130" fill="rgb(0,0,255)" d="M 256 7.75 L 272 7.75 272 8.25 256 8.25 Z "/>
<path id="p131" fill="rgb(0,0,255)" d="M 263.75 0 L 263.75 16 264.25 16 264.25 0 Z "/>
<path id="p132" fill="rgb(0,0,255)" d="M 272 7.75 L 288 7.75 288 8.25 272 8.25 Z "/>
<path id="p133" fill="rgb(0,0,255)" d="M 279.75 0 L 279.75 16 280.25 16 280.25 0 Z "/>
<path id="p134" fill="rgb(0,0,255)" d="M 288 15.75 L 320 15.75 320 16.25 288 16.25 Z "/>
<path id="p135" fill="rgb(0,0,255)" d="M 303.75 0 L 303.75 32 304.25 32 304.25 0 Z "/>
<path id="p136" fill="rgb(0,0,255)" d="M 288 7.75 L 304 7.75 304 8.25 288 8.25 Z "/>
<path id="p137" fill="rgb(0,0,255)" d="M 295.75 0 L 295.75 16 296.25 16 296.25 0 Z "/>
<path id="p138" fill="rgb(0,0,255)" d="M 304 7.75 L 320 7.75 320 8.25 304 8.25 Z "/>
<path id="p139" fill="rgb(0,0,255)" d="M 311.75 0 L 311.75 16 312.25 16 312.25 0 Z "/>
<path id="p140" fill="rgb(0,0,255)" d="M 320 31.75 L 384 31.75 384 32.25 320 32.25 Z "/>
<path id="p141" fill="rgb(0,0,255)" d="M 351.75 0 L 351.75 64 352.25 64 352.25 0 Z "/>
<path id="p142" fill="rgb(0,0,255)" d="M 320 15.75 L 352 15.75 352 16.25 320 16.25 Z "/>
<path id="p143" fill="rgb(0,0,255)" d="M 335.75 0 L 335.75 32 336.25 32 336.25 0 Z "/>
<path id="p144" fill="rgb(0,0,255)" d="M 320 7.75 L 336 7.75 336 8.25 320 8.25 Z "/>
<path id="p145" fill="rgb(0,0,255)" d="M 327.75 0 L 327.75 16 328.25 16 328.25 0 Z "/>
<path id="p146" fill="rgb(0,0,255)" d="M 336 7.75 L 352 7.75 352 8.25 336 8.25 Z "/>
<path id="p147" fill="rgb(0,0,255)" d="M 343.75 0 L 343.75 16 344.25 16 344.25 0 Z "/>
<path id="p148" fill="rgb(0,0,255)" d="M 336 23.75 L 352 23.75 352 24.25 336 24.25 Z "/>
<path id="p149" fill="rgb(0,0,255)" d="M 343.75 16 L 343.75 32 344.25 32 344.25 16 Z "/>
<path id="p150" fill="rgb(0,0,255)" d="M 352 15.75 L 384 15.75 384 16.25 352 16.25 Z "/>
<path id="p151" fill="rgb(0,0,255)" d="M 367.75 0 L 367.75 32 368.25 32 368.25 0 Z "/>
<path id="p152" fill="rgb(0,0,255)" d="M 352 23.75 L 368 23.75 368 24.25 352 24.25 Z "/>
<path id="p153" fill="rgb(0,0,255)" d="M 359.75 16 L 359.75 32 360.25 32 360.25 16 Z "/>
<path id="p154" fill="rgb(0,0,255)" d="M 368 23.75 L 384 23.75 384 24.25 368 24.25 Z "/>
<path id="p155" fill="rgb(0,0,255)" d="M 375.75 16 L 375.75 32 376.25 32 376.25 16 Z "/>
<path id="p156" fill="rgb(0,0,255)" d="M 352 47.75 L 384 47.75 384 48.25 352 48.25 Z "/>
<path id="p157" fill="rgb(0,0,255)" d="M 367.75 32 L 367.75 64 368.25 64 368.25 32 Z "/>
<path id="p158" fill="rgb(0,0,255)" d="M 368 39.75 L 384 39.75 384 40.25 368 40.25 Z "/>
<path id="p159" fill="rgb(0,0,255)" d="M 375.75 32 L 375.75 48 376.25 48 376.25 32 Z "/>
<path id="p160" fill="rgb(0,0,255)" d="M 384 63.75 L 512 63.75 512 64.25 384 64.25 Z "/>
<path id="p161" fill="rgb(0,0,255)" d="M 447.75 0 L 447.75 128 448.25 128 448.25 0 Z "/>
<path id="p162" fill="rgb(0,0,255)" d="M 384 31.75 L 448 31.75 448 32.25 384 32.25 Z "/>
<path id="p163" fill="rgb(0,0,255)" d="M 415.75 0 L 415.75 64 416.25 64 416.25 0 Z "/>
<path id="p164" fill="rgb(0,0,255)" d="M 384 47.75 L 416 47.75 416 48.25 384 48.25 Z "/>
<path id="p165" fill="rgb(0,0,255)" d="M 399.75 32 L 399.75 64 400.25 64 400.25 32 Z "/>
<path id="p166" fill="rgb(0,0,255)" d="M 384 39.75 L 400 39.75 400 40.25 384 40.25 Z "/>
<path id="p167" fill="rgb(0,0,255)" d="M 391.75 32 L 391.75 48 392.25 48 392.25 32 Z "/>
<path id="p168" fill="rgb(0,0,255)" d="M 400 39.75 L 416 39.75 416 40.25 400 40.25 Z "/>
<path id="p169" fill="rgb(0,0,255)" d="M 407.75 32 L 407.75 48 408.25 48 408.25 32 Z "/>
<path id="p170" fill="rgb(0,0,255)" d="M 400 55.75 L 416 55.75 416 56.25 400 56.25 Z "/>
<path id="p171" fill="rgb(0,0,255)" d="M 407.75 48 L 407.75 64 408.25 64 408.25 48 Z "/>
<path id="p172" fill="rgb(0,0,255)" d="M 416 47.75 L 448 47.75 448 48.25 416 48.25 Z "/>
<path id="p173" fill="rgb(0,0,255)" d="M 431.75 32 L 431.75 64 432.25 64 432.25 32 Z "/>
<path id="p174" fill="rgb(0,0,255)" d="M 416 55.75 L 432 55.75 432 56.25 416 56.25 Z "/>
<path id="p175" fill="rgb(0,0,255)" d="M 423.75 48 L 423.75 64 424.25 64 424.25 48 Z "/>
<path id="p176" fill="rgb(0,0,255)" d="M 384 95.75 L 448 95.75 448 96.25 384 96.25 Z "/>
<path id="p177" fill="rgb(0,0,255)" d="M 415.75 64 L 415.75 128 416.25 128 416.25 64 Z "/>
<path id="p178" fill="rgb(0,0,255)" d="M 416 79.75 L 448 79.75 448 80.25 416 80.25 Z "/>
<path id="p179" fill="rgb(0,0,255)" d="M 431.75 64 L 431.75 96 432.25 96 432.25 64 Z "/>
<path id="p180" fill="rgb(0,0,255)" d="M 416 71.75 L 432 71.75 432 72.25 416 72.25 Z "/>
<path id="p181" fill="rgb(0,0,255)" d="M 423.75 64 L 423.75 80 424.25 80 424.25 64 Z "/>
<path id="p182" fill="rgb(0,0,255)" d="M 432 71.75 L 448 71.75 448 72.25 432 72.25 Z "/>
<path id="p183" fill="rgb(0,0,255)" d="M 439.75 64 L 439.75 80 440.25 80 440.25 64 Z "/>
<path id="p184" fill="rgb(0,0,255)" d="M 432 87.75 L 448 87.75 448 88.25 432 88.25 Z "/>
<path id="p185" fill="rgb(0,0,255)" d="M 439.75 80 L 439.75 96 440.25 96 440.25 80 Z "/>
<path id="p186" fill="rgb(0,0,255)" d="M 448 95.75 L 512 95.75 512 96.25 448 96.25 Z "/>
<path id="p187" fill="rgb(0,0,255)" d="M 479.75 64 L 479.75 128 480.25 128 480.25 64 Z "/>
<path id="p188" fill="rgb(0,0,255)" d="M 448 79.75 L 480 79.75 480 80.25 448 80.25 Z "/>
<path id="p189" fill="rgb(0,0,255)" d="M 463.75 64 L 463.75 96 464.25 96 464.25 64 Z "/>
<path id="p190" fill="rgb(0,0,255)" d="M 448 87.75 L 464 87.75 464 88.25 448 88.25 Z "/>
<path id="p191" fill="rgb(0,0,255)" d="M 455.75 80 L 455.75 96 456.25 96 456.25 80 Z "/>
<path id="p192" fill="rgb(0,0,255)" d="M 448 111.75 L 480 111.75 480 112.25 448 112.25 Z "/>
<path id="p193" fill="rgb(0,0,255)" d="M 463.75 96 L 463.75 128 464.25 128 464.25 96 Z "/>
<path id="p194" fill="rgb(0,0,255)" d="M 448 103.75 L 464 103.75 464 104.25 448 104.25 Z "/>
<path id="p195" fill="rgb(0,0,255)" d="M 455.75 96 L 455.75 112 456.25 112 456.25 96 Z "/>
<path id="p196" fill="rgb(0,0,255)" d="M 464 103.75 L 480 103.75 480 104.25 464 104.25 Z "/>
<path id="p197" fill="rgb(0,0,255)" d="M 471.75 96 L 471.75 112 472.25 112 472.25 96 Z "/>
<path id="p198" fill="rgb(0,0,255)" d="M 464 119.75 L 480 119.75 480 120.25 464 120.25 Z "/>
<path id="p199" fill="rgb(0,0,255)" d="M 471.75 112 L 471.75 128 472.25 128 472.25 112 Z "/>
<path id="p200" fill="rgb(0,0,255)" d="M 384 191.75 L 512 191.75 512 192.25 384 192.25 Z "/>
<path id="p201" fill="rgb(0,0,255)" d="M 447.75 128 L 447.75 256 448.25 256 448.25 128 Z "/>
<path id="p202" fill="rgb(0,0,255)" d="M 448 159.75 L 512 159.75 512 160.25 448 160.25 Z "/>
<path id="p203" fill="rgb(0,0,255)" d="M 479.75 128 L 479.75 192 480.25 192 480.25 128 Z "/>
<path id="p204" fill="rgb(0,0,255)" d="M 448 143.75 L 480 143.75 480 144.25 448 144.25 Z "/>
<path id="p205" fill="rgb(0,0,255)" d="M 463.75 128 L 463.75 160 464.25 160 464.25 128 Z "/>
<path id="p206" fill="rgb(0,0,255)" d="M 464 135.75 L 480 135.75 480 136.25 464 136.25 Z "/>
<path id="p207" fill="rgb(0,0,255)" d="M 471.75 128 L 471.75 144 472.25 144 472.25 128 Z "/>
<path id="p208" fill="rgb(0,0,255)" d="M 480 143.75 L 512 143.75 512 144.25 480 144.25 Z "/>
<path id="p209" fill="rgb(0,0,255)" d="M 495.75 128 L 495.75 160 496.25 160 496.25 128 Z "/>
<path id="p210" fill="rgb(0,0,255)" d="M 480 135.75 L 496 135.75 496 136.25 480 136.25 Z "/>
<path id="p211" fill="rgb(0,0,255)" d="M 487.75 128 L 487.75 144 488.25 144 488.25 128 Z "/>
<path id="p212" fill="rgb(0,0,255)" d="M 480 151.75 L 496 151.75 496 152.25 480 152.25 Z "/>
<path id="p213" fill="rgb(0,0,255)" d="M 487.75 144 L 487.75 160 488.25 160 488.25 144 Z "/>
<path id="p214" fill="rgb(0,0,255)" d="M 480 175.75 L 512 175.75 512 176.25 480 176.25 Z "/>
<path id="p215" fill="rgb(0,0,255)" d="M 495.75 160 L 495.75 192 496.25 192 496.25 160 Z "/>
<path id="p216" fill="rgb(0,0,255)" d="M 480 167.75 L 496 167.75 496 168.25 480 168.25 Z "/>
<path id="p217" fill="rgb(0,0,255)" d="M 487.75 160 L 487.75 176 488.25 176 488.25 160 Z "/>
<path id="p218" fill="rgb(0,0,255)" d="M 496 167.75 L 512 167.75 512 168.25 496 168.25 Z "/>
<path id="p219" fill="rgb(0,0,255)" d="M 503.75 160 L 503.75 176 504.25 176 504.25 160 Z "/>
<path id="p220" fill="rgb(0,0,255)" d="M 496 183.75 L 512 183.75 512 184.25 496 184.25 Z "/>
<path id="p221" fill="rgb(0,0,255)" d="M 503.75 176 L 503.75 192 504.25 192 504.25 176 Z "/>
<path id="p222" fill="rgb(0,0,255)" d="M 448 223.75 L 512 223.75 512 224.25 448 224.25 Z "/>
<path id="p223" fill="rgb(0,0,255)" d="M 479.75 192 L 479.75 256 480.25 256 480.25 192 Z "/>
<path id="p224" fill="rgb(0,0,255)" d="M 480 207.75 L 512 207.75 512 208.25 480 208.25 Z "/>
<path id="p225" fill="rgb(0,0,255)" d="M 495.75 192 L 495.75 224 496.25 224 496.25 192 Z "/>
<path id="p226" fill="rgb(0,0,255)" d="M 496 199.75 L 512 199.75 512 200.25 496 200.25 Z "/>
<path id="p227" fill="rgb(0,0,255)" d="M 503.75 192 L 503.75 208 504.25 208 504.25 192 Z "/>
<path id="p228" fill="rgb(0,0,255)" d="M 496 215.75 L 512 215.75 512 216.25 496 216.25 Z "/>
<path id="p229" fill="rgb(0,0,255)" d="M 503.75 208 L 503.75 224 504.25 224 504.25 208 Z "/>
<path id="p230" fill="rgb(0,0,255)" d="M 480 239.75 L 512 239.75 512 240.25 480 240.25 Z "/>
<path id="p231" fill="rgb(0,0,255)" d="M 495.75 224 L 495.75 256 496.25 256 496.25 224 Z "/>
<path id="p232" fill="rgb(0,0,255)" d="M 496 231.75 L 512 231.75 512 232.25 496 232.25 Z "/>
<path id="p233" fill="rgb(0,0,255)" d="M 503.75 224 L 503.75 240 504.25 240 504.25 224 Z "/>
<path id="p234" fill="rgb(0,0,255)" d="M 496 247.75 L 512 247.75 512 248.25 496 248.25 Z "/>
<path id="p235" fill="rgb(0,0,255)" d="M 503.75 240 L 503.75 256 504.25 256 504.25 240 Z "/>
<path id="p236" fill="rgb(0,0,255)" d="M 0 383.75 L 256 383.75 256 384.25 0 384.25 Z "/>
<path id="p237" fill="rgb(0,0,255)" d="M 127.75 256 L 127.75 512 128.25 512 128.25 256 Z "/>
<path id="p238" fill="rgb(0,0,255)" d="M 0 319.75 L 128 319.75 128 320.25 0 320.25 Z "/>
<path id="p239" fill="rgb(0,0,255)" d="M 63.75 256 L 63.75 384 64.25 384 64.25 256 Z "/>
<path id="p240" fill="rgb(0,0,255)" d="M 0 287.75 L 64 287.75 64 288.25 0 288.25 Z "/>
<path id="p241" fill="rgb(0,0,255)" d="M 31.75 256 L 31.75 320 32.25 320 32.25 256 Z "/>
<path id="p242" fill="rgb(0,0,255)" d="M 0 271.75 L 32 271.75 32 272.25 0 272.25 Z "/>
<path id="p243" fill="rgb(0,0,255)" d="M 15.75 256 L 15.75 288 16.25 288 16.25 256 Z "/>
<path id="p244" fill="rgb(0,0,255)" d="M 0 263.75 L 16 263.75 16 264.25 0 264.25 Z "/>
<path id="p245" fill="rgb(0,0,255)" d="M 7.75 256 L 7.75 272 8.25 272 8.25 256 Z "/>
<path id="p246" fill="rgb(0,0,255)" d="M 0 279.75 L 16 279.75 16 280.25 0 280.25 Z "/>
<path id="p247" fill="rgb(0,0,255)" d="M 7.75 272 L 7.75 288 8.25 288 8.25 272 Z "/>
<path id="p248" fill="rgb(0,0,255)" d="M 0 303.75 L 32 303.75 32 304.25 0 304.25 Z "/>
<path id="p249" fill="rgb(0,0,255)" d="M 15.75 288 L 15.75 320 16.25 320 16.25 288 Z "/>
<path id="p250" fill="rgb(0,0,255)" d="M 0 295.75 L 16 295.75 16 296.25 0 296.25 Z "/>
<path id="p251" fill="rgb(0,0,255)" d="M 7.75 288 L 7.75 304 8.25 304 8.25 288 Z "/>
<path id="p252" fill="rgb(0,0,255)" d="M 0 311.75 L 16 311.75 16 312.25 0 312.25 Z "/>
<path id="p253" fill="rgb(0,0,255)" d="M 7.75 304 L 7.75 320 8.25 320 8.25 304 Z "/>
<path id="p254" fill="rgb(0,0,255)" d="M 0 351.75 L 64 351.75 64 352.25 0 352.25 Z "/>
<path id="p255" fill="rgb(0,0,255)" d="M 31.75 320 L 31.75 384 32.25 384 32.25 320 Z "/>
<path id="p256" fill="rgb(0,0,255)" d="M 0 335.75 L 32 335.75 32 336.25 0 336.25 Z "/>
<path id="p257" fill="rgb(0,0,255)" d="M 15.75 320 L 15.75 352 16.25 352 16.25 320 Z "/>
<path id="p258" fill="rgb(0,0,255)" d="M 0 327.75 L 16 327.75 16 328.25 0 328.25 Z "/>
<path id="p259" fill="rgb(0,0,255)" d="M 7.75 320 L 7.75 336 8.25 336 8.25 320 Z "/>
<path id="p260" fill="rgb(0,0,255)" d="M 0 343.75 L 16 343.75 16 344.25 0 344.25 Z "/>
<path id="p261" fill="rgb(0,0,255)" d="M 7.75 336 L 7.75 352 8.25 352 8.25 336 Z "/>
<path id="p262" fill="rgb(0,0,255)" d="M 16 343.75 L 32 343.75 32 344.25 16 344.25 Z "/>
<path id="p263" fill="rgb(0,0,255)" d="M 23.75 336 L 23.75 352 24.25 352 24.25 336 Z "/>
<path id="p264" fill="rgb(0,0,255)" d="M 0 367.75 L 32 367.75 32 368.25 0 368.25 Z "/>
<path id="p265" fill="rgb(0,0,255)" d="M 15.75 352 L 15.75 384 16.25 384 16.25 352 Z "/>
<path id="p266" fill="rgb(0,0,255)" d="M 16 359.75 L 32 359.75 32 360.25 16 360.25 Z "/>
<path id="p267" fill="rgb(0,0,255)" d="M 23.75 352 L 23.75 368 24.25 368 24.25 352 Z "/>
<path id="p268" fill="rgb(0,0,255)" d="M 16 375.75 L 32 375.75 32 376.25 16 376.25 Z "/>
<path id="p269" fill="rgb(0,0,255)" d="M 23.75 368 L 23.75 384 24.25 384 24.25 368 Z "/>
<path id="p270" fill="rgb(0,0,255)" d="M 32 367.75 L 64 367.75 64 368.25 32 368.25 Z "/>
<path id="p271" fill="rgb(0,0,255)" d="M 47.75 352 L 47.75 384 48.25 384 48.25 352 Z "/>
<path id="p272" fill="rgb(0,0,255)" d="M 32 375.75 L 48 375.75 48 376.25 32 376.25 Z "/>
<path id="p273" fill="rgb(0,0,255)" d="M 39.75 368 L 39.75 384 40.25 384 40.25 368 Z "/>
<path id="p274" fill="rgb(0,0,255)" d="M 0 447.75 L 128 447.75 128 448.25 0 448.25 Z "/>
<path id="p275" fill="rgb(0,0,255)" d="M 63.75 384 L 63.75 512 64.25 512 64.25 384 Z "/>
<path id="p276" fill="rgb(0,0,255)" d="M 0 415.75 L 64 415.75 64 416.25 0 416.25 Z "/>
<path id="p277" fill="rgb(0,0,255)" d="M 31.75 384 L 31.75 448 32.25 448 32.25 384 Z "/>
<path id="p278" fill="rgb(0,0,255)" d="M 32 399.75 L 64 399.75 64 400.25 32 400.25 Z "/>
<path id="p279" fill="rgb(0,0,255)" d="M 47.75 384 L 47.75 416 48.25 416 48.25 384 Z "/>
<path id="p280" fill="rgb(0,0,255)" d="M 32 391.75 L 48 391.75 48 392.25 32 392.25 Z "/>
<path id="p281" fill="rgb(0,0,255)" d="M 39.75 384 L 39.75 400 40.25 400 40.25 384 Z "/>
<path id="p282" fill="rgb(0,0,255)" d="M 32 407.75 L 48 407.75 48 408.25 32 408.25 Z "/>
<path id="p283" fill="rgb(0,0,255)" d="M 39.75 400 L 39.75 416 40.25 416 40.25 400 Z "/>
<path id="p284" fill="rgb(0,0,255)" d="M 48 407.75 L 64 407.75 64 408.25 48 408.25 Z "/>
<path id="p285" fill="rgb(0,0,255)" d="M 55.75 400 L 55.75 416 56.25 416 56.25 400 Z "/>
<path id="p286" fill="rgb(0,0,255)" d="M 32 431.75 L 64 431.75 64 432.25 32 432.25 Z "/>
<path id="p287" fill="rgb(0,0,255)" d="M 47.75 416 L 47.75 448 48.25 448 48.25 416 Z "/>
<path id="p288" fill="rgb(0,0,255)" d="M 48 423.75 L 64 423.75 64 424.25 48 424.25 Z "/>
<path id="p289" fill="rgb(0,0,255)" d="M 55.75 416 L 55.75 432 56.25 432 56.25 416 Z "/>
<path id="p290" fill="rgb(0,0,255)" d="M 64 415.75 L 128 415.75 128 416.25 64 416.25 Z "/>
<path id="p291" fill="rgb(0,0,255)" d="M 95.75 384 L 95.75 448 96.25 448 96.25 384 Z "/>
<path id="p292" fill="rgb(0,0,255)" d="M 64 431.75 L 96 431.75 96 432.25 64 432.25 Z "/>
<path id="p293" fill="rgb(0,0,255)" d="M 79.75 416 L 79.75 448 80.25 448 80.25 416 Z "/>
<path id="p294" fill="rgb(0,0,255)" d="M 64 423.75 L 80 423.75 80 424.25 64 424.25 Z "/>
<path id="p295" fill="rgb(0,0,255)" d="M 71.75 416 L 71.75 432 72.25 432 72.25 416 Z "/>
<path id="p296" fill="rgb(0,0,255)" d="M 64 439.75 L 80 439.75 80 440.25 64 440.25 Z "/>
<path id="p297" fill="rgb(0,0,255)" d="M 71.75 432 L 71.75 448 72.25 448 72.25 432 Z "/>
<path id="p298" fill="rgb(0,0,255)" d="M 80 439.75 L 96 439.75 96 440.25 80 440.25 Z "/>
<path id="p299" fill="rgb(0,0,255)" d="M 87.75 432 L 87.75 448 88.25 448 88.25 432 Z "/>
<path id="p300" fill="rgb(0,0,255)" d="M 64 479.75 L 128 479.75 128 480.25 64 480.25 Z "/>
<path id="p301" fill="rgb(0,0,255)" d="M 95.75 448 L 95.75 512 96.25 512 96.25 448 Z "/>
<path id="p302" fill="rgb(0,0,255)" d="M 64 463.75 L 96 463.75 96 464.25 64 464.25 Z "/>
<path id="p303" fill="rgb(0,0,255)" d="M 79.75 448 L 79.75 480 80.25 480 80.25 448 Z "/>
<path id="p304" fill="rgb(0,0,255)" d="M 80 455.75 L 96 455.75 96 456.25 80 456.25 Z "/>
<path id="p305" fill="rgb(0,0,255)" d="M 87.75 448 L 87.75 464 88.25 464 88.25 448 Z "/>
<path id="p306" fill="rgb(0,0,255)" d="M 96 463.75 L 128 463.75 128 464.25 96 464.25 Z "/>
<path id="p307" fill="rgb(0,0,255)" d="M 111.75 448 L 111.75 480 112.25 480 112.25 448 Z "/>
<path id="p308" fill="rgb(0,0,255)" d="M 96 455.75 L 112 455.75 112 456.25 96 456.25 Z "/>
<path id="p309" fill="rgb(0,0,255)" d="M 103.75 448 L 103.75 464 104.25 464 104.25 448 Z "/>
<path id="p310" fill="rgb(0,0,255)" d="M 96 471.75 L 112 471.75 112 472.25 96 472.25 Z "/>
<path id="p311" fill="rgb(0,0,255)" d="M 103.75 464 L 103.75 480 104.25 480 104.25 464 Z "/>
<path id="p312" fill="rgb(0,0,255)" d="M 112 471.75 L 128 471.75 128 472.25 112 472.25 Z "/>
<path id="p313" fill="rgb(0,0,255)" d="M 119.75 464 L 119.75 480 120.25 480 120.25 464 Z "/>
<path id="p314" fill="rgb(0,0,255)" d="M 128 447.75 L 256 447.75 256 448.25 128 448.25 Z "/>
<path id="p315" fill="rgb(0,0,255)" d="M 191.75 384 L 191.75 512 192.25 512 192.25 384 Z "/>
<path id="p316" fill="rgb(0,0,255)" d="M 128 479.75 L 192 479.75 192 480.25 128 480.25 Z "/>
<path id="p317" fill="rgb(0,0,255)" d="M 159.75 448 L 159.75 512 160.25 512 160.25 448 Z "/>
<path id="p318" fill="rgb(0,0,255)" d="M 128 463.75 L 160 463.75 160 464.25 128 464.25 Z "/>
<path id="p319" fill="rgb(0,0,255)" d="M 143.75 448 L 143.75 480 144.25 480 144.25 448 Z "/>
<path id="p320" fill="rgb(0,0,255)" d="M 128 471.75 L 144 471.75 144 472.25 128 472.25 Z "/>
<path id="p321" fill="rgb(0,0,255)" d="M 135.75 464 L 135.75 480 136.25 480 136.25 464 Z "/>
<path id="p322" fill="rgb(0,0,255)" d="M 128 495.75 L 160 495.75 160 496.25 128 496.25 Z "/>
<path id="p323" fill="rgb(0,0,255)" d="M 143.75 480 L 143.75 512 144.25 512 144.25 480 Z "/>
<path id="p324" fill="rgb(0,0,255)" d="M 128 487.75 L 144 487.75 144 488.25 128 488.25 Z "/>
<path id="p325" fill="rgb(0,0,255)" d="M 135.75 480 L 135.75 496 136.25 496 136.25 480 Z "/>
<path id="p326" fill="rgb(0,0,255)" d="M 144 487.75 L 160 487.75 160 488.25 144 488.25 Z "/>
<path id="p327" fill="rgb(0,0,255)" d="M 151.75 480 L 151.75 496 152.25 496 152.25 480 Z "/>
<path id="p328" fill="rgb(0,0,255)" d="M 160 495.75 L 192 495.75 192 496.25 160 496.25 Z "/>
<path id="p329" fill="rgb(0,0,255)" d="M 175.75 480 L 175.75 512 176.25 512 176.25 480 Z "/>
<path id="p330" fill="rgb(0,0,255)" d="M 160 487.75 L 176 487.75 176 488.25 160 488.25 Z "/>
<path id="p331" fill="rgb(0,0,255)" d="M 167.75 480 L 167.75 496 168.25 496 168.25 480 Z "/>
<path id="p332" fill="rgb(0,0,255)" d="M 160 503.75 L 176 503.75 176 504.25 160 504.25 Z "/>
<path id="p333" fill="rgb(0,0,255)" d="M 167.75 496 L 167.75 512 168.25 512 168.25 496 Z "/>
<path id="p334" fill="rgb(0,0,255)" d="M 176 503.75 L 192 503.75 192 504.25 176 504.25 Z "/>
<path id="p335" fill="rgb(0,0,255)" d="M 183.75 496 L 183.75 512 184.25 512 184.25 496 Z "/>
<path id="p336" fill="rgb(0,0,255)" d="M 192 479.75 L 256 479.75 256 480.25 192 480.25 Z "/>
<path id="p337" fill="rgb(0,0,255)" d="M 223.75 448 L 223.75 512 224.25 512 224.25 448 Z "/>
<path id="p338" fill="rgb(0,0,255)" d="M 192 495.75 L 224 495.75 224 496.25 192 496.25 Z "/>
<path id="p339" fill="rgb(0,0,255)" d="M 207.75 480 L 207.75 512 208.25 512 208.25 480 Z "/>
<path id="p340" fill="rgb(0,0,255)" d="M 192 503.75 L 208 503.75 208 504.25 192 504.25 Z "/>
<path id="p341" fill="rgb(0,0,255)" d="M 199.75 496 L 199.75 512 200.25 512 200.25 496 Z "/>
<path id="p342" fill="rgb(0,0,255)" d="M 208 503.75 L 224 503.75 224 504.25 208 504.25 Z "/>
<path id="p343" fill="rgb(0,0,255)" d="M 215.75 496 L 215.75 512 216.25 512 216.25 496 Z "/>
<path id="p344" fill="rgb(0,0,255)" d="M 224 495.75 L 256 495.75 256 496.25 224 496.25 Z "/>
<path id="p345" fill="rgb(0,0,255)" d="M 239.75 480 L 239.75 512 240.25 512 240.25 480 Z "/>
<path id="p346" fill="rgb(0,0,255)" d="M 224 503.75 L 240 503.75 240 504.25 224 504.25 Z "/>
<path id="p347" fill="rgb(0,0,255)" d="M 231.75 496 L 231.75 512 232.25 512 232.25 496 Z "/>
<path id="p348" fill="rgb(0,0,255)" d="M 240 503.75 L 256 503.75 256 504.25 240 504.25 Z "/>
<path id="p349" fill="rgb(0,0,255)" d="M 247.75 496 L 247.75 512 248.25 512 248.25 496 Z "/>
<path id="p350" fill="rgb(0,0,255)" d="M 256 383.75 L 512 383.75 512 384.25 256 384.25 Z "/>
<path id="p351" fill="rgb(0,0,255)" d="M 383.75 256 L 383.75 512 384.25 512 384.25 256 Z "/>
<path id="p352" fill="rgb(0,0,255)" d="M 384 319.75 L 512 319.75 512 320.25 384 320.25 Z "/>
<path id="p353" fill="rgb(0,0,255)" d="M 447.75 256 L 447.75 384 448.25 384 448.25 256 Z "/>
<path id="p354" fill="rgb(0,0,255)" d="M 448 287.75 L 512 287.75 512 288.25 448 288.25 Z "/>
<path id="p355" fill="rgb(0,0,255)" d="M 479.75 256 L 479.75 320 480.25 320 480.25 256 Z "/>
<path id="p356" fill="rgb(0,0,255)" d="M 480 271.75 L 512 271.75 512 272.25 480 272.25 Z "/>
<path id="p357" fill="rgb(0,0,255)" d="M 495.75 256 L 495.75 288 496.25 288 496.25 256 Z "/>
<path id="p358" fill="rgb(0,0,255)" d="M 496 263.75 L 512 263.75 512 264.25 496 264.25 Z "/>
<path id="p359" fill="rgb(0,0,255)" d="M 503.75 256 L 503.75 272 504.25 272 504.25 256 Z "/>
<path id="p360" fill="rgb(0,0,255)" d="M 496 279.75 L 512 279.75 512 280.25 496 280.25 Z "/>
<path id="p361" fill="rgb(0,0,255)" d="M 503.75 272 L 503.75 288 504.25 288 504.25 272 Z "/>
<path id="p362" fill="rgb(0,0,255)" d="M 480 303.75 L 512 303.75 512 304.25 480 304.25 Z "/>
<path id="p363" fill="rgb(0,0,255)" d="M 495.75 288 L 495.75 320 496.25 320 496.25 288 Z "/>
<path id="p364" fill="rgb(0,0,255)" d="M 496 295.75 L 512 295.75 512 296.25 496 296.25 Z "/>
<path id="p365" fill="rgb(0,0,255)" d="M 503.75 288 L 503.75 304 504.25 304 504.25 288 Z "/>
<path id="p366" fill="rgb(0,0,255)" d="M 496 311.75 L 512 311.75 512 312.25 496 312.25 Z "/>
<path id="p367" fill="rgb(0,0,255)" d="M 503.75 304 L 503.75 320 504.25 320 504.25 304 Z "/>
<path id="p368" fill="rgb(0,0,255)" d="M 448 351.75 L 512 351.75 512 352.25 448 352.25 Z "/>
<path id="p369" fill="rgb(0,0,255)" d="M 479.75 320 L 479.75 384 480.25 384 480.25 320 Z "/>
<path id="p370" fill="rgb(0,0,255)" d="M 480 335.75 L 512 335.75 512 336.25 480 336.25 Z "/>
<path id="p371" fill="rgb(0,0,255)" d="M 495.75 320 L 495.75 352 496.25 352 496.25 320 Z "/>
<path id="p372" fill="rgb(0,0,255)" d="M 496 327.75 L 512 327.75 512 328.25 496 328.25 Z "/>
<path id="p373" fill="rgb(0,0,255)" d="M 503.75 320 L 503.75 336 504.25 336 504.25 320 Z "/>
<path id="p374" fill="rgb(0,0,255)" d="M 480 343.75 L 496 343.75 496 344.25 480 344.25 Z "/>
<path id="p375" fill="rgb(0,0,255)" d="M 487.75 336 L 487.75 352 488.25 352 488.25 336 Z "/>
<path id="p376" fill="rgb(0,0,255)" d="M 496 343.75 L 512 343.75 512 344.25 496 344.25 Z "/>
<path id="p377" fill="rgb(0,0,255)" d="M 503.75 336 L 503.75 352 504.25 352 504.25 336 Z "/>
<path id="p378" fill="rgb(0,0,255)" d="M 448 367.75 L 480 367.75 480 368.25 448 368.25 Z "/>
<path id="p379" fill="rgb(0,0,255)" d="M 463.75 352 L 463.75 384 464.25 384 464.25 352 Z "/>
<path id="p380" fill="rgb(0,0,255)" d="M 464 375.75 L 480 375.75 480 376.25 464 376.25 Z "/>
<path id="p381" fill="rgb(0,0,255)" d="M 471.75 368 L 471.75 384 472.25 384 472.25 368 Z "/>
<path id="p382" fill="rgb(0,0,255)" d="M 480 367.75 L 512 367.75 512 368.25 480 368.25 Z "/>
<path id="p383" fill="rgb(0,0,255)" d="M 495.75 352 L 495.75 384 496.25 384 496.25 352 Z "/>
<path id="p384" fill="rgb(0,0,255)" d="M 480 359.75 L 496 359.75 496 360.25 480 360.25 Z "/>
<path id="p385" fill="rgb(0,0,255)" d="M 487.75 352 L 487.75 368 488.25 368 488.25 352 Z "/>
<path id="p386" fill="rgb(0,0,255)" d="M 480 375.75 L 496 375.75 496 376.25 480 376.25 Z "/>
<path id="p387" fill="rgb(0,0,255)" d="M 487.75 368 L 487.75 384 488.25 384 488.25 368 Z "/>
<path id="p388" fill="rgb(0,0,255)" d="M 256 447.75 L 384 447.75 384 448.25 256 448.25 Z "/>
<path id="p389" fill="rgb(0,0,255)" d="M 319.75 384 L 319.75 512 320.25 512 320.25 384 Z "/>
<path id="p390" fill="rgb(0,0,255)" d="M 256 479.75 L 320 479.75 320 480.25 256 480.25 Z "/>
<path id="p391" fill="rgb(0,0,255)" d="M 287.75 448 L 287.75 512 288.25 512 288.25 448 Z "/>
<path id="p392" fill="rgb(0,0,255)" d="M 256 495.75 L 288 495.75 288 496.25 256 496.25 Z "/>
<path id="p393" fill="rgb(0,0,255)" d="M 271.75 480 L 271.75 512 272.25 512 272.25 480 Z "/>
<path id="p394" fill="rgb(0,0,255)" d="M 256 503.75 L 272 503.75 272 504.25 256 504.25 Z "/>
<path id="p395" fill="rgb(0,0,255)" d="M 263.75 496 L 263.75 512 264.25 512 264.25 496 Z "/>
<path id="p396" fill="rgb(0,0,255)" d="M 272 503.75 L 288 503.75 288 504.25 272 504.25 Z "/>
<path id="p397" fill="rgb(0,0,255)" d="M 279.75 496 L 279.75 512 280.25 512 280.25 496 Z "/>
<path id="p398" fill="rgb(0,0,255)" d="M 288 495.75 L 320 495.75 320 496.25 288 496.25 Z "/>
<path id="p399" fill="rgb(0,0,255)" d="M 303.75 480 L 303.75 512 304.25 512 304.25 480 Z "/>
<path id="p400" fill="rgb(0,0,255)" d="M 288 503.75 L 304 503.75 304 504.25 288 504.25 Z "/>
<path id="p401" fill="rgb(0,0,255)" d="M 295.75 496 L 295.75 512 296.25 512 296.25 496 Z "/>
<path id="p402" fill="rgb(0,0,255)" d="M 304 503.75 L 320 503.75 320 504.25 304 504.25 Z "/>
<path id="p403" fill="rgb(0,0,255)" d="M 311.75 496 L 311.75 512 312.25 512 312.25 496 Z "/>
<path id="p404" fill="rgb(0,0,255)" d="M 320 479.75 L 384 479.75 384 480.25 320 480.25 Z "/>
<path id="p405" fill="rgb(0,0,255)" d="M 351.75 448 L 351.75 512 352.25 512 352.25 448 Z "/>
<path id="p406" fill="rgb(0,0,255)" d="M 352 463.75 L 384 463.75 384 464.25 352 464.25 Z "/>
<path id="p407" fill="rgb(0,0,255)" d="M 367.75 448 L 367.75 480 368.25 480 368.25 448 Z "/>
<path id="p408" fill="rgb(0,0,255)" d="M 368 471.75 L 384 471.75 384 472.25 368 472.25 Z "/>
<path id="p409" fill="rgb(0,0,255)" d="M 375.75 464 L 375.75 480 376.25 480 376.25 464 Z "/>
<path id="p410" fill="rgb(0,0,255)" d="M 320 495.75 L 352 495.75 352 496.25 320 496.25 Z "/>
<path id="p411" fill="rgb(0,0,255)" d="M 335.75 480 L 335.75 512 336.25 512 336.25 480 Z "/>
<path id="p412" fill="rgb(0,0,255)" d="M 336 487.75 L 352 487.75 352 488.25 336 488.25 Z "/>
<path id="p413" fill="rgb(0,0,255)" d="M 343.75 480 L 343.75 496 344.25 496 344.25 480 Z "/>
<path id="p414" fill="rgb(0,0,255)" d="M 320 503.75 L 336 503.75 336 504.25 320 504.25 Z "/>
<path id="p415" fill="rgb(0,0,255)" d="M 327.75 496 L 327.75 512 328.25 512 328.25 496 Z "/>
<path id="p416" fill="rgb(0,0,255)" d="M 336 503.75 L 352 503.75 352 504.25 336 504.25 Z "/>
<path id="p417" fill="rgb(0,0,255)" d="M 343.75 496 L 343.75 512 344.25 512 344.25 496 Z "/>
<path id="p418" fill="rgb(0,0,255)" d="M 352 495.75 L 384 495.75 384 496.25 352 496.25 Z "/>
<path id="p419" fill="rgb(0,0,255)" d="M 367.75 480 L 367.75 512 368.25 512 368.25 480 Z "/>
<path id="p420" fill="rgb(0,0,255)" d="M 352 487.75 L 368 487.75 368 488.25 352 488.25 Z "/>
<path id="p421" fill="rgb(0,0,255)" d="M 359.75 480 L 359.75 496 360.25 496 360.25 480 Z "/>
<path id="p422" fill="rgb(0,0,255)" d="M 368 487.75 L 384 487.75 384 488.25 368 488.25 Z "/>
<path id="p423" fill="rgb(0,0,255)" d="M 375.75 480 L 375.75 496 376.25 496 376.25 480 Z "/>
<path id="p424" fill="rgb(0,0,255)" d="M 384 447.75 L 512 447.75 512 448.25 384 448.25 Z "/>
<path id="p425" fill="rgb(0,0,255)" d="M 447.75 384 L 447.75 512 448.25 512 448.25 384 Z "/>
<path id="p426" fill="rgb(0,0,255)" d="M 384 415.75 L 448 415.75 448 416.25 384 416.25 Z "/>
<path id="p427" fill="rgb(0,0,255)" d="M 415.75 384 L 415.75 448 416.25 448 416.25 384 Z "/>
<path id="p428" fill="rgb(0,0,255)" d="M 416 431.75 L 448 431.75 448 432.25 416 432.25 Z "/>
<path id="p429" fill="rgb(0,0,255)" d="M 431.75 416 L 431.75 448 432.25 448 432.25 416 Z "/>
<path id="p430" fill="rgb(0,0,255)" d="M 432 423.75 L 448 423.75 448 424.25 432 424.25 Z "/>
<path id="p431" fill="rgb(0,0,255)" d="M 439.75 416 L 439.75 432 440.25 432 440.25 416 Z "/>
<path id="p432" fill="rgb(0,0,255)" d="M 416 439.75 L 432 439.75 432 440.25 416 440.25 Z "/>
<path id="p433" fill="rgb(0,0,255)" d="M 423.75 432 L 423.75 448 424.25 448 424.25 432 Z "/>
<path id="p434" fill="rgb(0,0,255)" d="M 432 439.75 L 448 439.75 448 440.25 432 440.25 Z "/>
<path id="p435" fill="rgb(0,0,255)" d="M 439.75 432 L 439.75 448 440.25 448 440.25 432 Z "/>
<path id="p436" fill="rgb(0,0,255)" d="M 448 415.75 L 512 415.75 512 416.25 448 416.25 Z "/>
<path id="p437" fill="rgb(0,0,255)" d="M 479.75 384 L 479.75 448 480.25 448 480.25 384 Z "/>
<path id="p438" fill="rgb(0,0,255)" d="M 448 399.75 L 480 399.75 480 400.25 448 400.25 Z "/>
<path id="p439" fill="rgb(0,0,255)" d="M 463.75 384 L 463.75 416 464.25 416 464.25 384 Z "/>
<path id="p440" fill="rgb(0,0,255)" d="M 464 391.75 L 480 391.75 480 392.25 464 392.25 Z "/>
<path id="p441" fill="rgb(0,0,255)" d="M 471.75 384 L 471.75 400 472.25 400 472.25 384 Z "/>
<path id="p442" fill="rgb(0,0,255)" d="M 448 407.75 L 464 407.75 464 408.25 448 408.25 Z "/>
<path id="p443" fill="rgb(0,0,255)" d="M 455.75 400 L 455.75 416 456.25 416 456.25 400 Z "/>
<path id="p444" fill="rgb(0,0,255)" d="M 464 407.75 L 480 407.75 480 408.25 464 408.25 Z "/>
<path id="p445" fill="rgb(0,0,255)" d="M 471.75 400 L 471.75 416 472.25 416 472.25 400 Z "/>
<path id="p446" fill="rgb(0,0,255)" d="M 448 431.75 L 480 431.75 480 432.25 448 432.25 Z "/>
<path id="p447" fill="rgb(0,0,255)" d="M 463.75 416 L 463.75 448 464.25 448 464.25 416 Z "/>
<path id="p448" fill="rgb(0,0,255)" d="M 448 423.75 L 464 423.75 464 424.25 448 424.25 Z "/>
<path id="p449" fill="rgb(0,0,255)" d="M 455.75 416 L 455.75 432 456.25 432 456.25 416 Z "/>
<path id="p450" fill="rgb(0,0,255)" d="M 384 479.75 L 448 479.75 448 480.25 384 480.25 Z "/>
<path id="p451" fill="rgb(0,0,255)" d="M 415.75 448 L 415.75 512 416.25 512 416.25 448 Z "/>
<path id="p452" fill="rgb(0,0,255)" d="M 384 463.75 L 416 463.75 416 464.25 384 464.25 Z "/>
<path id="p453" fill="rgb(0,0,255)" d="M 399.75 448 L 399.75 480 400.25 480 400.25 448 Z "/>
<path id="p454" fill="rgb(0,0,255)" d="M 400 455.75 L 416 455.75 416 456.25 400 456.25 Z "/>
<path id="p455" fill="rgb(0,0,255)" d="M 407.75 448 L 407.75 464 408.25 464 408.25 448 Z "/>
<path id="p456" fill="rgb(0,0,255)" d="M 384 471.75 L 400 471.75 400 472.25 384 472.25 Z "/>
<path id="p457" fill="rgb(0,0,255)" d="M 391.75 464 L 391.75 480 392.25 480 392.25 464 Z "/>
<path id="p458" fill="rgb(0,0,255)" d="M 400 471.75 L 416 471.75 416 472.25 400 472.25 Z "/>
<path id="p459" fill="rgb(0,0,255)" d="M 407.75 464 L 407.75 480 408.25 480 408.25 464 Z "/>
<path id="p460" fill="rgb(0,0,255)" d="M 416 463.75 L 448 463.75 448 464.25 416 464.25 Z "/>
<path id="p461" fill="rgb(0,0,255)" d="M 431.75 448 L 431.75 480 432.25 480 432.25 448 Z "/>
<path id="p462" fill="rgb(0,0,255)" d="M 416 455.75 L 432 455.75 432 456.25 416 456.25 Z "/>
<path id="p463" fill="rgb(0,0,255)" d="M 423.75 448 L 423.75 464 424.25 464 424.25 448 Z "/>
</g>
</svg>
