<?xml version="1.0" standalone="no"?>
<svg
    xmlns:xlink="http://www.w3.org/1999/xlink"
    xmlns:dc="http://purl.org/dc/elements/1.1/"
    xmlns:cc="http://creativecommons.org/ns#"
    xmlns:rdf="http://www.w3.org/1999/02/22-rdf-syntax-ns#"
    xmlns:svg="http://www.w3.org/2000/svg"
    xmlns="http://www.w3.org/2000/svg"
    version="1.1"
    viewBox="0 0 512 72">
<defs>
</defs>
<g transform="translate(0, 72) scale(1, -1)">
<path id="p1" fill="rgb(0,0,0)" d="M 77.666254336 59.0608305 C 77.666254336 62.302047814286 77.84579328 63.292419771429 84.758042624 63.292419771429 84.758042624 63.292419771429 84.758042624 63.292419771429 84.758042624 63.292419771429 L 86.912509952 63.292419771429 86.912509952 66.083468014286 C 83.7705791525 65.813366633368 77.127640550684 65.813366571429 73.716399914771 65.813366571429 73.716399132514 65.813366571429 73.716398350257 65.813366571429 73.716397568 65.813366571429 70.305157632 65.813366571429 63.572447232 65.813366571429 60.430515712 66.083468014286 L 60.430515712 63.292419771429 62.58498304 63.292419771429 C 69.497232384 63.292419771429 69.676771328 62.302047814286 69.676771328 59.0608305 L 69.676771328 37.992917957143 42.8356992 37.992917957143 42.8356992 59.0608305 C 42.8356992 62.302047814286 43.015238144 63.292419771429 49.927487488 63.292419771429 49.927487488 63.292419771429 49.927487488 63.292419771429 49.927487488 63.292419771429 L 52.081954816 63.292419771429 52.081954816 66.083468014286 C 48.9400240165 65.813366633368 42.297085414684 65.813366571429 38.885844778771 65.813366571429 38.885843996514 65.813366571429 38.885843214257 65.813366571429 38.885842432 65.813366571429 35.474602496 65.813366571429 28.741892096 65.813366571429 25.599960576 66.083468014286 L 25.599960576 63.292419771429 27.754427904 63.292419771429 C 34.666677248 63.292419771429 34.846216192 62.302047814286 34.846216192 59.0608305 L 34.846216192 11.613010371429 C 34.846216192 8.3717930571429 34.666677248 7.3814211 27.754427904 7.3814211 L 25.599960576 7.3814211 25.599960576 4.5903728571429 C 28.741892096 4.8604743 35.384833024 4.8604743 38.79607296 4.8604743 42.207312896 4.8604743 48.940023296 4.8604743 52.081954816 4.5903728571429 L 52.081954816 7.3814211 49.927487488 7.3814211 C 43.015238144 7.3814211 42.8356992 8.3717930571428 42.8356992 11.613010371428 42.8356992 11.613010371428 42.8356992 11.613010371428 42.8356992 11.613010371429 L 42.8356992 35.201869714286 69.676771328 35.201869714286 69.676771328 11.613010371429 C 69.676771328 8.3717930571429 69.497232384 7.3814211 62.58498304 7.3814211 L 60.430515712 7.3814211 60.430515712 4.5903728571429 C 63.572447232 4.8604743 70.21538816 4.8604743 73.626628096 4.8604743 77.037868032 4.8604743 83.770578432 4.8604743 86.912509952 4.5903728571429 L 86.912509952 7.3814211 84.758042624 7.3814211 C 77.84579328 7.3814211 77.666254336 8.3717930571429 77.666254336 11.613010371429 77.666254336 11.613010371429 77.666254336 11.613010371429 77.666254336 11.613010371429 L 77.666254336 59.0608305 Z "/>
<path id="p2" fill="rgb(0,0,0)" d="M 100.018852864 27.278894057143 C 100.557469696 40.693932385714 108.098105344 42.944777742857 111.150267392 42.944777742857 120.396523008 42.944777742857 121.294217728 30.790212814286 121.294217728 27.278894057143 L 100.018852864 27.278894057143 Z M 99.929083392 25.388183957143 L 124.97476608 25.388183957143 C 126.949694464 25.388183957143 127.21900288 25.388183957143 127.21900288 27.278894057143 127.21900288 36.192241671429 122.371451392 44.925521657143 111.150267392 44.925521657143 100.73700864 44.925521657143 92.478217216 35.652038785714 92.478217216 24.397812 92.478217216 24.397812 92.478217216 24.397812 92.478217216 24.397812 92.478217216 12.333280885714 101.904011776 3.6000009 112.227501056 3.6000009 123.17937664 3.6000009 127.21900288 13.593754285714 127.21900288 15.304396757143 127.21900288 16.2047349 126.500847104 16.384802528571 126.051999744 16.384802528571 125.244074496 16.384802528571 125.064535552 15.844599642857 124.884996608 15.124329128571 121.743065088 5.8508462571429 113.663812608 5.8508462571429 112.766117888 5.8508462571429 108.277644288 5.8508462571429 104.686865408 8.5518606857143 102.622167552 11.883111814286 99.929083392 16.2047349 99.929083392 22.146966642857 99.929083392 25.388183957143 Z "/>
<path id="p3" fill="rgb(0,0,0)" d="M 145.711514112 67.073839971429 L 132.784710144 66.083468014286 132.784710144 63.292419771429 C 139.068573184 63.292419771429 139.78672896 62.662183071429 139.78672896 58.250526171429 139.78672896 58.250526171429 139.78672896 58.250526171429 139.78672896 58.250526171429 L 139.78672896 11.432942742857 C 139.78672896 7.3814211 138.799264768 7.3814211 132.784710144 7.3814211 L 132.784710144 4.5903728571429 C 135.74710272 4.6804066714286 140.504884736 4.8604743 142.749121536 4.8604743 144.993358336 4.8604743 149.392062464 4.6804066714286 152.713532928 4.5903728571429 L 152.713532928 7.3814211 C 146.698978304 7.3814211 145.711514112 7.3814211 145.711514112 11.432942742857 L 145.711514112 67.073839971429 Z "/>
<path id="p4" fill="rgb(0,0,0)" d="M 170.577657856 67.073839971429 L 157.650853888 66.083468014286 157.650853888 63.292419771429 C 163.934716928 63.292419771429 164.652872704 62.662183071429 164.652872704 58.250526171429 L 164.652872704 11.432942742857 C 164.652872704 7.3814211 163.665408512 7.3814211 157.650853888 7.3814211 L 157.650853888 4.5903728571429 C 160.613246464 4.6804066714286 165.37102848 4.8604743 167.61526528 4.8604743 169.85950208 4.8604743 174.258206208 4.6804066714286 177.579676672 4.5903728571429 L 177.579676672 7.3814211 C 171.565122048 7.3814211 170.577657856 7.3814211 170.577657856 11.432942742857 170.577657856 11.432942742857 170.577657856 11.432942742857 170.577657856 11.432942742857 L 170.577657856 67.073839971429 Z "/>
<path id="p5" fill="rgb(0,0,0)" d="M 221.836026368 23.857609114286 C 221.836026368 35.381937342857 212.859079168 44.925521657143 201.996973056 44.925521657143 190.775789056 44.925521657143 182.068150272 35.1118359 182.068150272 23.857609114286 182.068150272 12.243247071429 191.40417536 3.6000009 201.907203584 3.6000009 212.769309696 3.6000009 221.836026368 12.4233147 221.836026368 23.857609114286 Z M 201.996973056 5.8508462571429 C 198.13688576 5.8508462571429 194.187028992 7.7415563571429 191.763253248 11.883111814286 189.51901674 15.84459912742 189.519016448 21.33666088512 189.519016448 24.577878363408 189.519016448 24.57787878513 189.519016448 24.57787920685 189.519016448 24.577879628571 189.519016448 28.089198385714 189.519016448 32.951024357143 191.673483776 36.912512185714 194.09725952 41.054067642857 198.316424704 42.944777742857 201.907203584 42.944777742857 205.857060352 42.944777742857 209.717147648 40.964033828571 212.05115392 37.092579814286 214.38516004332 33.221126046618 214.385160192 27.999165236724 214.385160192 24.577880282396 214.385160192 24.577880064455 214.385160192 24.577879846513 214.385160192 24.577879628571 214.385160192 21.336662314286 214.385160192 16.474836342857 212.410231808 12.513348514286 210.435303424 8.4618268714286 206.485446656 5.8508462571429 201.996973056 5.8508462571429 Z "/>
<path id="p6" fill="rgb(0,0,0)" d="M 309.8998784 34.841734457143 C 311.515728896 39.343425171429 314.298582528 40.513864757143 317.440514048 40.603898571429 L 317.440514048 43.394946814286 C 315.465585664 43.214879185714 312.862270976 43.124845371429 310.887342592 43.124845371429 308.284027904 43.124845371429 304.244401664 43.304913 302.538781696 43.394946814286 L 302.538781696 40.603898571429 C 305.770482688 40.513864757143 307.745411072 38.8932561 307.745411072 36.282275485714 307.745411072 35.7420726 307.745411072 35.562004971429 307.296563712 34.391565385714 L 299.12754176 11.342908928571 290.240364032 36.462343114286 C 289.881286144 37.542748885714 289.791516672 37.722816514286 289.791516672 38.172985585714 289.791516672 40.603898571429 293.29252608 40.603898571429 295.08791552 40.603898571429 L 295.08791552 43.394946814286 C 292.484600832 43.304913 287.90635776 43.124845371429 285.751890432 43.124845371429 283.058806272 43.124845371429 280.455491584 43.214879185714 277.762407424 43.394946814286 L 277.762407424 40.603898571429 C 281.083877888 40.603898571429 282.52018944 40.423830942857 283.41788416 39.253391357143 283.86673152 38.713188471429 284.854195712 36.012174042857 285.482582016 34.301531571429 L 277.762407424 12.513348514286 269.234307584 36.552376928571 C 268.785460224 37.6327827 268.785460224 37.812850328571 268.785460224 38.172985585714 268.785460224 40.603898571429 272.286469632 40.603898571429 274.081859072 40.603898571429 L 274.081859072 43.394946814286 C 271.388774912 43.304913 266.36168448 43.124845371429 264.296986624 43.124845371429 263.937908736 43.124845371429 259.18012672 43.214879185714 255.948425728 43.394946814286 L 255.948425728 40.603898571429 C 260.436899328 40.603898571429 261.514132992 40.333797128571 262.591366656 37.452715071429 L 273.902320128 5.5807448142857 C 274.351167488 4.3202714142857 274.620475904 3.6000009 275.78747904 3.6000009 276.954482176 3.6000009 277.13402112 4.1402037857143 277.58286848 5.4006771857143 L 286.649585152 30.880246628571 295.806071296 5.3106433714286 C 296.165149184 4.3202714142857 296.4344576 3.6000009 297.601460736 3.6000009 298.768463872 3.6000009 299.037772288 4.4103052285714 299.396850176 5.3106433714286 L 309.8998784 34.841734457143 Z "/>
<path id="p7" fill="rgb(0,0,0)" d="M 361.427555328 23.857609114286 C 361.427555328 35.381937342857 352.450608128 44.925521657143 341.588502016 44.925521657143 330.367318016 44.925521657143 321.659679232 35.1118359 321.659679232 23.857609114286 321.659679232 23.857609114286 321.659679232 23.857609114286 321.659679232 23.857609114286 321.659679232 12.243247071429 330.99570432 3.6000009 341.498732544 3.6000009 352.360838656 3.6000009 361.427555328 12.4233147 361.427555328 23.857609114286 Z M 341.588502016 5.8508462571429 C 337.72841472 5.8508462571429 333.778557952 7.7415563571429 331.354782208 11.883111814286 329.1105458697 15.84459882788 329.110545408 21.336660054577 329.110545408 24.577877628173 329.110545408 24.577878294973 329.110545408 24.577878961772 329.110545408 24.577879628571 329.110545408 28.089198385714 329.110545408 32.951024357143 331.265012736 36.912512185714 333.68878848 41.054067642857 337.907953664 42.944777742857 341.498732544 42.944777742857 345.448589312 42.944777742857 349.308676608 40.964033828571 351.64268288 37.092579814286 353.976689152 33.2211258 353.976689152 27.999164571429 353.976689152 24.577879628571 353.976689152 21.336662314286 353.976689152 16.474836342857 352.001760768 12.513348514286 350.026832384 8.4618268714286 346.076975616 5.8508462571429 341.588502016 5.8508462571429 Z "/>
<path id="p8" fill="rgb(0,0,0)" d="M 379.02237184 34.4815992 L 379.02237184 44.385318771429 366.544415232 43.394946814286 366.544415232 40.603898571429 C 372.828278272 40.603898571429 373.546434048 39.973661871429 373.546434048 35.562004971429 373.546434048 35.562004971429 373.546434048 35.562004971429 373.546434048 35.562004971429 L 373.546434048 11.432942742857 C 373.546434048 7.3814211 372.558969856 7.3814211 366.544415232 7.3814211 L 366.544415232 4.5903728571429 C 370.04542464 4.6804066714286 374.264589824 4.8604743 376.77813504 4.8604743 380.36891392 4.8604743 384.588079104 4.8604743 388.178857984 4.5903728571429 L 388.178857984 7.3814211 386.293699072 7.3814211 C 379.650758144 7.3814211 379.4712192 8.3717930571429 379.4712192 11.613010371429 L 379.4712192 25.478217771429 C 379.4712192 34.391565385714 383.241537024 42.404574857143 390.064016896 42.404574857143 390.6924032 42.404574857143 390.871942144 42.404574857143 391.051481088 42.314541042857 390.782172672 42.224507228571 388.986783232 41.144101457143 388.986783232 38.803222285714 388.986783232 38.803222285714 388.986783232 38.803222285714 388.986783232 38.803222285714 388.986783232 36.282275485714 390.871942144 34.931768271429 392.846870528 34.931768271429 394.462721024 34.931768271429 396.706957824 36.012174042857 396.706957824 38.8932561 396.706957824 41.774338157143 393.924104192 44.385318771429 390.064016896 44.385318771429 383.51084544 44.385318771429 380.279144448 38.353053214286 379.02237184 34.4815992 Z "/>
<path id="p9" fill="rgb(0,0,0)" d="M 415.019930112 67.073839971429 L 402.093126144 66.083468014286 402.093126144 63.292419771429 C 408.376989184 63.292419771429 409.09514496 62.662183071429 409.09514496 58.250526171429 409.09514496 58.250526171429 409.09514496 58.250526171429 409.09514496 58.250526171429 L 409.09514496 11.432942742857 C 409.09514496 7.3814211 408.107680768 7.3814211 402.093126144 7.3814211 L 402.093126144 4.5903728571429 C 405.05551872 4.6804066714286 409.813300736 4.8604743 412.057537536 4.8604743 414.301774336 4.8604743 418.700478464 4.6804066714286 422.021948928 4.5903728571429 L 422.021948928 7.3814211 C 416.007394304 7.3814211 415.019930112 7.3814211 415.019930112 11.432942742857 L 415.019930112 67.073839971429 Z "/>
<path id="p10" fill="rgb(0,0,0)" d="M 458.109276672 9.5422326428571 L 458.109276672 3.6000009 471.305389056 4.5903728571429 471.305389056 7.3814211 C 465.021526016 7.3814211 464.30337024 8.0116578 464.30337024 12.4233147 464.30337024 12.4233147 464.30337024 12.4233147 464.30337024 12.4233147 L 464.30337024 67.073839971429 451.376566272 66.083468014286 451.376566272 63.292419771429 C 457.660429312 63.292419771429 458.378585088 62.662183071429 458.378585088 58.250526171429 458.378585088 58.250526171429 458.378585088 58.250526171429 458.378585088 58.250526171429 L 458.378585088 38.803222285714 C 455.7752704 42.0444396 451.915183104 44.385318771429 447.067631616 44.385318771429 436.47483392 44.385318771429 427.04903936 35.562004971429 427.04903936 23.947642928572 427.04903936 23.947642928571 427.04903936 23.947642928571 427.04903936 23.947642928571 427.04903936 12.513348514286 435.846447616 3.6000009 446.080167424 3.6000009 451.825413632 3.6000009 455.865039872 6.6611505857143 458.109276672 9.5422326428571 Z M 458.109276672 33.671294871429 L 458.109276672 15.214362942857 C 458.109276672 13.593754285714 458.109276672 13.413686657143 457.12181248 11.883111814286 454.42872832 7.5614887285714 450.38910208 5.5807448142857 446.529014784 5.5807448142857 442.489388544 5.5807448142857 439.257687552 7.9216239857143 437.103220224 11.342908928571 434.769213952 15.034295314285 434.499905536 20.16622272857 434.499905536 23.857609114285 434.499905536 23.857609114285 434.499905536 23.857609114285 434.499905536 23.857609114286 434.499905536 27.188860242857 434.67944448 32.5908891 437.282759168 36.642410742857 439.16791808 39.433458985714 442.579158016 42.404574857143 447.426709504 42.404574857143 450.568641024 42.404574857143 454.338958848 41.054067642857 457.12181248 37.002546 458.10927626168 35.471971793135 458.109276672 35.291903678217 458.109276672 33.671296891637 458.109276672 33.671296218234 458.109276672 33.671295544832 458.109276672 33.671294871429 Z "/>
<path id="p11" fill="rgb(0,0,0)" d="M 487.553663488 23.407440042857 L 491.054672896 64.462859357143 C 491.054672896 67.433975228571 488.630897152 69.054583885714 486.29689088 69.054583885714 483.962884608 69.054583885714 481.539108864 67.433975228571 481.539108864 64.462859357143 481.539108864 64.462859357143 481.539108864 64.462859357143 481.539108864 64.462859357143 L 485.040118272 23.497473857143 C 485.129887744 22.146966642857 485.219657216 21.426696128571 486.29689088 21.426696128571 487.1945856 21.426696128571 487.463894016 21.8768652 487.553663488 23.407440042857 Z M 491.054672896 9.3621650142857 C 491.054672896 11.973145628571 488.900205568 14.133957171429 486.29689088 14.133957171429 483.693576192 14.133957171429 481.539108864 11.973145628571 481.539108864 9.3621650142858 481.539108864 9.3621650142858 481.539108864 9.3621650142857 481.539108864 9.3621650142857 481.539108864 6.7511844 483.693576192 4.5903728571429 486.29689088 4.5903728571429 488.900205568 4.5903728571429 491.054672896 6.7511844 491.054672896 9.3621650142857 Z "/>
<path id="p12" fill="rgb(0,0,255)" d="M 0 -0.25 L 512 -0.25 512 0.25 0 0.25 Z "/>
<path id="p13" fill="rgb(0,0,255)" d="M 0 511.75 L 512 511.75 512 512.25 0 512.25 Z "/>
<path id="p14" fill="rgb(0,0,255)" d="M -0.25 0 L -0.25 512 0.25 512 0.25 0 Z "/>
<path id="p15" fill="rgb(0,0,255)" d="M 511.75 0 L 511.75 512 512.25 512 512.25 0 Z "/>
<path id="p16" fill="rgb(0,0,255)" d="M 0 255.75 L 512 255.75 512 256.25 0 256.25 Z "/>
<path id="p17" fill="rgb(0,0,255)" d="M 255.75 0 L 255.75 512 256.25 512 256.25 0 Z "/>
<path id="p18" fill="rgb(0,0,255)" d="M 0 127.75 L 256 127.75 256 128.25 0 128.25 Z "/>
<path id="p19" fill="rgb(0,0,255)" d="M 127.75 0 L 127.75 256 128.25 256 128.25 0 Z "/>
<path id="p20" fill="rgb(0,0,255)" d="M 0 63.75 L 128 63.75 128 64.25 0 64.25 Z "/>
<path id="p21" fill="rgb(0,0,255)" d="M 63.75 0 L 63.75 128 64.25 128 64.25 0 Z "/>
<path id="p22" fill="rgb(0,0,255)" d="M 0 31.75 L 64 31.75 64 32.25 0 32.25 Z "/>
<path id="p23" fill="rgb(0,0,255)" d="M 31.75 0 L 31.75 64 32.25 64 32.25 0 Z "/>
<path id="p24" fill="rgb(0,0,255)" d="M 0 15.75 L 32 15.75 32 16.25 0 16.25 Z "/>
<path id="p25" fill="rgb(0,0,255)" d="M 15.75 0 L 15.75 32 16.25 32 16.25 0 Z "/>
<path id="p26" fill="rgb(0,0,255)" d="M 16 7.75 L 32 7.75 32 8.25 16 8.25 Z "/>
<path id="p27" fill="rgb(0,0,255)" d="M 23.75 0 L 23.75 16 24.25 16 24.25 0 Z "/>
<path id="p28" fill="rgb(0,0,255)" d="M 24 3.75 L 32 3.75 32 4.25 24 4.25 Z "/>
<path id="p29" fill="rgb(0,0,255)" d="M 27.75 0 L 27.75 8 28.25 8 28.25 0 Z "/>
<path id="p30" fill="rgb(0,0,255)" d="M 32 15.75 L 64 15.75 64 16.25 32 16.25 Z "/>
<path id="p31" fill="rgb(0,0,255)" d="M 47.75 0 L 47.75 32 48.25 32 48.25 0 Z "/>
<path id="p32" fill="rgb(0,0,255)" d="M 32 7.75 L 48 7.75 48 8.25 32 8.25 Z "/>
<path id="p33" fill="rgb(0,0,255)" d="M 39.75 0 L 39.75 16 40.25 16 40.25 0 Z "/>
<path id="p34" fill="rgb(0,0,255)" d="M 32 3.75 L 40 3.75 40 4.25 32 4.25 Z "/>
<path id="p35" fill="rgb(0,0,255)" d="M 35.75 0 L 35.75 8 36.25 8 36.25 0 Z "/>
<path id="p36" fill="rgb(0,0,255)" d="M 40 3.75 L 48 3.75 48 4.25 40 4.25 Z "/>
<path id="p37" fill="rgb(0,0,255)" d="M 43.75 0 L 43.75 8 44.25 8 44.25 0 Z "/>
<path id="p38" fill="rgb(0,0,255)" d="M 32 11.75 L 40 11.75 40 12.25 32 12.25 Z "/>
<path id="p39" fill="rgb(0,0,255)" d="M 35.75 8 L 35.75 16 36.25 16 36.25 8 Z "/>
<path id="p40" fill="rgb(0,0,255)" d="M 40 11.75 L 48 11.75 48 12.25 40 12.25 Z "/>
<path id="p41" fill="rgb(0,0,255)" d="M 43.75 8 L 43.75 16 44.25 16 44.25 8 Z "/>
<path id="p42" fill="rgb(0,0,255)" d="M 48 7.75 L 64 7.75 64 8.25 48 8.25 Z "/>
<path id="p43" fill="rgb(0,0,255)" d="M 55.75 0 L 55.75 16 56.25 16 56.25 0 Z "/>
<path id="p44" fill="rgb(0,0,255)" d="M 48 3.75 L 56 3.75 56 4.25 48 4.25 Z "/>
<path id="p45" fill="rgb(0,0,255)" d="M 51.75 0 L 51.75 8 52.25 8 52.25 0 Z "/>
<path id="p46" fill="rgb(0,0,255)" d="M 56 3.75 L 64 3.75 64 4.25 56 4.25 Z "/>
<path id="p47" fill="rgb(0,0,255)" d="M 59.75 0 L 59.75 8 60.25 8 60.25 0 Z "/>
<path id="p48" fill="rgb(0,0,255)" d="M 0 47.75 L 32 47.75 32 48.25 0 48.25 Z "/>
<path id="p49" fill="rgb(0,0,255)" d="M 15.75 32 L 15.75 64 16.25 64 16.25 32 Z "/>
<path id="p50" fill="rgb(0,0,255)" d="M 16 55.75 L 32 55.75 32 56.25 16 56.25 Z "/>
<path id="p51" fill="rgb(0,0,255)" d="M 23.75 48 L 23.75 64 24.25 64 24.25 48 Z "/>
<path id="p52" fill="rgb(0,0,255)" d="M 24 59.75 L 32 59.75 32 60.25 24 60.25 Z "/>
<path id="p53" fill="rgb(0,0,255)" d="M 27.75 56 L 27.75 64 28.25 64 28.25 56 Z "/>
<path id="p54" fill="rgb(0,0,255)" d="M 32 47.75 L 64 47.75 64 48.25 32 48.25 Z "/>
<path id="p55" fill="rgb(0,0,255)" d="M 47.75 32 L 47.75 64 48.25 64 48.25 32 Z "/>
<path id="p56" fill="rgb(0,0,255)" d="M 32 39.75 L 48 39.75 48 40.25 32 40.25 Z "/>
<path id="p57" fill="rgb(0,0,255)" d="M 39.75 32 L 39.75 48 40.25 48 40.25 32 Z "/>
<path id="p58" fill="rgb(0,0,255)" d="M 40 35.75 L 48 35.75 48 36.25 40 36.25 Z "/>
<path id="p59" fill="rgb(0,0,255)" d="M 43.75 32 L 43.75 40 44.25 40 44.25 32 Z "/>
<path id="p60" fill="rgb(0,0,255)" d="M 32 55.75 L 48 55.75 48 56.25 32 56.25 Z "/>
<path id="p61" fill="rgb(0,0,255)" d="M 39.75 48 L 39.75 64 40.25 64 40.25 48 Z "/>
<path id="p62" fill="rgb(0,0,255)" d="M 32 59.75 L 40 59.75 40 60.25 32 60.25 Z "/>
<path id="p63" fill="rgb(0,0,255)" d="M 35.75 56 L 35.75 64 36.25 64 36.25 56 Z "/>
<path id="p64" fill="rgb(0,0,255)" d="M 40 59.75 L 48 59.75 48 60.25 40 60.25 Z "/>
<path id="p65" fill="rgb(0,0,255)" d="M 43.75 56 L 43.75 64 44.25 64 44.25 56 Z "/>
<path id="p66" fill="rgb(0,0,255)" d="M 48 55.75 L 64 55.75 64 56.25 48 56.25 Z "/>
<path id="p67" fill="rgb(0,0,255)" d="M 55.75 48 L 55.75 64 56.25 64 56.25 48 Z "/>
<path id="p68" fill="rgb(0,0,255)" d="M 48 59.75 L 56 59.75 56 60.25 48 60.25 Z "/>
<path id="p69" fill="rgb(0,0,255)" d="M 51.75 56 L 51.75 64 52.25 64 52.25 56 Z "/>
<path id="p70" fill="rgb(0,0,255)" d="M 56 59.75 L 64 59.75 64 60.25 56 60.25 Z "/>
<path id="p71" fill="rgb(0,0,255)" d="M 59.75 56 L 59.75 64 60.25 64 60.25 56 Z "/>
<path id="p72" fill="rgb(0,0,255)" d="M 64 31.75 L 128 31.75 128 32.25 64 32.25 Z "/>
<path id="p73" fill="rgb(0,0,255)" d="M 95.75 0 L 95.75 64 96.25 64 96.25 0 Z "/>
<path id="p74" fill="rgb(0,0,255)" d="M 64 15.75 L 96 15.75 96 16.25 64 16.25 Z "/>
<path id="p75" fill="rgb(0,0,255)" d="M 79.75 0 L 79.75 32 80.25 32 80.25 0 Z "/>
<path id="p76" fill="rgb(0,0,255)" d="M 64 7.75 L 80 7.75 80 8.25 64 8.25 Z "/>
<path id="p77" fill="rgb(0,0,255)" d="M 71.75 0 L 71.75 16 72.25 16 72.25 0 Z "/>
<path id="p78" fill="rgb(0,0,255)" d="M 64 3.75 L 72 3.75 72 4.25 64 4.25 Z "/>
<path id="p79" fill="rgb(0,0,255)" d="M 67.75 0 L 67.75 8 68.25 8 68.25 0 Z "/>
<path id="p80" fill="rgb(0,0,255)" d="M 72 3.75 L 80 3.75 80 4.25 72 4.25 Z "/>
<path id="p81" fill="rgb(0,0,255)" d="M 75.75 0 L 75.75 8 76.25 8 76.25 0 Z "/>
<path id="p82" fill="rgb(0,0,255)" d="M 64 11.75 L 72 11.75 72 12.25 64 12.25 Z "/>
<path id="p83" fill="rgb(0,0,255)" d="M 67.75 8 L 67.75 16 68.25 16 68.25 8 Z "/>
<path id="p84" fill="rgb(0,0,255)" d="M 72 11.75 L 80 11.75 80 12.25 72 12.25 Z "/>
<path id="p85" fill="rgb(0,0,255)" d="M 75.75 8 L 75.75 16 76.25 16 76.25 8 Z "/>
<path id="p86" fill="rgb(0,0,255)" d="M 80 7.75 L 96 7.75 96 8.25 80 8.25 Z "/>
<path id="p87" fill="rgb(0,0,255)" d="M 87.75 0 L 87.75 16 88.25 16 88.25 0 Z "/>
<path id="p88" fill="rgb(0,0,255)" d="M 80 3.75 L 88 3.75 88 4.25 80 4.25 Z "/>
<path id="p89" fill="rgb(0,0,255)" d="M 83.75 0 L 83.75 8 84.25 8 84.25 0 Z "/>
<path id="p90" fill="rgb(0,0,255)" d="M 88 11.75 L 96 11.75 96 12.25 88 12.25 Z "/>
<path id="p91" fill="rgb(0,0,255)" d="M 91.75 8 L 91.75 16 92.25 16 92.25 8 Z "/>
<path id="p92" fill="rgb(0,0,255)" d="M 80 23.75 L 96 23.75 96 24.25 80 24.25 Z "/>
<path id="p93" fill="rgb(0,0,255)" d="M 87.75 16 L 87.75 32 88.25 32 88.25 16 Z "/>
<path id="p94" fill="rgb(0,0,255)" d="M 88 19.75 L 96 19.75 96 20.25 88 20.25 Z "/>
<path id="p95" fill="rgb(0,0,255)" d="M 91.75 16 L 91.75 24 92.25 24 92.25 16 Z "/>
<path id="p96" fill="rgb(0,0,255)" d="M 88 27.75 L 96 27.75 96 28.25 88 28.25 Z "/>
<path id="p97" fill="rgb(0,0,255)" d="M 91.75 24 L 91.75 32 92.25 32 92.25 24 Z "/>
<path id="p98" fill="rgb(0,0,255)" d="M 96 15.75 L 128 15.75 128 16.25 96 16.25 Z "/>
<path id="p99" fill="rgb(0,0,255)" d="M 111.75 0 L 111.75 32 112.25 32 112.25 0 Z "/>
<path id="p100" fill="rgb(0,0,255)" d="M 96 7.75 L 112 7.75 112 8.25 96 8.25 Z "/>
<path id="p101" fill="rgb(0,0,255)" d="M 103.75 0 L 103.75 16 104.25 16 104.25 0 Z "/>
<path id="p102" fill="rgb(0,0,255)" d="M 96 3.75 L 104 3.75 104 4.25 96 4.25 Z "/>
<path id="p103" fill="rgb(0,0,255)" d="M 99.75 0 L 99.75 8 100.25 8 100.25 0 Z "/>
<path id="p104" fill="rgb(0,0,255)" d="M 104 3.75 L 112 3.75 112 4.25 104 4.25 Z "/>
<path id="p105" fill="rgb(0,0,255)" d="M 107.75 0 L 107.75 8 108.25 8 108.25 0 Z "/>
<path id="p106" fill="rgb(0,0,255)" d="M 96 11.75 L 104 11.75 104 12.25 96 12.25 Z "/>
<path id="p107" fill="rgb(0,0,255)" d="M 99.75 8 L 99.75 16 100.25 16 100.25 8 Z "/>
<path id="p108" fill="rgb(0,0,255)" d="M 104 11.75 L 112 11.75 112 12.25 104 12.25 Z "/>
<path id="p109" fill="rgb(0,0,255)" d="M 107.75 8 L 107.75 16 108.25 16 108.25 8 Z "/>
<path id="p110" fill="rgb(0,0,255)" d="M 112 7.75 L 128 7.75 128 8.25 112 8.25 Z "/>
<path id="p111" fill="rgb(0,0,255)" d="M 119.75 0 L 119.75 16 120.25 16 120.25 0 Z "/>
<path id="p112" fill="rgb(0,0,255)" d="M 112 3.75 L 120 3.75 120 4.25 112 4.25 Z "/>
<path id="p113" fill="rgb(0,0,255)" d="M 115.75 0 L 115.75 8 116.25 8 116.25 0 Z "/>
<path id="p114" fill="rgb(0,0,255)" d="M 120 3.75 L 128 3.75 128 4.25 120 4.25 Z "/>
<path id="p115" fill="rgb(0,0,255)" d="M 123.75 0 L 123.75 8 124.25 8 124.25 0 Z "/>
<path id="p116" fill="rgb(0,0,255)" d="M 112 11.75 L 120 11.75 120 12.25 112 12.25 Z "/>
<path id="p117" fill="rgb(0,0,255)" d="M 115.75 8 L 115.75 16 116.25 16 116.25 8 Z "/>
<path id="p118" fill="rgb(0,0,255)" d="M 120 11.75 L 128 11.75 128 12.25 120 12.25 Z "/>
<path id="p119" fill="rgb(0,0,255)" d="M 123.75 8 L 123.75 16 124.25 16 124.25 8 Z "/>
<path id="p120" fill="rgb(0,0,255)" d="M 96 23.75 L 112 23.75 112 24.25 96 24.25 Z "/>
<path id="p121" fill="rgb(0,0,255)" d="M 103.75 16 L 103.75 32 104.25 32 104.25 16 Z "/>
<path id="p122" fill="rgb(0,0,255)" d="M 96 19.75 L 104 19.75 104 20.25 96 20.25 Z "/>
<path id="p123" fill="rgb(0,0,255)" d="M 99.75 16 L 99.75 24 100.25 24 100.25 16 Z "/>
<path id="p124" fill="rgb(0,0,255)" d="M 96 27.75 L 104 27.75 104 28.25 96 28.25 Z "/>
<path id="p125" fill="rgb(0,0,255)" d="M 99.75 24 L 99.75 32 100.25 32 100.25 24 Z "/>
<path id="p126" fill="rgb(0,0,255)" d="M 112 23.75 L 128 23.75 128 24.25 112 24.25 Z "/>
<path id="p127" fill="rgb(0,0,255)" d="M 119.75 16 L 119.75 32 120.25 32 120.25 16 Z "/>
<path id="p128" fill="rgb(0,0,255)" d="M 120 19.75 L 128 19.75 128 20.25 120 20.25 Z "/>
<path id="p129" fill="rgb(0,0,255)" d="M 123.75 16 L 123.75 24 124.25 24 124.25 16 Z "/>
<path id="p130" fill="rgb(0,0,255)" d="M 120 27.75 L 128 27.75 128 28.25 120 28.25 Z "/>
<path id="p131" fill="rgb(0,0,255)" d="M 123.75 24 L 123.75 32 124.25 32 124.25 24 Z "/>
<path id="p132" fill="rgb(0,0,255)" d="M 64 47.75 L 96 47.75 96 48.25 64 48.25 Z "/>
<path id="p133" fill="rgb(0,0,255)" d="M 79.75 32 L 79.75 64 80.25 64 80.25 32 Z "/>
<path id="p134" fill="rgb(0,0,255)" d="M 64 39.75 L 80 39.75 80 40.25 64 40.25 Z "/>
<path id="p135" fill="rgb(0,0,255)" d="M 71.75 32 L 71.75 48 72.25 48 72.25 32 Z "/>
<path id="p136" fill="rgb(0,0,255)" d="M 64 35.75 L 72 35.75 72 36.25 64 36.25 Z "/>
<path id="p137" fill="rgb(0,0,255)" d="M 67.75 32 L 67.75 40 68.25 40 68.25 32 Z "/>
<path id="p138" fill="rgb(0,0,255)" d="M 80 39.75 L 96 39.75 96 40.25 80 40.25 Z "/>
<path id="p139" fill="rgb(0,0,255)" d="M 87.75 32 L 87.75 48 88.25 48 88.25 32 Z "/>
<path id="p140" fill="rgb(0,0,255)" d="M 88 35.75 L 96 35.75 96 36.25 88 36.25 Z "/>
<path id="p141" fill="rgb(0,0,255)" d="M 91.75 32 L 91.75 40 92.25 40 92.25 32 Z "/>
<path id="p142" fill="rgb(0,0,255)" d="M 64 55.75 L 80 55.75 80 56.25 64 56.25 Z "/>
<path id="p143" fill="rgb(0,0,255)" d="M 71.75 48 L 71.75 64 72.25 64 72.25 48 Z "/>
<path id="p144" fill="rgb(0,0,255)" d="M 64 59.75 L 72 59.75 72 60.25 64 60.25 Z "/>
<path id="p145" fill="rgb(0,0,255)" d="M 67.75 56 L 67.75 64 68.25 64 68.25 56 Z "/>
<path id="p146" fill="rgb(0,0,255)" d="M 72 59.75 L 80 59.75 80 60.25 72 60.25 Z "/>
<path id="p147" fill="rgb(0,0,255)" d="M 75.75 56 L 75.75 64 76.25 64 76.25 56 Z "/>
<path id="p148" fill="rgb(0,0,255)" d="M 80 55.75 L 96 55.75 96 56.25 80 56.25 Z "/>
<path id="p149" fill="rgb(0,0,255)" d="M 87.75 48 L 87.75 64 88.25 64 88.25 48 Z "/>
<path id="p150" fill="rgb(0,0,255)" d="M 80 59.75 L 88 59.75 88 60.25 80 60.25 Z "/>
<path id="p151" fill="rgb(0,0,255)" d="M 83.75 56 L 83.75 64 84.25 64 84.25 56 Z "/>
<path id="p152" fill="rgb(0,0,255)" d="M 96 47.75 L 128 47.75 128 48.25 96 48.25 Z "/>
<path id="p153" fill="rgb(0,0,255)" d="M 111.75 32 L 111.75 64 112.25 64 112.25 32 Z "/>
<path id="p154" fill="rgb(0,0,255)" d="M 96 39.75 L 112 39.75 112 40.25 96 40.25 Z "/>
<path id="p155" fill="rgb(0,0,255)" d="M 103.75 32 L 103.75 48 104.25 48 104.25 32 Z "/>
<path id="p156" fill="rgb(0,0,255)" d="M 96 35.75 L 104 35.75 104 36.25 96 36.25 Z "/>
<path id="p157" fill="rgb(0,0,255)" d="M 99.75 32 L 99.75 40 100.25 40 100.25 32 Z "/>
<path id="p158" fill="rgb(0,0,255)" d="M 104 35.75 L 112 35.75 112 36.25 104 36.25 Z "/>
<path id="p159" fill="rgb(0,0,255)" d="M 107.75 32 L 107.75 40 108.25 40 108.25 32 Z "/>
<path id="p160" fill="rgb(0,0,255)" d="M 96 43.75 L 104 43.75 104 44.25 96 44.25 Z "/>
<path id="p161" fill="rgb(0,0,255)" d="M 99.75 40 L 99.75 48 100.25 48 100.25 40 Z "/>
<path id="p162" fill="rgb(0,0,255)" d="M 104 43.75 L 112 43.75 112 44.25 104 44.25 Z "/>
<path id="p163" fill="rgb(0,0,255)" d="M 107.75 40 L 107.75 48 108.25 48 108.25 40 Z "/>
<path id="p164" fill="rgb(0,0,255)" d="M 112 39.75 L 128 39.75 128 40.25 112 40.25 Z "/>
<path id="p165" fill="rgb(0,0,255)" d="M 119.75 32 L 119.75 48 120.25 48 120.25 32 Z "/>
<path id="p166" fill="rgb(0,0,255)" d="M 112 35.75 L 120 35.75 120 36.25 112 36.25 Z "/>
<path id="p167" fill="rgb(0,0,255)" d="M 115.75 32 L 115.75 40 116.25 40 116.25 32 Z "/>
<path id="p168" fill="rgb(0,0,255)" d="M 120 35.75 L 128 35.75 128 36.25 120 36.25 Z "/>
<path id="p169" fill="rgb(0,0,255)" d="M 123.75 32 L 123.75 40 124.25 40 124.25 32 Z "/>
<path id="p170" fill="rgb(0,0,255)" d="M 112 43.75 L 120 43.75 120 44.25 112 44.25 Z "/>
<path id="p171" fill="rgb(0,0,255)" d="M 115.75 40 L 115.75 48 116.25 48 116.25 40 Z "/>
<path id="p172" fill="rgb(0,0,255)" d="M 120 43.75 L 128 43.75 128 44.25 120 44.25 Z "/>
<path id="p173" fill="rgb(0,0,255)" d="M 123.75 40 L 123.75 48 124.25 48 124.25 40 Z "/>
<path id="p174" fill="rgb(0,0,255)" d="M 0 95.75 L 64 95.75 64 96.25 0 96.25 Z "/>
<path id="p175" fill="rgb(0,0,255)" d="M 31.75 64 L 31.75 128 32.25 128 32.25 64 Z "/>
<path id="p176" fill="rgb(0,0,255)" d="M 0 79.75 L 32 79.75 32 80.25 0 80.25 Z "/>
<path id="p177" fill="rgb(0,0,255)" d="M 15.75 64 L 15.75 96 16.25 96 16.25 64 Z "/>
<path id="p178" fill="rgb(0,0,255)" d="M 16 71.75 L 32 71.75 32 72.25 16 72.25 Z "/>
<path id="p179" fill="rgb(0,0,255)" d="M 23.75 64 L 23.75 80 24.25 80 24.25 64 Z "/>
<path id="p180" fill="rgb(0,0,255)" d="M 24 67.75 L 32 67.75 32 68.25 24 68.25 Z "/>
<path id="p181" fill="rgb(0,0,255)" d="M 27.75 64 L 27.75 72 28.25 72 28.25 64 Z "/>
<path id="p182" fill="rgb(0,0,255)" d="M 32 79.75 L 64 79.75 64 80.25 32 80.25 Z "/>
<path id="p183" fill="rgb(0,0,255)" d="M 47.75 64 L 47.75 96 48.25 96 48.25 64 Z "/>
<path id="p184" fill="rgb(0,0,255)" d="M 32 71.75 L 48 71.75 48 72.25 32 72.25 Z "/>
<path id="p185" fill="rgb(0,0,255)" d="M 39.75 64 L 39.75 80 40.25 80 40.25 64 Z "/>
<path id="p186" fill="rgb(0,0,255)" d="M 32 67.75 L 40 67.75 40 68.25 32 68.25 Z "/>
<path id="p187" fill="rgb(0,0,255)" d="M 35.75 64 L 35.75 72 36.25 72 36.25 64 Z "/>
<path id="p188" fill="rgb(0,0,255)" d="M 40 67.75 L 48 67.75 48 68.25 40 68.25 Z "/>
<path id="p189" fill="rgb(0,0,255)" d="M 43.75 64 L 43.75 72 44.25 72 44.25 64 Z "/>
<path id="p190" fill="rgb(0,0,255)" d="M 48 71.75 L 64 71.75 64 72.25 48 72.25 Z "/>
<path id="p191" fill="rgb(0,0,255)" d="M 55.75 64 L 55.75 80 56.25 80 56.25 64 Z "/>
<path id="p192" fill="rgb(0,0,255)" d="M 48 67.75 L 56 67.75 56 68.25 48 68.25 Z "/>
<path id="p193" fill="rgb(0,0,255)" d="M 51.75 64 L 51.75 72 52.25 72 52.25 64 Z "/>
<path id="p194" fill="rgb(0,0,255)" d="M 56 67.75 L 64 67.75 64 68.25 56 68.25 Z "/>
<path id="p195" fill="rgb(0,0,255)" d="M 59.75 64 L 59.75 72 60.25 72 60.25 64 Z "/>
<path id="p196" fill="rgb(0,0,255)" d="M 64 95.75 L 128 95.75 128 96.25 64 96.25 Z "/>
<path id="p197" fill="rgb(0,0,255)" d="M 95.75 64 L 95.75 128 96.25 128 96.25 64 Z "/>
<path id="p198" fill="rgb(0,0,255)" d="M 64 79.75 L 96 79.75 96 80.25 64 80.25 Z "/>
<path id="p199" fill="rgb(0,0,255)" d="M 79.75 64 L 79.75 96 80.25 96 80.25 64 Z "/>
<path id="p200" fill="rgb(0,0,255)" d="M 64 71.75 L 80 71.75 80 72.25 64 72.25 Z "/>
<path id="p201" fill="rgb(0,0,255)" d="M 71.75 64 L 71.75 80 72.25 80 72.25 64 Z "/>
<path id="p202" fill="rgb(0,0,255)" d="M 64 67.75 L 72 67.75 72 68.25 64 68.25 Z "/>
<path id="p203" fill="rgb(0,0,255)" d="M 67.75 64 L 67.75 72 68.25 72 68.25 64 Z "/>
<path id="p204" fill="rgb(0,0,255)" d="M 72 67.75 L 80 67.75 80 68.25 72 68.25 Z "/>
<path id="p205" fill="rgb(0,0,255)" d="M 75.75 64 L 75.75 72 76.25 72 76.25 64 Z "/>
<path id="p206" fill="rgb(0,0,255)" d="M 80 71.75 L 96 71.75 96 72.25 80 72.25 Z "/>
<path id="p207" fill="rgb(0,0,255)" d="M 87.75 64 L 87.75 80 88.25 80 88.25 64 Z "/>
<path id="p208" fill="rgb(0,0,255)" d="M 80 67.75 L 88 67.75 88 68.25 80 68.25 Z "/>
<path id="p209" fill="rgb(0,0,255)" d="M 83.75 64 L 83.75 72 84.25 72 84.25 64 Z "/>
<path id="p210" fill="rgb(0,0,255)" d="M 128 63.75 L 256 63.75 256 64.25 128 64.25 Z "/>
<path id="p211" fill="rgb(0,0,255)" d="M 191.75 0 L 191.75 128 192.25 128 192.25 0 Z "/>
<path id="p212" fill="rgb(0,0,255)" d="M 128 31.75 L 192 31.75 192 32.25 128 32.25 Z "/>
<path id="p213" fill="rgb(0,0,255)" d="M 159.75 0 L 159.75 64 160.25 64 160.25 0 Z "/>
<path id="p214" fill="rgb(0,0,255)" d="M 128 15.75 L 160 15.75 160 16.25 128 16.25 Z "/>
<path id="p215" fill="rgb(0,0,255)" d="M 143.75 0 L 143.75 32 144.25 32 144.25 0 Z "/>
<path id="p216" fill="rgb(0,0,255)" d="M 128 7.75 L 144 7.75 144 8.25 128 8.25 Z "/>
<path id="p217" fill="rgb(0,0,255)" d="M 135.75 0 L 135.75 16 136.25 16 136.25 0 Z "/>
<path id="p218" fill="rgb(0,0,255)" d="M 128 3.75 L 136 3.75 136 4.25 128 4.25 Z "/>
<path id="p219" fill="rgb(0,0,255)" d="M 131.75 0 L 131.75 8 132.25 8 132.25 0 Z "/>
<path id="p220" fill="rgb(0,0,255)" d="M 136 3.75 L 144 3.75 144 4.25 136 4.25 Z "/>
<path id="p221" fill="rgb(0,0,255)" d="M 139.75 0 L 139.75 8 140.25 8 140.25 0 Z "/>
<path id="p222" fill="rgb(0,0,255)" d="M 136 11.75 L 144 11.75 144 12.25 136 12.25 Z "/>
<path id="p223" fill="rgb(0,0,255)" d="M 139.75 8 L 139.75 16 140.25 16 140.25 8 Z "/>
<path id="p224" fill="rgb(0,0,255)" d="M 144 7.75 L 160 7.75 160 8.25 144 8.25 Z "/>
<path id="p225" fill="rgb(0,0,255)" d="M 151.75 0 L 151.75 16 152.25 16 152.25 0 Z "/>
<path id="p226" fill="rgb(0,0,255)" d="M 144 3.75 L 152 3.75 152 4.25 144 4.25 Z "/>
<path id="p227" fill="rgb(0,0,255)" d="M 147.75 0 L 147.75 8 148.25 8 148.25 0 Z "/>
<path id="p228" fill="rgb(0,0,255)" d="M 152 3.75 L 160 3.75 160 4.25 152 4.25 Z "/>
<path id="p229" fill="rgb(0,0,255)" d="M 155.75 0 L 155.75 8 156.25 8 156.25 0 Z "/>
<path id="p230" fill="rgb(0,0,255)" d="M 144 11.75 L 152 11.75 152 12.25 144 12.25 Z "/>
<path id="p231" fill="rgb(0,0,255)" d="M 147.75 8 L 147.75 16 148.25 16 148.25 8 Z "/>
<path id="p232" fill="rgb(0,0,255)" d="M 160 15.75 L 192 15.75 192 16.25 160 16.25 Z "/>
<path id="p233" fill="rgb(0,0,255)" d="M 175.75 0 L 175.75 32 176.25 32 176.25 0 Z "/>
<path id="p234" fill="rgb(0,0,255)" d="M 160 7.75 L 176 7.75 176 8.25 160 8.25 Z "/>
<path id="p235" fill="rgb(0,0,255)" d="M 167.75 0 L 167.75 16 168.25 16 168.25 0 Z "/>
<path id="p236" fill="rgb(0,0,255)" d="M 160 3.75 L 168 3.75 168 4.25 160 4.25 Z "/>
<path id="p237" fill="rgb(0,0,255)" d="M 163.75 0 L 163.75 8 164.25 8 164.25 0 Z "/>
<path id="p238" fill="rgb(0,0,255)" d="M 168 3.75 L 176 3.75 176 4.25 168 4.25 Z "/>
<path id="p239" fill="rgb(0,0,255)" d="M 171.75 0 L 171.75 8 172.25 8 172.25 0 Z "/>
<path id="p240" fill="rgb(0,0,255)" d="M 160 11.75 L 168 11.75 168 12.25 160 12.25 Z "/>
<path id="p241" fill="rgb(0,0,255)" d="M 163.75 8 L 163.75 16 164.25 16 164.25 8 Z "/>
<path id="p242" fill="rgb(0,0,255)" d="M 168 11.75 L 176 11.75 176 12.25 168 12.25 Z "/>
<path id="p243" fill="rgb(0,0,255)" d="M 171.75 8 L 171.75 16 172.25 16 172.25 8 Z "/>
<path id="p244" fill="rgb(0,0,255)" d="M 176 7.75 L 192 7.75 192 8.25 176 8.25 Z "/>
<path id="p245" fill="rgb(0,0,255)" d="M 183.75 0 L 183.75 16 184.25 16 184.25 0 Z "/>
<path id="p246" fill="rgb(0,0,255)" d="M 176 3.75 L 184 3.75 184 4.25 176 4.25 Z "/>
<path id="p247" fill="rgb(0,0,255)" d="M 179.75 0 L 179.75 8 180.25 8 180.25 0 Z "/>
<path id="p248" fill="rgb(0,0,255)" d="M 184 3.75 L 192 3.75 192 4.25 184 4.25 Z "/>
<path id="p249" fill="rgb(0,0,255)" d="M 187.75 0 L 187.75 8 188.25 8 188.25 0 Z "/>
<path id="p250" fill="rgb(0,0,255)" d="M 176 11.75 L 184 11.75 184 12.25 176 12.25 Z "/>
<path id="p251" fill="rgb(0,0,255)" d="M 179.75 8 L 179.75 16 180.25 16 180.25 8 Z "/>
<path id="p252" fill="rgb(0,0,255)" d="M 184 11.75 L 192 11.75 192 12.25 184 12.25 Z "/>
<path id="p253" fill="rgb(0,0,255)" d="M 187.75 8 L 187.75 16 188.25 16 188.25 8 Z "/>
<path id="p254" fill="rgb(0,0,255)" d="M 176 23.75 L 192 23.75 192 24.25 176 24.25 Z "/>
<path id="p255" fill="rgb(0,0,255)" d="M 183.75 16 L 183.75 32 184.25 32 184.25 16 Z "/>
<path id="p256" fill="rgb(0,0,255)" d="M 176 19.75 L 184 19.75 184 20.25 176 20.25 Z "/>
<path id="p257" fill="rgb(0,0,255)" d="M 179.75 16 L 179.75 24 180.25 24 180.25 16 Z "/>
<path id="p258" fill="rgb(0,0,255)" d="M 184 19.75 L 192 19.75 192 20.25 184 20.25 Z "/>
<path id="p259" fill="rgb(0,0,255)" d="M 187.75 16 L 187.75 24 188.25 24 188.25 16 Z "/>
<path id="p260" fill="rgb(0,0,255)" d="M 176 27.75 L 184 27.75 184 28.25 176 28.25 Z "/>
<path id="p261" fill="rgb(0,0,255)" d="M 179.75 24 L 179.75 32 180.25 32 180.25 24 Z "/>
<path id="p262" fill="rgb(0,0,255)" d="M 184 27.75 L 192 27.75 192 28.25 184 28.25 Z "/>
<path id="p263" fill="rgb(0,0,255)" d="M 187.75 24 L 187.75 32 188.25 32 188.25 24 Z "/>
<path id="p264" fill="rgb(0,0,255)" d="M 128 47.75 L 160 47.75 160 48.25 128 48.25 Z "/>
<path id="p265" fill="rgb(0,0,255)" d="M 143.75 32 L 143.75 64 144.25 64 144.25 32 Z "/>
<path id="p266" fill="rgb(0,0,255)" d="M 128 55.75 L 144 55.75 144 56.25 128 56.25 Z "/>
<path id="p267" fill="rgb(0,0,255)" d="M 135.75 48 L 135.75 64 136.25 64 136.25 48 Z "/>
<path id="p268" fill="rgb(0,0,255)" d="M 128 59.75 L 136 59.75 136 60.25 128 60.25 Z "/>
<path id="p269" fill="rgb(0,0,255)" d="M 131.75 56 L 131.75 64 132.25 64 132.25 56 Z "/>
<path id="p270" fill="rgb(0,0,255)" d="M 136 59.75 L 144 59.75 144 60.25 136 60.25 Z "/>
<path id="p271" fill="rgb(0,0,255)" d="M 139.75 56 L 139.75 64 140.25 64 140.25 56 Z "/>
<path id="p272" fill="rgb(0,0,255)" d="M 144 55.75 L 160 55.75 160 56.25 144 56.25 Z "/>
<path id="p273" fill="rgb(0,0,255)" d="M 151.75 48 L 151.75 64 152.25 64 152.25 48 Z "/>
<path id="p274" fill="rgb(0,0,255)" d="M 152 59.75 L 160 59.75 160 60.25 152 60.25 Z "/>
<path id="p275" fill="rgb(0,0,255)" d="M 155.75 56 L 155.75 64 156.25 64 156.25 56 Z "/>
<path id="p276" fill="rgb(0,0,255)" d="M 160 47.75 L 192 47.75 192 48.25 160 48.25 Z "/>
<path id="p277" fill="rgb(0,0,255)" d="M 175.75 32 L 175.75 64 176.25 64 176.25 32 Z "/>
<path id="p278" fill="rgb(0,0,255)" d="M 176 39.75 L 192 39.75 192 40.25 176 40.25 Z "/>
<path id="p279" fill="rgb(0,0,255)" d="M 183.75 32 L 183.75 48 184.25 48 184.25 32 Z "/>
<path id="p280" fill="rgb(0,0,255)" d="M 176 35.75 L 184 35.75 184 36.25 176 36.25 Z "/>
<path id="p281" fill="rgb(0,0,255)" d="M 179.75 32 L 179.75 40 180.25 40 180.25 32 Z "/>
<path id="p282" fill="rgb(0,0,255)" d="M 184 35.75 L 192 35.75 192 36.25 184 36.25 Z "/>
<path id="p283" fill="rgb(0,0,255)" d="M 187.75 32 L 187.75 40 188.25 40 188.25 32 Z "/>
<path id="p284" fill="rgb(0,0,255)" d="M 184 43.75 L 192 43.75 192 44.25 184 44.25 Z "/>
<path id="p285" fill="rgb(0,0,255)" d="M 187.75 40 L 187.75 48 188.25 48 188.25 40 Z "/>
<path id="p286" fill="rgb(0,0,255)" d="M 160 55.75 L 176 55.75 176 56.25 160 56.25 Z "/>
<path id="p287" fill="rgb(0,0,255)" d="M 167.75 48 L 167.75 64 168.25 64 168.25 48 Z "/>
<path id="p288" fill="rgb(0,0,255)" d="M 160 59.75 L 168 59.75 168 60.25 160 60.25 Z "/>
<path id="p289" fill="rgb(0,0,255)" d="M 163.75 56 L 163.75 64 164.25 64 164.25 56 Z "/>
<path id="p290" fill="rgb(0,0,255)" d="M 192 31.75 L 256 31.75 256 32.25 192 32.25 Z "/>
<path id="p291" fill="rgb(0,0,255)" d="M 223.75 0 L 223.75 64 224.25 64 224.25 0 Z "/>
<path id="p292" fill="rgb(0,0,255)" d="M 192 15.75 L 224 15.75 224 16.25 192 16.25 Z "/>
<path id="p293" fill="rgb(0,0,255)" d="M 207.75 0 L 207.75 32 208.25 32 208.25 0 Z "/>
<path id="p294" fill="rgb(0,0,255)" d="M 192 7.75 L 208 7.75 208 8.25 192 8.25 Z "/>
<path id="p295" fill="rgb(0,0,255)" d="M 199.75 0 L 199.75 16 200.25 16 200.25 0 Z "/>
<path id="p296" fill="rgb(0,0,255)" d="M 192 3.75 L 200 3.75 200 4.25 192 4.25 Z "/>
<path id="p297" fill="rgb(0,0,255)" d="M 195.75 0 L 195.75 8 196.25 8 196.25 0 Z "/>
<path id="p298" fill="rgb(0,0,255)" d="M 200 3.75 L 208 3.75 208 4.25 200 4.25 Z "/>
<path id="p299" fill="rgb(0,0,255)" d="M 203.75 0 L 203.75 8 204.25 8 204.25 0 Z "/>
<path id="p300" fill="rgb(0,0,255)" d="M 192 11.75 L 200 11.75 200 12.25 192 12.25 Z "/>
<path id="p301" fill="rgb(0,0,255)" d="M 195.75 8 L 195.75 16 196.25 16 196.25 8 Z "/>
<path id="p302" fill="rgb(0,0,255)" d="M 208 7.75 L 224 7.75 224 8.25 208 8.25 Z "/>
<path id="p303" fill="rgb(0,0,255)" d="M 215.75 0 L 215.75 16 216.25 16 216.25 0 Z "/>
<path id="p304" fill="rgb(0,0,255)" d="M 208 3.75 L 216 3.75 216 4.25 208 4.25 Z "/>
<path id="p305" fill="rgb(0,0,255)" d="M 211.75 0 L 211.75 8 212.25 8 212.25 0 Z "/>
<path id="p306" fill="rgb(0,0,255)" d="M 208 11.75 L 216 11.75 216 12.25 208 12.25 Z "/>
<path id="p307" fill="rgb(0,0,255)" d="M 211.75 8 L 211.75 16 212.25 16 212.25 8 Z "/>
<path id="p308" fill="rgb(0,0,255)" d="M 216 11.75 L 224 11.75 224 12.25 216 12.25 Z "/>
<path id="p309" fill="rgb(0,0,255)" d="M 219.75 8 L 219.75 16 220.25 16 220.25 8 Z "/>
<path id="p310" fill="rgb(0,0,255)" d="M 208 23.75 L 224 23.75 224 24.25 208 24.25 Z "/>
<path id="p311" fill="rgb(0,0,255)" d="M 215.75 16 L 215.75 32 216.25 32 216.25 16 Z "/>
<path id="p312" fill="rgb(0,0,255)" d="M 208 19.75 L 216 19.75 216 20.25 208 20.25 Z "/>
<path id="p313" fill="rgb(0,0,255)" d="M 211.75 16 L 211.75 24 212.25 24 212.25 16 Z "/>
<path id="p314" fill="rgb(0,0,255)" d="M 216 19.75 L 224 19.75 224 20.25 216 20.25 Z "/>
<path id="p315" fill="rgb(0,0,255)" d="M 219.75 16 L 219.75 24 220.25 24 220.25 16 Z "/>
<path id="p316" fill="rgb(0,0,255)" d="M 208 27.75 L 216 27.75 216 28.25 208 28.25 Z "/>
<path id="p317" fill="rgb(0,0,255)" d="M 211.75 24 L 211.75 32 212.25 32 212.25 24 Z "/>
<path id="p318" fill="rgb(0,0,255)" d="M 216 27.75 L 224 27.75 224 28.25 216 28.25 Z "/>
<path id="p319" fill="rgb(0,0,255)" d="M 219.75 24 L 219.75 32 220.25 32 220.25 24 Z "/>
<path id="p320" fill="rgb(0,0,255)" d="M 192 47.75 L 224 47.75 224 48.25 192 48.25 Z "/>
<path id="p321" fill="rgb(0,0,255)" d="M 207.75 32 L 207.75 64 208.25 64 208.25 32 Z "/>
<path id="p322" fill="rgb(0,0,255)" d="M 192 39.75 L 208 39.75 208 40.25 192 40.25 Z "/>
<path id="p323" fill="rgb(0,0,255)" d="M 199.75 32 L 199.75 48 200.25 48 200.25 32 Z "/>
<path id="p324" fill="rgb(0,0,255)" d="M 192 35.75 L 200 35.75 200 36.25 192 36.25 Z "/>
<path id="p325" fill="rgb(0,0,255)" d="M 195.75 32 L 195.75 40 196.25 40 196.25 32 Z "/>
<path id="p326" fill="rgb(0,0,255)" d="M 192 43.75 L 200 43.75 200 44.25 192 44.25 Z "/>
<path id="p327" fill="rgb(0,0,255)" d="M 195.75 40 L 195.75 48 196.25 48 196.25 40 Z "/>
<path id="p328" fill="rgb(0,0,255)" d="M 200 43.75 L 208 43.75 208 44.25 200 44.25 Z "/>
<path id="p329" fill="rgb(0,0,255)" d="M 203.75 40 L 203.75 48 204.25 48 204.25 40 Z "/>
<path id="p330" fill="rgb(0,0,255)" d="M 208 39.75 L 224 39.75 224 40.25 208 40.25 Z "/>
<path id="p331" fill="rgb(0,0,255)" d="M 215.75 32 L 215.75 48 216.25 48 216.25 32 Z "/>
<path id="p332" fill="rgb(0,0,255)" d="M 208 35.75 L 216 35.75 216 36.25 208 36.25 Z "/>
<path id="p333" fill="rgb(0,0,255)" d="M 211.75 32 L 211.75 40 212.25 40 212.25 32 Z "/>
<path id="p334" fill="rgb(0,0,255)" d="M 216 35.75 L 224 35.75 224 36.25 216 36.25 Z "/>
<path id="p335" fill="rgb(0,0,255)" d="M 219.75 32 L 219.75 40 220.25 40 220.25 32 Z "/>
<path id="p336" fill="rgb(0,0,255)" d="M 208 43.75 L 216 43.75 216 44.25 208 44.25 Z "/>
<path id="p337" fill="rgb(0,0,255)" d="M 211.75 40 L 211.75 48 212.25 48 212.25 40 Z "/>
<path id="p338" fill="rgb(0,0,255)" d="M 224 47.75 L 256 47.75 256 48.25 224 48.25 Z "/>
<path id="p339" fill="rgb(0,0,255)" d="M 239.75 32 L 239.75 64 240.25 64 240.25 32 Z "/>
<path id="p340" fill="rgb(0,0,255)" d="M 240 39.75 L 256 39.75 256 40.25 240 40.25 Z "/>
<path id="p341" fill="rgb(0,0,255)" d="M 247.75 32 L 247.75 48 248.25 48 248.25 32 Z "/>
<path id="p342" fill="rgb(0,0,255)" d="M 248 43.75 L 256 43.75 256 44.25 248 44.25 Z "/>
<path id="p343" fill="rgb(0,0,255)" d="M 251.75 40 L 251.75 48 252.25 48 252.25 40 Z "/>
<path id="p344" fill="rgb(0,0,255)" d="M 128 95.75 L 192 95.75 192 96.25 128 96.25 Z "/>
<path id="p345" fill="rgb(0,0,255)" d="M 159.75 64 L 159.75 128 160.25 128 160.25 64 Z "/>
<path id="p346" fill="rgb(0,0,255)" d="M 128 79.75 L 160 79.75 160 80.25 128 80.25 Z "/>
<path id="p347" fill="rgb(0,0,255)" d="M 143.75 64 L 143.75 96 144.25 96 144.25 64 Z "/>
<path id="p348" fill="rgb(0,0,255)" d="M 128 71.75 L 144 71.75 144 72.25 128 72.25 Z "/>
<path id="p349" fill="rgb(0,0,255)" d="M 135.75 64 L 135.75 80 136.25 80 136.25 64 Z "/>
<path id="p350" fill="rgb(0,0,255)" d="M 128 67.75 L 136 67.75 136 68.25 128 68.25 Z "/>
<path id="p351" fill="rgb(0,0,255)" d="M 131.75 64 L 131.75 72 132.25 72 132.25 64 Z "/>
<path id="p352" fill="rgb(0,0,255)" d="M 136 67.75 L 144 67.75 144 68.25 136 68.25 Z "/>
<path id="p353" fill="rgb(0,0,255)" d="M 139.75 64 L 139.75 72 140.25 72 140.25 64 Z "/>
<path id="p354" fill="rgb(0,0,255)" d="M 144 71.75 L 160 71.75 160 72.25 144 72.25 Z "/>
<path id="p355" fill="rgb(0,0,255)" d="M 151.75 64 L 151.75 80 152.25 80 152.25 64 Z "/>
<path id="p356" fill="rgb(0,0,255)" d="M 144 67.75 L 152 67.75 152 68.25 144 68.25 Z "/>
<path id="p357" fill="rgb(0,0,255)" d="M 147.75 64 L 147.75 72 148.25 72 148.25 64 Z "/>
<path id="p358" fill="rgb(0,0,255)" d="M 152 67.75 L 160 67.75 160 68.25 152 68.25 Z "/>
<path id="p359" fill="rgb(0,0,255)" d="M 155.75 64 L 155.75 72 156.25 72 156.25 64 Z "/>
<path id="p360" fill="rgb(0,0,255)" d="M 160 79.75 L 192 79.75 192 80.25 160 80.25 Z "/>
<path id="p361" fill="rgb(0,0,255)" d="M 175.75 64 L 175.75 96 176.25 96 176.25 64 Z "/>
<path id="p362" fill="rgb(0,0,255)" d="M 160 71.75 L 176 71.75 176 72.25 160 72.25 Z "/>
<path id="p363" fill="rgb(0,0,255)" d="M 167.75 64 L 167.75 80 168.25 80 168.25 64 Z "/>
<path id="p364" fill="rgb(0,0,255)" d="M 160 67.75 L 168 67.75 168 68.25 160 68.25 Z "/>
<path id="p365" fill="rgb(0,0,255)" d="M 163.75 64 L 163.75 72 164.25 72 164.25 64 Z "/>
<path id="p366" fill="rgb(0,0,255)" d="M 168 67.75 L 176 67.75 176 68.25 168 68.25 Z "/>
<path id="p367" fill="rgb(0,0,255)" d="M 171.75 64 L 171.75 72 172.25 72 172.25 64 Z "/>
<path id="p368" fill="rgb(0,0,255)" d="M 256 127.75 L 512 127.75 512 128.25 256 128.25 Z "/>
<path id="p369" fill="rgb(0,0,255)" d="M 383.75 0 L 383.75 256 384.25 256 384.25 0 Z "/>
<path id="p370" fill="rgb(0,0,255)" d="M 256 63.75 L 384 63.75 384 64.25 256 64.25 Z "/>
<path id="p371" fill="rgb(0,0,255)" d="M 319.75 0 L 319.75 128 320.25 128 320.25 0 Z "/>
<path id="p372" fill="rgb(0,0,255)" d="M 256 31.75 L 320 31.75 320 32.25 256 32.25 Z "/>
<path id="p373" fill="rgb(0,0,255)" d="M 287.75 0 L 287.75 64 288.25 64 288.25 0 Z "/>
<path id="p374" fill="rgb(0,0,255)" d="M 256 15.75 L 288 15.75 288 16.25 256 16.25 Z "/>
<path id="p375" fill="rgb(0,0,255)" d="M 271.75 0 L 271.75 32 272.25 32 272.25 0 Z "/>
<path id="p376" fill="rgb(0,0,255)" d="M 256 7.75 L 272 7.75 272 8.25 256 8.25 Z "/>
<path id="p377" fill="rgb(0,0,255)" d="M 263.75 0 L 263.75 16 264.25 16 264.25 0 Z "/>
<path id="p378" fill="rgb(0,0,255)" d="M 264 11.75 L 272 11.75 272 12.25 264 12.25 Z "/>
<path id="p379" fill="rgb(0,0,255)" d="M 267.75 8 L 267.75 16 268.25 16 268.25 8 Z "/>
<path id="p380" fill="rgb(0,0,255)" d="M 272 7.75 L 288 7.75 288 8.25 272 8.25 Z "/>
<path id="p381" fill="rgb(0,0,255)" d="M 279.75 0 L 279.75 16 280.25 16 280.25 0 Z "/>
<path id="p382" fill="rgb(0,0,255)" d="M 272 3.75 L 280 3.75 280 4.25 272 4.25 Z "/>
<path id="p383" fill="rgb(0,0,255)" d="M 275.75 0 L 275.75 8 276.25 8 276.25 0 Z "/>
<path id="p384" fill="rgb(0,0,255)" d="M 272 11.75 L 280 11.75 280 12.25 272 12.25 Z "/>
<path id="p385" fill="rgb(0,0,255)" d="M 275.75 8 L 275.75 16 276.25 16 276.25 8 Z "/>
<path id="p386" fill="rgb(0,0,255)" d="M 280 11.75 L 288 11.75 288 12.25 280 12.25 Z "/>
<path id="p387" fill="rgb(0,0,255)" d="M 283.75 8 L 283.75 16 284.25 16 284.25 8 Z "/>
<path id="p388" fill="rgb(0,0,255)" d="M 256 23.75 L 272 23.75 272 24.25 256 24.25 Z "/>
<path id="p389" fill="rgb(0,0,255)" d="M 263.75 16 L 263.75 32 264.25 32 264.25 16 Z "/>
<path id="p390" fill="rgb(0,0,255)" d="M 264 19.75 L 272 19.75 272 20.25 264 20.25 Z "/>
<path id="p391" fill="rgb(0,0,255)" d="M 267.75 16 L 267.75 24 268.25 24 268.25 16 Z "/>
<path id="p392" fill="rgb(0,0,255)" d="M 264 27.75 L 272 27.75 272 28.25 264 28.25 Z "/>
<path id="p393" fill="rgb(0,0,255)" d="M 267.75 24 L 267.75 32 268.25 32 268.25 24 Z "/>
<path id="p394" fill="rgb(0,0,255)" d="M 272 23.75 L 288 23.75 288 24.25 272 24.25 Z "/>
<path id="p395" fill="rgb(0,0,255)" d="M 279.75 16 L 279.75 32 280.25 32 280.25 16 Z "/>
<path id="p396" fill="rgb(0,0,255)" d="M 272 19.75 L 280 19.75 280 20.25 272 20.25 Z "/>
<path id="p397" fill="rgb(0,0,255)" d="M 275.75 16 L 275.75 24 276.25 24 276.25 16 Z "/>
<path id="p398" fill="rgb(0,0,255)" d="M 280 19.75 L 288 19.75 288 20.25 280 20.25 Z "/>
<path id="p399" fill="rgb(0,0,255)" d="M 283.75 16 L 283.75 24 284.25 24 284.25 16 Z "/>
<path id="p400" fill="rgb(0,0,255)" d="M 272 27.75 L 280 27.75 280 28.25 272 28.25 Z "/>
<path id="p401" fill="rgb(0,0,255)" d="M 275.75 24 L 275.75 32 276.25 32 276.25 24 Z "/>
<path id="p402" fill="rgb(0,0,255)" d="M 280 27.75 L 288 27.75 288 28.25 280 28.25 Z "/>
<path id="p403" fill="rgb(0,0,255)" d="M 283.75 24 L 283.75 32 284.25 32 284.25 24 Z "/>
<path id="p404" fill="rgb(0,0,255)" d="M 288 15.75 L 320 15.75 320 16.25 288 16.25 Z "/>
<path id="p405" fill="rgb(0,0,255)" d="M 303.75 0 L 303.75 32 304.25 32 304.25 0 Z "/>
<path id="p406" fill="rgb(0,0,255)" d="M 288 7.75 L 304 7.75 304 8.25 288 8.25 Z "/>
<path id="p407" fill="rgb(0,0,255)" d="M 295.75 0 L 295.75 16 296.25 16 296.25 0 Z "/>
<path id="p408" fill="rgb(0,0,255)" d="M 288 3.75 L 296 3.75 296 4.25 288 4.25 Z "/>
<path id="p409" fill="rgb(0,0,255)" d="M 291.75 0 L 291.75 8 292.25 8 292.25 0 Z "/>
<path id="p410" fill="rgb(0,0,255)" d="M 296 3.75 L 304 3.75 304 4.25 296 4.25 Z "/>
<path id="p411" fill="rgb(0,0,255)" d="M 299.75 0 L 299.75 8 300.25 8 300.25 0 Z "/>
<path id="p412" fill="rgb(0,0,255)" d="M 288 11.75 L 296 11.75 296 12.25 288 12.25 Z "/>
<path id="p413" fill="rgb(0,0,255)" d="M 291.75 8 L 291.75 16 292.25 16 292.25 8 Z "/>
<path id="p414" fill="rgb(0,0,255)" d="M 296 11.75 L 304 11.75 304 12.25 296 12.25 Z "/>
<path id="p415" fill="rgb(0,0,255)" d="M 299.75 8 L 299.75 16 300.25 16 300.25 8 Z "/>
<path id="p416" fill="rgb(0,0,255)" d="M 288 23.75 L 304 23.75 304 24.25 288 24.25 Z "/>
<path id="p417" fill="rgb(0,0,255)" d="M 295.75 16 L 295.75 32 296.25 32 296.25 16 Z "/>
<path id="p418" fill="rgb(0,0,255)" d="M 288 19.75 L 296 19.75 296 20.25 288 20.25 Z "/>
<path id="p419" fill="rgb(0,0,255)" d="M 291.75 16 L 291.75 24 292.25 24 292.25 16 Z "/>
<path id="p420" fill="rgb(0,0,255)" d="M 296 19.75 L 304 19.75 304 20.25 296 20.25 Z "/>
<path id="p421" fill="rgb(0,0,255)" d="M 299.75 16 L 299.75 24 300.25 24 300.25 16 Z "/>
<path id="p422" fill="rgb(0,0,255)" d="M 288 27.75 L 296 27.75 296 28.25 288 28.25 Z "/>
<path id="p423" fill="rgb(0,0,255)" d="M 291.75 24 L 291.75 32 292.25 32 292.25 24 Z "/>
<path id="p424" fill="rgb(0,0,255)" d="M 296 27.75 L 304 27.75 304 28.25 296 28.25 Z "/>
<path id="p425" fill="rgb(0,0,255)" d="M 299.75 24 L 299.75 32 300.25 32 300.25 24 Z "/>
<path id="p426" fill="rgb(0,0,255)" d="M 304 23.75 L 320 23.75 320 24.25 304 24.25 Z "/>
<path id="p427" fill="rgb(0,0,255)" d="M 311.75 16 L 311.75 32 312.25 32 312.25 16 Z "/>
<path id="p428" fill="rgb(0,0,255)" d="M 304 19.75 L 312 19.75 312 20.25 304 20.25 Z "/>
<path id="p429" fill="rgb(0,0,255)" d="M 307.75 16 L 307.75 24 308.25 24 308.25 16 Z "/>
<path id="p430" fill="rgb(0,0,255)" d="M 304 27.75 L 312 27.75 312 28.25 304 28.25 Z "/>
<path id="p431" fill="rgb(0,0,255)" d="M 307.75 24 L 307.75 32 308.25 32 308.25 24 Z "/>
<path id="p432" fill="rgb(0,0,255)" d="M 256 47.75 L 288 47.75 288 48.25 256 48.25 Z "/>
<path id="p433" fill="rgb(0,0,255)" d="M 271.75 32 L 271.75 64 272.25 64 272.25 32 Z "/>
<path id="p434" fill="rgb(0,0,255)" d="M 256 39.75 L 272 39.75 272 40.25 256 40.25 Z "/>
<path id="p435" fill="rgb(0,0,255)" d="M 263.75 32 L 263.75 48 264.25 48 264.25 32 Z "/>
<path id="p436" fill="rgb(0,0,255)" d="M 256 35.75 L 264 35.75 264 36.25 256 36.25 Z "/>
<path id="p437" fill="rgb(0,0,255)" d="M 259.75 32 L 259.75 40 260.25 40 260.25 32 Z "/>
<path id="p438" fill="rgb(0,0,255)" d="M 264 35.75 L 272 35.75 272 36.25 264 36.25 Z "/>
<path id="p439" fill="rgb(0,0,255)" d="M 267.75 32 L 267.75 40 268.25 40 268.25 32 Z "/>
<path id="p440" fill="rgb(0,0,255)" d="M 256 43.75 L 264 43.75 264 44.25 256 44.25 Z "/>
<path id="p441" fill="rgb(0,0,255)" d="M 259.75 40 L 259.75 48 260.25 48 260.25 40 Z "/>
<path id="p442" fill="rgb(0,0,255)" d="M 264 43.75 L 272 43.75 272 44.25 264 44.25 Z "/>
<path id="p443" fill="rgb(0,0,255)" d="M 267.75 40 L 267.75 48 268.25 48 268.25 40 Z "/>
<path id="p444" fill="rgb(0,0,255)" d="M 272 39.75 L 288 39.75 288 40.25 272 40.25 Z "/>
<path id="p445" fill="rgb(0,0,255)" d="M 279.75 32 L 279.75 48 280.25 48 280.25 32 Z "/>
<path id="p446" fill="rgb(0,0,255)" d="M 280 35.75 L 288 35.75 288 36.25 280 36.25 Z "/>
<path id="p447" fill="rgb(0,0,255)" d="M 283.75 32 L 283.75 40 284.25 40 284.25 32 Z "/>
<path id="p448" fill="rgb(0,0,255)" d="M 272 43.75 L 280 43.75 280 44.25 272 44.25 Z "/>
<path id="p449" fill="rgb(0,0,255)" d="M 275.75 40 L 275.75 48 276.25 48 276.25 40 Z "/>
<path id="p450" fill="rgb(0,0,255)" d="M 280 43.75 L 288 43.75 288 44.25 280 44.25 Z "/>
<path id="p451" fill="rgb(0,0,255)" d="M 283.75 40 L 283.75 48 284.25 48 284.25 40 Z "/>
<path id="p452" fill="rgb(0,0,255)" d="M 288 47.75 L 320 47.75 320 48.25 288 48.25 Z "/>
<path id="p453" fill="rgb(0,0,255)" d="M 303.75 32 L 303.75 64 304.25 64 304.25 32 Z "/>
<path id="p454" fill="rgb(0,0,255)" d="M 288 39.75 L 304 39.75 304 40.25 288 40.25 Z "/>
<path id="p455" fill="rgb(0,0,255)" d="M 295.75 32 L 295.75 48 296.25 48 296.25 32 Z "/>
<path id="p456" fill="rgb(0,0,255)" d="M 288 35.75 L 296 35.75 296 36.25 288 36.25 Z "/>
<path id="p457" fill="rgb(0,0,255)" d="M 291.75 32 L 291.75 40 292.25 40 292.25 32 Z "/>
<path id="p458" fill="rgb(0,0,255)" d="M 288 43.75 L 296 43.75 296 44.25 288 44.25 Z "/>
<path id="p459" fill="rgb(0,0,255)" d="M 291.75 40 L 291.75 48 292.25 48 292.25 40 Z "/>
<path id="p460" fill="rgb(0,0,255)" d="M 296 43.75 L 304 43.75 304 44.25 296 44.25 Z "/>
<path id="p461" fill="rgb(0,0,255)" d="M 299.75 40 L 299.75 48 300.25 48 300.25 40 Z "/>
<path id="p462" fill="rgb(0,0,255)" d="M 304 39.75 L 320 39.75 320 40.25 304 40.25 Z "/>
<path id="p463" fill="rgb(0,0,255)" d="M 311.75 32 L 311.75 48 312.25 48 312.25 32 Z "/>
<path id="p464" fill="rgb(0,0,255)" d="M 304 35.75 L 312 35.75 312 36.25 304 36.25 Z "/>
<path id="p465" fill="rgb(0,0,255)" d="M 307.75 32 L 307.75 40 308.25 40 308.25 32 Z "/>
<path id="p466" fill="rgb(0,0,255)" d="M 312 35.75 L 320 35.75 320 36.25 312 36.25 Z "/>
<path id="p467" fill="rgb(0,0,255)" d="M 315.75 32 L 315.75 40 316.25 40 316.25 32 Z "/>
<path id="p468" fill="rgb(0,0,255)" d="M 304 43.75 L 312 43.75 312 44.25 304 44.25 Z "/>
<path id="p469" fill="rgb(0,0,255)" d="M 307.75 40 L 307.75 48 308.25 48 308.25 40 Z "/>
<path id="p470" fill="rgb(0,0,255)" d="M 312 43.75 L 320 43.75 320 44.25 312 44.25 Z "/>
<path id="p471" fill="rgb(0,0,255)" d="M 315.75 40 L 315.75 48 316.25 48 316.25 40 Z "/>
<path id="p472" fill="rgb(0,0,255)" d="M 320 31.75 L 384 31.75 384 32.25 320 32.25 Z "/>
<path id="p473" fill="rgb(0,0,255)" d="M 351.75 0 L 351.75 64 352.25 64 352.25 0 Z "/>
<path id="p474" fill="rgb(0,0,255)" d="M 320 15.75 L 352 15.75 352 16.25 320 16.25 Z "/>
<path id="p475" fill="rgb(0,0,255)" d="M 335.75 0 L 335.75 32 336.25 32 336.25 0 Z "/>
<path id="p476" fill="rgb(0,0,255)" d="M 320 7.75 L 336 7.75 336 8.25 320 8.25 Z "/>
<path id="p477" fill="rgb(0,0,255)" d="M 327.75 0 L 327.75 16 328.25 16 328.25 0 Z "/>
<path id="p478" fill="rgb(0,0,255)" d="M 328 3.75 L 336 3.75 336 4.25 328 4.25 Z "/>
<path id="p479" fill="rgb(0,0,255)" d="M 331.75 0 L 331.75 8 332.25 8 332.25 0 Z "/>
<path id="p480" fill="rgb(0,0,255)" d="M 320 11.75 L 328 11.75 328 12.25 320 12.25 Z "/>
<path id="p481" fill="rgb(0,0,255)" d="M 323.75 8 L 323.75 16 324.25 16 324.25 8 Z "/>
<path id="p482" fill="rgb(0,0,255)" d="M 328 11.75 L 336 11.75 336 12.25 328 12.25 Z "/>
<path id="p483" fill="rgb(0,0,255)" d="M 331.75 8 L 331.75 16 332.25 16 332.25 8 Z "/>
<path id="p484" fill="rgb(0,0,255)" d="M 336 7.75 L 352 7.75 352 8.25 336 8.25 Z "/>
<path id="p485" fill="rgb(0,0,255)" d="M 343.75 0 L 343.75 16 344.25 16 344.25 0 Z "/>
<path id="p486" fill="rgb(0,0,255)" d="M 336 3.75 L 344 3.75 344 4.25 336 4.25 Z "/>
<path id="p487" fill="rgb(0,0,255)" d="M 339.75 0 L 339.75 8 340.25 8 340.25 0 Z "/>
<path id="p488" fill="rgb(0,0,255)" d="M 344 3.75 L 352 3.75 352 4.25 344 4.25 Z "/>
<path id="p489" fill="rgb(0,0,255)" d="M 347.75 0 L 347.75 8 348.25 8 348.25 0 Z "/>
<path id="p490" fill="rgb(0,0,255)" d="M 344 11.75 L 352 11.75 352 12.25 344 12.25 Z "/>
<path id="p491" fill="rgb(0,0,255)" d="M 347.75 8 L 347.75 16 348.25 16 348.25 8 Z "/>
<path id="p492" fill="rgb(0,0,255)" d="M 320 23.75 L 336 23.75 336 24.25 320 24.25 Z "/>
<path id="p493" fill="rgb(0,0,255)" d="M 327.75 16 L 327.75 32 328.25 32 328.25 16 Z "/>
<path id="p494" fill="rgb(0,0,255)" d="M 320 19.75 L 328 19.75 328 20.25 320 20.25 Z "/>
<path id="p495" fill="rgb(0,0,255)" d="M 323.75 16 L 323.75 24 324.25 24 324.25 16 Z "/>
<path id="p496" fill="rgb(0,0,255)" d="M 328 19.75 L 336 19.75 336 20.25 328 20.25 Z "/>
<path id="p497" fill="rgb(0,0,255)" d="M 331.75 16 L 331.75 24 332.25 24 332.25 16 Z "/>
<path id="p498" fill="rgb(0,0,255)" d="M 320 27.75 L 328 27.75 328 28.25 320 28.25 Z "/>
<path id="p499" fill="rgb(0,0,255)" d="M 323.75 24 L 323.75 32 324.25 32 324.25 24 Z "/>
<path id="p500" fill="rgb(0,0,255)" d="M 328 27.75 L 336 27.75 336 28.25 328 28.25 Z "/>
<path id="p501" fill="rgb(0,0,255)" d="M 331.75 24 L 331.75 32 332.25 32 332.25 24 Z "/>
<path id="p502" fill="rgb(0,0,255)" d="M 352 15.75 L 384 15.75 384 16.25 352 16.25 Z "/>
<path id="p503" fill="rgb(0,0,255)" d="M 367.75 0 L 367.75 32 368.25 32 368.25 0 Z "/>
<path id="p504" fill="rgb(0,0,255)" d="M 352 7.75 L 368 7.75 368 8.25 352 8.25 Z "/>
<path id="p505" fill="rgb(0,0,255)" d="M 359.75 0 L 359.75 16 360.25 16 360.25 0 Z "/>
<path id="p506" fill="rgb(0,0,255)" d="M 352 3.75 L 360 3.75 360 4.25 352 4.25 Z "/>
<path id="p507" fill="rgb(0,0,255)" d="M 355.75 0 L 355.75 8 356.25 8 356.25 0 Z "/>
<path id="p508" fill="rgb(0,0,255)" d="M 360 3.75 L 368 3.75 368 4.25 360 4.25 Z "/>
<path id="p509" fill="rgb(0,0,255)" d="M 363.75 0 L 363.75 8 364.25 8 364.25 0 Z "/>
<path id="p510" fill="rgb(0,0,255)" d="M 352 11.75 L 360 11.75 360 12.25 352 12.25 Z "/>
<path id="p511" fill="rgb(0,0,255)" d="M 355.75 8 L 355.75 16 356.25 16 356.25 8 Z "/>
<path id="p512" fill="rgb(0,0,255)" d="M 368 7.75 L 384 7.75 384 8.25 368 8.25 Z "/>
<path id="p513" fill="rgb(0,0,255)" d="M 375.75 0 L 375.75 16 376.25 16 376.25 0 Z "/>
<path id="p514" fill="rgb(0,0,255)" d="M 368 3.75 L 376 3.75 376 4.25 368 4.25 Z "/>
<path id="p515" fill="rgb(0,0,255)" d="M 371.75 0 L 371.75 8 372.25 8 372.25 0 Z "/>
<path id="p516" fill="rgb(0,0,255)" d="M 376 3.75 L 384 3.75 384 4.25 376 4.25 Z "/>
<path id="p517" fill="rgb(0,0,255)" d="M 379.75 0 L 379.75 8 380.25 8 380.25 0 Z "/>
<path id="p518" fill="rgb(0,0,255)" d="M 368 11.75 L 376 11.75 376 12.25 368 12.25 Z "/>
<path id="p519" fill="rgb(0,0,255)" d="M 371.75 8 L 371.75 16 372.25 16 372.25 8 Z "/>
<path id="p520" fill="rgb(0,0,255)" d="M 376 11.75 L 384 11.75 384 12.25 376 12.25 Z "/>
<path id="p521" fill="rgb(0,0,255)" d="M 379.75 8 L 379.75 16 380.25 16 380.25 8 Z "/>
<path id="p522" fill="rgb(0,0,255)" d="M 352 23.75 L 368 23.75 368 24.25 352 24.25 Z "/>
<path id="p523" fill="rgb(0,0,255)" d="M 359.75 16 L 359.75 32 360.25 32 360.25 16 Z "/>
<path id="p524" fill="rgb(0,0,255)" d="M 352 19.75 L 360 19.75 360 20.25 352 20.25 Z "/>
<path id="p525" fill="rgb(0,0,255)" d="M 355.75 16 L 355.75 24 356.25 24 356.25 16 Z "/>
<path id="p526" fill="rgb(0,0,255)" d="M 360 19.75 L 368 19.75 368 20.25 360 20.25 Z "/>
<path id="p527" fill="rgb(0,0,255)" d="M 363.75 16 L 363.75 24 364.25 24 364.25 16 Z "/>
<path id="p528" fill="rgb(0,0,255)" d="M 352 27.75 L 360 27.75 360 28.25 352 28.25 Z "/>
<path id="p529" fill="rgb(0,0,255)" d="M 355.75 24 L 355.75 32 356.25 32 356.25 24 Z "/>
<path id="p530" fill="rgb(0,0,255)" d="M 360 27.75 L 368 27.75 368 28.25 360 28.25 Z "/>
<path id="p531" fill="rgb(0,0,255)" d="M 363.75 24 L 363.75 32 364.25 32 364.25 24 Z "/>
<path id="p532" fill="rgb(0,0,255)" d="M 368 23.75 L 384 23.75 384 24.25 368 24.25 Z "/>
<path id="p533" fill="rgb(0,0,255)" d="M 375.75 16 L 375.75 32 376.25 32 376.25 16 Z "/>
<path id="p534" fill="rgb(0,0,255)" d="M 376 27.75 L 384 27.75 384 28.25 376 28.25 Z "/>
<path id="p535" fill="rgb(0,0,255)" d="M 379.75 24 L 379.75 32 380.25 32 380.25 24 Z "/>
<path id="p536" fill="rgb(0,0,255)" d="M 320 47.75 L 352 47.75 352 48.25 320 48.25 Z "/>
<path id="p537" fill="rgb(0,0,255)" d="M 335.75 32 L 335.75 64 336.25 64 336.25 32 Z "/>
<path id="p538" fill="rgb(0,0,255)" d="M 320 39.75 L 336 39.75 336 40.25 320 40.25 Z "/>
<path id="p539" fill="rgb(0,0,255)" d="M 327.75 32 L 327.75 48 328.25 48 328.25 32 Z "/>
<path id="p540" fill="rgb(0,0,255)" d="M 320 35.75 L 328 35.75 328 36.25 320 36.25 Z "/>
<path id="p541" fill="rgb(0,0,255)" d="M 323.75 32 L 323.75 40 324.25 40 324.25 32 Z "/>
<path id="p542" fill="rgb(0,0,255)" d="M 328 35.75 L 336 35.75 336 36.25 328 36.25 Z "/>
<path id="p543" fill="rgb(0,0,255)" d="M 331.75 32 L 331.75 40 332.25 40 332.25 32 Z "/>
<path id="p544" fill="rgb(0,0,255)" d="M 328 43.75 L 336 43.75 336 44.25 328 44.25 Z "/>
<path id="p545" fill="rgb(0,0,255)" d="M 331.75 40 L 331.75 48 332.25 48 332.25 40 Z "/>
<path id="p546" fill="rgb(0,0,255)" d="M 336 39.75 L 352 39.75 352 40.25 336 40.25 Z "/>
<path id="p547" fill="rgb(0,0,255)" d="M 343.75 32 L 343.75 48 344.25 48 344.25 32 Z "/>
<path id="p548" fill="rgb(0,0,255)" d="M 344 35.75 L 352 35.75 352 36.25 344 36.25 Z "/>
<path id="p549" fill="rgb(0,0,255)" d="M 347.75 32 L 347.75 40 348.25 40 348.25 32 Z "/>
<path id="p550" fill="rgb(0,0,255)" d="M 336 43.75 L 344 43.75 344 44.25 336 44.25 Z "/>
<path id="p551" fill="rgb(0,0,255)" d="M 339.75 40 L 339.75 48 340.25 48 340.25 40 Z "/>
<path id="p552" fill="rgb(0,0,255)" d="M 344 43.75 L 352 43.75 352 44.25 344 44.25 Z "/>
<path id="p553" fill="rgb(0,0,255)" d="M 347.75 40 L 347.75 48 348.25 48 348.25 40 Z "/>
<path id="p554" fill="rgb(0,0,255)" d="M 352 47.75 L 384 47.75 384 48.25 352 48.25 Z "/>
<path id="p555" fill="rgb(0,0,255)" d="M 367.75 32 L 367.75 64 368.25 64 368.25 32 Z "/>
<path id="p556" fill="rgb(0,0,255)" d="M 352 39.75 L 368 39.75 368 40.25 352 40.25 Z "/>
<path id="p557" fill="rgb(0,0,255)" d="M 359.75 32 L 359.75 48 360.25 48 360.25 32 Z "/>
<path id="p558" fill="rgb(0,0,255)" d="M 352 35.75 L 360 35.75 360 36.25 352 36.25 Z "/>
<path id="p559" fill="rgb(0,0,255)" d="M 355.75 32 L 355.75 40 356.25 40 356.25 32 Z "/>
<path id="p560" fill="rgb(0,0,255)" d="M 352 43.75 L 360 43.75 360 44.25 352 44.25 Z "/>
<path id="p561" fill="rgb(0,0,255)" d="M 355.75 40 L 355.75 48 356.25 48 356.25 40 Z "/>
<path id="p562" fill="rgb(0,0,255)" d="M 360 43.75 L 368 43.75 368 44.25 360 44.25 Z "/>
<path id="p563" fill="rgb(0,0,255)" d="M 363.75 40 L 363.75 48 364.25 48 364.25 40 Z "/>
<path id="p564" fill="rgb(0,0,255)" d="M 368 39.75 L 384 39.75 384 40.25 368 40.25 Z "/>
<path id="p565" fill="rgb(0,0,255)" d="M 375.75 32 L 375.75 48 376.25 48 376.25 32 Z "/>
<path id="p566" fill="rgb(0,0,255)" d="M 368 35.75 L 376 35.75 376 36.25 368 36.25 Z "/>
<path id="p567" fill="rgb(0,0,255)" d="M 371.75 32 L 371.75 40 372.25 40 372.25 32 Z "/>
<path id="p568" fill="rgb(0,0,255)" d="M 376 35.75 L 384 35.75 384 36.25 376 36.25 Z "/>
<path id="p569" fill="rgb(0,0,255)" d="M 379.75 32 L 379.75 40 380.25 40 380.25 32 Z "/>
<path id="p570" fill="rgb(0,0,255)" d="M 368 43.75 L 376 43.75 376 44.25 368 44.25 Z "/>
<path id="p571" fill="rgb(0,0,255)" d="M 371.75 40 L 371.75 48 372.25 48 372.25 40 Z "/>
<path id="p572" fill="rgb(0,0,255)" d="M 376 43.75 L 384 43.75 384 44.25 376 44.25 Z "/>
<path id="p573" fill="rgb(0,0,255)" d="M 379.75 40 L 379.75 48 380.25 48 380.25 40 Z "/>
<path id="p574" fill="rgb(0,0,255)" d="M 384 63.75 L 512 63.75 512 64.25 384 64.25 Z "/>
<path id="p575" fill="rgb(0,0,255)" d="M 447.75 0 L 447.75 128 448.25 128 448.25 0 Z "/>
<path id="p576" fill="rgb(0,0,255)" d="M 384 31.75 L 448 31.75 448 32.25 384 32.25 Z "/>
<path id="p577" fill="rgb(0,0,255)" d="M 415.75 0 L 415.75 64 416.25 64 416.25 0 Z "/>
<path id="p578" fill="rgb(0,0,255)" d="M 384 15.75 L 416 15.75 416 16.25 384 16.25 Z "/>
<path id="p579" fill="rgb(0,0,255)" d="M 399.75 0 L 399.75 32 400.25 32 400.25 0 Z "/>
<path id="p580" fill="rgb(0,0,255)" d="M 384 7.75 L 400 7.75 400 8.25 384 8.25 Z "/>
<path id="p581" fill="rgb(0,0,255)" d="M 391.75 0 L 391.75 16 392.25 16 392.25 0 Z "/>
<path id="p582" fill="rgb(0,0,255)" d="M 384 3.75 L 392 3.75 392 4.25 384 4.25 Z "/>
<path id="p583" fill="rgb(0,0,255)" d="M 387.75 0 L 387.75 8 388.25 8 388.25 0 Z "/>
<path id="p584" fill="rgb(0,0,255)" d="M 400 7.75 L 416 7.75 416 8.25 400 8.25 Z "/>
<path id="p585" fill="rgb(0,0,255)" d="M 407.75 0 L 407.75 16 408.25 16 408.25 0 Z "/>
<path id="p586" fill="rgb(0,0,255)" d="M 400 3.75 L 408 3.75 408 4.25 400 4.25 Z "/>
<path id="p587" fill="rgb(0,0,255)" d="M 403.75 0 L 403.75 8 404.25 8 404.25 0 Z "/>
<path id="p588" fill="rgb(0,0,255)" d="M 408 3.75 L 416 3.75 416 4.25 408 4.25 Z "/>
<path id="p589" fill="rgb(0,0,255)" d="M 411.75 0 L 411.75 8 412.25 8 412.25 0 Z "/>
<path id="p590" fill="rgb(0,0,255)" d="M 408 11.75 L 416 11.75 416 12.25 408 12.25 Z "/>
<path id="p591" fill="rgb(0,0,255)" d="M 411.75 8 L 411.75 16 412.25 16 412.25 8 Z "/>
<path id="p592" fill="rgb(0,0,255)" d="M 416 15.75 L 448 15.75 448 16.25 416 16.25 Z "/>
<path id="p593" fill="rgb(0,0,255)" d="M 431.75 0 L 431.75 32 432.25 32 432.25 0 Z "/>
<path id="p594" fill="rgb(0,0,255)" d="M 416 7.75 L 432 7.75 432 8.25 416 8.25 Z "/>
<path id="p595" fill="rgb(0,0,255)" d="M 423.75 0 L 423.75 16 424.25 16 424.25 0 Z "/>
<path id="p596" fill="rgb(0,0,255)" d="M 416 3.75 L 424 3.75 424 4.25 416 4.25 Z "/>
<path id="p597" fill="rgb(0,0,255)" d="M 419.75 0 L 419.75 8 420.25 8 420.25 0 Z "/>
<path id="p598" fill="rgb(0,0,255)" d="M 416 11.75 L 424 11.75 424 12.25 416 12.25 Z "/>
<path id="p599" fill="rgb(0,0,255)" d="M 419.75 8 L 419.75 16 420.25 16 420.25 8 Z "/>
<path id="p600" fill="rgb(0,0,255)" d="M 424 11.75 L 432 11.75 432 12.25 424 12.25 Z "/>
<path id="p601" fill="rgb(0,0,255)" d="M 427.75 8 L 427.75 16 428.25 16 428.25 8 Z "/>
<path id="p602" fill="rgb(0,0,255)" d="M 432 7.75 L 448 7.75 448 8.25 432 8.25 Z "/>
<path id="p603" fill="rgb(0,0,255)" d="M 439.75 0 L 439.75 16 440.25 16 440.25 0 Z "/>
<path id="p604" fill="rgb(0,0,255)" d="M 432 3.75 L 440 3.75 440 4.25 432 4.25 Z "/>
<path id="p605" fill="rgb(0,0,255)" d="M 435.75 0 L 435.75 8 436.25 8 436.25 0 Z "/>
<path id="p606" fill="rgb(0,0,255)" d="M 440 3.75 L 448 3.75 448 4.25 440 4.25 Z "/>
<path id="p607" fill="rgb(0,0,255)" d="M 443.75 0 L 443.75 8 444.25 8 444.25 0 Z "/>
<path id="p608" fill="rgb(0,0,255)" d="M 432 11.75 L 440 11.75 440 12.25 432 12.25 Z "/>
<path id="p609" fill="rgb(0,0,255)" d="M 435.75 8 L 435.75 16 436.25 16 436.25 8 Z "/>
<path id="p610" fill="rgb(0,0,255)" d="M 416 23.75 L 432 23.75 432 24.25 416 24.25 Z "/>
<path id="p611" fill="rgb(0,0,255)" d="M 423.75 16 L 423.75 32 424.25 32 424.25 16 Z "/>
<path id="p612" fill="rgb(0,0,255)" d="M 424 19.75 L 432 19.75 432 20.25 424 20.25 Z "/>
<path id="p613" fill="rgb(0,0,255)" d="M 427.75 16 L 427.75 24 428.25 24 428.25 16 Z "/>
<path id="p614" fill="rgb(0,0,255)" d="M 424 27.75 L 432 27.75 432 28.25 424 28.25 Z "/>
<path id="p615" fill="rgb(0,0,255)" d="M 427.75 24 L 427.75 32 428.25 32 428.25 24 Z "/>
<path id="p616" fill="rgb(0,0,255)" d="M 432 23.75 L 448 23.75 448 24.25 432 24.25 Z "/>
<path id="p617" fill="rgb(0,0,255)" d="M 439.75 16 L 439.75 32 440.25 32 440.25 16 Z "/>
<path id="p618" fill="rgb(0,0,255)" d="M 432 19.75 L 440 19.75 440 20.25 432 20.25 Z "/>
<path id="p619" fill="rgb(0,0,255)" d="M 435.75 16 L 435.75 24 436.25 24 436.25 16 Z "/>
<path id="p620" fill="rgb(0,0,255)" d="M 432 27.75 L 440 27.75 440 28.25 432 28.25 Z "/>
<path id="p621" fill="rgb(0,0,255)" d="M 435.75 24 L 435.75 32 436.25 32 436.25 24 Z "/>
<path id="p622" fill="rgb(0,0,255)" d="M 384 47.75 L 416 47.75 416 48.25 384 48.25 Z "/>
<path id="p623" fill="rgb(0,0,255)" d="M 399.75 32 L 399.75 64 400.25 64 400.25 32 Z "/>
<path id="p624" fill="rgb(0,0,255)" d="M 384 39.75 L 400 39.75 400 40.25 384 40.25 Z "/>
<path id="p625" fill="rgb(0,0,255)" d="M 391.75 32 L 391.75 48 392.25 48 392.25 32 Z "/>
<path id="p626" fill="rgb(0,0,255)" d="M 384 35.75 L 392 35.75 392 36.25 384 36.25 Z "/>
<path id="p627" fill="rgb(0,0,255)" d="M 387.75 32 L 387.75 40 388.25 40 388.25 32 Z "/>
<path id="p628" fill="rgb(0,0,255)" d="M 392 35.75 L 400 35.75 400 36.25 392 36.25 Z "/>
<path id="p629" fill="rgb(0,0,255)" d="M 395.75 32 L 395.75 40 396.25 40 396.25 32 Z "/>
<path id="p630" fill="rgb(0,0,255)" d="M 384 43.75 L 392 43.75 392 44.25 384 44.25 Z "/>
<path id="p631" fill="rgb(0,0,255)" d="M 387.75 40 L 387.75 48 388.25 48 388.25 40 Z "/>
<path id="p632" fill="rgb(0,0,255)" d="M 392 43.75 L 400 43.75 400 44.25 392 44.25 Z "/>
<path id="p633" fill="rgb(0,0,255)" d="M 395.75 40 L 395.75 48 396.25 48 396.25 40 Z "/>
<path id="p634" fill="rgb(0,0,255)" d="M 400 55.75 L 416 55.75 416 56.25 400 56.25 Z "/>
<path id="p635" fill="rgb(0,0,255)" d="M 407.75 48 L 407.75 64 408.25 64 408.25 48 Z "/>
<path id="p636" fill="rgb(0,0,255)" d="M 400 59.75 L 408 59.75 408 60.25 400 60.25 Z "/>
<path id="p637" fill="rgb(0,0,255)" d="M 403.75 56 L 403.75 64 404.25 64 404.25 56 Z "/>
<path id="p638" fill="rgb(0,0,255)" d="M 408 59.75 L 416 59.75 416 60.25 408 60.25 Z "/>
<path id="p639" fill="rgb(0,0,255)" d="M 411.75 56 L 411.75 64 412.25 64 412.25 56 Z "/>
<path id="p640" fill="rgb(0,0,255)" d="M 416 47.75 L 448 47.75 448 48.25 416 48.25 Z "/>
<path id="p641" fill="rgb(0,0,255)" d="M 431.75 32 L 431.75 64 432.25 64 432.25 32 Z "/>
<path id="p642" fill="rgb(0,0,255)" d="M 416 39.75 L 432 39.75 432 40.25 416 40.25 Z "/>
<path id="p643" fill="rgb(0,0,255)" d="M 423.75 32 L 423.75 48 424.25 48 424.25 32 Z "/>
<path id="p644" fill="rgb(0,0,255)" d="M 424 35.75 L 432 35.75 432 36.25 424 36.25 Z "/>
<path id="p645" fill="rgb(0,0,255)" d="M 427.75 32 L 427.75 40 428.25 40 428.25 32 Z "/>
<path id="p646" fill="rgb(0,0,255)" d="M 432 39.75 L 448 39.75 448 40.25 432 40.25 Z "/>
<path id="p647" fill="rgb(0,0,255)" d="M 439.75 32 L 439.75 48 440.25 48 440.25 32 Z "/>
<path id="p648" fill="rgb(0,0,255)" d="M 432 35.75 L 440 35.75 440 36.25 432 36.25 Z "/>
<path id="p649" fill="rgb(0,0,255)" d="M 435.75 32 L 435.75 40 436.25 40 436.25 32 Z "/>
<path id="p650" fill="rgb(0,0,255)" d="M 440 35.75 L 448 35.75 448 36.25 440 36.25 Z "/>
<path id="p651" fill="rgb(0,0,255)" d="M 443.75 32 L 443.75 40 444.25 40 444.25 32 Z "/>
<path id="p652" fill="rgb(0,0,255)" d="M 432 43.75 L 440 43.75 440 44.25 432 44.25 Z "/>
<path id="p653" fill="rgb(0,0,255)" d="M 435.75 40 L 435.75 48 436.25 48 436.25 40 Z "/>
<path id="p654" fill="rgb(0,0,255)" d="M 440 43.75 L 448 43.75 448 44.25 440 44.25 Z "/>
<path id="p655" fill="rgb(0,0,255)" d="M 443.75 40 L 443.75 48 444.25 48 444.25 40 Z "/>
<path id="p656" fill="rgb(0,0,255)" d="M 448 31.75 L 512 31.75 512 32.25 448 32.25 Z "/>
<path id="p657" fill="rgb(0,0,255)" d="M 479.75 0 L 479.75 64 480.25 64 480.25 0 Z "/>
<path id="p658" fill="rgb(0,0,255)" d="M 448 15.75 L 480 15.75 480 16.25 448 16.25 Z "/>
<path id="p659" fill="rgb(0,0,255)" d="M 463.75 0 L 463.75 32 464.25 32 464.25 0 Z "/>
<path id="p660" fill="rgb(0,0,255)" d="M 448 7.75 L 464 7.75 464 8.25 448 8.25 Z "/>
<path id="p661" fill="rgb(0,0,255)" d="M 455.75 0 L 455.75 16 456.25 16 456.25 0 Z "/>
<path id="p662" fill="rgb(0,0,255)" d="M 448 3.75 L 456 3.75 456 4.25 448 4.25 Z "/>
<path id="p663" fill="rgb(0,0,255)" d="M 451.75 0 L 451.75 8 452.25 8 452.25 0 Z "/>
<path id="p664" fill="rgb(0,0,255)" d="M 456 3.75 L 464 3.75 464 4.25 456 4.25 Z "/>
<path id="p665" fill="rgb(0,0,255)" d="M 459.75 0 L 459.75 8 460.25 8 460.25 0 Z "/>
<path id="p666" fill="rgb(0,0,255)" d="M 448 11.75 L 456 11.75 456 12.25 448 12.25 Z "/>
<path id="p667" fill="rgb(0,0,255)" d="M 451.75 8 L 451.75 16 452.25 16 452.25 8 Z "/>
<path id="p668" fill="rgb(0,0,255)" d="M 456 11.75 L 464 11.75 464 12.25 456 12.25 Z "/>
<path id="p669" fill="rgb(0,0,255)" d="M 459.75 8 L 459.75 16 460.25 16 460.25 8 Z "/>
<path id="p670" fill="rgb(0,0,255)" d="M 464 7.75 L 480 7.75 480 8.25 464 8.25 Z "/>
<path id="p671" fill="rgb(0,0,255)" d="M 471.75 0 L 471.75 16 472.25 16 472.25 0 Z "/>
<path id="p672" fill="rgb(0,0,255)" d="M 464 3.75 L 472 3.75 472 4.25 464 4.25 Z "/>
<path id="p673" fill="rgb(0,0,255)" d="M 467.75 0 L 467.75 8 468.25 8 468.25 0 Z "/>
<path id="p674" fill="rgb(0,0,255)" d="M 464 11.75 L 472 11.75 472 12.25 464 12.25 Z "/>
<path id="p675" fill="rgb(0,0,255)" d="M 467.75 8 L 467.75 16 468.25 16 468.25 8 Z "/>
<path id="p676" fill="rgb(0,0,255)" d="M 480 15.75 L 512 15.75 512 16.25 480 16.25 Z "/>
<path id="p677" fill="rgb(0,0,255)" d="M 495.75 0 L 495.75 32 496.25 32 496.25 0 Z "/>
<path id="p678" fill="rgb(0,0,255)" d="M 480 7.75 L 496 7.75 496 8.25 480 8.25 Z "/>
<path id="p679" fill="rgb(0,0,255)" d="M 487.75 0 L 487.75 16 488.25 16 488.25 0 Z "/>
<path id="p680" fill="rgb(0,0,255)" d="M 480 3.75 L 488 3.75 488 4.25 480 4.25 Z "/>
<path id="p681" fill="rgb(0,0,255)" d="M 483.75 0 L 483.75 8 484.25 8 484.25 0 Z "/>
<path id="p682" fill="rgb(0,0,255)" d="M 488 3.75 L 496 3.75 496 4.25 488 4.25 Z "/>
<path id="p683" fill="rgb(0,0,255)" d="M 491.75 0 L 491.75 8 492.25 8 492.25 0 Z "/>
<path id="p684" fill="rgb(0,0,255)" d="M 480 11.75 L 488 11.75 488 12.25 480 12.25 Z "/>
<path id="p685" fill="rgb(0,0,255)" d="M 483.75 8 L 483.75 16 484.25 16 484.25 8 Z "/>
<path id="p686" fill="rgb(0,0,255)" d="M 488 11.75 L 496 11.75 496 12.25 488 12.25 Z "/>
<path id="p687" fill="rgb(0,0,255)" d="M 491.75 8 L 491.75 16 492.25 16 492.25 8 Z "/>
<path id="p688" fill="rgb(0,0,255)" d="M 480 23.75 L 496 23.75 496 24.25 480 24.25 Z "/>
<path id="p689" fill="rgb(0,0,255)" d="M 487.75 16 L 487.75 32 488.25 32 488.25 16 Z "/>
<path id="p690" fill="rgb(0,0,255)" d="M 480 19.75 L 488 19.75 488 20.25 480 20.25 Z "/>
<path id="p691" fill="rgb(0,0,255)" d="M 483.75 16 L 483.75 24 484.25 24 484.25 16 Z "/>
<path id="p692" fill="rgb(0,0,255)" d="M 480 27.75 L 488 27.75 488 28.25 480 28.25 Z "/>
<path id="p693" fill="rgb(0,0,255)" d="M 483.75 24 L 483.75 32 484.25 32 484.25 24 Z "/>
<path id="p694" fill="rgb(0,0,255)" d="M 488 27.75 L 496 27.75 496 28.25 488 28.25 Z "/>
<path id="p695" fill="rgb(0,0,255)" d="M 491.75 24 L 491.75 32 492.25 32 492.25 24 Z "/>
<path id="p696" fill="rgb(0,0,255)" d="M 448 47.75 L 480 47.75 480 48.25 448 48.25 Z "/>
<path id="p697" fill="rgb(0,0,255)" d="M 463.75 32 L 463.75 64 464.25 64 464.25 32 Z "/>
<path id="p698" fill="rgb(0,0,255)" d="M 448 39.75 L 464 39.75 464 40.25 448 40.25 Z "/>
<path id="p699" fill="rgb(0,0,255)" d="M 455.75 32 L 455.75 48 456.25 48 456.25 32 Z "/>
<path id="p700" fill="rgb(0,0,255)" d="M 448 35.75 L 456 35.75 456 36.25 448 36.25 Z "/>
<path id="p701" fill="rgb(0,0,255)" d="M 451.75 32 L 451.75 40 452.25 40 452.25 32 Z "/>
<path id="p702" fill="rgb(0,0,255)" d="M 456 35.75 L 464 35.75 464 36.25 456 36.25 Z "/>
<path id="p703" fill="rgb(0,0,255)" d="M 459.75 32 L 459.75 40 460.25 40 460.25 32 Z "/>
<path id="p704" fill="rgb(0,0,255)" d="M 448 43.75 L 456 43.75 456 44.25 448 44.25 Z "/>
<path id="p705" fill="rgb(0,0,255)" d="M 451.75 40 L 451.75 48 452.25 48 452.25 40 Z "/>
<path id="p706" fill="rgb(0,0,255)" d="M 456 43.75 L 464 43.75 464 44.25 456 44.25 Z "/>
<path id="p707" fill="rgb(0,0,255)" d="M 459.75 40 L 459.75 48 460.25 48 460.25 40 Z "/>
<path id="p708" fill="rgb(0,0,255)" d="M 448 55.75 L 464 55.75 464 56.25 448 56.25 Z "/>
<path id="p709" fill="rgb(0,0,255)" d="M 455.75 48 L 455.75 64 456.25 64 456.25 48 Z "/>
<path id="p710" fill="rgb(0,0,255)" d="M 448 59.75 L 456 59.75 456 60.25 448 60.25 Z "/>
<path id="p711" fill="rgb(0,0,255)" d="M 451.75 56 L 451.75 64 452.25 64 452.25 56 Z "/>
<path id="p712" fill="rgb(0,0,255)" d="M 456 59.75 L 464 59.75 464 60.25 456 60.25 Z "/>
<path id="p713" fill="rgb(0,0,255)" d="M 459.75 56 L 459.75 64 460.25 64 460.25 56 Z "/>
<path id="p714" fill="rgb(0,0,255)" d="M 480 47.75 L 512 47.75 512 48.25 480 48.25 Z "/>
<path id="p715" fill="rgb(0,0,255)" d="M 495.75 32 L 495.75 64 496.25 64 496.25 32 Z "/>
<path id="p716" fill="rgb(0,0,255)" d="M 480 39.75 L 496 39.75 496 40.25 480 40.25 Z "/>
<path id="p717" fill="rgb(0,0,255)" d="M 487.75 32 L 487.75 48 488.25 48 488.25 32 Z "/>
<path id="p718" fill="rgb(0,0,255)" d="M 480 35.75 L 488 35.75 488 36.25 480 36.25 Z "/>
<path id="p719" fill="rgb(0,0,255)" d="M 483.75 32 L 483.75 40 484.25 40 484.25 32 Z "/>
<path id="p720" fill="rgb(0,0,255)" d="M 488 35.75 L 496 35.75 496 36.25 488 36.25 Z "/>
<path id="p721" fill="rgb(0,0,255)" d="M 491.75 32 L 491.75 40 492.25 40 492.25 32 Z "/>
<path id="p722" fill="rgb(0,0,255)" d="M 480 43.75 L 488 43.75 488 44.25 480 44.25 Z "/>
<path id="p723" fill="rgb(0,0,255)" d="M 483.75 40 L 483.75 48 484.25 48 484.25 40 Z "/>
<path id="p724" fill="rgb(0,0,255)" d="M 488 43.75 L 496 43.75 496 44.25 488 44.25 Z "/>
<path id="p725" fill="rgb(0,0,255)" d="M 491.75 40 L 491.75 48 492.25 48 492.25 40 Z "/>
<path id="p726" fill="rgb(0,0,255)" d="M 480 55.75 L 496 55.75 496 56.25 480 56.25 Z "/>
<path id="p727" fill="rgb(0,0,255)" d="M 487.75 48 L 487.75 64 488.25 64 488.25 48 Z "/>
<path id="p728" fill="rgb(0,0,255)" d="M 480 51.75 L 488 51.75 488 52.25 480 52.25 Z "/>
<path id="p729" fill="rgb(0,0,255)" d="M 483.75 48 L 483.75 56 484.25 56 484.25 48 Z "/>
<path id="p730" fill="rgb(0,0,255)" d="M 488 51.75 L 496 51.75 496 52.25 488 52.25 Z "/>
<path id="p731" fill="rgb(0,0,255)" d="M 491.75 48 L 491.75 56 492.25 56 492.25 48 Z "/>
<path id="p732" fill="rgb(0,0,255)" d="M 480 59.75 L 488 59.75 488 60.25 480 60.25 Z "/>
<path id="p733" fill="rgb(0,0,255)" d="M 483.75 56 L 483.75 64 484.25 64 484.25 56 Z "/>
<path id="p734" fill="rgb(0,0,255)" d="M 488 59.75 L 496 59.75 496 60.25 488 60.25 Z "/>
<path id="p735" fill="rgb(0,0,255)" d="M 491.75 56 L 491.75 64 492.25 64 492.25 56 Z "/>
<path id="p736" fill="rgb(0,0,255)" d="M 384 95.75 L 448 95.75 448 96.25 384 96.25 Z "/>
<path id="p737" fill="rgb(0,0,255)" d="M 415.75 64 L 415.75 128 416.25 128 416.25 64 Z "/>
<path id="p738" fill="rgb(0,0,255)" d="M 384 79.75 L 416 79.75 416 80.25 384 80.25 Z "/>
<path id="p739" fill="rgb(0,0,255)" d="M 399.75 64 L 399.75 96 400.25 96 400.25 64 Z "/>
<path id="p740" fill="rgb(0,0,255)" d="M 400 71.75 L 416 71.75 416 72.25 400 72.25 Z "/>
<path id="p741" fill="rgb(0,0,255)" d="M 407.75 64 L 407.75 80 408.25 80 408.25 64 Z "/>
<path id="p742" fill="rgb(0,0,255)" d="M 400 67.75 L 408 67.75 408 68.25 400 68.25 Z "/>
<path id="p743" fill="rgb(0,0,255)" d="M 403.75 64 L 403.75 72 404.25 72 404.25 64 Z "/>
<path id="p744" fill="rgb(0,0,255)" d="M 408 67.75 L 416 67.75 416 68.25 408 68.25 Z "/>
<path id="p745" fill="rgb(0,0,255)" d="M 411.75 64 L 411.75 72 412.25 72 412.25 64 Z "/>
<path id="p746" fill="rgb(0,0,255)" d="M 448 95.75 L 512 95.75 512 96.25 448 96.25 Z "/>
<path id="p747" fill="rgb(0,0,255)" d="M 479.75 64 L 479.75 128 480.25 128 480.25 64 Z "/>
<path id="p748" fill="rgb(0,0,255)" d="M 448 79.75 L 480 79.75 480 80.25 448 80.25 Z "/>
<path id="p749" fill="rgb(0,0,255)" d="M 463.75 64 L 463.75 96 464.25 96 464.25 64 Z "/>
<path id="p750" fill="rgb(0,0,255)" d="M 448 71.75 L 464 71.75 464 72.25 448 72.25 Z "/>
<path id="p751" fill="rgb(0,0,255)" d="M 455.75 64 L 455.75 80 456.25 80 456.25 64 Z "/>
<path id="p752" fill="rgb(0,0,255)" d="M 448 67.75 L 456 67.75 456 68.25 448 68.25 Z "/>
<path id="p753" fill="rgb(0,0,255)" d="M 451.75 64 L 451.75 72 452.25 72 452.25 64 Z "/>
<path id="p754" fill="rgb(0,0,255)" d="M 456 67.75 L 464 67.75 464 68.25 456 68.25 Z "/>
<path id="p755" fill="rgb(0,0,255)" d="M 459.75 64 L 459.75 72 460.25 72 460.25 64 Z "/>
<path id="p756" fill="rgb(0,0,255)" d="M 464 71.75 L 480 71.75 480 72.25 464 72.25 Z "/>
<path id="p757" fill="rgb(0,0,255)" d="M 471.75 64 L 471.75 80 472.25 80 472.25 64 Z "/>
<path id="p758" fill="rgb(0,0,255)" d="M 464 67.75 L 472 67.75 472 68.25 464 68.25 Z "/>
<path id="p759" fill="rgb(0,0,255)" d="M 467.75 64 L 467.75 72 468.25 72 468.25 64 Z "/>
<path id="p760" fill="rgb(0,0,255)" d="M 480 79.75 L 512 79.75 512 80.25 480 80.25 Z "/>
<path id="p761" fill="rgb(0,0,255)" d="M 495.75 64 L 495.75 96 496.25 96 496.25 64 Z "/>
<path id="p762" fill="rgb(0,0,255)" d="M 480 71.75 L 496 71.75 496 72.25 480 72.25 Z "/>
<path id="p763" fill="rgb(0,0,255)" d="M 487.75 64 L 487.75 80 488.25 80 488.25 64 Z "/>
<path id="p764" fill="rgb(0,0,255)" d="M 480 67.75 L 488 67.75 488 68.25 480 68.25 Z "/>
<path id="p765" fill="rgb(0,0,255)" d="M 483.75 64 L 483.75 72 484.25 72 484.25 64 Z "/>
<path id="p766" fill="rgb(0,0,255)" d="M 488 67.75 L 496 67.75 496 68.25 488 68.25 Z "/>
<path id="p767" fill="rgb(0,0,255)" d="M 491.75 64 L 491.75 72 492.25 72 492.25 64 Z "/>
</g>
</svg>
