<?xml version="1.0" standalone="no"?>
<svg
    xmlns:xlink="http://www.w3.org/1999/xlink"
    xmlns:dc="http://purl.org/dc/elements/1.1/"
    xmlns:cc="http://creativecommons.org/ns#"
    xmlns:rdf="http://www.w3.org/1999/02/22-rdf-syntax-ns#"
    xmlns:svg="http://www.w3.org/2000/svg"
    xmlns="http://www.w3.org/2000/svg"
    version="1.1"
    viewBox="0 0 512 73">
<defs>
</defs>
<g transform="translate(0, 73) scale(1, -1)">
<path id="p1" fill="rgb(0,0,0)" d="M 43.112956928 38.204884135088 L 71.696288768 38.204884135088 71.696288768 55.962889236842 Q 71.696288768 60.722766892982 71.106473984 62.233112687719 70.652770304 63.377314047368 69.200918528 64.201139026316 67.249992704 65.299572331579 65.07221504 65.299572331579 L 62.894437376 65.299572331579 62.894437376 66.99299034386 89.209250816 66.99299034386 89.209250816 65.299572331579 87.031473152 65.299572331579 Q 84.853695488 65.299572331579 82.902769664 64.246907080702 81.450917888 63.514618210526 80.906473472 62.004272415789 80.407399424 60.539694675439 80.407399424 55.962889236842 L 80.407399424 15.915841649123 Q 80.407399424 11.201732047368 80.997214208 9.6913862526316 81.450917888 8.5471848929825 82.857399296 7.7233599140351 84.853695488 6.6249266087719 87.031473152 6.6249266087719 L 89.209250816 6.6249266087719 89.209250816 4.9315085964912 62.894437376 4.9315085964912 62.894437376 6.6249266087719 65.07221504 6.6249266087719 Q 68.837955584 6.6249266087719 70.562029568 8.8675612736842 71.696288768 10.332139014035 71.696288768 15.915841649123 L 71.696288768 34.818048110526 43.112956928 34.818048110526 43.112956928 15.915841649123 Q 43.112956928 11.201732047368 43.702771712 9.6913862526316 44.156475392 8.5471848929825 45.608327168 7.7233599140351 47.559252992 6.6249266087719 49.737030656 6.6249266087719 L 51.960178688 6.6249266087719 51.960178688 4.9315085964912 25.59999488 4.9315085964912 25.59999488 6.6249266087719 27.777772544 6.6249266087719 Q 31.588883456 6.6249266087719 33.31295744 8.8675612736842 34.401846272 10.332139014035 34.401846272 15.915841649123 L 34.401846272 55.962889236842 Q 34.401846272 60.722766892982 33.812031488 62.233112687719 33.358327808 63.377314047368 31.9518464 64.201139026316 29.955550208 65.299572331579 27.777772544 65.299572331579 L 25.59999488 65.299572331579 25.59999488 66.99299034386 51.960178688 66.99299034386 51.960178688 65.299572331579 49.737030656 65.299572331579 Q 47.559252992 65.299572331579 45.608327168 64.246907080702 44.20184576 63.514618210526 43.657401344 62.004272415789 43.112956928 60.539694675439 43.112956928 55.962889236842 L 43.112956928 38.204884135088 Z "/>
<path id="p2" fill="rgb(0,0,0)" d="M 101.005546496 31.065067650877 Q 101.00509728444 30.972625243999 101.00509728444 30.880577660058 101.00509728444 21.675819265954 105.497212928 16.419290247368 110.034249728 11.110195938596 116.159249408 11.110195938596 120.242582528 11.110195938596 123.237026816 13.352830603509 126.276841472 15.641233322807 128.318508032 21.133399849123 L 129.72498944 20.218038761404 Q 128.772211712 13.947815310526 124.189804544 8.7760251649123 119.607397376 3.6500030736842 112.71110144 3.6500030736842 105.22499072 3.6500030736842 99.871287296 9.5083140350877 94.56295424 15.412393050877 94.56295424 25.344060852632 94.56295424 36.099553633333 100.0073984 42.095168757895 105.497212928 48.136551936842 113.754619904 48.136551936842 120.741656576 48.136551936842 125.233323008 43.468210389474 129.72498944 38.845636896491 129.72498944 31.065067650877 L 101.005546496 31.065067650877 Z M 101.005546496 33.719614805263 L 120.242582528 33.719614805263 Q 120.015730688 37.747203591228 119.2898048 39.394853549123 118.1555456 41.957864594737 115.8870272 43.422442335088 113.663879168 44.887020075439 111.213879296 44.887020075439 107.448138752 44.887020075439 104.453694464 41.912096540351 101.504620544 38.982941059649 101.005546496 33.719614805263 Z "/>
<path id="p3" fill="rgb(0,0,0)" d="M 149.551840256 70.013681933333 L 149.551840256 14.405495854386 Q 149.551840256 10.469443177193 150.096284672 9.187937654386 150.686099456 7.9064321315789 151.865729024 7.2199113157895 153.045358592 6.579158554386 156.26665472 6.579158554386 L 156.26665472 4.9315085964912 135.895359488 4.9315085964912 135.895359488 6.579158554386 Q 138.753692672 6.579158554386 139.797211136 7.1741432614035 140.8407296 7.7691279684211 141.430544384 9.1421696 142.020359168 10.515211231579 142.020359168 14.405495854386 L 142.020359168 52.484517103509 Q 142.020359168 59.578565533333 141.702766592 61.180447436842 141.385174016 62.828097394737 140.659248128 63.423082101754 139.978692608 64.018066808772 138.889803776 64.018066808772 137.710174208 64.018066808772 135.895359488 63.285777938596 L 135.124063232 64.887659842105 147.510173696 70.013681933333 149.551840256 70.013681933333 Z "/>
<path id="p4" fill="rgb(0,0,0)" d="M 175.367579648 70.013681933333 L 175.367579648 14.405495854386 Q 175.367579648 10.469443177193 175.912024064 9.187937654386 176.501838848 7.9064321315789 177.681468416 7.2199113157895 178.861097984 6.579158554386 182.082394112 6.579158554386 L 182.082394112 4.9315085964912 161.71109888 4.9315085964912 161.71109888 6.579158554386 Q 164.569432064 6.579158554386 165.612950528 7.1741432614035 166.656468992 7.7691279684211 167.246283776 9.1421696 167.83609856 10.515211231579 167.83609856 14.405495854386 L 167.83609856 52.484517103509 Q 167.83609856 59.578565533333 167.518505984 61.180447436842 167.200913408 62.828097394737 166.47498752 63.423082101754 165.794432 64.018066808772 164.705543168 64.018066808772 163.5259136 64.018066808772 161.71109888 63.285777938596 L 160.939802624 64.887659842105 173.325913088 70.013681933333 175.367579648 70.013681933333 Z "/>
<path id="p5" fill="rgb(0,0,0)" d="M 207.217577984 48.090783882456 Q 216.654614528 48.090783882456 222.371280896 40.859431289474 227.225910272 34.680743947368 227.225910272 26.671334429825 227.225910272 21.041863740351 224.54905856 15.275088887719 221.872206848 9.5083140350877 217.153688576 6.579158554386 212.480540672 3.6500030736842 206.718503936 3.6500030736842 197.32683776 3.6500030736842 191.791652864 11.201732047368 187.11850496 17.563491607018 187.11850496 25.481365015789 187.11850496 31.248139868421 189.931467776 36.923378612281 192.78980096 42.644385410526 197.417578496 45.344700619298 202.045356032 48.090783882456 207.217577984 48.090783882456 Z M 205.811096576 45.115860347368 Q 203.406467072 45.115860347368 200.9564672 43.651282607018 198.551837696 42.232472921053 197.054615552 38.616796624561 195.557393408 35.00112032807 195.557393408 29.325881584211 195.557393408 20.172270707018 199.14165248 13.535902821053 202.77128192 6.8995349350877 208.66942976 6.8995349350877 213.070355456 6.8995349350877 215.92868864 10.560979285965 218.787021824 14.222423636842 218.787021824 23.147194242105 218.787021824 34.314599512281 214.023133184 40.722127126316 210.801837056 45.115860347368 205.811096576 45.115860347368 Z "/>
<path id="p6" fill="rgb(0,0,0)" d="M 254.2666496 46.855046414035 L 271.688870912 46.855046414035 271.688870912 45.161628401754 Q 269.284241408 44.978556184211 268.512945152 44.292035368421 267.787019264 43.605514552632 267.787019264 42.324009029825 267.787019264 40.90519934386 268.55831552 38.891404950877 L 277.450907648 14.771640289474 286.388870144 34.406135621053 284.029611008 40.584822963158 Q 282.940722176 43.330906226316 281.171277824 44.383571477193 280.173129728 45.024324238596 277.450907648 45.161628401754 L 277.450907648 46.855046414035 297.232388096 46.855046414035 297.232388096 45.161628401754 Q 293.9657216 45.024324238596 292.60461056 43.971658987719 291.6972032 43.239370117544 291.6972032 41.637488214035 291.6972032 40.722127126316 292.060166144 39.760997984211 L 301.497202688 15.687001377193 310.253683712 38.891404950877 Q 311.161091072 41.362879887719 311.161091072 42.82745762807 311.161091072 43.697050661404 310.253683712 44.383571477193 309.39164672 45.070092292982 306.805535744 45.161628401754 L 306.805535744 46.855046414035 319.917572096 46.855046414035 319.917572096 45.161628401754 Q 315.97035008 44.566643694737 314.110164992 39.760997984211 L 300.226832384 3.6500030736842 298.366647296 3.6500030736842 287.976833024 30.424314889474 275.862944768 3.6500030736842 274.184241152 3.6500030736842 260.84535296 38.891404950877 Q 259.529612288 42.232472921053 258.259241984 43.376674280702 256.98887168 44.566643694737 254.2666496 45.161628401754 L 254.2666496 46.855046414035 Z "/>
<path id="p7" fill="rgb(0,0,0)" d="M 344.009237504 48.090783882456 Q 353.446274048 48.090783882456 359.162940416 40.859431289474 364.017569792 34.680743947368 364.017569792 26.671334429825 364.017569792 21.041863740351 361.34071808 15.275088887719 358.663866368 9.5083140350877 353.945348096 6.579158554386 349.272200192 3.6500030736842 343.510163456 3.6500030736842 334.11849728 3.6500030736842 328.583312384 11.201732047368 323.91016448 17.563491607018 323.91016448 25.481365015789 323.91016448 31.248139868421 326.723127296 36.923378612281 329.58146048 42.644385410526 334.209238016 45.344700619298 338.837015552 48.090783882456 344.009237504 48.090783882456 Z M 342.602756096 45.115860347368 Q 340.198126592 45.115860347368 337.74812672 43.651282607018 335.343497216 42.232472921053 333.846275072 38.616796624561 332.349052928 35.00112032807 332.349052928 29.325881584211 332.349052928 20.172270707018 335.933312 13.535902821053 339.56294144 6.8995349350877 345.46108928 6.8995349350877 349.862014976 6.8995349350877 352.72034816 10.560979285965 355.578681344 14.222423636842 355.578681344 23.147194242105 355.578681344 34.314599512281 350.814792704 40.722127126316 347.593496576 45.115860347368 342.602756096 45.115860347368 Z "/>
<path id="p8" fill="rgb(0,0,0)" d="M 382.301828096 48.090783882456 L 382.301828096 38.662564678947 Q 387.519420416 48.090783882456 393.009234944 48.090783882456 395.504605184 48.090783882456 397.137938432 46.534670033333 398.77127168 45.024324238596 398.77127168 43.010529845614 398.77127168 41.225575724561 397.591642112 39.98983825614 396.412012544 38.754100787719 394.778679296 38.754100787719 393.190716416 38.754100787719 391.194420224 40.310214636842 389.2434944 41.912096540351 388.290716672 41.912096540351 387.474050048 41.912096540351 386.52127232 40.996735452632 384.47960576 39.120245222807 382.301828096 34.818048110526 L 382.301828096 14.725872235088 Q 382.301828096 11.247500101754 383.163865088 9.4625459807018 383.753679872 8.2268085122807 385.250902016 7.4029835333333 386.74812416 6.579158554386 389.561086976 6.579158554386 L 389.561086976 4.9315085964912 368.282384384 4.9315085964912 368.282384384 6.579158554386 Q 371.458310144 6.579158554386 373.000902656 7.5860557508772 374.135161856 8.3183446210526 374.588865536 9.9202265245614 374.815717376 10.698283449123 374.815717376 14.3597278 L 374.815717376 30.607387107018 Q 374.815717376 37.930275808772 374.4981248 39.303317440351 374.225902592 40.722127126316 373.409235968 41.362879887719 372.637939712 42.003632649123 371.458310144 42.003632649123 370.051828736 42.003632649123 368.282384384 41.317111833333 L 367.828680704 42.964761791228 380.39627264 48.090783882456 382.301828096 48.090783882456 Z "/>
<path id="p9" fill="rgb(0,0,0)" d="M 415.376826368 70.013681933333 L 415.376826368 14.405495854386 Q 415.376826368 10.469443177193 415.921270784 9.187937654386 416.511085568 7.9064321315789 417.690715136 7.2199113157895 418.870344704 6.579158554386 422.091640832 6.579158554386 L 422.091640832 4.9315085964912 401.7203456 4.9315085964912 401.7203456 6.579158554386 Q 404.578678784 6.579158554386 405.622197248 7.1741432614035 406.665715712 7.7691279684211 407.255530496 9.1421696 407.84534528 10.515211231579 407.84534528 14.405495854386 L 407.84534528 52.484517103509 Q 407.84534528 59.578565533333 407.527752704 61.180447436842 407.210160128 62.828097394737 406.48423424 63.423082101754 405.80367872 64.018066808772 404.714789888 64.018066808772 403.53516032 64.018066808772 401.7203456 63.285777938596 L 400.949049344 64.887659842105 413.335159808 70.013681933333 415.376826368 70.013681933333 Z "/>
<path id="p10" fill="rgb(0,0,0)" d="M 456.255527936 9.6456181982456 Q 453.21571328 6.4418543912281 450.312009728 5.0230447052632 447.408306176 3.6500030736842 444.050898944 3.6500030736842 437.245343744 3.6500030736842 432.163862528 9.3710098719298 427.082381312 15.137784724561 427.082381312 24.154091438596 427.082381312 33.170398152632 432.708306944 40.630591017544 438.334232576 48.136551936842 447.181454336 48.136551936842 452.671268864 48.136551936842 456.255527936 44.612411749123 L 456.255527936 52.347212940351 Q 456.255527936 59.532797478947 455.892564992 61.180447436842 455.574972416 62.828097394737 454.849046528 63.423082101754 454.12312064 64.018066808772 453.034231808 64.018066808772 451.85460224 64.018066808772 449.903676416 63.285777938596 L 449.313861632 64.887659842105 461.699972096 70.013681933333 463.741638656 70.013681933333 463.741638656 21.545312338596 Q 463.741638656 14.176655582456 464.059231232 12.529005624561 464.422194176 10.927123721053 465.148120064 10.286370959649 465.91941632 9.6456181982456 466.917564416 9.6456181982456 468.142564352 9.6456181982456 470.184230912 10.423675122807 L 470.68330496 8.8217932192982 458.342564864 3.6500030736842 456.255527936 3.6500030736842 456.255527936 9.6456181982456 Z M 456.255527936 12.849382005263 L 456.255527936 34.451903675439 Q 455.983305728 37.564131373684 454.622194688 40.127142419298 453.261083648 42.690153464912 450.992565248 43.971658987719 448.769417216 45.298932564912 446.63700992 45.298932564912 442.644417536 45.298932564912 439.513862144 41.683256268421 435.385158656 36.923378612281 435.385158656 27.769767735088 435.385158656 18.524620749123 439.37775104 13.581670875439 443.370343424 8.6844890561404 448.270343168 8.6844890561404 452.399046656 8.6844890561404 456.255527936 12.849382005263 Z "/>
<path id="p11" fill="rgb(0,0,0)" d="M 486.7897856 21.362240121053 L 485.065711616 21.362240121053 481.073119232 58.434364173684 Q 480.800897024 60.86007105614 480.800897024 62.050040470175 480.800897024 64.933427896491 482.298119168 66.672613963158 483.84071168 68.411800029825 485.973118976 68.411800029825 488.105526272 68.411800029825 489.557378048 66.672613963158 491.054600192 64.933427896491 491.054600192 61.500823817544 491.054600192 60.402390512281 490.87311872 58.434364173684 L 486.7897856 21.362240121053 Z M 485.88237824 13.764743092982 Q 487.969415168 13.764743092982 489.421266944 12.254397298246 490.918489088 10.789819557895 490.918489088 8.7302571105263 490.918489088 6.6249266087719 489.421266944 5.1145808140351 487.969415168 3.6500030736842 485.88237824 3.6500030736842 483.795341312 3.6500030736842 482.298119168 5.1145808140351 480.846267392 6.6249266087719 480.846267392 8.7302571105263 480.846267392 10.789819557895 482.298119168 12.254397298246 483.795341312 13.764743092982 485.88237824 13.764743092982 Z "/>
<path id="p12" fill="rgb(0,0,255)" d="M 0 -0.25 L 512 -0.25 512 0.25 0 0.25 Z "/>
<path id="p13" fill="rgb(0,0,255)" d="M 0 511.75 L 512 511.75 512 512.25 0 512.25 Z "/>
<path id="p14" fill="rgb(0,0,255)" d="M -0.25 0 L -0.25 512 0.25 512 0.25 0 Z "/>
<path id="p15" fill="rgb(0,0,255)" d="M 511.75 0 L 511.75 512 512.25 512 512.25 0 Z "/>
<path id="p16" fill="rgb(0,0,255)" d="M 0 255.75 L 512 255.75 512 256.25 0 256.25 Z "/>
<path id="p17" fill="rgb(0,0,255)" d="M 255.75 0 L 255.75 512 256.25 512 256.25 0 Z "/>
<path id="p18" fill="rgb(0,0,255)" d="M 0 127.75 L 256 127.75 256 128.25 0 128.25 Z "/>
<path id="p19" fill="rgb(0,0,255)" d="M 127.75 0 L 127.75 256 128.25 256 128.25 0 Z "/>
<path id="p20" fill="rgb(0,0,255)" d="M 0 63.75 L 128 63.75 128 64.25 0 64.25 Z "/>
<path id="p21" fill="rgb(0,0,255)" d="M 63.75 0 L 63.75 128 64.25 128 64.25 0 Z "/>
<path id="p22" fill="rgb(0,0,255)" d="M 0 31.75 L 64 31.75 64 32.25 0 32.25 Z "/>
<path id="p23" fill="rgb(0,0,255)" d="M 31.75 0 L 31.75 64 32.25 64 32.25 0 Z "/>
<path id="p24" fill="rgb(0,0,255)" d="M 0 15.75 L 32 15.75 32 16.25 0 16.25 Z "/>
<path id="p25" fill="rgb(0,0,255)" d="M 15.75 0 L 15.75 32 16.25 32 16.25 0 Z "/>
<path id="p26" fill="rgb(0,0,255)" d="M 16 7.75 L 32 7.75 32 8.25 16 8.25 Z "/>
<path id="p27" fill="rgb(0,0,255)" d="M 23.75 0 L 23.75 16 24.25 16 24.25 0 Z "/>
<path id="p28" fill="rgb(0,0,255)" d="M 32 15.75 L 64 15.75 64 16.25 32 16.25 Z "/>
<path id="p29" fill="rgb(0,0,255)" d="M 47.75 0 L 47.75 32 48.25 32 48.25 0 Z "/>
<path id="p30" fill="rgb(0,0,255)" d="M 32 7.75 L 48 7.75 48 8.25 32 8.25 Z "/>
<path id="p31" fill="rgb(0,0,255)" d="M 39.75 0 L 39.75 16 40.25 16 40.25 0 Z "/>
<path id="p32" fill="rgb(0,0,255)" d="M 48 7.75 L 64 7.75 64 8.25 48 8.25 Z "/>
<path id="p33" fill="rgb(0,0,255)" d="M 55.75 0 L 55.75 16 56.25 16 56.25 0 Z "/>
<path id="p34" fill="rgb(0,0,255)" d="M 32 47.75 L 64 47.75 64 48.25 32 48.25 Z "/>
<path id="p35" fill="rgb(0,0,255)" d="M 47.75 32 L 47.75 64 48.25 64 48.25 32 Z "/>
<path id="p36" fill="rgb(0,0,255)" d="M 32 39.75 L 48 39.75 48 40.25 32 40.25 Z "/>
<path id="p37" fill="rgb(0,0,255)" d="M 39.75 32 L 39.75 48 40.25 48 40.25 32 Z "/>
<path id="p38" fill="rgb(0,0,255)" d="M 32 55.75 L 48 55.75 48 56.25 32 56.25 Z "/>
<path id="p39" fill="rgb(0,0,255)" d="M 39.75 48 L 39.75 64 40.25 64 40.25 48 Z "/>
<path id="p40" fill="rgb(0,0,255)" d="M 64 31.75 L 128 31.75 128 32.25 64 32.25 Z "/>
<path id="p41" fill="rgb(0,0,255)" d="M 95.75 0 L 95.75 64 96.25 64 96.25 0 Z "/>
<path id="p42" fill="rgb(0,0,255)" d="M 64 15.75 L 96 15.75 96 16.25 64 16.25 Z "/>
<path id="p43" fill="rgb(0,0,255)" d="M 79.75 0 L 79.75 32 80.25 32 80.25 0 Z "/>
<path id="p44" fill="rgb(0,0,255)" d="M 64 7.75 L 80 7.75 80 8.25 64 8.25 Z "/>
<path id="p45" fill="rgb(0,0,255)" d="M 71.75 0 L 71.75 16 72.25 16 72.25 0 Z "/>
<path id="p46" fill="rgb(0,0,255)" d="M 80 7.75 L 96 7.75 96 8.25 80 8.25 Z "/>
<path id="p47" fill="rgb(0,0,255)" d="M 87.75 0 L 87.75 16 88.25 16 88.25 0 Z "/>
<path id="p48" fill="rgb(0,0,255)" d="M 80 23.75 L 96 23.75 96 24.25 80 24.25 Z "/>
<path id="p49" fill="rgb(0,0,255)" d="M 87.75 16 L 87.75 32 88.25 32 88.25 16 Z "/>
<path id="p50" fill="rgb(0,0,255)" d="M 96 15.75 L 128 15.75 128 16.25 96 16.25 Z "/>
<path id="p51" fill="rgb(0,0,255)" d="M 111.75 0 L 111.75 32 112.25 32 112.25 0 Z "/>
<path id="p52" fill="rgb(0,0,255)" d="M 96 7.75 L 112 7.75 112 8.25 96 8.25 Z "/>
<path id="p53" fill="rgb(0,0,255)" d="M 103.75 0 L 103.75 16 104.25 16 104.25 0 Z "/>
<path id="p54" fill="rgb(0,0,255)" d="M 112 7.75 L 128 7.75 128 8.25 112 8.25 Z "/>
<path id="p55" fill="rgb(0,0,255)" d="M 119.75 0 L 119.75 16 120.25 16 120.25 0 Z "/>
<path id="p56" fill="rgb(0,0,255)" d="M 96 23.75 L 112 23.75 112 24.25 96 24.25 Z "/>
<path id="p57" fill="rgb(0,0,255)" d="M 103.75 16 L 103.75 32 104.25 32 104.25 16 Z "/>
<path id="p58" fill="rgb(0,0,255)" d="M 112 23.75 L 128 23.75 128 24.25 112 24.25 Z "/>
<path id="p59" fill="rgb(0,0,255)" d="M 119.75 16 L 119.75 32 120.25 32 120.25 16 Z "/>
<path id="p60" fill="rgb(0,0,255)" d="M 64 47.75 L 96 47.75 96 48.25 64 48.25 Z "/>
<path id="p61" fill="rgb(0,0,255)" d="M 79.75 32 L 79.75 64 80.25 64 80.25 32 Z "/>
<path id="p62" fill="rgb(0,0,255)" d="M 64 39.75 L 80 39.75 80 40.25 64 40.25 Z "/>
<path id="p63" fill="rgb(0,0,255)" d="M 71.75 32 L 71.75 48 72.25 48 72.25 32 Z "/>
<path id="p64" fill="rgb(0,0,255)" d="M 80 39.75 L 96 39.75 96 40.25 80 40.25 Z "/>
<path id="p65" fill="rgb(0,0,255)" d="M 87.75 32 L 87.75 48 88.25 48 88.25 32 Z "/>
<path id="p66" fill="rgb(0,0,255)" d="M 64 55.75 L 80 55.75 80 56.25 64 56.25 Z "/>
<path id="p67" fill="rgb(0,0,255)" d="M 71.75 48 L 71.75 64 72.25 64 72.25 48 Z "/>
<path id="p68" fill="rgb(0,0,255)" d="M 80 55.75 L 96 55.75 96 56.25 80 56.25 Z "/>
<path id="p69" fill="rgb(0,0,255)" d="M 87.75 48 L 87.75 64 88.25 64 88.25 48 Z "/>
<path id="p70" fill="rgb(0,0,255)" d="M 96 47.75 L 128 47.75 128 48.25 96 48.25 Z "/>
<path id="p71" fill="rgb(0,0,255)" d="M 111.75 32 L 111.75 64 112.25 64 112.25 32 Z "/>
<path id="p72" fill="rgb(0,0,255)" d="M 96 39.75 L 112 39.75 112 40.25 96 40.25 Z "/>
<path id="p73" fill="rgb(0,0,255)" d="M 103.75 32 L 103.75 48 104.25 48 104.25 32 Z "/>
<path id="p74" fill="rgb(0,0,255)" d="M 112 39.75 L 128 39.75 128 40.25 112 40.25 Z "/>
<path id="p75" fill="rgb(0,0,255)" d="M 119.75 32 L 119.75 48 120.25 48 120.25 32 Z "/>
<path id="p76" fill="rgb(0,0,255)" d="M 96 55.75 L 112 55.75 112 56.25 96 56.25 Z "/>
<path id="p77" fill="rgb(0,0,255)" d="M 103.75 48 L 103.75 64 104.25 64 104.25 48 Z "/>
<path id="p78" fill="rgb(0,0,255)" d="M 112 55.75 L 128 55.75 128 56.25 112 56.25 Z "/>
<path id="p79" fill="rgb(0,0,255)" d="M 119.75 48 L 119.75 64 120.25 64 120.25 48 Z "/>
<path id="p80" fill="rgb(0,0,255)" d="M 0 95.75 L 64 95.75 64 96.25 0 96.25 Z "/>
<path id="p81" fill="rgb(0,0,255)" d="M 31.75 64 L 31.75 128 32.25 128 32.25 64 Z "/>
<path id="p82" fill="rgb(0,0,255)" d="M 0 79.75 L 32 79.75 32 80.25 0 80.25 Z "/>
<path id="p83" fill="rgb(0,0,255)" d="M 15.75 64 L 15.75 96 16.25 96 16.25 64 Z "/>
<path id="p84" fill="rgb(0,0,255)" d="M 16 71.75 L 32 71.75 32 72.25 16 72.25 Z "/>
<path id="p85" fill="rgb(0,0,255)" d="M 23.75 64 L 23.75 80 24.25 80 24.25 64 Z "/>
<path id="p86" fill="rgb(0,0,255)" d="M 32 79.75 L 64 79.75 64 80.25 32 80.25 Z "/>
<path id="p87" fill="rgb(0,0,255)" d="M 47.75 64 L 47.75 96 48.25 96 48.25 64 Z "/>
<path id="p88" fill="rgb(0,0,255)" d="M 32 71.75 L 48 71.75 48 72.25 32 72.25 Z "/>
<path id="p89" fill="rgb(0,0,255)" d="M 39.75 64 L 39.75 80 40.25 80 40.25 64 Z "/>
<path id="p90" fill="rgb(0,0,255)" d="M 48 71.75 L 64 71.75 64 72.25 48 72.25 Z "/>
<path id="p91" fill="rgb(0,0,255)" d="M 55.75 64 L 55.75 80 56.25 80 56.25 64 Z "/>
<path id="p92" fill="rgb(0,0,255)" d="M 64 95.75 L 128 95.75 128 96.25 64 96.25 Z "/>
<path id="p93" fill="rgb(0,0,255)" d="M 95.75 64 L 95.75 128 96.25 128 96.25 64 Z "/>
<path id="p94" fill="rgb(0,0,255)" d="M 64 79.75 L 96 79.75 96 80.25 64 80.25 Z "/>
<path id="p95" fill="rgb(0,0,255)" d="M 79.75 64 L 79.75 96 80.25 96 80.25 64 Z "/>
<path id="p96" fill="rgb(0,0,255)" d="M 64 71.75 L 80 71.75 80 72.25 64 72.25 Z "/>
<path id="p97" fill="rgb(0,0,255)" d="M 71.75 64 L 71.75 80 72.25 80 72.25 64 Z "/>
<path id="p98" fill="rgb(0,0,255)" d="M 80 71.75 L 96 71.75 96 72.25 80 72.25 Z "/>
<path id="p99" fill="rgb(0,0,255)" d="M 87.75 64 L 87.75 80 88.25 80 88.25 64 Z "/>
<path id="p100" fill="rgb(0,0,255)" d="M 128 63.75 L 256 63.75 256 64.25 128 64.25 Z "/>
<path id="p101" fill="rgb(0,0,255)" d="M 191.75 0 L 191.75 128 192.25 128 192.25 0 Z "/>
<path id="p102" fill="rgb(0,0,255)" d="M 128 31.75 L 192 31.75 192 32.25 128 32.25 Z "/>
<path id="p103" fill="rgb(0,0,255)" d="M 159.75 0 L 159.75 64 160.25 64 160.25 0 Z "/>
<path id="p104" fill="rgb(0,0,255)" d="M 128 15.75 L 160 15.75 160 16.25 128 16.25 Z "/>
<path id="p105" fill="rgb(0,0,255)" d="M 143.75 0 L 143.75 32 144.25 32 144.25 0 Z "/>
<path id="p106" fill="rgb(0,0,255)" d="M 128 7.75 L 144 7.75 144 8.25 128 8.25 Z "/>
<path id="p107" fill="rgb(0,0,255)" d="M 135.75 0 L 135.75 16 136.25 16 136.25 0 Z "/>
<path id="p108" fill="rgb(0,0,255)" d="M 144 7.75 L 160 7.75 160 8.25 144 8.25 Z "/>
<path id="p109" fill="rgb(0,0,255)" d="M 151.75 0 L 151.75 16 152.25 16 152.25 0 Z "/>
<path id="p110" fill="rgb(0,0,255)" d="M 128 23.75 L 144 23.75 144 24.25 128 24.25 Z "/>
<path id="p111" fill="rgb(0,0,255)" d="M 135.75 16 L 135.75 32 136.25 32 136.25 16 Z "/>
<path id="p112" fill="rgb(0,0,255)" d="M 160 15.75 L 192 15.75 192 16.25 160 16.25 Z "/>
<path id="p113" fill="rgb(0,0,255)" d="M 175.75 0 L 175.75 32 176.25 32 176.25 0 Z "/>
<path id="p114" fill="rgb(0,0,255)" d="M 160 7.75 L 176 7.75 176 8.25 160 8.25 Z "/>
<path id="p115" fill="rgb(0,0,255)" d="M 167.75 0 L 167.75 16 168.25 16 168.25 0 Z "/>
<path id="p116" fill="rgb(0,0,255)" d="M 176 7.75 L 192 7.75 192 8.25 176 8.25 Z "/>
<path id="p117" fill="rgb(0,0,255)" d="M 183.75 0 L 183.75 16 184.25 16 184.25 0 Z "/>
<path id="p118" fill="rgb(0,0,255)" d="M 176 23.75 L 192 23.75 192 24.25 176 24.25 Z "/>
<path id="p119" fill="rgb(0,0,255)" d="M 183.75 16 L 183.75 32 184.25 32 184.25 16 Z "/>
<path id="p120" fill="rgb(0,0,255)" d="M 128 47.75 L 160 47.75 160 48.25 128 48.25 Z "/>
<path id="p121" fill="rgb(0,0,255)" d="M 143.75 32 L 143.75 64 144.25 64 144.25 32 Z "/>
<path id="p122" fill="rgb(0,0,255)" d="M 128 39.75 L 144 39.75 144 40.25 128 40.25 Z "/>
<path id="p123" fill="rgb(0,0,255)" d="M 135.75 32 L 135.75 48 136.25 48 136.25 32 Z "/>
<path id="p124" fill="rgb(0,0,255)" d="M 128 55.75 L 144 55.75 144 56.25 128 56.25 Z "/>
<path id="p125" fill="rgb(0,0,255)" d="M 135.75 48 L 135.75 64 136.25 64 136.25 48 Z "/>
<path id="p126" fill="rgb(0,0,255)" d="M 160 47.75 L 192 47.75 192 48.25 160 48.25 Z "/>
<path id="p127" fill="rgb(0,0,255)" d="M 175.75 32 L 175.75 64 176.25 64 176.25 32 Z "/>
<path id="p128" fill="rgb(0,0,255)" d="M 176 39.75 L 192 39.75 192 40.25 176 40.25 Z "/>
<path id="p129" fill="rgb(0,0,255)" d="M 183.75 32 L 183.75 48 184.25 48 184.25 32 Z "/>
<path id="p130" fill="rgb(0,0,255)" d="M 160 55.75 L 176 55.75 176 56.25 160 56.25 Z "/>
<path id="p131" fill="rgb(0,0,255)" d="M 167.75 48 L 167.75 64 168.25 64 168.25 48 Z "/>
<path id="p132" fill="rgb(0,0,255)" d="M 192 31.75 L 256 31.75 256 32.25 192 32.25 Z "/>
<path id="p133" fill="rgb(0,0,255)" d="M 223.75 0 L 223.75 64 224.25 64 224.25 0 Z "/>
<path id="p134" fill="rgb(0,0,255)" d="M 192 15.75 L 224 15.75 224 16.25 192 16.25 Z "/>
<path id="p135" fill="rgb(0,0,255)" d="M 207.75 0 L 207.75 32 208.25 32 208.25 0 Z "/>
<path id="p136" fill="rgb(0,0,255)" d="M 192 7.75 L 208 7.75 208 8.25 192 8.25 Z "/>
<path id="p137" fill="rgb(0,0,255)" d="M 199.75 0 L 199.75 16 200.25 16 200.25 0 Z "/>
<path id="p138" fill="rgb(0,0,255)" d="M 208 7.75 L 224 7.75 224 8.25 208 8.25 Z "/>
<path id="p139" fill="rgb(0,0,255)" d="M 215.75 0 L 215.75 16 216.25 16 216.25 0 Z "/>
<path id="p140" fill="rgb(0,0,255)" d="M 192 23.75 L 208 23.75 208 24.25 192 24.25 Z "/>
<path id="p141" fill="rgb(0,0,255)" d="M 199.75 16 L 199.75 32 200.25 32 200.25 16 Z "/>
<path id="p142" fill="rgb(0,0,255)" d="M 208 23.75 L 224 23.75 224 24.25 208 24.25 Z "/>
<path id="p143" fill="rgb(0,0,255)" d="M 215.75 16 L 215.75 32 216.25 32 216.25 16 Z "/>
<path id="p144" fill="rgb(0,0,255)" d="M 224 15.75 L 256 15.75 256 16.25 224 16.25 Z "/>
<path id="p145" fill="rgb(0,0,255)" d="M 239.75 0 L 239.75 32 240.25 32 240.25 0 Z "/>
<path id="p146" fill="rgb(0,0,255)" d="M 224 7.75 L 240 7.75 240 8.25 224 8.25 Z "/>
<path id="p147" fill="rgb(0,0,255)" d="M 231.75 0 L 231.75 16 232.25 16 232.25 0 Z "/>
<path id="p148" fill="rgb(0,0,255)" d="M 224 23.75 L 240 23.75 240 24.25 224 24.25 Z "/>
<path id="p149" fill="rgb(0,0,255)" d="M 231.75 16 L 231.75 32 232.25 32 232.25 16 Z "/>
<path id="p150" fill="rgb(0,0,255)" d="M 192 47.75 L 224 47.75 224 48.25 192 48.25 Z "/>
<path id="p151" fill="rgb(0,0,255)" d="M 207.75 32 L 207.75 64 208.25 64 208.25 32 Z "/>
<path id="p152" fill="rgb(0,0,255)" d="M 192 39.75 L 208 39.75 208 40.25 192 40.25 Z "/>
<path id="p153" fill="rgb(0,0,255)" d="M 199.75 32 L 199.75 48 200.25 48 200.25 32 Z "/>
<path id="p154" fill="rgb(0,0,255)" d="M 208 39.75 L 224 39.75 224 40.25 208 40.25 Z "/>
<path id="p155" fill="rgb(0,0,255)" d="M 215.75 32 L 215.75 48 216.25 48 216.25 32 Z "/>
<path id="p156" fill="rgb(0,0,255)" d="M 192 55.75 L 208 55.75 208 56.25 192 56.25 Z "/>
<path id="p157" fill="rgb(0,0,255)" d="M 199.75 48 L 199.75 64 200.25 64 200.25 48 Z "/>
<path id="p158" fill="rgb(0,0,255)" d="M 208 55.75 L 224 55.75 224 56.25 208 56.25 Z "/>
<path id="p159" fill="rgb(0,0,255)" d="M 215.75 48 L 215.75 64 216.25 64 216.25 48 Z "/>
<path id="p160" fill="rgb(0,0,255)" d="M 224 47.75 L 256 47.75 256 48.25 224 48.25 Z "/>
<path id="p161" fill="rgb(0,0,255)" d="M 239.75 32 L 239.75 64 240.25 64 240.25 32 Z "/>
<path id="p162" fill="rgb(0,0,255)" d="M 224 39.75 L 240 39.75 240 40.25 224 40.25 Z "/>
<path id="p163" fill="rgb(0,0,255)" d="M 231.75 32 L 231.75 48 232.25 48 232.25 32 Z "/>
<path id="p164" fill="rgb(0,0,255)" d="M 240 39.75 L 256 39.75 256 40.25 240 40.25 Z "/>
<path id="p165" fill="rgb(0,0,255)" d="M 247.75 32 L 247.75 48 248.25 48 248.25 32 Z "/>
<path id="p166" fill="rgb(0,0,255)" d="M 128 95.75 L 192 95.75 192 96.25 128 96.25 Z "/>
<path id="p167" fill="rgb(0,0,255)" d="M 159.75 64 L 159.75 128 160.25 128 160.25 64 Z "/>
<path id="p168" fill="rgb(0,0,255)" d="M 128 79.75 L 160 79.75 160 80.25 128 80.25 Z "/>
<path id="p169" fill="rgb(0,0,255)" d="M 143.75 64 L 143.75 96 144.25 96 144.25 64 Z "/>
<path id="p170" fill="rgb(0,0,255)" d="M 128 71.75 L 144 71.75 144 72.25 128 72.25 Z "/>
<path id="p171" fill="rgb(0,0,255)" d="M 135.75 64 L 135.75 80 136.25 80 136.25 64 Z "/>
<path id="p172" fill="rgb(0,0,255)" d="M 144 71.75 L 160 71.75 160 72.25 144 72.25 Z "/>
<path id="p173" fill="rgb(0,0,255)" d="M 151.75 64 L 151.75 80 152.25 80 152.25 64 Z "/>
<path id="p174" fill="rgb(0,0,255)" d="M 160 79.75 L 192 79.75 192 80.25 160 80.25 Z "/>
<path id="p175" fill="rgb(0,0,255)" d="M 175.75 64 L 175.75 96 176.25 96 176.25 64 Z "/>
<path id="p176" fill="rgb(0,0,255)" d="M 160 71.75 L 176 71.75 176 72.25 160 72.25 Z "/>
<path id="p177" fill="rgb(0,0,255)" d="M 167.75 64 L 167.75 80 168.25 80 168.25 64 Z "/>
<path id="p178" fill="rgb(0,0,255)" d="M 256 127.75 L 512 127.75 512 128.25 256 128.25 Z "/>
<path id="p179" fill="rgb(0,0,255)" d="M 383.75 0 L 383.75 256 384.25 256 384.25 0 Z "/>
<path id="p180" fill="rgb(0,0,255)" d="M 256 63.75 L 384 63.75 384 64.25 256 64.25 Z "/>
<path id="p181" fill="rgb(0,0,255)" d="M 319.75 0 L 319.75 128 320.25 128 320.25 0 Z "/>
<path id="p182" fill="rgb(0,0,255)" d="M 256 31.75 L 320 31.75 320 32.25 256 32.25 Z "/>
<path id="p183" fill="rgb(0,0,255)" d="M 287.75 0 L 287.75 64 288.25 64 288.25 0 Z "/>
<path id="p184" fill="rgb(0,0,255)" d="M 256 15.75 L 288 15.75 288 16.25 256 16.25 Z "/>
<path id="p185" fill="rgb(0,0,255)" d="M 271.75 0 L 271.75 32 272.25 32 272.25 0 Z "/>
<path id="p186" fill="rgb(0,0,255)" d="M 256 7.75 L 272 7.75 272 8.25 256 8.25 Z "/>
<path id="p187" fill="rgb(0,0,255)" d="M 263.75 0 L 263.75 16 264.25 16 264.25 0 Z "/>
<path id="p188" fill="rgb(0,0,255)" d="M 272 7.75 L 288 7.75 288 8.25 272 8.25 Z "/>
<path id="p189" fill="rgb(0,0,255)" d="M 279.75 0 L 279.75 16 280.25 16 280.25 0 Z "/>
<path id="p190" fill="rgb(0,0,255)" d="M 256 23.75 L 272 23.75 272 24.25 256 24.25 Z "/>
<path id="p191" fill="rgb(0,0,255)" d="M 263.75 16 L 263.75 32 264.25 32 264.25 16 Z "/>
<path id="p192" fill="rgb(0,0,255)" d="M 272 23.75 L 288 23.75 288 24.25 272 24.25 Z "/>
<path id="p193" fill="rgb(0,0,255)" d="M 279.75 16 L 279.75 32 280.25 32 280.25 16 Z "/>
<path id="p194" fill="rgb(0,0,255)" d="M 288 15.75 L 320 15.75 320 16.25 288 16.25 Z "/>
<path id="p195" fill="rgb(0,0,255)" d="M 303.75 0 L 303.75 32 304.25 32 304.25 0 Z "/>
<path id="p196" fill="rgb(0,0,255)" d="M 288 7.75 L 304 7.75 304 8.25 288 8.25 Z "/>
<path id="p197" fill="rgb(0,0,255)" d="M 295.75 0 L 295.75 16 296.25 16 296.25 0 Z "/>
<path id="p198" fill="rgb(0,0,255)" d="M 304 7.75 L 320 7.75 320 8.25 304 8.25 Z "/>
<path id="p199" fill="rgb(0,0,255)" d="M 311.75 0 L 311.75 16 312.25 16 312.25 0 Z "/>
<path id="p200" fill="rgb(0,0,255)" d="M 288 23.75 L 304 23.75 304 24.25 288 24.25 Z "/>
<path id="p201" fill="rgb(0,0,255)" d="M 295.75 16 L 295.75 32 296.25 32 296.25 16 Z "/>
<path id="p202" fill="rgb(0,0,255)" d="M 304 23.75 L 320 23.75 320 24.25 304 24.25 Z "/>
<path id="p203" fill="rgb(0,0,255)" d="M 311.75 16 L 311.75 32 312.25 32 312.25 16 Z "/>
<path id="p204" fill="rgb(0,0,255)" d="M 256 47.75 L 288 47.75 288 48.25 256 48.25 Z "/>
<path id="p205" fill="rgb(0,0,255)" d="M 271.75 32 L 271.75 64 272.25 64 272.25 32 Z "/>
<path id="p206" fill="rgb(0,0,255)" d="M 256 39.75 L 272 39.75 272 40.25 256 40.25 Z "/>
<path id="p207" fill="rgb(0,0,255)" d="M 263.75 32 L 263.75 48 264.25 48 264.25 32 Z "/>
<path id="p208" fill="rgb(0,0,255)" d="M 272 39.75 L 288 39.75 288 40.25 272 40.25 Z "/>
<path id="p209" fill="rgb(0,0,255)" d="M 279.75 32 L 279.75 48 280.25 48 280.25 32 Z "/>
<path id="p210" fill="rgb(0,0,255)" d="M 288 47.75 L 320 47.75 320 48.25 288 48.25 Z "/>
<path id="p211" fill="rgb(0,0,255)" d="M 303.75 32 L 303.75 64 304.25 64 304.25 32 Z "/>
<path id="p212" fill="rgb(0,0,255)" d="M 288 39.75 L 304 39.75 304 40.25 288 40.25 Z "/>
<path id="p213" fill="rgb(0,0,255)" d="M 295.75 32 L 295.75 48 296.25 48 296.25 32 Z "/>
<path id="p214" fill="rgb(0,0,255)" d="M 304 39.75 L 320 39.75 320 40.25 304 40.25 Z "/>
<path id="p215" fill="rgb(0,0,255)" d="M 311.75 32 L 311.75 48 312.25 48 312.25 32 Z "/>
<path id="p216" fill="rgb(0,0,255)" d="M 320 31.75 L 384 31.75 384 32.25 320 32.25 Z "/>
<path id="p217" fill="rgb(0,0,255)" d="M 351.75 0 L 351.75 64 352.25 64 352.25 0 Z "/>
<path id="p218" fill="rgb(0,0,255)" d="M 320 15.75 L 352 15.75 352 16.25 320 16.25 Z "/>
<path id="p219" fill="rgb(0,0,255)" d="M 335.75 0 L 335.75 32 336.25 32 336.25 0 Z "/>
<path id="p220" fill="rgb(0,0,255)" d="M 320 7.75 L 336 7.75 336 8.25 320 8.25 Z "/>
<path id="p221" fill="rgb(0,0,255)" d="M 327.75 0 L 327.75 16 328.25 16 328.25 0 Z "/>
<path id="p222" fill="rgb(0,0,255)" d="M 336 7.75 L 352 7.75 352 8.25 336 8.25 Z "/>
<path id="p223" fill="rgb(0,0,255)" d="M 343.75 0 L 343.75 16 344.25 16 344.25 0 Z "/>
<path id="p224" fill="rgb(0,0,255)" d="M 320 23.75 L 336 23.75 336 24.25 320 24.25 Z "/>
<path id="p225" fill="rgb(0,0,255)" d="M 327.75 16 L 327.75 32 328.25 32 328.25 16 Z "/>
<path id="p226" fill="rgb(0,0,255)" d="M 352 15.75 L 384 15.75 384 16.25 352 16.25 Z "/>
<path id="p227" fill="rgb(0,0,255)" d="M 367.75 0 L 367.75 32 368.25 32 368.25 0 Z "/>
<path id="p228" fill="rgb(0,0,255)" d="M 352 7.75 L 368 7.75 368 8.25 352 8.25 Z "/>
<path id="p229" fill="rgb(0,0,255)" d="M 359.75 0 L 359.75 16 360.25 16 360.25 0 Z "/>
<path id="p230" fill="rgb(0,0,255)" d="M 368 7.75 L 384 7.75 384 8.25 368 8.25 Z "/>
<path id="p231" fill="rgb(0,0,255)" d="M 375.75 0 L 375.75 16 376.25 16 376.25 0 Z "/>
<path id="p232" fill="rgb(0,0,255)" d="M 352 23.75 L 368 23.75 368 24.25 352 24.25 Z "/>
<path id="p233" fill="rgb(0,0,255)" d="M 359.75 16 L 359.75 32 360.25 32 360.25 16 Z "/>
<path id="p234" fill="rgb(0,0,255)" d="M 368 23.75 L 384 23.75 384 24.25 368 24.25 Z "/>
<path id="p235" fill="rgb(0,0,255)" d="M 375.75 16 L 375.75 32 376.25 32 376.25 16 Z "/>
<path id="p236" fill="rgb(0,0,255)" d="M 320 47.75 L 352 47.75 352 48.25 320 48.25 Z "/>
<path id="p237" fill="rgb(0,0,255)" d="M 335.75 32 L 335.75 64 336.25 64 336.25 32 Z "/>
<path id="p238" fill="rgb(0,0,255)" d="M 320 39.75 L 336 39.75 336 40.25 320 40.25 Z "/>
<path id="p239" fill="rgb(0,0,255)" d="M 327.75 32 L 327.75 48 328.25 48 328.25 32 Z "/>
<path id="p240" fill="rgb(0,0,255)" d="M 336 39.75 L 352 39.75 352 40.25 336 40.25 Z "/>
<path id="p241" fill="rgb(0,0,255)" d="M 343.75 32 L 343.75 48 344.25 48 344.25 32 Z "/>
<path id="p242" fill="rgb(0,0,255)" d="M 336 55.75 L 352 55.75 352 56.25 336 56.25 Z "/>
<path id="p243" fill="rgb(0,0,255)" d="M 343.75 48 L 343.75 64 344.25 64 344.25 48 Z "/>
<path id="p244" fill="rgb(0,0,255)" d="M 352 47.75 L 384 47.75 384 48.25 352 48.25 Z "/>
<path id="p245" fill="rgb(0,0,255)" d="M 367.75 32 L 367.75 64 368.25 64 368.25 32 Z "/>
<path id="p246" fill="rgb(0,0,255)" d="M 352 39.75 L 368 39.75 368 40.25 352 40.25 Z "/>
<path id="p247" fill="rgb(0,0,255)" d="M 359.75 32 L 359.75 48 360.25 48 360.25 32 Z "/>
<path id="p248" fill="rgb(0,0,255)" d="M 368 39.75 L 384 39.75 384 40.25 368 40.25 Z "/>
<path id="p249" fill="rgb(0,0,255)" d="M 375.75 32 L 375.75 48 376.25 48 376.25 32 Z "/>
<path id="p250" fill="rgb(0,0,255)" d="M 368 55.75 L 384 55.75 384 56.25 368 56.25 Z "/>
<path id="p251" fill="rgb(0,0,255)" d="M 375.75 48 L 375.75 64 376.25 64 376.25 48 Z "/>
<path id="p252" fill="rgb(0,0,255)" d="M 384 63.75 L 512 63.75 512 64.25 384 64.25 Z "/>
<path id="p253" fill="rgb(0,0,255)" d="M 447.75 0 L 447.75 128 448.25 128 448.25 0 Z "/>
<path id="p254" fill="rgb(0,0,255)" d="M 384 31.75 L 448 31.75 448 32.25 384 32.25 Z "/>
<path id="p255" fill="rgb(0,0,255)" d="M 415.75 0 L 415.75 64 416.25 64 416.25 0 Z "/>
<path id="p256" fill="rgb(0,0,255)" d="M 384 15.75 L 416 15.75 416 16.25 384 16.25 Z "/>
<path id="p257" fill="rgb(0,0,255)" d="M 399.75 0 L 399.75 32 400.25 32 400.25 0 Z "/>
<path id="p258" fill="rgb(0,0,255)" d="M 384 7.75 L 400 7.75 400 8.25 384 8.25 Z "/>
<path id="p259" fill="rgb(0,0,255)" d="M 391.75 0 L 391.75 16 392.25 16 392.25 0 Z "/>
<path id="p260" fill="rgb(0,0,255)" d="M 400 7.75 L 416 7.75 416 8.25 400 8.25 Z "/>
<path id="p261" fill="rgb(0,0,255)" d="M 407.75 0 L 407.75 16 408.25 16 408.25 0 Z "/>
<path id="p262" fill="rgb(0,0,255)" d="M 416 15.75 L 448 15.75 448 16.25 416 16.25 Z "/>
<path id="p263" fill="rgb(0,0,255)" d="M 431.75 0 L 431.75 32 432.25 32 432.25 0 Z "/>
<path id="p264" fill="rgb(0,0,255)" d="M 416 7.75 L 432 7.75 432 8.25 416 8.25 Z "/>
<path id="p265" fill="rgb(0,0,255)" d="M 423.75 0 L 423.75 16 424.25 16 424.25 0 Z "/>
<path id="p266" fill="rgb(0,0,255)" d="M 432 7.75 L 448 7.75 448 8.25 432 8.25 Z "/>
<path id="p267" fill="rgb(0,0,255)" d="M 439.75 0 L 439.75 16 440.25 16 440.25 0 Z "/>
<path id="p268" fill="rgb(0,0,255)" d="M 416 23.75 L 432 23.75 432 24.25 416 24.25 Z "/>
<path id="p269" fill="rgb(0,0,255)" d="M 423.75 16 L 423.75 32 424.25 32 424.25 16 Z "/>
<path id="p270" fill="rgb(0,0,255)" d="M 432 23.75 L 448 23.75 448 24.25 432 24.25 Z "/>
<path id="p271" fill="rgb(0,0,255)" d="M 439.75 16 L 439.75 32 440.25 32 440.25 16 Z "/>
<path id="p272" fill="rgb(0,0,255)" d="M 384 47.75 L 416 47.75 416 48.25 384 48.25 Z "/>
<path id="p273" fill="rgb(0,0,255)" d="M 399.75 32 L 399.75 64 400.25 64 400.25 32 Z "/>
<path id="p274" fill="rgb(0,0,255)" d="M 384 39.75 L 400 39.75 400 40.25 384 40.25 Z "/>
<path id="p275" fill="rgb(0,0,255)" d="M 391.75 32 L 391.75 48 392.25 48 392.25 32 Z "/>
<path id="p276" fill="rgb(0,0,255)" d="M 384 55.75 L 400 55.75 400 56.25 384 56.25 Z "/>
<path id="p277" fill="rgb(0,0,255)" d="M 391.75 48 L 391.75 64 392.25 64 392.25 48 Z "/>
<path id="p278" fill="rgb(0,0,255)" d="M 400 55.75 L 416 55.75 416 56.25 400 56.25 Z "/>
<path id="p279" fill="rgb(0,0,255)" d="M 407.75 48 L 407.75 64 408.25 64 408.25 48 Z "/>
<path id="p280" fill="rgb(0,0,255)" d="M 416 47.75 L 448 47.75 448 48.25 416 48.25 Z "/>
<path id="p281" fill="rgb(0,0,255)" d="M 431.75 32 L 431.75 64 432.25 64 432.25 32 Z "/>
<path id="p282" fill="rgb(0,0,255)" d="M 416 39.75 L 432 39.75 432 40.25 416 40.25 Z "/>
<path id="p283" fill="rgb(0,0,255)" d="M 423.75 32 L 423.75 48 424.25 48 424.25 32 Z "/>
<path id="p284" fill="rgb(0,0,255)" d="M 432 39.75 L 448 39.75 448 40.25 432 40.25 Z "/>
<path id="p285" fill="rgb(0,0,255)" d="M 439.75 32 L 439.75 48 440.25 48 440.25 32 Z "/>
<path id="p286" fill="rgb(0,0,255)" d="M 432 55.75 L 448 55.75 448 56.25 432 56.25 Z "/>
<path id="p287" fill="rgb(0,0,255)" d="M 439.75 48 L 439.75 64 440.25 64 440.25 48 Z "/>
<path id="p288" fill="rgb(0,0,255)" d="M 448 31.75 L 512 31.75 512 32.25 448 32.25 Z "/>
<path id="p289" fill="rgb(0,0,255)" d="M 479.75 0 L 479.75 64 480.25 64 480.25 0 Z "/>
<path id="p290" fill="rgb(0,0,255)" d="M 448 15.75 L 480 15.75 480 16.25 448 16.25 Z "/>
<path id="p291" fill="rgb(0,0,255)" d="M 463.75 0 L 463.75 32 464.25 32 464.25 0 Z "/>
<path id="p292" fill="rgb(0,0,255)" d="M 448 7.75 L 464 7.75 464 8.25 448 8.25 Z "/>
<path id="p293" fill="rgb(0,0,255)" d="M 455.75 0 L 455.75 16 456.25 16 456.25 0 Z "/>
<path id="p294" fill="rgb(0,0,255)" d="M 464 7.75 L 480 7.75 480 8.25 464 8.25 Z "/>
<path id="p295" fill="rgb(0,0,255)" d="M 471.75 0 L 471.75 16 472.25 16 472.25 0 Z "/>
<path id="p296" fill="rgb(0,0,255)" d="M 448 23.75 L 464 23.75 464 24.25 448 24.25 Z "/>
<path id="p297" fill="rgb(0,0,255)" d="M 455.75 16 L 455.75 32 456.25 32 456.25 16 Z "/>
<path id="p298" fill="rgb(0,0,255)" d="M 480 15.75 L 512 15.75 512 16.25 480 16.25 Z "/>
<path id="p299" fill="rgb(0,0,255)" d="M 495.75 0 L 495.75 32 496.25 32 496.25 0 Z "/>
<path id="p300" fill="rgb(0,0,255)" d="M 480 7.75 L 496 7.75 496 8.25 480 8.25 Z "/>
<path id="p301" fill="rgb(0,0,255)" d="M 487.75 0 L 487.75 16 488.25 16 488.25 0 Z "/>
<path id="p302" fill="rgb(0,0,255)" d="M 480 23.75 L 496 23.75 496 24.25 480 24.25 Z "/>
<path id="p303" fill="rgb(0,0,255)" d="M 487.75 16 L 487.75 32 488.25 32 488.25 16 Z "/>
<path id="p304" fill="rgb(0,0,255)" d="M 448 47.75 L 480 47.75 480 48.25 448 48.25 Z "/>
<path id="p305" fill="rgb(0,0,255)" d="M 463.75 32 L 463.75 64 464.25 64 464.25 32 Z "/>
<path id="p306" fill="rgb(0,0,255)" d="M 448 39.75 L 464 39.75 464 40.25 448 40.25 Z "/>
<path id="p307" fill="rgb(0,0,255)" d="M 455.75 32 L 455.75 48 456.25 48 456.25 32 Z "/>
<path id="p308" fill="rgb(0,0,255)" d="M 448 55.75 L 464 55.75 464 56.25 448 56.25 Z "/>
<path id="p309" fill="rgb(0,0,255)" d="M 455.75 48 L 455.75 64 456.25 64 456.25 48 Z "/>
<path id="p310" fill="rgb(0,0,255)" d="M 480 47.75 L 512 47.75 512 48.25 480 48.25 Z "/>
<path id="p311" fill="rgb(0,0,255)" d="M 495.75 32 L 495.75 64 496.25 64 496.25 32 Z "/>
<path id="p312" fill="rgb(0,0,255)" d="M 480 39.75 L 496 39.75 496 40.25 480 40.25 Z "/>
<path id="p313" fill="rgb(0,0,255)" d="M 487.75 32 L 487.75 48 488.25 48 488.25 32 Z "/>
<path id="p314" fill="rgb(0,0,255)" d="M 480 55.75 L 496 55.75 496 56.25 480 56.25 Z "/>
<path id="p315" fill="rgb(0,0,255)" d="M 487.75 48 L 487.75 64 488.25 64 488.25 48 Z "/>
<path id="p316" fill="rgb(0,0,255)" d="M 384 95.75 L 448 95.75 448 96.25 384 96.25 Z "/>
<path id="p317" fill="rgb(0,0,255)" d="M 415.75 64 L 415.75 128 416.25 128 416.25 64 Z "/>
<path id="p318" fill="rgb(0,0,255)" d="M 384 79.75 L 416 79.75 416 80.25 384 80.25 Z "/>
<path id="p319" fill="rgb(0,0,255)" d="M 399.75 64 L 399.75 96 400.25 96 400.25 64 Z "/>
<path id="p320" fill="rgb(0,0,255)" d="M 400 71.75 L 416 71.75 416 72.25 400 72.25 Z "/>
<path id="p321" fill="rgb(0,0,255)" d="M 407.75 64 L 407.75 80 408.25 80 408.25 64 Z "/>
<path id="p322" fill="rgb(0,0,255)" d="M 448 95.75 L 512 95.75 512 96.25 448 96.25 Z "/>
<path id="p323" fill="rgb(0,0,255)" d="M 479.75 64 L 479.75 128 480.25 128 480.25 64 Z "/>
<path id="p324" fill="rgb(0,0,255)" d="M 448 79.75 L 480 79.75 480 80.25 448 80.25 Z "/>
<path id="p325" fill="rgb(0,0,255)" d="M 463.75 64 L 463.75 96 464.25 96 464.25 64 Z "/>
<path id="p326" fill="rgb(0,0,255)" d="M 448 71.75 L 464 71.75 464 72.25 448 72.25 Z "/>
<path id="p327" fill="rgb(0,0,255)" d="M 455.75 64 L 455.75 80 456.25 80 456.25 64 Z "/>
<path id="p328" fill="rgb(0,0,255)" d="M 480 79.75 L 512 79.75 512 80.25 480 80.25 Z "/>
<path id="p329" fill="rgb(0,0,255)" d="M 495.75 64 L 495.75 96 496.25 96 496.25 64 Z "/>
<path id="p330" fill="rgb(0,0,255)" d="M 480 71.75 L 496 71.75 496 72.25 480 72.25 Z "/>
<path id="p331" fill="rgb(0,0,255)" d="M 487.75 64 L 487.75 80 488.25 80 488.25 64 Z "/>
</g>
</svg>
