<?xml version="1.0" standalone="no"?>
<svg
    xmlns:xlink="http://www.w3.org/1999/xlink"
    xmlns:dc="http://purl.org/dc/elements/1.1/"
    xmlns:cc="http://creativecommons.org/ns#"
    xmlns:rdf="http://www.w3.org/1999/02/22-rdf-syntax-ns#"
    xmlns:svg="http://www.w3.org/2000/svg"
    xmlns="http://www.w3.org/2000/svg"
    version="1.1"
    viewBox="0 0 512 73">
<defs>
</defs>
<g transform="translate(0, 73) scale(1, -1)">
<path id="p1" fill="rgb(0,0,0)" d="M 43.112956928 38.204884135088 L 71.696288768 38.204884135088 71.696288768 55.962889236842 Q 71.696288768 60.722766892982 71.106473984 62.233112687719 70.652770304 63.377314047368 69.200918528 64.201139026316 67.249992704 65.299572331579 65.07221504 65.299572331579 L 62.894437376 65.299572331579 62.894437376 66.99299034386 89.209250816 66.99299034386 89.209250816 65.299572331579 87.031473152 65.299572331579 Q 84.853695488 65.299572331579 82.902769664 64.246907080702 81.450917888 63.514618210526 80.906473472 62.004272415789 80.407399424 60.539694675439 80.407399424 55.962889236842 L 80.407399424 15.915841649123 Q 80.407399424 11.201732047368 80.997214208 9.6913862526316 81.450917888 8.5471848929825 82.857399296 7.7233599140351 84.853695488 6.6249266087719 87.031473152 6.6249266087719 L 89.209250816 6.6249266087719 89.209250816 4.9315085964912 62.894437376 4.9315085964912 62.894437376 6.6249266087719 65.07221504 6.6249266087719 Q 68.837955584 6.6249266087719 70.562029568 8.8675612736842 71.696288768 10.332139014035 71.696288768 15.915841649123 L 71.696288768 34.818048110526 43.112956928 34.818048110526 43.112956928 15.915841649123 Q 43.112956928 11.201732047368 43.702771712 9.6913862526316 44.156475392 8.5471848929825 45.608327168 7.7233599140351 47.559252992 6.6249266087719 49.737030656 6.6249266087719 L 51.960178688 6.6249266087719 51.960178688 4.9315085964912 25.59999488 4.9315085964912 25.59999488 6.6249266087719 27.777772544 6.6249266087719 Q 31.588883456 6.6249266087719 33.31295744 8.8675612736842 34.401846272 10.332139014035 34.401846272 15.915841649123 L 34.401846272 55.962889236842 Q 34.401846272 60.722766892982 33.812031488 62.233112687719 33.358327808 63.377314047368 31.9518464 64.201139026316 29.955550208 65.299572331579 27.777772544 65.299572331579 L 25.59999488 65.299572331579 25.59999488 66.99299034386 51.960178688 66.99299034386 51.960178688 65.299572331579 49.737030656 65.299572331579 Q 47.559252992 65.299572331579 45.608327168 64.246907080702 44.20184576 63.514618210526 43.657401344 62.004272415789 43.112956928 60.539694675439 43.112956928 55.962889236842 L 43.112956928 38.204884135088 Z "/>
<path id="p2" fill="rgb(0,0,0)" d="M 101.005546496 31.065067650877 Q 101.00509728444 30.972625243999 101.00509728444 30.880577660058 101.00509728444 21.675819265954 105.497212928 16.419290247368 110.034249728 11.110195938596 116.159249408 11.110195938596 120.242582528 11.110195938596 123.237026816 13.352830603509 126.276841472 15.641233322807 128.318508032 21.133399849123 L 129.72498944 20.218038761404 Q 128.772211712 13.947815310526 124.189804544 8.7760251649123 119.607397376 3.6500030736842 112.71110144 3.6500030736842 105.22499072 3.6500030736842 99.871287296 9.5083140350877 94.56295424 15.412393050877 94.56295424 25.344060852632 94.56295424 36.099553633333 100.0073984 42.095168757895 105.497212928 48.136551936842 113.754619904 48.136551936842 120.741656576 48.136551936842 125.233323008 43.468210389474 129.72498944 38.845636896491 129.72498944 31.065067650877 L 101.005546496 31.065067650877 Z M 101.005546496 33.719614805263 L 120.242582528 33.719614805263 Q 120.015730688 37.747203591228 119.2898048 39.394853549123 118.1555456 41.957864594737 115.8870272 43.422442335088 113.663879168 44.887020075439 111.213879296 44.887020075439 107.448138752 44.887020075439 104.453694464 41.912096540351 101.504620544 38.982941059649 101.005546496 33.719614805263 Z "/>
<path id="p3" fill="rgb(0,0,0)" d="M 149.551840256 70.013681933333 L 149.551840256 14.405495854386 Q 149.551840256 10.469443177193 150.096284672 9.187937654386 150.686099456 7.9064321315789 151.865729024 7.2199113157895 153.045358592 6.579158554386 156.26665472 6.579158554386 L 156.26665472 4.9315085964912 135.895359488 4.9315085964912 135.895359488 6.579158554386 Q 138.753692672 6.579158554386 139.797211136 7.1741432614035 140.8407296 7.7691279684211 141.430544384 9.1421696 142.020359168 10.515211231579 142.020359168 14.405495854386 L 142.020359168 52.484517103509 Q 142.020359168 59.578565533333 141.702766592 61.180447436842 141.385174016 62.828097394737 140.659248128 63.423082101754 139.978692608 64.018066808772 138.889803776 64.018066808772 137.710174208 64.018066808772 135.895359488 63.285777938596 L 135.124063232 64.887659842105 147.510173696 70.013681933333 149.551840256 70.013681933333 Z "/>
<path id="p4" fill="rgb(0,0,0)" d="M 175.367579648 70.013681933333 L 175.367579648 14.405495854386 Q 175.367579648 10.469443177193 175.912024064 9.187937654386 176.501838848 7.9064321315789 177.681468416 7.2199113157895 178.861097984 6.579158554386 182.082394112 6.579158554386 L 182.082394112 4.9315085964912 161.71109888 4.9315085964912 161.71109888 6.579158554386 Q 164.569432064 6.579158554386 165.612950528 7.1741432614035 166.656468992 7.7691279684211 167.246283776 9.1421696 167.83609856 10.515211231579 167.83609856 14.405495854386 L 167.83609856 52.484517103509 Q 167.83609856 59.578565533333 167.518505984 61.180447436842 167.200913408 62.828097394737 166.47498752 63.423082101754 165.794432 64.018066808772 164.705543168 64.018066808772 163.5259136 64.018066808772 161.71109888 63.285777938596 L 160.939802624 64.887659842105 173.325913088 70.013681933333 175.367579648 70.013681933333 Z "/>
<path id="p5" fill="rgb(0,0,0)" d="M 207.217577984 48.090783882456 Q 216.654614528 48.090783882456 222.371280896 40.859431289474 227.225910272 34.680743947368 227.225910272 26.671334429825 227.225910272 21.041863740351 224.54905856 15.275088887719 221.872206848 9.5083140350877 217.153688576 6.579158554386 212.480540672 3.6500030736842 206.718503936 3.6500030736842 197.32683776 3.6500030736842 191.791652864 11.201732047368 187.11850496 17.563491607018 187.11850496 25.481365015789 187.11850496 31.248139868421 189.931467776 36.923378612281 192.78980096 42.644385410526 197.417578496 45.344700619298 202.045356032 48.090783882456 207.217577984 48.090783882456 Z M 205.811096576 45.115860347368 Q 203.406467072 45.115860347368 200.9564672 43.651282607018 198.551837696 42.232472921053 197.054615552 38.616796624561 195.557393408 35.00112032807 195.557393408 29.325881584211 195.557393408 20.172270707018 199.14165248 13.535902821053 202.77128192 6.8995349350877 208.66942976 6.8995349350877 213.070355456 6.8995349350877 215.92868864 10.560979285965 218.787021824 14.222423636842 218.787021824 23.147194242105 218.787021824 34.314599512281 214.023133184 40.722127126316 210.801837056 45.115860347368 205.811096576 45.115860347368 Z "/>
<path id="p6" fill="rgb(0,0,0)" d="M 254.2666496 46.855046414035 L 271.688870912 46.855046414035 271.688870912 45.161628401754 Q 269.284241408 44.978556184211 268.512945152 44.292035368421 267.787019264 43.605514552632 267.787019264 42.324009029825 267.787019264 40.90519934386 268.55831552 38.891404950877 L 277.450907648 14.771640289474 286.388870144 34.406135621053 284.029611008 40.584822963158 Q 282.940722176 43.330906226316 281.171277824 44.383571477193 280.173129728 45.024324238596 277.450907648 45.161628401754 L 277.450907648 46.855046414035 297.232388096 46.855046414035 297.232388096 45.161628401754 Q 293.9657216 45.024324238596 292.60461056 43.971658987719 291.6972032 43.239370117544 291.6972032 41.637488214035 291.6972032 40.722127126316 292.060166144 39.760997984211 L 301.497202688 15.687001377193 310.253683712 38.891404950877 Q 311.161091072 41.362879887719 311.161091072 42.82745762807 311.161091072 43.697050661404 310.253683712 44.383571477193 309.39164672 45.070092292982 306.805535744 45.161628401754 L 306.805535744 46.855046414035 319.917572096 46.855046414035 319.917572096 45.161628401754 Q 315.97035008 44.566643694737 314.110164992 39.760997984211 L 300.226832384 3.6500030736842 298.366647296 3.6500030736842 287.976833024 30.424314889474 275.862944768 3.6500030736842 274.184241152 3.6500030736842 260.84535296 38.891404950877 Q 259.529612288 42.232472921053 258.259241984 43.376674280702 256.98887168 44.566643694737 254.2666496 45.161628401754 L 254.2666496 46.855046414035 Z "/>
<path id="p7" fill="rgb(0,0,0)" d="M 344.009237504 48.090783882456 Q 353.446274048 48.090783882456 359.162940416 40.859431289474 364.017569792 34.680743947368 364.017569792 26.671334429825 364.017569792 21.041863740351 361.34071808 15.275088887719 358.663866368 9.5083140350877 353.945348096 6.579158554386 349.272200192 3.6500030736842 343.510163456 3.6500030736842 334.11849728 3.6500030736842 328.583312384 11.201732047368 323.91016448 17.563491607018 323.91016448 25.481365015789 323.91016448 31.248139868421 326.723127296 36.923378612281 329.58146048 42.644385410526 334.209238016 45.344700619298 338.837015552 48.090783882456 344.009237504 48.090783882456 Z M 342.602756096 45.115860347368 Q 340.198126592 45.115860347368 337.74812672 43.651282607018 335.343497216 42.232472921053 333.846275072 38.616796624561 332.349052928 35.00112032807 332.349052928 29.325881584211 332.349052928 20.172270707018 335.933312 13.535902821053 339.56294144 6.8995349350877 345.46108928 6.8995349350877 349.862014976 6.8995349350877 352.72034816 10.560979285965 355.578681344 14.222423636842 355.578681344 23.147194242105 355.578681344 34.314599512281 350.814792704 40.722127126316 347.593496576 45.115860347368 342.602756096 45.115860347368 Z "/>
<path id="p8" fill="rgb(0,0,0)" d="M 382.301828096 48.090783882456 L 382.301828096 38.662564678947 Q 387.519420416 48.090783882456 393.009234944 48.090783882456 395.504605184 48.090783882456 397.137938432 46.534670033333 398.77127168 45.024324238596 398.77127168 43.010529845614 398.77127168 41.225575724561 397.591642112 39.98983825614 396.412012544 38.754100787719 394.778679296 38.754100787719 393.190716416 38.754100787719 391.194420224 40.310214636842 389.2434944 41.912096540351 388.290716672 41.912096540351 387.474050048 41.912096540351 386.52127232 40.996735452632 384.47960576 39.120245222807 382.301828096 34.818048110526 L 382.301828096 14.725872235088 Q 382.301828096 11.247500101754 383.163865088 9.4625459807018 383.753679872 8.2268085122807 385.250902016 7.4029835333333 386.74812416 6.579158554386 389.561086976 6.579158554386 L 389.561086976 4.9315085964912 368.282384384 4.9315085964912 368.282384384 6.579158554386 Q 371.458310144 6.579158554386 373.000902656 7.5860557508772 374.135161856 8.3183446210526 374.588865536 9.9202265245614 374.815717376 10.698283449123 374.815717376 14.3597278 L 374.815717376 30.607387107018 Q 374.815717376 37.930275808772 374.4981248 39.303317440351 374.225902592 40.722127126316 373.409235968 41.362879887719 372.637939712 42.003632649123 371.458310144 42.003632649123 370.051828736 42.003632649123 368.282384384 41.317111833333 L 367.828680704 42.964761791228 380.39627264 48.090783882456 382.301828096 48.090783882456 Z "/>
<path id="p9" fill="rgb(0,0,0)" d="M 415.376826368 70.013681933333 L 415.376826368 14.405495854386 Q 415.376826368 10.469443177193 415.921270784 9.187937654386 416.511085568 7.9064321315789 417.690715136 7.2199113157895 418.870344704 6.579158554386 422.091640832 6.579158554386 L 422.091640832 4.9315085964912 401.7203456 4.9315085964912 401.7203456 6.579158554386 Q 404.578678784 6.579158554386 405.622197248 7.1741432614035 406.665715712 7.7691279684211 407.255530496 9.1421696 407.84534528 10.515211231579 407.84534528 14.405495854386 L 407.84534528 52.484517103509 Q 407.84534528 59.578565533333 407.527752704 61.180447436842 407.210160128 62.828097394737 406.48423424 63.423082101754 405.80367872 64.018066808772 404.714789888 64.018066808772 403.53516032 64.018066808772 401.7203456 63.285777938596 L 400.949049344 64.887659842105 413.335159808 70.013681933333 415.376826368 70.013681933333 Z "/>
<path id="p10" fill="rgb(0,0,0)" d="M 456.255527936 9.6456181982456 Q 453.21571328 6.4418543912281 450.312009728 5.0230447052632 447.408306176 3.6500030736842 444.050898944 3.6500030736842 437.245343744 3.6500030736842 432.163862528 9.3710098719298 427.082381312 15.137784724561 427.082381312 24.154091438596 427.082381312 33.170398152632 432.708306944 40.630591017544 438.334232576 48.136551936842 447.181454336 48.136551936842 452.671268864 48.136551936842 456.255527936 44.612411749123 L 456.255527936 52.347212940351 Q 456.255527936 59.532797478947 455.892564992 61.180447436842 455.574972416 62.828097394737 454.849046528 63.423082101754 454.12312064 64.018066808772 453.034231808 64.018066808772 451.85460224 64.018066808772 449.903676416 63.285777938596 L 449.313861632 64.887659842105 461.699972096 70.013681933333 463.741638656 70.013681933333 463.741638656 21.545312338596 Q 463.741638656 14.176655582456 464.059231232 12.529005624561 464.422194176 10.927123721053 465.148120064 10.286370959649 465.91941632 9.6456181982456 466.917564416 9.6456181982456 468.142564352 9.6456181982456 470.184230912 10.423675122807 L 470.68330496 8.8217932192982 458.342564864 3.6500030736842 456.255527936 3.6500030736842 456.255527936 9.6456181982456 Z M 456.255527936 12.849382005263 L 456.255527936 34.451903675439 Q 455.983305728 37.564131373684 454.622194688 40.127142419298 453.261083648 42.690153464912 450.992565248 43.971658987719 448.769417216 45.298932564912 446.63700992 45.298932564912 442.644417536 45.298932564912 439.513862144 41.683256268421 435.385158656 36.923378612281 435.385158656 27.769767735088 435.385158656 18.524620749123 439.37775104 13.581670875439 443.370343424 8.6844890561404 448.270343168 8.6844890561404 452.399046656 8.6844890561404 456.255527936 12.849382005263 Z "/>
<path id="p11" fill="rgb(0,0,0)" d="M 486.7897856 21.362240121053 L 485.065711616 21.362240121053 481.073119232 58.434364173684 Q 480.800897024 60.86007105614 480.800897024 62.050040470175 480.800897024 64.933427896491 482.298119168 66.672613963158 483.84071168 68.411800029825 485.973118976 68.411800029825 488.105526272 68.411800029825 489.557378048 66.672613963158 491.054600192 64.933427896491 491.054600192 61.500823817544 491.054600192 60.402390512281 490.87311872 58.434364173684 L 486.7897856 21.362240121053 Z M 485.88237824 13.764743092982 Q 487.969415168 13.764743092982 489.421266944 12.254397298246 490.918489088 10.789819557895 490.918489088 8.7302571105263 490.918489088 6.6249266087719 489.421266944 5.1145808140351 487.969415168 3.6500030736842 485.88237824 3.6500030736842 483.795341312 3.6500030736842 482.298119168 5.1145808140351 480.846267392 6.6249266087719 480.846267392 8.7302571105263 480.846267392 10.789819557895 482.298119168 12.254397298246 483.795341312 13.764743092982 485.88237824 13.764743092982 Z "/>
<path id="p12" fill="rgb(0,0,255)" d="M 0 -0.25 L 512 -0.25 512 0.25 0 0.25 Z "/>
<path id="p13" fill="rgb(0,0,255)" d="M 0 511.75 L 512 511.75 512 512.25 0 512.25 Z "/>
<path id="p14" fill="rgb(0,0,255)" d="M -0.25 0 L -0.25 512 0.25 512 0.25 0 Z "/>
<path id="p15" fill="rgb(0,0,255)" d="M 511.75 0 L 511.75 512 512.25 512 512.25 0 Z "/>
<path id="p16" fill="rgb(0,0,255)" d="M 0 255.75 L 512 255.75 512 256.25 0 256.25 Z "/>
<path id="p17" fill="rgb(0,0,255)" d="M 255.75 0 L 255.75 512 256.25 512 256.25 0 Z "/>
<path id="p18" fill="rgb(0,0,255)" d="M 0 127.75 L 256 127.75 256 128.25 0 128.25 Z "/>
<path id="p19" fill="rgb(0,0,255)" d="M 127.75 0 L 127.75 256 128.25 256 128.25 0 Z "/>
<path id="p20" fill="rgb(0,0,255)" d="M 0 63.75 L 128 63.75 128 64.25 0 64.25 Z "/>
<path id="p21" fill="rgb(0,0,255)" d="M 63.75 0 L 63.75 128 64.25 128 64.25 0 Z "/>
<path id="p22" fill="rgb(0,0,255)" d="M 0 31.75 L 64 31.75 64 32.25 0 32.25 Z "/>
<path id="p23" fill="rgb(0,0,255)" d="M 31.75 0 L 31.75 64 32.25 64 32.25 0 Z "/>
<path id="p24" fill="rgb(0,0,255)" d="M 0 15.75 L 32 15.75 32 16.25 0 16.25 Z "/>
<path id="p25" fill="rgb(0,0,255)" d="M 15.75 0 L 15.75 32 16.25 32 16.25 0 Z "/>
<path id="p26" fill="rgb(0,0,255)" d="M 16 7.75 L 32 7.75 32 8.25 16 8.25 Z "/>
<path id="p27" fill="rgb(0,0,255)" d="M 23.75 0 L 23.75 16 24.25 16 24.25 0 Z "/>
<path id="p28" fill="rgb(0,0,255)" d="M 24 3.75 L 32 3.75 32 4.25 24 4.25 Z "/>
<path id="p29" fill="rgb(0,0,255)" d="M 27.75 0 L 27.75 8 28.25 8 28.25 0 Z "/>
<path id="p30" fill="rgb(0,0,255)" d="M 32 15.75 L 64 15.75 64 16.25 32 16.25 Z "/>
<path id="p31" fill="rgb(0,0,255)" d="M 47.75 0 L 47.75 32 48.25 32 48.25 0 Z "/>
<path id="p32" fill="rgb(0,0,255)" d="M 32 7.75 L 48 7.75 48 8.25 32 8.25 Z "/>
<path id="p33" fill="rgb(0,0,255)" d="M 39.75 0 L 39.75 16 40.25 16 40.25 0 Z "/>
<path id="p34" fill="rgb(0,0,255)" d="M 32 3.75 L 40 3.75 40 4.25 32 4.25 Z "/>
<path id="p35" fill="rgb(0,0,255)" d="M 35.75 0 L 35.75 8 36.25 8 36.25 0 Z "/>
<path id="p36" fill="rgb(0,0,255)" d="M 40 3.75 L 48 3.75 48 4.25 40 4.25 Z "/>
<path id="p37" fill="rgb(0,0,255)" d="M 43.75 0 L 43.75 8 44.25 8 44.25 0 Z "/>
<path id="p38" fill="rgb(0,0,255)" d="M 32 11.75 L 40 11.75 40 12.25 32 12.25 Z "/>
<path id="p39" fill="rgb(0,0,255)" d="M 35.75 8 L 35.75 16 36.25 16 36.25 8 Z "/>
<path id="p40" fill="rgb(0,0,255)" d="M 40 11.75 L 48 11.75 48 12.25 40 12.25 Z "/>
<path id="p41" fill="rgb(0,0,255)" d="M 43.75 8 L 43.75 16 44.25 16 44.25 8 Z "/>
<path id="p42" fill="rgb(0,0,255)" d="M 48 7.75 L 64 7.75 64 8.25 48 8.25 Z "/>
<path id="p43" fill="rgb(0,0,255)" d="M 55.75 0 L 55.75 16 56.25 16 56.25 0 Z "/>
<path id="p44" fill="rgb(0,0,255)" d="M 48 3.75 L 56 3.75 56 4.25 48 4.25 Z "/>
<path id="p45" fill="rgb(0,0,255)" d="M 51.75 0 L 51.75 8 52.25 8 52.25 0 Z "/>
<path id="p46" fill="rgb(0,0,255)" d="M 56 3.75 L 64 3.75 64 4.25 56 4.25 Z "/>
<path id="p47" fill="rgb(0,0,255)" d="M 59.75 0 L 59.75 8 60.25 8 60.25 0 Z "/>
<path id="p48" fill="rgb(0,0,255)" d="M 32 47.75 L 64 47.75 64 48.25 32 48.25 Z "/>
<path id="p49" fill="rgb(0,0,255)" d="M 47.75 32 L 47.75 64 48.25 64 48.25 32 Z "/>
<path id="p50" fill="rgb(0,0,255)" d="M 32 39.75 L 48 39.75 48 40.25 32 40.25 Z "/>
<path id="p51" fill="rgb(0,0,255)" d="M 39.75 32 L 39.75 48 40.25 48 40.25 32 Z "/>
<path id="p52" fill="rgb(0,0,255)" d="M 40 35.75 L 48 35.75 48 36.25 40 36.25 Z "/>
<path id="p53" fill="rgb(0,0,255)" d="M 43.75 32 L 43.75 40 44.25 40 44.25 32 Z "/>
<path id="p54" fill="rgb(0,0,255)" d="M 32 55.75 L 48 55.75 48 56.25 32 56.25 Z "/>
<path id="p55" fill="rgb(0,0,255)" d="M 39.75 48 L 39.75 64 40.25 64 40.25 48 Z "/>
<path id="p56" fill="rgb(0,0,255)" d="M 32 51.75 L 40 51.75 40 52.25 32 52.25 Z "/>
<path id="p57" fill="rgb(0,0,255)" d="M 35.75 48 L 35.75 56 36.25 56 36.25 48 Z "/>
<path id="p58" fill="rgb(0,0,255)" d="M 40 51.75 L 48 51.75 48 52.25 40 52.25 Z "/>
<path id="p59" fill="rgb(0,0,255)" d="M 43.75 48 L 43.75 56 44.25 56 44.25 48 Z "/>
<path id="p60" fill="rgb(0,0,255)" d="M 32 59.75 L 40 59.75 40 60.25 32 60.25 Z "/>
<path id="p61" fill="rgb(0,0,255)" d="M 35.75 56 L 35.75 64 36.25 64 36.25 56 Z "/>
<path id="p62" fill="rgb(0,0,255)" d="M 40 59.75 L 48 59.75 48 60.25 40 60.25 Z "/>
<path id="p63" fill="rgb(0,0,255)" d="M 43.75 56 L 43.75 64 44.25 64 44.25 56 Z "/>
<path id="p64" fill="rgb(0,0,255)" d="M 64 31.75 L 128 31.75 128 32.25 64 32.25 Z "/>
<path id="p65" fill="rgb(0,0,255)" d="M 95.75 0 L 95.75 64 96.25 64 96.25 0 Z "/>
<path id="p66" fill="rgb(0,0,255)" d="M 64 15.75 L 96 15.75 96 16.25 64 16.25 Z "/>
<path id="p67" fill="rgb(0,0,255)" d="M 79.75 0 L 79.75 32 80.25 32 80.25 0 Z "/>
<path id="p68" fill="rgb(0,0,255)" d="M 64 7.75 L 80 7.75 80 8.25 64 8.25 Z "/>
<path id="p69" fill="rgb(0,0,255)" d="M 71.75 0 L 71.75 16 72.25 16 72.25 0 Z "/>
<path id="p70" fill="rgb(0,0,255)" d="M 64 3.75 L 72 3.75 72 4.25 64 4.25 Z "/>
<path id="p71" fill="rgb(0,0,255)" d="M 67.75 0 L 67.75 8 68.25 8 68.25 0 Z "/>
<path id="p72" fill="rgb(0,0,255)" d="M 64 11.75 L 72 11.75 72 12.25 64 12.25 Z "/>
<path id="p73" fill="rgb(0,0,255)" d="M 67.75 8 L 67.75 16 68.25 16 68.25 8 Z "/>
<path id="p74" fill="rgb(0,0,255)" d="M 80 7.75 L 96 7.75 96 8.25 80 8.25 Z "/>
<path id="p75" fill="rgb(0,0,255)" d="M 87.75 0 L 87.75 16 88.25 16 88.25 0 Z "/>
<path id="p76" fill="rgb(0,0,255)" d="M 80 3.75 L 88 3.75 88 4.25 80 4.25 Z "/>
<path id="p77" fill="rgb(0,0,255)" d="M 83.75 0 L 83.75 8 84.25 8 84.25 0 Z "/>
<path id="p78" fill="rgb(0,0,255)" d="M 88 3.75 L 96 3.75 96 4.25 88 4.25 Z "/>
<path id="p79" fill="rgb(0,0,255)" d="M 91.75 0 L 91.75 8 92.25 8 92.25 0 Z "/>
<path id="p80" fill="rgb(0,0,255)" d="M 80 11.75 L 88 11.75 88 12.25 80 12.25 Z "/>
<path id="p81" fill="rgb(0,0,255)" d="M 83.75 8 L 83.75 16 84.25 16 84.25 8 Z "/>
<path id="p82" fill="rgb(0,0,255)" d="M 80 23.75 L 96 23.75 96 24.25 80 24.25 Z "/>
<path id="p83" fill="rgb(0,0,255)" d="M 87.75 16 L 87.75 32 88.25 32 88.25 16 Z "/>
<path id="p84" fill="rgb(0,0,255)" d="M 88 19.75 L 96 19.75 96 20.25 88 20.25 Z "/>
<path id="p85" fill="rgb(0,0,255)" d="M 91.75 16 L 91.75 24 92.25 24 92.25 16 Z "/>
<path id="p86" fill="rgb(0,0,255)" d="M 88 27.75 L 96 27.75 96 28.25 88 28.25 Z "/>
<path id="p87" fill="rgb(0,0,255)" d="M 91.75 24 L 91.75 32 92.25 32 92.25 24 Z "/>
<path id="p88" fill="rgb(0,0,255)" d="M 96 15.75 L 128 15.75 128 16.25 96 16.25 Z "/>
<path id="p89" fill="rgb(0,0,255)" d="M 111.75 0 L 111.75 32 112.25 32 112.25 0 Z "/>
<path id="p90" fill="rgb(0,0,255)" d="M 96 7.75 L 112 7.75 112 8.25 96 8.25 Z "/>
<path id="p91" fill="rgb(0,0,255)" d="M 103.75 0 L 103.75 16 104.25 16 104.25 0 Z "/>
<path id="p92" fill="rgb(0,0,255)" d="M 96 3.75 L 104 3.75 104 4.25 96 4.25 Z "/>
<path id="p93" fill="rgb(0,0,255)" d="M 99.75 0 L 99.75 8 100.25 8 100.25 0 Z "/>
<path id="p94" fill="rgb(0,0,255)" d="M 104 3.75 L 112 3.75 112 4.25 104 4.25 Z "/>
<path id="p95" fill="rgb(0,0,255)" d="M 107.75 0 L 107.75 8 108.25 8 108.25 0 Z "/>
<path id="p96" fill="rgb(0,0,255)" d="M 96 11.75 L 104 11.75 104 12.25 96 12.25 Z "/>
<path id="p97" fill="rgb(0,0,255)" d="M 99.75 8 L 99.75 16 100.25 16 100.25 8 Z "/>
<path id="p98" fill="rgb(0,0,255)" d="M 104 11.75 L 112 11.75 112 12.25 104 12.25 Z "/>
<path id="p99" fill="rgb(0,0,255)" d="M 107.75 8 L 107.75 16 108.25 16 108.25 8 Z "/>
<path id="p100" fill="rgb(0,0,255)" d="M 112 7.75 L 128 7.75 128 8.25 112 8.25 Z "/>
<path id="p101" fill="rgb(0,0,255)" d="M 119.75 0 L 119.75 16 120.25 16 120.25 0 Z "/>
<path id="p102" fill="rgb(0,0,255)" d="M 112 3.75 L 120 3.75 120 4.25 112 4.25 Z "/>
<path id="p103" fill="rgb(0,0,255)" d="M 115.75 0 L 115.75 8 116.25 8 116.25 0 Z "/>
<path id="p104" fill="rgb(0,0,255)" d="M 120 3.75 L 128 3.75 128 4.25 120 4.25 Z "/>
<path id="p105" fill="rgb(0,0,255)" d="M 123.75 0 L 123.75 8 124.25 8 124.25 0 Z "/>
<path id="p106" fill="rgb(0,0,255)" d="M 112 11.75 L 120 11.75 120 12.25 112 12.25 Z "/>
<path id="p107" fill="rgb(0,0,255)" d="M 115.75 8 L 115.75 16 116.25 16 116.25 8 Z "/>
<path id="p108" fill="rgb(0,0,255)" d="M 120 11.75 L 128 11.75 128 12.25 120 12.25 Z "/>
<path id="p109" fill="rgb(0,0,255)" d="M 123.75 8 L 123.75 16 124.25 16 124.25 8 Z "/>
<path id="p110" fill="rgb(0,0,255)" d="M 96 23.75 L 112 23.75 112 24.25 96 24.25 Z "/>
<path id="p111" fill="rgb(0,0,255)" d="M 103.75 16 L 103.75 32 104.25 32 104.25 16 Z "/>
<path id="p112" fill="rgb(0,0,255)" d="M 96 19.75 L 104 19.75 104 20.25 96 20.25 Z "/>
<path id="p113" fill="rgb(0,0,255)" d="M 99.75 16 L 99.75 24 100.25 24 100.25 16 Z "/>
<path id="p114" fill="rgb(0,0,255)" d="M 104 19.75 L 112 19.75 112 20.25 104 20.25 Z "/>
<path id="p115" fill="rgb(0,0,255)" d="M 107.75 16 L 107.75 24 108.25 24 108.25 16 Z "/>
<path id="p116" fill="rgb(0,0,255)" d="M 96 27.75 L 104 27.75 104 28.25 96 28.25 Z "/>
<path id="p117" fill="rgb(0,0,255)" d="M 99.75 24 L 99.75 32 100.25 32 100.25 24 Z "/>
<path id="p118" fill="rgb(0,0,255)" d="M 112 23.75 L 128 23.75 128 24.25 112 24.25 Z "/>
<path id="p119" fill="rgb(0,0,255)" d="M 119.75 16 L 119.75 32 120.25 32 120.25 16 Z "/>
<path id="p120" fill="rgb(0,0,255)" d="M 120 19.75 L 128 19.75 128 20.25 120 20.25 Z "/>
<path id="p121" fill="rgb(0,0,255)" d="M 123.75 16 L 123.75 24 124.25 24 124.25 16 Z "/>
<path id="p122" fill="rgb(0,0,255)" d="M 64 47.75 L 96 47.75 96 48.25 64 48.25 Z "/>
<path id="p123" fill="rgb(0,0,255)" d="M 79.75 32 L 79.75 64 80.25 64 80.25 32 Z "/>
<path id="p124" fill="rgb(0,0,255)" d="M 64 39.75 L 80 39.75 80 40.25 64 40.25 Z "/>
<path id="p125" fill="rgb(0,0,255)" d="M 71.75 32 L 71.75 48 72.25 48 72.25 32 Z "/>
<path id="p126" fill="rgb(0,0,255)" d="M 64 35.75 L 72 35.75 72 36.25 64 36.25 Z "/>
<path id="p127" fill="rgb(0,0,255)" d="M 67.75 32 L 67.75 40 68.25 40 68.25 32 Z "/>
<path id="p128" fill="rgb(0,0,255)" d="M 80 39.75 L 96 39.75 96 40.25 80 40.25 Z "/>
<path id="p129" fill="rgb(0,0,255)" d="M 87.75 32 L 87.75 48 88.25 48 88.25 32 Z "/>
<path id="p130" fill="rgb(0,0,255)" d="M 88 35.75 L 96 35.75 96 36.25 88 36.25 Z "/>
<path id="p131" fill="rgb(0,0,255)" d="M 91.75 32 L 91.75 40 92.25 40 92.25 32 Z "/>
<path id="p132" fill="rgb(0,0,255)" d="M 64 55.75 L 80 55.75 80 56.25 64 56.25 Z "/>
<path id="p133" fill="rgb(0,0,255)" d="M 71.75 48 L 71.75 64 72.25 64 72.25 48 Z "/>
<path id="p134" fill="rgb(0,0,255)" d="M 64 51.75 L 72 51.75 72 52.25 64 52.25 Z "/>
<path id="p135" fill="rgb(0,0,255)" d="M 67.75 48 L 67.75 56 68.25 56 68.25 48 Z "/>
<path id="p136" fill="rgb(0,0,255)" d="M 64 59.75 L 72 59.75 72 60.25 64 60.25 Z "/>
<path id="p137" fill="rgb(0,0,255)" d="M 67.75 56 L 67.75 64 68.25 64 68.25 56 Z "/>
<path id="p138" fill="rgb(0,0,255)" d="M 80 55.75 L 96 55.75 96 56.25 80 56.25 Z "/>
<path id="p139" fill="rgb(0,0,255)" d="M 87.75 48 L 87.75 64 88.25 64 88.25 48 Z "/>
<path id="p140" fill="rgb(0,0,255)" d="M 80 51.75 L 88 51.75 88 52.25 80 52.25 Z "/>
<path id="p141" fill="rgb(0,0,255)" d="M 83.75 48 L 83.75 56 84.25 56 84.25 48 Z "/>
<path id="p142" fill="rgb(0,0,255)" d="M 80 59.75 L 88 59.75 88 60.25 80 60.25 Z "/>
<path id="p143" fill="rgb(0,0,255)" d="M 83.75 56 L 83.75 64 84.25 64 84.25 56 Z "/>
<path id="p144" fill="rgb(0,0,255)" d="M 96 47.75 L 128 47.75 128 48.25 96 48.25 Z "/>
<path id="p145" fill="rgb(0,0,255)" d="M 111.75 32 L 111.75 64 112.25 64 112.25 32 Z "/>
<path id="p146" fill="rgb(0,0,255)" d="M 96 39.75 L 112 39.75 112 40.25 96 40.25 Z "/>
<path id="p147" fill="rgb(0,0,255)" d="M 103.75 32 L 103.75 48 104.25 48 104.25 32 Z "/>
<path id="p148" fill="rgb(0,0,255)" d="M 96 35.75 L 104 35.75 104 36.25 96 36.25 Z "/>
<path id="p149" fill="rgb(0,0,255)" d="M 99.75 32 L 99.75 40 100.25 40 100.25 32 Z "/>
<path id="p150" fill="rgb(0,0,255)" d="M 96 43.75 L 104 43.75 104 44.25 96 44.25 Z "/>
<path id="p151" fill="rgb(0,0,255)" d="M 99.75 40 L 99.75 48 100.25 48 100.25 40 Z "/>
<path id="p152" fill="rgb(0,0,255)" d="M 104 43.75 L 112 43.75 112 44.25 104 44.25 Z "/>
<path id="p153" fill="rgb(0,0,255)" d="M 107.75 40 L 107.75 48 108.25 48 108.25 40 Z "/>
<path id="p154" fill="rgb(0,0,255)" d="M 112 39.75 L 128 39.75 128 40.25 112 40.25 Z "/>
<path id="p155" fill="rgb(0,0,255)" d="M 119.75 32 L 119.75 48 120.25 48 120.25 32 Z "/>
<path id="p156" fill="rgb(0,0,255)" d="M 112 35.75 L 120 35.75 120 36.25 112 36.25 Z "/>
<path id="p157" fill="rgb(0,0,255)" d="M 115.75 32 L 115.75 40 116.25 40 116.25 32 Z "/>
<path id="p158" fill="rgb(0,0,255)" d="M 120 35.75 L 128 35.75 128 36.25 120 36.25 Z "/>
<path id="p159" fill="rgb(0,0,255)" d="M 123.75 32 L 123.75 40 124.25 40 124.25 32 Z "/>
<path id="p160" fill="rgb(0,0,255)" d="M 112 43.75 L 120 43.75 120 44.25 112 44.25 Z "/>
<path id="p161" fill="rgb(0,0,255)" d="M 115.75 40 L 115.75 48 116.25 48 116.25 40 Z "/>
<path id="p162" fill="rgb(0,0,255)" d="M 120 43.75 L 128 43.75 128 44.25 120 44.25 Z "/>
<path id="p163" fill="rgb(0,0,255)" d="M 123.75 40 L 123.75 48 124.25 48 124.25 40 Z "/>
<path id="p164" fill="rgb(0,0,255)" d="M 96 55.75 L 112 55.75 112 56.25 96 56.25 Z "/>
<path id="p165" fill="rgb(0,0,255)" d="M 103.75 48 L 103.75 64 104.25 64 104.25 48 Z "/>
<path id="p166" fill="rgb(0,0,255)" d="M 104 51.75 L 112 51.75 112 52.25 104 52.25 Z "/>
<path id="p167" fill="rgb(0,0,255)" d="M 107.75 48 L 107.75 56 108.25 56 108.25 48 Z "/>
<path id="p168" fill="rgb(0,0,255)" d="M 112 55.75 L 128 55.75 128 56.25 112 56.25 Z "/>
<path id="p169" fill="rgb(0,0,255)" d="M 119.75 48 L 119.75 64 120.25 64 120.25 48 Z "/>
<path id="p170" fill="rgb(0,0,255)" d="M 112 51.75 L 120 51.75 120 52.25 112 52.25 Z "/>
<path id="p171" fill="rgb(0,0,255)" d="M 115.75 48 L 115.75 56 116.25 56 116.25 48 Z "/>
<path id="p172" fill="rgb(0,0,255)" d="M 0 95.75 L 64 95.75 64 96.25 0 96.25 Z "/>
<path id="p173" fill="rgb(0,0,255)" d="M 31.75 64 L 31.75 128 32.25 128 32.25 64 Z "/>
<path id="p174" fill="rgb(0,0,255)" d="M 0 79.75 L 32 79.75 32 80.25 0 80.25 Z "/>
<path id="p175" fill="rgb(0,0,255)" d="M 15.75 64 L 15.75 96 16.25 96 16.25 64 Z "/>
<path id="p176" fill="rgb(0,0,255)" d="M 16 71.75 L 32 71.75 32 72.25 16 72.25 Z "/>
<path id="p177" fill="rgb(0,0,255)" d="M 23.75 64 L 23.75 80 24.25 80 24.25 64 Z "/>
<path id="p178" fill="rgb(0,0,255)" d="M 24 67.75 L 32 67.75 32 68.25 24 68.25 Z "/>
<path id="p179" fill="rgb(0,0,255)" d="M 27.75 64 L 27.75 72 28.25 72 28.25 64 Z "/>
<path id="p180" fill="rgb(0,0,255)" d="M 32 79.75 L 64 79.75 64 80.25 32 80.25 Z "/>
<path id="p181" fill="rgb(0,0,255)" d="M 47.75 64 L 47.75 96 48.25 96 48.25 64 Z "/>
<path id="p182" fill="rgb(0,0,255)" d="M 32 71.75 L 48 71.75 48 72.25 32 72.25 Z "/>
<path id="p183" fill="rgb(0,0,255)" d="M 39.75 64 L 39.75 80 40.25 80 40.25 64 Z "/>
<path id="p184" fill="rgb(0,0,255)" d="M 32 67.75 L 40 67.75 40 68.25 32 68.25 Z "/>
<path id="p185" fill="rgb(0,0,255)" d="M 35.75 64 L 35.75 72 36.25 72 36.25 64 Z "/>
<path id="p186" fill="rgb(0,0,255)" d="M 40 67.75 L 48 67.75 48 68.25 40 68.25 Z "/>
<path id="p187" fill="rgb(0,0,255)" d="M 43.75 64 L 43.75 72 44.25 72 44.25 64 Z "/>
<path id="p188" fill="rgb(0,0,255)" d="M 48 71.75 L 64 71.75 64 72.25 48 72.25 Z "/>
<path id="p189" fill="rgb(0,0,255)" d="M 55.75 64 L 55.75 80 56.25 80 56.25 64 Z "/>
<path id="p190" fill="rgb(0,0,255)" d="M 48 67.75 L 56 67.75 56 68.25 48 68.25 Z "/>
<path id="p191" fill="rgb(0,0,255)" d="M 51.75 64 L 51.75 72 52.25 72 52.25 64 Z "/>
<path id="p192" fill="rgb(0,0,255)" d="M 56 67.75 L 64 67.75 64 68.25 56 68.25 Z "/>
<path id="p193" fill="rgb(0,0,255)" d="M 59.75 64 L 59.75 72 60.25 72 60.25 64 Z "/>
<path id="p194" fill="rgb(0,0,255)" d="M 64 95.75 L 128 95.75 128 96.25 64 96.25 Z "/>
<path id="p195" fill="rgb(0,0,255)" d="M 95.75 64 L 95.75 128 96.25 128 96.25 64 Z "/>
<path id="p196" fill="rgb(0,0,255)" d="M 64 79.75 L 96 79.75 96 80.25 64 80.25 Z "/>
<path id="p197" fill="rgb(0,0,255)" d="M 79.75 64 L 79.75 96 80.25 96 80.25 64 Z "/>
<path id="p198" fill="rgb(0,0,255)" d="M 64 71.75 L 80 71.75 80 72.25 64 72.25 Z "/>
<path id="p199" fill="rgb(0,0,255)" d="M 71.75 64 L 71.75 80 72.25 80 72.25 64 Z "/>
<path id="p200" fill="rgb(0,0,255)" d="M 64 67.75 L 72 67.75 72 68.25 64 68.25 Z "/>
<path id="p201" fill="rgb(0,0,255)" d="M 67.75 64 L 67.75 72 68.25 72 68.25 64 Z "/>
<path id="p202" fill="rgb(0,0,255)" d="M 80 71.75 L 96 71.75 96 72.25 80 72.25 Z "/>
<path id="p203" fill="rgb(0,0,255)" d="M 87.75 64 L 87.75 80 88.25 80 88.25 64 Z "/>
<path id="p204" fill="rgb(0,0,255)" d="M 80 67.75 L 88 67.75 88 68.25 80 68.25 Z "/>
<path id="p205" fill="rgb(0,0,255)" d="M 83.75 64 L 83.75 72 84.25 72 84.25 64 Z "/>
<path id="p206" fill="rgb(0,0,255)" d="M 88 67.75 L 96 67.75 96 68.25 88 68.25 Z "/>
<path id="p207" fill="rgb(0,0,255)" d="M 91.75 64 L 91.75 72 92.25 72 92.25 64 Z "/>
<path id="p208" fill="rgb(0,0,255)" d="M 128 63.75 L 256 63.75 256 64.25 128 64.25 Z "/>
<path id="p209" fill="rgb(0,0,255)" d="M 191.75 0 L 191.75 128 192.25 128 192.25 0 Z "/>
<path id="p210" fill="rgb(0,0,255)" d="M 128 31.75 L 192 31.75 192 32.25 128 32.25 Z "/>
<path id="p211" fill="rgb(0,0,255)" d="M 159.75 0 L 159.75 64 160.25 64 160.25 0 Z "/>
<path id="p212" fill="rgb(0,0,255)" d="M 128 15.75 L 160 15.75 160 16.25 128 16.25 Z "/>
<path id="p213" fill="rgb(0,0,255)" d="M 143.75 0 L 143.75 32 144.25 32 144.25 0 Z "/>
<path id="p214" fill="rgb(0,0,255)" d="M 128 7.75 L 144 7.75 144 8.25 128 8.25 Z "/>
<path id="p215" fill="rgb(0,0,255)" d="M 135.75 0 L 135.75 16 136.25 16 136.25 0 Z "/>
<path id="p216" fill="rgb(0,0,255)" d="M 128 3.75 L 136 3.75 136 4.25 128 4.25 Z "/>
<path id="p217" fill="rgb(0,0,255)" d="M 131.75 0 L 131.75 8 132.25 8 132.25 0 Z "/>
<path id="p218" fill="rgb(0,0,255)" d="M 136 3.75 L 144 3.75 144 4.25 136 4.25 Z "/>
<path id="p219" fill="rgb(0,0,255)" d="M 139.75 0 L 139.75 8 140.25 8 140.25 0 Z "/>
<path id="p220" fill="rgb(0,0,255)" d="M 128 11.75 L 136 11.75 136 12.25 128 12.25 Z "/>
<path id="p221" fill="rgb(0,0,255)" d="M 131.75 8 L 131.75 16 132.25 16 132.25 8 Z "/>
<path id="p222" fill="rgb(0,0,255)" d="M 136 11.75 L 144 11.75 144 12.25 136 12.25 Z "/>
<path id="p223" fill="rgb(0,0,255)" d="M 139.75 8 L 139.75 16 140.25 16 140.25 8 Z "/>
<path id="p224" fill="rgb(0,0,255)" d="M 144 7.75 L 160 7.75 160 8.25 144 8.25 Z "/>
<path id="p225" fill="rgb(0,0,255)" d="M 151.75 0 L 151.75 16 152.25 16 152.25 0 Z "/>
<path id="p226" fill="rgb(0,0,255)" d="M 144 3.75 L 152 3.75 152 4.25 144 4.25 Z "/>
<path id="p227" fill="rgb(0,0,255)" d="M 147.75 0 L 147.75 8 148.25 8 148.25 0 Z "/>
<path id="p228" fill="rgb(0,0,255)" d="M 152 3.75 L 160 3.75 160 4.25 152 4.25 Z "/>
<path id="p229" fill="rgb(0,0,255)" d="M 155.75 0 L 155.75 8 156.25 8 156.25 0 Z "/>
<path id="p230" fill="rgb(0,0,255)" d="M 144 11.75 L 152 11.75 152 12.25 144 12.25 Z "/>
<path id="p231" fill="rgb(0,0,255)" d="M 147.75 8 L 147.75 16 148.25 16 148.25 8 Z "/>
<path id="p232" fill="rgb(0,0,255)" d="M 128 23.75 L 144 23.75 144 24.25 128 24.25 Z "/>
<path id="p233" fill="rgb(0,0,255)" d="M 135.75 16 L 135.75 32 136.25 32 136.25 16 Z "/>
<path id="p234" fill="rgb(0,0,255)" d="M 128 19.75 L 136 19.75 136 20.25 128 20.25 Z "/>
<path id="p235" fill="rgb(0,0,255)" d="M 131.75 16 L 131.75 24 132.25 24 132.25 16 Z "/>
<path id="p236" fill="rgb(0,0,255)" d="M 128 27.75 L 136 27.75 136 28.25 128 28.25 Z "/>
<path id="p237" fill="rgb(0,0,255)" d="M 131.75 24 L 131.75 32 132.25 32 132.25 24 Z "/>
<path id="p238" fill="rgb(0,0,255)" d="M 160 15.75 L 192 15.75 192 16.25 160 16.25 Z "/>
<path id="p239" fill="rgb(0,0,255)" d="M 175.75 0 L 175.75 32 176.25 32 176.25 0 Z "/>
<path id="p240" fill="rgb(0,0,255)" d="M 160 7.75 L 176 7.75 176 8.25 160 8.25 Z "/>
<path id="p241" fill="rgb(0,0,255)" d="M 167.75 0 L 167.75 16 168.25 16 168.25 0 Z "/>
<path id="p242" fill="rgb(0,0,255)" d="M 160 3.75 L 168 3.75 168 4.25 160 4.25 Z "/>
<path id="p243" fill="rgb(0,0,255)" d="M 163.75 0 L 163.75 8 164.25 8 164.25 0 Z "/>
<path id="p244" fill="rgb(0,0,255)" d="M 160 11.75 L 168 11.75 168 12.25 160 12.25 Z "/>
<path id="p245" fill="rgb(0,0,255)" d="M 163.75 8 L 163.75 16 164.25 16 164.25 8 Z "/>
<path id="p246" fill="rgb(0,0,255)" d="M 168 11.75 L 176 11.75 176 12.25 168 12.25 Z "/>
<path id="p247" fill="rgb(0,0,255)" d="M 171.75 8 L 171.75 16 172.25 16 172.25 8 Z "/>
<path id="p248" fill="rgb(0,0,255)" d="M 176 7.75 L 192 7.75 192 8.25 176 8.25 Z "/>
<path id="p249" fill="rgb(0,0,255)" d="M 183.75 0 L 183.75 16 184.25 16 184.25 0 Z "/>
<path id="p250" fill="rgb(0,0,255)" d="M 176 3.75 L 184 3.75 184 4.25 176 4.25 Z "/>
<path id="p251" fill="rgb(0,0,255)" d="M 179.75 0 L 179.75 8 180.25 8 180.25 0 Z "/>
<path id="p252" fill="rgb(0,0,255)" d="M 176 11.75 L 184 11.75 184 12.25 176 12.25 Z "/>
<path id="p253" fill="rgb(0,0,255)" d="M 179.75 8 L 179.75 16 180.25 16 180.25 8 Z "/>
<path id="p254" fill="rgb(0,0,255)" d="M 184 11.75 L 192 11.75 192 12.25 184 12.25 Z "/>
<path id="p255" fill="rgb(0,0,255)" d="M 187.75 8 L 187.75 16 188.25 16 188.25 8 Z "/>
<path id="p256" fill="rgb(0,0,255)" d="M 176 23.75 L 192 23.75 192 24.25 176 24.25 Z "/>
<path id="p257" fill="rgb(0,0,255)" d="M 183.75 16 L 183.75 32 184.25 32 184.25 16 Z "/>
<path id="p258" fill="rgb(0,0,255)" d="M 184 19.75 L 192 19.75 192 20.25 184 20.25 Z "/>
<path id="p259" fill="rgb(0,0,255)" d="M 187.75 16 L 187.75 24 188.25 24 188.25 16 Z "/>
<path id="p260" fill="rgb(0,0,255)" d="M 184 27.75 L 192 27.75 192 28.25 184 28.25 Z "/>
<path id="p261" fill="rgb(0,0,255)" d="M 187.75 24 L 187.75 32 188.25 32 188.25 24 Z "/>
<path id="p262" fill="rgb(0,0,255)" d="M 128 47.75 L 160 47.75 160 48.25 128 48.25 Z "/>
<path id="p263" fill="rgb(0,0,255)" d="M 143.75 32 L 143.75 64 144.25 64 144.25 32 Z "/>
<path id="p264" fill="rgb(0,0,255)" d="M 128 39.75 L 144 39.75 144 40.25 128 40.25 Z "/>
<path id="p265" fill="rgb(0,0,255)" d="M 135.75 32 L 135.75 48 136.25 48 136.25 32 Z "/>
<path id="p266" fill="rgb(0,0,255)" d="M 128 35.75 L 136 35.75 136 36.25 128 36.25 Z "/>
<path id="p267" fill="rgb(0,0,255)" d="M 131.75 32 L 131.75 40 132.25 40 132.25 32 Z "/>
<path id="p268" fill="rgb(0,0,255)" d="M 128 55.75 L 144 55.75 144 56.25 128 56.25 Z "/>
<path id="p269" fill="rgb(0,0,255)" d="M 135.75 48 L 135.75 64 136.25 64 136.25 48 Z "/>
<path id="p270" fill="rgb(0,0,255)" d="M 136 51.75 L 144 51.75 144 52.25 136 52.25 Z "/>
<path id="p271" fill="rgb(0,0,255)" d="M 139.75 48 L 139.75 56 140.25 56 140.25 48 Z "/>
<path id="p272" fill="rgb(0,0,255)" d="M 128 59.75 L 136 59.75 136 60.25 128 60.25 Z "/>
<path id="p273" fill="rgb(0,0,255)" d="M 131.75 56 L 131.75 64 132.25 64 132.25 56 Z "/>
<path id="p274" fill="rgb(0,0,255)" d="M 136 59.75 L 144 59.75 144 60.25 136 60.25 Z "/>
<path id="p275" fill="rgb(0,0,255)" d="M 139.75 56 L 139.75 64 140.25 64 140.25 56 Z "/>
<path id="p276" fill="rgb(0,0,255)" d="M 160 47.75 L 192 47.75 192 48.25 160 48.25 Z "/>
<path id="p277" fill="rgb(0,0,255)" d="M 175.75 32 L 175.75 64 176.25 64 176.25 32 Z "/>
<path id="p278" fill="rgb(0,0,255)" d="M 176 39.75 L 192 39.75 192 40.25 176 40.25 Z "/>
<path id="p279" fill="rgb(0,0,255)" d="M 183.75 32 L 183.75 48 184.25 48 184.25 32 Z "/>
<path id="p280" fill="rgb(0,0,255)" d="M 184 35.75 L 192 35.75 192 36.25 184 36.25 Z "/>
<path id="p281" fill="rgb(0,0,255)" d="M 187.75 32 L 187.75 40 188.25 40 188.25 32 Z "/>
<path id="p282" fill="rgb(0,0,255)" d="M 184 43.75 L 192 43.75 192 44.25 184 44.25 Z "/>
<path id="p283" fill="rgb(0,0,255)" d="M 187.75 40 L 187.75 48 188.25 48 188.25 40 Z "/>
<path id="p284" fill="rgb(0,0,255)" d="M 160 55.75 L 176 55.75 176 56.25 160 56.25 Z "/>
<path id="p285" fill="rgb(0,0,255)" d="M 167.75 48 L 167.75 64 168.25 64 168.25 48 Z "/>
<path id="p286" fill="rgb(0,0,255)" d="M 160 51.75 L 168 51.75 168 52.25 160 52.25 Z "/>
<path id="p287" fill="rgb(0,0,255)" d="M 163.75 48 L 163.75 56 164.25 56 164.25 48 Z "/>
<path id="p288" fill="rgb(0,0,255)" d="M 160 59.75 L 168 59.75 168 60.25 160 60.25 Z "/>
<path id="p289" fill="rgb(0,0,255)" d="M 163.75 56 L 163.75 64 164.25 64 164.25 56 Z "/>
<path id="p290" fill="rgb(0,0,255)" d="M 192 31.75 L 256 31.75 256 32.25 192 32.25 Z "/>
<path id="p291" fill="rgb(0,0,255)" d="M 223.75 0 L 223.75 64 224.25 64 224.25 0 Z "/>
<path id="p292" fill="rgb(0,0,255)" d="M 192 15.75 L 224 15.75 224 16.25 192 16.25 Z "/>
<path id="p293" fill="rgb(0,0,255)" d="M 207.75 0 L 207.75 32 208.25 32 208.25 0 Z "/>
<path id="p294" fill="rgb(0,0,255)" d="M 192 7.75 L 208 7.75 208 8.25 192 8.25 Z "/>
<path id="p295" fill="rgb(0,0,255)" d="M 199.75 0 L 199.75 16 200.25 16 200.25 0 Z "/>
<path id="p296" fill="rgb(0,0,255)" d="M 192 3.75 L 200 3.75 200 4.25 192 4.25 Z "/>
<path id="p297" fill="rgb(0,0,255)" d="M 195.75 0 L 195.75 8 196.25 8 196.25 0 Z "/>
<path id="p298" fill="rgb(0,0,255)" d="M 200 3.75 L 208 3.75 208 4.25 200 4.25 Z "/>
<path id="p299" fill="rgb(0,0,255)" d="M 203.75 0 L 203.75 8 204.25 8 204.25 0 Z "/>
<path id="p300" fill="rgb(0,0,255)" d="M 192 11.75 L 200 11.75 200 12.25 192 12.25 Z "/>
<path id="p301" fill="rgb(0,0,255)" d="M 195.75 8 L 195.75 16 196.25 16 196.25 8 Z "/>
<path id="p302" fill="rgb(0,0,255)" d="M 200 11.75 L 208 11.75 208 12.25 200 12.25 Z "/>
<path id="p303" fill="rgb(0,0,255)" d="M 203.75 8 L 203.75 16 204.25 16 204.25 8 Z "/>
<path id="p304" fill="rgb(0,0,255)" d="M 208 7.75 L 224 7.75 224 8.25 208 8.25 Z "/>
<path id="p305" fill="rgb(0,0,255)" d="M 215.75 0 L 215.75 16 216.25 16 216.25 0 Z "/>
<path id="p306" fill="rgb(0,0,255)" d="M 208 3.75 L 216 3.75 216 4.25 208 4.25 Z "/>
<path id="p307" fill="rgb(0,0,255)" d="M 211.75 0 L 211.75 8 212.25 8 212.25 0 Z "/>
<path id="p308" fill="rgb(0,0,255)" d="M 216 3.75 L 224 3.75 224 4.25 216 4.25 Z "/>
<path id="p309" fill="rgb(0,0,255)" d="M 219.75 0 L 219.75 8 220.25 8 220.25 0 Z "/>
<path id="p310" fill="rgb(0,0,255)" d="M 208 11.75 L 216 11.75 216 12.25 208 12.25 Z "/>
<path id="p311" fill="rgb(0,0,255)" d="M 211.75 8 L 211.75 16 212.25 16 212.25 8 Z "/>
<path id="p312" fill="rgb(0,0,255)" d="M 216 11.75 L 224 11.75 224 12.25 216 12.25 Z "/>
<path id="p313" fill="rgb(0,0,255)" d="M 219.75 8 L 219.75 16 220.25 16 220.25 8 Z "/>
<path id="p314" fill="rgb(0,0,255)" d="M 192 23.75 L 208 23.75 208 24.25 192 24.25 Z "/>
<path id="p315" fill="rgb(0,0,255)" d="M 199.75 16 L 199.75 32 200.25 32 200.25 16 Z "/>
<path id="p316" fill="rgb(0,0,255)" d="M 192 19.75 L 200 19.75 200 20.25 192 20.25 Z "/>
<path id="p317" fill="rgb(0,0,255)" d="M 195.75 16 L 195.75 24 196.25 24 196.25 16 Z "/>
<path id="p318" fill="rgb(0,0,255)" d="M 192 27.75 L 200 27.75 200 28.25 192 28.25 Z "/>
<path id="p319" fill="rgb(0,0,255)" d="M 195.75 24 L 195.75 32 196.25 32 196.25 24 Z "/>
<path id="p320" fill="rgb(0,0,255)" d="M 208 23.75 L 224 23.75 224 24.25 208 24.25 Z "/>
<path id="p321" fill="rgb(0,0,255)" d="M 215.75 16 L 215.75 32 216.25 32 216.25 16 Z "/>
<path id="p322" fill="rgb(0,0,255)" d="M 216 19.75 L 224 19.75 224 20.25 216 20.25 Z "/>
<path id="p323" fill="rgb(0,0,255)" d="M 219.75 16 L 219.75 24 220.25 24 220.25 16 Z "/>
<path id="p324" fill="rgb(0,0,255)" d="M 216 27.75 L 224 27.75 224 28.25 216 28.25 Z "/>
<path id="p325" fill="rgb(0,0,255)" d="M 219.75 24 L 219.75 32 220.25 32 220.25 24 Z "/>
<path id="p326" fill="rgb(0,0,255)" d="M 224 15.75 L 256 15.75 256 16.25 224 16.25 Z "/>
<path id="p327" fill="rgb(0,0,255)" d="M 239.75 0 L 239.75 32 240.25 32 240.25 0 Z "/>
<path id="p328" fill="rgb(0,0,255)" d="M 224 7.75 L 240 7.75 240 8.25 224 8.25 Z "/>
<path id="p329" fill="rgb(0,0,255)" d="M 231.75 0 L 231.75 16 232.25 16 232.25 0 Z "/>
<path id="p330" fill="rgb(0,0,255)" d="M 224 11.75 L 232 11.75 232 12.25 224 12.25 Z "/>
<path id="p331" fill="rgb(0,0,255)" d="M 227.75 8 L 227.75 16 228.25 16 228.25 8 Z "/>
<path id="p332" fill="rgb(0,0,255)" d="M 224 23.75 L 240 23.75 240 24.25 224 24.25 Z "/>
<path id="p333" fill="rgb(0,0,255)" d="M 231.75 16 L 231.75 32 232.25 32 232.25 16 Z "/>
<path id="p334" fill="rgb(0,0,255)" d="M 224 19.75 L 232 19.75 232 20.25 224 20.25 Z "/>
<path id="p335" fill="rgb(0,0,255)" d="M 227.75 16 L 227.75 24 228.25 24 228.25 16 Z "/>
<path id="p336" fill="rgb(0,0,255)" d="M 224 27.75 L 232 27.75 232 28.25 224 28.25 Z "/>
<path id="p337" fill="rgb(0,0,255)" d="M 227.75 24 L 227.75 32 228.25 32 228.25 24 Z "/>
<path id="p338" fill="rgb(0,0,255)" d="M 192 47.75 L 224 47.75 224 48.25 192 48.25 Z "/>
<path id="p339" fill="rgb(0,0,255)" d="M 207.75 32 L 207.75 64 208.25 64 208.25 32 Z "/>
<path id="p340" fill="rgb(0,0,255)" d="M 192 39.75 L 208 39.75 208 40.25 192 40.25 Z "/>
<path id="p341" fill="rgb(0,0,255)" d="M 199.75 32 L 199.75 48 200.25 48 200.25 32 Z "/>
<path id="p342" fill="rgb(0,0,255)" d="M 192 35.75 L 200 35.75 200 36.25 192 36.25 Z "/>
<path id="p343" fill="rgb(0,0,255)" d="M 195.75 32 L 195.75 40 196.25 40 196.25 32 Z "/>
<path id="p344" fill="rgb(0,0,255)" d="M 192 43.75 L 200 43.75 200 44.25 192 44.25 Z "/>
<path id="p345" fill="rgb(0,0,255)" d="M 195.75 40 L 195.75 48 196.25 48 196.25 40 Z "/>
<path id="p346" fill="rgb(0,0,255)" d="M 200 43.75 L 208 43.75 208 44.25 200 44.25 Z "/>
<path id="p347" fill="rgb(0,0,255)" d="M 203.75 40 L 203.75 48 204.25 48 204.25 40 Z "/>
<path id="p348" fill="rgb(0,0,255)" d="M 208 39.75 L 224 39.75 224 40.25 208 40.25 Z "/>
<path id="p349" fill="rgb(0,0,255)" d="M 215.75 32 L 215.75 48 216.25 48 216.25 32 Z "/>
<path id="p350" fill="rgb(0,0,255)" d="M 208 35.75 L 216 35.75 216 36.25 208 36.25 Z "/>
<path id="p351" fill="rgb(0,0,255)" d="M 211.75 32 L 211.75 40 212.25 40 212.25 32 Z "/>
<path id="p352" fill="rgb(0,0,255)" d="M 216 35.75 L 224 35.75 224 36.25 216 36.25 Z "/>
<path id="p353" fill="rgb(0,0,255)" d="M 219.75 32 L 219.75 40 220.25 40 220.25 32 Z "/>
<path id="p354" fill="rgb(0,0,255)" d="M 208 43.75 L 216 43.75 216 44.25 208 44.25 Z "/>
<path id="p355" fill="rgb(0,0,255)" d="M 211.75 40 L 211.75 48 212.25 48 212.25 40 Z "/>
<path id="p356" fill="rgb(0,0,255)" d="M 216 43.75 L 224 43.75 224 44.25 216 44.25 Z "/>
<path id="p357" fill="rgb(0,0,255)" d="M 219.75 40 L 219.75 48 220.25 48 220.25 40 Z "/>
<path id="p358" fill="rgb(0,0,255)" d="M 192 55.75 L 208 55.75 208 56.25 192 56.25 Z "/>
<path id="p359" fill="rgb(0,0,255)" d="M 199.75 48 L 199.75 64 200.25 64 200.25 48 Z "/>
<path id="p360" fill="rgb(0,0,255)" d="M 200 51.75 L 208 51.75 208 52.25 200 52.25 Z "/>
<path id="p361" fill="rgb(0,0,255)" d="M 203.75 48 L 203.75 56 204.25 56 204.25 48 Z "/>
<path id="p362" fill="rgb(0,0,255)" d="M 208 55.75 L 224 55.75 224 56.25 208 56.25 Z "/>
<path id="p363" fill="rgb(0,0,255)" d="M 215.75 48 L 215.75 64 216.25 64 216.25 48 Z "/>
<path id="p364" fill="rgb(0,0,255)" d="M 208 51.75 L 216 51.75 216 52.25 208 52.25 Z "/>
<path id="p365" fill="rgb(0,0,255)" d="M 211.75 48 L 211.75 56 212.25 56 212.25 48 Z "/>
<path id="p366" fill="rgb(0,0,255)" d="M 224 47.75 L 256 47.75 256 48.25 224 48.25 Z "/>
<path id="p367" fill="rgb(0,0,255)" d="M 239.75 32 L 239.75 64 240.25 64 240.25 32 Z "/>
<path id="p368" fill="rgb(0,0,255)" d="M 224 39.75 L 240 39.75 240 40.25 224 40.25 Z "/>
<path id="p369" fill="rgb(0,0,255)" d="M 231.75 32 L 231.75 48 232.25 48 232.25 32 Z "/>
<path id="p370" fill="rgb(0,0,255)" d="M 224 35.75 L 232 35.75 232 36.25 224 36.25 Z "/>
<path id="p371" fill="rgb(0,0,255)" d="M 227.75 32 L 227.75 40 228.25 40 228.25 32 Z "/>
<path id="p372" fill="rgb(0,0,255)" d="M 240 39.75 L 256 39.75 256 40.25 240 40.25 Z "/>
<path id="p373" fill="rgb(0,0,255)" d="M 247.75 32 L 247.75 48 248.25 48 248.25 32 Z "/>
<path id="p374" fill="rgb(0,0,255)" d="M 248 43.75 L 256 43.75 256 44.25 248 44.25 Z "/>
<path id="p375" fill="rgb(0,0,255)" d="M 251.75 40 L 251.75 48 252.25 48 252.25 40 Z "/>
<path id="p376" fill="rgb(0,0,255)" d="M 128 95.75 L 192 95.75 192 96.25 128 96.25 Z "/>
<path id="p377" fill="rgb(0,0,255)" d="M 159.75 64 L 159.75 128 160.25 128 160.25 64 Z "/>
<path id="p378" fill="rgb(0,0,255)" d="M 128 79.75 L 160 79.75 160 80.25 128 80.25 Z "/>
<path id="p379" fill="rgb(0,0,255)" d="M 143.75 64 L 143.75 96 144.25 96 144.25 64 Z "/>
<path id="p380" fill="rgb(0,0,255)" d="M 128 71.75 L 144 71.75 144 72.25 128 72.25 Z "/>
<path id="p381" fill="rgb(0,0,255)" d="M 135.75 64 L 135.75 80 136.25 80 136.25 64 Z "/>
<path id="p382" fill="rgb(0,0,255)" d="M 128 67.75 L 136 67.75 136 68.25 128 68.25 Z "/>
<path id="p383" fill="rgb(0,0,255)" d="M 131.75 64 L 131.75 72 132.25 72 132.25 64 Z "/>
<path id="p384" fill="rgb(0,0,255)" d="M 136 67.75 L 144 67.75 144 68.25 136 68.25 Z "/>
<path id="p385" fill="rgb(0,0,255)" d="M 139.75 64 L 139.75 72 140.25 72 140.25 64 Z "/>
<path id="p386" fill="rgb(0,0,255)" d="M 144 71.75 L 160 71.75 160 72.25 144 72.25 Z "/>
<path id="p387" fill="rgb(0,0,255)" d="M 151.75 64 L 151.75 80 152.25 80 152.25 64 Z "/>
<path id="p388" fill="rgb(0,0,255)" d="M 144 67.75 L 152 67.75 152 68.25 144 68.25 Z "/>
<path id="p389" fill="rgb(0,0,255)" d="M 147.75 64 L 147.75 72 148.25 72 148.25 64 Z "/>
<path id="p390" fill="rgb(0,0,255)" d="M 160 79.75 L 192 79.75 192 80.25 160 80.25 Z "/>
<path id="p391" fill="rgb(0,0,255)" d="M 175.75 64 L 175.75 96 176.25 96 176.25 64 Z "/>
<path id="p392" fill="rgb(0,0,255)" d="M 160 71.75 L 176 71.75 176 72.25 160 72.25 Z "/>
<path id="p393" fill="rgb(0,0,255)" d="M 167.75 64 L 167.75 80 168.25 80 168.25 64 Z "/>
<path id="p394" fill="rgb(0,0,255)" d="M 160 67.75 L 168 67.75 168 68.25 160 68.25 Z "/>
<path id="p395" fill="rgb(0,0,255)" d="M 163.75 64 L 163.75 72 164.25 72 164.25 64 Z "/>
<path id="p396" fill="rgb(0,0,255)" d="M 168 67.75 L 176 67.75 176 68.25 168 68.25 Z "/>
<path id="p397" fill="rgb(0,0,255)" d="M 171.75 64 L 171.75 72 172.25 72 172.25 64 Z "/>
<path id="p398" fill="rgb(0,0,255)" d="M 256 127.75 L 512 127.75 512 128.25 256 128.25 Z "/>
<path id="p399" fill="rgb(0,0,255)" d="M 383.75 0 L 383.75 256 384.25 256 384.25 0 Z "/>
<path id="p400" fill="rgb(0,0,255)" d="M 256 63.75 L 384 63.75 384 64.25 256 64.25 Z "/>
<path id="p401" fill="rgb(0,0,255)" d="M 319.75 0 L 319.75 128 320.25 128 320.25 0 Z "/>
<path id="p402" fill="rgb(0,0,255)" d="M 256 31.75 L 320 31.75 320 32.25 256 32.25 Z "/>
<path id="p403" fill="rgb(0,0,255)" d="M 287.75 0 L 287.75 64 288.25 64 288.25 0 Z "/>
<path id="p404" fill="rgb(0,0,255)" d="M 256 15.75 L 288 15.75 288 16.25 256 16.25 Z "/>
<path id="p405" fill="rgb(0,0,255)" d="M 271.75 0 L 271.75 32 272.25 32 272.25 0 Z "/>
<path id="p406" fill="rgb(0,0,255)" d="M 256 7.75 L 272 7.75 272 8.25 256 8.25 Z "/>
<path id="p407" fill="rgb(0,0,255)" d="M 263.75 0 L 263.75 16 264.25 16 264.25 0 Z "/>
<path id="p408" fill="rgb(0,0,255)" d="M 264 11.75 L 272 11.75 272 12.25 264 12.25 Z "/>
<path id="p409" fill="rgb(0,0,255)" d="M 267.75 8 L 267.75 16 268.25 16 268.25 8 Z "/>
<path id="p410" fill="rgb(0,0,255)" d="M 272 7.75 L 288 7.75 288 8.25 272 8.25 Z "/>
<path id="p411" fill="rgb(0,0,255)" d="M 279.75 0 L 279.75 16 280.25 16 280.25 0 Z "/>
<path id="p412" fill="rgb(0,0,255)" d="M 272 3.75 L 280 3.75 280 4.25 272 4.25 Z "/>
<path id="p413" fill="rgb(0,0,255)" d="M 275.75 0 L 275.75 8 276.25 8 276.25 0 Z "/>
<path id="p414" fill="rgb(0,0,255)" d="M 272 11.75 L 280 11.75 280 12.25 272 12.25 Z "/>
<path id="p415" fill="rgb(0,0,255)" d="M 275.75 8 L 275.75 16 276.25 16 276.25 8 Z "/>
<path id="p416" fill="rgb(0,0,255)" d="M 280 11.75 L 288 11.75 288 12.25 280 12.25 Z "/>
<path id="p417" fill="rgb(0,0,255)" d="M 283.75 8 L 283.75 16 284.25 16 284.25 8 Z "/>
<path id="p418" fill="rgb(0,0,255)" d="M 256 23.75 L 272 23.75 272 24.25 256 24.25 Z "/>
<path id="p419" fill="rgb(0,0,255)" d="M 263.75 16 L 263.75 32 264.25 32 264.25 16 Z "/>
<path id="p420" fill="rgb(0,0,255)" d="M 264 19.75 L 272 19.75 272 20.25 264 20.25 Z "/>
<path id="p421" fill="rgb(0,0,255)" d="M 267.75 16 L 267.75 24 268.25 24 268.25 16 Z "/>
<path id="p422" fill="rgb(0,0,255)" d="M 256 27.75 L 264 27.75 264 28.25 256 28.25 Z "/>
<path id="p423" fill="rgb(0,0,255)" d="M 259.75 24 L 259.75 32 260.25 32 260.25 24 Z "/>
<path id="p424" fill="rgb(0,0,255)" d="M 264 27.75 L 272 27.75 272 28.25 264 28.25 Z "/>
<path id="p425" fill="rgb(0,0,255)" d="M 267.75 24 L 267.75 32 268.25 32 268.25 24 Z "/>
<path id="p426" fill="rgb(0,0,255)" d="M 272 23.75 L 288 23.75 288 24.25 272 24.25 Z "/>
<path id="p427" fill="rgb(0,0,255)" d="M 279.75 16 L 279.75 32 280.25 32 280.25 16 Z "/>
<path id="p428" fill="rgb(0,0,255)" d="M 272 19.75 L 280 19.75 280 20.25 272 20.25 Z "/>
<path id="p429" fill="rgb(0,0,255)" d="M 275.75 16 L 275.75 24 276.25 24 276.25 16 Z "/>
<path id="p430" fill="rgb(0,0,255)" d="M 280 19.75 L 288 19.75 288 20.25 280 20.25 Z "/>
<path id="p431" fill="rgb(0,0,255)" d="M 283.75 16 L 283.75 24 284.25 24 284.25 16 Z "/>
<path id="p432" fill="rgb(0,0,255)" d="M 272 27.75 L 280 27.75 280 28.25 272 28.25 Z "/>
<path id="p433" fill="rgb(0,0,255)" d="M 275.75 24 L 275.75 32 276.25 32 276.25 24 Z "/>
<path id="p434" fill="rgb(0,0,255)" d="M 280 27.75 L 288 27.75 288 28.25 280 28.25 Z "/>
<path id="p435" fill="rgb(0,0,255)" d="M 283.75 24 L 283.75 32 284.25 32 284.25 24 Z "/>
<path id="p436" fill="rgb(0,0,255)" d="M 288 15.75 L 320 15.75 320 16.25 288 16.25 Z "/>
<path id="p437" fill="rgb(0,0,255)" d="M 303.75 0 L 303.75 32 304.25 32 304.25 0 Z "/>
<path id="p438" fill="rgb(0,0,255)" d="M 288 7.75 L 304 7.75 304 8.25 288 8.25 Z "/>
<path id="p439" fill="rgb(0,0,255)" d="M 295.75 0 L 295.75 16 296.25 16 296.25 0 Z "/>
<path id="p440" fill="rgb(0,0,255)" d="M 296 3.75 L 304 3.75 304 4.25 296 4.25 Z "/>
<path id="p441" fill="rgb(0,0,255)" d="M 299.75 0 L 299.75 8 300.25 8 300.25 0 Z "/>
<path id="p442" fill="rgb(0,0,255)" d="M 288 11.75 L 296 11.75 296 12.25 288 12.25 Z "/>
<path id="p443" fill="rgb(0,0,255)" d="M 291.75 8 L 291.75 16 292.25 16 292.25 8 Z "/>
<path id="p444" fill="rgb(0,0,255)" d="M 296 11.75 L 304 11.75 304 12.25 296 12.25 Z "/>
<path id="p445" fill="rgb(0,0,255)" d="M 299.75 8 L 299.75 16 300.25 16 300.25 8 Z "/>
<path id="p446" fill="rgb(0,0,255)" d="M 304 7.75 L 320 7.75 320 8.25 304 8.25 Z "/>
<path id="p447" fill="rgb(0,0,255)" d="M 311.75 0 L 311.75 16 312.25 16 312.25 0 Z "/>
<path id="p448" fill="rgb(0,0,255)" d="M 304 11.75 L 312 11.75 312 12.25 304 12.25 Z "/>
<path id="p449" fill="rgb(0,0,255)" d="M 307.75 8 L 307.75 16 308.25 16 308.25 8 Z "/>
<path id="p450" fill="rgb(0,0,255)" d="M 288 23.75 L 304 23.75 304 24.25 288 24.25 Z "/>
<path id="p451" fill="rgb(0,0,255)" d="M 295.75 16 L 295.75 32 296.25 32 296.25 16 Z "/>
<path id="p452" fill="rgb(0,0,255)" d="M 288 19.75 L 296 19.75 296 20.25 288 20.25 Z "/>
<path id="p453" fill="rgb(0,0,255)" d="M 291.75 16 L 291.75 24 292.25 24 292.25 16 Z "/>
<path id="p454" fill="rgb(0,0,255)" d="M 296 19.75 L 304 19.75 304 20.25 296 20.25 Z "/>
<path id="p455" fill="rgb(0,0,255)" d="M 299.75 16 L 299.75 24 300.25 24 300.25 16 Z "/>
<path id="p456" fill="rgb(0,0,255)" d="M 288 27.75 L 296 27.75 296 28.25 288 28.25 Z "/>
<path id="p457" fill="rgb(0,0,255)" d="M 291.75 24 L 291.75 32 292.25 32 292.25 24 Z "/>
<path id="p458" fill="rgb(0,0,255)" d="M 296 27.75 L 304 27.75 304 28.25 296 28.25 Z "/>
<path id="p459" fill="rgb(0,0,255)" d="M 299.75 24 L 299.75 32 300.25 32 300.25 24 Z "/>
<path id="p460" fill="rgb(0,0,255)" d="M 304 23.75 L 320 23.75 320 24.25 304 24.25 Z "/>
<path id="p461" fill="rgb(0,0,255)" d="M 311.75 16 L 311.75 32 312.25 32 312.25 16 Z "/>
<path id="p462" fill="rgb(0,0,255)" d="M 304 19.75 L 312 19.75 312 20.25 304 20.25 Z "/>
<path id="p463" fill="rgb(0,0,255)" d="M 307.75 16 L 307.75 24 308.25 24 308.25 16 Z "/>
<path id="p464" fill="rgb(0,0,255)" d="M 304 27.75 L 312 27.75 312 28.25 304 28.25 Z "/>
<path id="p465" fill="rgb(0,0,255)" d="M 307.75 24 L 307.75 32 308.25 32 308.25 24 Z "/>
<path id="p466" fill="rgb(0,0,255)" d="M 256 47.75 L 288 47.75 288 48.25 256 48.25 Z "/>
<path id="p467" fill="rgb(0,0,255)" d="M 271.75 32 L 271.75 64 272.25 64 272.25 32 Z "/>
<path id="p468" fill="rgb(0,0,255)" d="M 256 39.75 L 272 39.75 272 40.25 256 40.25 Z "/>
<path id="p469" fill="rgb(0,0,255)" d="M 263.75 32 L 263.75 48 264.25 48 264.25 32 Z "/>
<path id="p470" fill="rgb(0,0,255)" d="M 256 35.75 L 264 35.75 264 36.25 256 36.25 Z "/>
<path id="p471" fill="rgb(0,0,255)" d="M 259.75 32 L 259.75 40 260.25 40 260.25 32 Z "/>
<path id="p472" fill="rgb(0,0,255)" d="M 264 35.75 L 272 35.75 272 36.25 264 36.25 Z "/>
<path id="p473" fill="rgb(0,0,255)" d="M 267.75 32 L 267.75 40 268.25 40 268.25 32 Z "/>
<path id="p474" fill="rgb(0,0,255)" d="M 256 43.75 L 264 43.75 264 44.25 256 44.25 Z "/>
<path id="p475" fill="rgb(0,0,255)" d="M 259.75 40 L 259.75 48 260.25 48 260.25 40 Z "/>
<path id="p476" fill="rgb(0,0,255)" d="M 264 43.75 L 272 43.75 272 44.25 264 44.25 Z "/>
<path id="p477" fill="rgb(0,0,255)" d="M 267.75 40 L 267.75 48 268.25 48 268.25 40 Z "/>
<path id="p478" fill="rgb(0,0,255)" d="M 272 39.75 L 288 39.75 288 40.25 272 40.25 Z "/>
<path id="p479" fill="rgb(0,0,255)" d="M 279.75 32 L 279.75 48 280.25 48 280.25 32 Z "/>
<path id="p480" fill="rgb(0,0,255)" d="M 280 35.75 L 288 35.75 288 36.25 280 36.25 Z "/>
<path id="p481" fill="rgb(0,0,255)" d="M 283.75 32 L 283.75 40 284.25 40 284.25 32 Z "/>
<path id="p482" fill="rgb(0,0,255)" d="M 272 43.75 L 280 43.75 280 44.25 272 44.25 Z "/>
<path id="p483" fill="rgb(0,0,255)" d="M 275.75 40 L 275.75 48 276.25 48 276.25 40 Z "/>
<path id="p484" fill="rgb(0,0,255)" d="M 280 43.75 L 288 43.75 288 44.25 280 44.25 Z "/>
<path id="p485" fill="rgb(0,0,255)" d="M 283.75 40 L 283.75 48 284.25 48 284.25 40 Z "/>
<path id="p486" fill="rgb(0,0,255)" d="M 288 47.75 L 320 47.75 320 48.25 288 48.25 Z "/>
<path id="p487" fill="rgb(0,0,255)" d="M 303.75 32 L 303.75 64 304.25 64 304.25 32 Z "/>
<path id="p488" fill="rgb(0,0,255)" d="M 288 39.75 L 304 39.75 304 40.25 288 40.25 Z "/>
<path id="p489" fill="rgb(0,0,255)" d="M 295.75 32 L 295.75 48 296.25 48 296.25 32 Z "/>
<path id="p490" fill="rgb(0,0,255)" d="M 288 35.75 L 296 35.75 296 36.25 288 36.25 Z "/>
<path id="p491" fill="rgb(0,0,255)" d="M 291.75 32 L 291.75 40 292.25 40 292.25 32 Z "/>
<path id="p492" fill="rgb(0,0,255)" d="M 288 43.75 L 296 43.75 296 44.25 288 44.25 Z "/>
<path id="p493" fill="rgb(0,0,255)" d="M 291.75 40 L 291.75 48 292.25 48 292.25 40 Z "/>
<path id="p494" fill="rgb(0,0,255)" d="M 296 43.75 L 304 43.75 304 44.25 296 44.25 Z "/>
<path id="p495" fill="rgb(0,0,255)" d="M 299.75 40 L 299.75 48 300.25 48 300.25 40 Z "/>
<path id="p496" fill="rgb(0,0,255)" d="M 304 39.75 L 320 39.75 320 40.25 304 40.25 Z "/>
<path id="p497" fill="rgb(0,0,255)" d="M 311.75 32 L 311.75 48 312.25 48 312.25 32 Z "/>
<path id="p498" fill="rgb(0,0,255)" d="M 304 35.75 L 312 35.75 312 36.25 304 36.25 Z "/>
<path id="p499" fill="rgb(0,0,255)" d="M 307.75 32 L 307.75 40 308.25 40 308.25 32 Z "/>
<path id="p500" fill="rgb(0,0,255)" d="M 312 35.75 L 320 35.75 320 36.25 312 36.25 Z "/>
<path id="p501" fill="rgb(0,0,255)" d="M 315.75 32 L 315.75 40 316.25 40 316.25 32 Z "/>
<path id="p502" fill="rgb(0,0,255)" d="M 304 43.75 L 312 43.75 312 44.25 304 44.25 Z "/>
<path id="p503" fill="rgb(0,0,255)" d="M 307.75 40 L 307.75 48 308.25 48 308.25 40 Z "/>
<path id="p504" fill="rgb(0,0,255)" d="M 312 43.75 L 320 43.75 320 44.25 312 44.25 Z "/>
<path id="p505" fill="rgb(0,0,255)" d="M 315.75 40 L 315.75 48 316.25 48 316.25 40 Z "/>
<path id="p506" fill="rgb(0,0,255)" d="M 320 31.75 L 384 31.75 384 32.25 320 32.25 Z "/>
<path id="p507" fill="rgb(0,0,255)" d="M 351.75 0 L 351.75 64 352.25 64 352.25 0 Z "/>
<path id="p508" fill="rgb(0,0,255)" d="M 320 15.75 L 352 15.75 352 16.25 320 16.25 Z "/>
<path id="p509" fill="rgb(0,0,255)" d="M 335.75 0 L 335.75 32 336.25 32 336.25 0 Z "/>
<path id="p510" fill="rgb(0,0,255)" d="M 320 7.75 L 336 7.75 336 8.25 320 8.25 Z "/>
<path id="p511" fill="rgb(0,0,255)" d="M 327.75 0 L 327.75 16 328.25 16 328.25 0 Z "/>
<path id="p512" fill="rgb(0,0,255)" d="M 328 3.75 L 336 3.75 336 4.25 328 4.25 Z "/>
<path id="p513" fill="rgb(0,0,255)" d="M 331.75 0 L 331.75 8 332.25 8 332.25 0 Z "/>
<path id="p514" fill="rgb(0,0,255)" d="M 320 11.75 L 328 11.75 328 12.25 320 12.25 Z "/>
<path id="p515" fill="rgb(0,0,255)" d="M 323.75 8 L 323.75 16 324.25 16 324.25 8 Z "/>
<path id="p516" fill="rgb(0,0,255)" d="M 328 11.75 L 336 11.75 336 12.25 328 12.25 Z "/>
<path id="p517" fill="rgb(0,0,255)" d="M 331.75 8 L 331.75 16 332.25 16 332.25 8 Z "/>
<path id="p518" fill="rgb(0,0,255)" d="M 336 7.75 L 352 7.75 352 8.25 336 8.25 Z "/>
<path id="p519" fill="rgb(0,0,255)" d="M 343.75 0 L 343.75 16 344.25 16 344.25 0 Z "/>
<path id="p520" fill="rgb(0,0,255)" d="M 336 3.75 L 344 3.75 344 4.25 336 4.25 Z "/>
<path id="p521" fill="rgb(0,0,255)" d="M 339.75 0 L 339.75 8 340.25 8 340.25 0 Z "/>
<path id="p522" fill="rgb(0,0,255)" d="M 344 3.75 L 352 3.75 352 4.25 344 4.25 Z "/>
<path id="p523" fill="rgb(0,0,255)" d="M 347.75 0 L 347.75 8 348.25 8 348.25 0 Z "/>
<path id="p524" fill="rgb(0,0,255)" d="M 336 11.75 L 344 11.75 344 12.25 336 12.25 Z "/>
<path id="p525" fill="rgb(0,0,255)" d="M 339.75 8 L 339.75 16 340.25 16 340.25 8 Z "/>
<path id="p526" fill="rgb(0,0,255)" d="M 344 11.75 L 352 11.75 352 12.25 344 12.25 Z "/>
<path id="p527" fill="rgb(0,0,255)" d="M 347.75 8 L 347.75 16 348.25 16 348.25 8 Z "/>
<path id="p528" fill="rgb(0,0,255)" d="M 320 23.75 L 336 23.75 336 24.25 320 24.25 Z "/>
<path id="p529" fill="rgb(0,0,255)" d="M 327.75 16 L 327.75 32 328.25 32 328.25 16 Z "/>
<path id="p530" fill="rgb(0,0,255)" d="M 320 19.75 L 328 19.75 328 20.25 320 20.25 Z "/>
<path id="p531" fill="rgb(0,0,255)" d="M 323.75 16 L 323.75 24 324.25 24 324.25 16 Z "/>
<path id="p532" fill="rgb(0,0,255)" d="M 328 19.75 L 336 19.75 336 20.25 328 20.25 Z "/>
<path id="p533" fill="rgb(0,0,255)" d="M 331.75 16 L 331.75 24 332.25 24 332.25 16 Z "/>
<path id="p534" fill="rgb(0,0,255)" d="M 320 27.75 L 328 27.75 328 28.25 320 28.25 Z "/>
<path id="p535" fill="rgb(0,0,255)" d="M 323.75 24 L 323.75 32 324.25 32 324.25 24 Z "/>
<path id="p536" fill="rgb(0,0,255)" d="M 328 27.75 L 336 27.75 336 28.25 328 28.25 Z "/>
<path id="p537" fill="rgb(0,0,255)" d="M 331.75 24 L 331.75 32 332.25 32 332.25 24 Z "/>
<path id="p538" fill="rgb(0,0,255)" d="M 352 15.75 L 384 15.75 384 16.25 352 16.25 Z "/>
<path id="p539" fill="rgb(0,0,255)" d="M 367.75 0 L 367.75 32 368.25 32 368.25 0 Z "/>
<path id="p540" fill="rgb(0,0,255)" d="M 352 7.75 L 368 7.75 368 8.25 352 8.25 Z "/>
<path id="p541" fill="rgb(0,0,255)" d="M 359.75 0 L 359.75 16 360.25 16 360.25 0 Z "/>
<path id="p542" fill="rgb(0,0,255)" d="M 352 3.75 L 360 3.75 360 4.25 352 4.25 Z "/>
<path id="p543" fill="rgb(0,0,255)" d="M 355.75 0 L 355.75 8 356.25 8 356.25 0 Z "/>
<path id="p544" fill="rgb(0,0,255)" d="M 352 11.75 L 360 11.75 360 12.25 352 12.25 Z "/>
<path id="p545" fill="rgb(0,0,255)" d="M 355.75 8 L 355.75 16 356.25 16 356.25 8 Z "/>
<path id="p546" fill="rgb(0,0,255)" d="M 360 11.75 L 368 11.75 368 12.25 360 12.25 Z "/>
<path id="p547" fill="rgb(0,0,255)" d="M 363.75 8 L 363.75 16 364.25 16 364.25 8 Z "/>
<path id="p548" fill="rgb(0,0,255)" d="M 368 7.75 L 384 7.75 384 8.25 368 8.25 Z "/>
<path id="p549" fill="rgb(0,0,255)" d="M 375.75 0 L 375.75 16 376.25 16 376.25 0 Z "/>
<path id="p550" fill="rgb(0,0,255)" d="M 368 3.75 L 376 3.75 376 4.25 368 4.25 Z "/>
<path id="p551" fill="rgb(0,0,255)" d="M 371.75 0 L 371.75 8 372.25 8 372.25 0 Z "/>
<path id="p552" fill="rgb(0,0,255)" d="M 368 11.75 L 376 11.75 376 12.25 368 12.25 Z "/>
<path id="p553" fill="rgb(0,0,255)" d="M 371.75 8 L 371.75 16 372.25 16 372.25 8 Z "/>
<path id="p554" fill="rgb(0,0,255)" d="M 376 11.75 L 384 11.75 384 12.25 376 12.25 Z "/>
<path id="p555" fill="rgb(0,0,255)" d="M 379.75 8 L 379.75 16 380.25 16 380.25 8 Z "/>
<path id="p556" fill="rgb(0,0,255)" d="M 352 23.75 L 368 23.75 368 24.25 352 24.25 Z "/>
<path id="p557" fill="rgb(0,0,255)" d="M 359.75 16 L 359.75 32 360.25 32 360.25 16 Z "/>
<path id="p558" fill="rgb(0,0,255)" d="M 352 19.75 L 360 19.75 360 20.25 352 20.25 Z "/>
<path id="p559" fill="rgb(0,0,255)" d="M 355.75 16 L 355.75 24 356.25 24 356.25 16 Z "/>
<path id="p560" fill="rgb(0,0,255)" d="M 360 19.75 L 368 19.75 368 20.25 360 20.25 Z "/>
<path id="p561" fill="rgb(0,0,255)" d="M 363.75 16 L 363.75 24 364.25 24 364.25 16 Z "/>
<path id="p562" fill="rgb(0,0,255)" d="M 352 27.75 L 360 27.75 360 28.25 352 28.25 Z "/>
<path id="p563" fill="rgb(0,0,255)" d="M 355.75 24 L 355.75 32 356.25 32 356.25 24 Z "/>
<path id="p564" fill="rgb(0,0,255)" d="M 360 27.75 L 368 27.75 368 28.25 360 28.25 Z "/>
<path id="p565" fill="rgb(0,0,255)" d="M 363.75 24 L 363.75 32 364.25 32 364.25 24 Z "/>
<path id="p566" fill="rgb(0,0,255)" d="M 368 23.75 L 384 23.75 384 24.25 368 24.25 Z "/>
<path id="p567" fill="rgb(0,0,255)" d="M 375.75 16 L 375.75 32 376.25 32 376.25 16 Z "/>
<path id="p568" fill="rgb(0,0,255)" d="M 368 27.75 L 376 27.75 376 28.25 368 28.25 Z "/>
<path id="p569" fill="rgb(0,0,255)" d="M 371.75 24 L 371.75 32 372.25 32 372.25 24 Z "/>
<path id="p570" fill="rgb(0,0,255)" d="M 320 47.75 L 352 47.75 352 48.25 320 48.25 Z "/>
<path id="p571" fill="rgb(0,0,255)" d="M 335.75 32 L 335.75 64 336.25 64 336.25 32 Z "/>
<path id="p572" fill="rgb(0,0,255)" d="M 320 39.75 L 336 39.75 336 40.25 320 40.25 Z "/>
<path id="p573" fill="rgb(0,0,255)" d="M 327.75 32 L 327.75 48 328.25 48 328.25 32 Z "/>
<path id="p574" fill="rgb(0,0,255)" d="M 320 35.75 L 328 35.75 328 36.25 320 36.25 Z "/>
<path id="p575" fill="rgb(0,0,255)" d="M 323.75 32 L 323.75 40 324.25 40 324.25 32 Z "/>
<path id="p576" fill="rgb(0,0,255)" d="M 328 35.75 L 336 35.75 336 36.25 328 36.25 Z "/>
<path id="p577" fill="rgb(0,0,255)" d="M 331.75 32 L 331.75 40 332.25 40 332.25 32 Z "/>
<path id="p578" fill="rgb(0,0,255)" d="M 328 43.75 L 336 43.75 336 44.25 328 44.25 Z "/>
<path id="p579" fill="rgb(0,0,255)" d="M 331.75 40 L 331.75 48 332.25 48 332.25 40 Z "/>
<path id="p580" fill="rgb(0,0,255)" d="M 336 39.75 L 352 39.75 352 40.25 336 40.25 Z "/>
<path id="p581" fill="rgb(0,0,255)" d="M 343.75 32 L 343.75 48 344.25 48 344.25 32 Z "/>
<path id="p582" fill="rgb(0,0,255)" d="M 344 35.75 L 352 35.75 352 36.25 344 36.25 Z "/>
<path id="p583" fill="rgb(0,0,255)" d="M 347.75 32 L 347.75 40 348.25 40 348.25 32 Z "/>
<path id="p584" fill="rgb(0,0,255)" d="M 336 43.75 L 344 43.75 344 44.25 336 44.25 Z "/>
<path id="p585" fill="rgb(0,0,255)" d="M 339.75 40 L 339.75 48 340.25 48 340.25 40 Z "/>
<path id="p586" fill="rgb(0,0,255)" d="M 344 43.75 L 352 43.75 352 44.25 344 44.25 Z "/>
<path id="p587" fill="rgb(0,0,255)" d="M 347.75 40 L 347.75 48 348.25 48 348.25 40 Z "/>
<path id="p588" fill="rgb(0,0,255)" d="M 336 55.75 L 352 55.75 352 56.25 336 56.25 Z "/>
<path id="p589" fill="rgb(0,0,255)" d="M 343.75 48 L 343.75 64 344.25 64 344.25 48 Z "/>
<path id="p590" fill="rgb(0,0,255)" d="M 336 51.75 L 344 51.75 344 52.25 336 52.25 Z "/>
<path id="p591" fill="rgb(0,0,255)" d="M 339.75 48 L 339.75 56 340.25 56 340.25 48 Z "/>
<path id="p592" fill="rgb(0,0,255)" d="M 344 51.75 L 352 51.75 352 52.25 344 52.25 Z "/>
<path id="p593" fill="rgb(0,0,255)" d="M 347.75 48 L 347.75 56 348.25 56 348.25 48 Z "/>
<path id="p594" fill="rgb(0,0,255)" d="M 352 47.75 L 384 47.75 384 48.25 352 48.25 Z "/>
<path id="p595" fill="rgb(0,0,255)" d="M 367.75 32 L 367.75 64 368.25 64 368.25 32 Z "/>
<path id="p596" fill="rgb(0,0,255)" d="M 352 39.75 L 368 39.75 368 40.25 352 40.25 Z "/>
<path id="p597" fill="rgb(0,0,255)" d="M 359.75 32 L 359.75 48 360.25 48 360.25 32 Z "/>
<path id="p598" fill="rgb(0,0,255)" d="M 352 35.75 L 360 35.75 360 36.25 352 36.25 Z "/>
<path id="p599" fill="rgb(0,0,255)" d="M 355.75 32 L 355.75 40 356.25 40 356.25 32 Z "/>
<path id="p600" fill="rgb(0,0,255)" d="M 360 35.75 L 368 35.75 368 36.25 360 36.25 Z "/>
<path id="p601" fill="rgb(0,0,255)" d="M 363.75 32 L 363.75 40 364.25 40 364.25 32 Z "/>
<path id="p602" fill="rgb(0,0,255)" d="M 352 43.75 L 360 43.75 360 44.25 352 44.25 Z "/>
<path id="p603" fill="rgb(0,0,255)" d="M 355.75 40 L 355.75 48 356.25 48 356.25 40 Z "/>
<path id="p604" fill="rgb(0,0,255)" d="M 360 43.75 L 368 43.75 368 44.25 360 44.25 Z "/>
<path id="p605" fill="rgb(0,0,255)" d="M 363.75 40 L 363.75 48 364.25 48 364.25 40 Z "/>
<path id="p606" fill="rgb(0,0,255)" d="M 368 39.75 L 384 39.75 384 40.25 368 40.25 Z "/>
<path id="p607" fill="rgb(0,0,255)" d="M 375.75 32 L 375.75 48 376.25 48 376.25 32 Z "/>
<path id="p608" fill="rgb(0,0,255)" d="M 368 35.75 L 376 35.75 376 36.25 368 36.25 Z "/>
<path id="p609" fill="rgb(0,0,255)" d="M 371.75 32 L 371.75 40 372.25 40 372.25 32 Z "/>
<path id="p610" fill="rgb(0,0,255)" d="M 376 35.75 L 384 35.75 384 36.25 376 36.25 Z "/>
<path id="p611" fill="rgb(0,0,255)" d="M 379.75 32 L 379.75 40 380.25 40 380.25 32 Z "/>
<path id="p612" fill="rgb(0,0,255)" d="M 368 43.75 L 376 43.75 376 44.25 368 44.25 Z "/>
<path id="p613" fill="rgb(0,0,255)" d="M 371.75 40 L 371.75 48 372.25 48 372.25 40 Z "/>
<path id="p614" fill="rgb(0,0,255)" d="M 376 43.75 L 384 43.75 384 44.25 376 44.25 Z "/>
<path id="p615" fill="rgb(0,0,255)" d="M 379.75 40 L 379.75 48 380.25 48 380.25 40 Z "/>
<path id="p616" fill="rgb(0,0,255)" d="M 368 55.75 L 384 55.75 384 56.25 368 56.25 Z "/>
<path id="p617" fill="rgb(0,0,255)" d="M 375.75 48 L 375.75 64 376.25 64 376.25 48 Z "/>
<path id="p618" fill="rgb(0,0,255)" d="M 376 51.75 L 384 51.75 384 52.25 376 52.25 Z "/>
<path id="p619" fill="rgb(0,0,255)" d="M 379.75 48 L 379.75 56 380.25 56 380.25 48 Z "/>
<path id="p620" fill="rgb(0,0,255)" d="M 384 63.75 L 512 63.75 512 64.25 384 64.25 Z "/>
<path id="p621" fill="rgb(0,0,255)" d="M 447.75 0 L 447.75 128 448.25 128 448.25 0 Z "/>
<path id="p622" fill="rgb(0,0,255)" d="M 384 31.75 L 448 31.75 448 32.25 384 32.25 Z "/>
<path id="p623" fill="rgb(0,0,255)" d="M 415.75 0 L 415.75 64 416.25 64 416.25 0 Z "/>
<path id="p624" fill="rgb(0,0,255)" d="M 384 15.75 L 416 15.75 416 16.25 384 16.25 Z "/>
<path id="p625" fill="rgb(0,0,255)" d="M 399.75 0 L 399.75 32 400.25 32 400.25 0 Z "/>
<path id="p626" fill="rgb(0,0,255)" d="M 384 7.75 L 400 7.75 400 8.25 384 8.25 Z "/>
<path id="p627" fill="rgb(0,0,255)" d="M 391.75 0 L 391.75 16 392.25 16 392.25 0 Z "/>
<path id="p628" fill="rgb(0,0,255)" d="M 384 3.75 L 392 3.75 392 4.25 384 4.25 Z "/>
<path id="p629" fill="rgb(0,0,255)" d="M 387.75 0 L 387.75 8 388.25 8 388.25 0 Z "/>
<path id="p630" fill="rgb(0,0,255)" d="M 384 11.75 L 392 11.75 392 12.25 384 12.25 Z "/>
<path id="p631" fill="rgb(0,0,255)" d="M 387.75 8 L 387.75 16 388.25 16 388.25 8 Z "/>
<path id="p632" fill="rgb(0,0,255)" d="M 400 7.75 L 416 7.75 416 8.25 400 8.25 Z "/>
<path id="p633" fill="rgb(0,0,255)" d="M 407.75 0 L 407.75 16 408.25 16 408.25 0 Z "/>
<path id="p634" fill="rgb(0,0,255)" d="M 400 3.75 L 408 3.75 408 4.25 400 4.25 Z "/>
<path id="p635" fill="rgb(0,0,255)" d="M 403.75 0 L 403.75 8 404.25 8 404.25 0 Z "/>
<path id="p636" fill="rgb(0,0,255)" d="M 400 11.75 L 408 11.75 408 12.25 400 12.25 Z "/>
<path id="p637" fill="rgb(0,0,255)" d="M 403.75 8 L 403.75 16 404.25 16 404.25 8 Z "/>
<path id="p638" fill="rgb(0,0,255)" d="M 408 11.75 L 416 11.75 416 12.25 408 12.25 Z "/>
<path id="p639" fill="rgb(0,0,255)" d="M 411.75 8 L 411.75 16 412.25 16 412.25 8 Z "/>
<path id="p640" fill="rgb(0,0,255)" d="M 416 15.75 L 448 15.75 448 16.25 416 16.25 Z "/>
<path id="p641" fill="rgb(0,0,255)" d="M 431.75 0 L 431.75 32 432.25 32 432.25 0 Z "/>
<path id="p642" fill="rgb(0,0,255)" d="M 416 7.75 L 432 7.75 432 8.25 416 8.25 Z "/>
<path id="p643" fill="rgb(0,0,255)" d="M 423.75 0 L 423.75 16 424.25 16 424.25 0 Z "/>
<path id="p644" fill="rgb(0,0,255)" d="M 416 3.75 L 424 3.75 424 4.25 416 4.25 Z "/>
<path id="p645" fill="rgb(0,0,255)" d="M 419.75 0 L 419.75 8 420.25 8 420.25 0 Z "/>
<path id="p646" fill="rgb(0,0,255)" d="M 416 11.75 L 424 11.75 424 12.25 416 12.25 Z "/>
<path id="p647" fill="rgb(0,0,255)" d="M 419.75 8 L 419.75 16 420.25 16 420.25 8 Z "/>
<path id="p648" fill="rgb(0,0,255)" d="M 424 11.75 L 432 11.75 432 12.25 424 12.25 Z "/>
<path id="p649" fill="rgb(0,0,255)" d="M 427.75 8 L 427.75 16 428.25 16 428.25 8 Z "/>
<path id="p650" fill="rgb(0,0,255)" d="M 432 7.75 L 448 7.75 448 8.25 432 8.25 Z "/>
<path id="p651" fill="rgb(0,0,255)" d="M 439.75 0 L 439.75 16 440.25 16 440.25 0 Z "/>
<path id="p652" fill="rgb(0,0,255)" d="M 432 3.75 L 440 3.75 440 4.25 432 4.25 Z "/>
<path id="p653" fill="rgb(0,0,255)" d="M 435.75 0 L 435.75 8 436.25 8 436.25 0 Z "/>
<path id="p654" fill="rgb(0,0,255)" d="M 440 3.75 L 448 3.75 448 4.25 440 4.25 Z "/>
<path id="p655" fill="rgb(0,0,255)" d="M 443.75 0 L 443.75 8 444.25 8 444.25 0 Z "/>
<path id="p656" fill="rgb(0,0,255)" d="M 432 11.75 L 440 11.75 440 12.25 432 12.25 Z "/>
<path id="p657" fill="rgb(0,0,255)" d="M 435.75 8 L 435.75 16 436.25 16 436.25 8 Z "/>
<path id="p658" fill="rgb(0,0,255)" d="M 440 11.75 L 448 11.75 448 12.25 440 12.25 Z "/>
<path id="p659" fill="rgb(0,0,255)" d="M 443.75 8 L 443.75 16 444.25 16 444.25 8 Z "/>
<path id="p660" fill="rgb(0,0,255)" d="M 416 23.75 L 432 23.75 432 24.25 416 24.25 Z "/>
<path id="p661" fill="rgb(0,0,255)" d="M 423.75 16 L 423.75 32 424.25 32 424.25 16 Z "/>
<path id="p662" fill="rgb(0,0,255)" d="M 424 19.75 L 432 19.75 432 20.25 424 20.25 Z "/>
<path id="p663" fill="rgb(0,0,255)" d="M 427.75 16 L 427.75 24 428.25 24 428.25 16 Z "/>
<path id="p664" fill="rgb(0,0,255)" d="M 424 27.75 L 432 27.75 432 28.25 424 28.25 Z "/>
<path id="p665" fill="rgb(0,0,255)" d="M 427.75 24 L 427.75 32 428.25 32 428.25 24 Z "/>
<path id="p666" fill="rgb(0,0,255)" d="M 432 23.75 L 448 23.75 448 24.25 432 24.25 Z "/>
<path id="p667" fill="rgb(0,0,255)" d="M 439.75 16 L 439.75 32 440.25 32 440.25 16 Z "/>
<path id="p668" fill="rgb(0,0,255)" d="M 432 19.75 L 440 19.75 440 20.25 432 20.25 Z "/>
<path id="p669" fill="rgb(0,0,255)" d="M 435.75 16 L 435.75 24 436.25 24 436.25 16 Z "/>
<path id="p670" fill="rgb(0,0,255)" d="M 432 27.75 L 440 27.75 440 28.25 432 28.25 Z "/>
<path id="p671" fill="rgb(0,0,255)" d="M 435.75 24 L 435.75 32 436.25 32 436.25 24 Z "/>
<path id="p672" fill="rgb(0,0,255)" d="M 384 47.75 L 416 47.75 416 48.25 384 48.25 Z "/>
<path id="p673" fill="rgb(0,0,255)" d="M 399.75 32 L 399.75 64 400.25 64 400.25 32 Z "/>
<path id="p674" fill="rgb(0,0,255)" d="M 384 39.75 L 400 39.75 400 40.25 384 40.25 Z "/>
<path id="p675" fill="rgb(0,0,255)" d="M 391.75 32 L 391.75 48 392.25 48 392.25 32 Z "/>
<path id="p676" fill="rgb(0,0,255)" d="M 384 35.75 L 392 35.75 392 36.25 384 36.25 Z "/>
<path id="p677" fill="rgb(0,0,255)" d="M 387.75 32 L 387.75 40 388.25 40 388.25 32 Z "/>
<path id="p678" fill="rgb(0,0,255)" d="M 392 35.75 L 400 35.75 400 36.25 392 36.25 Z "/>
<path id="p679" fill="rgb(0,0,255)" d="M 395.75 32 L 395.75 40 396.25 40 396.25 32 Z "/>
<path id="p680" fill="rgb(0,0,255)" d="M 384 43.75 L 392 43.75 392 44.25 384 44.25 Z "/>
<path id="p681" fill="rgb(0,0,255)" d="M 387.75 40 L 387.75 48 388.25 48 388.25 40 Z "/>
<path id="p682" fill="rgb(0,0,255)" d="M 392 43.75 L 400 43.75 400 44.25 392 44.25 Z "/>
<path id="p683" fill="rgb(0,0,255)" d="M 395.75 40 L 395.75 48 396.25 48 396.25 40 Z "/>
<path id="p684" fill="rgb(0,0,255)" d="M 384 55.75 L 400 55.75 400 56.25 384 56.25 Z "/>
<path id="p685" fill="rgb(0,0,255)" d="M 391.75 48 L 391.75 64 392.25 64 392.25 48 Z "/>
<path id="p686" fill="rgb(0,0,255)" d="M 384 51.75 L 392 51.75 392 52.25 384 52.25 Z "/>
<path id="p687" fill="rgb(0,0,255)" d="M 387.75 48 L 387.75 56 388.25 56 388.25 48 Z "/>
<path id="p688" fill="rgb(0,0,255)" d="M 392 51.75 L 400 51.75 400 52.25 392 52.25 Z "/>
<path id="p689" fill="rgb(0,0,255)" d="M 395.75 48 L 395.75 56 396.25 56 396.25 48 Z "/>
<path id="p690" fill="rgb(0,0,255)" d="M 400 55.75 L 416 55.75 416 56.25 400 56.25 Z "/>
<path id="p691" fill="rgb(0,0,255)" d="M 407.75 48 L 407.75 64 408.25 64 408.25 48 Z "/>
<path id="p692" fill="rgb(0,0,255)" d="M 400 51.75 L 408 51.75 408 52.25 400 52.25 Z "/>
<path id="p693" fill="rgb(0,0,255)" d="M 403.75 48 L 403.75 56 404.25 56 404.25 48 Z "/>
<path id="p694" fill="rgb(0,0,255)" d="M 400 59.75 L 408 59.75 408 60.25 400 60.25 Z "/>
<path id="p695" fill="rgb(0,0,255)" d="M 403.75 56 L 403.75 64 404.25 64 404.25 56 Z "/>
<path id="p696" fill="rgb(0,0,255)" d="M 416 47.75 L 448 47.75 448 48.25 416 48.25 Z "/>
<path id="p697" fill="rgb(0,0,255)" d="M 431.75 32 L 431.75 64 432.25 64 432.25 32 Z "/>
<path id="p698" fill="rgb(0,0,255)" d="M 416 39.75 L 432 39.75 432 40.25 416 40.25 Z "/>
<path id="p699" fill="rgb(0,0,255)" d="M 423.75 32 L 423.75 48 424.25 48 424.25 32 Z "/>
<path id="p700" fill="rgb(0,0,255)" d="M 424 35.75 L 432 35.75 432 36.25 424 36.25 Z "/>
<path id="p701" fill="rgb(0,0,255)" d="M 427.75 32 L 427.75 40 428.25 40 428.25 32 Z "/>
<path id="p702" fill="rgb(0,0,255)" d="M 432 39.75 L 448 39.75 448 40.25 432 40.25 Z "/>
<path id="p703" fill="rgb(0,0,255)" d="M 439.75 32 L 439.75 48 440.25 48 440.25 32 Z "/>
<path id="p704" fill="rgb(0,0,255)" d="M 432 35.75 L 440 35.75 440 36.25 432 36.25 Z "/>
<path id="p705" fill="rgb(0,0,255)" d="M 435.75 32 L 435.75 40 436.25 40 436.25 32 Z "/>
<path id="p706" fill="rgb(0,0,255)" d="M 432 43.75 L 440 43.75 440 44.25 432 44.25 Z "/>
<path id="p707" fill="rgb(0,0,255)" d="M 435.75 40 L 435.75 48 436.25 48 436.25 40 Z "/>
<path id="p708" fill="rgb(0,0,255)" d="M 440 43.75 L 448 43.75 448 44.25 440 44.25 Z "/>
<path id="p709" fill="rgb(0,0,255)" d="M 443.75 40 L 443.75 48 444.25 48 444.25 40 Z "/>
<path id="p710" fill="rgb(0,0,255)" d="M 432 55.75 L 448 55.75 448 56.25 432 56.25 Z "/>
<path id="p711" fill="rgb(0,0,255)" d="M 439.75 48 L 439.75 64 440.25 64 440.25 48 Z "/>
<path id="p712" fill="rgb(0,0,255)" d="M 440 51.75 L 448 51.75 448 52.25 440 52.25 Z "/>
<path id="p713" fill="rgb(0,0,255)" d="M 443.75 48 L 443.75 56 444.25 56 444.25 48 Z "/>
<path id="p714" fill="rgb(0,0,255)" d="M 448 31.75 L 512 31.75 512 32.25 448 32.25 Z "/>
<path id="p715" fill="rgb(0,0,255)" d="M 479.75 0 L 479.75 64 480.25 64 480.25 0 Z "/>
<path id="p716" fill="rgb(0,0,255)" d="M 448 15.75 L 480 15.75 480 16.25 448 16.25 Z "/>
<path id="p717" fill="rgb(0,0,255)" d="M 463.75 0 L 463.75 32 464.25 32 464.25 0 Z "/>
<path id="p718" fill="rgb(0,0,255)" d="M 448 7.75 L 464 7.75 464 8.25 448 8.25 Z "/>
<path id="p719" fill="rgb(0,0,255)" d="M 455.75 0 L 455.75 16 456.25 16 456.25 0 Z "/>
<path id="p720" fill="rgb(0,0,255)" d="M 448 3.75 L 456 3.75 456 4.25 448 4.25 Z "/>
<path id="p721" fill="rgb(0,0,255)" d="M 451.75 0 L 451.75 8 452.25 8 452.25 0 Z "/>
<path id="p722" fill="rgb(0,0,255)" d="M 456 3.75 L 464 3.75 464 4.25 456 4.25 Z "/>
<path id="p723" fill="rgb(0,0,255)" d="M 459.75 0 L 459.75 8 460.25 8 460.25 0 Z "/>
<path id="p724" fill="rgb(0,0,255)" d="M 448 11.75 L 456 11.75 456 12.25 448 12.25 Z "/>
<path id="p725" fill="rgb(0,0,255)" d="M 451.75 8 L 451.75 16 452.25 16 452.25 8 Z "/>
<path id="p726" fill="rgb(0,0,255)" d="M 456 11.75 L 464 11.75 464 12.25 456 12.25 Z "/>
<path id="p727" fill="rgb(0,0,255)" d="M 459.75 8 L 459.75 16 460.25 16 460.25 8 Z "/>
<path id="p728" fill="rgb(0,0,255)" d="M 464 7.75 L 480 7.75 480 8.25 464 8.25 Z "/>
<path id="p729" fill="rgb(0,0,255)" d="M 471.75 0 L 471.75 16 472.25 16 472.25 0 Z "/>
<path id="p730" fill="rgb(0,0,255)" d="M 464 3.75 L 472 3.75 472 4.25 464 4.25 Z "/>
<path id="p731" fill="rgb(0,0,255)" d="M 467.75 0 L 467.75 8 468.25 8 468.25 0 Z "/>
<path id="p732" fill="rgb(0,0,255)" d="M 464 11.75 L 472 11.75 472 12.25 464 12.25 Z "/>
<path id="p733" fill="rgb(0,0,255)" d="M 467.75 8 L 467.75 16 468.25 16 468.25 8 Z "/>
<path id="p734" fill="rgb(0,0,255)" d="M 448 23.75 L 464 23.75 464 24.25 448 24.25 Z "/>
<path id="p735" fill="rgb(0,0,255)" d="M 455.75 16 L 455.75 32 456.25 32 456.25 16 Z "/>
<path id="p736" fill="rgb(0,0,255)" d="M 456 19.75 L 464 19.75 464 20.25 456 20.25 Z "/>
<path id="p737" fill="rgb(0,0,255)" d="M 459.75 16 L 459.75 24 460.25 24 460.25 16 Z "/>
<path id="p738" fill="rgb(0,0,255)" d="M 480 15.75 L 512 15.75 512 16.25 480 16.25 Z "/>
<path id="p739" fill="rgb(0,0,255)" d="M 495.75 0 L 495.75 32 496.25 32 496.25 0 Z "/>
<path id="p740" fill="rgb(0,0,255)" d="M 480 7.75 L 496 7.75 496 8.25 480 8.25 Z "/>
<path id="p741" fill="rgb(0,0,255)" d="M 487.75 0 L 487.75 16 488.25 16 488.25 0 Z "/>
<path id="p742" fill="rgb(0,0,255)" d="M 480 3.75 L 488 3.75 488 4.25 480 4.25 Z "/>
<path id="p743" fill="rgb(0,0,255)" d="M 483.75 0 L 483.75 8 484.25 8 484.25 0 Z "/>
<path id="p744" fill="rgb(0,0,255)" d="M 488 3.75 L 496 3.75 496 4.25 488 4.25 Z "/>
<path id="p745" fill="rgb(0,0,255)" d="M 491.75 0 L 491.75 8 492.25 8 492.25 0 Z "/>
<path id="p746" fill="rgb(0,0,255)" d="M 480 11.75 L 488 11.75 488 12.25 480 12.25 Z "/>
<path id="p747" fill="rgb(0,0,255)" d="M 483.75 8 L 483.75 16 484.25 16 484.25 8 Z "/>
<path id="p748" fill="rgb(0,0,255)" d="M 488 11.75 L 496 11.75 496 12.25 488 12.25 Z "/>
<path id="p749" fill="rgb(0,0,255)" d="M 491.75 8 L 491.75 16 492.25 16 492.25 8 Z "/>
<path id="p750" fill="rgb(0,0,255)" d="M 480 23.75 L 496 23.75 496 24.25 480 24.25 Z "/>
<path id="p751" fill="rgb(0,0,255)" d="M 487.75 16 L 487.75 32 488.25 32 488.25 16 Z "/>
<path id="p752" fill="rgb(0,0,255)" d="M 480 19.75 L 488 19.75 488 20.25 480 20.25 Z "/>
<path id="p753" fill="rgb(0,0,255)" d="M 483.75 16 L 483.75 24 484.25 24 484.25 16 Z "/>
<path id="p754" fill="rgb(0,0,255)" d="M 480 27.75 L 488 27.75 488 28.25 480 28.25 Z "/>
<path id="p755" fill="rgb(0,0,255)" d="M 483.75 24 L 483.75 32 484.25 32 484.25 24 Z "/>
<path id="p756" fill="rgb(0,0,255)" d="M 448 47.75 L 480 47.75 480 48.25 448 48.25 Z "/>
<path id="p757" fill="rgb(0,0,255)" d="M 463.75 32 L 463.75 64 464.25 64 464.25 32 Z "/>
<path id="p758" fill="rgb(0,0,255)" d="M 448 39.75 L 464 39.75 464 40.25 448 40.25 Z "/>
<path id="p759" fill="rgb(0,0,255)" d="M 455.75 32 L 455.75 48 456.25 48 456.25 32 Z "/>
<path id="p760" fill="rgb(0,0,255)" d="M 448 35.75 L 456 35.75 456 36.25 448 36.25 Z "/>
<path id="p761" fill="rgb(0,0,255)" d="M 451.75 32 L 451.75 40 452.25 40 452.25 32 Z "/>
<path id="p762" fill="rgb(0,0,255)" d="M 456 35.75 L 464 35.75 464 36.25 456 36.25 Z "/>
<path id="p763" fill="rgb(0,0,255)" d="M 459.75 32 L 459.75 40 460.25 40 460.25 32 Z "/>
<path id="p764" fill="rgb(0,0,255)" d="M 448 43.75 L 456 43.75 456 44.25 448 44.25 Z "/>
<path id="p765" fill="rgb(0,0,255)" d="M 451.75 40 L 451.75 48 452.25 48 452.25 40 Z "/>
<path id="p766" fill="rgb(0,0,255)" d="M 456 43.75 L 464 43.75 464 44.25 456 44.25 Z "/>
<path id="p767" fill="rgb(0,0,255)" d="M 459.75 40 L 459.75 48 460.25 48 460.25 40 Z "/>
<path id="p768" fill="rgb(0,0,255)" d="M 448 55.75 L 464 55.75 464 56.25 448 56.25 Z "/>
<path id="p769" fill="rgb(0,0,255)" d="M 455.75 48 L 455.75 64 456.25 64 456.25 48 Z "/>
<path id="p770" fill="rgb(0,0,255)" d="M 448 51.75 L 456 51.75 456 52.25 448 52.25 Z "/>
<path id="p771" fill="rgb(0,0,255)" d="M 451.75 48 L 451.75 56 452.25 56 452.25 48 Z "/>
<path id="p772" fill="rgb(0,0,255)" d="M 456 51.75 L 464 51.75 464 52.25 456 52.25 Z "/>
<path id="p773" fill="rgb(0,0,255)" d="M 459.75 48 L 459.75 56 460.25 56 460.25 48 Z "/>
<path id="p774" fill="rgb(0,0,255)" d="M 448 59.75 L 456 59.75 456 60.25 448 60.25 Z "/>
<path id="p775" fill="rgb(0,0,255)" d="M 451.75 56 L 451.75 64 452.25 64 452.25 56 Z "/>
<path id="p776" fill="rgb(0,0,255)" d="M 456 59.75 L 464 59.75 464 60.25 456 60.25 Z "/>
<path id="p777" fill="rgb(0,0,255)" d="M 459.75 56 L 459.75 64 460.25 64 460.25 56 Z "/>
<path id="p778" fill="rgb(0,0,255)" d="M 480 47.75 L 512 47.75 512 48.25 480 48.25 Z "/>
<path id="p779" fill="rgb(0,0,255)" d="M 495.75 32 L 495.75 64 496.25 64 496.25 32 Z "/>
<path id="p780" fill="rgb(0,0,255)" d="M 480 39.75 L 496 39.75 496 40.25 480 40.25 Z "/>
<path id="p781" fill="rgb(0,0,255)" d="M 487.75 32 L 487.75 48 488.25 48 488.25 32 Z "/>
<path id="p782" fill="rgb(0,0,255)" d="M 480 35.75 L 488 35.75 488 36.25 480 36.25 Z "/>
<path id="p783" fill="rgb(0,0,255)" d="M 483.75 32 L 483.75 40 484.25 40 484.25 32 Z "/>
<path id="p784" fill="rgb(0,0,255)" d="M 488 35.75 L 496 35.75 496 36.25 488 36.25 Z "/>
<path id="p785" fill="rgb(0,0,255)" d="M 491.75 32 L 491.75 40 492.25 40 492.25 32 Z "/>
<path id="p786" fill="rgb(0,0,255)" d="M 480 43.75 L 488 43.75 488 44.25 480 44.25 Z "/>
<path id="p787" fill="rgb(0,0,255)" d="M 483.75 40 L 483.75 48 484.25 48 484.25 40 Z "/>
<path id="p788" fill="rgb(0,0,255)" d="M 488 43.75 L 496 43.75 496 44.25 488 44.25 Z "/>
<path id="p789" fill="rgb(0,0,255)" d="M 491.75 40 L 491.75 48 492.25 48 492.25 40 Z "/>
<path id="p790" fill="rgb(0,0,255)" d="M 480 55.75 L 496 55.75 496 56.25 480 56.25 Z "/>
<path id="p791" fill="rgb(0,0,255)" d="M 487.75 48 L 487.75 64 488.25 64 488.25 48 Z "/>
<path id="p792" fill="rgb(0,0,255)" d="M 480 51.75 L 488 51.75 488 52.25 480 52.25 Z "/>
<path id="p793" fill="rgb(0,0,255)" d="M 483.75 48 L 483.75 56 484.25 56 484.25 48 Z "/>
<path id="p794" fill="rgb(0,0,255)" d="M 488 51.75 L 496 51.75 496 52.25 488 52.25 Z "/>
<path id="p795" fill="rgb(0,0,255)" d="M 491.75 48 L 491.75 56 492.25 56 492.25 48 Z "/>
<path id="p796" fill="rgb(0,0,255)" d="M 480 59.75 L 488 59.75 488 60.25 480 60.25 Z "/>
<path id="p797" fill="rgb(0,0,255)" d="M 483.75 56 L 483.75 64 484.25 64 484.25 56 Z "/>
<path id="p798" fill="rgb(0,0,255)" d="M 488 59.75 L 496 59.75 496 60.25 488 60.25 Z "/>
<path id="p799" fill="rgb(0,0,255)" d="M 491.75 56 L 491.75 64 492.25 64 492.25 56 Z "/>
<path id="p800" fill="rgb(0,0,255)" d="M 384 95.75 L 448 95.75 448 96.25 384 96.25 Z "/>
<path id="p801" fill="rgb(0,0,255)" d="M 415.75 64 L 415.75 128 416.25 128 416.25 64 Z "/>
<path id="p802" fill="rgb(0,0,255)" d="M 384 79.75 L 416 79.75 416 80.25 384 80.25 Z "/>
<path id="p803" fill="rgb(0,0,255)" d="M 399.75 64 L 399.75 96 400.25 96 400.25 64 Z "/>
<path id="p804" fill="rgb(0,0,255)" d="M 400 71.75 L 416 71.75 416 72.25 400 72.25 Z "/>
<path id="p805" fill="rgb(0,0,255)" d="M 407.75 64 L 407.75 80 408.25 80 408.25 64 Z "/>
<path id="p806" fill="rgb(0,0,255)" d="M 400 67.75 L 408 67.75 408 68.25 400 68.25 Z "/>
<path id="p807" fill="rgb(0,0,255)" d="M 403.75 64 L 403.75 72 404.25 72 404.25 64 Z "/>
<path id="p808" fill="rgb(0,0,255)" d="M 408 67.75 L 416 67.75 416 68.25 408 68.25 Z "/>
<path id="p809" fill="rgb(0,0,255)" d="M 411.75 64 L 411.75 72 412.25 72 412.25 64 Z "/>
<path id="p810" fill="rgb(0,0,255)" d="M 448 95.75 L 512 95.75 512 96.25 448 96.25 Z "/>
<path id="p811" fill="rgb(0,0,255)" d="M 479.75 64 L 479.75 128 480.25 128 480.25 64 Z "/>
<path id="p812" fill="rgb(0,0,255)" d="M 448 79.75 L 480 79.75 480 80.25 448 80.25 Z "/>
<path id="p813" fill="rgb(0,0,255)" d="M 463.75 64 L 463.75 96 464.25 96 464.25 64 Z "/>
<path id="p814" fill="rgb(0,0,255)" d="M 448 71.75 L 464 71.75 464 72.25 448 72.25 Z "/>
<path id="p815" fill="rgb(0,0,255)" d="M 455.75 64 L 455.75 80 456.25 80 456.25 64 Z "/>
<path id="p816" fill="rgb(0,0,255)" d="M 448 67.75 L 456 67.75 456 68.25 448 68.25 Z "/>
<path id="p817" fill="rgb(0,0,255)" d="M 451.75 64 L 451.75 72 452.25 72 452.25 64 Z "/>
<path id="p818" fill="rgb(0,0,255)" d="M 456 67.75 L 464 67.75 464 68.25 456 68.25 Z "/>
<path id="p819" fill="rgb(0,0,255)" d="M 459.75 64 L 459.75 72 460.25 72 460.25 64 Z "/>
<path id="p820" fill="rgb(0,0,255)" d="M 480 79.75 L 512 79.75 512 80.25 480 80.25 Z "/>
<path id="p821" fill="rgb(0,0,255)" d="M 495.75 64 L 495.75 96 496.25 96 496.25 64 Z "/>
<path id="p822" fill="rgb(0,0,255)" d="M 480 71.75 L 496 71.75 496 72.25 480 72.25 Z "/>
<path id="p823" fill="rgb(0,0,255)" d="M 487.75 64 L 487.75 80 488.25 80 488.25 64 Z "/>
<path id="p824" fill="rgb(0,0,255)" d="M 480 67.75 L 488 67.75 488 68.25 480 68.25 Z "/>
<path id="p825" fill="rgb(0,0,255)" d="M 483.75 64 L 483.75 72 484.25 72 484.25 64 Z "/>
<path id="p826" fill="rgb(0,0,255)" d="M 488 67.75 L 496 67.75 496 68.25 488 68.25 Z "/>
<path id="p827" fill="rgb(0,0,255)" d="M 491.75 64 L 491.75 72 492.25 72 492.25 64 Z "/>
</g>
</svg>
