<?xml version="1.0" standalone="no"?>
<svg
    xmlns:xlink="http://www.w3.org/1999/xlink"
    xmlns:dc="http://purl.org/dc/elements/1.1/"
    xmlns:cc="http://creativecommons.org/ns#"
    xmlns:rdf="http://www.w3.org/1999/02/22-rdf-syntax-ns#"
    xmlns:svg="http://www.w3.org/2000/svg"
    xmlns="http://www.w3.org/2000/svg"
    version="1.1"
    viewBox="0 0 512 72">
<defs>
</defs>
<g transform="translate(0, 72) scale(1, -1)">
<path id="p1" fill="rgb(0,0,0)" d="M 77.666254336 59.0608305 C 77.666254336 62.302047814286 77.84579328 63.292419771429 84.758042624 63.292419771429 84.758042624 63.292419771429 84.758042624 63.292419771429 84.758042624 63.292419771429 L 86.912509952 63.292419771429 86.912509952 66.083468014286 C 83.7705791525 65.813366633368 77.127640550684 65.813366571429 73.716399914771 65.813366571429 73.716399132514 65.813366571429 73.716398350257 65.813366571429 73.716397568 65.813366571429 70.305157632 65.813366571429 63.572447232 65.813366571429 60.430515712 66.083468014286 L 60.430515712 63.292419771429 62.58498304 63.292419771429 C 69.497232384 63.292419771429 69.676771328 62.302047814286 69.676771328 59.0608305 L 69.676771328 37.992917957143 42.8356992 37.992917957143 42.8356992 59.0608305 C 42.8356992 62.302047814286 43.015238144 63.292419771429 49.927487488 63.292419771429 49.927487488 63.292419771429 49.927487488 63.292419771429 49.927487488 63.292419771429 L 52.081954816 63.292419771429 52.081954816 66.083468014286 C 48.9400240165 65.813366633368 42.297085414684 65.813366571429 38.885844778771 65.813366571429 38.885843996514 65.813366571429 38.885843214257 65.813366571429 38.885842432 65.813366571429 35.474602496 65.813366571429 28.741892096 65.813366571429 25.599960576 66.083468014286 L 25.599960576 63.292419771429 27.754427904 63.292419771429 C 34.666677248 63.292419771429 34.846216192 62.302047814286 34.846216192 59.0608305 L 34.846216192 11.613010371429 C 34.846216192 8.3717930571429 34.666677248 7.3814211 27.754427904 7.3814211 L 25.599960576 7.3814211 25.599960576 4.5903728571429 C 28.741892096 4.8604743 35.384833024 4.8604743 38.79607296 4.8604743 42.207312896 4.8604743 48.940023296 4.8604743 52.081954816 4.5903728571429 L 52.081954816 7.3814211 49.927487488 7.3814211 C 43.015238144 7.3814211 42.8356992 8.3717930571428 42.8356992 11.613010371428 42.8356992 11.613010371428 42.8356992 11.613010371428 42.8356992 11.613010371429 L 42.8356992 35.201869714286 69.676771328 35.201869714286 69.676771328 11.613010371429 C 69.676771328 8.3717930571429 69.497232384 7.3814211 62.58498304 7.3814211 L 60.430515712 7.3814211 60.430515712 4.5903728571429 C 63.572447232 4.8604743 70.21538816 4.8604743 73.626628096 4.8604743 77.037868032 4.8604743 83.770578432 4.8604743 86.912509952 4.5903728571429 L 86.912509952 7.3814211 84.758042624 7.3814211 C 77.84579328 7.3814211 77.666254336 8.3717930571429 77.666254336 11.613010371429 77.666254336 11.613010371429 77.666254336 11.613010371429 77.666254336 11.613010371429 L 77.666254336 59.0608305 Z "/>
<path id="p2" fill="rgb(0,0,0)" d="M 100.018852864 27.278894057143 C 100.557469696 40.693932385714 108.098105344 42.944777742857 111.150267392 42.944777742857 120.396523008 42.944777742857 121.294217728 30.790212814286 121.294217728 27.278894057143 L 100.018852864 27.278894057143 Z M 99.929083392 25.388183957143 L 124.97476608 25.388183957143 C 126.949694464 25.388183957143 127.21900288 25.388183957143 127.21900288 27.278894057143 127.21900288 36.192241671429 122.371451392 44.925521657143 111.150267392 44.925521657143 100.73700864 44.925521657143 92.478217216 35.652038785714 92.478217216 24.397812 92.478217216 24.397812 92.478217216 24.397812 92.478217216 24.397812 92.478217216 12.333280885714 101.904011776 3.6000009 112.227501056 3.6000009 123.17937664 3.6000009 127.21900288 13.593754285714 127.21900288 15.304396757143 127.21900288 16.2047349 126.500847104 16.384802528571 126.051999744 16.384802528571 125.244074496 16.384802528571 125.064535552 15.844599642857 124.884996608 15.124329128571 121.743065088 5.8508462571429 113.663812608 5.8508462571429 112.766117888 5.8508462571429 108.277644288 5.8508462571429 104.686865408 8.5518606857143 102.622167552 11.883111814286 99.929083392 16.2047349 99.929083392 22.146966642857 99.929083392 25.388183957143 Z "/>
<path id="p3" fill="rgb(0,0,0)" d="M 145.711514112 67.073839971429 L 132.784710144 66.083468014286 132.784710144 63.292419771429 C 139.068573184 63.292419771429 139.78672896 62.662183071429 139.78672896 58.250526171429 139.78672896 58.250526171429 139.78672896 58.250526171429 139.78672896 58.250526171429 L 139.78672896 11.432942742857 C 139.78672896 7.3814211 138.799264768 7.3814211 132.784710144 7.3814211 L 132.784710144 4.5903728571429 C 135.74710272 4.6804066714286 140.504884736 4.8604743 142.749121536 4.8604743 144.993358336 4.8604743 149.392062464 4.6804066714286 152.713532928 4.5903728571429 L 152.713532928 7.3814211 C 146.698978304 7.3814211 145.711514112 7.3814211 145.711514112 11.432942742857 L 145.711514112 67.073839971429 Z "/>
<path id="p4" fill="rgb(0,0,0)" d="M 170.577657856 67.073839971429 L 157.650853888 66.083468014286 157.650853888 63.292419771429 C 163.934716928 63.292419771429 164.652872704 62.662183071429 164.652872704 58.250526171429 L 164.652872704 11.432942742857 C 164.652872704 7.3814211 163.665408512 7.3814211 157.650853888 7.3814211 L 157.650853888 4.5903728571429 C 160.613246464 4.6804066714286 165.37102848 4.8604743 167.61526528 4.8604743 169.85950208 4.8604743 174.258206208 4.6804066714286 177.579676672 4.5903728571429 L 177.579676672 7.3814211 C 171.565122048 7.3814211 170.577657856 7.3814211 170.577657856 11.432942742857 170.577657856 11.432942742857 170.577657856 11.432942742857 170.577657856 11.432942742857 L 170.577657856 67.073839971429 Z "/>
<path id="p5" fill="rgb(0,0,0)" d="M 221.836026368 23.857609114286 C 221.836026368 35.381937342857 212.859079168 44.925521657143 201.996973056 44.925521657143 190.775789056 44.925521657143 182.068150272 35.1118359 182.068150272 23.857609114286 182.068150272 12.243247071429 191.40417536 3.6000009 201.907203584 3.6000009 212.769309696 3.6000009 221.836026368 12.4233147 221.836026368 23.857609114286 Z M 201.996973056 5.8508462571429 C 198.13688576 5.8508462571429 194.187028992 7.7415563571429 191.763253248 11.883111814286 189.51901674 15.84459912742 189.519016448 21.33666088512 189.519016448 24.577878363408 189.519016448 24.57787878513 189.519016448 24.57787920685 189.519016448 24.577879628571 189.519016448 28.089198385714 189.519016448 32.951024357143 191.673483776 36.912512185714 194.09725952 41.054067642857 198.316424704 42.944777742857 201.907203584 42.944777742857 205.857060352 42.944777742857 209.717147648 40.964033828571 212.05115392 37.092579814286 214.38516004332 33.221126046618 214.385160192 27.999165236724 214.385160192 24.577880282396 214.385160192 24.577880064455 214.385160192 24.577879846513 214.385160192 24.577879628571 214.385160192 21.336662314286 214.385160192 16.474836342857 212.410231808 12.513348514286 210.435303424 8.4618268714286 206.485446656 5.8508462571429 201.996973056 5.8508462571429 Z "/>
<path id="p6" fill="rgb(0,0,0)" d="M 309.8998784 34.841734457143 C 311.515728896 39.343425171429 314.298582528 40.513864757143 317.440514048 40.603898571429 L 317.440514048 43.394946814286 C 315.465585664 43.214879185714 312.862270976 43.124845371429 310.887342592 43.124845371429 308.284027904 43.124845371429 304.244401664 43.304913 302.538781696 43.394946814286 L 302.538781696 40.603898571429 C 305.770482688 40.513864757143 307.745411072 38.8932561 307.745411072 36.282275485714 307.745411072 35.7420726 307.745411072 35.562004971429 307.296563712 34.391565385714 L 299.12754176 11.342908928571 290.240364032 36.462343114286 C 289.881286144 37.542748885714 289.791516672 37.722816514286 289.791516672 38.172985585714 289.791516672 40.603898571429 293.29252608 40.603898571429 295.08791552 40.603898571429 L 295.08791552 43.394946814286 C 292.484600832 43.304913 287.90635776 43.124845371429 285.751890432 43.124845371429 283.058806272 43.124845371429 280.455491584 43.214879185714 277.762407424 43.394946814286 L 277.762407424 40.603898571429 C 281.083877888 40.603898571429 282.52018944 40.423830942857 283.41788416 39.253391357143 283.86673152 38.713188471429 284.854195712 36.012174042857 285.482582016 34.301531571429 L 277.762407424 12.513348514286 269.234307584 36.552376928571 C 268.785460224 37.6327827 268.785460224 37.812850328571 268.785460224 38.172985585714 268.785460224 40.603898571429 272.286469632 40.603898571429 274.081859072 40.603898571429 L 274.081859072 43.394946814286 C 271.388774912 43.304913 266.36168448 43.124845371429 264.296986624 43.124845371429 263.937908736 43.124845371429 259.18012672 43.214879185714 255.948425728 43.394946814286 L 255.948425728 40.603898571429 C 260.436899328 40.603898571429 261.514132992 40.333797128571 262.591366656 37.452715071429 L 273.902320128 5.5807448142857 C 274.351167488 4.3202714142857 274.620475904 3.6000009 275.78747904 3.6000009 276.954482176 3.6000009 277.13402112 4.1402037857143 277.58286848 5.4006771857143 L 286.649585152 30.880246628571 295.806071296 5.3106433714286 C 296.165149184 4.3202714142857 296.4344576 3.6000009 297.601460736 3.6000009 298.768463872 3.6000009 299.037772288 4.4103052285714 299.396850176 5.3106433714286 L 309.8998784 34.841734457143 Z "/>
<path id="p7" fill="rgb(0,0,0)" d="M 361.427555328 23.857609114286 C 361.427555328 35.381937342857 352.450608128 44.925521657143 341.588502016 44.925521657143 330.367318016 44.925521657143 321.659679232 35.1118359 321.659679232 23.857609114286 321.659679232 23.857609114286 321.659679232 23.857609114286 321.659679232 23.857609114286 321.659679232 12.243247071429 330.99570432 3.6000009 341.498732544 3.6000009 352.360838656 3.6000009 361.427555328 12.4233147 361.427555328 23.857609114286 Z M 341.588502016 5.8508462571429 C 337.72841472 5.8508462571429 333.778557952 7.7415563571429 331.354782208 11.883111814286 329.1105458697 15.84459882788 329.110545408 21.336660054577 329.110545408 24.577877628173 329.110545408 24.577878294973 329.110545408 24.577878961772 329.110545408 24.577879628571 329.110545408 28.089198385714 329.110545408 32.951024357143 331.265012736 36.912512185714 333.68878848 41.054067642857 337.907953664 42.944777742857 341.498732544 42.944777742857 345.448589312 42.944777742857 349.308676608 40.964033828571 351.64268288 37.092579814286 353.976689152 33.2211258 353.976689152 27.999164571429 353.976689152 24.577879628571 353.976689152 21.336662314286 353.976689152 16.474836342857 352.001760768 12.513348514286 350.026832384 8.4618268714286 346.076975616 5.8508462571429 341.588502016 5.8508462571429 Z "/>
<path id="p8" fill="rgb(0,0,0)" d="M 379.02237184 34.4815992 L 379.02237184 44.385318771429 366.544415232 43.394946814286 366.544415232 40.603898571429 C 372.828278272 40.603898571429 373.546434048 39.973661871429 373.546434048 35.562004971429 373.546434048 35.562004971429 373.546434048 35.562004971429 373.546434048 35.562004971429 L 373.546434048 11.432942742857 C 373.546434048 7.3814211 372.558969856 7.3814211 366.544415232 7.3814211 L 366.544415232 4.5903728571429 C 370.04542464 4.6804066714286 374.264589824 4.8604743 376.77813504 4.8604743 380.36891392 4.8604743 384.588079104 4.8604743 388.178857984 4.5903728571429 L 388.178857984 7.3814211 386.293699072 7.3814211 C 379.650758144 7.3814211 379.4712192 8.3717930571429 379.4712192 11.613010371429 L 379.4712192 25.478217771429 C 379.4712192 34.391565385714 383.241537024 42.404574857143 390.064016896 42.404574857143 390.6924032 42.404574857143 390.871942144 42.404574857143 391.051481088 42.314541042857 390.782172672 42.224507228571 388.986783232 41.144101457143 388.986783232 38.803222285714 388.986783232 38.803222285714 388.986783232 38.803222285714 388.986783232 38.803222285714 388.986783232 36.282275485714 390.871942144 34.931768271429 392.846870528 34.931768271429 394.462721024 34.931768271429 396.706957824 36.012174042857 396.706957824 38.8932561 396.706957824 41.774338157143 393.924104192 44.385318771429 390.064016896 44.385318771429 383.51084544 44.385318771429 380.279144448 38.353053214286 379.02237184 34.4815992 Z "/>
<path id="p9" fill="rgb(0,0,0)" d="M 415.019930112 67.073839971429 L 402.093126144 66.083468014286 402.093126144 63.292419771429 C 408.376989184 63.292419771429 409.09514496 62.662183071429 409.09514496 58.250526171429 409.09514496 58.250526171429 409.09514496 58.250526171429 409.09514496 58.250526171429 L 409.09514496 11.432942742857 C 409.09514496 7.3814211 408.107680768 7.3814211 402.093126144 7.3814211 L 402.093126144 4.5903728571429 C 405.05551872 4.6804066714286 409.813300736 4.8604743 412.057537536 4.8604743 414.301774336 4.8604743 418.700478464 4.6804066714286 422.021948928 4.5903728571429 L 422.021948928 7.3814211 C 416.007394304 7.3814211 415.019930112 7.3814211 415.019930112 11.432942742857 L 415.019930112 67.073839971429 Z "/>
<path id="p10" fill="rgb(0,0,0)" d="M 458.109276672 9.5422326428571 L 458.109276672 3.6000009 471.305389056 4.5903728571429 471.305389056 7.3814211 C 465.021526016 7.3814211 464.30337024 8.0116578 464.30337024 12.4233147 464.30337024 12.4233147 464.30337024 12.4233147 464.30337024 12.4233147 L 464.30337024 67.073839971429 451.376566272 66.083468014286 451.376566272 63.292419771429 C 457.660429312 63.292419771429 458.378585088 62.662183071429 458.378585088 58.250526171429 458.378585088 58.250526171429 458.378585088 58.250526171429 458.378585088 58.250526171429 L 458.378585088 38.803222285714 C 455.7752704 42.0444396 451.915183104 44.385318771429 447.067631616 44.385318771429 436.47483392 44.385318771429 427.04903936 35.562004971429 427.04903936 23.947642928572 427.04903936 23.947642928571 427.04903936 23.947642928571 427.04903936 23.947642928571 427.04903936 12.513348514286 435.846447616 3.6000009 446.080167424 3.6000009 451.825413632 3.6000009 455.865039872 6.6611505857143 458.109276672 9.5422326428571 Z M 458.109276672 33.671294871429 L 458.109276672 15.214362942857 C 458.109276672 13.593754285714 458.109276672 13.413686657143 457.12181248 11.883111814286 454.42872832 7.5614887285714 450.38910208 5.5807448142857 446.529014784 5.5807448142857 442.489388544 5.5807448142857 439.257687552 7.9216239857143 437.103220224 11.342908928571 434.769213952 15.034295314285 434.499905536 20.16622272857 434.499905536 23.857609114285 434.499905536 23.857609114285 434.499905536 23.857609114285 434.499905536 23.857609114286 434.499905536 27.188860242857 434.67944448 32.5908891 437.282759168 36.642410742857 439.16791808 39.433458985714 442.579158016 42.404574857143 447.426709504 42.404574857143 450.568641024 42.404574857143 454.338958848 41.054067642857 457.12181248 37.002546 458.10927626168 35.471971793135 458.109276672 35.291903678217 458.109276672 33.671296891637 458.109276672 33.671296218234 458.109276672 33.671295544832 458.109276672 33.671294871429 Z "/>
<path id="p11" fill="rgb(0,0,0)" d="M 487.553663488 23.407440042857 L 491.054672896 64.462859357143 C 491.054672896 67.433975228571 488.630897152 69.054583885714 486.29689088 69.054583885714 483.962884608 69.054583885714 481.539108864 67.433975228571 481.539108864 64.462859357143 481.539108864 64.462859357143 481.539108864 64.462859357143 481.539108864 64.462859357143 L 485.040118272 23.497473857143 C 485.129887744 22.146966642857 485.219657216 21.426696128571 486.29689088 21.426696128571 487.1945856 21.426696128571 487.463894016 21.8768652 487.553663488 23.407440042857 Z M 491.054672896 9.3621650142857 C 491.054672896 11.973145628571 488.900205568 14.133957171429 486.29689088 14.133957171429 483.693576192 14.133957171429 481.539108864 11.973145628571 481.539108864 9.3621650142858 481.539108864 9.3621650142858 481.539108864 9.3621650142857 481.539108864 9.3621650142857 481.539108864 6.7511844 483.693576192 4.5903728571429 486.29689088 4.5903728571429 488.900205568 4.5903728571429 491.054672896 6.7511844 491.054672896 9.3621650142857 Z "/>
<path id="p12" fill="rgb(0,0,255)" d="M 0 -0.25 L 512 -0.25 512 0.25 0 0.25 Z "/>
<path id="p13" fill="rgb(0,0,255)" d="M 0 511.75 L 512 511.75 512 512.25 0 512.25 Z "/>
<path id="p14" fill="rgb(0,0,255)" d="M -0.25 0 L -0.25 512 0.25 512 0.25 0 Z "/>
<path id="p15" fill="rgb(0,0,255)" d="M 511.75 0 L 511.75 512 512.25 512 512.25 0 Z "/>
<path id="p16" fill="rgb(0,0,255)" d="M 0 255.75 L 512 255.75 512 256.25 0 256.25 Z "/>
<path id="p17" fill="rgb(0,0,255)" d="M 255.75 0 L 255.75 512 256.25 512 256.25 0 Z "/>
<path id="p18" fill="rgb(0,0,255)" d="M 0 127.75 L 256 127.75 256 128.25 0 128.25 Z "/>
<path id="p19" fill="rgb(0,0,255)" d="M 127.75 0 L 127.75 256 128.25 256 128.25 0 Z "/>
<path id="p20" fill="rgb(0,0,255)" d="M 0 63.75 L 128 63.75 128 64.25 0 64.25 Z "/>
<path id="p21" fill="rgb(0,0,255)" d="M 63.75 0 L 63.75 128 64.25 128 64.25 0 Z "/>
<path id="p22" fill="rgb(0,0,255)" d="M 0 31.75 L 64 31.75 64 32.25 0 32.25 Z "/>
<path id="p23" fill="rgb(0,0,255)" d="M 31.75 0 L 31.75 64 32.25 64 32.25 0 Z "/>
<path id="p24" fill="rgb(0,0,255)" d="M 0 15.75 L 32 15.75 32 16.25 0 16.25 Z "/>
<path id="p25" fill="rgb(0,0,255)" d="M 15.75 0 L 15.75 32 16.25 32 16.25 0 Z "/>
<path id="p26" fill="rgb(0,0,255)" d="M 16 7.75 L 32 7.75 32 8.25 16 8.25 Z "/>
<path id="p27" fill="rgb(0,0,255)" d="M 23.75 0 L 23.75 16 24.25 16 24.25 0 Z "/>
<path id="p28" fill="rgb(0,0,255)" d="M 32 15.75 L 64 15.75 64 16.25 32 16.25 Z "/>
<path id="p29" fill="rgb(0,0,255)" d="M 47.75 0 L 47.75 32 48.25 32 48.25 0 Z "/>
<path id="p30" fill="rgb(0,0,255)" d="M 32 7.75 L 48 7.75 48 8.25 32 8.25 Z "/>
<path id="p31" fill="rgb(0,0,255)" d="M 39.75 0 L 39.75 16 40.25 16 40.25 0 Z "/>
<path id="p32" fill="rgb(0,0,255)" d="M 48 7.75 L 64 7.75 64 8.25 48 8.25 Z "/>
<path id="p33" fill="rgb(0,0,255)" d="M 55.75 0 L 55.75 16 56.25 16 56.25 0 Z "/>
<path id="p34" fill="rgb(0,0,255)" d="M 0 47.75 L 32 47.75 32 48.25 0 48.25 Z "/>
<path id="p35" fill="rgb(0,0,255)" d="M 15.75 32 L 15.75 64 16.25 64 16.25 32 Z "/>
<path id="p36" fill="rgb(0,0,255)" d="M 16 55.75 L 32 55.75 32 56.25 16 56.25 Z "/>
<path id="p37" fill="rgb(0,0,255)" d="M 23.75 48 L 23.75 64 24.25 64 24.25 48 Z "/>
<path id="p38" fill="rgb(0,0,255)" d="M 32 47.75 L 64 47.75 64 48.25 32 48.25 Z "/>
<path id="p39" fill="rgb(0,0,255)" d="M 47.75 32 L 47.75 64 48.25 64 48.25 32 Z "/>
<path id="p40" fill="rgb(0,0,255)" d="M 32 39.75 L 48 39.75 48 40.25 32 40.25 Z "/>
<path id="p41" fill="rgb(0,0,255)" d="M 39.75 32 L 39.75 48 40.25 48 40.25 32 Z "/>
<path id="p42" fill="rgb(0,0,255)" d="M 32 55.75 L 48 55.75 48 56.25 32 56.25 Z "/>
<path id="p43" fill="rgb(0,0,255)" d="M 39.75 48 L 39.75 64 40.25 64 40.25 48 Z "/>
<path id="p44" fill="rgb(0,0,255)" d="M 48 55.75 L 64 55.75 64 56.25 48 56.25 Z "/>
<path id="p45" fill="rgb(0,0,255)" d="M 55.75 48 L 55.75 64 56.25 64 56.25 48 Z "/>
<path id="p46" fill="rgb(0,0,255)" d="M 64 31.75 L 128 31.75 128 32.25 64 32.25 Z "/>
<path id="p47" fill="rgb(0,0,255)" d="M 95.75 0 L 95.75 64 96.25 64 96.25 0 Z "/>
<path id="p48" fill="rgb(0,0,255)" d="M 64 15.75 L 96 15.75 96 16.25 64 16.25 Z "/>
<path id="p49" fill="rgb(0,0,255)" d="M 79.75 0 L 79.75 32 80.25 32 80.25 0 Z "/>
<path id="p50" fill="rgb(0,0,255)" d="M 64 7.75 L 80 7.75 80 8.25 64 8.25 Z "/>
<path id="p51" fill="rgb(0,0,255)" d="M 71.75 0 L 71.75 16 72.25 16 72.25 0 Z "/>
<path id="p52" fill="rgb(0,0,255)" d="M 80 7.75 L 96 7.75 96 8.25 80 8.25 Z "/>
<path id="p53" fill="rgb(0,0,255)" d="M 87.75 0 L 87.75 16 88.25 16 88.25 0 Z "/>
<path id="p54" fill="rgb(0,0,255)" d="M 80 23.75 L 96 23.75 96 24.25 80 24.25 Z "/>
<path id="p55" fill="rgb(0,0,255)" d="M 87.75 16 L 87.75 32 88.25 32 88.25 16 Z "/>
<path id="p56" fill="rgb(0,0,255)" d="M 96 15.75 L 128 15.75 128 16.25 96 16.25 Z "/>
<path id="p57" fill="rgb(0,0,255)" d="M 111.75 0 L 111.75 32 112.25 32 112.25 0 Z "/>
<path id="p58" fill="rgb(0,0,255)" d="M 96 7.75 L 112 7.75 112 8.25 96 8.25 Z "/>
<path id="p59" fill="rgb(0,0,255)" d="M 103.75 0 L 103.75 16 104.25 16 104.25 0 Z "/>
<path id="p60" fill="rgb(0,0,255)" d="M 112 7.75 L 128 7.75 128 8.25 112 8.25 Z "/>
<path id="p61" fill="rgb(0,0,255)" d="M 119.75 0 L 119.75 16 120.25 16 120.25 0 Z "/>
<path id="p62" fill="rgb(0,0,255)" d="M 96 23.75 L 112 23.75 112 24.25 96 24.25 Z "/>
<path id="p63" fill="rgb(0,0,255)" d="M 103.75 16 L 103.75 32 104.25 32 104.25 16 Z "/>
<path id="p64" fill="rgb(0,0,255)" d="M 112 23.75 L 128 23.75 128 24.25 112 24.25 Z "/>
<path id="p65" fill="rgb(0,0,255)" d="M 119.75 16 L 119.75 32 120.25 32 120.25 16 Z "/>
<path id="p66" fill="rgb(0,0,255)" d="M 64 47.75 L 96 47.75 96 48.25 64 48.25 Z "/>
<path id="p67" fill="rgb(0,0,255)" d="M 79.75 32 L 79.75 64 80.25 64 80.25 32 Z "/>
<path id="p68" fill="rgb(0,0,255)" d="M 64 39.75 L 80 39.75 80 40.25 64 40.25 Z "/>
<path id="p69" fill="rgb(0,0,255)" d="M 71.75 32 L 71.75 48 72.25 48 72.25 32 Z "/>
<path id="p70" fill="rgb(0,0,255)" d="M 80 39.75 L 96 39.75 96 40.25 80 40.25 Z "/>
<path id="p71" fill="rgb(0,0,255)" d="M 87.75 32 L 87.75 48 88.25 48 88.25 32 Z "/>
<path id="p72" fill="rgb(0,0,255)" d="M 64 55.75 L 80 55.75 80 56.25 64 56.25 Z "/>
<path id="p73" fill="rgb(0,0,255)" d="M 71.75 48 L 71.75 64 72.25 64 72.25 48 Z "/>
<path id="p74" fill="rgb(0,0,255)" d="M 80 55.75 L 96 55.75 96 56.25 80 56.25 Z "/>
<path id="p75" fill="rgb(0,0,255)" d="M 87.75 48 L 87.75 64 88.25 64 88.25 48 Z "/>
<path id="p76" fill="rgb(0,0,255)" d="M 96 47.75 L 128 47.75 128 48.25 96 48.25 Z "/>
<path id="p77" fill="rgb(0,0,255)" d="M 111.75 32 L 111.75 64 112.25 64 112.25 32 Z "/>
<path id="p78" fill="rgb(0,0,255)" d="M 96 39.75 L 112 39.75 112 40.25 96 40.25 Z "/>
<path id="p79" fill="rgb(0,0,255)" d="M 103.75 32 L 103.75 48 104.25 48 104.25 32 Z "/>
<path id="p80" fill="rgb(0,0,255)" d="M 112 39.75 L 128 39.75 128 40.25 112 40.25 Z "/>
<path id="p81" fill="rgb(0,0,255)" d="M 119.75 32 L 119.75 48 120.25 48 120.25 32 Z "/>
<path id="p82" fill="rgb(0,0,255)" d="M 0 95.75 L 64 95.75 64 96.25 0 96.25 Z "/>
<path id="p83" fill="rgb(0,0,255)" d="M 31.75 64 L 31.75 128 32.25 128 32.25 64 Z "/>
<path id="p84" fill="rgb(0,0,255)" d="M 0 79.75 L 32 79.75 32 80.25 0 80.25 Z "/>
<path id="p85" fill="rgb(0,0,255)" d="M 15.75 64 L 15.75 96 16.25 96 16.25 64 Z "/>
<path id="p86" fill="rgb(0,0,255)" d="M 16 71.75 L 32 71.75 32 72.25 16 72.25 Z "/>
<path id="p87" fill="rgb(0,0,255)" d="M 23.75 64 L 23.75 80 24.25 80 24.25 64 Z "/>
<path id="p88" fill="rgb(0,0,255)" d="M 32 79.75 L 64 79.75 64 80.25 32 80.25 Z "/>
<path id="p89" fill="rgb(0,0,255)" d="M 47.75 64 L 47.75 96 48.25 96 48.25 64 Z "/>
<path id="p90" fill="rgb(0,0,255)" d="M 32 71.75 L 48 71.75 48 72.25 32 72.25 Z "/>
<path id="p91" fill="rgb(0,0,255)" d="M 39.75 64 L 39.75 80 40.25 80 40.25 64 Z "/>
<path id="p92" fill="rgb(0,0,255)" d="M 48 71.75 L 64 71.75 64 72.25 48 72.25 Z "/>
<path id="p93" fill="rgb(0,0,255)" d="M 55.75 64 L 55.75 80 56.25 80 56.25 64 Z "/>
<path id="p94" fill="rgb(0,0,255)" d="M 64 95.75 L 128 95.75 128 96.25 64 96.25 Z "/>
<path id="p95" fill="rgb(0,0,255)" d="M 95.75 64 L 95.75 128 96.25 128 96.25 64 Z "/>
<path id="p96" fill="rgb(0,0,255)" d="M 64 79.75 L 96 79.75 96 80.25 64 80.25 Z "/>
<path id="p97" fill="rgb(0,0,255)" d="M 79.75 64 L 79.75 96 80.25 96 80.25 64 Z "/>
<path id="p98" fill="rgb(0,0,255)" d="M 64 71.75 L 80 71.75 80 72.25 64 72.25 Z "/>
<path id="p99" fill="rgb(0,0,255)" d="M 71.75 64 L 71.75 80 72.25 80 72.25 64 Z "/>
<path id="p100" fill="rgb(0,0,255)" d="M 80 71.75 L 96 71.75 96 72.25 80 72.25 Z "/>
<path id="p101" fill="rgb(0,0,255)" d="M 87.75 64 L 87.75 80 88.25 80 88.25 64 Z "/>
<path id="p102" fill="rgb(0,0,255)" d="M 128 63.75 L 256 63.75 256 64.25 128 64.25 Z "/>
<path id="p103" fill="rgb(0,0,255)" d="M 191.75 0 L 191.75 128 192.25 128 192.25 0 Z "/>
<path id="p104" fill="rgb(0,0,255)" d="M 128 31.75 L 192 31.75 192 32.25 128 32.25 Z "/>
<path id="p105" fill="rgb(0,0,255)" d="M 159.75 0 L 159.75 64 160.25 64 160.25 0 Z "/>
<path id="p106" fill="rgb(0,0,255)" d="M 128 15.75 L 160 15.75 160 16.25 128 16.25 Z "/>
<path id="p107" fill="rgb(0,0,255)" d="M 143.75 0 L 143.75 32 144.25 32 144.25 0 Z "/>
<path id="p108" fill="rgb(0,0,255)" d="M 128 7.75 L 144 7.75 144 8.25 128 8.25 Z "/>
<path id="p109" fill="rgb(0,0,255)" d="M 135.75 0 L 135.75 16 136.25 16 136.25 0 Z "/>
<path id="p110" fill="rgb(0,0,255)" d="M 144 7.75 L 160 7.75 160 8.25 144 8.25 Z "/>
<path id="p111" fill="rgb(0,0,255)" d="M 151.75 0 L 151.75 16 152.25 16 152.25 0 Z "/>
<path id="p112" fill="rgb(0,0,255)" d="M 160 15.75 L 192 15.75 192 16.25 160 16.25 Z "/>
<path id="p113" fill="rgb(0,0,255)" d="M 175.75 0 L 175.75 32 176.25 32 176.25 0 Z "/>
<path id="p114" fill="rgb(0,0,255)" d="M 160 7.75 L 176 7.75 176 8.25 160 8.25 Z "/>
<path id="p115" fill="rgb(0,0,255)" d="M 167.75 0 L 167.75 16 168.25 16 168.25 0 Z "/>
<path id="p116" fill="rgb(0,0,255)" d="M 176 7.75 L 192 7.75 192 8.25 176 8.25 Z "/>
<path id="p117" fill="rgb(0,0,255)" d="M 183.75 0 L 183.75 16 184.25 16 184.25 0 Z "/>
<path id="p118" fill="rgb(0,0,255)" d="M 176 23.75 L 192 23.75 192 24.25 176 24.25 Z "/>
<path id="p119" fill="rgb(0,0,255)" d="M 183.75 16 L 183.75 32 184.25 32 184.25 16 Z "/>
<path id="p120" fill="rgb(0,0,255)" d="M 128 47.75 L 160 47.75 160 48.25 128 48.25 Z "/>
<path id="p121" fill="rgb(0,0,255)" d="M 143.75 32 L 143.75 64 144.25 64 144.25 32 Z "/>
<path id="p122" fill="rgb(0,0,255)" d="M 128 55.75 L 144 55.75 144 56.25 128 56.25 Z "/>
<path id="p123" fill="rgb(0,0,255)" d="M 135.75 48 L 135.75 64 136.25 64 136.25 48 Z "/>
<path id="p124" fill="rgb(0,0,255)" d="M 144 55.75 L 160 55.75 160 56.25 144 56.25 Z "/>
<path id="p125" fill="rgb(0,0,255)" d="M 151.75 48 L 151.75 64 152.25 64 152.25 48 Z "/>
<path id="p126" fill="rgb(0,0,255)" d="M 160 47.75 L 192 47.75 192 48.25 160 48.25 Z "/>
<path id="p127" fill="rgb(0,0,255)" d="M 175.75 32 L 175.75 64 176.25 64 176.25 32 Z "/>
<path id="p128" fill="rgb(0,0,255)" d="M 176 39.75 L 192 39.75 192 40.25 176 40.25 Z "/>
<path id="p129" fill="rgb(0,0,255)" d="M 183.75 32 L 183.75 48 184.25 48 184.25 32 Z "/>
<path id="p130" fill="rgb(0,0,255)" d="M 160 55.75 L 176 55.75 176 56.25 160 56.25 Z "/>
<path id="p131" fill="rgb(0,0,255)" d="M 167.75 48 L 167.75 64 168.25 64 168.25 48 Z "/>
<path id="p132" fill="rgb(0,0,255)" d="M 192 31.75 L 256 31.75 256 32.25 192 32.25 Z "/>
<path id="p133" fill="rgb(0,0,255)" d="M 223.75 0 L 223.75 64 224.25 64 224.25 0 Z "/>
<path id="p134" fill="rgb(0,0,255)" d="M 192 15.75 L 224 15.75 224 16.25 192 16.25 Z "/>
<path id="p135" fill="rgb(0,0,255)" d="M 207.75 0 L 207.75 32 208.25 32 208.25 0 Z "/>
<path id="p136" fill="rgb(0,0,255)" d="M 192 7.75 L 208 7.75 208 8.25 192 8.25 Z "/>
<path id="p137" fill="rgb(0,0,255)" d="M 199.75 0 L 199.75 16 200.25 16 200.25 0 Z "/>
<path id="p138" fill="rgb(0,0,255)" d="M 208 7.75 L 224 7.75 224 8.25 208 8.25 Z "/>
<path id="p139" fill="rgb(0,0,255)" d="M 215.75 0 L 215.75 16 216.25 16 216.25 0 Z "/>
<path id="p140" fill="rgb(0,0,255)" d="M 208 23.75 L 224 23.75 224 24.25 208 24.25 Z "/>
<path id="p141" fill="rgb(0,0,255)" d="M 215.75 16 L 215.75 32 216.25 32 216.25 16 Z "/>
<path id="p142" fill="rgb(0,0,255)" d="M 192 47.75 L 224 47.75 224 48.25 192 48.25 Z "/>
<path id="p143" fill="rgb(0,0,255)" d="M 207.75 32 L 207.75 64 208.25 64 208.25 32 Z "/>
<path id="p144" fill="rgb(0,0,255)" d="M 192 39.75 L 208 39.75 208 40.25 192 40.25 Z "/>
<path id="p145" fill="rgb(0,0,255)" d="M 199.75 32 L 199.75 48 200.25 48 200.25 32 Z "/>
<path id="p146" fill="rgb(0,0,255)" d="M 208 39.75 L 224 39.75 224 40.25 208 40.25 Z "/>
<path id="p147" fill="rgb(0,0,255)" d="M 215.75 32 L 215.75 48 216.25 48 216.25 32 Z "/>
<path id="p148" fill="rgb(0,0,255)" d="M 224 47.75 L 256 47.75 256 48.25 224 48.25 Z "/>
<path id="p149" fill="rgb(0,0,255)" d="M 239.75 32 L 239.75 64 240.25 64 240.25 32 Z "/>
<path id="p150" fill="rgb(0,0,255)" d="M 240 39.75 L 256 39.75 256 40.25 240 40.25 Z "/>
<path id="p151" fill="rgb(0,0,255)" d="M 247.75 32 L 247.75 48 248.25 48 248.25 32 Z "/>
<path id="p152" fill="rgb(0,0,255)" d="M 128 95.75 L 192 95.75 192 96.25 128 96.25 Z "/>
<path id="p153" fill="rgb(0,0,255)" d="M 159.75 64 L 159.75 128 160.25 128 160.25 64 Z "/>
<path id="p154" fill="rgb(0,0,255)" d="M 128 79.75 L 160 79.75 160 80.25 128 80.25 Z "/>
<path id="p155" fill="rgb(0,0,255)" d="M 143.75 64 L 143.75 96 144.25 96 144.25 64 Z "/>
<path id="p156" fill="rgb(0,0,255)" d="M 128 71.75 L 144 71.75 144 72.25 128 72.25 Z "/>
<path id="p157" fill="rgb(0,0,255)" d="M 135.75 64 L 135.75 80 136.25 80 136.25 64 Z "/>
<path id="p158" fill="rgb(0,0,255)" d="M 144 71.75 L 160 71.75 160 72.25 144 72.25 Z "/>
<path id="p159" fill="rgb(0,0,255)" d="M 151.75 64 L 151.75 80 152.25 80 152.25 64 Z "/>
<path id="p160" fill="rgb(0,0,255)" d="M 160 79.75 L 192 79.75 192 80.25 160 80.25 Z "/>
<path id="p161" fill="rgb(0,0,255)" d="M 175.75 64 L 175.75 96 176.25 96 176.25 64 Z "/>
<path id="p162" fill="rgb(0,0,255)" d="M 160 71.75 L 176 71.75 176 72.25 160 72.25 Z "/>
<path id="p163" fill="rgb(0,0,255)" d="M 167.75 64 L 167.75 80 168.25 80 168.25 64 Z "/>
<path id="p164" fill="rgb(0,0,255)" d="M 256 127.75 L 512 127.75 512 128.25 256 128.25 Z "/>
<path id="p165" fill="rgb(0,0,255)" d="M 383.75 0 L 383.75 256 384.25 256 384.25 0 Z "/>
<path id="p166" fill="rgb(0,0,255)" d="M 256 63.75 L 384 63.75 384 64.25 256 64.25 Z "/>
<path id="p167" fill="rgb(0,0,255)" d="M 319.75 0 L 319.75 128 320.25 128 320.25 0 Z "/>
<path id="p168" fill="rgb(0,0,255)" d="M 256 31.75 L 320 31.75 320 32.25 256 32.25 Z "/>
<path id="p169" fill="rgb(0,0,255)" d="M 287.75 0 L 287.75 64 288.25 64 288.25 0 Z "/>
<path id="p170" fill="rgb(0,0,255)" d="M 256 15.75 L 288 15.75 288 16.25 256 16.25 Z "/>
<path id="p171" fill="rgb(0,0,255)" d="M 271.75 0 L 271.75 32 272.25 32 272.25 0 Z "/>
<path id="p172" fill="rgb(0,0,255)" d="M 256 7.75 L 272 7.75 272 8.25 256 8.25 Z "/>
<path id="p173" fill="rgb(0,0,255)" d="M 263.75 0 L 263.75 16 264.25 16 264.25 0 Z "/>
<path id="p174" fill="rgb(0,0,255)" d="M 272 7.75 L 288 7.75 288 8.25 272 8.25 Z "/>
<path id="p175" fill="rgb(0,0,255)" d="M 279.75 0 L 279.75 16 280.25 16 280.25 0 Z "/>
<path id="p176" fill="rgb(0,0,255)" d="M 256 23.75 L 272 23.75 272 24.25 256 24.25 Z "/>
<path id="p177" fill="rgb(0,0,255)" d="M 263.75 16 L 263.75 32 264.25 32 264.25 16 Z "/>
<path id="p178" fill="rgb(0,0,255)" d="M 272 23.75 L 288 23.75 288 24.25 272 24.25 Z "/>
<path id="p179" fill="rgb(0,0,255)" d="M 279.75 16 L 279.75 32 280.25 32 280.25 16 Z "/>
<path id="p180" fill="rgb(0,0,255)" d="M 288 15.75 L 320 15.75 320 16.25 288 16.25 Z "/>
<path id="p181" fill="rgb(0,0,255)" d="M 303.75 0 L 303.75 32 304.25 32 304.25 0 Z "/>
<path id="p182" fill="rgb(0,0,255)" d="M 288 7.75 L 304 7.75 304 8.25 288 8.25 Z "/>
<path id="p183" fill="rgb(0,0,255)" d="M 295.75 0 L 295.75 16 296.25 16 296.25 0 Z "/>
<path id="p184" fill="rgb(0,0,255)" d="M 288 23.75 L 304 23.75 304 24.25 288 24.25 Z "/>
<path id="p185" fill="rgb(0,0,255)" d="M 295.75 16 L 295.75 32 296.25 32 296.25 16 Z "/>
<path id="p186" fill="rgb(0,0,255)" d="M 304 23.75 L 320 23.75 320 24.25 304 24.25 Z "/>
<path id="p187" fill="rgb(0,0,255)" d="M 311.75 16 L 311.75 32 312.25 32 312.25 16 Z "/>
<path id="p188" fill="rgb(0,0,255)" d="M 256 47.75 L 288 47.75 288 48.25 256 48.25 Z "/>
<path id="p189" fill="rgb(0,0,255)" d="M 271.75 32 L 271.75 64 272.25 64 272.25 32 Z "/>
<path id="p190" fill="rgb(0,0,255)" d="M 256 39.75 L 272 39.75 272 40.25 256 40.25 Z "/>
<path id="p191" fill="rgb(0,0,255)" d="M 263.75 32 L 263.75 48 264.25 48 264.25 32 Z "/>
<path id="p192" fill="rgb(0,0,255)" d="M 272 39.75 L 288 39.75 288 40.25 272 40.25 Z "/>
<path id="p193" fill="rgb(0,0,255)" d="M 279.75 32 L 279.75 48 280.25 48 280.25 32 Z "/>
<path id="p194" fill="rgb(0,0,255)" d="M 288 47.75 L 320 47.75 320 48.25 288 48.25 Z "/>
<path id="p195" fill="rgb(0,0,255)" d="M 303.75 32 L 303.75 64 304.25 64 304.25 32 Z "/>
<path id="p196" fill="rgb(0,0,255)" d="M 288 39.75 L 304 39.75 304 40.25 288 40.25 Z "/>
<path id="p197" fill="rgb(0,0,255)" d="M 295.75 32 L 295.75 48 296.25 48 296.25 32 Z "/>
<path id="p198" fill="rgb(0,0,255)" d="M 304 39.75 L 320 39.75 320 40.25 304 40.25 Z "/>
<path id="p199" fill="rgb(0,0,255)" d="M 311.75 32 L 311.75 48 312.25 48 312.25 32 Z "/>
<path id="p200" fill="rgb(0,0,255)" d="M 320 31.75 L 384 31.75 384 32.25 320 32.25 Z "/>
<path id="p201" fill="rgb(0,0,255)" d="M 351.75 0 L 351.75 64 352.25 64 352.25 0 Z "/>
<path id="p202" fill="rgb(0,0,255)" d="M 320 15.75 L 352 15.75 352 16.25 320 16.25 Z "/>
<path id="p203" fill="rgb(0,0,255)" d="M 335.75 0 L 335.75 32 336.25 32 336.25 0 Z "/>
<path id="p204" fill="rgb(0,0,255)" d="M 320 7.75 L 336 7.75 336 8.25 320 8.25 Z "/>
<path id="p205" fill="rgb(0,0,255)" d="M 327.75 0 L 327.75 16 328.25 16 328.25 0 Z "/>
<path id="p206" fill="rgb(0,0,255)" d="M 336 7.75 L 352 7.75 352 8.25 336 8.25 Z "/>
<path id="p207" fill="rgb(0,0,255)" d="M 343.75 0 L 343.75 16 344.25 16 344.25 0 Z "/>
<path id="p208" fill="rgb(0,0,255)" d="M 320 23.75 L 336 23.75 336 24.25 320 24.25 Z "/>
<path id="p209" fill="rgb(0,0,255)" d="M 327.75 16 L 327.75 32 328.25 32 328.25 16 Z "/>
<path id="p210" fill="rgb(0,0,255)" d="M 352 15.75 L 384 15.75 384 16.25 352 16.25 Z "/>
<path id="p211" fill="rgb(0,0,255)" d="M 367.75 0 L 367.75 32 368.25 32 368.25 0 Z "/>
<path id="p212" fill="rgb(0,0,255)" d="M 352 7.75 L 368 7.75 368 8.25 352 8.25 Z "/>
<path id="p213" fill="rgb(0,0,255)" d="M 359.75 0 L 359.75 16 360.25 16 360.25 0 Z "/>
<path id="p214" fill="rgb(0,0,255)" d="M 368 7.75 L 384 7.75 384 8.25 368 8.25 Z "/>
<path id="p215" fill="rgb(0,0,255)" d="M 375.75 0 L 375.75 16 376.25 16 376.25 0 Z "/>
<path id="p216" fill="rgb(0,0,255)" d="M 352 23.75 L 368 23.75 368 24.25 352 24.25 Z "/>
<path id="p217" fill="rgb(0,0,255)" d="M 359.75 16 L 359.75 32 360.25 32 360.25 16 Z "/>
<path id="p218" fill="rgb(0,0,255)" d="M 368 23.75 L 384 23.75 384 24.25 368 24.25 Z "/>
<path id="p219" fill="rgb(0,0,255)" d="M 375.75 16 L 375.75 32 376.25 32 376.25 16 Z "/>
<path id="p220" fill="rgb(0,0,255)" d="M 320 47.75 L 352 47.75 352 48.25 320 48.25 Z "/>
<path id="p221" fill="rgb(0,0,255)" d="M 335.75 32 L 335.75 64 336.25 64 336.25 32 Z "/>
<path id="p222" fill="rgb(0,0,255)" d="M 320 39.75 L 336 39.75 336 40.25 320 40.25 Z "/>
<path id="p223" fill="rgb(0,0,255)" d="M 327.75 32 L 327.75 48 328.25 48 328.25 32 Z "/>
<path id="p224" fill="rgb(0,0,255)" d="M 336 39.75 L 352 39.75 352 40.25 336 40.25 Z "/>
<path id="p225" fill="rgb(0,0,255)" d="M 343.75 32 L 343.75 48 344.25 48 344.25 32 Z "/>
<path id="p226" fill="rgb(0,0,255)" d="M 352 47.75 L 384 47.75 384 48.25 352 48.25 Z "/>
<path id="p227" fill="rgb(0,0,255)" d="M 367.75 32 L 367.75 64 368.25 64 368.25 32 Z "/>
<path id="p228" fill="rgb(0,0,255)" d="M 352 39.75 L 368 39.75 368 40.25 352 40.25 Z "/>
<path id="p229" fill="rgb(0,0,255)" d="M 359.75 32 L 359.75 48 360.25 48 360.25 32 Z "/>
<path id="p230" fill="rgb(0,0,255)" d="M 368 39.75 L 384 39.75 384 40.25 368 40.25 Z "/>
<path id="p231" fill="rgb(0,0,255)" d="M 375.75 32 L 375.75 48 376.25 48 376.25 32 Z "/>
<path id="p232" fill="rgb(0,0,255)" d="M 384 63.75 L 512 63.75 512 64.25 384 64.25 Z "/>
<path id="p233" fill="rgb(0,0,255)" d="M 447.75 0 L 447.75 128 448.25 128 448.25 0 Z "/>
<path id="p234" fill="rgb(0,0,255)" d="M 384 31.75 L 448 31.75 448 32.25 384 32.25 Z "/>
<path id="p235" fill="rgb(0,0,255)" d="M 415.75 0 L 415.75 64 416.25 64 416.25 0 Z "/>
<path id="p236" fill="rgb(0,0,255)" d="M 384 15.75 L 416 15.75 416 16.25 384 16.25 Z "/>
<path id="p237" fill="rgb(0,0,255)" d="M 399.75 0 L 399.75 32 400.25 32 400.25 0 Z "/>
<path id="p238" fill="rgb(0,0,255)" d="M 384 7.75 L 400 7.75 400 8.25 384 8.25 Z "/>
<path id="p239" fill="rgb(0,0,255)" d="M 391.75 0 L 391.75 16 392.25 16 392.25 0 Z "/>
<path id="p240" fill="rgb(0,0,255)" d="M 400 7.75 L 416 7.75 416 8.25 400 8.25 Z "/>
<path id="p241" fill="rgb(0,0,255)" d="M 407.75 0 L 407.75 16 408.25 16 408.25 0 Z "/>
<path id="p242" fill="rgb(0,0,255)" d="M 416 15.75 L 448 15.75 448 16.25 416 16.25 Z "/>
<path id="p243" fill="rgb(0,0,255)" d="M 431.75 0 L 431.75 32 432.25 32 432.25 0 Z "/>
<path id="p244" fill="rgb(0,0,255)" d="M 416 7.75 L 432 7.75 432 8.25 416 8.25 Z "/>
<path id="p245" fill="rgb(0,0,255)" d="M 423.75 0 L 423.75 16 424.25 16 424.25 0 Z "/>
<path id="p246" fill="rgb(0,0,255)" d="M 432 7.75 L 448 7.75 448 8.25 432 8.25 Z "/>
<path id="p247" fill="rgb(0,0,255)" d="M 439.75 0 L 439.75 16 440.25 16 440.25 0 Z "/>
<path id="p248" fill="rgb(0,0,255)" d="M 416 23.75 L 432 23.75 432 24.25 416 24.25 Z "/>
<path id="p249" fill="rgb(0,0,255)" d="M 423.75 16 L 423.75 32 424.25 32 424.25 16 Z "/>
<path id="p250" fill="rgb(0,0,255)" d="M 432 23.75 L 448 23.75 448 24.25 432 24.25 Z "/>
<path id="p251" fill="rgb(0,0,255)" d="M 439.75 16 L 439.75 32 440.25 32 440.25 16 Z "/>
<path id="p252" fill="rgb(0,0,255)" d="M 384 47.75 L 416 47.75 416 48.25 384 48.25 Z "/>
<path id="p253" fill="rgb(0,0,255)" d="M 399.75 32 L 399.75 64 400.25 64 400.25 32 Z "/>
<path id="p254" fill="rgb(0,0,255)" d="M 384 39.75 L 400 39.75 400 40.25 384 40.25 Z "/>
<path id="p255" fill="rgb(0,0,255)" d="M 391.75 32 L 391.75 48 392.25 48 392.25 32 Z "/>
<path id="p256" fill="rgb(0,0,255)" d="M 400 55.75 L 416 55.75 416 56.25 400 56.25 Z "/>
<path id="p257" fill="rgb(0,0,255)" d="M 407.75 48 L 407.75 64 408.25 64 408.25 48 Z "/>
<path id="p258" fill="rgb(0,0,255)" d="M 416 47.75 L 448 47.75 448 48.25 416 48.25 Z "/>
<path id="p259" fill="rgb(0,0,255)" d="M 431.75 32 L 431.75 64 432.25 64 432.25 32 Z "/>
<path id="p260" fill="rgb(0,0,255)" d="M 416 39.75 L 432 39.75 432 40.25 416 40.25 Z "/>
<path id="p261" fill="rgb(0,0,255)" d="M 423.75 32 L 423.75 48 424.25 48 424.25 32 Z "/>
<path id="p262" fill="rgb(0,0,255)" d="M 432 39.75 L 448 39.75 448 40.25 432 40.25 Z "/>
<path id="p263" fill="rgb(0,0,255)" d="M 439.75 32 L 439.75 48 440.25 48 440.25 32 Z "/>
<path id="p264" fill="rgb(0,0,255)" d="M 448 31.75 L 512 31.75 512 32.25 448 32.25 Z "/>
<path id="p265" fill="rgb(0,0,255)" d="M 479.75 0 L 479.75 64 480.25 64 480.25 0 Z "/>
<path id="p266" fill="rgb(0,0,255)" d="M 448 15.75 L 480 15.75 480 16.25 448 16.25 Z "/>
<path id="p267" fill="rgb(0,0,255)" d="M 463.75 0 L 463.75 32 464.25 32 464.25 0 Z "/>
<path id="p268" fill="rgb(0,0,255)" d="M 448 7.75 L 464 7.75 464 8.25 448 8.25 Z "/>
<path id="p269" fill="rgb(0,0,255)" d="M 455.75 0 L 455.75 16 456.25 16 456.25 0 Z "/>
<path id="p270" fill="rgb(0,0,255)" d="M 464 7.75 L 480 7.75 480 8.25 464 8.25 Z "/>
<path id="p271" fill="rgb(0,0,255)" d="M 471.75 0 L 471.75 16 472.25 16 472.25 0 Z "/>
<path id="p272" fill="rgb(0,0,255)" d="M 480 15.75 L 512 15.75 512 16.25 480 16.25 Z "/>
<path id="p273" fill="rgb(0,0,255)" d="M 495.75 0 L 495.75 32 496.25 32 496.25 0 Z "/>
<path id="p274" fill="rgb(0,0,255)" d="M 480 7.75 L 496 7.75 496 8.25 480 8.25 Z "/>
<path id="p275" fill="rgb(0,0,255)" d="M 487.75 0 L 487.75 16 488.25 16 488.25 0 Z "/>
<path id="p276" fill="rgb(0,0,255)" d="M 480 23.75 L 496 23.75 496 24.25 480 24.25 Z "/>
<path id="p277" fill="rgb(0,0,255)" d="M 487.75 16 L 487.75 32 488.25 32 488.25 16 Z "/>
<path id="p278" fill="rgb(0,0,255)" d="M 448 47.75 L 480 47.75 480 48.25 448 48.25 Z "/>
<path id="p279" fill="rgb(0,0,255)" d="M 463.75 32 L 463.75 64 464.25 64 464.25 32 Z "/>
<path id="p280" fill="rgb(0,0,255)" d="M 448 39.75 L 464 39.75 464 40.25 448 40.25 Z "/>
<path id="p281" fill="rgb(0,0,255)" d="M 455.75 32 L 455.75 48 456.25 48 456.25 32 Z "/>
<path id="p282" fill="rgb(0,0,255)" d="M 448 55.75 L 464 55.75 464 56.25 448 56.25 Z "/>
<path id="p283" fill="rgb(0,0,255)" d="M 455.75 48 L 455.75 64 456.25 64 456.25 48 Z "/>
<path id="p284" fill="rgb(0,0,255)" d="M 480 47.75 L 512 47.75 512 48.25 480 48.25 Z "/>
<path id="p285" fill="rgb(0,0,255)" d="M 495.75 32 L 495.75 64 496.25 64 496.25 32 Z "/>
<path id="p286" fill="rgb(0,0,255)" d="M 480 39.75 L 496 39.75 496 40.25 480 40.25 Z "/>
<path id="p287" fill="rgb(0,0,255)" d="M 487.75 32 L 487.75 48 488.25 48 488.25 32 Z "/>
<path id="p288" fill="rgb(0,0,255)" d="M 480 55.75 L 496 55.75 496 56.25 480 56.25 Z "/>
<path id="p289" fill="rgb(0,0,255)" d="M 487.75 48 L 487.75 64 488.25 64 488.25 48 Z "/>
<path id="p290" fill="rgb(0,0,255)" d="M 384 95.75 L 448 95.75 448 96.25 384 96.25 Z "/>
<path id="p291" fill="rgb(0,0,255)" d="M 415.75 64 L 415.75 128 416.25 128 416.25 64 Z "/>
<path id="p292" fill="rgb(0,0,255)" d="M 384 79.75 L 416 79.75 416 80.25 384 80.25 Z "/>
<path id="p293" fill="rgb(0,0,255)" d="M 399.75 64 L 399.75 96 400.25 96 400.25 64 Z "/>
<path id="p294" fill="rgb(0,0,255)" d="M 400 71.75 L 416 71.75 416 72.25 400 72.25 Z "/>
<path id="p295" fill="rgb(0,0,255)" d="M 407.75 64 L 407.75 80 408.25 80 408.25 64 Z "/>
<path id="p296" fill="rgb(0,0,255)" d="M 448 95.75 L 512 95.75 512 96.25 448 96.25 Z "/>
<path id="p297" fill="rgb(0,0,255)" d="M 479.75 64 L 479.75 128 480.25 128 480.25 64 Z "/>
<path id="p298" fill="rgb(0,0,255)" d="M 448 79.75 L 480 79.75 480 80.25 448 80.25 Z "/>
<path id="p299" fill="rgb(0,0,255)" d="M 463.75 64 L 463.75 96 464.25 96 464.25 64 Z "/>
<path id="p300" fill="rgb(0,0,255)" d="M 448 71.75 L 464 71.75 464 72.25 448 72.25 Z "/>
<path id="p301" fill="rgb(0,0,255)" d="M 455.75 64 L 455.75 80 456.25 80 456.25 64 Z "/>
<path id="p302" fill="rgb(0,0,255)" d="M 464 71.75 L 480 71.75 480 72.25 464 72.25 Z "/>
<path id="p303" fill="rgb(0,0,255)" d="M 471.75 64 L 471.75 80 472.25 80 472.25 64 Z "/>
<path id="p304" fill="rgb(0,0,255)" d="M 480 79.75 L 512 79.75 512 80.25 480 80.25 Z "/>
<path id="p305" fill="rgb(0,0,255)" d="M 495.75 64 L 495.75 96 496.25 96 496.25 64 Z "/>
<path id="p306" fill="rgb(0,0,255)" d="M 480 71.75 L 496 71.75 496 72.25 480 72.25 Z "/>
<path id="p307" fill="rgb(0,0,255)" d="M 487.75 64 L 487.75 80 488.25 80 488.25 64 Z "/>
</g>
</svg>
