<?xml version="1.0" standalone="no"?>
<svg
    xmlns:xlink="http://www.w3.org/1999/xlink"
    xmlns:dc="http://purl.org/dc/elements/1.1/"
    xmlns:cc="http://creativecommons.org/ns#"
    xmlns:rdf="http://www.w3.org/1999/02/22-rdf-syntax-ns#"
    xmlns:svg="http://www.w3.org/2000/svg"
    xmlns="http://www.w3.org/2000/svg"
    version="1.1"
    viewBox="0 0 512 512">
<defs>
</defs>
<g transform="translate(0, 512) scale(1, -1)">
<path id="p1" fill="rgb(204,250,167)" d="M 2 258 L 174 18 60 108 2 258 Z "/>
<path id="p2" fill="rgb(201,97,50)" d="M 174 496 L 2 258 60 404 174 496 Z "/>
<path id="p3" fill="rgb(85,51,51)" d="M 456 404 L 174 496 340 496 456 404 Z "/>
<path id="p4" fill="rgb(56,56,95)" d="M 456 110 L 456 404 510 258 456 110 Z "/>
<path id="p5" fill="rgb(143,54,79)" d="M 456 404 L 248 258 174 496 456 404 Z "/>
<path id="p6" fill="rgb(85,77,174)" d="M 248 258 L 456 404 456 110 248 258 Z "/>
<path id="p7" fill="rgb(251,165,109)" d="M 248 258 L 2 258 174 496 248 258 Z "/>
<path id="p8" fill="rgb(254,254,225)" d="M 174 18 L 2 258 248 258 174 18 Z "/>
<path id="p9" fill="rgb(152,208,255)" d="M 174 18 L 248 258 456 110 174 18 Z "/>
<path id="p10" fill="rgb(50,159,231)" d="M 336 18 L 174 18 456 110 336 18 Z "/>
<path id="p11" fill="rgb(0,0,255)" d="M 0 -0.25 L 512 -0.25 512 0.25 0 0.25 Z "/>
<path id="p12" fill="rgb(0,0,255)" d="M 0 511.75 L 512 511.75 512 512.25 0 512.25 Z "/>
<path id="p13" fill="rgb(0,0,255)" d="M -0.25 0 L -0.25 512 0.25 512 0.25 0 Z "/>
<path id="p14" fill="rgb(0,0,255)" d="M 511.75 0 L 511.75 512 512.25 512 512.25 0 Z "/>
<path id="p15" fill="rgb(0,0,255)" d="M 0 255.75 L 512 255.75 512 256.25 0 256.25 Z "/>
<path id="p16" fill="rgb(0,0,255)" d="M 255.75 0 L 255.75 512 256.25 512 256.25 0 Z "/>
<path id="p17" fill="rgb(0,0,255)" d="M 0 127.75 L 256 127.75 256 128.25 0 128.25 Z "/>
<path id="p18" fill="rgb(0,0,255)" d="M 127.75 0 L 127.75 256 128.25 256 128.25 0 Z "/>
<path id="p19" fill="rgb(0,0,255)" d="M 0 63.75 L 128 63.75 128 64.25 0 64.25 Z "/>
<path id="p20" fill="rgb(0,0,255)" d="M 63.75 0 L 63.75 128 64.25 128 64.25 0 Z "/>
<path id="p21" fill="rgb(0,0,255)" d="M 64 31.75 L 128 31.75 128 32.25 64 32.25 Z "/>
<path id="p22" fill="rgb(0,0,255)" d="M 95.75 0 L 95.75 64 96.25 64 96.25 0 Z "/>
<path id="p23" fill="rgb(0,0,255)" d="M 96 47.75 L 128 47.75 128 48.25 96 48.25 Z "/>
<path id="p24" fill="rgb(0,0,255)" d="M 111.75 32 L 111.75 64 112.25 64 112.25 32 Z "/>
<path id="p25" fill="rgb(0,0,255)" d="M 112 55.75 L 128 55.75 128 56.25 112 56.25 Z "/>
<path id="p26" fill="rgb(0,0,255)" d="M 119.75 48 L 119.75 64 120.25 64 120.25 48 Z "/>
<path id="p27" fill="rgb(0,0,255)" d="M 0 95.75 L 64 95.75 64 96.25 0 96.25 Z "/>
<path id="p28" fill="rgb(0,0,255)" d="M 31.75 64 L 31.75 128 32.25 128 32.25 64 Z "/>
<path id="p29" fill="rgb(0,0,255)" d="M 32 111.75 L 64 111.75 64 112.25 32 112.25 Z "/>
<path id="p30" fill="rgb(0,0,255)" d="M 47.75 96 L 47.75 128 48.25 128 48.25 96 Z "/>
<path id="p31" fill="rgb(0,0,255)" d="M 48 103.75 L 64 103.75 64 104.25 48 104.25 Z "/>
<path id="p32" fill="rgb(0,0,255)" d="M 55.75 96 L 55.75 112 56.25 112 56.25 96 Z "/>
<path id="p33" fill="rgb(0,0,255)" d="M 48 119.75 L 64 119.75 64 120.25 48 120.25 Z "/>
<path id="p34" fill="rgb(0,0,255)" d="M 55.75 112 L 55.75 128 56.25 128 56.25 112 Z "/>
<path id="p35" fill="rgb(0,0,255)" d="M 64 95.75 L 128 95.75 128 96.25 64 96.25 Z "/>
<path id="p36" fill="rgb(0,0,255)" d="M 95.75 64 L 95.75 128 96.25 128 96.25 64 Z "/>
<path id="p37" fill="rgb(0,0,255)" d="M 64 79.75 L 96 79.75 96 80.25 64 80.25 Z "/>
<path id="p38" fill="rgb(0,0,255)" d="M 79.75 64 L 79.75 96 80.25 96 80.25 64 Z "/>
<path id="p39" fill="rgb(0,0,255)" d="M 80 71.75 L 96 71.75 96 72.25 80 72.25 Z "/>
<path id="p40" fill="rgb(0,0,255)" d="M 87.75 64 L 87.75 80 88.25 80 88.25 64 Z "/>
<path id="p41" fill="rgb(0,0,255)" d="M 64 87.75 L 80 87.75 80 88.25 64 88.25 Z "/>
<path id="p42" fill="rgb(0,0,255)" d="M 71.75 80 L 71.75 96 72.25 96 72.25 80 Z "/>
<path id="p43" fill="rgb(0,0,255)" d="M 80 87.75 L 96 87.75 96 88.25 80 88.25 Z "/>
<path id="p44" fill="rgb(0,0,255)" d="M 87.75 80 L 87.75 96 88.25 96 88.25 80 Z "/>
<path id="p45" fill="rgb(0,0,255)" d="M 96 79.75 L 128 79.75 128 80.25 96 80.25 Z "/>
<path id="p46" fill="rgb(0,0,255)" d="M 111.75 64 L 111.75 96 112.25 96 112.25 64 Z "/>
<path id="p47" fill="rgb(0,0,255)" d="M 96 71.75 L 112 71.75 112 72.25 96 72.25 Z "/>
<path id="p48" fill="rgb(0,0,255)" d="M 103.75 64 L 103.75 80 104.25 80 104.25 64 Z "/>
<path id="p49" fill="rgb(0,0,255)" d="M 112 71.75 L 128 71.75 128 72.25 112 72.25 Z "/>
<path id="p50" fill="rgb(0,0,255)" d="M 119.75 64 L 119.75 80 120.25 80 120.25 64 Z "/>
<path id="p51" fill="rgb(0,0,255)" d="M 112 87.75 L 128 87.75 128 88.25 112 88.25 Z "/>
<path id="p52" fill="rgb(0,0,255)" d="M 119.75 80 L 119.75 96 120.25 96 120.25 80 Z "/>
<path id="p53" fill="rgb(0,0,255)" d="M 64 111.75 L 96 111.75 96 112.25 64 112.25 Z "/>
<path id="p54" fill="rgb(0,0,255)" d="M 79.75 96 L 79.75 128 80.25 128 80.25 96 Z "/>
<path id="p55" fill="rgb(0,0,255)" d="M 64 103.75 L 80 103.75 80 104.25 64 104.25 Z "/>
<path id="p56" fill="rgb(0,0,255)" d="M 71.75 96 L 71.75 112 72.25 112 72.25 96 Z "/>
<path id="p57" fill="rgb(0,0,255)" d="M 80 119.75 L 96 119.75 96 120.25 80 120.25 Z "/>
<path id="p58" fill="rgb(0,0,255)" d="M 87.75 112 L 87.75 128 88.25 128 88.25 112 Z "/>
<path id="p59" fill="rgb(0,0,255)" d="M 96 111.75 L 128 111.75 128 112.25 96 112.25 Z "/>
<path id="p60" fill="rgb(0,0,255)" d="M 111.75 96 L 111.75 128 112.25 128 112.25 96 Z "/>
<path id="p61" fill="rgb(0,0,255)" d="M 96 103.75 L 112 103.75 112 104.25 96 104.25 Z "/>
<path id="p62" fill="rgb(0,0,255)" d="M 103.75 96 L 103.75 112 104.25 112 104.25 96 Z "/>
<path id="p63" fill="rgb(0,0,255)" d="M 112 103.75 L 128 103.75 128 104.25 112 104.25 Z "/>
<path id="p64" fill="rgb(0,0,255)" d="M 119.75 96 L 119.75 112 120.25 112 120.25 96 Z "/>
<path id="p65" fill="rgb(0,0,255)" d="M 96 119.75 L 112 119.75 112 120.25 96 120.25 Z "/>
<path id="p66" fill="rgb(0,0,255)" d="M 103.75 112 L 103.75 128 104.25 128 104.25 112 Z "/>
<path id="p67" fill="rgb(0,0,255)" d="M 128 63.75 L 256 63.75 256 64.25 128 64.25 Z "/>
<path id="p68" fill="rgb(0,0,255)" d="M 191.75 0 L 191.75 128 192.25 128 192.25 0 Z "/>
<path id="p69" fill="rgb(0,0,255)" d="M 128 31.75 L 192 31.75 192 32.25 128 32.25 Z "/>
<path id="p70" fill="rgb(0,0,255)" d="M 159.75 0 L 159.75 64 160.25 64 160.25 0 Z "/>
<path id="p71" fill="rgb(0,0,255)" d="M 128 15.75 L 160 15.75 160 16.25 128 16.25 Z "/>
<path id="p72" fill="rgb(0,0,255)" d="M 143.75 0 L 143.75 32 144.25 32 144.25 0 Z "/>
<path id="p73" fill="rgb(0,0,255)" d="M 144 23.75 L 160 23.75 160 24.25 144 24.25 Z "/>
<path id="p74" fill="rgb(0,0,255)" d="M 151.75 16 L 151.75 32 152.25 32 152.25 16 Z "/>
<path id="p75" fill="rgb(0,0,255)" d="M 160 15.75 L 192 15.75 192 16.25 160 16.25 Z "/>
<path id="p76" fill="rgb(0,0,255)" d="M 175.75 0 L 175.75 32 176.25 32 176.25 0 Z "/>
<path id="p77" fill="rgb(0,0,255)" d="M 160 23.75 L 176 23.75 176 24.25 160 24.25 Z "/>
<path id="p78" fill="rgb(0,0,255)" d="M 167.75 16 L 167.75 32 168.25 32 168.25 16 Z "/>
<path id="p79" fill="rgb(0,0,255)" d="M 176 23.75 L 192 23.75 192 24.25 176 24.25 Z "/>
<path id="p80" fill="rgb(0,0,255)" d="M 183.75 16 L 183.75 32 184.25 32 184.25 16 Z "/>
<path id="p81" fill="rgb(0,0,255)" d="M 128 47.75 L 160 47.75 160 48.25 128 48.25 Z "/>
<path id="p82" fill="rgb(0,0,255)" d="M 143.75 32 L 143.75 64 144.25 64 144.25 32 Z "/>
<path id="p83" fill="rgb(0,0,255)" d="M 128 39.75 L 144 39.75 144 40.25 128 40.25 Z "/>
<path id="p84" fill="rgb(0,0,255)" d="M 135.75 32 L 135.75 48 136.25 48 136.25 32 Z "/>
<path id="p85" fill="rgb(0,0,255)" d="M 144 39.75 L 160 39.75 160 40.25 144 40.25 Z "/>
<path id="p86" fill="rgb(0,0,255)" d="M 151.75 32 L 151.75 48 152.25 48 152.25 32 Z "/>
<path id="p87" fill="rgb(0,0,255)" d="M 128 55.75 L 144 55.75 144 56.25 128 56.25 Z "/>
<path id="p88" fill="rgb(0,0,255)" d="M 135.75 48 L 135.75 64 136.25 64 136.25 48 Z "/>
<path id="p89" fill="rgb(0,0,255)" d="M 144 55.75 L 160 55.75 160 56.25 144 56.25 Z "/>
<path id="p90" fill="rgb(0,0,255)" d="M 151.75 48 L 151.75 64 152.25 64 152.25 48 Z "/>
<path id="p91" fill="rgb(0,0,255)" d="M 160 47.75 L 192 47.75 192 48.25 160 48.25 Z "/>
<path id="p92" fill="rgb(0,0,255)" d="M 175.75 32 L 175.75 64 176.25 64 176.25 32 Z "/>
<path id="p93" fill="rgb(0,0,255)" d="M 160 39.75 L 176 39.75 176 40.25 160 40.25 Z "/>
<path id="p94" fill="rgb(0,0,255)" d="M 167.75 32 L 167.75 48 168.25 48 168.25 32 Z "/>
<path id="p95" fill="rgb(0,0,255)" d="M 176 39.75 L 192 39.75 192 40.25 176 40.25 Z "/>
<path id="p96" fill="rgb(0,0,255)" d="M 183.75 32 L 183.75 48 184.25 48 184.25 32 Z "/>
<path id="p97" fill="rgb(0,0,255)" d="M 176 55.75 L 192 55.75 192 56.25 176 56.25 Z "/>
<path id="p98" fill="rgb(0,0,255)" d="M 183.75 48 L 183.75 64 184.25 64 184.25 48 Z "/>
<path id="p99" fill="rgb(0,0,255)" d="M 192 31.75 L 256 31.75 256 32.25 192 32.25 Z "/>
<path id="p100" fill="rgb(0,0,255)" d="M 223.75 0 L 223.75 64 224.25 64 224.25 0 Z "/>
<path id="p101" fill="rgb(0,0,255)" d="M 192 15.75 L 224 15.75 224 16.25 192 16.25 Z "/>
<path id="p102" fill="rgb(0,0,255)" d="M 207.75 0 L 207.75 32 208.25 32 208.25 0 Z "/>
<path id="p103" fill="rgb(0,0,255)" d="M 192 23.75 L 208 23.75 208 24.25 192 24.25 Z "/>
<path id="p104" fill="rgb(0,0,255)" d="M 199.75 16 L 199.75 32 200.25 32 200.25 16 Z "/>
<path id="p105" fill="rgb(0,0,255)" d="M 208 23.75 L 224 23.75 224 24.25 208 24.25 Z "/>
<path id="p106" fill="rgb(0,0,255)" d="M 215.75 16 L 215.75 32 216.25 32 216.25 16 Z "/>
<path id="p107" fill="rgb(0,0,255)" d="M 192 47.75 L 224 47.75 224 48.25 192 48.25 Z "/>
<path id="p108" fill="rgb(0,0,255)" d="M 207.75 32 L 207.75 64 208.25 64 208.25 32 Z "/>
<path id="p109" fill="rgb(0,0,255)" d="M 208 39.75 L 224 39.75 224 40.25 208 40.25 Z "/>
<path id="p110" fill="rgb(0,0,255)" d="M 215.75 32 L 215.75 48 216.25 48 216.25 32 Z "/>
<path id="p111" fill="rgb(0,0,255)" d="M 224 47.75 L 256 47.75 256 48.25 224 48.25 Z "/>
<path id="p112" fill="rgb(0,0,255)" d="M 239.75 32 L 239.75 64 240.25 64 240.25 32 Z "/>
<path id="p113" fill="rgb(0,0,255)" d="M 224 39.75 L 240 39.75 240 40.25 224 40.25 Z "/>
<path id="p114" fill="rgb(0,0,255)" d="M 231.75 32 L 231.75 48 232.25 48 232.25 32 Z "/>
<path id="p115" fill="rgb(0,0,255)" d="M 240 39.75 L 256 39.75 256 40.25 240 40.25 Z "/>
<path id="p116" fill="rgb(0,0,255)" d="M 247.75 32 L 247.75 48 248.25 48 248.25 32 Z "/>
<path id="p117" fill="rgb(0,0,255)" d="M 128 95.75 L 192 95.75 192 96.25 128 96.25 Z "/>
<path id="p118" fill="rgb(0,0,255)" d="M 159.75 64 L 159.75 128 160.25 128 160.25 64 Z "/>
<path id="p119" fill="rgb(0,0,255)" d="M 128 79.75 L 160 79.75 160 80.25 128 80.25 Z "/>
<path id="p120" fill="rgb(0,0,255)" d="M 143.75 64 L 143.75 96 144.25 96 144.25 64 Z "/>
<path id="p121" fill="rgb(0,0,255)" d="M 128 71.75 L 144 71.75 144 72.25 128 72.25 Z "/>
<path id="p122" fill="rgb(0,0,255)" d="M 135.75 64 L 135.75 80 136.25 80 136.25 64 Z "/>
<path id="p123" fill="rgb(0,0,255)" d="M 128 87.75 L 144 87.75 144 88.25 128 88.25 Z "/>
<path id="p124" fill="rgb(0,0,255)" d="M 135.75 80 L 135.75 96 136.25 96 136.25 80 Z "/>
<path id="p125" fill="rgb(0,0,255)" d="M 160 79.75 L 192 79.75 192 80.25 160 80.25 Z "/>
<path id="p126" fill="rgb(0,0,255)" d="M 175.75 64 L 175.75 96 176.25 96 176.25 64 Z "/>
<path id="p127" fill="rgb(0,0,255)" d="M 176 71.75 L 192 71.75 192 72.25 176 72.25 Z "/>
<path id="p128" fill="rgb(0,0,255)" d="M 183.75 64 L 183.75 80 184.25 80 184.25 64 Z "/>
<path id="p129" fill="rgb(0,0,255)" d="M 192 95.75 L 256 95.75 256 96.25 192 96.25 Z "/>
<path id="p130" fill="rgb(0,0,255)" d="M 223.75 64 L 223.75 128 224.25 128 224.25 64 Z "/>
<path id="p131" fill="rgb(0,0,255)" d="M 192 79.75 L 224 79.75 224 80.25 192 80.25 Z "/>
<path id="p132" fill="rgb(0,0,255)" d="M 207.75 64 L 207.75 96 208.25 96 208.25 64 Z "/>
<path id="p133" fill="rgb(0,0,255)" d="M 192 71.75 L 208 71.75 208 72.25 192 72.25 Z "/>
<path id="p134" fill="rgb(0,0,255)" d="M 199.75 64 L 199.75 80 200.25 80 200.25 64 Z "/>
<path id="p135" fill="rgb(0,0,255)" d="M 192 87.75 L 208 87.75 208 88.25 192 88.25 Z "/>
<path id="p136" fill="rgb(0,0,255)" d="M 199.75 80 L 199.75 96 200.25 96 200.25 80 Z "/>
<path id="p137" fill="rgb(0,0,255)" d="M 192 111.75 L 224 111.75 224 112.25 192 112.25 Z "/>
<path id="p138" fill="rgb(0,0,255)" d="M 207.75 96 L 207.75 128 208.25 128 208.25 96 Z "/>
<path id="p139" fill="rgb(0,0,255)" d="M 192 103.75 L 208 103.75 208 104.25 192 104.25 Z "/>
<path id="p140" fill="rgb(0,0,255)" d="M 199.75 96 L 199.75 112 200.25 112 200.25 96 Z "/>
<path id="p141" fill="rgb(0,0,255)" d="M 192 119.75 L 208 119.75 208 120.25 192 120.25 Z "/>
<path id="p142" fill="rgb(0,0,255)" d="M 199.75 112 L 199.75 128 200.25 128 200.25 112 Z "/>
<path id="p143" fill="rgb(0,0,255)" d="M 0 191.75 L 128 191.75 128 192.25 0 192.25 Z "/>
<path id="p144" fill="rgb(0,0,255)" d="M 63.75 128 L 63.75 256 64.25 256 64.25 128 Z "/>
<path id="p145" fill="rgb(0,0,255)" d="M 0 159.75 L 64 159.75 64 160.25 0 160.25 Z "/>
<path id="p146" fill="rgb(0,0,255)" d="M 31.75 128 L 31.75 192 32.25 192 32.25 128 Z "/>
<path id="p147" fill="rgb(0,0,255)" d="M 32 143.75 L 64 143.75 64 144.25 32 144.25 Z "/>
<path id="p148" fill="rgb(0,0,255)" d="M 47.75 128 L 47.75 160 48.25 160 48.25 128 Z "/>
<path id="p149" fill="rgb(0,0,255)" d="M 32 135.75 L 48 135.75 48 136.25 32 136.25 Z "/>
<path id="p150" fill="rgb(0,0,255)" d="M 39.75 128 L 39.75 144 40.25 144 40.25 128 Z "/>
<path id="p151" fill="rgb(0,0,255)" d="M 48 135.75 L 64 135.75 64 136.25 48 136.25 Z "/>
<path id="p152" fill="rgb(0,0,255)" d="M 55.75 128 L 55.75 144 56.25 144 56.25 128 Z "/>
<path id="p153" fill="rgb(0,0,255)" d="M 32 151.75 L 48 151.75 48 152.25 32 152.25 Z "/>
<path id="p154" fill="rgb(0,0,255)" d="M 39.75 144 L 39.75 160 40.25 160 40.25 144 Z "/>
<path id="p155" fill="rgb(0,0,255)" d="M 0 175.75 L 32 175.75 32 176.25 0 176.25 Z "/>
<path id="p156" fill="rgb(0,0,255)" d="M 15.75 160 L 15.75 192 16.25 192 16.25 160 Z "/>
<path id="p157" fill="rgb(0,0,255)" d="M 16 183.75 L 32 183.75 32 184.25 16 184.25 Z "/>
<path id="p158" fill="rgb(0,0,255)" d="M 23.75 176 L 23.75 192 24.25 192 24.25 176 Z "/>
<path id="p159" fill="rgb(0,0,255)" d="M 32 175.75 L 64 175.75 64 176.25 32 176.25 Z "/>
<path id="p160" fill="rgb(0,0,255)" d="M 47.75 160 L 47.75 192 48.25 192 48.25 160 Z "/>
<path id="p161" fill="rgb(0,0,255)" d="M 32 167.75 L 48 167.75 48 168.25 32 168.25 Z "/>
<path id="p162" fill="rgb(0,0,255)" d="M 39.75 160 L 39.75 176 40.25 176 40.25 160 Z "/>
<path id="p163" fill="rgb(0,0,255)" d="M 48 167.75 L 64 167.75 64 168.25 48 168.25 Z "/>
<path id="p164" fill="rgb(0,0,255)" d="M 55.75 160 L 55.75 176 56.25 176 56.25 160 Z "/>
<path id="p165" fill="rgb(0,0,255)" d="M 32 183.75 L 48 183.75 48 184.25 32 184.25 Z "/>
<path id="p166" fill="rgb(0,0,255)" d="M 39.75 176 L 39.75 192 40.25 192 40.25 176 Z "/>
<path id="p167" fill="rgb(0,0,255)" d="M 48 183.75 L 64 183.75 64 184.25 48 184.25 Z "/>
<path id="p168" fill="rgb(0,0,255)" d="M 55.75 176 L 55.75 192 56.25 192 56.25 176 Z "/>
<path id="p169" fill="rgb(0,0,255)" d="M 64 159.75 L 128 159.75 128 160.25 64 160.25 Z "/>
<path id="p170" fill="rgb(0,0,255)" d="M 95.75 128 L 95.75 192 96.25 192 96.25 128 Z "/>
<path id="p171" fill="rgb(0,0,255)" d="M 64 143.75 L 96 143.75 96 144.25 64 144.25 Z "/>
<path id="p172" fill="rgb(0,0,255)" d="M 79.75 128 L 79.75 160 80.25 160 80.25 128 Z "/>
<path id="p173" fill="rgb(0,0,255)" d="M 80 135.75 L 96 135.75 96 136.25 80 136.25 Z "/>
<path id="p174" fill="rgb(0,0,255)" d="M 87.75 128 L 87.75 144 88.25 144 88.25 128 Z "/>
<path id="p175" fill="rgb(0,0,255)" d="M 64 151.75 L 80 151.75 80 152.25 64 152.25 Z "/>
<path id="p176" fill="rgb(0,0,255)" d="M 71.75 144 L 71.75 160 72.25 160 72.25 144 Z "/>
<path id="p177" fill="rgb(0,0,255)" d="M 80 151.75 L 96 151.75 96 152.25 80 152.25 Z "/>
<path id="p178" fill="rgb(0,0,255)" d="M 87.75 144 L 87.75 160 88.25 160 88.25 144 Z "/>
<path id="p179" fill="rgb(0,0,255)" d="M 64 175.75 L 96 175.75 96 176.25 64 176.25 Z "/>
<path id="p180" fill="rgb(0,0,255)" d="M 79.75 160 L 79.75 192 80.25 192 80.25 160 Z "/>
<path id="p181" fill="rgb(0,0,255)" d="M 64 167.75 L 80 167.75 80 168.25 64 168.25 Z "/>
<path id="p182" fill="rgb(0,0,255)" d="M 71.75 160 L 71.75 176 72.25 176 72.25 160 Z "/>
<path id="p183" fill="rgb(0,0,255)" d="M 0 223.75 L 64 223.75 64 224.25 0 224.25 Z "/>
<path id="p184" fill="rgb(0,0,255)" d="M 31.75 192 L 31.75 256 32.25 256 32.25 192 Z "/>
<path id="p185" fill="rgb(0,0,255)" d="M 0 207.75 L 32 207.75 32 208.25 0 208.25 Z "/>
<path id="p186" fill="rgb(0,0,255)" d="M 15.75 192 L 15.75 224 16.25 224 16.25 192 Z "/>
<path id="p187" fill="rgb(0,0,255)" d="M 16 199.75 L 32 199.75 32 200.25 16 200.25 Z "/>
<path id="p188" fill="rgb(0,0,255)" d="M 23.75 192 L 23.75 208 24.25 208 24.25 192 Z "/>
<path id="p189" fill="rgb(0,0,255)" d="M 0 215.75 L 16 215.75 16 216.25 0 216.25 Z "/>
<path id="p190" fill="rgb(0,0,255)" d="M 7.75 208 L 7.75 224 8.25 224 8.25 208 Z "/>
<path id="p191" fill="rgb(0,0,255)" d="M 16 215.75 L 32 215.75 32 216.25 16 216.25 Z "/>
<path id="p192" fill="rgb(0,0,255)" d="M 23.75 208 L 23.75 224 24.25 224 24.25 208 Z "/>
<path id="p193" fill="rgb(0,0,255)" d="M 32 207.75 L 64 207.75 64 208.25 32 208.25 Z "/>
<path id="p194" fill="rgb(0,0,255)" d="M 47.75 192 L 47.75 224 48.25 224 48.25 192 Z "/>
<path id="p195" fill="rgb(0,0,255)" d="M 32 199.75 L 48 199.75 48 200.25 32 200.25 Z "/>
<path id="p196" fill="rgb(0,0,255)" d="M 39.75 192 L 39.75 208 40.25 208 40.25 192 Z "/>
<path id="p197" fill="rgb(0,0,255)" d="M 48 199.75 L 64 199.75 64 200.25 48 200.25 Z "/>
<path id="p198" fill="rgb(0,0,255)" d="M 55.75 192 L 55.75 208 56.25 208 56.25 192 Z "/>
<path id="p199" fill="rgb(0,0,255)" d="M 32 215.75 L 48 215.75 48 216.25 32 216.25 Z "/>
<path id="p200" fill="rgb(0,0,255)" d="M 39.75 208 L 39.75 224 40.25 224 40.25 208 Z "/>
<path id="p201" fill="rgb(0,0,255)" d="M 0 239.75 L 32 239.75 32 240.25 0 240.25 Z "/>
<path id="p202" fill="rgb(0,0,255)" d="M 15.75 224 L 15.75 256 16.25 256 16.25 224 Z "/>
<path id="p203" fill="rgb(0,0,255)" d="M 0 231.75 L 16 231.75 16 232.25 0 232.25 Z "/>
<path id="p204" fill="rgb(0,0,255)" d="M 7.75 224 L 7.75 240 8.25 240 8.25 224 Z "/>
<path id="p205" fill="rgb(0,0,255)" d="M 16 231.75 L 32 231.75 32 232.25 16 232.25 Z "/>
<path id="p206" fill="rgb(0,0,255)" d="M 23.75 224 L 23.75 240 24.25 240 24.25 224 Z "/>
<path id="p207" fill="rgb(0,0,255)" d="M 0 247.75 L 16 247.75 16 248.25 0 248.25 Z "/>
<path id="p208" fill="rgb(0,0,255)" d="M 7.75 240 L 7.75 256 8.25 256 8.25 240 Z "/>
<path id="p209" fill="rgb(0,0,255)" d="M 128 191.75 L 256 191.75 256 192.25 128 192.25 Z "/>
<path id="p210" fill="rgb(0,0,255)" d="M 191.75 128 L 191.75 256 192.25 256 192.25 128 Z "/>
<path id="p211" fill="rgb(0,0,255)" d="M 192 159.75 L 256 159.75 256 160.25 192 160.25 Z "/>
<path id="p212" fill="rgb(0,0,255)" d="M 223.75 128 L 223.75 192 224.25 192 224.25 128 Z "/>
<path id="p213" fill="rgb(0,0,255)" d="M 192 143.75 L 224 143.75 224 144.25 192 144.25 Z "/>
<path id="p214" fill="rgb(0,0,255)" d="M 207.75 128 L 207.75 160 208.25 160 208.25 128 Z "/>
<path id="p215" fill="rgb(0,0,255)" d="M 192 135.75 L 208 135.75 208 136.25 192 136.25 Z "/>
<path id="p216" fill="rgb(0,0,255)" d="M 199.75 128 L 199.75 144 200.25 144 200.25 128 Z "/>
<path id="p217" fill="rgb(0,0,255)" d="M 208 135.75 L 224 135.75 224 136.25 208 136.25 Z "/>
<path id="p218" fill="rgb(0,0,255)" d="M 215.75 128 L 215.75 144 216.25 144 216.25 128 Z "/>
<path id="p219" fill="rgb(0,0,255)" d="M 208 151.75 L 224 151.75 224 152.25 208 152.25 Z "/>
<path id="p220" fill="rgb(0,0,255)" d="M 215.75 144 L 215.75 160 216.25 160 216.25 144 Z "/>
<path id="p221" fill="rgb(0,0,255)" d="M 192 175.75 L 224 175.75 224 176.25 192 176.25 Z "/>
<path id="p222" fill="rgb(0,0,255)" d="M 207.75 160 L 207.75 192 208.25 192 208.25 160 Z "/>
<path id="p223" fill="rgb(0,0,255)" d="M 208 167.75 L 224 167.75 224 168.25 208 168.25 Z "/>
<path id="p224" fill="rgb(0,0,255)" d="M 215.75 160 L 215.75 176 216.25 176 216.25 160 Z "/>
<path id="p225" fill="rgb(0,0,255)" d="M 208 183.75 L 224 183.75 224 184.25 208 184.25 Z "/>
<path id="p226" fill="rgb(0,0,255)" d="M 215.75 176 L 215.75 192 216.25 192 216.25 176 Z "/>
<path id="p227" fill="rgb(0,0,255)" d="M 224 175.75 L 256 175.75 256 176.25 224 176.25 Z "/>
<path id="p228" fill="rgb(0,0,255)" d="M 239.75 160 L 239.75 192 240.25 192 240.25 160 Z "/>
<path id="p229" fill="rgb(0,0,255)" d="M 224 183.75 L 240 183.75 240 184.25 224 184.25 Z "/>
<path id="p230" fill="rgb(0,0,255)" d="M 231.75 176 L 231.75 192 232.25 192 232.25 176 Z "/>
<path id="p231" fill="rgb(0,0,255)" d="M 192 223.75 L 256 223.75 256 224.25 192 224.25 Z "/>
<path id="p232" fill="rgb(0,0,255)" d="M 223.75 192 L 223.75 256 224.25 256 224.25 192 Z "/>
<path id="p233" fill="rgb(0,0,255)" d="M 224 207.75 L 256 207.75 256 208.25 224 208.25 Z "/>
<path id="p234" fill="rgb(0,0,255)" d="M 239.75 192 L 239.75 224 240.25 224 240.25 192 Z "/>
<path id="p235" fill="rgb(0,0,255)" d="M 224 199.75 L 240 199.75 240 200.25 224 200.25 Z "/>
<path id="p236" fill="rgb(0,0,255)" d="M 231.75 192 L 231.75 208 232.25 208 232.25 192 Z "/>
<path id="p237" fill="rgb(0,0,255)" d="M 224 215.75 L 240 215.75 240 216.25 224 216.25 Z "/>
<path id="p238" fill="rgb(0,0,255)" d="M 231.75 208 L 231.75 224 232.25 224 232.25 208 Z "/>
<path id="p239" fill="rgb(0,0,255)" d="M 224 239.75 L 256 239.75 256 240.25 224 240.25 Z "/>
<path id="p240" fill="rgb(0,0,255)" d="M 239.75 224 L 239.75 256 240.25 256 240.25 224 Z "/>
<path id="p241" fill="rgb(0,0,255)" d="M 224 231.75 L 240 231.75 240 232.25 224 232.25 Z "/>
<path id="p242" fill="rgb(0,0,255)" d="M 231.75 224 L 231.75 240 232.25 240 232.25 224 Z "/>
<path id="p243" fill="rgb(0,0,255)" d="M 240 231.75 L 256 231.75 256 232.25 240 232.25 Z "/>
<path id="p244" fill="rgb(0,0,255)" d="M 247.75 224 L 247.75 240 248.25 240 248.25 224 Z "/>
<path id="p245" fill="rgb(0,0,255)" d="M 240 247.75 L 256 247.75 256 248.25 240 248.25 Z "/>
<path id="p246" fill="rgb(0,0,255)" d="M 247.75 240 L 247.75 256 248.25 256 248.25 240 Z "/>
<path id="p247" fill="rgb(0,0,255)" d="M 256 127.75 L 512 127.75 512 128.25 256 128.25 Z "/>
<path id="p248" fill="rgb(0,0,255)" d="M 383.75 0 L 383.75 256 384.25 256 384.25 0 Z "/>
<path id="p249" fill="rgb(0,0,255)" d="M 256 63.75 L 384 63.75 384 64.25 256 64.25 Z "/>
<path id="p250" fill="rgb(0,0,255)" d="M 319.75 0 L 319.75 128 320.25 128 320.25 0 Z "/>
<path id="p251" fill="rgb(0,0,255)" d="M 256 31.75 L 320 31.75 320 32.25 256 32.25 Z "/>
<path id="p252" fill="rgb(0,0,255)" d="M 287.75 0 L 287.75 64 288.25 64 288.25 0 Z "/>
<path id="p253" fill="rgb(0,0,255)" d="M 256 47.75 L 288 47.75 288 48.25 256 48.25 Z "/>
<path id="p254" fill="rgb(0,0,255)" d="M 271.75 32 L 271.75 64 272.25 64 272.25 32 Z "/>
<path id="p255" fill="rgb(0,0,255)" d="M 256 39.75 L 272 39.75 272 40.25 256 40.25 Z "/>
<path id="p256" fill="rgb(0,0,255)" d="M 263.75 32 L 263.75 48 264.25 48 264.25 32 Z "/>
<path id="p257" fill="rgb(0,0,255)" d="M 256 55.75 L 272 55.75 272 56.25 256 56.25 Z "/>
<path id="p258" fill="rgb(0,0,255)" d="M 263.75 48 L 263.75 64 264.25 64 264.25 48 Z "/>
<path id="p259" fill="rgb(0,0,255)" d="M 272 55.75 L 288 55.75 288 56.25 272 56.25 Z "/>
<path id="p260" fill="rgb(0,0,255)" d="M 279.75 48 L 279.75 64 280.25 64 280.25 48 Z "/>
<path id="p261" fill="rgb(0,0,255)" d="M 288 47.75 L 320 47.75 320 48.25 288 48.25 Z "/>
<path id="p262" fill="rgb(0,0,255)" d="M 303.75 32 L 303.75 64 304.25 64 304.25 32 Z "/>
<path id="p263" fill="rgb(0,0,255)" d="M 288 55.75 L 304 55.75 304 56.25 288 56.25 Z "/>
<path id="p264" fill="rgb(0,0,255)" d="M 295.75 48 L 295.75 64 296.25 64 296.25 48 Z "/>
<path id="p265" fill="rgb(0,0,255)" d="M 304 55.75 L 320 55.75 320 56.25 304 56.25 Z "/>
<path id="p266" fill="rgb(0,0,255)" d="M 311.75 48 L 311.75 64 312.25 64 312.25 48 Z "/>
<path id="p267" fill="rgb(0,0,255)" d="M 320 31.75 L 384 31.75 384 32.25 320 32.25 Z "/>
<path id="p268" fill="rgb(0,0,255)" d="M 351.75 0 L 351.75 64 352.25 64 352.25 0 Z "/>
<path id="p269" fill="rgb(0,0,255)" d="M 320 15.75 L 352 15.75 352 16.25 320 16.25 Z "/>
<path id="p270" fill="rgb(0,0,255)" d="M 335.75 0 L 335.75 32 336.25 32 336.25 0 Z "/>
<path id="p271" fill="rgb(0,0,255)" d="M 336 23.75 L 352 23.75 352 24.25 336 24.25 Z "/>
<path id="p272" fill="rgb(0,0,255)" d="M 343.75 16 L 343.75 32 344.25 32 344.25 16 Z "/>
<path id="p273" fill="rgb(0,0,255)" d="M 352 15.75 L 384 15.75 384 16.25 352 16.25 Z "/>
<path id="p274" fill="rgb(0,0,255)" d="M 367.75 0 L 367.75 32 368.25 32 368.25 0 Z "/>
<path id="p275" fill="rgb(0,0,255)" d="M 352 23.75 L 368 23.75 368 24.25 352 24.25 Z "/>
<path id="p276" fill="rgb(0,0,255)" d="M 359.75 16 L 359.75 32 360.25 32 360.25 16 Z "/>
<path id="p277" fill="rgb(0,0,255)" d="M 352 47.75 L 384 47.75 384 48.25 352 48.25 Z "/>
<path id="p278" fill="rgb(0,0,255)" d="M 367.75 32 L 367.75 64 368.25 64 368.25 32 Z "/>
<path id="p279" fill="rgb(0,0,255)" d="M 352 39.75 L 368 39.75 368 40.25 352 40.25 Z "/>
<path id="p280" fill="rgb(0,0,255)" d="M 359.75 32 L 359.75 48 360.25 48 360.25 32 Z "/>
<path id="p281" fill="rgb(0,0,255)" d="M 368 39.75 L 384 39.75 384 40.25 368 40.25 Z "/>
<path id="p282" fill="rgb(0,0,255)" d="M 375.75 32 L 375.75 48 376.25 48 376.25 32 Z "/>
<path id="p283" fill="rgb(0,0,255)" d="M 368 55.75 L 384 55.75 384 56.25 368 56.25 Z "/>
<path id="p284" fill="rgb(0,0,255)" d="M 375.75 48 L 375.75 64 376.25 64 376.25 48 Z "/>
<path id="p285" fill="rgb(0,0,255)" d="M 256 95.75 L 320 95.75 320 96.25 256 96.25 Z "/>
<path id="p286" fill="rgb(0,0,255)" d="M 287.75 64 L 287.75 128 288.25 128 288.25 64 Z "/>
<path id="p287" fill="rgb(0,0,255)" d="M 288 79.75 L 320 79.75 320 80.25 288 80.25 Z "/>
<path id="p288" fill="rgb(0,0,255)" d="M 303.75 64 L 303.75 96 304.25 96 304.25 64 Z "/>
<path id="p289" fill="rgb(0,0,255)" d="M 304 71.75 L 320 71.75 320 72.25 304 72.25 Z "/>
<path id="p290" fill="rgb(0,0,255)" d="M 311.75 64 L 311.75 80 312.25 80 312.25 64 Z "/>
<path id="p291" fill="rgb(0,0,255)" d="M 320 95.75 L 384 95.75 384 96.25 320 96.25 Z "/>
<path id="p292" fill="rgb(0,0,255)" d="M 351.75 64 L 351.75 128 352.25 128 352.25 64 Z "/>
<path id="p293" fill="rgb(0,0,255)" d="M 320 79.75 L 352 79.75 352 80.25 320 80.25 Z "/>
<path id="p294" fill="rgb(0,0,255)" d="M 335.75 64 L 335.75 96 336.25 96 336.25 64 Z "/>
<path id="p295" fill="rgb(0,0,255)" d="M 320 71.75 L 336 71.75 336 72.25 320 72.25 Z "/>
<path id="p296" fill="rgb(0,0,255)" d="M 327.75 64 L 327.75 80 328.25 80 328.25 64 Z "/>
<path id="p297" fill="rgb(0,0,255)" d="M 336 71.75 L 352 71.75 352 72.25 336 72.25 Z "/>
<path id="p298" fill="rgb(0,0,255)" d="M 343.75 64 L 343.75 80 344.25 80 344.25 64 Z "/>
<path id="p299" fill="rgb(0,0,255)" d="M 352 79.75 L 384 79.75 384 80.25 352 80.25 Z "/>
<path id="p300" fill="rgb(0,0,255)" d="M 367.75 64 L 367.75 96 368.25 96 368.25 64 Z "/>
<path id="p301" fill="rgb(0,0,255)" d="M 352 71.75 L 368 71.75 368 72.25 352 72.25 Z "/>
<path id="p302" fill="rgb(0,0,255)" d="M 359.75 64 L 359.75 80 360.25 80 360.25 64 Z "/>
<path id="p303" fill="rgb(0,0,255)" d="M 352 87.75 L 368 87.75 368 88.25 352 88.25 Z "/>
<path id="p304" fill="rgb(0,0,255)" d="M 359.75 80 L 359.75 96 360.25 96 360.25 80 Z "/>
<path id="p305" fill="rgb(0,0,255)" d="M 368 87.75 L 384 87.75 384 88.25 368 88.25 Z "/>
<path id="p306" fill="rgb(0,0,255)" d="M 375.75 80 L 375.75 96 376.25 96 376.25 80 Z "/>
<path id="p307" fill="rgb(0,0,255)" d="M 384 63.75 L 512 63.75 512 64.25 384 64.25 Z "/>
<path id="p308" fill="rgb(0,0,255)" d="M 447.75 0 L 447.75 128 448.25 128 448.25 0 Z "/>
<path id="p309" fill="rgb(0,0,255)" d="M 384 31.75 L 448 31.75 448 32.25 384 32.25 Z "/>
<path id="p310" fill="rgb(0,0,255)" d="M 415.75 0 L 415.75 64 416.25 64 416.25 0 Z "/>
<path id="p311" fill="rgb(0,0,255)" d="M 384 47.75 L 416 47.75 416 48.25 384 48.25 Z "/>
<path id="p312" fill="rgb(0,0,255)" d="M 399.75 32 L 399.75 64 400.25 64 400.25 32 Z "/>
<path id="p313" fill="rgb(0,0,255)" d="M 384 55.75 L 400 55.75 400 56.25 384 56.25 Z "/>
<path id="p314" fill="rgb(0,0,255)" d="M 391.75 48 L 391.75 64 392.25 64 392.25 48 Z "/>
<path id="p315" fill="rgb(0,0,255)" d="M 384 95.75 L 448 95.75 448 96.25 384 96.25 Z "/>
<path id="p316" fill="rgb(0,0,255)" d="M 415.75 64 L 415.75 128 416.25 128 416.25 64 Z "/>
<path id="p317" fill="rgb(0,0,255)" d="M 384 79.75 L 416 79.75 416 80.25 384 80.25 Z "/>
<path id="p318" fill="rgb(0,0,255)" d="M 399.75 64 L 399.75 96 400.25 96 400.25 64 Z "/>
<path id="p319" fill="rgb(0,0,255)" d="M 384 71.75 L 400 71.75 400 72.25 384 72.25 Z "/>
<path id="p320" fill="rgb(0,0,255)" d="M 391.75 64 L 391.75 80 392.25 80 392.25 64 Z "/>
<path id="p321" fill="rgb(0,0,255)" d="M 400 71.75 L 416 71.75 416 72.25 400 72.25 Z "/>
<path id="p322" fill="rgb(0,0,255)" d="M 407.75 64 L 407.75 80 408.25 80 408.25 64 Z "/>
<path id="p323" fill="rgb(0,0,255)" d="M 384 87.75 L 400 87.75 400 88.25 384 88.25 Z "/>
<path id="p324" fill="rgb(0,0,255)" d="M 391.75 80 L 391.75 96 392.25 96 392.25 80 Z "/>
<path id="p325" fill="rgb(0,0,255)" d="M 400 87.75 L 416 87.75 416 88.25 400 88.25 Z "/>
<path id="p326" fill="rgb(0,0,255)" d="M 407.75 80 L 407.75 96 408.25 96 408.25 80 Z "/>
<path id="p327" fill="rgb(0,0,255)" d="M 416 79.75 L 448 79.75 448 80.25 416 80.25 Z "/>
<path id="p328" fill="rgb(0,0,255)" d="M 431.75 64 L 431.75 96 432.25 96 432.25 64 Z "/>
<path id="p329" fill="rgb(0,0,255)" d="M 416 71.75 L 432 71.75 432 72.25 416 72.25 Z "/>
<path id="p330" fill="rgb(0,0,255)" d="M 423.75 64 L 423.75 80 424.25 80 424.25 64 Z "/>
<path id="p331" fill="rgb(0,0,255)" d="M 416 87.75 L 432 87.75 432 88.25 416 88.25 Z "/>
<path id="p332" fill="rgb(0,0,255)" d="M 423.75 80 L 423.75 96 424.25 96 424.25 80 Z "/>
<path id="p333" fill="rgb(0,0,255)" d="M 432 87.75 L 448 87.75 448 88.25 432 88.25 Z "/>
<path id="p334" fill="rgb(0,0,255)" d="M 439.75 80 L 439.75 96 440.25 96 440.25 80 Z "/>
<path id="p335" fill="rgb(0,0,255)" d="M 384 111.75 L 416 111.75 416 112.25 384 112.25 Z "/>
<path id="p336" fill="rgb(0,0,255)" d="M 399.75 96 L 399.75 128 400.25 128 400.25 96 Z "/>
<path id="p337" fill="rgb(0,0,255)" d="M 400 103.75 L 416 103.75 416 104.25 400 104.25 Z "/>
<path id="p338" fill="rgb(0,0,255)" d="M 407.75 96 L 407.75 112 408.25 112 408.25 96 Z "/>
<path id="p339" fill="rgb(0,0,255)" d="M 416 111.75 L 448 111.75 448 112.25 416 112.25 Z "/>
<path id="p340" fill="rgb(0,0,255)" d="M 431.75 96 L 431.75 128 432.25 128 432.25 96 Z "/>
<path id="p341" fill="rgb(0,0,255)" d="M 416 103.75 L 432 103.75 432 104.25 416 104.25 Z "/>
<path id="p342" fill="rgb(0,0,255)" d="M 423.75 96 L 423.75 112 424.25 112 424.25 96 Z "/>
<path id="p343" fill="rgb(0,0,255)" d="M 432 103.75 L 448 103.75 448 104.25 432 104.25 Z "/>
<path id="p344" fill="rgb(0,0,255)" d="M 439.75 96 L 439.75 112 440.25 112 440.25 96 Z "/>
<path id="p345" fill="rgb(0,0,255)" d="M 416 119.75 L 432 119.75 432 120.25 416 120.25 Z "/>
<path id="p346" fill="rgb(0,0,255)" d="M 423.75 112 L 423.75 128 424.25 128 424.25 112 Z "/>
<path id="p347" fill="rgb(0,0,255)" d="M 432 119.75 L 448 119.75 448 120.25 432 120.25 Z "/>
<path id="p348" fill="rgb(0,0,255)" d="M 439.75 112 L 439.75 128 440.25 128 440.25 112 Z "/>
<path id="p349" fill="rgb(0,0,255)" d="M 448 95.75 L 512 95.75 512 96.25 448 96.25 Z "/>
<path id="p350" fill="rgb(0,0,255)" d="M 479.75 64 L 479.75 128 480.25 128 480.25 64 Z "/>
<path id="p351" fill="rgb(0,0,255)" d="M 448 111.75 L 480 111.75 480 112.25 448 112.25 Z "/>
<path id="p352" fill="rgb(0,0,255)" d="M 463.75 96 L 463.75 128 464.25 128 464.25 96 Z "/>
<path id="p353" fill="rgb(0,0,255)" d="M 448 103.75 L 464 103.75 464 104.25 448 104.25 Z "/>
<path id="p354" fill="rgb(0,0,255)" d="M 455.75 96 L 455.75 112 456.25 112 456.25 96 Z "/>
<path id="p355" fill="rgb(0,0,255)" d="M 448 119.75 L 464 119.75 464 120.25 448 120.25 Z "/>
<path id="p356" fill="rgb(0,0,255)" d="M 455.75 112 L 455.75 128 456.25 128 456.25 112 Z "/>
<path id="p357" fill="rgb(0,0,255)" d="M 256 191.75 L 384 191.75 384 192.25 256 192.25 Z "/>
<path id="p358" fill="rgb(0,0,255)" d="M 319.75 128 L 319.75 256 320.25 256 320.25 128 Z "/>
<path id="p359" fill="rgb(0,0,255)" d="M 320 159.75 L 384 159.75 384 160.25 320 160.25 Z "/>
<path id="p360" fill="rgb(0,0,255)" d="M 351.75 128 L 351.75 192 352.25 192 352.25 128 Z "/>
<path id="p361" fill="rgb(0,0,255)" d="M 320 175.75 L 352 175.75 352 176.25 320 176.25 Z "/>
<path id="p362" fill="rgb(0,0,255)" d="M 335.75 160 L 335.75 192 336.25 192 336.25 160 Z "/>
<path id="p363" fill="rgb(0,0,255)" d="M 336 183.75 L 352 183.75 352 184.25 336 184.25 Z "/>
<path id="p364" fill="rgb(0,0,255)" d="M 343.75 176 L 343.75 192 344.25 192 344.25 176 Z "/>
<path id="p365" fill="rgb(0,0,255)" d="M 352 175.75 L 384 175.75 384 176.25 352 176.25 Z "/>
<path id="p366" fill="rgb(0,0,255)" d="M 367.75 160 L 367.75 192 368.25 192 368.25 160 Z "/>
<path id="p367" fill="rgb(0,0,255)" d="M 352 167.75 L 368 167.75 368 168.25 352 168.25 Z "/>
<path id="p368" fill="rgb(0,0,255)" d="M 359.75 160 L 359.75 176 360.25 176 360.25 160 Z "/>
<path id="p369" fill="rgb(0,0,255)" d="M 368 167.75 L 384 167.75 384 168.25 368 168.25 Z "/>
<path id="p370" fill="rgb(0,0,255)" d="M 375.75 160 L 375.75 176 376.25 176 376.25 160 Z "/>
<path id="p371" fill="rgb(0,0,255)" d="M 352 183.75 L 368 183.75 368 184.25 352 184.25 Z "/>
<path id="p372" fill="rgb(0,0,255)" d="M 359.75 176 L 359.75 192 360.25 192 360.25 176 Z "/>
<path id="p373" fill="rgb(0,0,255)" d="M 256 223.75 L 320 223.75 320 224.25 256 224.25 Z "/>
<path id="p374" fill="rgb(0,0,255)" d="M 287.75 192 L 287.75 256 288.25 256 288.25 192 Z "/>
<path id="p375" fill="rgb(0,0,255)" d="M 288 207.75 L 320 207.75 320 208.25 288 208.25 Z "/>
<path id="p376" fill="rgb(0,0,255)" d="M 303.75 192 L 303.75 224 304.25 224 304.25 192 Z "/>
<path id="p377" fill="rgb(0,0,255)" d="M 304 199.75 L 320 199.75 320 200.25 304 200.25 Z "/>
<path id="p378" fill="rgb(0,0,255)" d="M 311.75 192 L 311.75 208 312.25 208 312.25 192 Z "/>
<path id="p379" fill="rgb(0,0,255)" d="M 288 215.75 L 304 215.75 304 216.25 288 216.25 Z "/>
<path id="p380" fill="rgb(0,0,255)" d="M 295.75 208 L 295.75 224 296.25 224 296.25 208 Z "/>
<path id="p381" fill="rgb(0,0,255)" d="M 304 215.75 L 320 215.75 320 216.25 304 216.25 Z "/>
<path id="p382" fill="rgb(0,0,255)" d="M 311.75 208 L 311.75 224 312.25 224 312.25 208 Z "/>
<path id="p383" fill="rgb(0,0,255)" d="M 256 239.75 L 288 239.75 288 240.25 256 240.25 Z "/>
<path id="p384" fill="rgb(0,0,255)" d="M 271.75 224 L 271.75 256 272.25 256 272.25 224 Z "/>
<path id="p385" fill="rgb(0,0,255)" d="M 272 231.75 L 288 231.75 288 232.25 272 232.25 Z "/>
<path id="p386" fill="rgb(0,0,255)" d="M 279.75 224 L 279.75 240 280.25 240 280.25 224 Z "/>
<path id="p387" fill="rgb(0,0,255)" d="M 256 247.75 L 272 247.75 272 248.25 256 248.25 Z "/>
<path id="p388" fill="rgb(0,0,255)" d="M 263.75 240 L 263.75 256 264.25 256 264.25 240 Z "/>
<path id="p389" fill="rgb(0,0,255)" d="M 272 247.75 L 288 247.75 288 248.25 272 248.25 Z "/>
<path id="p390" fill="rgb(0,0,255)" d="M 279.75 240 L 279.75 256 280.25 256 280.25 240 Z "/>
<path id="p391" fill="rgb(0,0,255)" d="M 288 239.75 L 320 239.75 320 240.25 288 240.25 Z "/>
<path id="p392" fill="rgb(0,0,255)" d="M 303.75 224 L 303.75 256 304.25 256 304.25 224 Z "/>
<path id="p393" fill="rgb(0,0,255)" d="M 288 231.75 L 304 231.75 304 232.25 288 232.25 Z "/>
<path id="p394" fill="rgb(0,0,255)" d="M 295.75 224 L 295.75 240 296.25 240 296.25 224 Z "/>
<path id="p395" fill="rgb(0,0,255)" d="M 320 223.75 L 384 223.75 384 224.25 320 224.25 Z "/>
<path id="p396" fill="rgb(0,0,255)" d="M 351.75 192 L 351.75 256 352.25 256 352.25 192 Z "/>
<path id="p397" fill="rgb(0,0,255)" d="M 320 207.75 L 352 207.75 352 208.25 320 208.25 Z "/>
<path id="p398" fill="rgb(0,0,255)" d="M 335.75 192 L 335.75 224 336.25 224 336.25 192 Z "/>
<path id="p399" fill="rgb(0,0,255)" d="M 320 199.75 L 336 199.75 336 200.25 320 200.25 Z "/>
<path id="p400" fill="rgb(0,0,255)" d="M 327.75 192 L 327.75 208 328.25 208 328.25 192 Z "/>
<path id="p401" fill="rgb(0,0,255)" d="M 336 199.75 L 352 199.75 352 200.25 336 200.25 Z "/>
<path id="p402" fill="rgb(0,0,255)" d="M 343.75 192 L 343.75 208 344.25 208 344.25 192 Z "/>
<path id="p403" fill="rgb(0,0,255)" d="M 384 191.75 L 512 191.75 512 192.25 384 192.25 Z "/>
<path id="p404" fill="rgb(0,0,255)" d="M 447.75 128 L 447.75 256 448.25 256 448.25 128 Z "/>
<path id="p405" fill="rgb(0,0,255)" d="M 384 159.75 L 448 159.75 448 160.25 384 160.25 Z "/>
<path id="p406" fill="rgb(0,0,255)" d="M 415.75 128 L 415.75 192 416.25 192 416.25 128 Z "/>
<path id="p407" fill="rgb(0,0,255)" d="M 384 143.75 L 416 143.75 416 144.25 384 144.25 Z "/>
<path id="p408" fill="rgb(0,0,255)" d="M 399.75 128 L 399.75 160 400.25 160 400.25 128 Z "/>
<path id="p409" fill="rgb(0,0,255)" d="M 400 135.75 L 416 135.75 416 136.25 400 136.25 Z "/>
<path id="p410" fill="rgb(0,0,255)" d="M 407.75 128 L 407.75 144 408.25 144 408.25 128 Z "/>
<path id="p411" fill="rgb(0,0,255)" d="M 384 151.75 L 400 151.75 400 152.25 384 152.25 Z "/>
<path id="p412" fill="rgb(0,0,255)" d="M 391.75 144 L 391.75 160 392.25 160 392.25 144 Z "/>
<path id="p413" fill="rgb(0,0,255)" d="M 400 151.75 L 416 151.75 416 152.25 400 152.25 Z "/>
<path id="p414" fill="rgb(0,0,255)" d="M 407.75 144 L 407.75 160 408.25 160 408.25 144 Z "/>
<path id="p415" fill="rgb(0,0,255)" d="M 416 143.75 L 448 143.75 448 144.25 416 144.25 Z "/>
<path id="p416" fill="rgb(0,0,255)" d="M 431.75 128 L 431.75 160 432.25 160 432.25 128 Z "/>
<path id="p417" fill="rgb(0,0,255)" d="M 416 135.75 L 432 135.75 432 136.25 416 136.25 Z "/>
<path id="p418" fill="rgb(0,0,255)" d="M 423.75 128 L 423.75 144 424.25 144 424.25 128 Z "/>
<path id="p419" fill="rgb(0,0,255)" d="M 384 175.75 L 416 175.75 416 176.25 384 176.25 Z "/>
<path id="p420" fill="rgb(0,0,255)" d="M 399.75 160 L 399.75 192 400.25 192 400.25 160 Z "/>
<path id="p421" fill="rgb(0,0,255)" d="M 384 167.75 L 400 167.75 400 168.25 384 168.25 Z "/>
<path id="p422" fill="rgb(0,0,255)" d="M 391.75 160 L 391.75 176 392.25 176 392.25 160 Z "/>
<path id="p423" fill="rgb(0,0,255)" d="M 448 159.75 L 512 159.75 512 160.25 448 160.25 Z "/>
<path id="p424" fill="rgb(0,0,255)" d="M 479.75 128 L 479.75 192 480.25 192 480.25 128 Z "/>
<path id="p425" fill="rgb(0,0,255)" d="M 448 143.75 L 480 143.75 480 144.25 448 144.25 Z "/>
<path id="p426" fill="rgb(0,0,255)" d="M 463.75 128 L 463.75 160 464.25 160 464.25 128 Z "/>
<path id="p427" fill="rgb(0,0,255)" d="M 448 135.75 L 464 135.75 464 136.25 448 136.25 Z "/>
<path id="p428" fill="rgb(0,0,255)" d="M 455.75 128 L 455.75 144 456.25 144 456.25 128 Z "/>
<path id="p429" fill="rgb(0,0,255)" d="M 464 135.75 L 480 135.75 480 136.25 464 136.25 Z "/>
<path id="p430" fill="rgb(0,0,255)" d="M 471.75 128 L 471.75 144 472.25 144 472.25 128 Z "/>
<path id="p431" fill="rgb(0,0,255)" d="M 464 151.75 L 480 151.75 480 152.25 464 152.25 Z "/>
<path id="p432" fill="rgb(0,0,255)" d="M 471.75 144 L 471.75 160 472.25 160 472.25 144 Z "/>
<path id="p433" fill="rgb(0,0,255)" d="M 448 175.75 L 480 175.75 480 176.25 448 176.25 Z "/>
<path id="p434" fill="rgb(0,0,255)" d="M 463.75 160 L 463.75 192 464.25 192 464.25 160 Z "/>
<path id="p435" fill="rgb(0,0,255)" d="M 464 167.75 L 480 167.75 480 168.25 464 168.25 Z "/>
<path id="p436" fill="rgb(0,0,255)" d="M 471.75 160 L 471.75 176 472.25 176 472.25 160 Z "/>
<path id="p437" fill="rgb(0,0,255)" d="M 480 175.75 L 512 175.75 512 176.25 480 176.25 Z "/>
<path id="p438" fill="rgb(0,0,255)" d="M 495.75 160 L 495.75 192 496.25 192 496.25 160 Z "/>
<path id="p439" fill="rgb(0,0,255)" d="M 480 167.75 L 496 167.75 496 168.25 480 168.25 Z "/>
<path id="p440" fill="rgb(0,0,255)" d="M 487.75 160 L 487.75 176 488.25 176 488.25 160 Z "/>
<path id="p441" fill="rgb(0,0,255)" d="M 480 183.75 L 496 183.75 496 184.25 480 184.25 Z "/>
<path id="p442" fill="rgb(0,0,255)" d="M 487.75 176 L 487.75 192 488.25 192 488.25 176 Z "/>
<path id="p443" fill="rgb(0,0,255)" d="M 448 223.75 L 512 223.75 512 224.25 448 224.25 Z "/>
<path id="p444" fill="rgb(0,0,255)" d="M 479.75 192 L 479.75 256 480.25 256 480.25 192 Z "/>
<path id="p445" fill="rgb(0,0,255)" d="M 480 207.75 L 512 207.75 512 208.25 480 208.25 Z "/>
<path id="p446" fill="rgb(0,0,255)" d="M 495.75 192 L 495.75 224 496.25 224 496.25 192 Z "/>
<path id="p447" fill="rgb(0,0,255)" d="M 480 199.75 L 496 199.75 496 200.25 480 200.25 Z "/>
<path id="p448" fill="rgb(0,0,255)" d="M 487.75 192 L 487.75 208 488.25 208 488.25 192 Z "/>
<path id="p449" fill="rgb(0,0,255)" d="M 480 215.75 L 496 215.75 496 216.25 480 216.25 Z "/>
<path id="p450" fill="rgb(0,0,255)" d="M 487.75 208 L 487.75 224 488.25 224 488.25 208 Z "/>
<path id="p451" fill="rgb(0,0,255)" d="M 496 215.75 L 512 215.75 512 216.25 496 216.25 Z "/>
<path id="p452" fill="rgb(0,0,255)" d="M 503.75 208 L 503.75 224 504.25 224 504.25 208 Z "/>
<path id="p453" fill="rgb(0,0,255)" d="M 480 239.75 L 512 239.75 512 240.25 480 240.25 Z "/>
<path id="p454" fill="rgb(0,0,255)" d="M 495.75 224 L 495.75 256 496.25 256 496.25 224 Z "/>
<path id="p455" fill="rgb(0,0,255)" d="M 496 231.75 L 512 231.75 512 232.25 496 232.25 Z "/>
<path id="p456" fill="rgb(0,0,255)" d="M 503.75 224 L 503.75 240 504.25 240 504.25 224 Z "/>
<path id="p457" fill="rgb(0,0,255)" d="M 496 247.75 L 512 247.75 512 248.25 496 248.25 Z "/>
<path id="p458" fill="rgb(0,0,255)" d="M 503.75 240 L 503.75 256 504.25 256 504.25 240 Z "/>
<path id="p459" fill="rgb(0,0,255)" d="M 0 383.75 L 256 383.75 256 384.25 0 384.25 Z "/>
<path id="p460" fill="rgb(0,0,255)" d="M 127.75 256 L 127.75 512 128.25 512 128.25 256 Z "/>
<path id="p461" fill="rgb(0,0,255)" d="M 0 319.75 L 128 319.75 128 320.25 0 320.25 Z "/>
<path id="p462" fill="rgb(0,0,255)" d="M 63.75 256 L 63.75 384 64.25 384 64.25 256 Z "/>
<path id="p463" fill="rgb(0,0,255)" d="M 0 287.75 L 64 287.75 64 288.25 0 288.25 Z "/>
<path id="p464" fill="rgb(0,0,255)" d="M 31.75 256 L 31.75 320 32.25 320 32.25 256 Z "/>
<path id="p465" fill="rgb(0,0,255)" d="M 0 271.75 L 32 271.75 32 272.25 0 272.25 Z "/>
<path id="p466" fill="rgb(0,0,255)" d="M 15.75 256 L 15.75 288 16.25 288 16.25 256 Z "/>
<path id="p467" fill="rgb(0,0,255)" d="M 0 263.75 L 16 263.75 16 264.25 0 264.25 Z "/>
<path id="p468" fill="rgb(0,0,255)" d="M 7.75 256 L 7.75 272 8.25 272 8.25 256 Z "/>
<path id="p469" fill="rgb(0,0,255)" d="M 0 279.75 L 16 279.75 16 280.25 0 280.25 Z "/>
<path id="p470" fill="rgb(0,0,255)" d="M 7.75 272 L 7.75 288 8.25 288 8.25 272 Z "/>
<path id="p471" fill="rgb(0,0,255)" d="M 16 279.75 L 32 279.75 32 280.25 16 280.25 Z "/>
<path id="p472" fill="rgb(0,0,255)" d="M 23.75 272 L 23.75 288 24.25 288 24.25 272 Z "/>
<path id="p473" fill="rgb(0,0,255)" d="M 0 303.75 L 32 303.75 32 304.25 0 304.25 Z "/>
<path id="p474" fill="rgb(0,0,255)" d="M 15.75 288 L 15.75 320 16.25 320 16.25 288 Z "/>
<path id="p475" fill="rgb(0,0,255)" d="M 0 295.75 L 16 295.75 16 296.25 0 296.25 Z "/>
<path id="p476" fill="rgb(0,0,255)" d="M 7.75 288 L 7.75 304 8.25 304 8.25 288 Z "/>
<path id="p477" fill="rgb(0,0,255)" d="M 16 295.75 L 32 295.75 32 296.25 16 296.25 Z "/>
<path id="p478" fill="rgb(0,0,255)" d="M 23.75 288 L 23.75 304 24.25 304 24.25 288 Z "/>
<path id="p479" fill="rgb(0,0,255)" d="M 16 311.75 L 32 311.75 32 312.25 16 312.25 Z "/>
<path id="p480" fill="rgb(0,0,255)" d="M 23.75 304 L 23.75 320 24.25 320 24.25 304 Z "/>
<path id="p481" fill="rgb(0,0,255)" d="M 32 303.75 L 64 303.75 64 304.25 32 304.25 Z "/>
<path id="p482" fill="rgb(0,0,255)" d="M 47.75 288 L 47.75 320 48.25 320 48.25 288 Z "/>
<path id="p483" fill="rgb(0,0,255)" d="M 32 295.75 L 48 295.75 48 296.25 32 296.25 Z "/>
<path id="p484" fill="rgb(0,0,255)" d="M 39.75 288 L 39.75 304 40.25 304 40.25 288 Z "/>
<path id="p485" fill="rgb(0,0,255)" d="M 32 311.75 L 48 311.75 48 312.25 32 312.25 Z "/>
<path id="p486" fill="rgb(0,0,255)" d="M 39.75 304 L 39.75 320 40.25 320 40.25 304 Z "/>
<path id="p487" fill="rgb(0,0,255)" d="M 0 351.75 L 64 351.75 64 352.25 0 352.25 Z "/>
<path id="p488" fill="rgb(0,0,255)" d="M 31.75 320 L 31.75 384 32.25 384 32.25 320 Z "/>
<path id="p489" fill="rgb(0,0,255)" d="M 0 335.75 L 32 335.75 32 336.25 0 336.25 Z "/>
<path id="p490" fill="rgb(0,0,255)" d="M 15.75 320 L 15.75 352 16.25 352 16.25 320 Z "/>
<path id="p491" fill="rgb(0,0,255)" d="M 16 327.75 L 32 327.75 32 328.25 16 328.25 Z "/>
<path id="p492" fill="rgb(0,0,255)" d="M 23.75 320 L 23.75 336 24.25 336 24.25 320 Z "/>
<path id="p493" fill="rgb(0,0,255)" d="M 32 335.75 L 64 335.75 64 336.25 32 336.25 Z "/>
<path id="p494" fill="rgb(0,0,255)" d="M 47.75 320 L 47.75 352 48.25 352 48.25 320 Z "/>
<path id="p495" fill="rgb(0,0,255)" d="M 32 327.75 L 48 327.75 48 328.25 32 328.25 Z "/>
<path id="p496" fill="rgb(0,0,255)" d="M 39.75 320 L 39.75 336 40.25 336 40.25 320 Z "/>
<path id="p497" fill="rgb(0,0,255)" d="M 48 327.75 L 64 327.75 64 328.25 48 328.25 Z "/>
<path id="p498" fill="rgb(0,0,255)" d="M 55.75 320 L 55.75 336 56.25 336 56.25 320 Z "/>
<path id="p499" fill="rgb(0,0,255)" d="M 32 343.75 L 48 343.75 48 344.25 32 344.25 Z "/>
<path id="p500" fill="rgb(0,0,255)" d="M 39.75 336 L 39.75 352 40.25 352 40.25 336 Z "/>
<path id="p501" fill="rgb(0,0,255)" d="M 48 343.75 L 64 343.75 64 344.25 48 344.25 Z "/>
<path id="p502" fill="rgb(0,0,255)" d="M 55.75 336 L 55.75 352 56.25 352 56.25 336 Z "/>
<path id="p503" fill="rgb(0,0,255)" d="M 32 367.75 L 64 367.75 64 368.25 32 368.25 Z "/>
<path id="p504" fill="rgb(0,0,255)" d="M 47.75 352 L 47.75 384 48.25 384 48.25 352 Z "/>
<path id="p505" fill="rgb(0,0,255)" d="M 32 359.75 L 48 359.75 48 360.25 32 360.25 Z "/>
<path id="p506" fill="rgb(0,0,255)" d="M 39.75 352 L 39.75 368 40.25 368 40.25 352 Z "/>
<path id="p507" fill="rgb(0,0,255)" d="M 32 375.75 L 48 375.75 48 376.25 32 376.25 Z "/>
<path id="p508" fill="rgb(0,0,255)" d="M 39.75 368 L 39.75 384 40.25 384 40.25 368 Z "/>
<path id="p509" fill="rgb(0,0,255)" d="M 48 375.75 L 64 375.75 64 376.25 48 376.25 Z "/>
<path id="p510" fill="rgb(0,0,255)" d="M 55.75 368 L 55.75 384 56.25 384 56.25 368 Z "/>
<path id="p511" fill="rgb(0,0,255)" d="M 64 351.75 L 128 351.75 128 352.25 64 352.25 Z "/>
<path id="p512" fill="rgb(0,0,255)" d="M 95.75 320 L 95.75 384 96.25 384 96.25 320 Z "/>
<path id="p513" fill="rgb(0,0,255)" d="M 64 335.75 L 96 335.75 96 336.25 64 336.25 Z "/>
<path id="p514" fill="rgb(0,0,255)" d="M 79.75 320 L 79.75 352 80.25 352 80.25 320 Z "/>
<path id="p515" fill="rgb(0,0,255)" d="M 64 343.75 L 80 343.75 80 344.25 64 344.25 Z "/>
<path id="p516" fill="rgb(0,0,255)" d="M 71.75 336 L 71.75 352 72.25 352 72.25 336 Z "/>
<path id="p517" fill="rgb(0,0,255)" d="M 64 367.75 L 96 367.75 96 368.25 64 368.25 Z "/>
<path id="p518" fill="rgb(0,0,255)" d="M 79.75 352 L 79.75 384 80.25 384 80.25 352 Z "/>
<path id="p519" fill="rgb(0,0,255)" d="M 64 359.75 L 80 359.75 80 360.25 64 360.25 Z "/>
<path id="p520" fill="rgb(0,0,255)" d="M 71.75 352 L 71.75 368 72.25 368 72.25 352 Z "/>
<path id="p521" fill="rgb(0,0,255)" d="M 80 359.75 L 96 359.75 96 360.25 80 360.25 Z "/>
<path id="p522" fill="rgb(0,0,255)" d="M 87.75 352 L 87.75 368 88.25 368 88.25 352 Z "/>
<path id="p523" fill="rgb(0,0,255)" d="M 80 375.75 L 96 375.75 96 376.25 80 376.25 Z "/>
<path id="p524" fill="rgb(0,0,255)" d="M 87.75 368 L 87.75 384 88.25 384 88.25 368 Z "/>
<path id="p525" fill="rgb(0,0,255)" d="M 128 319.75 L 256 319.75 256 320.25 128 320.25 Z "/>
<path id="p526" fill="rgb(0,0,255)" d="M 191.75 256 L 191.75 384 192.25 384 192.25 256 Z "/>
<path id="p527" fill="rgb(0,0,255)" d="M 192 287.75 L 256 287.75 256 288.25 192 288.25 Z "/>
<path id="p528" fill="rgb(0,0,255)" d="M 223.75 256 L 223.75 320 224.25 320 224.25 256 Z "/>
<path id="p529" fill="rgb(0,0,255)" d="M 224 271.75 L 256 271.75 256 272.25 224 272.25 Z "/>
<path id="p530" fill="rgb(0,0,255)" d="M 239.75 256 L 239.75 288 240.25 288 240.25 256 Z "/>
<path id="p531" fill="rgb(0,0,255)" d="M 240 263.75 L 256 263.75 256 264.25 240 264.25 Z "/>
<path id="p532" fill="rgb(0,0,255)" d="M 247.75 256 L 247.75 272 248.25 272 248.25 256 Z "/>
<path id="p533" fill="rgb(0,0,255)" d="M 224 279.75 L 240 279.75 240 280.25 224 280.25 Z "/>
<path id="p534" fill="rgb(0,0,255)" d="M 231.75 272 L 231.75 288 232.25 288 232.25 272 Z "/>
<path id="p535" fill="rgb(0,0,255)" d="M 240 279.75 L 256 279.75 256 280.25 240 280.25 Z "/>
<path id="p536" fill="rgb(0,0,255)" d="M 247.75 272 L 247.75 288 248.25 288 248.25 272 Z "/>
<path id="p537" fill="rgb(0,0,255)" d="M 224 303.75 L 256 303.75 256 304.25 224 304.25 Z "/>
<path id="p538" fill="rgb(0,0,255)" d="M 239.75 288 L 239.75 320 240.25 320 240.25 288 Z "/>
<path id="p539" fill="rgb(0,0,255)" d="M 224 295.75 L 240 295.75 240 296.25 224 296.25 Z "/>
<path id="p540" fill="rgb(0,0,255)" d="M 231.75 288 L 231.75 304 232.25 304 232.25 288 Z "/>
<path id="p541" fill="rgb(0,0,255)" d="M 224 311.75 L 240 311.75 240 312.25 224 312.25 Z "/>
<path id="p542" fill="rgb(0,0,255)" d="M 231.75 304 L 231.75 320 232.25 320 232.25 304 Z "/>
<path id="p543" fill="rgb(0,0,255)" d="M 192 351.75 L 256 351.75 256 352.25 192 352.25 Z "/>
<path id="p544" fill="rgb(0,0,255)" d="M 223.75 320 L 223.75 384 224.25 384 224.25 320 Z "/>
<path id="p545" fill="rgb(0,0,255)" d="M 192 335.75 L 224 335.75 224 336.25 192 336.25 Z "/>
<path id="p546" fill="rgb(0,0,255)" d="M 207.75 320 L 207.75 352 208.25 352 208.25 320 Z "/>
<path id="p547" fill="rgb(0,0,255)" d="M 208 327.75 L 224 327.75 224 328.25 208 328.25 Z "/>
<path id="p548" fill="rgb(0,0,255)" d="M 215.75 320 L 215.75 336 216.25 336 216.25 320 Z "/>
<path id="p549" fill="rgb(0,0,255)" d="M 208 343.75 L 224 343.75 224 344.25 208 344.25 Z "/>
<path id="p550" fill="rgb(0,0,255)" d="M 215.75 336 L 215.75 352 216.25 352 216.25 336 Z "/>
<path id="p551" fill="rgb(0,0,255)" d="M 224 335.75 L 256 335.75 256 336.25 224 336.25 Z "/>
<path id="p552" fill="rgb(0,0,255)" d="M 239.75 320 L 239.75 352 240.25 352 240.25 320 Z "/>
<path id="p553" fill="rgb(0,0,255)" d="M 224 327.75 L 240 327.75 240 328.25 224 328.25 Z "/>
<path id="p554" fill="rgb(0,0,255)" d="M 231.75 320 L 231.75 336 232.25 336 232.25 320 Z "/>
<path id="p555" fill="rgb(0,0,255)" d="M 192 367.75 L 224 367.75 224 368.25 192 368.25 Z "/>
<path id="p556" fill="rgb(0,0,255)" d="M 207.75 352 L 207.75 384 208.25 384 208.25 352 Z "/>
<path id="p557" fill="rgb(0,0,255)" d="M 208 359.75 L 224 359.75 224 360.25 208 360.25 Z "/>
<path id="p558" fill="rgb(0,0,255)" d="M 215.75 352 L 215.75 368 216.25 368 216.25 352 Z "/>
<path id="p559" fill="rgb(0,0,255)" d="M 208 375.75 L 224 375.75 224 376.25 208 376.25 Z "/>
<path id="p560" fill="rgb(0,0,255)" d="M 215.75 368 L 215.75 384 216.25 384 216.25 368 Z "/>
<path id="p561" fill="rgb(0,0,255)" d="M 0 447.75 L 128 447.75 128 448.25 0 448.25 Z "/>
<path id="p562" fill="rgb(0,0,255)" d="M 63.75 384 L 63.75 512 64.25 512 64.25 384 Z "/>
<path id="p563" fill="rgb(0,0,255)" d="M 0 415.75 L 64 415.75 64 416.25 0 416.25 Z "/>
<path id="p564" fill="rgb(0,0,255)" d="M 31.75 384 L 31.75 448 32.25 448 32.25 384 Z "/>
<path id="p565" fill="rgb(0,0,255)" d="M 32 399.75 L 64 399.75 64 400.25 32 400.25 Z "/>
<path id="p566" fill="rgb(0,0,255)" d="M 47.75 384 L 47.75 416 48.25 416 48.25 384 Z "/>
<path id="p567" fill="rgb(0,0,255)" d="M 48 391.75 L 64 391.75 64 392.25 48 392.25 Z "/>
<path id="p568" fill="rgb(0,0,255)" d="M 55.75 384 L 55.75 400 56.25 400 56.25 384 Z "/>
<path id="p569" fill="rgb(0,0,255)" d="M 48 407.75 L 64 407.75 64 408.25 48 408.25 Z "/>
<path id="p570" fill="rgb(0,0,255)" d="M 55.75 400 L 55.75 416 56.25 416 56.25 400 Z "/>
<path id="p571" fill="rgb(0,0,255)" d="M 64 415.75 L 128 415.75 128 416.25 64 416.25 Z "/>
<path id="p572" fill="rgb(0,0,255)" d="M 95.75 384 L 95.75 448 96.25 448 96.25 384 Z "/>
<path id="p573" fill="rgb(0,0,255)" d="M 64 399.75 L 96 399.75 96 400.25 64 400.25 Z "/>
<path id="p574" fill="rgb(0,0,255)" d="M 79.75 384 L 79.75 416 80.25 416 80.25 384 Z "/>
<path id="p575" fill="rgb(0,0,255)" d="M 80 391.75 L 96 391.75 96 392.25 80 392.25 Z "/>
<path id="p576" fill="rgb(0,0,255)" d="M 87.75 384 L 87.75 400 88.25 400 88.25 384 Z "/>
<path id="p577" fill="rgb(0,0,255)" d="M 64 407.75 L 80 407.75 80 408.25 64 408.25 Z "/>
<path id="p578" fill="rgb(0,0,255)" d="M 71.75 400 L 71.75 416 72.25 416 72.25 400 Z "/>
<path id="p579" fill="rgb(0,0,255)" d="M 96 399.75 L 128 399.75 128 400.25 96 400.25 Z "/>
<path id="p580" fill="rgb(0,0,255)" d="M 111.75 384 L 111.75 416 112.25 416 112.25 384 Z "/>
<path id="p581" fill="rgb(0,0,255)" d="M 96 391.75 L 112 391.75 112 392.25 96 392.25 Z "/>
<path id="p582" fill="rgb(0,0,255)" d="M 103.75 384 L 103.75 400 104.25 400 104.25 384 Z "/>
<path id="p583" fill="rgb(0,0,255)" d="M 96 407.75 L 112 407.75 112 408.25 96 408.25 Z "/>
<path id="p584" fill="rgb(0,0,255)" d="M 103.75 400 L 103.75 416 104.25 416 104.25 400 Z "/>
<path id="p585" fill="rgb(0,0,255)" d="M 112 407.75 L 128 407.75 128 408.25 112 408.25 Z "/>
<path id="p586" fill="rgb(0,0,255)" d="M 119.75 400 L 119.75 416 120.25 416 120.25 400 Z "/>
<path id="p587" fill="rgb(0,0,255)" d="M 64 431.75 L 96 431.75 96 432.25 64 432.25 Z "/>
<path id="p588" fill="rgb(0,0,255)" d="M 79.75 416 L 79.75 448 80.25 448 80.25 416 Z "/>
<path id="p589" fill="rgb(0,0,255)" d="M 64 423.75 L 80 423.75 80 424.25 64 424.25 Z "/>
<path id="p590" fill="rgb(0,0,255)" d="M 71.75 416 L 71.75 432 72.25 432 72.25 416 Z "/>
<path id="p591" fill="rgb(0,0,255)" d="M 80 423.75 L 96 423.75 96 424.25 80 424.25 Z "/>
<path id="p592" fill="rgb(0,0,255)" d="M 87.75 416 L 87.75 432 88.25 432 88.25 416 Z "/>
<path id="p593" fill="rgb(0,0,255)" d="M 80 439.75 L 96 439.75 96 440.25 80 440.25 Z "/>
<path id="p594" fill="rgb(0,0,255)" d="M 87.75 432 L 87.75 448 88.25 448 88.25 432 Z "/>
<path id="p595" fill="rgb(0,0,255)" d="M 96 431.75 L 128 431.75 128 432.25 96 432.25 Z "/>
<path id="p596" fill="rgb(0,0,255)" d="M 111.75 416 L 111.75 448 112.25 448 112.25 416 Z "/>
<path id="p597" fill="rgb(0,0,255)" d="M 112 423.75 L 128 423.75 128 424.25 112 424.25 Z "/>
<path id="p598" fill="rgb(0,0,255)" d="M 119.75 416 L 119.75 432 120.25 432 120.25 416 Z "/>
<path id="p599" fill="rgb(0,0,255)" d="M 96 439.75 L 112 439.75 112 440.25 96 440.25 Z "/>
<path id="p600" fill="rgb(0,0,255)" d="M 103.75 432 L 103.75 448 104.25 448 104.25 432 Z "/>
<path id="p601" fill="rgb(0,0,255)" d="M 112 439.75 L 128 439.75 128 440.25 112 440.25 Z "/>
<path id="p602" fill="rgb(0,0,255)" d="M 119.75 432 L 119.75 448 120.25 448 120.25 432 Z "/>
<path id="p603" fill="rgb(0,0,255)" d="M 64 479.75 L 128 479.75 128 480.25 64 480.25 Z "/>
<path id="p604" fill="rgb(0,0,255)" d="M 95.75 448 L 95.75 512 96.25 512 96.25 448 Z "/>
<path id="p605" fill="rgb(0,0,255)" d="M 96 463.75 L 128 463.75 128 464.25 96 464.25 Z "/>
<path id="p606" fill="rgb(0,0,255)" d="M 111.75 448 L 111.75 480 112.25 480 112.25 448 Z "/>
<path id="p607" fill="rgb(0,0,255)" d="M 112 455.75 L 128 455.75 128 456.25 112 456.25 Z "/>
<path id="p608" fill="rgb(0,0,255)" d="M 119.75 448 L 119.75 464 120.25 464 120.25 448 Z "/>
<path id="p609" fill="rgb(0,0,255)" d="M 128 447.75 L 256 447.75 256 448.25 128 448.25 Z "/>
<path id="p610" fill="rgb(0,0,255)" d="M 191.75 384 L 191.75 512 192.25 512 192.25 384 Z "/>
<path id="p611" fill="rgb(0,0,255)" d="M 128 415.75 L 192 415.75 192 416.25 128 416.25 Z "/>
<path id="p612" fill="rgb(0,0,255)" d="M 159.75 384 L 159.75 448 160.25 448 160.25 384 Z "/>
<path id="p613" fill="rgb(0,0,255)" d="M 128 431.75 L 160 431.75 160 432.25 128 432.25 Z "/>
<path id="p614" fill="rgb(0,0,255)" d="M 143.75 416 L 143.75 448 144.25 448 144.25 416 Z "/>
<path id="p615" fill="rgb(0,0,255)" d="M 128 439.75 L 144 439.75 144 440.25 128 440.25 Z "/>
<path id="p616" fill="rgb(0,0,255)" d="M 135.75 432 L 135.75 448 136.25 448 136.25 432 Z "/>
<path id="p617" fill="rgb(0,0,255)" d="M 160 431.75 L 192 431.75 192 432.25 160 432.25 Z "/>
<path id="p618" fill="rgb(0,0,255)" d="M 175.75 416 L 175.75 448 176.25 448 176.25 416 Z "/>
<path id="p619" fill="rgb(0,0,255)" d="M 176 439.75 L 192 439.75 192 440.25 176 440.25 Z "/>
<path id="p620" fill="rgb(0,0,255)" d="M 183.75 432 L 183.75 448 184.25 448 184.25 432 Z "/>
<path id="p621" fill="rgb(0,0,255)" d="M 192 415.75 L 256 415.75 256 416.25 192 416.25 Z "/>
<path id="p622" fill="rgb(0,0,255)" d="M 223.75 384 L 223.75 448 224.25 448 224.25 384 Z "/>
<path id="p623" fill="rgb(0,0,255)" d="M 192 399.75 L 224 399.75 224 400.25 192 400.25 Z "/>
<path id="p624" fill="rgb(0,0,255)" d="M 207.75 384 L 207.75 416 208.25 416 208.25 384 Z "/>
<path id="p625" fill="rgb(0,0,255)" d="M 192 391.75 L 208 391.75 208 392.25 192 392.25 Z "/>
<path id="p626" fill="rgb(0,0,255)" d="M 199.75 384 L 199.75 400 200.25 400 200.25 384 Z "/>
<path id="p627" fill="rgb(0,0,255)" d="M 208 391.75 L 224 391.75 224 392.25 208 392.25 Z "/>
<path id="p628" fill="rgb(0,0,255)" d="M 215.75 384 L 215.75 400 216.25 400 216.25 384 Z "/>
<path id="p629" fill="rgb(0,0,255)" d="M 192 407.75 L 208 407.75 208 408.25 192 408.25 Z "/>
<path id="p630" fill="rgb(0,0,255)" d="M 199.75 400 L 199.75 416 200.25 416 200.25 400 Z "/>
<path id="p631" fill="rgb(0,0,255)" d="M 192 431.75 L 224 431.75 224 432.25 192 432.25 Z "/>
<path id="p632" fill="rgb(0,0,255)" d="M 207.75 416 L 207.75 448 208.25 448 208.25 416 Z "/>
<path id="p633" fill="rgb(0,0,255)" d="M 192 423.75 L 208 423.75 208 424.25 192 424.25 Z "/>
<path id="p634" fill="rgb(0,0,255)" d="M 199.75 416 L 199.75 432 200.25 432 200.25 416 Z "/>
<path id="p635" fill="rgb(0,0,255)" d="M 192 439.75 L 208 439.75 208 440.25 192 440.25 Z "/>
<path id="p636" fill="rgb(0,0,255)" d="M 199.75 432 L 199.75 448 200.25 448 200.25 432 Z "/>
<path id="p637" fill="rgb(0,0,255)" d="M 128 479.75 L 192 479.75 192 480.25 128 480.25 Z "/>
<path id="p638" fill="rgb(0,0,255)" d="M 159.75 448 L 159.75 512 160.25 512 160.25 448 Z "/>
<path id="p639" fill="rgb(0,0,255)" d="M 128 463.75 L 160 463.75 160 464.25 128 464.25 Z "/>
<path id="p640" fill="rgb(0,0,255)" d="M 143.75 448 L 143.75 480 144.25 480 144.25 448 Z "/>
<path id="p641" fill="rgb(0,0,255)" d="M 128 455.75 L 144 455.75 144 456.25 128 456.25 Z "/>
<path id="p642" fill="rgb(0,0,255)" d="M 135.75 448 L 135.75 464 136.25 464 136.25 448 Z "/>
<path id="p643" fill="rgb(0,0,255)" d="M 144 455.75 L 160 455.75 160 456.25 144 456.25 Z "/>
<path id="p644" fill="rgb(0,0,255)" d="M 151.75 448 L 151.75 464 152.25 464 152.25 448 Z "/>
<path id="p645" fill="rgb(0,0,255)" d="M 128 471.75 L 144 471.75 144 472.25 128 472.25 Z "/>
<path id="p646" fill="rgb(0,0,255)" d="M 135.75 464 L 135.75 480 136.25 480 136.25 464 Z "/>
<path id="p647" fill="rgb(0,0,255)" d="M 144 471.75 L 160 471.75 160 472.25 144 472.25 Z "/>
<path id="p648" fill="rgb(0,0,255)" d="M 151.75 464 L 151.75 480 152.25 480 152.25 464 Z "/>
<path id="p649" fill="rgb(0,0,255)" d="M 160 463.75 L 192 463.75 192 464.25 160 464.25 Z "/>
<path id="p650" fill="rgb(0,0,255)" d="M 175.75 448 L 175.75 480 176.25 480 176.25 448 Z "/>
<path id="p651" fill="rgb(0,0,255)" d="M 176 455.75 L 192 455.75 192 456.25 176 456.25 Z "/>
<path id="p652" fill="rgb(0,0,255)" d="M 183.75 448 L 183.75 464 184.25 464 184.25 448 Z "/>
<path id="p653" fill="rgb(0,0,255)" d="M 160 471.75 L 176 471.75 176 472.25 160 472.25 Z "/>
<path id="p654" fill="rgb(0,0,255)" d="M 167.75 464 L 167.75 480 168.25 480 168.25 464 Z "/>
<path id="p655" fill="rgb(0,0,255)" d="M 176 471.75 L 192 471.75 192 472.25 176 472.25 Z "/>
<path id="p656" fill="rgb(0,0,255)" d="M 183.75 464 L 183.75 480 184.25 480 184.25 464 Z "/>
<path id="p657" fill="rgb(0,0,255)" d="M 128 495.75 L 160 495.75 160 496.25 128 496.25 Z "/>
<path id="p658" fill="rgb(0,0,255)" d="M 143.75 480 L 143.75 512 144.25 512 144.25 480 Z "/>
<path id="p659" fill="rgb(0,0,255)" d="M 144 487.75 L 160 487.75 160 488.25 144 488.25 Z "/>
<path id="p660" fill="rgb(0,0,255)" d="M 151.75 480 L 151.75 496 152.25 496 152.25 480 Z "/>
<path id="p661" fill="rgb(0,0,255)" d="M 160 495.75 L 192 495.75 192 496.25 160 496.25 Z "/>
<path id="p662" fill="rgb(0,0,255)" d="M 175.75 480 L 175.75 512 176.25 512 176.25 480 Z "/>
<path id="p663" fill="rgb(0,0,255)" d="M 160 487.75 L 176 487.75 176 488.25 160 488.25 Z "/>
<path id="p664" fill="rgb(0,0,255)" d="M 167.75 480 L 167.75 496 168.25 496 168.25 480 Z "/>
<path id="p665" fill="rgb(0,0,255)" d="M 176 487.75 L 192 487.75 192 488.25 176 488.25 Z "/>
<path id="p666" fill="rgb(0,0,255)" d="M 183.75 480 L 183.75 496 184.25 496 184.25 480 Z "/>
<path id="p667" fill="rgb(0,0,255)" d="M 192 479.75 L 256 479.75 256 480.25 192 480.25 Z "/>
<path id="p668" fill="rgb(0,0,255)" d="M 223.75 448 L 223.75 512 224.25 512 224.25 448 Z "/>
<path id="p669" fill="rgb(0,0,255)" d="M 192 463.75 L 224 463.75 224 464.25 192 464.25 Z "/>
<path id="p670" fill="rgb(0,0,255)" d="M 207.75 448 L 207.75 480 208.25 480 208.25 448 Z "/>
<path id="p671" fill="rgb(0,0,255)" d="M 208 471.75 L 224 471.75 224 472.25 208 472.25 Z "/>
<path id="p672" fill="rgb(0,0,255)" d="M 215.75 464 L 215.75 480 216.25 480 216.25 464 Z "/>
<path id="p673" fill="rgb(0,0,255)" d="M 224 463.75 L 256 463.75 256 464.25 224 464.25 Z "/>
<path id="p674" fill="rgb(0,0,255)" d="M 239.75 448 L 239.75 480 240.25 480 240.25 448 Z "/>
<path id="p675" fill="rgb(0,0,255)" d="M 224 471.75 L 240 471.75 240 472.25 224 472.25 Z "/>
<path id="p676" fill="rgb(0,0,255)" d="M 231.75 464 L 231.75 480 232.25 480 232.25 464 Z "/>
<path id="p677" fill="rgb(0,0,255)" d="M 240 471.75 L 256 471.75 256 472.25 240 472.25 Z "/>
<path id="p678" fill="rgb(0,0,255)" d="M 247.75 464 L 247.75 480 248.25 480 248.25 464 Z "/>
<path id="p679" fill="rgb(0,0,255)" d="M 192 495.75 L 224 495.75 224 496.25 192 496.25 Z "/>
<path id="p680" fill="rgb(0,0,255)" d="M 207.75 480 L 207.75 512 208.25 512 208.25 480 Z "/>
<path id="p681" fill="rgb(0,0,255)" d="M 192 487.75 L 208 487.75 208 488.25 192 488.25 Z "/>
<path id="p682" fill="rgb(0,0,255)" d="M 199.75 480 L 199.75 496 200.25 496 200.25 480 Z "/>
<path id="p683" fill="rgb(0,0,255)" d="M 208 487.75 L 224 487.75 224 488.25 208 488.25 Z "/>
<path id="p684" fill="rgb(0,0,255)" d="M 215.75 480 L 215.75 496 216.25 496 216.25 480 Z "/>
<path id="p685" fill="rgb(0,0,255)" d="M 256 383.75 L 512 383.75 512 384.25 256 384.25 Z "/>
<path id="p686" fill="rgb(0,0,255)" d="M 383.75 256 L 383.75 512 384.25 512 384.25 256 Z "/>
<path id="p687" fill="rgb(0,0,255)" d="M 256 319.75 L 384 319.75 384 320.25 256 320.25 Z "/>
<path id="p688" fill="rgb(0,0,255)" d="M 319.75 256 L 319.75 384 320.25 384 320.25 256 Z "/>
<path id="p689" fill="rgb(0,0,255)" d="M 256 287.75 L 320 287.75 320 288.25 256 288.25 Z "/>
<path id="p690" fill="rgb(0,0,255)" d="M 287.75 256 L 287.75 320 288.25 320 288.25 256 Z "/>
<path id="p691" fill="rgb(0,0,255)" d="M 256 271.75 L 288 271.75 288 272.25 256 272.25 Z "/>
<path id="p692" fill="rgb(0,0,255)" d="M 271.75 256 L 271.75 288 272.25 288 272.25 256 Z "/>
<path id="p693" fill="rgb(0,0,255)" d="M 256 263.75 L 272 263.75 272 264.25 256 264.25 Z "/>
<path id="p694" fill="rgb(0,0,255)" d="M 263.75 256 L 263.75 272 264.25 272 264.25 256 Z "/>
<path id="p695" fill="rgb(0,0,255)" d="M 256 279.75 L 272 279.75 272 280.25 256 280.25 Z "/>
<path id="p696" fill="rgb(0,0,255)" d="M 263.75 272 L 263.75 288 264.25 288 264.25 272 Z "/>
<path id="p697" fill="rgb(0,0,255)" d="M 272 279.75 L 288 279.75 288 280.25 272 280.25 Z "/>
<path id="p698" fill="rgb(0,0,255)" d="M 279.75 272 L 279.75 288 280.25 288 280.25 272 Z "/>
<path id="p699" fill="rgb(0,0,255)" d="M 288 271.75 L 320 271.75 320 272.25 288 272.25 Z "/>
<path id="p700" fill="rgb(0,0,255)" d="M 303.75 256 L 303.75 288 304.25 288 304.25 256 Z "/>
<path id="p701" fill="rgb(0,0,255)" d="M 288 279.75 L 304 279.75 304 280.25 288 280.25 Z "/>
<path id="p702" fill="rgb(0,0,255)" d="M 295.75 272 L 295.75 288 296.25 288 296.25 272 Z "/>
<path id="p703" fill="rgb(0,0,255)" d="M 288 303.75 L 320 303.75 320 304.25 288 304.25 Z "/>
<path id="p704" fill="rgb(0,0,255)" d="M 303.75 288 L 303.75 320 304.25 320 304.25 288 Z "/>
<path id="p705" fill="rgb(0,0,255)" d="M 288 295.75 L 304 295.75 304 296.25 288 296.25 Z "/>
<path id="p706" fill="rgb(0,0,255)" d="M 295.75 288 L 295.75 304 296.25 304 296.25 288 Z "/>
<path id="p707" fill="rgb(0,0,255)" d="M 304 295.75 L 320 295.75 320 296.25 304 296.25 Z "/>
<path id="p708" fill="rgb(0,0,255)" d="M 311.75 288 L 311.75 304 312.25 304 312.25 288 Z "/>
<path id="p709" fill="rgb(0,0,255)" d="M 304 311.75 L 320 311.75 320 312.25 304 312.25 Z "/>
<path id="p710" fill="rgb(0,0,255)" d="M 311.75 304 L 311.75 320 312.25 320 312.25 304 Z "/>
<path id="p711" fill="rgb(0,0,255)" d="M 320 287.75 L 384 287.75 384 288.25 320 288.25 Z "/>
<path id="p712" fill="rgb(0,0,255)" d="M 351.75 256 L 351.75 320 352.25 320 352.25 256 Z "/>
<path id="p713" fill="rgb(0,0,255)" d="M 320 303.75 L 352 303.75 352 304.25 320 304.25 Z "/>
<path id="p714" fill="rgb(0,0,255)" d="M 335.75 288 L 335.75 320 336.25 320 336.25 288 Z "/>
<path id="p715" fill="rgb(0,0,255)" d="M 320 311.75 L 336 311.75 336 312.25 320 312.25 Z "/>
<path id="p716" fill="rgb(0,0,255)" d="M 327.75 304 L 327.75 320 328.25 320 328.25 304 Z "/>
<path id="p717" fill="rgb(0,0,255)" d="M 336 311.75 L 352 311.75 352 312.25 336 312.25 Z "/>
<path id="p718" fill="rgb(0,0,255)" d="M 343.75 304 L 343.75 320 344.25 320 344.25 304 Z "/>
<path id="p719" fill="rgb(0,0,255)" d="M 320 351.75 L 384 351.75 384 352.25 320 352.25 Z "/>
<path id="p720" fill="rgb(0,0,255)" d="M 351.75 320 L 351.75 384 352.25 384 352.25 320 Z "/>
<path id="p721" fill="rgb(0,0,255)" d="M 320 335.75 L 352 335.75 352 336.25 320 336.25 Z "/>
<path id="p722" fill="rgb(0,0,255)" d="M 335.75 320 L 335.75 352 336.25 352 336.25 320 Z "/>
<path id="p723" fill="rgb(0,0,255)" d="M 336 327.75 L 352 327.75 352 328.25 336 328.25 Z "/>
<path id="p724" fill="rgb(0,0,255)" d="M 343.75 320 L 343.75 336 344.25 336 344.25 320 Z "/>
<path id="p725" fill="rgb(0,0,255)" d="M 352 335.75 L 384 335.75 384 336.25 352 336.25 Z "/>
<path id="p726" fill="rgb(0,0,255)" d="M 367.75 320 L 367.75 352 368.25 352 368.25 320 Z "/>
<path id="p727" fill="rgb(0,0,255)" d="M 352 327.75 L 368 327.75 368 328.25 352 328.25 Z "/>
<path id="p728" fill="rgb(0,0,255)" d="M 359.75 320 L 359.75 336 360.25 336 360.25 320 Z "/>
<path id="p729" fill="rgb(0,0,255)" d="M 352 343.75 L 368 343.75 368 344.25 352 344.25 Z "/>
<path id="p730" fill="rgb(0,0,255)" d="M 359.75 336 L 359.75 352 360.25 352 360.25 336 Z "/>
<path id="p731" fill="rgb(0,0,255)" d="M 368 343.75 L 384 343.75 384 344.25 368 344.25 Z "/>
<path id="p732" fill="rgb(0,0,255)" d="M 375.75 336 L 375.75 352 376.25 352 376.25 336 Z "/>
<path id="p733" fill="rgb(0,0,255)" d="M 352 367.75 L 384 367.75 384 368.25 352 368.25 Z "/>
<path id="p734" fill="rgb(0,0,255)" d="M 367.75 352 L 367.75 384 368.25 384 368.25 352 Z "/>
<path id="p735" fill="rgb(0,0,255)" d="M 368 359.75 L 384 359.75 384 360.25 368 360.25 Z "/>
<path id="p736" fill="rgb(0,0,255)" d="M 375.75 352 L 375.75 368 376.25 368 376.25 352 Z "/>
<path id="p737" fill="rgb(0,0,255)" d="M 384 319.75 L 512 319.75 512 320.25 384 320.25 Z "/>
<path id="p738" fill="rgb(0,0,255)" d="M 447.75 256 L 447.75 384 448.25 384 448.25 256 Z "/>
<path id="p739" fill="rgb(0,0,255)" d="M 448 287.75 L 512 287.75 512 288.25 448 288.25 Z "/>
<path id="p740" fill="rgb(0,0,255)" d="M 479.75 256 L 479.75 320 480.25 320 480.25 256 Z "/>
<path id="p741" fill="rgb(0,0,255)" d="M 480 271.75 L 512 271.75 512 272.25 480 272.25 Z "/>
<path id="p742" fill="rgb(0,0,255)" d="M 495.75 256 L 495.75 288 496.25 288 496.25 256 Z "/>
<path id="p743" fill="rgb(0,0,255)" d="M 496 263.75 L 512 263.75 512 264.25 496 264.25 Z "/>
<path id="p744" fill="rgb(0,0,255)" d="M 503.75 256 L 503.75 272 504.25 272 504.25 256 Z "/>
<path id="p745" fill="rgb(0,0,255)" d="M 496 279.75 L 512 279.75 512 280.25 496 280.25 Z "/>
<path id="p746" fill="rgb(0,0,255)" d="M 503.75 272 L 503.75 288 504.25 288 504.25 272 Z "/>
<path id="p747" fill="rgb(0,0,255)" d="M 480 303.75 L 512 303.75 512 304.25 480 304.25 Z "/>
<path id="p748" fill="rgb(0,0,255)" d="M 495.75 288 L 495.75 320 496.25 320 496.25 288 Z "/>
<path id="p749" fill="rgb(0,0,255)" d="M 480 295.75 L 496 295.75 496 296.25 480 296.25 Z "/>
<path id="p750" fill="rgb(0,0,255)" d="M 487.75 288 L 487.75 304 488.25 304 488.25 288 Z "/>
<path id="p751" fill="rgb(0,0,255)" d="M 496 295.75 L 512 295.75 512 296.25 496 296.25 Z "/>
<path id="p752" fill="rgb(0,0,255)" d="M 503.75 288 L 503.75 304 504.25 304 504.25 288 Z "/>
<path id="p753" fill="rgb(0,0,255)" d="M 480 311.75 L 496 311.75 496 312.25 480 312.25 Z "/>
<path id="p754" fill="rgb(0,0,255)" d="M 487.75 304 L 487.75 320 488.25 320 488.25 304 Z "/>
<path id="p755" fill="rgb(0,0,255)" d="M 384 351.75 L 448 351.75 448 352.25 384 352.25 Z "/>
<path id="p756" fill="rgb(0,0,255)" d="M 415.75 320 L 415.75 384 416.25 384 416.25 320 Z "/>
<path id="p757" fill="rgb(0,0,255)" d="M 384 367.75 L 416 367.75 416 368.25 384 368.25 Z "/>
<path id="p758" fill="rgb(0,0,255)" d="M 399.75 352 L 399.75 384 400.25 384 400.25 352 Z "/>
<path id="p759" fill="rgb(0,0,255)" d="M 384 359.75 L 400 359.75 400 360.25 384 360.25 Z "/>
<path id="p760" fill="rgb(0,0,255)" d="M 391.75 352 L 391.75 368 392.25 368 392.25 352 Z "/>
<path id="p761" fill="rgb(0,0,255)" d="M 400 359.75 L 416 359.75 416 360.25 400 360.25 Z "/>
<path id="p762" fill="rgb(0,0,255)" d="M 407.75 352 L 407.75 368 408.25 368 408.25 352 Z "/>
<path id="p763" fill="rgb(0,0,255)" d="M 400 375.75 L 416 375.75 416 376.25 400 376.25 Z "/>
<path id="p764" fill="rgb(0,0,255)" d="M 407.75 368 L 407.75 384 408.25 384 408.25 368 Z "/>
<path id="p765" fill="rgb(0,0,255)" d="M 416 367.75 L 448 367.75 448 368.25 416 368.25 Z "/>
<path id="p766" fill="rgb(0,0,255)" d="M 431.75 352 L 431.75 384 432.25 384 432.25 352 Z "/>
<path id="p767" fill="rgb(0,0,255)" d="M 416 375.75 L 432 375.75 432 376.25 416 376.25 Z "/>
<path id="p768" fill="rgb(0,0,255)" d="M 423.75 368 L 423.75 384 424.25 384 424.25 368 Z "/>
<path id="p769" fill="rgb(0,0,255)" d="M 448 351.75 L 512 351.75 512 352.25 448 352.25 Z "/>
<path id="p770" fill="rgb(0,0,255)" d="M 479.75 320 L 479.75 384 480.25 384 480.25 320 Z "/>
<path id="p771" fill="rgb(0,0,255)" d="M 448 335.75 L 480 335.75 480 336.25 448 336.25 Z "/>
<path id="p772" fill="rgb(0,0,255)" d="M 463.75 320 L 463.75 352 464.25 352 464.25 320 Z "/>
<path id="p773" fill="rgb(0,0,255)" d="M 464 343.75 L 480 343.75 480 344.25 464 344.25 Z "/>
<path id="p774" fill="rgb(0,0,255)" d="M 471.75 336 L 471.75 352 472.25 352 472.25 336 Z "/>
<path id="p775" fill="rgb(0,0,255)" d="M 480 335.75 L 512 335.75 512 336.25 480 336.25 Z "/>
<path id="p776" fill="rgb(0,0,255)" d="M 495.75 320 L 495.75 352 496.25 352 496.25 320 Z "/>
<path id="p777" fill="rgb(0,0,255)" d="M 480 327.75 L 496 327.75 496 328.25 480 328.25 Z "/>
<path id="p778" fill="rgb(0,0,255)" d="M 487.75 320 L 487.75 336 488.25 336 488.25 320 Z "/>
<path id="p779" fill="rgb(0,0,255)" d="M 480 343.75 L 496 343.75 496 344.25 480 344.25 Z "/>
<path id="p780" fill="rgb(0,0,255)" d="M 487.75 336 L 487.75 352 488.25 352 488.25 336 Z "/>
<path id="p781" fill="rgb(0,0,255)" d="M 448 367.75 L 480 367.75 480 368.25 448 368.25 Z "/>
<path id="p782" fill="rgb(0,0,255)" d="M 463.75 352 L 463.75 384 464.25 384 464.25 352 Z "/>
<path id="p783" fill="rgb(0,0,255)" d="M 464 359.75 L 480 359.75 480 360.25 464 360.25 Z "/>
<path id="p784" fill="rgb(0,0,255)" d="M 471.75 352 L 471.75 368 472.25 368 472.25 352 Z "/>
<path id="p785" fill="rgb(0,0,255)" d="M 448 375.75 L 464 375.75 464 376.25 448 376.25 Z "/>
<path id="p786" fill="rgb(0,0,255)" d="M 455.75 368 L 455.75 384 456.25 384 456.25 368 Z "/>
<path id="p787" fill="rgb(0,0,255)" d="M 464 375.75 L 480 375.75 480 376.25 464 376.25 Z "/>
<path id="p788" fill="rgb(0,0,255)" d="M 471.75 368 L 471.75 384 472.25 384 472.25 368 Z "/>
<path id="p789" fill="rgb(0,0,255)" d="M 256 447.75 L 384 447.75 384 448.25 256 448.25 Z "/>
<path id="p790" fill="rgb(0,0,255)" d="M 319.75 384 L 319.75 512 320.25 512 320.25 384 Z "/>
<path id="p791" fill="rgb(0,0,255)" d="M 320 415.75 L 384 415.75 384 416.25 320 416.25 Z "/>
<path id="p792" fill="rgb(0,0,255)" d="M 351.75 384 L 351.75 448 352.25 448 352.25 384 Z "/>
<path id="p793" fill="rgb(0,0,255)" d="M 320 431.75 L 352 431.75 352 432.25 320 432.25 Z "/>
<path id="p794" fill="rgb(0,0,255)" d="M 335.75 416 L 335.75 448 336.25 448 336.25 416 Z "/>
<path id="p795" fill="rgb(0,0,255)" d="M 320 439.75 L 336 439.75 336 440.25 320 440.25 Z "/>
<path id="p796" fill="rgb(0,0,255)" d="M 327.75 432 L 327.75 448 328.25 448 328.25 432 Z "/>
<path id="p797" fill="rgb(0,0,255)" d="M 336 439.75 L 352 439.75 352 440.25 336 440.25 Z "/>
<path id="p798" fill="rgb(0,0,255)" d="M 343.75 432 L 343.75 448 344.25 448 344.25 432 Z "/>
<path id="p799" fill="rgb(0,0,255)" d="M 352 431.75 L 384 431.75 384 432.25 352 432.25 Z "/>
<path id="p800" fill="rgb(0,0,255)" d="M 367.75 416 L 367.75 448 368.25 448 368.25 416 Z "/>
<path id="p801" fill="rgb(0,0,255)" d="M 368 423.75 L 384 423.75 384 424.25 368 424.25 Z "/>
<path id="p802" fill="rgb(0,0,255)" d="M 375.75 416 L 375.75 432 376.25 432 376.25 416 Z "/>
<path id="p803" fill="rgb(0,0,255)" d="M 352 439.75 L 368 439.75 368 440.25 352 440.25 Z "/>
<path id="p804" fill="rgb(0,0,255)" d="M 359.75 432 L 359.75 448 360.25 448 360.25 432 Z "/>
<path id="p805" fill="rgb(0,0,255)" d="M 368 439.75 L 384 439.75 384 440.25 368 440.25 Z "/>
<path id="p806" fill="rgb(0,0,255)" d="M 375.75 432 L 375.75 448 376.25 448 376.25 432 Z "/>
<path id="p807" fill="rgb(0,0,255)" d="M 256 479.75 L 320 479.75 320 480.25 256 480.25 Z "/>
<path id="p808" fill="rgb(0,0,255)" d="M 287.75 448 L 287.75 512 288.25 512 288.25 448 Z "/>
<path id="p809" fill="rgb(0,0,255)" d="M 256 463.75 L 288 463.75 288 464.25 256 464.25 Z "/>
<path id="p810" fill="rgb(0,0,255)" d="M 271.75 448 L 271.75 480 272.25 480 272.25 448 Z "/>
<path id="p811" fill="rgb(0,0,255)" d="M 272 455.75 L 288 455.75 288 456.25 272 456.25 Z "/>
<path id="p812" fill="rgb(0,0,255)" d="M 279.75 448 L 279.75 464 280.25 464 280.25 448 Z "/>
<path id="p813" fill="rgb(0,0,255)" d="M 256 471.75 L 272 471.75 272 472.25 256 472.25 Z "/>
<path id="p814" fill="rgb(0,0,255)" d="M 263.75 464 L 263.75 480 264.25 480 264.25 464 Z "/>
<path id="p815" fill="rgb(0,0,255)" d="M 272 471.75 L 288 471.75 288 472.25 272 472.25 Z "/>
<path id="p816" fill="rgb(0,0,255)" d="M 279.75 464 L 279.75 480 280.25 480 280.25 464 Z "/>
<path id="p817" fill="rgb(0,0,255)" d="M 288 463.75 L 320 463.75 320 464.25 288 464.25 Z "/>
<path id="p818" fill="rgb(0,0,255)" d="M 303.75 448 L 303.75 480 304.25 480 304.25 448 Z "/>
<path id="p819" fill="rgb(0,0,255)" d="M 288 455.75 L 304 455.75 304 456.25 288 456.25 Z "/>
<path id="p820" fill="rgb(0,0,255)" d="M 295.75 448 L 295.75 464 296.25 464 296.25 448 Z "/>
<path id="p821" fill="rgb(0,0,255)" d="M 304 455.75 L 320 455.75 320 456.25 304 456.25 Z "/>
<path id="p822" fill="rgb(0,0,255)" d="M 311.75 448 L 311.75 464 312.25 464 312.25 448 Z "/>
<path id="p823" fill="rgb(0,0,255)" d="M 320 479.75 L 384 479.75 384 480.25 320 480.25 Z "/>
<path id="p824" fill="rgb(0,0,255)" d="M 351.75 448 L 351.75 512 352.25 512 352.25 448 Z "/>
<path id="p825" fill="rgb(0,0,255)" d="M 320 463.75 L 352 463.75 352 464.25 320 464.25 Z "/>
<path id="p826" fill="rgb(0,0,255)" d="M 335.75 448 L 335.75 480 336.25 480 336.25 448 Z "/>
<path id="p827" fill="rgb(0,0,255)" d="M 320 455.75 L 336 455.75 336 456.25 320 456.25 Z "/>
<path id="p828" fill="rgb(0,0,255)" d="M 327.75 448 L 327.75 464 328.25 464 328.25 448 Z "/>
<path id="p829" fill="rgb(0,0,255)" d="M 352 463.75 L 384 463.75 384 464.25 352 464.25 Z "/>
<path id="p830" fill="rgb(0,0,255)" d="M 367.75 448 L 367.75 480 368.25 480 368.25 448 Z "/>
<path id="p831" fill="rgb(0,0,255)" d="M 368 455.75 L 384 455.75 384 456.25 368 456.25 Z "/>
<path id="p832" fill="rgb(0,0,255)" d="M 375.75 448 L 375.75 464 376.25 464 376.25 448 Z "/>
<path id="p833" fill="rgb(0,0,255)" d="M 352 471.75 L 368 471.75 368 472.25 352 472.25 Z "/>
<path id="p834" fill="rgb(0,0,255)" d="M 359.75 464 L 359.75 480 360.25 480 360.25 464 Z "/>
<path id="p835" fill="rgb(0,0,255)" d="M 368 471.75 L 384 471.75 384 472.25 368 472.25 Z "/>
<path id="p836" fill="rgb(0,0,255)" d="M 375.75 464 L 375.75 480 376.25 480 376.25 464 Z "/>
<path id="p837" fill="rgb(0,0,255)" d="M 320 495.75 L 352 495.75 352 496.25 320 496.25 Z "/>
<path id="p838" fill="rgb(0,0,255)" d="M 335.75 480 L 335.75 512 336.25 512 336.25 480 Z "/>
<path id="p839" fill="rgb(0,0,255)" d="M 336 487.75 L 352 487.75 352 488.25 336 488.25 Z "/>
<path id="p840" fill="rgb(0,0,255)" d="M 343.75 480 L 343.75 496 344.25 496 344.25 480 Z "/>
<path id="p841" fill="rgb(0,0,255)" d="M 352 495.75 L 384 495.75 384 496.25 352 496.25 Z "/>
<path id="p842" fill="rgb(0,0,255)" d="M 367.75 480 L 367.75 512 368.25 512 368.25 480 Z "/>
<path id="p843" fill="rgb(0,0,255)" d="M 352 487.75 L 368 487.75 368 488.25 352 488.25 Z "/>
<path id="p844" fill="rgb(0,0,255)" d="M 359.75 480 L 359.75 496 360.25 496 360.25 480 Z "/>
<path id="p845" fill="rgb(0,0,255)" d="M 384 447.75 L 512 447.75 512 448.25 384 448.25 Z "/>
<path id="p846" fill="rgb(0,0,255)" d="M 447.75 384 L 447.75 512 448.25 512 448.25 384 Z "/>
<path id="p847" fill="rgb(0,0,255)" d="M 384 415.75 L 448 415.75 448 416.25 384 416.25 Z "/>
<path id="p848" fill="rgb(0,0,255)" d="M 415.75 384 L 415.75 448 416.25 448 416.25 384 Z "/>
<path id="p849" fill="rgb(0,0,255)" d="M 416 399.75 L 448 399.75 448 400.25 416 400.25 Z "/>
<path id="p850" fill="rgb(0,0,255)" d="M 431.75 384 L 431.75 416 432.25 416 432.25 384 Z "/>
<path id="p851" fill="rgb(0,0,255)" d="M 416 391.75 L 432 391.75 432 392.25 416 392.25 Z "/>
<path id="p852" fill="rgb(0,0,255)" d="M 423.75 384 L 423.75 400 424.25 400 424.25 384 Z "/>
<path id="p853" fill="rgb(0,0,255)" d="M 432 391.75 L 448 391.75 448 392.25 432 392.25 Z "/>
<path id="p854" fill="rgb(0,0,255)" d="M 439.75 384 L 439.75 400 440.25 400 440.25 384 Z "/>
<path id="p855" fill="rgb(0,0,255)" d="M 416 407.75 L 432 407.75 432 408.25 416 408.25 Z "/>
<path id="p856" fill="rgb(0,0,255)" d="M 423.75 400 L 423.75 416 424.25 416 424.25 400 Z "/>
<path id="p857" fill="rgb(0,0,255)" d="M 432 407.75 L 448 407.75 448 408.25 432 408.25 Z "/>
<path id="p858" fill="rgb(0,0,255)" d="M 439.75 400 L 439.75 416 440.25 416 440.25 400 Z "/>
<path id="p859" fill="rgb(0,0,255)" d="M 384 431.75 L 416 431.75 416 432.25 384 432.25 Z "/>
<path id="p860" fill="rgb(0,0,255)" d="M 399.75 416 L 399.75 448 400.25 448 400.25 416 Z "/>
<path id="p861" fill="rgb(0,0,255)" d="M 384 423.75 L 400 423.75 400 424.25 384 424.25 Z "/>
<path id="p862" fill="rgb(0,0,255)" d="M 391.75 416 L 391.75 432 392.25 432 392.25 416 Z "/>
<path id="p863" fill="rgb(0,0,255)" d="M 400 423.75 L 416 423.75 416 424.25 400 424.25 Z "/>
<path id="p864" fill="rgb(0,0,255)" d="M 407.75 416 L 407.75 432 408.25 432 408.25 416 Z "/>
<path id="p865" fill="rgb(0,0,255)" d="M 400 439.75 L 416 439.75 416 440.25 400 440.25 Z "/>
<path id="p866" fill="rgb(0,0,255)" d="M 407.75 432 L 407.75 448 408.25 448 408.25 432 Z "/>
<path id="p867" fill="rgb(0,0,255)" d="M 416 431.75 L 448 431.75 448 432.25 416 432.25 Z "/>
<path id="p868" fill="rgb(0,0,255)" d="M 431.75 416 L 431.75 448 432.25 448 432.25 416 Z "/>
<path id="p869" fill="rgb(0,0,255)" d="M 416 423.75 L 432 423.75 432 424.25 416 424.25 Z "/>
<path id="p870" fill="rgb(0,0,255)" d="M 423.75 416 L 423.75 432 424.25 432 424.25 416 Z "/>
<path id="p871" fill="rgb(0,0,255)" d="M 432 423.75 L 448 423.75 448 424.25 432 424.25 Z "/>
<path id="p872" fill="rgb(0,0,255)" d="M 439.75 416 L 439.75 432 440.25 432 440.25 416 Z "/>
<path id="p873" fill="rgb(0,0,255)" d="M 416 439.75 L 432 439.75 432 440.25 416 440.25 Z "/>
<path id="p874" fill="rgb(0,0,255)" d="M 423.75 432 L 423.75 448 424.25 448 424.25 432 Z "/>
<path id="p875" fill="rgb(0,0,255)" d="M 448 415.75 L 512 415.75 512 416.25 448 416.25 Z "/>
<path id="p876" fill="rgb(0,0,255)" d="M 479.75 384 L 479.75 448 480.25 448 480.25 384 Z "/>
<path id="p877" fill="rgb(0,0,255)" d="M 448 399.75 L 480 399.75 480 400.25 448 400.25 Z "/>
<path id="p878" fill="rgb(0,0,255)" d="M 463.75 384 L 463.75 416 464.25 416 464.25 384 Z "/>
<path id="p879" fill="rgb(0,0,255)" d="M 448 391.75 L 464 391.75 464 392.25 448 392.25 Z "/>
<path id="p880" fill="rgb(0,0,255)" d="M 455.75 384 L 455.75 400 456.25 400 456.25 384 Z "/>
<path id="p881" fill="rgb(0,0,255)" d="M 448 407.75 L 464 407.75 464 408.25 448 408.25 Z "/>
<path id="p882" fill="rgb(0,0,255)" d="M 455.75 400 L 455.75 416 456.25 416 456.25 400 Z "/>
<path id="p883" fill="rgb(0,0,255)" d="M 384 479.75 L 448 479.75 448 480.25 384 480.25 Z "/>
<path id="p884" fill="rgb(0,0,255)" d="M 415.75 448 L 415.75 512 416.25 512 416.25 448 Z "/>
<path id="p885" fill="rgb(0,0,255)" d="M 384 463.75 L 416 463.75 416 464.25 384 464.25 Z "/>
<path id="p886" fill="rgb(0,0,255)" d="M 399.75 448 L 399.75 480 400.25 480 400.25 448 Z "/>
<path id="p887" fill="rgb(0,0,255)" d="M 384 455.75 L 400 455.75 400 456.25 384 456.25 Z "/>
<path id="p888" fill="rgb(0,0,255)" d="M 391.75 448 L 391.75 464 392.25 464 392.25 448 Z "/>
<path id="p889" fill="rgb(0,0,255)" d="M 400 455.75 L 416 455.75 416 456.25 400 456.25 Z "/>
<path id="p890" fill="rgb(0,0,255)" d="M 407.75 448 L 407.75 464 408.25 464 408.25 448 Z "/>
</g>
</svg>
