<?xml version="1.0" standalone="no"?>
<svg
    xmlns:xlink="http://www.w3.org/1999/xlink"
    xmlns:dc="http://purl.org/dc/elements/1.1/"
    xmlns:cc="http://creativecommons.org/ns#"
    xmlns:rdf="http://www.w3.org/1999/02/22-rdf-syntax-ns#"
    xmlns:svg="http://www.w3.org/2000/svg"
    xmlns="http://www.w3.org/2000/svg"
    version="1.1"
    viewBox="0 0 512 512">
<defs>
</defs>
<g transform="translate(0, 512) scale(1, -1)">
<path id="p1" fill="rgb(204,250,167)" d="M 2 258 L 174 18 60 108 2 258 Z "/>
<path id="p2" fill="rgb(201,97,50)" d="M 174 496 L 2 258 60 404 174 496 Z "/>
<path id="p3" fill="rgb(85,51,51)" d="M 456 404 L 174 496 340 496 456 404 Z "/>
<path id="p4" fill="rgb(56,56,95)" d="M 456 110 L 456 404 510 258 456 110 Z "/>
<path id="p5" fill="rgb(143,54,79)" d="M 456 404 L 248 258 174 496 456 404 Z "/>
<path id="p6" fill="rgb(85,77,174)" d="M 248 258 L 456 404 456 110 248 258 Z "/>
<path id="p7" fill="rgb(251,165,109)" d="M 248 258 L 2 258 174 496 248 258 Z "/>
<path id="p8" fill="rgb(254,254,225)" d="M 174 18 L 2 258 248 258 174 18 Z "/>
<path id="p9" fill="rgb(152,208,255)" d="M 174 18 L 248 258 456 110 174 18 Z "/>
<path id="p10" fill="rgb(50,159,231)" d="M 336 18 L 174 18 456 110 336 18 Z "/>
<path id="p11" fill="rgb(0,0,255)" d="M 0 -0.25 L 512 -0.25 512 0.25 0 0.25 Z "/>
<path id="p12" fill="rgb(0,0,255)" d="M 0 511.75 L 512 511.75 512 512.25 0 512.25 Z "/>
<path id="p13" fill="rgb(0,0,255)" d="M -0.25 0 L -0.25 512 0.25 512 0.25 0 Z "/>
<path id="p14" fill="rgb(0,0,255)" d="M 511.75 0 L 511.75 512 512.25 512 512.25 0 Z "/>
<path id="p15" fill="rgb(0,0,255)" d="M 0 255.75 L 512 255.75 512 256.25 0 256.25 Z "/>
<path id="p16" fill="rgb(0,0,255)" d="M 255.75 0 L 255.75 512 256.25 512 256.25 0 Z "/>
<path id="p17" fill="rgb(0,0,255)" d="M 0 127.75 L 256 127.75 256 128.25 0 128.25 Z "/>
<path id="p18" fill="rgb(0,0,255)" d="M 127.75 0 L 127.75 256 128.25 256 128.25 0 Z "/>
<path id="p19" fill="rgb(0,0,255)" d="M 0 63.75 L 128 63.75 128 64.25 0 64.25 Z "/>
<path id="p20" fill="rgb(0,0,255)" d="M 63.75 0 L 63.75 128 64.25 128 64.25 0 Z "/>
<path id="p21" fill="rgb(0,0,255)" d="M 64 31.75 L 128 31.75 128 32.25 64 32.25 Z "/>
<path id="p22" fill="rgb(0,0,255)" d="M 95.75 0 L 95.75 64 96.25 64 96.25 0 Z "/>
<path id="p23" fill="rgb(0,0,255)" d="M 96 47.75 L 128 47.75 128 48.25 96 48.25 Z "/>
<path id="p24" fill="rgb(0,0,255)" d="M 111.75 32 L 111.75 64 112.25 64 112.25 32 Z "/>
<path id="p25" fill="rgb(0,0,255)" d="M 0 95.75 L 64 95.75 64 96.25 0 96.25 Z "/>
<path id="p26" fill="rgb(0,0,255)" d="M 31.75 64 L 31.75 128 32.25 128 32.25 64 Z "/>
<path id="p27" fill="rgb(0,0,255)" d="M 32 111.75 L 64 111.75 64 112.25 32 112.25 Z "/>
<path id="p28" fill="rgb(0,0,255)" d="M 47.75 96 L 47.75 128 48.25 128 48.25 96 Z "/>
<path id="p29" fill="rgb(0,0,255)" d="M 64 95.75 L 128 95.75 128 96.25 64 96.25 Z "/>
<path id="p30" fill="rgb(0,0,255)" d="M 95.75 64 L 95.75 128 96.25 128 96.25 64 Z "/>
<path id="p31" fill="rgb(0,0,255)" d="M 64 79.75 L 96 79.75 96 80.25 64 80.25 Z "/>
<path id="p32" fill="rgb(0,0,255)" d="M 79.75 64 L 79.75 96 80.25 96 80.25 64 Z "/>
<path id="p33" fill="rgb(0,0,255)" d="M 96 79.75 L 128 79.75 128 80.25 96 80.25 Z "/>
<path id="p34" fill="rgb(0,0,255)" d="M 111.75 64 L 111.75 96 112.25 96 112.25 64 Z "/>
<path id="p35" fill="rgb(0,0,255)" d="M 64 111.75 L 96 111.75 96 112.25 64 112.25 Z "/>
<path id="p36" fill="rgb(0,0,255)" d="M 79.75 96 L 79.75 128 80.25 128 80.25 96 Z "/>
<path id="p37" fill="rgb(0,0,255)" d="M 96 111.75 L 128 111.75 128 112.25 96 112.25 Z "/>
<path id="p38" fill="rgb(0,0,255)" d="M 111.75 96 L 111.75 128 112.25 128 112.25 96 Z "/>
<path id="p39" fill="rgb(0,0,255)" d="M 128 63.75 L 256 63.75 256 64.25 128 64.25 Z "/>
<path id="p40" fill="rgb(0,0,255)" d="M 191.75 0 L 191.75 128 192.25 128 192.25 0 Z "/>
<path id="p41" fill="rgb(0,0,255)" d="M 128 31.75 L 192 31.75 192 32.25 128 32.25 Z "/>
<path id="p42" fill="rgb(0,0,255)" d="M 159.75 0 L 159.75 64 160.25 64 160.25 0 Z "/>
<path id="p43" fill="rgb(0,0,255)" d="M 128 15.75 L 160 15.75 160 16.25 128 16.25 Z "/>
<path id="p44" fill="rgb(0,0,255)" d="M 143.75 0 L 143.75 32 144.25 32 144.25 0 Z "/>
<path id="p45" fill="rgb(0,0,255)" d="M 160 15.75 L 192 15.75 192 16.25 160 16.25 Z "/>
<path id="p46" fill="rgb(0,0,255)" d="M 175.75 0 L 175.75 32 176.25 32 176.25 0 Z "/>
<path id="p47" fill="rgb(0,0,255)" d="M 128 47.75 L 160 47.75 160 48.25 128 48.25 Z "/>
<path id="p48" fill="rgb(0,0,255)" d="M 143.75 32 L 143.75 64 144.25 64 144.25 32 Z "/>
<path id="p49" fill="rgb(0,0,255)" d="M 160 47.75 L 192 47.75 192 48.25 160 48.25 Z "/>
<path id="p50" fill="rgb(0,0,255)" d="M 175.75 32 L 175.75 64 176.25 64 176.25 32 Z "/>
<path id="p51" fill="rgb(0,0,255)" d="M 192 31.75 L 256 31.75 256 32.25 192 32.25 Z "/>
<path id="p52" fill="rgb(0,0,255)" d="M 223.75 0 L 223.75 64 224.25 64 224.25 0 Z "/>
<path id="p53" fill="rgb(0,0,255)" d="M 192 15.75 L 224 15.75 224 16.25 192 16.25 Z "/>
<path id="p54" fill="rgb(0,0,255)" d="M 207.75 0 L 207.75 32 208.25 32 208.25 0 Z "/>
<path id="p55" fill="rgb(0,0,255)" d="M 192 47.75 L 224 47.75 224 48.25 192 48.25 Z "/>
<path id="p56" fill="rgb(0,0,255)" d="M 207.75 32 L 207.75 64 208.25 64 208.25 32 Z "/>
<path id="p57" fill="rgb(0,0,255)" d="M 224 47.75 L 256 47.75 256 48.25 224 48.25 Z "/>
<path id="p58" fill="rgb(0,0,255)" d="M 239.75 32 L 239.75 64 240.25 64 240.25 32 Z "/>
<path id="p59" fill="rgb(0,0,255)" d="M 128 95.75 L 192 95.75 192 96.25 128 96.25 Z "/>
<path id="p60" fill="rgb(0,0,255)" d="M 159.75 64 L 159.75 128 160.25 128 160.25 64 Z "/>
<path id="p61" fill="rgb(0,0,255)" d="M 128 79.75 L 160 79.75 160 80.25 128 80.25 Z "/>
<path id="p62" fill="rgb(0,0,255)" d="M 143.75 64 L 143.75 96 144.25 96 144.25 64 Z "/>
<path id="p63" fill="rgb(0,0,255)" d="M 160 79.75 L 192 79.75 192 80.25 160 80.25 Z "/>
<path id="p64" fill="rgb(0,0,255)" d="M 175.75 64 L 175.75 96 176.25 96 176.25 64 Z "/>
<path id="p65" fill="rgb(0,0,255)" d="M 192 95.75 L 256 95.75 256 96.25 192 96.25 Z "/>
<path id="p66" fill="rgb(0,0,255)" d="M 223.75 64 L 223.75 128 224.25 128 224.25 64 Z "/>
<path id="p67" fill="rgb(0,0,255)" d="M 192 79.75 L 224 79.75 224 80.25 192 80.25 Z "/>
<path id="p68" fill="rgb(0,0,255)" d="M 207.75 64 L 207.75 96 208.25 96 208.25 64 Z "/>
<path id="p69" fill="rgb(0,0,255)" d="M 192 111.75 L 224 111.75 224 112.25 192 112.25 Z "/>
<path id="p70" fill="rgb(0,0,255)" d="M 207.75 96 L 207.75 128 208.25 128 208.25 96 Z "/>
<path id="p71" fill="rgb(0,0,255)" d="M 0 191.75 L 128 191.75 128 192.25 0 192.25 Z "/>
<path id="p72" fill="rgb(0,0,255)" d="M 63.75 128 L 63.75 256 64.25 256 64.25 128 Z "/>
<path id="p73" fill="rgb(0,0,255)" d="M 0 159.75 L 64 159.75 64 160.25 0 160.25 Z "/>
<path id="p74" fill="rgb(0,0,255)" d="M 31.75 128 L 31.75 192 32.25 192 32.25 128 Z "/>
<path id="p75" fill="rgb(0,0,255)" d="M 32 143.75 L 64 143.75 64 144.25 32 144.25 Z "/>
<path id="p76" fill="rgb(0,0,255)" d="M 47.75 128 L 47.75 160 48.25 160 48.25 128 Z "/>
<path id="p77" fill="rgb(0,0,255)" d="M 0 175.75 L 32 175.75 32 176.25 0 176.25 Z "/>
<path id="p78" fill="rgb(0,0,255)" d="M 15.75 160 L 15.75 192 16.25 192 16.25 160 Z "/>
<path id="p79" fill="rgb(0,0,255)" d="M 32 175.75 L 64 175.75 64 176.25 32 176.25 Z "/>
<path id="p80" fill="rgb(0,0,255)" d="M 47.75 160 L 47.75 192 48.25 192 48.25 160 Z "/>
<path id="p81" fill="rgb(0,0,255)" d="M 64 159.75 L 128 159.75 128 160.25 64 160.25 Z "/>
<path id="p82" fill="rgb(0,0,255)" d="M 95.75 128 L 95.75 192 96.25 192 96.25 128 Z "/>
<path id="p83" fill="rgb(0,0,255)" d="M 64 143.75 L 96 143.75 96 144.25 64 144.25 Z "/>
<path id="p84" fill="rgb(0,0,255)" d="M 79.75 128 L 79.75 160 80.25 160 80.25 128 Z "/>
<path id="p85" fill="rgb(0,0,255)" d="M 64 175.75 L 96 175.75 96 176.25 64 176.25 Z "/>
<path id="p86" fill="rgb(0,0,255)" d="M 79.75 160 L 79.75 192 80.25 192 80.25 160 Z "/>
<path id="p87" fill="rgb(0,0,255)" d="M 0 223.75 L 64 223.75 64 224.25 0 224.25 Z "/>
<path id="p88" fill="rgb(0,0,255)" d="M 31.75 192 L 31.75 256 32.25 256 32.25 192 Z "/>
<path id="p89" fill="rgb(0,0,255)" d="M 0 207.75 L 32 207.75 32 208.25 0 208.25 Z "/>
<path id="p90" fill="rgb(0,0,255)" d="M 15.75 192 L 15.75 224 16.25 224 16.25 192 Z "/>
<path id="p91" fill="rgb(0,0,255)" d="M 32 207.75 L 64 207.75 64 208.25 32 208.25 Z "/>
<path id="p92" fill="rgb(0,0,255)" d="M 47.75 192 L 47.75 224 48.25 224 48.25 192 Z "/>
<path id="p93" fill="rgb(0,0,255)" d="M 0 239.75 L 32 239.75 32 240.25 0 240.25 Z "/>
<path id="p94" fill="rgb(0,0,255)" d="M 15.75 224 L 15.75 256 16.25 256 16.25 224 Z "/>
<path id="p95" fill="rgb(0,0,255)" d="M 128 191.75 L 256 191.75 256 192.25 128 192.25 Z "/>
<path id="p96" fill="rgb(0,0,255)" d="M 191.75 128 L 191.75 256 192.25 256 192.25 128 Z "/>
<path id="p97" fill="rgb(0,0,255)" d="M 192 159.75 L 256 159.75 256 160.25 192 160.25 Z "/>
<path id="p98" fill="rgb(0,0,255)" d="M 223.75 128 L 223.75 192 224.25 192 224.25 128 Z "/>
<path id="p99" fill="rgb(0,0,255)" d="M 192 143.75 L 224 143.75 224 144.25 192 144.25 Z "/>
<path id="p100" fill="rgb(0,0,255)" d="M 207.75 128 L 207.75 160 208.25 160 208.25 128 Z "/>
<path id="p101" fill="rgb(0,0,255)" d="M 192 175.75 L 224 175.75 224 176.25 192 176.25 Z "/>
<path id="p102" fill="rgb(0,0,255)" d="M 207.75 160 L 207.75 192 208.25 192 208.25 160 Z "/>
<path id="p103" fill="rgb(0,0,255)" d="M 224 175.75 L 256 175.75 256 176.25 224 176.25 Z "/>
<path id="p104" fill="rgb(0,0,255)" d="M 239.75 160 L 239.75 192 240.25 192 240.25 160 Z "/>
<path id="p105" fill="rgb(0,0,255)" d="M 192 223.75 L 256 223.75 256 224.25 192 224.25 Z "/>
<path id="p106" fill="rgb(0,0,255)" d="M 223.75 192 L 223.75 256 224.25 256 224.25 192 Z "/>
<path id="p107" fill="rgb(0,0,255)" d="M 224 207.75 L 256 207.75 256 208.25 224 208.25 Z "/>
<path id="p108" fill="rgb(0,0,255)" d="M 239.75 192 L 239.75 224 240.25 224 240.25 192 Z "/>
<path id="p109" fill="rgb(0,0,255)" d="M 224 239.75 L 256 239.75 256 240.25 224 240.25 Z "/>
<path id="p110" fill="rgb(0,0,255)" d="M 239.75 224 L 239.75 256 240.25 256 240.25 224 Z "/>
<path id="p111" fill="rgb(0,0,255)" d="M 256 127.75 L 512 127.75 512 128.25 256 128.25 Z "/>
<path id="p112" fill="rgb(0,0,255)" d="M 383.75 0 L 383.75 256 384.25 256 384.25 0 Z "/>
<path id="p113" fill="rgb(0,0,255)" d="M 256 63.75 L 384 63.75 384 64.25 256 64.25 Z "/>
<path id="p114" fill="rgb(0,0,255)" d="M 319.75 0 L 319.75 128 320.25 128 320.25 0 Z "/>
<path id="p115" fill="rgb(0,0,255)" d="M 256 31.75 L 320 31.75 320 32.25 256 32.25 Z "/>
<path id="p116" fill="rgb(0,0,255)" d="M 287.75 0 L 287.75 64 288.25 64 288.25 0 Z "/>
<path id="p117" fill="rgb(0,0,255)" d="M 256 47.75 L 288 47.75 288 48.25 256 48.25 Z "/>
<path id="p118" fill="rgb(0,0,255)" d="M 271.75 32 L 271.75 64 272.25 64 272.25 32 Z "/>
<path id="p119" fill="rgb(0,0,255)" d="M 288 47.75 L 320 47.75 320 48.25 288 48.25 Z "/>
<path id="p120" fill="rgb(0,0,255)" d="M 303.75 32 L 303.75 64 304.25 64 304.25 32 Z "/>
<path id="p121" fill="rgb(0,0,255)" d="M 320 31.75 L 384 31.75 384 32.25 320 32.25 Z "/>
<path id="p122" fill="rgb(0,0,255)" d="M 351.75 0 L 351.75 64 352.25 64 352.25 0 Z "/>
<path id="p123" fill="rgb(0,0,255)" d="M 320 15.75 L 352 15.75 352 16.25 320 16.25 Z "/>
<path id="p124" fill="rgb(0,0,255)" d="M 335.75 0 L 335.75 32 336.25 32 336.25 0 Z "/>
<path id="p125" fill="rgb(0,0,255)" d="M 352 15.75 L 384 15.75 384 16.25 352 16.25 Z "/>
<path id="p126" fill="rgb(0,0,255)" d="M 367.75 0 L 367.75 32 368.25 32 368.25 0 Z "/>
<path id="p127" fill="rgb(0,0,255)" d="M 352 47.75 L 384 47.75 384 48.25 352 48.25 Z "/>
<path id="p128" fill="rgb(0,0,255)" d="M 367.75 32 L 367.75 64 368.25 64 368.25 32 Z "/>
<path id="p129" fill="rgb(0,0,255)" d="M 256 95.75 L 320 95.75 320 96.25 256 96.25 Z "/>
<path id="p130" fill="rgb(0,0,255)" d="M 287.75 64 L 287.75 128 288.25 128 288.25 64 Z "/>
<path id="p131" fill="rgb(0,0,255)" d="M 288 79.75 L 320 79.75 320 80.25 288 80.25 Z "/>
<path id="p132" fill="rgb(0,0,255)" d="M 303.75 64 L 303.75 96 304.25 96 304.25 64 Z "/>
<path id="p133" fill="rgb(0,0,255)" d="M 320 95.75 L 384 95.75 384 96.25 320 96.25 Z "/>
<path id="p134" fill="rgb(0,0,255)" d="M 351.75 64 L 351.75 128 352.25 128 352.25 64 Z "/>
<path id="p135" fill="rgb(0,0,255)" d="M 320 79.75 L 352 79.75 352 80.25 320 80.25 Z "/>
<path id="p136" fill="rgb(0,0,255)" d="M 335.75 64 L 335.75 96 336.25 96 336.25 64 Z "/>
<path id="p137" fill="rgb(0,0,255)" d="M 352 79.75 L 384 79.75 384 80.25 352 80.25 Z "/>
<path id="p138" fill="rgb(0,0,255)" d="M 367.75 64 L 367.75 96 368.25 96 368.25 64 Z "/>
<path id="p139" fill="rgb(0,0,255)" d="M 384 63.75 L 512 63.75 512 64.25 384 64.25 Z "/>
<path id="p140" fill="rgb(0,0,255)" d="M 447.75 0 L 447.75 128 448.25 128 448.25 0 Z "/>
<path id="p141" fill="rgb(0,0,255)" d="M 384 31.75 L 448 31.75 448 32.25 384 32.25 Z "/>
<path id="p142" fill="rgb(0,0,255)" d="M 415.75 0 L 415.75 64 416.25 64 416.25 0 Z "/>
<path id="p143" fill="rgb(0,0,255)" d="M 384 47.75 L 416 47.75 416 48.25 384 48.25 Z "/>
<path id="p144" fill="rgb(0,0,255)" d="M 399.75 32 L 399.75 64 400.25 64 400.25 32 Z "/>
<path id="p145" fill="rgb(0,0,255)" d="M 384 95.75 L 448 95.75 448 96.25 384 96.25 Z "/>
<path id="p146" fill="rgb(0,0,255)" d="M 415.75 64 L 415.75 128 416.25 128 416.25 64 Z "/>
<path id="p147" fill="rgb(0,0,255)" d="M 384 79.75 L 416 79.75 416 80.25 384 80.25 Z "/>
<path id="p148" fill="rgb(0,0,255)" d="M 399.75 64 L 399.75 96 400.25 96 400.25 64 Z "/>
<path id="p149" fill="rgb(0,0,255)" d="M 416 79.75 L 448 79.75 448 80.25 416 80.25 Z "/>
<path id="p150" fill="rgb(0,0,255)" d="M 431.75 64 L 431.75 96 432.25 96 432.25 64 Z "/>
<path id="p151" fill="rgb(0,0,255)" d="M 384 111.75 L 416 111.75 416 112.25 384 112.25 Z "/>
<path id="p152" fill="rgb(0,0,255)" d="M 399.75 96 L 399.75 128 400.25 128 400.25 96 Z "/>
<path id="p153" fill="rgb(0,0,255)" d="M 416 111.75 L 448 111.75 448 112.25 416 112.25 Z "/>
<path id="p154" fill="rgb(0,0,255)" d="M 431.75 96 L 431.75 128 432.25 128 432.25 96 Z "/>
<path id="p155" fill="rgb(0,0,255)" d="M 448 95.75 L 512 95.75 512 96.25 448 96.25 Z "/>
<path id="p156" fill="rgb(0,0,255)" d="M 479.75 64 L 479.75 128 480.25 128 480.25 64 Z "/>
<path id="p157" fill="rgb(0,0,255)" d="M 448 111.75 L 480 111.75 480 112.25 448 112.25 Z "/>
<path id="p158" fill="rgb(0,0,255)" d="M 463.75 96 L 463.75 128 464.25 128 464.25 96 Z "/>
<path id="p159" fill="rgb(0,0,255)" d="M 256 191.75 L 384 191.75 384 192.25 256 192.25 Z "/>
<path id="p160" fill="rgb(0,0,255)" d="M 319.75 128 L 319.75 256 320.25 256 320.25 128 Z "/>
<path id="p161" fill="rgb(0,0,255)" d="M 320 159.75 L 384 159.75 384 160.25 320 160.25 Z "/>
<path id="p162" fill="rgb(0,0,255)" d="M 351.75 128 L 351.75 192 352.25 192 352.25 128 Z "/>
<path id="p163" fill="rgb(0,0,255)" d="M 320 175.75 L 352 175.75 352 176.25 320 176.25 Z "/>
<path id="p164" fill="rgb(0,0,255)" d="M 335.75 160 L 335.75 192 336.25 192 336.25 160 Z "/>
<path id="p165" fill="rgb(0,0,255)" d="M 352 175.75 L 384 175.75 384 176.25 352 176.25 Z "/>
<path id="p166" fill="rgb(0,0,255)" d="M 367.75 160 L 367.75 192 368.25 192 368.25 160 Z "/>
<path id="p167" fill="rgb(0,0,255)" d="M 256 223.75 L 320 223.75 320 224.25 256 224.25 Z "/>
<path id="p168" fill="rgb(0,0,255)" d="M 287.75 192 L 287.75 256 288.25 256 288.25 192 Z "/>
<path id="p169" fill="rgb(0,0,255)" d="M 288 207.75 L 320 207.75 320 208.25 288 208.25 Z "/>
<path id="p170" fill="rgb(0,0,255)" d="M 303.75 192 L 303.75 224 304.25 224 304.25 192 Z "/>
<path id="p171" fill="rgb(0,0,255)" d="M 256 239.75 L 288 239.75 288 240.25 256 240.25 Z "/>
<path id="p172" fill="rgb(0,0,255)" d="M 271.75 224 L 271.75 256 272.25 256 272.25 224 Z "/>
<path id="p173" fill="rgb(0,0,255)" d="M 288 239.75 L 320 239.75 320 240.25 288 240.25 Z "/>
<path id="p174" fill="rgb(0,0,255)" d="M 303.75 224 L 303.75 256 304.25 256 304.25 224 Z "/>
<path id="p175" fill="rgb(0,0,255)" d="M 320 223.75 L 384 223.75 384 224.25 320 224.25 Z "/>
<path id="p176" fill="rgb(0,0,255)" d="M 351.75 192 L 351.75 256 352.25 256 352.25 192 Z "/>
<path id="p177" fill="rgb(0,0,255)" d="M 320 207.75 L 352 207.75 352 208.25 320 208.25 Z "/>
<path id="p178" fill="rgb(0,0,255)" d="M 335.75 192 L 335.75 224 336.25 224 336.25 192 Z "/>
<path id="p179" fill="rgb(0,0,255)" d="M 384 191.75 L 512 191.75 512 192.25 384 192.25 Z "/>
<path id="p180" fill="rgb(0,0,255)" d="M 447.75 128 L 447.75 256 448.25 256 448.25 128 Z "/>
<path id="p181" fill="rgb(0,0,255)" d="M 384 159.75 L 448 159.75 448 160.25 384 160.25 Z "/>
<path id="p182" fill="rgb(0,0,255)" d="M 415.75 128 L 415.75 192 416.25 192 416.25 128 Z "/>
<path id="p183" fill="rgb(0,0,255)" d="M 384 143.75 L 416 143.75 416 144.25 384 144.25 Z "/>
<path id="p184" fill="rgb(0,0,255)" d="M 399.75 128 L 399.75 160 400.25 160 400.25 128 Z "/>
<path id="p185" fill="rgb(0,0,255)" d="M 416 143.75 L 448 143.75 448 144.25 416 144.25 Z "/>
<path id="p186" fill="rgb(0,0,255)" d="M 431.75 128 L 431.75 160 432.25 160 432.25 128 Z "/>
<path id="p187" fill="rgb(0,0,255)" d="M 384 175.75 L 416 175.75 416 176.25 384 176.25 Z "/>
<path id="p188" fill="rgb(0,0,255)" d="M 399.75 160 L 399.75 192 400.25 192 400.25 160 Z "/>
<path id="p189" fill="rgb(0,0,255)" d="M 448 159.75 L 512 159.75 512 160.25 448 160.25 Z "/>
<path id="p190" fill="rgb(0,0,255)" d="M 479.75 128 L 479.75 192 480.25 192 480.25 128 Z "/>
<path id="p191" fill="rgb(0,0,255)" d="M 448 143.75 L 480 143.75 480 144.25 448 144.25 Z "/>
<path id="p192" fill="rgb(0,0,255)" d="M 463.75 128 L 463.75 160 464.25 160 464.25 128 Z "/>
<path id="p193" fill="rgb(0,0,255)" d="M 448 175.75 L 480 175.75 480 176.25 448 176.25 Z "/>
<path id="p194" fill="rgb(0,0,255)" d="M 463.75 160 L 463.75 192 464.25 192 464.25 160 Z "/>
<path id="p195" fill="rgb(0,0,255)" d="M 480 175.75 L 512 175.75 512 176.25 480 176.25 Z "/>
<path id="p196" fill="rgb(0,0,255)" d="M 495.75 160 L 495.75 192 496.25 192 496.25 160 Z "/>
<path id="p197" fill="rgb(0,0,255)" d="M 448 223.75 L 512 223.75 512 224.25 448 224.25 Z "/>
<path id="p198" fill="rgb(0,0,255)" d="M 479.75 192 L 479.75 256 480.25 256 480.25 192 Z "/>
<path id="p199" fill="rgb(0,0,255)" d="M 480 207.75 L 512 207.75 512 208.25 480 208.25 Z "/>
<path id="p200" fill="rgb(0,0,255)" d="M 495.75 192 L 495.75 224 496.25 224 496.25 192 Z "/>
<path id="p201" fill="rgb(0,0,255)" d="M 480 239.75 L 512 239.75 512 240.25 480 240.25 Z "/>
<path id="p202" fill="rgb(0,0,255)" d="M 495.75 224 L 495.75 256 496.25 256 496.25 224 Z "/>
<path id="p203" fill="rgb(0,0,255)" d="M 0 383.75 L 256 383.75 256 384.25 0 384.25 Z "/>
<path id="p204" fill="rgb(0,0,255)" d="M 127.75 256 L 127.75 512 128.25 512 128.25 256 Z "/>
<path id="p205" fill="rgb(0,0,255)" d="M 0 319.75 L 128 319.75 128 320.25 0 320.25 Z "/>
<path id="p206" fill="rgb(0,0,255)" d="M 63.75 256 L 63.75 384 64.25 384 64.25 256 Z "/>
<path id="p207" fill="rgb(0,0,255)" d="M 0 287.75 L 64 287.75 64 288.25 0 288.25 Z "/>
<path id="p208" fill="rgb(0,0,255)" d="M 31.75 256 L 31.75 320 32.25 320 32.25 256 Z "/>
<path id="p209" fill="rgb(0,0,255)" d="M 0 271.75 L 32 271.75 32 272.25 0 272.25 Z "/>
<path id="p210" fill="rgb(0,0,255)" d="M 15.75 256 L 15.75 288 16.25 288 16.25 256 Z "/>
<path id="p211" fill="rgb(0,0,255)" d="M 0 303.75 L 32 303.75 32 304.25 0 304.25 Z "/>
<path id="p212" fill="rgb(0,0,255)" d="M 15.75 288 L 15.75 320 16.25 320 16.25 288 Z "/>
<path id="p213" fill="rgb(0,0,255)" d="M 32 303.75 L 64 303.75 64 304.25 32 304.25 Z "/>
<path id="p214" fill="rgb(0,0,255)" d="M 47.75 288 L 47.75 320 48.25 320 48.25 288 Z "/>
<path id="p215" fill="rgb(0,0,255)" d="M 0 351.75 L 64 351.75 64 352.25 0 352.25 Z "/>
<path id="p216" fill="rgb(0,0,255)" d="M 31.75 320 L 31.75 384 32.25 384 32.25 320 Z "/>
<path id="p217" fill="rgb(0,0,255)" d="M 0 335.75 L 32 335.75 32 336.25 0 336.25 Z "/>
<path id="p218" fill="rgb(0,0,255)" d="M 15.75 320 L 15.75 352 16.25 352 16.25 320 Z "/>
<path id="p219" fill="rgb(0,0,255)" d="M 32 335.75 L 64 335.75 64 336.25 32 336.25 Z "/>
<path id="p220" fill="rgb(0,0,255)" d="M 47.75 320 L 47.75 352 48.25 352 48.25 320 Z "/>
<path id="p221" fill="rgb(0,0,255)" d="M 32 367.75 L 64 367.75 64 368.25 32 368.25 Z "/>
<path id="p222" fill="rgb(0,0,255)" d="M 47.75 352 L 47.75 384 48.25 384 48.25 352 Z "/>
<path id="p223" fill="rgb(0,0,255)" d="M 64 351.75 L 128 351.75 128 352.25 64 352.25 Z "/>
<path id="p224" fill="rgb(0,0,255)" d="M 95.75 320 L 95.75 384 96.25 384 96.25 320 Z "/>
<path id="p225" fill="rgb(0,0,255)" d="M 64 335.75 L 96 335.75 96 336.25 64 336.25 Z "/>
<path id="p226" fill="rgb(0,0,255)" d="M 79.75 320 L 79.75 352 80.25 352 80.25 320 Z "/>
<path id="p227" fill="rgb(0,0,255)" d="M 64 367.75 L 96 367.75 96 368.25 64 368.25 Z "/>
<path id="p228" fill="rgb(0,0,255)" d="M 79.75 352 L 79.75 384 80.25 384 80.25 352 Z "/>
<path id="p229" fill="rgb(0,0,255)" d="M 128 319.75 L 256 319.75 256 320.25 128 320.25 Z "/>
<path id="p230" fill="rgb(0,0,255)" d="M 191.75 256 L 191.75 384 192.25 384 192.25 256 Z "/>
<path id="p231" fill="rgb(0,0,255)" d="M 192 287.75 L 256 287.75 256 288.25 192 288.25 Z "/>
<path id="p232" fill="rgb(0,0,255)" d="M 223.75 256 L 223.75 320 224.25 320 224.25 256 Z "/>
<path id="p233" fill="rgb(0,0,255)" d="M 224 271.75 L 256 271.75 256 272.25 224 272.25 Z "/>
<path id="p234" fill="rgb(0,0,255)" d="M 239.75 256 L 239.75 288 240.25 288 240.25 256 Z "/>
<path id="p235" fill="rgb(0,0,255)" d="M 224 303.75 L 256 303.75 256 304.25 224 304.25 Z "/>
<path id="p236" fill="rgb(0,0,255)" d="M 239.75 288 L 239.75 320 240.25 320 240.25 288 Z "/>
<path id="p237" fill="rgb(0,0,255)" d="M 192 351.75 L 256 351.75 256 352.25 192 352.25 Z "/>
<path id="p238" fill="rgb(0,0,255)" d="M 223.75 320 L 223.75 384 224.25 384 224.25 320 Z "/>
<path id="p239" fill="rgb(0,0,255)" d="M 192 335.75 L 224 335.75 224 336.25 192 336.25 Z "/>
<path id="p240" fill="rgb(0,0,255)" d="M 207.75 320 L 207.75 352 208.25 352 208.25 320 Z "/>
<path id="p241" fill="rgb(0,0,255)" d="M 224 335.75 L 256 335.75 256 336.25 224 336.25 Z "/>
<path id="p242" fill="rgb(0,0,255)" d="M 239.75 320 L 239.75 352 240.25 352 240.25 320 Z "/>
<path id="p243" fill="rgb(0,0,255)" d="M 192 367.75 L 224 367.75 224 368.25 192 368.25 Z "/>
<path id="p244" fill="rgb(0,0,255)" d="M 207.75 352 L 207.75 384 208.25 384 208.25 352 Z "/>
<path id="p245" fill="rgb(0,0,255)" d="M 0 447.75 L 128 447.75 128 448.25 0 448.25 Z "/>
<path id="p246" fill="rgb(0,0,255)" d="M 63.75 384 L 63.75 512 64.25 512 64.25 384 Z "/>
<path id="p247" fill="rgb(0,0,255)" d="M 0 415.75 L 64 415.75 64 416.25 0 416.25 Z "/>
<path id="p248" fill="rgb(0,0,255)" d="M 31.75 384 L 31.75 448 32.25 448 32.25 384 Z "/>
<path id="p249" fill="rgb(0,0,255)" d="M 32 399.75 L 64 399.75 64 400.25 32 400.25 Z "/>
<path id="p250" fill="rgb(0,0,255)" d="M 47.75 384 L 47.75 416 48.25 416 48.25 384 Z "/>
<path id="p251" fill="rgb(0,0,255)" d="M 64 415.75 L 128 415.75 128 416.25 64 416.25 Z "/>
<path id="p252" fill="rgb(0,0,255)" d="M 95.75 384 L 95.75 448 96.25 448 96.25 384 Z "/>
<path id="p253" fill="rgb(0,0,255)" d="M 64 399.75 L 96 399.75 96 400.25 64 400.25 Z "/>
<path id="p254" fill="rgb(0,0,255)" d="M 79.75 384 L 79.75 416 80.25 416 80.25 384 Z "/>
<path id="p255" fill="rgb(0,0,255)" d="M 96 399.75 L 128 399.75 128 400.25 96 400.25 Z "/>
<path id="p256" fill="rgb(0,0,255)" d="M 111.75 384 L 111.75 416 112.25 416 112.25 384 Z "/>
<path id="p257" fill="rgb(0,0,255)" d="M 64 431.75 L 96 431.75 96 432.25 64 432.25 Z "/>
<path id="p258" fill="rgb(0,0,255)" d="M 79.75 416 L 79.75 448 80.25 448 80.25 416 Z "/>
<path id="p259" fill="rgb(0,0,255)" d="M 96 431.75 L 128 431.75 128 432.25 96 432.25 Z "/>
<path id="p260" fill="rgb(0,0,255)" d="M 111.75 416 L 111.75 448 112.25 448 112.25 416 Z "/>
<path id="p261" fill="rgb(0,0,255)" d="M 64 479.75 L 128 479.75 128 480.25 64 480.25 Z "/>
<path id="p262" fill="rgb(0,0,255)" d="M 95.75 448 L 95.75 512 96.25 512 96.25 448 Z "/>
<path id="p263" fill="rgb(0,0,255)" d="M 96 463.75 L 128 463.75 128 464.25 96 464.25 Z "/>
<path id="p264" fill="rgb(0,0,255)" d="M 111.75 448 L 111.75 480 112.25 480 112.25 448 Z "/>
<path id="p265" fill="rgb(0,0,255)" d="M 128 447.75 L 256 447.75 256 448.25 128 448.25 Z "/>
<path id="p266" fill="rgb(0,0,255)" d="M 191.75 384 L 191.75 512 192.25 512 192.25 384 Z "/>
<path id="p267" fill="rgb(0,0,255)" d="M 128 415.75 L 192 415.75 192 416.25 128 416.25 Z "/>
<path id="p268" fill="rgb(0,0,255)" d="M 159.75 384 L 159.75 448 160.25 448 160.25 384 Z "/>
<path id="p269" fill="rgb(0,0,255)" d="M 128 431.75 L 160 431.75 160 432.25 128 432.25 Z "/>
<path id="p270" fill="rgb(0,0,255)" d="M 143.75 416 L 143.75 448 144.25 448 144.25 416 Z "/>
<path id="p271" fill="rgb(0,0,255)" d="M 160 431.75 L 192 431.75 192 432.25 160 432.25 Z "/>
<path id="p272" fill="rgb(0,0,255)" d="M 175.75 416 L 175.75 448 176.25 448 176.25 416 Z "/>
<path id="p273" fill="rgb(0,0,255)" d="M 192 415.75 L 256 415.75 256 416.25 192 416.25 Z "/>
<path id="p274" fill="rgb(0,0,255)" d="M 223.75 384 L 223.75 448 224.25 448 224.25 384 Z "/>
<path id="p275" fill="rgb(0,0,255)" d="M 192 399.75 L 224 399.75 224 400.25 192 400.25 Z "/>
<path id="p276" fill="rgb(0,0,255)" d="M 207.75 384 L 207.75 416 208.25 416 208.25 384 Z "/>
<path id="p277" fill="rgb(0,0,255)" d="M 192 431.75 L 224 431.75 224 432.25 192 432.25 Z "/>
<path id="p278" fill="rgb(0,0,255)" d="M 207.75 416 L 207.75 448 208.25 448 208.25 416 Z "/>
<path id="p279" fill="rgb(0,0,255)" d="M 128 479.75 L 192 479.75 192 480.25 128 480.25 Z "/>
<path id="p280" fill="rgb(0,0,255)" d="M 159.75 448 L 159.75 512 160.25 512 160.25 448 Z "/>
<path id="p281" fill="rgb(0,0,255)" d="M 128 463.75 L 160 463.75 160 464.25 128 464.25 Z "/>
<path id="p282" fill="rgb(0,0,255)" d="M 143.75 448 L 143.75 480 144.25 480 144.25 448 Z "/>
<path id="p283" fill="rgb(0,0,255)" d="M 160 463.75 L 192 463.75 192 464.25 160 464.25 Z "/>
<path id="p284" fill="rgb(0,0,255)" d="M 175.75 448 L 175.75 480 176.25 480 176.25 448 Z "/>
<path id="p285" fill="rgb(0,0,255)" d="M 128 495.75 L 160 495.75 160 496.25 128 496.25 Z "/>
<path id="p286" fill="rgb(0,0,255)" d="M 143.75 480 L 143.75 512 144.25 512 144.25 480 Z "/>
<path id="p287" fill="rgb(0,0,255)" d="M 160 495.75 L 192 495.75 192 496.25 160 496.25 Z "/>
<path id="p288" fill="rgb(0,0,255)" d="M 175.75 480 L 175.75 512 176.25 512 176.25 480 Z "/>
<path id="p289" fill="rgb(0,0,255)" d="M 192 479.75 L 256 479.75 256 480.25 192 480.25 Z "/>
<path id="p290" fill="rgb(0,0,255)" d="M 223.75 448 L 223.75 512 224.25 512 224.25 448 Z "/>
<path id="p291" fill="rgb(0,0,255)" d="M 192 463.75 L 224 463.75 224 464.25 192 464.25 Z "/>
<path id="p292" fill="rgb(0,0,255)" d="M 207.75 448 L 207.75 480 208.25 480 208.25 448 Z "/>
<path id="p293" fill="rgb(0,0,255)" d="M 224 463.75 L 256 463.75 256 464.25 224 464.25 Z "/>
<path id="p294" fill="rgb(0,0,255)" d="M 239.75 448 L 239.75 480 240.25 480 240.25 448 Z "/>
<path id="p295" fill="rgb(0,0,255)" d="M 192 495.75 L 224 495.75 224 496.25 192 496.25 Z "/>
<path id="p296" fill="rgb(0,0,255)" d="M 207.75 480 L 207.75 512 208.25 512 208.25 480 Z "/>
<path id="p297" fill="rgb(0,0,255)" d="M 256 383.75 L 512 383.75 512 384.25 256 384.25 Z "/>
<path id="p298" fill="rgb(0,0,255)" d="M 383.75 256 L 383.75 512 384.25 512 384.25 256 Z "/>
<path id="p299" fill="rgb(0,0,255)" d="M 256 319.75 L 384 319.75 384 320.25 256 320.25 Z "/>
<path id="p300" fill="rgb(0,0,255)" d="M 319.75 256 L 319.75 384 320.25 384 320.25 256 Z "/>
<path id="p301" fill="rgb(0,0,255)" d="M 256 287.75 L 320 287.75 320 288.25 256 288.25 Z "/>
<path id="p302" fill="rgb(0,0,255)" d="M 287.75 256 L 287.75 320 288.25 320 288.25 256 Z "/>
<path id="p303" fill="rgb(0,0,255)" d="M 256 271.75 L 288 271.75 288 272.25 256 272.25 Z "/>
<path id="p304" fill="rgb(0,0,255)" d="M 271.75 256 L 271.75 288 272.25 288 272.25 256 Z "/>
<path id="p305" fill="rgb(0,0,255)" d="M 288 271.75 L 320 271.75 320 272.25 288 272.25 Z "/>
<path id="p306" fill="rgb(0,0,255)" d="M 303.75 256 L 303.75 288 304.25 288 304.25 256 Z "/>
<path id="p307" fill="rgb(0,0,255)" d="M 288 303.75 L 320 303.75 320 304.25 288 304.25 Z "/>
<path id="p308" fill="rgb(0,0,255)" d="M 303.75 288 L 303.75 320 304.25 320 304.25 288 Z "/>
<path id="p309" fill="rgb(0,0,255)" d="M 320 287.75 L 384 287.75 384 288.25 320 288.25 Z "/>
<path id="p310" fill="rgb(0,0,255)" d="M 351.75 256 L 351.75 320 352.25 320 352.25 256 Z "/>
<path id="p311" fill="rgb(0,0,255)" d="M 320 303.75 L 352 303.75 352 304.25 320 304.25 Z "/>
<path id="p312" fill="rgb(0,0,255)" d="M 335.75 288 L 335.75 320 336.25 320 336.25 288 Z "/>
<path id="p313" fill="rgb(0,0,255)" d="M 320 351.75 L 384 351.75 384 352.25 320 352.25 Z "/>
<path id="p314" fill="rgb(0,0,255)" d="M 351.75 320 L 351.75 384 352.25 384 352.25 320 Z "/>
<path id="p315" fill="rgb(0,0,255)" d="M 320 335.75 L 352 335.75 352 336.25 320 336.25 Z "/>
<path id="p316" fill="rgb(0,0,255)" d="M 335.75 320 L 335.75 352 336.25 352 336.25 320 Z "/>
<path id="p317" fill="rgb(0,0,255)" d="M 352 335.75 L 384 335.75 384 336.25 352 336.25 Z "/>
<path id="p318" fill="rgb(0,0,255)" d="M 367.75 320 L 367.75 352 368.25 352 368.25 320 Z "/>
<path id="p319" fill="rgb(0,0,255)" d="M 352 367.75 L 384 367.75 384 368.25 352 368.25 Z "/>
<path id="p320" fill="rgb(0,0,255)" d="M 367.75 352 L 367.75 384 368.25 384 368.25 352 Z "/>
<path id="p321" fill="rgb(0,0,255)" d="M 384 319.75 L 512 319.75 512 320.25 384 320.25 Z "/>
<path id="p322" fill="rgb(0,0,255)" d="M 447.75 256 L 447.75 384 448.25 384 448.25 256 Z "/>
<path id="p323" fill="rgb(0,0,255)" d="M 448 287.75 L 512 287.75 512 288.25 448 288.25 Z "/>
<path id="p324" fill="rgb(0,0,255)" d="M 479.75 256 L 479.75 320 480.25 320 480.25 256 Z "/>
<path id="p325" fill="rgb(0,0,255)" d="M 480 271.75 L 512 271.75 512 272.25 480 272.25 Z "/>
<path id="p326" fill="rgb(0,0,255)" d="M 495.75 256 L 495.75 288 496.25 288 496.25 256 Z "/>
<path id="p327" fill="rgb(0,0,255)" d="M 480 303.75 L 512 303.75 512 304.25 480 304.25 Z "/>
<path id="p328" fill="rgb(0,0,255)" d="M 495.75 288 L 495.75 320 496.25 320 496.25 288 Z "/>
<path id="p329" fill="rgb(0,0,255)" d="M 384 351.75 L 448 351.75 448 352.25 384 352.25 Z "/>
<path id="p330" fill="rgb(0,0,255)" d="M 415.75 320 L 415.75 384 416.25 384 416.25 320 Z "/>
<path id="p331" fill="rgb(0,0,255)" d="M 384 367.75 L 416 367.75 416 368.25 384 368.25 Z "/>
<path id="p332" fill="rgb(0,0,255)" d="M 399.75 352 L 399.75 384 400.25 384 400.25 352 Z "/>
<path id="p333" fill="rgb(0,0,255)" d="M 416 367.75 L 448 367.75 448 368.25 416 368.25 Z "/>
<path id="p334" fill="rgb(0,0,255)" d="M 431.75 352 L 431.75 384 432.25 384 432.25 352 Z "/>
<path id="p335" fill="rgb(0,0,255)" d="M 448 351.75 L 512 351.75 512 352.25 448 352.25 Z "/>
<path id="p336" fill="rgb(0,0,255)" d="M 479.75 320 L 479.75 384 480.25 384 480.25 320 Z "/>
<path id="p337" fill="rgb(0,0,255)" d="M 448 335.75 L 480 335.75 480 336.25 448 336.25 Z "/>
<path id="p338" fill="rgb(0,0,255)" d="M 463.75 320 L 463.75 352 464.25 352 464.25 320 Z "/>
<path id="p339" fill="rgb(0,0,255)" d="M 480 335.75 L 512 335.75 512 336.25 480 336.25 Z "/>
<path id="p340" fill="rgb(0,0,255)" d="M 495.75 320 L 495.75 352 496.25 352 496.25 320 Z "/>
<path id="p341" fill="rgb(0,0,255)" d="M 448 367.75 L 480 367.75 480 368.25 448 368.25 Z "/>
<path id="p342" fill="rgb(0,0,255)" d="M 463.75 352 L 463.75 384 464.25 384 464.25 352 Z "/>
<path id="p343" fill="rgb(0,0,255)" d="M 256 447.75 L 384 447.75 384 448.25 256 448.25 Z "/>
<path id="p344" fill="rgb(0,0,255)" d="M 319.75 384 L 319.75 512 320.25 512 320.25 384 Z "/>
<path id="p345" fill="rgb(0,0,255)" d="M 320 415.75 L 384 415.75 384 416.25 320 416.25 Z "/>
<path id="p346" fill="rgb(0,0,255)" d="M 351.75 384 L 351.75 448 352.25 448 352.25 384 Z "/>
<path id="p347" fill="rgb(0,0,255)" d="M 320 431.75 L 352 431.75 352 432.25 320 432.25 Z "/>
<path id="p348" fill="rgb(0,0,255)" d="M 335.75 416 L 335.75 448 336.25 448 336.25 416 Z "/>
<path id="p349" fill="rgb(0,0,255)" d="M 352 431.75 L 384 431.75 384 432.25 352 432.25 Z "/>
<path id="p350" fill="rgb(0,0,255)" d="M 367.75 416 L 367.75 448 368.25 448 368.25 416 Z "/>
<path id="p351" fill="rgb(0,0,255)" d="M 256 479.75 L 320 479.75 320 480.25 256 480.25 Z "/>
<path id="p352" fill="rgb(0,0,255)" d="M 287.75 448 L 287.75 512 288.25 512 288.25 448 Z "/>
<path id="p353" fill="rgb(0,0,255)" d="M 256 463.75 L 288 463.75 288 464.25 256 464.25 Z "/>
<path id="p354" fill="rgb(0,0,255)" d="M 271.75 448 L 271.75 480 272.25 480 272.25 448 Z "/>
<path id="p355" fill="rgb(0,0,255)" d="M 288 463.75 L 320 463.75 320 464.25 288 464.25 Z "/>
<path id="p356" fill="rgb(0,0,255)" d="M 303.75 448 L 303.75 480 304.25 480 304.25 448 Z "/>
<path id="p357" fill="rgb(0,0,255)" d="M 320 479.75 L 384 479.75 384 480.25 320 480.25 Z "/>
<path id="p358" fill="rgb(0,0,255)" d="M 351.75 448 L 351.75 512 352.25 512 352.25 448 Z "/>
<path id="p359" fill="rgb(0,0,255)" d="M 320 463.75 L 352 463.75 352 464.25 320 464.25 Z "/>
<path id="p360" fill="rgb(0,0,255)" d="M 335.75 448 L 335.75 480 336.25 480 336.25 448 Z "/>
<path id="p361" fill="rgb(0,0,255)" d="M 352 463.75 L 384 463.75 384 464.25 352 464.25 Z "/>
<path id="p362" fill="rgb(0,0,255)" d="M 367.75 448 L 367.75 480 368.25 480 368.25 448 Z "/>
<path id="p363" fill="rgb(0,0,255)" d="M 320 495.75 L 352 495.75 352 496.25 320 496.25 Z "/>
<path id="p364" fill="rgb(0,0,255)" d="M 335.75 480 L 335.75 512 336.25 512 336.25 480 Z "/>
<path id="p365" fill="rgb(0,0,255)" d="M 352 495.75 L 384 495.75 384 496.25 352 496.25 Z "/>
<path id="p366" fill="rgb(0,0,255)" d="M 367.75 480 L 367.75 512 368.25 512 368.25 480 Z "/>
<path id="p367" fill="rgb(0,0,255)" d="M 384 447.75 L 512 447.75 512 448.25 384 448.25 Z "/>
<path id="p368" fill="rgb(0,0,255)" d="M 447.75 384 L 447.75 512 448.25 512 448.25 384 Z "/>
<path id="p369" fill="rgb(0,0,255)" d="M 384 415.75 L 448 415.75 448 416.25 384 416.25 Z "/>
<path id="p370" fill="rgb(0,0,255)" d="M 415.75 384 L 415.75 448 416.25 448 416.25 384 Z "/>
<path id="p371" fill="rgb(0,0,255)" d="M 416 399.75 L 448 399.75 448 400.25 416 400.25 Z "/>
<path id="p372" fill="rgb(0,0,255)" d="M 431.75 384 L 431.75 416 432.25 416 432.25 384 Z "/>
<path id="p373" fill="rgb(0,0,255)" d="M 384 431.75 L 416 431.75 416 432.25 384 432.25 Z "/>
<path id="p374" fill="rgb(0,0,255)" d="M 399.75 416 L 399.75 448 400.25 448 400.25 416 Z "/>
<path id="p375" fill="rgb(0,0,255)" d="M 416 431.75 L 448 431.75 448 432.25 416 432.25 Z "/>
<path id="p376" fill="rgb(0,0,255)" d="M 431.75 416 L 431.75 448 432.25 448 432.25 416 Z "/>
<path id="p377" fill="rgb(0,0,255)" d="M 448 415.75 L 512 415.75 512 416.25 448 416.25 Z "/>
<path id="p378" fill="rgb(0,0,255)" d="M 479.75 384 L 479.75 448 480.25 448 480.25 384 Z "/>
<path id="p379" fill="rgb(0,0,255)" d="M 448 399.75 L 480 399.75 480 400.25 448 400.25 Z "/>
<path id="p380" fill="rgb(0,0,255)" d="M 463.75 384 L 463.75 416 464.25 416 464.25 384 Z "/>
<path id="p381" fill="rgb(0,0,255)" d="M 384 479.75 L 448 479.75 448 480.25 384 480.25 Z "/>
<path id="p382" fill="rgb(0,0,255)" d="M 415.75 448 L 415.75 512 416.25 512 416.25 448 Z "/>
<path id="p383" fill="rgb(0,0,255)" d="M 384 463.75 L 416 463.75 416 464.25 384 464.25 Z "/>
<path id="p384" fill="rgb(0,0,255)" d="M 399.75 448 L 399.75 480 400.25 480 400.25 448 Z "/>
</g>
</svg>
