<?xml version="1.0" standalone="no"?>
<svg
    xmlns:xlink="http://www.w3.org/1999/xlink"
    xmlns:dc="http://purl.org/dc/elements/1.1/"
    xmlns:cc="http://creativecommons.org/ns#"
    xmlns:rdf="http://www.w3.org/1999/02/22-rdf-syntax-ns#"
    xmlns:svg="http://www.w3.org/2000/svg"
    xmlns="http://www.w3.org/2000/svg"
    version="1.1"
    viewBox="0 0 512 780">
<defs>
</defs>
<g transform="translate(0, 780) scale(1, -1)">
<path id="p1" fill="rgb(242,204,153)" d="M 141.312 743.14960629921 L 167.936 763.62204724409 202.752 773.85826771654 241.664 769.76377952756 276.48 755.43307086614 305.152 737.00787401575 319.488 753.38582677165 337.92 761.57480314961 362.496 753.38582677165 374.784 722.67716535433 368.64 677.63779527559 335.872 593.70078740157 317.44 560.94488188976 315.392 546.61417322835 309.248 532.28346456693 288.768 520 284.672 501.57480314961 317.44 358.26771653543 321.536 266.14173228346 258.048 79.842519685039 272.384 49.133858267717 262.144 10.236220472441 169.984 10.236220472441 153.6 26.614173228347 137.216 63.464566929134 124.928 63.464566929134 108.544 24.566929133858 8.192 24.566929133858 4.096 40.944881889764 10.24 55.275590551181 24.576 79.842519685039 32.768 122.83464566929 8.192 253.85826771654 8.192 280.47244094488 14.336 333.70078740157 18.432 413.54330708661 53.248 520 88.064 589.6062992126 65.536 622.36220472441 61.44 636.69291338583 49.152 642.83464566929 32.768 679.68503937008 34.816 708.34645669291 36.864 732.91338582677 61.44 755.43307086614 81.92 765.66929133858 108.544 765.66929133858 126.976 755.43307086614 141.312 743.14960629921 Z "/>
<path id="p2" fill="rgb(229,178,127)" d="M 290.816 618.26771653543 L 278.528 628.50393700787 282.624 612.12598425197 272.384 620.31496062992 272.384 608.03149606299 260.096 620.31496062992 262.144 605.9842519685 253.952 616.22047244094 256 601.88976377953 243.712 612.12598425197 243.712 595.74803149606 256 577.32283464567 256 583.46456692913 262.144 575.27559055118 262.144 587.55905511811 268.288 579.37007874016 270.336 589.6062992126 276.48 581.41732283465 278.528 589.6062992126 282.624 581.41732283465 284.672 587.55905511811 288.768 579.37007874016 292.864 587.55905511811 294.912 605.9842519685 290.816 618.26771653543 Z "/>
<path id="p3" fill="rgb(235,128,128)" d="M 260.096 573.22834645669 L 270.336 575.27559055118 280.576 577.32283464567 294.912 573.22834645669 292.864 565.03937007874 276.48 554.8031496063 260.096 573.22834645669 Z "/>
<path id="p4" fill="rgb(242,204,153)" d="M 364.544 311.1811023622 L 321.536 272.28346456693 284.672 174.0157480315 258.048 65.511811023622 280.576 51.181102362205 323.584 49.133858267717 374.784 79.842519685039 434.176 100.31496062992 481.28 190.3937007874 481.28 245.66929133858 466.944 264.09448818898 434.176 268.18897637795 385.024 266.14173228346 364.544 311.1811023622 Z "/>
<path id="p5" fill="rgb(156,130,107)" d="M 114.688 311.1811023622 L 98.304 286.61417322835 98.304 268.18897637795 116.736 204.72440944882 129.024 114.64566929134 145.408 88.031496062992 165.888 135.11811023622 155.648 122.83464566929 161.792 143.30708661417 169.984 163.77952755906 153.6 149.44881889764 163.84 169.92125984252 149.504 159.68503937008 155.648 174.0157480315 145.408 169.92125984252 151.552 182.20472440945 141.312 180.15748031496 151.552 198.58267716535 159.744 210.86614173228 145.408 210.86614173228 151.552 219.05511811024 139.264 221.10236220472 143.36 231.33858267717 135.168 233.38582677165 139.264 245.66929133858 122.88 235.43307086614 126.976 249.76377952756 133.12 262.04724409449 116.736 251.81102362205 120.832 266.14173228346 112.64 260 112.64 272.28346456693 122.88 294.8031496063 110.592 288.66141732283 118.784 300.94488188976 110.592 296.85039370079 114.688 311.1811023622 Z "/>
<path id="p6" fill="rgb(156,130,107)" d="M 151.552 36.850393700787 L 161.792 26.614173228347 165.888 26.614173228347 174.08 38.897637795276 182.272 36.850393700787 188.416 22.51968503937 196.608 16.377952755906 206.848 18.425196850394 221.184 40.944881889764 225.28 20.472440944882 231.424 16.377952755906 237.568 20.472440944882 245.76 47.086614173228 249.856 36.850393700787 251.904 20.472440944882 258.048 20.472440944882 264.192 28.661417322835 270.336 49.133858267717 276.48 40.944881889764 266.24 10.236220472441 260.096 8.1889763779528 192.512 6.1417322834646 172.032 10.236220472441 155.648 20.472440944882 151.552 36.850393700787 Z "/>
<path id="p7" fill="rgb(156,130,107)" d="M 434.176 268.18897637795 L 448.512 266.14173228346 466.944 251.81102362205 483.328 227.24409448819 481.28 192.44094488189 460.8 157.63779527559 419.84 100.31496062992 362.496 77.795275590551 350.208 59.370078740158 323.584 49.133858267717 339.968 59.370078740158 344.064 71.653543307087 344.064 85.984251968504 337.92 98.267716535433 317.44 110.55118110236 317.44 118.74015748032 329.728 124.88188976378 337.92 133.07086614173 346.112 133.07086614173 342.016 141.25984251969 350.208 139.2125984252 344.064 149.44881889764 354.304 147.40157480315 348.16 153.54330708661 362.496 153.54330708661 358.4 149.44881889764 362.496 143.30708661417 356.352 143.30708661417 360.448 133.07086614173 350.208 135.11811023622 356.352 126.92913385827 344.064 124.88188976378 344.064 118.74015748032 358.4 110.55118110236 366.592 100.31496062992 374.784 112.59842519685 376.832 100.31496062992 387.072 118.74015748032 389.12 108.50393700787 397.312 124.88188976378 397.312 114.64566929134 407.552 133.07086614173 411.648 124.88188976378 417.792 139.2125984252 421.888 133.07086614173 425.984 145.35433070866 432.128 155.5905511811 448.512 169.92125984252 462.848 190.3937007874 468.992 208.8188976378 466.944 235.43307086614 458.752 249.76377952756 444.416 262.04724409449 434.176 268.18897637795 Z "/>
<path id="p8" fill="rgb(156,130,107)" d="M 309.248 360.31496062992 L 309.248 292.75590551181 305.152 264.09448818898 288.768 231.33858267717 262.144 202.67716535433 247.808 163.77952755906 266.24 165.82677165354 258.048 139.2125984252 241.664 116.69291338583 237.568 90.07874015748 245.76 71.653543307087 272.384 59.370078740158 272.384 83.937007874016 280.576 98.267716535433 296.96 106.45669291339 319.488 110.55118110236 313.344 126.92913385827 313.344 184.25196850394 321.536 225.1968503937 348.16 249.76377952756 364.544 212.91338582677 395.264 268.18897637795 356.352 337.79527559055 309.248 360.31496062992 Z "/>
<path id="p9" fill="rgb(156,130,107)" d="M 159.744 520 L 184.32 489.29133858268 194.56 462.67716535433 221.184 444.25196850394 256 438.11023622047 284.672 421.73228346457 307.2 358.26771653543 311.296 388.97637795276 288.768 493.38582677165 247.808 477.00787401575 204.8 501.57480314961 159.744 520 Z "/>
<path id="p10" fill="rgb(156,130,107)" d="M 43.008 661.25984251968 L 71.68 651.02362204724 77.824 640.7874015748 65.536 638.74015748032 86.016 628.50393700787 81.92 618.26771653543 96.256 616.22047244094 110.592 610.07874015748 92.16 587.55905511811 69.632 614.17322834646 65.536 630.55118110236 49.152 644.88188976378 43.008 661.25984251968 Z "/>
<path id="p11" fill="rgb(156,130,107)" d="M 145.408 710.3937007874 L 137.216 710.3937007874 135.168 724.72440944882 120.832 730.86614173228 110.592 745.1968503937 98.304 745.1968503937 79.872 734.96062992126 61.44 726.77165354331 57.344 716.53543307087 63.488 700.15748031496 77.824 685.82677165354 59.392 687.87401574803 73.728 669.44881889764 83.968 655.11811023622 83.968 636.69291338583 102.4 638.74015748032 110.592 634.64566929134 112.64 661.25984251968 137.216 673.54330708661 155.648 691.96850393701 155.648 700.15748031496 139.264 689.92125984252 145.408 710.3937007874 Z "/>
<path id="p12" fill="rgb(156,130,107)" d="M 284.672 628.50393700787 L 288.768 610.07874015748 292.864 597.79527559055 294.912 567.08661417323 303.104 567.08661417323 317.44 562.99212598425 315.392 603.93700787402 321.536 622.36220472441 317.44 632.59842519685 307.2 622.36220472441 294.912 622.36220472441 284.672 628.50393700787 Z "/>
<path id="p13" fill="rgb(156,130,107)" d="M 215.04 689.92125984252 L 208.896 671.49606299213 221.184 661.25984251968 227.328 653.07086614173 229.376 667.40157480315 215.04 689.92125984252 Z "/>
<path id="p14" fill="rgb(156,130,107)" d="M 288.768 681.73228346457 L 288.768 669.44881889764 294.912 661.25984251968 284.672 653.07086614173 280.576 644.88188976378 278.528 659.2125984252 280.576 673.54330708661 288.768 681.73228346457 Z "/>
<path id="p15" fill="rgb(156,130,107)" d="M 200.704 503.62204724409 L 212.992 513.85826771654 215.04 505.66929133858 221.184 509.76377952756 221.184 503.62204724409 229.376 505.66929133858 231.424 499.52755905512 237.568 501.57480314961 237.568 495.43307086614 243.712 495.43307086614 253.952 491.33858267717 262.144 493.38582677165 272.384 497.48031496063 286.72 507.71653543307 284.672 493.38582677165 258.048 481.10236220472 212.992 485.1968503937 200.704 503.62204724409 Z "/>
<path id="p16" fill="rgb(156,130,107)" d="M 198.656 542.51968503937 L 210.944 536.37795275591 210.944 542.51968503937 227.328 538.42519685039 237.568 540.47244094488 249.856 546.61417322835 260.096 560.94488188976 276.48 552.75590551181 290.816 560.94488188976 288.768 546.61417322835 296.96 538.42519685039 305.152 532.28346456693 296.96 524.09448818898 286.72 526.14173228346 260.096 532.28346456693 231.424 524.09448818898 204.8 526.14173228346 198.656 542.51968503937 Z "/>
<path id="p17" fill="rgb(156,130,107)" d="M 301.056 712.44094488189 L 311.296 708.34645669291 321.536 710.3937007874 313.344 716.53543307087 327.68 716.53543307087 319.488 722.67716535433 329.728 722.67716535433 325.632 730.86614173228 333.824 728.8188976378 333.824 737.00787401575 337.92 734.96062992126 348.16 732.91338582677 342.016 745.1968503937 352.256 737.00787401575 356.352 743.14960629921 358.4 732.91338582677 360.448 734.96062992126 362.496 722.67716535433 362.496 712.44094488189 356.352 704.25196850394 360.448 700.15748031496 356.352 689.92125984252 350.208 679.68503937008 344.064 671.49606299213 335.872 663.30708661417 325.632 640.7874015748 319.488 636.69291338583 315.392 657.16535433071 307.2 675.5905511811 299.008 691.96850393701 294.912 708.34645669291 301.056 712.44094488189 Z "/>
<path id="p18" fill="rgb(156,130,107)" d="M 174.08 632.59842519685 L 182.272 628.50393700787 190.464 626.45669291339 204.8 624.4094488189 215.04 626.45669291339 208.896 618.26771653543 192.512 618.26771653543 180.224 624.4094488189 174.08 632.59842519685 Z "/>
<path id="p19" fill="rgb(156,130,107)" d="M 176.128 341.88976377953 L 161.792 327.55905511811 155.648 305.03937007874 167.936 319.37007874016 159.744 290.70866141732 167.936 300.94488188976 159.744 278.42519685039 165.888 282.51968503937 161.792 257.95275590551 172.032 268.18897637795 172.032 233.38582677165 178.176 260 184.32 225.1968503937 184.32 253.85826771654 194.56 225.1968503937 190.464 255.90551181102 194.56 270.23622047244 188.416 264.09448818898 190.464 282.51968503937 182.272 262.04724409449 182.272 286.61417322835 176.128 268.18897637795 178.176 296.85039370079 169.984 278.42519685039 178.176 307.08661417323 167.936 307.08661417323 184.32 331.65354330709 172.032 327.55905511811 176.128 341.88976377953 Z "/>
<path id="p20" fill="rgb(255,204,127)" d="M 190.464 640.7874015748 L 196.608 632.59842519685 204.8 630.55118110236 217.088 632.59842519685 221.184 644.88188976378 215.04 651.02362204724 204.8 653.07086614173 190.464 640.7874015748 Z "/>
<path id="p21" fill="rgb(255,204,127)" d="M 294.912 648.97637795276 L 290.816 640.7874015748 290.816 630.55118110236 299.008 628.50393700787 307.2 630.55118110236 315.392 648.97637795276 305.152 653.07086614173 294.912 648.97637795276 Z "/>
<path id="p22" fill="rgb(156,130,107)" d="M 116.736 593.70078740157 L 86.016 552.75590551181 106.496 565.03937007874 83.968 540.47244094488 108.544 550.70866141732 94.208 534.33070866142 108.544 542.51968503937 102.4 526.14173228346 116.736 536.37795275591 112.64 520 124.928 530.23622047244 122.88 513.85826771654 137.216 522.04724409449 135.168 505.66929133858 145.408 515.90551181102 147.456 501.57480314961 157.696 513.85826771654 155.648 499.52755905512 163.84 507.71653543307 167.936 497.48031496063 176.128 503.62204724409 196.608 503.62204724409 192.512 515.90551181102 176.128 526.14173228346 169.984 540.47244094488 157.696 528.18897637795 161.792 540.47244094488 149.504 534.33070866142 153.6 550.70866141732 139.264 542.51968503937 145.408 552.75590551181 133.12 546.61417322835 141.312 560.94488188976 129.024 554.8031496063 139.264 571.1811023622 124.928 560.94488188976 135.168 579.37007874016 124.928 569.13385826772 129.024 581.41732283465 116.736 577.32283464567 116.736 593.70078740157 Z "/>
<path id="p23" fill="rgb(156,130,107)" d="M 169.984 618.26771653543 L 155.648 618.26771653543 137.216 612.12598425197 153.6 610.07874015748 133.12 599.84251968504 155.648 601.88976377953 133.12 591.65354330709 155.648 593.70078740157 139.264 583.46456692913 157.696 585.51181102362 143.36 577.32283464567 163.84 579.37007874016 147.456 567.08661417323 163.84 571.1811023622 155.648 558.89763779528 174.08 569.13385826772 188.416 573.22834645669 178.176 579.37007874016 190.464 583.46456692913 176.128 587.55905511811 186.368 589.6062992126 174.08 593.70078740157 190.464 597.79527559055 202.752 597.79527559055 215.04 589.6062992126 219.136 605.9842519685 208.896 612.12598425197 188.416 616.22047244094 169.984 618.26771653543 Z "/>
<path id="p24" fill="rgb(156,130,107)" d="M 223.232 622.36220472441 L 227.328 610.07874015748 223.232 597.79527559055 231.424 587.55905511811 239.616 595.74803149606 239.616 614.17322834646 233.472 620.31496062992 223.232 622.36220472441 Z "/>
<path id="p25" fill="rgb(156,130,107)" d="M 249.856 517.95275590551 L 260.096 522.04724409449 274.432 520 278.528 515.90551181102 274.432 513.85826771654 266.24 517.95275590551 253.952 515.90551181102 249.856 517.95275590551 Z "/>
<path id="p26" fill="rgb(156,130,107)" d="M 159.744 724.72440944882 L 167.936 714.48818897638 163.84 712.44094488189 167.936 706.29921259843 159.744 704.25196850394 167.936 698.11023622047 159.744 694.0157480315 165.888 685.82677165354 155.648 683.77952755906 159.744 679.68503937008 151.552 677.63779527559 167.936 673.54330708661 178.176 677.63779527559 169.984 681.73228346457 186.368 685.82677165354 176.128 687.87401574803 186.368 694.0157480315 180.224 698.11023622047 188.416 704.25196850394 176.128 710.3937007874 184.32 716.53543307087 176.128 720.62992125984 182.272 726.77165354331 159.744 724.72440944882 Z "/>
<path id="p27" fill="rgb(156,130,107)" d="M 167.936 745.1968503937 L 188.416 739.05511811024 161.792 737.00787401575 184.32 728.8188976378 165.888 728.8188976378 192.512 722.67716535433 190.464 726.77165354331 206.848 718.58267716535 206.848 726.77165354331 219.136 712.44094488189 221.184 722.67716535433 227.328 698.11023622047 231.424 710.3937007874 235.52 687.87401574803 239.616 700.15748031496 243.712 669.44881889764 247.808 685.82677165354 253.952 661.25984251968 258.048 683.77952755906 264.192 659.2125984252 266.24 679.68503937008 274.432 661.25984251968 272.384 689.92125984252 280.576 681.73228346457 272.384 704.25196850394 280.576 698.11023622047 272.384 714.48818897638 258.048 739.05511811024 276.48 726.77165354331 270.336 741.10236220472 282.624 732.91338582677 276.48 745.1968503937 290.816 743.14960629921 270.336 757.48031496063 237.568 767.71653543307 192.512 767.71653543307 159.744 757.48031496063 188.416 755.43307086614 163.84 751.33858267717 184.32 747.24409448819 167.936 745.1968503937 Z "/>
<path id="p28" fill="rgb(156,130,107)" d="M 290.816 300.94488188976 L 270.336 315.27559055118 253.952 323.46456692913 235.52 329.6062992126 225.28 319.37007874016 241.664 321.41732283465 260.096 311.1811023622 276.48 296.85039370079 249.856 300.94488188976 235.52 294.8031496063 231.424 284.56692913386 247.808 292.75590551181 284.672 282.51968503937 247.808 278.42519685039 227.328 260 194.56 260 208.896 280.47244094488 212.992 298.89763779528 225.28 311.1811023622 204.8 307.08661417323 212.992 321.41732283465 231.424 337.79527559055 249.856 339.84251968504 270.336 335.74803149606 288.768 321.41732283465 296.96 309.13385826772 305.152 288.66141732283 290.816 300.94488188976 Z "/>
<path id="p29" fill="rgb(156,130,107)" d="M 235.52 264.09448818898 L 256 272.28346456693 280.576 270.23622047244 292.864 251.81102362205 274.432 257.95275590551 256 260 235.52 264.09448818898 Z "/>
<path id="p30" fill="rgb(156,130,107)" d="M 233.472 345.9842519685 L 266.24 343.93700787402 286.72 331.65354330709 301.056 319.37007874016 294.912 341.88976377953 280.576 352.12598425197 262.144 356.22047244094 233.472 345.9842519685 Z "/>
<path id="p31" fill="rgb(156,130,107)" d="M 208.896 241.57480314961 L 221.184 251.81102362205 239.616 253.85826771654 268.288 251.81102362205 237.568 247.71653543307 223.232 237.48031496063 208.896 241.57480314961 Z "/>
<path id="p32" fill="rgb(156,130,107)" d="M 104.448 286.61417322835 L 71.68 321.41732283465 81.92 292.75590551181 47.104 321.41732283465 63.488 284.56692913386 38.912 290.70866141732 57.344 274.33070866142 34.816 276.37795275591 51.2 268.18897637795 75.776 260 79.872 241.57480314961 90.112 225.1968503937 96.256 178.11023622047 98.304 131.02362204724 104.448 108.50393700787 122.88 61.417322834646 122.88 118.74015748032 108.544 243.62204724409 96.256 276.37795275591 104.448 286.61417322835 Z "/>
<path id="p33" fill="rgb(156,130,107)" d="M 4.096 34.803149606299 L 18.432 28.661417322835 28.672 30.708661417323 36.864 53.228346456693 40.96 34.803149606299 53.248 30.708661417323 63.488 49.133858267717 71.68 34.803149606299 79.872 34.803149606299 86.016 49.133858267717 96.256 36.850393700787 108.544 42.992125984252 120.832 49.133858267717 110.592 24.566929133858 14.336 16.377952755906 4.096 34.803149606299 Z "/>
<path id="p34" fill="rgb(156,130,107)" d="M 14.336 65.511811023622 L 38.912 73.700787401575 51.2 85.984251968504 36.864 81.889763779528 47.104 98.267716535433 57.344 112.59842519685 47.104 112.59842519685 55.296 124.88188976378 47.104 133.07086614173 51.2 143.30708661417 40.96 169.92125984252 30.72 212.91338582677 24.576 239.52755905512 18.432 270.23622047244 20.48 323.46456692913 6.144 272.28346456693 10.24 245.66929133858 30.72 151.49606299213 34.816 112.59842519685 22.528 77.795275590551 14.336 65.511811023622 Z "/>
<path id="p35" fill="rgb(156,130,107)" d="M 22.528 317.32283464567 L 30.72 307.08661417323 51.2 296.85039370079 36.864 315.27559055118 22.528 317.32283464567 Z "/>
<path id="p36" fill="rgb(156,130,107)" d="M 26.624 341.88976377953 L 38.912 335.74803149606 65.536 315.27559055118 47.104 341.88976377953 32.768 354.17322834646 30.72 391.02362204724 49.152 477.00787401575 63.488 532.28346456693 49.152 499.52755905512 28.672 431.96850393701 16.384 393.07086614173 26.624 341.88976377953 Z "/>
<path id="p37" fill="rgb(156,130,107)" d="M 413.696 260 L 399.36 251.81102362205 407.552 247.71653543307 395.264 241.57480314961 403.456 241.57480314961 389.12 231.33858267717 401.408 231.33858267717 391.168 221.10236220472 385.024 202.67716535433 409.6 223.14960629921 397.312 223.14960629921 411.648 235.43307086614 403.456 237.48031496063 417.792 243.62204724409 409.6 251.81102362205 417.792 255.90551181102 413.696 260 Z "/>
<path id="p38" fill="rgb(131,84,51)" d="M 309.248 343.93700787402 L 337.92 345.9842519685 366.592 319.37007874016 387.072 276.37795275591 382.976 243.62204724409 366.592 217.00787401575 360.448 241.57480314961 362.496 274.33070866142 350.208 302.99212598425 333.824 309.13385826772 337.92 266.14173228346 321.536 239.52755905512 299.008 169.92125984252 296.96 122.83464566929 272.384 112.59842519685 292.864 196.53543307087 315.392 247.71653543307 313.344 288.66141732283 309.248 343.93700787402 Z "/>
<path id="p39" fill="rgb(131,84,51)" d="M 186.368 509.76377952756 L 194.56 483.14960629921 198.656 464.72440944882 212.992 477.00787401575 219.136 462.67716535433 223.232 472.91338582677 227.328 456.53543307087 235.52 468.8188976378 241.664 454.48818897638 245.76 466.77165354331 256 450.3937007874 258.048 462.67716535433 272.384 444.25196850394 270.336 464.72440944882 280.576 446.29921259843 280.576 468.8188976378 290.816 446.29921259843 301.056 399.2125984252 311.296 386.92913385827 303.104 438.11023622047 288.768 487.24409448819 253.952 483.14960629921 215.04 487.24409448819 186.368 509.76377952756 Z "/>
<path id="p40" fill="rgb(156,130,107)" d="M 63.488 663.30708661417 L 47.104 673.54330708661 53.248 675.5905511811 40.96 689.92125984252 47.104 694.0157480315 43.008 706.29921259843 45.056 720.62992125984 51.2 732.91338582677 49.152 714.48818897638 61.44 691.96850393701 53.248 696.06299212598 61.44 677.63779527559 53.248 681.73228346457 63.488 663.30708661417 Z "/>
<path id="p41" fill="rgb(156,130,107)" d="M 301.056 737.00787401575 L 305.152 722.67716535433 317.44 737.00787401575 329.728 747.24409448819 342.016 751.33858267717 358.4 749.29133858268 354.304 757.48031496063 329.728 761.57480314961 301.056 737.00787401575 Z "/>
<path id="p42" fill="rgb(156,130,107)" d="M 370.688 700.15748031496 L 358.4 675.5905511811 346.112 663.30708661417 350.208 646.92913385827 337.92 640.7874015748 337.92 626.45669291339 327.68 624.4094488189 331.776 593.70078740157 350.208 634.64566929134 368.64 675.5905511811 370.688 700.15748031496 Z "/>
<path id="p43" fill="rgb(156,130,107)" d="M 270.336 71.653543307087 L 284.672 67.55905511811 288.768 71.653543307087 290.816 81.889763779528 301.056 79.842519685039 292.864 53.228346456693 272.384 63.464566929134 270.336 71.653543307087 Z "/>
<path id="p44" fill="rgb(156,130,107)" d="M 299.008 53.228346456693 L 309.248 59.370078740158 317.44 67.55905511811 321.536 77.795275590551 327.68 65.511811023622 309.248 51.181102362205 301.056 49.133858267717 299.008 53.228346456693 Z "/>
<path id="p45" fill="rgb(156,130,107)" d="M 202.752 235.43307086614 L 204.8 204.72440944882 192.512 155.5905511811 176.128 120.7874015748 159.744 100.31496062992 147.456 71.653543307087 149.504 102.36220472441 186.368 184.25196850394 202.752 235.43307086614 Z "/>
<path id="p46" fill="rgb(156,130,107)" d="M 40.96 69.606299212598 L 65.536 79.842519685039 92.16 83.937007874016 110.592 73.700787401575 92.16 63.464566929134 86.016 57.322834645669 77.824 63.464566929134 63.488 57.322834645669 59.392 51.181102362205 47.104 63.464566929134 38.912 57.322834645669 30.72 65.511811023622 40.96 69.606299212598 Z "/>
<path id="p47" fill="rgb(156,130,107)" d="M 159.744 75.748031496063 L 176.128 75.748031496063 188.416 65.511811023622 180.224 47.086614173228 172.032 59.370078740158 159.744 75.748031496063 Z "/>
<path id="p48" fill="rgb(156,130,107)" d="M 190.464 69.606299212598 L 212.992 75.748031496063 239.616 73.700787401575 253.952 55.275590551181 247.808 49.133858267717 237.568 61.417322834646 229.376 61.417322834646 221.184 53.228346456693 208.896 61.417322834646 190.464 69.606299212598 Z "/>
<path id="p49" fill="rgb(0,0,0)" d="M 215.04 755.43307086614 L 227.328 743.14960629921 231.424 730.86614173228 231.424 720.62992125984 243.712 710.3937007874 237.568 732.91338582677 229.376 747.24409448819 215.04 755.43307086614 Z "/>
<path id="p50" fill="rgb(0,0,0)" d="M 249.856 724.72440944882 L 256 710.3937007874 260.096 691.96850393701 262.144 710.3937007874 256 720.62992125984 249.856 724.72440944882 Z "/>
<path id="p51" fill="rgb(0,0,0)" d="M 235.52 753.38582677165 L 249.856 741.10236220472 249.856 749.29133858268 231.424 759.52755905512 235.52 753.38582677165 Z "/>
<path id="p52" fill="rgb(255,229,178)" d="M 237.568 427.87401574803 L 219.136 407.40157480315 200.704 384.88188976378 200.704 405.35433070866 184.32 372.59842519685 182.272 393.07086614173 172.032 356.22047244094 180.224 358.26771653543 178.176 339.84251968504 194.56 358.26771653543 190.464 331.65354330709 186.368 309.13385826772 200.704 337.79527559055 198.656 317.32283464567 212.992 341.88976377953 229.376 352.12598425197 212.992 354.17322834646 231.424 366.45669291339 258.048 370.55118110236 284.672 356.22047244094 270.336 374.64566929134 290.816 364.4094488189 274.432 386.92913385827 290.816 380.7874015748 274.432 397.16535433071 286.72 401.25984251969 266.24 409.44881889764 278.528 417.63779527559 258.048 417.63779527559 256 429.92125984252 237.568 411.49606299213 237.568 427.87401574803 Z "/>
<path id="p53" fill="rgb(255,229,178)" d="M 151.552 329.6062992126 L 137.216 309.13385826772 137.216 327.55905511811 120.832 298.89763779528 129.024 302.99212598425 122.88 272.28346456693 143.36 305.03937007874 133.12 270.23622047244 145.408 282.51968503937 137.216 255.90551181102 149.504 268.18897637795 141.312 243.62204724409 149.504 249.76377952756 145.408 233.38582677165 155.648 243.62204724409 147.456 225.1968503937 159.744 227.24409448819 155.648 217.00787401575 167.936 219.05511811024 159.744 186.29921259843 176.128 208.8188976378 176.128 188.34645669291 188.416 219.05511811024 180.224 217.00787401575 178.176 239.52755905512 167.936 227.24409448819 167.936 251.81102362205 157.696 253.85826771654 159.744 274.33070866142 149.504 276.37795275591 157.696 302.99212598425 147.456 296.85039370079 151.552 329.6062992126 Z "/>
<path id="p54" fill="rgb(255,229,178)" d="M 272.384 309.13385826772 L 301.056 284.56692913386 303.104 268.18897637795 296.96 260 282.624 274.33070866142 264.192 276.37795275591 290.816 278.42519685039 282.624 286.61417322835 262.144 294.8031496063 280.576 292.75590551181 272.384 309.13385826772 Z "/>
<path id="p55" fill="rgb(255,229,178)" d="M 272.384 245.66929133858 L 256 245.66929133858 237.568 241.57480314961 227.328 233.38582677165 256 237.48031496063 272.384 245.66929133858 Z "/>
<path id="p56" fill="rgb(255,229,178)" d="M 247.808 225.1968503937 L 223.232 221.10236220472 210.944 208.8188976378 202.752 155.5905511811 188.416 133.07086614173 174.08 110.55118110236 169.984 94.173228346457 182.272 83.937007874016 198.656 81.889763779528 192.512 92.125984251968 206.848 92.125984251968 196.608 102.36220472441 210.944 104.4094488189 198.656 110.55118110236 221.184 114.64566929134 202.752 120.7874015748 223.232 122.83464566929 204.8 128.97637795276 225.28 131.02362204724 215.04 137.16535433071 225.28 141.25984251969 219.136 145.35433070866 231.424 149.44881889764 215.04 153.54330708661 233.472 159.68503937008 215.04 163.77952755906 235.52 169.92125984252 219.136 176.06299212598 235.52 178.11023622047 221.184 180.15748031496 239.616 184.25196850394 223.232 188.34645669291 239.616 194.48818897638 223.232 194.48818897638 241.664 200.62992125984 229.376 204.72440944882 241.664 208.8188976378 233.472 210.86614173228 243.712 214.96062992126 235.52 219.05511811024 247.808 225.1968503937 Z "/>
<path id="p57" fill="rgb(255,229,178)" d="M 161.792 34.803149606299 L 151.552 45.03937007874 151.552 57.322834645669 155.648 69.606299212598 163.84 61.417322834646 169.984 51.181102362205 167.936 42.992125984252 161.792 34.803149606299 Z "/>
<path id="p58" fill="rgb(255,229,178)" d="M 186.368 36.850393700787 L 190.464 51.181102362205 198.656 57.322834645669 210.944 53.228346456693 215.04 42.992125984252 210.944 30.708661417323 202.752 20.472440944882 192.512 26.614173228347 186.368 36.850393700787 Z "/>
<path id="p59" fill="rgb(255,229,178)" d="M 225.28 53.228346456693 L 233.472 57.322834645669 241.664 49.133858267717 239.616 36.850393700787 231.424 24.566929133858 227.328 38.897637795276 225.28 53.228346456693 Z "/>
<path id="p60" fill="rgb(255,229,178)" d="M 258.048 55.275590551181 L 251.904 47.086614173228 253.952 28.661417322835 258.048 24.566929133858 264.192 40.944881889764 264.192 49.133858267717 258.048 55.275590551181 Z "/>
<path id="p61" fill="rgb(255,229,178)" d="M 61.44 464.72440944882 L 49.152 440.15748031496 40.96 407.40157480315 47.104 382.83464566929 59.392 354.17322834646 75.776 333.70078740157 83.968 350.07874015748 83.968 323.46456692913 94.208 341.88976377953 94.208 315.27559055118 106.496 337.79527559055 106.496 315.27559055118 124.928 337.79527559055 120.832 319.37007874016 139.264 343.93700787402 149.504 331.65354330709 143.36 356.22047244094 157.696 345.9842519685 141.312 370.55118110236 157.696 366.45669291339 143.36 382.83464566929 159.744 376.69291338583 139.264 397.16535433071 155.648 407.40157480315 131.072 407.40157480315 118.784 421.73228346457 118.784 401.25984251969 108.544 417.63779527559 102.4 399.2125984252 94.208 429.92125984252 90.112 407.40157480315 79.872 438.11023622047 73.728 427.87401574803 73.728 448.34645669291 61.44 440.15748031496 61.44 464.72440944882 Z "/>
<path id="p62" fill="rgb(255,229,178)" d="M 90.112 513.85826771654 L 83.968 499.52755905512 92.16 501.57480314961 88.064 472.91338582677 98.304 489.29133858268 98.304 458.58267716535 108.544 472.91338582677 106.496 444.25196850394 122.88 460.62992125984 124.928 434.0157480315 131.072 442.20472440945 135.168 421.73228346457 143.36 438.11023622047 151.552 419.68503937008 157.696 436.06299212598 163.84 405.35433070866 174.08 427.87401574803 184.32 407.40157480315 190.464 423.77952755906 200.704 409.44881889764 202.752 425.82677165354 212.992 421.73228346457 215.04 434.0157480315 233.472 436.06299212598 208.896 446.29921259843 194.56 458.58267716535 192.512 440.15748031496 184.32 464.72440944882 178.176 448.34645669291 167.936 474.96062992126 153.6 454.48818897638 147.456 477.00787401575 139.264 462.67716535433 137.216 487.24409448819 126.976 477.00787401575 126.976 497.48031496063 118.784 483.14960629921 114.688 507.71653543307 106.496 489.29133858268 106.496 517.95275590551 100.352 505.66929133858 96.256 524.09448818898 90.112 513.85826771654 Z "/>
<path id="p63" fill="rgb(255,229,178)" d="M 26.624 337.79527559055 L 38.912 331.65354330709 73.728 307.08661417323 45.056 323.46456692913 32.768 325.51181102362 45.056 315.27559055118 24.576 321.41732283465 26.624 329.6062992126 32.768 329.6062992126 26.624 337.79527559055 Z "/>
<path id="p64" fill="rgb(255,229,178)" d="M 20.48 307.08661417323 L 28.672 296.85039370079 51.2 290.70866141732 55.296 294.8031496063 38.912 300.94488188976 20.48 307.08661417323 Z "/>
<path id="p65" fill="rgb(255,229,178)" d="M 18.432 278.42519685039 L 28.672 284.56692913386 51.2 278.42519685039 26.624 278.42519685039 18.432 278.42519685039 Z "/>
<path id="p66" fill="rgb(255,229,178)" d="M 67.584 257.95275590551 L 53.248 262.04724409449 36.864 260 51.2 255.90551181102 36.864 251.81102362205 55.296 247.71653543307 36.864 241.57480314961 55.296 237.48031496063 38.912 233.38582677165 59.392 227.24409448819 43.008 223.14960629921 59.392 214.96062992126 43.008 210.86614173228 61.44 204.72440944882 45.056 200.62992125984 63.488 192.44094488189 49.152 190.3937007874 65.536 182.20472440945 47.104 180.15748031496 69.632 169.92125984252 53.248 167.87401574803 75.776 159.68503937008 65.536 155.5905511811 79.872 147.40157480315 67.584 147.40157480315 79.872 137.16535433071 69.632 137.16535433071 81.92 128.97637795276 69.632 131.02362204724 81.92 122.83464566929 69.632 122.83464566929 83.968 112.59842519685 67.584 112.59842519685 81.92 104.4094488189 67.584 100.31496062992 79.872 98.267716535433 67.584 90.07874015748 86.016 90.07874015748 110.592 81.889763779528 100.352 90.07874015748 106.496 94.173228346457 96.256 104.4094488189 102.4 104.4094488189 92.16 114.64566929134 100.352 114.64566929134 92.16 122.83464566929 98.304 122.83464566929 92.16 133.07086614173 94.208 153.54330708661 92.16 194.48818897638 88.064 219.05511811024 73.728 245.66929133858 67.584 257.95275590551 Z "/>
<path id="p67" fill="rgb(255,229,178)" d="M 14.336 47.086614173228 L 18.432 61.417322834646 28.672 61.417322834646 34.816 45.03937007874 22.528 34.803149606299 14.336 47.086614173228 Z "/>
<path id="p68" fill="rgb(255,229,178)" d="M 90.112 55.275590551181 L 100.352 61.417322834646 106.496 53.228346456693 100.352 40.944881889764 90.112 55.275590551181 Z "/>
<path id="p69" fill="rgb(255,229,178)" d="M 65.536 49.133858267717 L 75.776 57.322834645669 81.92 47.086614173228 73.728 40.944881889764 65.536 49.133858267717 Z "/>
<path id="p70" fill="rgb(255,229,178)" d="M 284.672 96.220472440945 L 296.96 104.4094488189 315.392 104.4094488189 323.584 96.220472440945 315.392 81.889763779528 311.296 67.55905511811 296.96 63.464566929134 305.152 83.937007874016 301.056 92.125984251968 288.768 85.984251968504 284.672 73.700787401575 278.528 79.842519685039 278.528 85.984251968504 284.672 96.220472440945 Z "/>
<path id="p71" fill="rgb(255,229,178)" d="M 425.984 249.76377952756 L 440.32 249.76377952756 434.176 257.95275590551 450.56 249.76377952756 458.752 241.57480314961 460.8 219.05511811024 458.752 200.62992125984 450.56 182.20472440945 425.984 165.82677165354 421.888 149.44881889764 415.744 157.63779527559 407.552 135.11811023622 403.456 147.40157480315 399.36 128.97637795276 395.264 139.2125984252 389.12 120.7874015748 389.12 133.07086614173 378.88 114.64566929134 372.736 128.97637795276 368.64 114.64566929134 352.256 122.83464566929 364.544 124.88188976378 360.448 139.2125984252 380.928 141.25984251969 368.64 151.49606299213 385.024 151.49606299213 376.832 159.68503937008 391.168 161.73228346457 380.928 167.87401574803 399.36 178.11023622047 382.976 186.29921259843 403.456 190.3937007874 393.216 194.48818897638 411.648 200.62992125984 397.312 206.77165354331 415.744 212.91338582677 405.504 217.00787401575 423.936 225.1968503937 409.6 229.29133858268 428.032 237.48031496063 417.792 237.48031496063 434.176 243.62204724409 425.984 249.76377952756 Z "/>
<path id="p72" fill="rgb(255,229,178)" d="M 217.088 522.04724409449 L 217.088 511.81102362205 223.232 509.76377952756 227.328 505.66929133858 235.52 509.76377952756 235.52 503.62204724409 243.712 507.71653543307 241.664 499.52755905512 251.904 499.52755905512 262.144 499.52755905512 272.384 505.66929133858 278.528 513.85826771654 278.528 520 270.336 526.14173228346 241.664 517.95275590551 229.376 517.95275590551 217.088 522.04724409449 Z "/>
<path id="p73" fill="rgb(255,229,178)" d="M 219.136 546.61417322835 L 206.848 554.8031496063 200.704 571.1811023622 215.04 581.41732283465 227.328 579.37007874016 243.712 571.1811023622 247.808 558.89763779528 241.664 550.70866141732 231.424 544.56692913386 219.136 546.61417322835 Z "/>
<path id="p74" fill="rgb(255,229,178)" d="M 303.104 562.99212598425 L 296.96 554.8031496063 299.008 542.51968503937 307.2 538.42519685039 311.296 552.75590551181 309.248 560.94488188976 303.104 562.99212598425 Z "/>
<path id="p75" fill="rgb(255,229,178)" d="M 163.84 667.40157480315 L 143.36 673.54330708661 153.6 661.25984251968 129.024 663.30708661417 147.456 655.11811023622 116.736 655.11811023622 137.216 644.88188976378 116.736 642.83464566929 126.976 638.74015748032 110.592 634.64566929134 124.928 630.55118110236 110.592 622.36220472441 129.024 620.31496062992 108.544 605.9842519685 122.88 608.03149606299 114.688 595.74803149606 141.312 608.03149606299 129.024 612.12598425197 153.6 624.4094488189 143.36 626.45669291339 157.696 632.59842519685 147.456 634.64566929134 159.744 638.74015748032 147.456 644.88188976378 165.888 642.83464566929 159.744 648.97637795276 167.936 651.02362204724 163.84 657.16535433071 176.128 653.07086614173 163.84 667.40157480315 Z "/>
<path id="p76" fill="rgb(255,229,178)" d="M 178.176 665.35433070866 L 186.368 673.54330708661 196.608 677.63779527559 208.896 665.35433070866 200.704 665.35433070866 188.416 657.16535433071 178.176 665.35433070866 Z "/>
<path id="p77" fill="rgb(255,229,178)" d="M 174.08 640.7874015748 L 182.272 630.55118110236 200.704 624.4094488189 217.088 628.50393700787 196.608 630.55118110236 186.368 636.69291338583 174.08 640.7874015748 Z "/>
<path id="p78" fill="rgb(255,229,178)" d="M 235.52 663.30708661417 L 233.472 648.97637795276 227.328 648.97637795276 235.52 626.45669291339 249.856 614.17322834646 249.856 628.50393700787 258.048 618.26771653543 258.048 628.50393700787 268.288 620.31496062992 266.24 632.59842519685 272.384 622.36220472441 268.288 640.7874015748 258.048 655.11811023622 243.712 663.30708661417 235.52 663.30708661417 Z "/>
<path id="p79" fill="rgb(255,229,178)" d="M 296.96 681.73228346457 L 292.864 671.49606299213 301.056 659.2125984252 309.248 659.2125984252 307.2 667.40157480315 296.96 681.73228346457 Z "/>
<path id="p80" fill="rgb(255,229,178)" d="M 53.248 734.96062992126 L 69.632 749.29133858268 88.064 759.52755905512 106.496 759.52755905512 120.832 747.24409448819 96.256 749.29133858268 65.536 734.96062992126 53.248 734.96062992126 Z "/>
<path id="p81" fill="rgb(255,229,178)" d="M 327.68 741.10236220472 L 311.296 726.77165354331 305.152 710.3937007874 315.392 712.44094488189 311.296 718.58267716535 321.536 718.58267716535 317.44 726.77165354331 323.584 724.72440944882 321.536 732.91338582677 329.728 732.91338582677 327.68 741.10236220472 Z "/>
<path id="p82" fill="rgb(0,0,0)" d="M 200.704 540.47244094488 L 215.04 530.23622047244 223.232 530.23622047244 215.04 540.47244094488 231.424 534.33070866142 247.808 534.33070866142 266.24 550.70866141732 262.144 558.89763779528 251.904 569.13385826772 251.904 577.32283464567 262.144 573.22834645669 270.336 562.99212598425 276.48 556.85039370079 290.816 565.03937007874 290.816 573.22834645669 296.96 573.22834645669 296.96 593.70078740157 303.104 573.22834645669 296.96 565.03937007874 278.528 550.70866141732 276.48 542.51968503937 292.864 526.14173228346 303.104 534.33070866142 307.2 530.23622047244 290.816 517.95275590551 272.384 530.23622047244 247.808 524.09448818898 229.376 522.04724409449 210.944 524.09448818898 204.8 515.90551181102 196.608 526.14173228346 200.704 540.47244094488 Z "/>
<path id="p83" fill="rgb(0,0,0)" d="M 299.008 538.42519685039 L 311.296 538.42519685039 311.296 544.56692913386 305.152 544.56692913386 299.008 538.42519685039 Z "/>
<path id="p84" fill="rgb(0,0,0)" d="M 303.104 550.70866141732 L 315.392 552.75590551181 315.392 556.85039370079 305.152 556.85039370079 303.104 550.70866141732 Z "/>
<path id="p85" fill="rgb(0,0,0)" d="M 217.088 550.70866141732 L 221.184 544.56692913386 233.472 542.51968503937 241.664 546.61417322835 217.088 550.70866141732 Z "/>
<path id="p86" fill="rgb(0,0,0)" d="M 221.184 558.89763779528 L 227.328 554.8031496063 237.568 554.8031496063 243.712 558.89763779528 221.184 558.89763779528 Z "/>
<path id="p87" fill="rgb(0,0,0)" d="M 217.088 567.08661417323 L 223.232 565.03937007874 239.616 562.99212598425 235.52 567.08661417323 217.088 567.08661417323 Z "/>
<path id="p88" fill="rgb(0,0,0)" d="M 102.4 728.8188976378 L 83.968 726.77165354331 69.632 712.44094488189 79.872 691.96850393701 100.352 661.25984251968 73.728 675.5905511811 96.256 640.7874015748 112.64 638.74015748032 110.592 659.2125984252 124.928 663.30708661417 151.552 685.82677165354 122.88 673.54330708661 137.216 694.0157480315 116.736 681.73228346457 124.928 698.11023622047 110.592 687.87401574803 122.88 706.29921259843 120.832 720.62992125984 98.304 702.20472440945 106.496 718.58267716535 96.256 714.48818897638 102.4 728.8188976378 Z "/>
<path id="p89" fill="rgb(0,0,0)" d="M 301.056 710.3937007874 L 311.296 696.06299212598 317.44 679.68503937008 329.728 671.49606299213 321.536 683.77952755906 335.872 683.77952755906 323.584 691.96850393701 344.064 689.92125984252 325.632 698.11023622047 335.872 704.25196850394 346.112 704.25196850394 335.872 712.44094488189 346.112 710.3937007874 337.92 722.67716535433 348.16 718.58267716535 348.16 728.8188976378 354.304 720.62992125984 358.4 724.72440944882 360.448 714.48818897638 354.304 706.29921259843 358.4 700.15748031496 352.256 694.0157480315 352.256 685.82677165354 344.064 679.68503937008 348.16 667.40157480315 331.776 663.30708661417 323.584 651.02362204724 317.44 661.25984251968 313.344 677.63779527559 305.152 685.82677165354 301.056 710.3937007874 Z "/>
<path id="p90" fill="rgb(0,0,0)" d="M 317.44 634.64566929134 L 325.632 616.22047244094 321.536 589.6062992126 321.536 571.1811023622 317.44 558.89763779528 307.2 573.22834645669 305.152 589.6062992126 315.392 573.22834645669 311.296 593.70078740157 309.248 610.07874015748 317.44 618.26771653543 317.44 634.64566929134 Z "/>
<path id="p91" fill="rgb(0,0,0)" d="M 229.376 620.31496062992 L 235.52 614.17322834646 233.472 593.70078740157 229.376 601.88976377953 231.424 612.12598425197 229.376 620.31496062992 Z "/>
<path id="p92" fill="rgb(0,0,0)" d="M 159.744 722.67716535433 L 131.072 745.1968503937 118.784 757.48031496063 96.256 761.57480314961 73.728 759.52755905512 57.344 747.24409448819 43.008 726.77165354331 36.864 696.06299212598 40.96 675.5905511811 47.104 655.11811023622 67.584 646.92913385827 57.344 640.7874015748 75.776 628.50393700787 73.728 614.17322834646 88.064 601.88976377953 98.304 595.74803149606 88.064 575.27559055118 81.92 579.37007874016 79.872 595.74803149606 63.488 616.22047244094 61.44 632.59842519685 45.056 634.64566929134 34.816 655.11811023622 28.672 685.82677165354 32.768 722.67716535433 47.104 745.1968503937 67.584 761.57480314961 92.16 767.71653543307 110.592 767.71653543307 133.12 755.43307086614 159.744 722.67716535433 Z "/>
<path id="p93" fill="rgb(0,0,0)" d="M 137.216 743.14960629921 L 155.648 761.57480314961 178.176 769.76377952756 206.848 775.90551181102 241.664 773.85826771654 276.48 763.62204724409 305.152 739.05511811024 305.152 726.77165354331 294.912 741.10236220472 270.336 755.43307086614 247.808 761.57480314961 215.04 765.66929133858 182.272 763.62204724409 155.648 751.33858267717 143.36 739.05511811024 137.216 743.14960629921 Z "/>
<path id="p94" fill="rgb(0,0,0)" d="M 114.688 579.37007874016 L 98.304 562.99212598425 114.688 569.13385826772 96.256 550.70866141732 114.688 554.8031496063 106.496 544.56692913386 116.736 548.66141732283 106.496 532.28346456693 126.976 544.56692913386 118.784 528.18897637795 133.12 536.37795275591 129.024 524.09448818898 141.312 532.28346456693 139.264 520 151.552 524.09448818898 151.552 515.90551181102 161.792 517.95275590551 169.984 509.76377952756 192.512 503.62204724409 190.464 515.90551181102 174.08 520 165.888 530.23622047244 155.648 522.04724409449 153.6 532.28346456693 145.408 526.14173228346 145.408 540.47244094488 135.168 532.28346456693 135.168 540.47244094488 126.976 540.47244094488 131.072 550.70866141732 122.88 548.66141732283 122.88 554.8031496063 116.736 552.75590551181 124.928 565.03937007874 116.736 560.94488188976 122.88 573.22834645669 112.64 571.1811023622 114.688 579.37007874016 Z "/>
<path id="p95" fill="rgb(0,0,0)" d="M 206.848 509.76377952756 L 210.944 497.48031496063 217.088 505.66929133858 217.088 495.43307086614 229.376 501.57480314961 227.328 489.29133858268 235.52 495.43307086614 233.472 487.24409448819 243.712 489.29133858268 256 483.14960629921 268.288 489.29133858268 276.48 497.48031496063 286.72 505.66929133858 286.72 515.90551181102 292.864 503.62204724409 296.96 474.96062992126 307.2 429.92125984252 305.152 403.30708661417 296.96 442.20472440945 288.768 472.91338582677 278.528 479.05511811024 270.336 470.86614173228 268.288 474.96062992126 258.048 468.8188976378 256 472.91338582677 247.808 468.8188976378 239.616 477.00787401575 227.328 468.8188976378 225.28 477.00787401575 215.04 474.96062992126 212.992 483.14960629921 200.704 472.91338582677 196.608 497.48031496063 192.512 509.76377952756 192.512 513.85826771654 200.704 509.76377952756 206.848 509.76377952756 Z "/>
<path id="p96" fill="rgb(0,0,0)" d="M 83.968 587.55905511811 L 65.536 554.8031496063 47.104 509.76377952756 24.576 446.29921259843 12.288 391.02362204724 14.336 335.74803149606 10.24 296.85039370079 6.144 274.33070866142 18.432 309.13385826772 24.576 348.03149606299 24.576 401.25984251969 36.864 452.44094488189 53.248 505.66929133858 71.68 554.8031496063 88.064 577.32283464567 83.968 587.55905511811 Z "/>
<path id="p97" fill="rgb(0,0,0)" d="M 65.536 276.37795275591 L 83.968 268.18897637795 102.4 253.85826771654 106.496 233.38582677165 108.544 176.06299212598 108.544 118.74015748032 120.832 63.464566929134 110.592 36.850393700787 104.448 32.755905511811 90.112 30.708661417323 86.016 42.992125984252 81.92 18.425196850394 110.592 18.425196850394 120.832 30.708661417323 126.976 57.322834645669 145.408 59.370078740158 153.6 94.173228346457 149.504 104.4094488189 135.168 128.97637795276 139.264 161.73228346457 131.072 178.11023622047 137.216 190.3937007874 129.024 194.48818897638 129.024 208.8188976378 120.832 217.00787401575 118.784 233.38582677165 114.688 243.62204724409 102.4 274.33070866142 86.016 298.89763779528 90.112 276.37795275591 65.536 296.85039370079 71.68 280.47244094488 65.536 276.37795275591 Z "/>
<path id="p98" fill="rgb(0,0,0)" d="M 274.432 116.69291338583 L 299.008 124.88188976378 325.632 120.7874015748 354.304 110.55118110236 366.592 90.07874015748 366.592 65.511811023622 352.256 53.228346456693 323.584 49.133858267717 348.16 63.464566929134 356.352 77.795275590551 348.16 98.267716535433 333.824 108.50393700787 311.296 112.59842519685 274.432 106.45669291339 274.432 116.69291338583 Z "/>
<path id="p99" fill="rgb(0,0,0)" d="M 354.304 85.984251968504 L 374.784 96.220472440945 376.832 88.031496062992 391.168 106.45669291339 397.312 100.31496062992 407.552 118.74015748032 413.696 114.64566929134 421.888 128.97637795276 428.032 124.88188976378 436.224 147.40157480315 452.608 159.68503937008 466.944 174.0157480315 475.136 188.34645669291 479.232 208.8188976378 477.184 229.29133858268 471.04 243.62204724409 460.8 255.90551181102 448.512 262.04724409449 425.984 264.09448818898 405.504 264.09448818898 430.08 270.23622047244 456.704 268.18897637795 475.136 253.85826771654 485.376 237.48031496063 487.424 212.91338582677 487.424 184.25196850394 475.136 155.5905511811 452.608 118.74015748032 446.464 94.173228346457 434.176 79.842519685039 409.6 65.511811023622 364.544 67.55905511811 354.304 85.984251968504 Z "/>
<path id="p100" fill="rgb(0,0,0)" d="M 337.92 174.0157480315 L 323.584 163.77952755906 319.488 145.35433070866 319.488 118.74015748032 331.776 116.69291338583 325.632 128.97637795276 331.776 149.44881889764 331.776 157.63779527559 337.92 174.0157480315 Z "/>
<path id="p101" fill="rgb(0,0,0)" d="M 202.752 264.09448818898 L 215.04 280.47244094488 219.136 300.94488188976 235.52 313.22834645669 247.808 313.22834645669 268.288 298.89763779528 249.856 302.99212598425 231.424 298.89763779528 223.232 276.37795275591 247.808 290.70866141732 272.384 282.51968503937 247.808 282.51968503937 225.28 266.14173228346 202.752 264.09448818898 Z "/>
<path id="p102" fill="rgb(0,0,0)" d="M 239.616 264.09448818898 L 253.952 274.33070866142 274.432 270.23622047244 278.528 262.04724409449 258.048 264.09448818898 239.616 264.09448818898 Z "/>
<path id="p103" fill="rgb(0,0,0)" d="M 239.616 333.70078740157 L 270.336 321.41732283465 294.912 302.99212598425 286.72 319.37007874016 270.336 331.65354330709 239.616 333.70078740157 Z "/>
<path id="p104" fill="rgb(0,0,0)" d="M 249.856 345.9842519685 L 274.432 341.88976377953 292.864 327.55905511811 288.768 343.93700787402 270.336 350.07874015748 249.856 345.9842519685 Z "/>
<path id="p105" fill="rgb(0,0,0)" d="M 141.312 59.370078740158 L 143.36 36.850393700787 155.648 16.377952755906 176.128 6.1417322834646 198.656 4.0944881889764 221.184 4.0944881889764 245.76 8.1889763779528 262.144 6.1417322834646 270.336 16.377952755906 276.48 40.944881889764 272.384 47.086614173228 270.336 30.708661417323 260.096 12.283464566929 247.808 14.330708661417 247.808 38.897637795276 243.712 28.661417322835 239.616 14.330708661417 225.28 10.236220472441 225.28 38.897637795276 219.136 49.133858267717 217.088 20.472440944882 212.992 12.283464566929 198.656 10.236220472441 184.32 12.283464566929 184.32 26.614173228347 176.128 38.897637795276 169.984 34.803149606299 176.128 24.566929133858 174.08 16.377952755906 159.744 22.51968503937 149.504 38.897637795276 145.408 61.417322834646 141.312 59.370078740158 Z "/>
<path id="p106" fill="rgb(0,0,0)" d="M 204.8 42.992125984252 L 196.608 36.850393700787 202.752 24.566929133858 208.896 34.803149606299 204.8 42.992125984252 Z "/>
<path id="p107" fill="rgb(0,0,0)" d="M 235.52 42.992125984252 L 229.376 36.850393700787 233.472 24.566929133858 239.616 34.803149606299 235.52 42.992125984252 Z "/>
<path id="p108" fill="rgb(0,0,0)" d="M 260.096 38.897637795276 L 256 34.803149606299 258.048 24.566929133858 262.144 32.755905511811 260.096 38.897637795276 Z "/>
<path id="p109" fill="rgb(0,0,0)" d="M 10.24 257.95275590551 L 14.336 214.96062992126 22.528 157.63779527559 30.72 124.88188976378 26.624 96.220472440945 12.288 67.55905511811 4.096 57.322834645669 0 36.850393700787 10.24 18.425196850394 24.576 14.330708661417 51.2 18.425196850394 77.824 18.425196850394 90.112 24.566929133858 86.016 28.661417322835 73.728 26.614173228347 63.488 24.566929133858 61.44 42.992125984252 55.296 26.614173228347 40.96 22.51968503937 32.768 40.944881889764 30.72 26.614173228347 20.48 24.566929133858 6.144 30.708661417323 6.144 45.03937007874 12.288 59.370078740158 22.528 67.55905511811 34.816 102.36220472441 38.912 133.07086614173 24.576 184.25196850394 18.432 219.05511811024 10.24 257.95275590551 Z "/>
<path id="p110" fill="rgb(0,0,0)" d="M 20.48 47.086614173228 L 14.336 38.897637795276 20.48 30.708661417323 22.528 38.897637795276 20.48 47.086614173228 Z "/>
<path id="p111" fill="rgb(0,0,0)" d="M 51.2 49.133858267717 L 45.056 42.992125984252 49.152 30.708661417323 55.296 42.992125984252 51.2 49.133858267717 Z "/>
<path id="p112" fill="rgb(0,0,0)" d="M 75.776 49.133858267717 L 69.632 40.944881889764 73.728 32.755905511811 77.824 40.944881889764 75.776 49.133858267717 Z "/>
<path id="p113" fill="rgb(0,0,0)" d="M 100.352 51.181102362205 L 94.208 45.03937007874 96.256 34.803149606299 102.4 42.992125984252 100.352 51.181102362205 Z "/>
<path id="p114" fill="rgb(0,0,0)" d="M 266.24 573.22834645669 L 270.336 571.1811023622 276.48 573.22834645669 284.672 571.1811023622 292.864 569.13385826772 290.816 573.22834645669 280.576 575.27559055118 272.384 575.27559055118 266.24 573.22834645669 Z "/>
<path id="p115" fill="rgb(0,0,0)" d="M 217.088 681.73228346457 L 215.04 673.54330708661 221.184 665.35433070866 223.232 673.54330708661 217.088 681.73228346457 Z "/>
<path id="p116" fill="rgb(0,0,0)" d="M 284.672 673.54330708661 L 284.672 665.35433070866 286.72 657.16535433071 290.816 661.25984251968 288.768 665.35433070866 284.672 673.54330708661 Z "/>
<path id="p117" fill="rgb(0,0,0)" d="M 51.2 65.511811023622 L 59.392 61.417322834646 61.44 53.228346456693 67.584 63.464566929134 75.776 67.55905511811 86.016 61.417322834646 92.16 69.606299212598 100.352 73.700787401575 90.112 77.795275590551 73.728 73.700787401575 51.2 65.511811023622 Z "/>
<path id="p118" fill="rgb(0,0,0)" d="M 200.704 69.606299212598 L 215.04 61.417322834646 219.136 55.275590551181 223.232 65.511811023622 235.52 65.511811023622 245.76 57.322834645669 241.664 65.511811023622 231.424 71.653543307087 212.992 71.653543307087 200.704 69.606299212598 Z "/>
<path id="p119" fill="rgb(0,0,0)" d="M 169.984 67.55905511811 L 178.176 59.370078740158 178.176 49.133858267717 182.272 61.417322834646 178.176 67.55905511811 169.984 67.55905511811 Z "/>
<path id="p120" fill="rgb(0,0,0)" d="M 317.44 560.94488188976 L 333.824 560.94488188976 348.16 560.94488188976 380.928 558.89763779528 358.4 556.85039370079 317.44 556.85039370079 317.44 560.94488188976 Z "/>
<path id="p121" fill="rgb(0,0,0)" d="M 313.344 546.61417322835 L 331.776 548.66141732283 358.4 550.70866141732 393.216 546.61417322835 354.304 546.61417322835 315.392 544.56692913386 313.344 546.61417322835 Z "/>
<path id="p122" fill="rgb(0,0,0)" d="M 311.296 538.42519685039 L 335.872 534.33070866142 368.64 528.18897637795 403.456 515.90551181102 346.112 528.18897637795 309.248 534.33070866142 311.296 538.42519685039 Z "/>
<path id="p123" fill="rgb(0,0,0)" d="M 139.264 556.85039370079 L 178.176 562.99212598425 219.136 562.99212598425 217.088 558.89763779528 180.224 558.89763779528 139.264 556.85039370079 Z "/>
<path id="p124" fill="rgb(0,0,0)" d="M 215.04 552.75590551181 L 194.56 550.70866141732 161.792 546.61417322835 145.408 542.51968503937 174.08 544.56692913386 208.896 548.66141732283 215.04 552.75590551181 Z "/>
<path id="p125" fill="rgb(0,0,0)" d="M 221.184 573.22834645669 L 200.704 577.32283464567 178.176 577.32283464567 159.744 577.32283464567 190.464 575.27559055118 215.04 571.1811023622 221.184 573.22834645669 Z "/>
<path id="p126" fill="rgb(0,0,0)" d="M 174.08 651.02362204724 L 186.368 651.02362204724 198.656 657.16535433071 212.992 657.16535433071 221.184 653.07086614173 227.328 638.74015748032 229.376 626.45669291339 225.28 628.50393700787 221.184 634.64566929134 210.944 630.55118110236 217.088 638.74015748032 215.04 646.92913385827 210.944 648.97637795276 210.944 642.83464566929 208.896 636.69291338583 202.752 636.69291338583 198.656 644.88188976378 192.512 642.83464566929 198.656 632.59842519685 180.224 642.83464566929 172.032 644.88188976378 174.08 651.02362204724 Z "/>
<path id="p127" fill="rgb(0,0,0)" d="M 286.72 628.50393700787 L 288.768 644.88188976378 294.912 655.11811023622 307.2 655.11811023622 319.488 653.07086614173 313.344 636.69291338583 307.2 630.55118110236 311.296 646.92913385827 307.2 646.92913385827 309.248 640.7874015748 305.152 634.64566929134 299.008 634.64566929134 294.912 644.88188976378 292.864 636.69291338583 292.864 628.50393700787 286.72 628.50393700787 Z "/>
<path id="p128" fill="rgb(0,0,0)" d="M 299.008 739.05511811024 L 319.488 757.48031496063 333.824 761.57480314961 352.256 761.57480314961 364.544 751.33858267717 372.736 743.14960629921 376.832 714.48818897638 372.736 694.0157480315 372.736 673.54330708661 362.496 661.25984251968 360.448 642.83464566929 350.208 624.4094488189 337.92 595.74803149606 321.536 565.03937007874 327.68 591.65354330709 335.872 605.9842519685 344.064 620.31496062992 342.016 630.55118110236 354.304 644.88188976378 352.256 653.07086614173 358.4 659.2125984252 356.352 667.40157480315 362.496 671.49606299213 368.64 685.82677165354 370.688 720.62992125984 366.592 737.00787401575 354.304 753.38582677165 339.968 757.48031496063 325.632 753.38582677165 313.344 743.14960629921 303.104 732.91338582677 299.008 739.05511811024 Z "/>
<path id="p129" fill="rgb(0,0,0)" d="M 307.2 397.16535433071 L 303.104 348.03149606299 307.2 302.99212598425 313.344 274.33070866142 303.104 233.38582677165 276.48 200.62992125984 256 167.87401574803 278.528 182.20472440945 268.288 139.2125984252 249.856 108.50393700787 249.856 73.700787401575 264.192 59.370078740158 272.384 45.03937007874 272.384 28.661417322835 280.576 45.03937007874 303.104 51.181102362205 286.72 63.464566929134 268.288 69.606299212598 264.192 83.937007874016 270.336 100.31496062992 286.72 108.50393700787 280.576 120.7874015748 286.72 157.63779527559 315.392 237.48031496063 321.536 280.47244094488 317.44 323.46456692913 329.728 329.6062992126 358.4 311.1811023622 380.928 274.33070866142 378.88 247.71653543307 360.448 217.00787401575 364.544 192.44094488189 378.88 212.91338582677 385.024 245.66929133858 401.408 262.04724409449 387.072 296.85039370079 356.352 343.93700787402 307.2 397.16535433071 Z "/>
<path id="p130" fill="rgb(0,0,0)" d="M 301.056 88.031496062992 L 290.816 81.889763779528 292.864 73.700787401575 288.768 55.275590551181 301.056 77.795275590551 301.056 88.031496062992 Z "/>
<path id="p131" fill="rgb(0,0,0)" d="M 321.536 79.842519685039 L 319.488 65.511811023622 307.2 51.181102362205 321.536 57.322834645669 333.824 71.653543307087 331.776 79.842519685039 321.536 79.842519685039 Z "/>
<path id="p132" fill="rgb(0,0,0)" d="M 202.752 237.48031496063 L 196.608 198.58267716535 188.416 167.87401574803 149.504 85.984251968504 149.504 98.267716535433 178.176 165.82677165354 202.752 237.48031496063 Z "/>
<path id="p133" fill="rgb(0,0,255)" d="M 0 -0.25 L 1024 -0.25 1024 0.25 0 0.25 Z "/>
<path id="p134" fill="rgb(0,0,255)" d="M 0 1023.75 L 1024 1023.75 1024 1024.25 0 1024.25 Z "/>
<path id="p135" fill="rgb(0,0,255)" d="M -0.25 0 L -0.25 1024 0.25 1024 0.25 0 Z "/>
<path id="p136" fill="rgb(0,0,255)" d="M 1023.75 0 L 1023.75 1024 1024.25 1024 1024.25 0 Z "/>
<path id="p137" fill="rgb(0,0,255)" d="M 0 511.75 L 1024 511.75 1024 512.25 0 512.25 Z "/>
<path id="p138" fill="rgb(0,0,255)" d="M 511.75 0 L 511.75 1024 512.25 1024 512.25 0 Z "/>
<path id="p139" fill="rgb(0,0,255)" d="M 0 255.75 L 512 255.75 512 256.25 0 256.25 Z "/>
<path id="p140" fill="rgb(0,0,255)" d="M 255.75 0 L 255.75 512 256.25 512 256.25 0 Z "/>
<path id="p141" fill="rgb(0,0,255)" d="M 0 127.75 L 256 127.75 256 128.25 0 128.25 Z "/>
<path id="p142" fill="rgb(0,0,255)" d="M 127.75 0 L 127.75 256 128.25 256 128.25 0 Z "/>
<path id="p143" fill="rgb(0,0,255)" d="M 0 63.75 L 128 63.75 128 64.25 0 64.25 Z "/>
<path id="p144" fill="rgb(0,0,255)" d="M 63.75 0 L 63.75 128 64.25 128 64.25 0 Z "/>
<path id="p145" fill="rgb(0,0,255)" d="M 128 63.75 L 256 63.75 256 64.25 128 64.25 Z "/>
<path id="p146" fill="rgb(0,0,255)" d="M 191.75 0 L 191.75 128 192.25 128 192.25 0 Z "/>
<path id="p147" fill="rgb(0,0,255)" d="M 0 191.75 L 128 191.75 128 192.25 0 192.25 Z "/>
<path id="p148" fill="rgb(0,0,255)" d="M 63.75 128 L 63.75 256 64.25 256 64.25 128 Z "/>
<path id="p149" fill="rgb(0,0,255)" d="M 128 191.75 L 256 191.75 256 192.25 128 192.25 Z "/>
<path id="p150" fill="rgb(0,0,255)" d="M 191.75 128 L 191.75 256 192.25 256 192.25 128 Z "/>
<path id="p151" fill="rgb(0,0,255)" d="M 256 127.75 L 512 127.75 512 128.25 256 128.25 Z "/>
<path id="p152" fill="rgb(0,0,255)" d="M 383.75 0 L 383.75 256 384.25 256 384.25 0 Z "/>
<path id="p153" fill="rgb(0,0,255)" d="M 256 63.75 L 384 63.75 384 64.25 256 64.25 Z "/>
<path id="p154" fill="rgb(0,0,255)" d="M 319.75 0 L 319.75 128 320.25 128 320.25 0 Z "/>
<path id="p155" fill="rgb(0,0,255)" d="M 384 63.75 L 512 63.75 512 64.25 384 64.25 Z "/>
<path id="p156" fill="rgb(0,0,255)" d="M 447.75 0 L 447.75 128 448.25 128 448.25 0 Z "/>
<path id="p157" fill="rgb(0,0,255)" d="M 256 191.75 L 384 191.75 384 192.25 256 192.25 Z "/>
<path id="p158" fill="rgb(0,0,255)" d="M 319.75 128 L 319.75 256 320.25 256 320.25 128 Z "/>
<path id="p159" fill="rgb(0,0,255)" d="M 384 191.75 L 512 191.75 512 192.25 384 192.25 Z "/>
<path id="p160" fill="rgb(0,0,255)" d="M 447.75 128 L 447.75 256 448.25 256 448.25 128 Z "/>
<path id="p161" fill="rgb(0,0,255)" d="M 0 383.75 L 256 383.75 256 384.25 0 384.25 Z "/>
<path id="p162" fill="rgb(0,0,255)" d="M 127.75 256 L 127.75 512 128.25 512 128.25 256 Z "/>
<path id="p163" fill="rgb(0,0,255)" d="M 0 319.75 L 128 319.75 128 320.25 0 320.25 Z "/>
<path id="p164" fill="rgb(0,0,255)" d="M 63.75 256 L 63.75 384 64.25 384 64.25 256 Z "/>
<path id="p165" fill="rgb(0,0,255)" d="M 128 319.75 L 256 319.75 256 320.25 128 320.25 Z "/>
<path id="p166" fill="rgb(0,0,255)" d="M 191.75 256 L 191.75 384 192.25 384 192.25 256 Z "/>
<path id="p167" fill="rgb(0,0,255)" d="M 0 447.75 L 128 447.75 128 448.25 0 448.25 Z "/>
<path id="p168" fill="rgb(0,0,255)" d="M 63.75 384 L 63.75 512 64.25 512 64.25 384 Z "/>
<path id="p169" fill="rgb(0,0,255)" d="M 128 447.75 L 256 447.75 256 448.25 128 448.25 Z "/>
<path id="p170" fill="rgb(0,0,255)" d="M 191.75 384 L 191.75 512 192.25 512 192.25 384 Z "/>
<path id="p171" fill="rgb(0,0,255)" d="M 256 383.75 L 512 383.75 512 384.25 256 384.25 Z "/>
<path id="p172" fill="rgb(0,0,255)" d="M 383.75 256 L 383.75 512 384.25 512 384.25 256 Z "/>
<path id="p173" fill="rgb(0,0,255)" d="M 256 319.75 L 384 319.75 384 320.25 256 320.25 Z "/>
<path id="p174" fill="rgb(0,0,255)" d="M 319.75 256 L 319.75 384 320.25 384 320.25 256 Z "/>
<path id="p175" fill="rgb(0,0,255)" d="M 384 319.75 L 512 319.75 512 320.25 384 320.25 Z "/>
<path id="p176" fill="rgb(0,0,255)" d="M 447.75 256 L 447.75 384 448.25 384 448.25 256 Z "/>
<path id="p177" fill="rgb(0,0,255)" d="M 256 447.75 L 384 447.75 384 448.25 256 448.25 Z "/>
<path id="p178" fill="rgb(0,0,255)" d="M 319.75 384 L 319.75 512 320.25 512 320.25 384 Z "/>
<path id="p179" fill="rgb(0,0,255)" d="M 0 767.75 L 512 767.75 512 768.25 0 768.25 Z "/>
<path id="p180" fill="rgb(0,0,255)" d="M 255.75 512 L 255.75 1024 256.25 1024 256.25 512 Z "/>
<path id="p181" fill="rgb(0,0,255)" d="M 0 639.75 L 256 639.75 256 640.25 0 640.25 Z "/>
<path id="p182" fill="rgb(0,0,255)" d="M 127.75 512 L 127.75 768 128.25 768 128.25 512 Z "/>
<path id="p183" fill="rgb(0,0,255)" d="M 0 575.75 L 128 575.75 128 576.25 0 576.25 Z "/>
<path id="p184" fill="rgb(0,0,255)" d="M 63.75 512 L 63.75 640 64.25 640 64.25 512 Z "/>
<path id="p185" fill="rgb(0,0,255)" d="M 128 575.75 L 256 575.75 256 576.25 128 576.25 Z "/>
<path id="p186" fill="rgb(0,0,255)" d="M 191.75 512 L 191.75 640 192.25 640 192.25 512 Z "/>
<path id="p187" fill="rgb(0,0,255)" d="M 0 703.75 L 128 703.75 128 704.25 0 704.25 Z "/>
<path id="p188" fill="rgb(0,0,255)" d="M 63.75 640 L 63.75 768 64.25 768 64.25 640 Z "/>
<path id="p189" fill="rgb(0,0,255)" d="M 128 703.75 L 256 703.75 256 704.25 128 704.25 Z "/>
<path id="p190" fill="rgb(0,0,255)" d="M 191.75 640 L 191.75 768 192.25 768 192.25 640 Z "/>
<path id="p191" fill="rgb(0,0,255)" d="M 256 639.75 L 512 639.75 512 640.25 256 640.25 Z "/>
<path id="p192" fill="rgb(0,0,255)" d="M 383.75 512 L 383.75 768 384.25 768 384.25 512 Z "/>
<path id="p193" fill="rgb(0,0,255)" d="M 256 575.75 L 384 575.75 384 576.25 256 576.25 Z "/>
<path id="p194" fill="rgb(0,0,255)" d="M 319.75 512 L 319.75 640 320.25 640 320.25 512 Z "/>
<path id="p195" fill="rgb(0,0,255)" d="M 384 575.75 L 512 575.75 512 576.25 384 576.25 Z "/>
<path id="p196" fill="rgb(0,0,255)" d="M 447.75 512 L 447.75 640 448.25 640 448.25 512 Z "/>
<path id="p197" fill="rgb(0,0,255)" d="M 256 703.75 L 384 703.75 384 704.25 256 704.25 Z "/>
<path id="p198" fill="rgb(0,0,255)" d="M 319.75 640 L 319.75 768 320.25 768 320.25 640 Z "/>
<path id="p199" fill="rgb(0,0,255)" d="M 0 895.75 L 256 895.75 256 896.25 0 896.25 Z "/>
<path id="p200" fill="rgb(0,0,255)" d="M 127.75 768 L 127.75 1024 128.25 1024 128.25 768 Z "/>
<path id="p201" fill="rgb(0,0,255)" d="M 128 831.75 L 256 831.75 256 832.25 128 832.25 Z "/>
<path id="p202" fill="rgb(0,0,255)" d="M 191.75 768 L 191.75 896 192.25 896 192.25 768 Z "/>
<path id="p203" fill="rgb(0,0,255)" d="M 256 895.75 L 512 895.75 512 896.25 256 896.25 Z "/>
<path id="p204" fill="rgb(0,0,255)" d="M 383.75 768 L 383.75 1024 384.25 1024 384.25 768 Z "/>
<path id="p205" fill="rgb(0,0,255)" d="M 256 831.75 L 384 831.75 384 832.25 256 832.25 Z "/>
<path id="p206" fill="rgb(0,0,255)" d="M 319.75 768 L 319.75 896 320.25 896 320.25 768 Z "/>
</g>
</svg>
