<?xml version="1.0" standalone="no"?>
<svg
    xmlns:xlink="http://www.w3.org/1999/xlink"
    xmlns:dc="http://purl.org/dc/elements/1.1/"
    xmlns:cc="http://creativecommons.org/ns#"
    xmlns:rdf="http://www.w3.org/1999/02/22-rdf-syntax-ns#"
    xmlns:svg="http://www.w3.org/2000/svg"
    xmlns="http://www.w3.org/2000/svg"
    version="1.1"
    viewBox="0 0 512 512">
<defs>
<radialGradient id="radial1" gradientUnits="userSpaceOnUse" cx="100" cy="100" fx="150" fy="100" r="100" spreadMethod="pad">
<stop offset="0" stop-color="rgb(255,0,0)" stop-opacity="1"/>
<stop offset="1" stop-color="rgb(0,255,0)" stop-opacity="1"/>
</radialGradient>
</defs>
<g transform="translate(0, 512) scale(1, -1)">
<path id="p1" fill="url(#radial1)" d="M 256 512 A 256 255.99999999869 90.000930871794 0 1 1.3120695073705e-09 256 256 255.99999999869 89.990006864238 0 1 34.29749663232 128 256 255.99999999869 90.002482297897 0 1 256 0 256 255.99999999869 89.999379385194 0 1 477.70250336768 128 256 255.99999999869 90.001619073683 0 1 511.99999999869 256 256 255.99999999869 90.002792464152 0 1 256 512 Z "/>
<path id="p2" fill="rgb(0,0,255)" d="M 0 -0.25 L 512 -0.25 512 0.25 0 0.25 Z "/>
<path id="p3" fill="rgb(0,0,255)" d="M 0 511.75 L 512 511.75 512 512.25 0 512.25 Z "/>
<path id="p4" fill="rgb(0,0,255)" d="M -0.25 0 L -0.25 512 0.25 512 0.25 0 Z "/>
<path id="p5" fill="rgb(0,0,255)" d="M 511.75 0 L 511.75 512 512.25 512 512.25 0 Z "/>
<path id="p6" fill="rgb(0,0,255)" d="M 0 255.75 L 512 255.75 512 256.25 0 256.25 Z "/>
<path id="p7" fill="rgb(0,0,255)" d="M 255.75 0 L 255.75 512 256.25 512 256.25 0 Z "/>
<path id="p8" fill="rgb(0,0,255)" d="M 0 127.75 L 256 127.75 256 128.25 0 128.25 Z "/>
<path id="p9" fill="rgb(0,0,255)" d="M 127.75 0 L 127.75 256 128.25 256 128.25 0 Z "/>
<path id="p10" fill="rgb(0,0,255)" d="M 0 63.75 L 128 63.75 128 64.25 0 64.25 Z "/>
<path id="p11" fill="rgb(0,0,255)" d="M 63.75 0 L 63.75 128 64.25 128 64.25 0 Z "/>
<path id="p12" fill="rgb(0,0,255)" d="M 64 31.75 L 128 31.75 128 32.25 64 32.25 Z "/>
<path id="p13" fill="rgb(0,0,255)" d="M 95.75 0 L 95.75 64 96.25 64 96.25 0 Z "/>
<path id="p14" fill="rgb(0,0,255)" d="M 64 47.75 L 96 47.75 96 48.25 64 48.25 Z "/>
<path id="p15" fill="rgb(0,0,255)" d="M 79.75 32 L 79.75 64 80.25 64 80.25 32 Z "/>
<path id="p16" fill="rgb(0,0,255)" d="M 80 55.75 L 96 55.75 96 56.25 80 56.25 Z "/>
<path id="p17" fill="rgb(0,0,255)" d="M 87.75 48 L 87.75 64 88.25 64 88.25 48 Z "/>
<path id="p18" fill="rgb(0,0,255)" d="M 80 59.75 L 88 59.75 88 60.25 80 60.25 Z "/>
<path id="p19" fill="rgb(0,0,255)" d="M 83.75 56 L 83.75 64 84.25 64 84.25 56 Z "/>
<path id="p20" fill="rgb(0,0,255)" d="M 88 59.75 L 96 59.75 96 60.25 88 60.25 Z "/>
<path id="p21" fill="rgb(0,0,255)" d="M 91.75 56 L 91.75 64 92.25 64 92.25 56 Z "/>
<path id="p22" fill="rgb(0,0,255)" d="M 96 47.75 L 128 47.75 128 48.25 96 48.25 Z "/>
<path id="p23" fill="rgb(0,0,255)" d="M 111.75 32 L 111.75 64 112.25 64 112.25 32 Z "/>
<path id="p24" fill="rgb(0,0,255)" d="M 96 39.75 L 112 39.75 112 40.25 96 40.25 Z "/>
<path id="p25" fill="rgb(0,0,255)" d="M 103.75 32 L 103.75 48 104.25 48 104.25 32 Z "/>
<path id="p26" fill="rgb(0,0,255)" d="M 104 43.75 L 112 43.75 112 44.25 104 44.25 Z "/>
<path id="p27" fill="rgb(0,0,255)" d="M 107.75 40 L 107.75 48 108.25 48 108.25 40 Z "/>
<path id="p28" fill="rgb(0,0,255)" d="M 112 39.75 L 128 39.75 128 40.25 112 40.25 Z "/>
<path id="p29" fill="rgb(0,0,255)" d="M 119.75 32 L 119.75 48 120.25 48 120.25 32 Z "/>
<path id="p30" fill="rgb(0,0,255)" d="M 112 35.75 L 120 35.75 120 36.25 112 36.25 Z "/>
<path id="p31" fill="rgb(0,0,255)" d="M 115.75 32 L 115.75 40 116.25 40 116.25 32 Z "/>
<path id="p32" fill="rgb(0,0,255)" d="M 120 35.75 L 128 35.75 128 36.25 120 36.25 Z "/>
<path id="p33" fill="rgb(0,0,255)" d="M 123.75 32 L 123.75 40 124.25 40 124.25 32 Z "/>
<path id="p34" fill="rgb(0,0,255)" d="M 112 43.75 L 120 43.75 120 44.25 112 44.25 Z "/>
<path id="p35" fill="rgb(0,0,255)" d="M 115.75 40 L 115.75 48 116.25 48 116.25 40 Z "/>
<path id="p36" fill="rgb(0,0,255)" d="M 96 55.75 L 112 55.75 112 56.25 96 56.25 Z "/>
<path id="p37" fill="rgb(0,0,255)" d="M 103.75 48 L 103.75 64 104.25 64 104.25 48 Z "/>
<path id="p38" fill="rgb(0,0,255)" d="M 96 51.75 L 104 51.75 104 52.25 96 52.25 Z "/>
<path id="p39" fill="rgb(0,0,255)" d="M 99.75 48 L 99.75 56 100.25 56 100.25 48 Z "/>
<path id="p40" fill="rgb(0,0,255)" d="M 104 51.75 L 112 51.75 112 52.25 104 52.25 Z "/>
<path id="p41" fill="rgb(0,0,255)" d="M 107.75 48 L 107.75 56 108.25 56 108.25 48 Z "/>
<path id="p42" fill="rgb(0,0,255)" d="M 96 59.75 L 104 59.75 104 60.25 96 60.25 Z "/>
<path id="p43" fill="rgb(0,0,255)" d="M 99.75 56 L 99.75 64 100.25 64 100.25 56 Z "/>
<path id="p44" fill="rgb(0,0,255)" d="M 0 95.75 L 64 95.75 64 96.25 0 96.25 Z "/>
<path id="p45" fill="rgb(0,0,255)" d="M 31.75 64 L 31.75 128 32.25 128 32.25 64 Z "/>
<path id="p46" fill="rgb(0,0,255)" d="M 32 79.75 L 64 79.75 64 80.25 32 80.25 Z "/>
<path id="p47" fill="rgb(0,0,255)" d="M 47.75 64 L 47.75 96 48.25 96 48.25 64 Z "/>
<path id="p48" fill="rgb(0,0,255)" d="M 48 87.75 L 64 87.75 64 88.25 48 88.25 Z "/>
<path id="p49" fill="rgb(0,0,255)" d="M 55.75 80 L 55.75 96 56.25 96 56.25 80 Z "/>
<path id="p50" fill="rgb(0,0,255)" d="M 56 83.75 L 64 83.75 64 84.25 56 84.25 Z "/>
<path id="p51" fill="rgb(0,0,255)" d="M 59.75 80 L 59.75 88 60.25 88 60.25 80 Z "/>
<path id="p52" fill="rgb(0,0,255)" d="M 56 91.75 L 64 91.75 64 92.25 56 92.25 Z "/>
<path id="p53" fill="rgb(0,0,255)" d="M 59.75 88 L 59.75 96 60.25 96 60.25 88 Z "/>
<path id="p54" fill="rgb(0,0,255)" d="M 32 111.75 L 64 111.75 64 112.25 32 112.25 Z "/>
<path id="p55" fill="rgb(0,0,255)" d="M 47.75 96 L 47.75 128 48.25 128 48.25 96 Z "/>
<path id="p56" fill="rgb(0,0,255)" d="M 32 103.75 L 48 103.75 48 104.25 32 104.25 Z "/>
<path id="p57" fill="rgb(0,0,255)" d="M 39.75 96 L 39.75 112 40.25 112 40.25 96 Z "/>
<path id="p58" fill="rgb(0,0,255)" d="M 40 107.75 L 48 107.75 48 108.25 40 108.25 Z "/>
<path id="p59" fill="rgb(0,0,255)" d="M 43.75 104 L 43.75 112 44.25 112 44.25 104 Z "/>
<path id="p60" fill="rgb(0,0,255)" d="M 48 103.75 L 64 103.75 64 104.25 48 104.25 Z "/>
<path id="p61" fill="rgb(0,0,255)" d="M 55.75 96 L 55.75 112 56.25 112 56.25 96 Z "/>
<path id="p62" fill="rgb(0,0,255)" d="M 48 99.75 L 56 99.75 56 100.25 48 100.25 Z "/>
<path id="p63" fill="rgb(0,0,255)" d="M 51.75 96 L 51.75 104 52.25 104 52.25 96 Z "/>
<path id="p64" fill="rgb(0,0,255)" d="M 56 99.75 L 64 99.75 64 100.25 56 100.25 Z "/>
<path id="p65" fill="rgb(0,0,255)" d="M 59.75 96 L 59.75 104 60.25 104 60.25 96 Z "/>
<path id="p66" fill="rgb(0,0,255)" d="M 48 107.75 L 56 107.75 56 108.25 48 108.25 Z "/>
<path id="p67" fill="rgb(0,0,255)" d="M 51.75 104 L 51.75 112 52.25 112 52.25 104 Z "/>
<path id="p68" fill="rgb(0,0,255)" d="M 32 119.75 L 48 119.75 48 120.25 32 120.25 Z "/>
<path id="p69" fill="rgb(0,0,255)" d="M 39.75 112 L 39.75 128 40.25 128 40.25 112 Z "/>
<path id="p70" fill="rgb(0,0,255)" d="M 32 115.75 L 40 115.75 40 116.25 32 116.25 Z "/>
<path id="p71" fill="rgb(0,0,255)" d="M 35.75 112 L 35.75 120 36.25 120 36.25 112 Z "/>
<path id="p72" fill="rgb(0,0,255)" d="M 40 115.75 L 48 115.75 48 116.25 40 116.25 Z "/>
<path id="p73" fill="rgb(0,0,255)" d="M 43.75 112 L 43.75 120 44.25 120 44.25 112 Z "/>
<path id="p74" fill="rgb(0,0,255)" d="M 32 123.75 L 40 123.75 40 124.25 32 124.25 Z "/>
<path id="p75" fill="rgb(0,0,255)" d="M 35.75 120 L 35.75 128 36.25 128 36.25 120 Z "/>
<path id="p76" fill="rgb(0,0,255)" d="M 64 95.75 L 128 95.75 128 96.25 64 96.25 Z "/>
<path id="p77" fill="rgb(0,0,255)" d="M 95.75 64 L 95.75 128 96.25 128 96.25 64 Z "/>
<path id="p78" fill="rgb(0,0,255)" d="M 64 79.75 L 96 79.75 96 80.25 64 80.25 Z "/>
<path id="p79" fill="rgb(0,0,255)" d="M 79.75 64 L 79.75 96 80.25 96 80.25 64 Z "/>
<path id="p80" fill="rgb(0,0,255)" d="M 64 71.75 L 80 71.75 80 72.25 64 72.25 Z "/>
<path id="p81" fill="rgb(0,0,255)" d="M 71.75 64 L 71.75 80 72.25 80 72.25 64 Z "/>
<path id="p82" fill="rgb(0,0,255)" d="M 72 67.75 L 80 67.75 80 68.25 72 68.25 Z "/>
<path id="p83" fill="rgb(0,0,255)" d="M 75.75 64 L 75.75 72 76.25 72 76.25 64 Z "/>
<path id="p84" fill="rgb(0,0,255)" d="M 64 75.75 L 72 75.75 72 76.25 64 76.25 Z "/>
<path id="p85" fill="rgb(0,0,255)" d="M 67.75 72 L 67.75 80 68.25 80 68.25 72 Z "/>
<path id="p86" fill="rgb(0,0,255)" d="M 72 75.75 L 80 75.75 80 76.25 72 76.25 Z "/>
<path id="p87" fill="rgb(0,0,255)" d="M 75.75 72 L 75.75 80 76.25 80 76.25 72 Z "/>
<path id="p88" fill="rgb(0,0,255)" d="M 80 71.75 L 96 71.75 96 72.25 80 72.25 Z "/>
<path id="p89" fill="rgb(0,0,255)" d="M 87.75 64 L 87.75 80 88.25 80 88.25 64 Z "/>
<path id="p90" fill="rgb(0,0,255)" d="M 80 67.75 L 88 67.75 88 68.25 80 68.25 Z "/>
<path id="p91" fill="rgb(0,0,255)" d="M 83.75 64 L 83.75 72 84.25 72 84.25 64 Z "/>
<path id="p92" fill="rgb(0,0,255)" d="M 64 87.75 L 80 87.75 80 88.25 64 88.25 Z "/>
<path id="p93" fill="rgb(0,0,255)" d="M 71.75 80 L 71.75 96 72.25 96 72.25 80 Z "/>
<path id="p94" fill="rgb(0,0,255)" d="M 64 83.75 L 72 83.75 72 84.25 64 84.25 Z "/>
<path id="p95" fill="rgb(0,0,255)" d="M 67.75 80 L 67.75 88 68.25 88 68.25 80 Z "/>
<path id="p96" fill="rgb(0,0,255)" d="M 128 63.75 L 256 63.75 256 64.25 128 64.25 Z "/>
<path id="p97" fill="rgb(0,0,255)" d="M 191.75 0 L 191.75 128 192.25 128 192.25 0 Z "/>
<path id="p98" fill="rgb(0,0,255)" d="M 128 31.75 L 192 31.75 192 32.25 128 32.25 Z "/>
<path id="p99" fill="rgb(0,0,255)" d="M 159.75 0 L 159.75 64 160.25 64 160.25 0 Z "/>
<path id="p100" fill="rgb(0,0,255)" d="M 128 15.75 L 160 15.75 160 16.25 128 16.25 Z "/>
<path id="p101" fill="rgb(0,0,255)" d="M 143.75 0 L 143.75 32 144.25 32 144.25 0 Z "/>
<path id="p102" fill="rgb(0,0,255)" d="M 128 23.75 L 144 23.75 144 24.25 128 24.25 Z "/>
<path id="p103" fill="rgb(0,0,255)" d="M 135.75 16 L 135.75 32 136.25 32 136.25 16 Z "/>
<path id="p104" fill="rgb(0,0,255)" d="M 128 27.75 L 136 27.75 136 28.25 128 28.25 Z "/>
<path id="p105" fill="rgb(0,0,255)" d="M 131.75 24 L 131.75 32 132.25 32 132.25 24 Z "/>
<path id="p106" fill="rgb(0,0,255)" d="M 136 27.75 L 144 27.75 144 28.25 136 28.25 Z "/>
<path id="p107" fill="rgb(0,0,255)" d="M 139.75 24 L 139.75 32 140.25 32 140.25 24 Z "/>
<path id="p108" fill="rgb(0,0,255)" d="M 144 23.75 L 160 23.75 160 24.25 144 24.25 Z "/>
<path id="p109" fill="rgb(0,0,255)" d="M 151.75 16 L 151.75 32 152.25 32 152.25 16 Z "/>
<path id="p110" fill="rgb(0,0,255)" d="M 144 19.75 L 152 19.75 152 20.25 144 20.25 Z "/>
<path id="p111" fill="rgb(0,0,255)" d="M 147.75 16 L 147.75 24 148.25 24 148.25 16 Z "/>
<path id="p112" fill="rgb(0,0,255)" d="M 152 19.75 L 160 19.75 160 20.25 152 20.25 Z "/>
<path id="p113" fill="rgb(0,0,255)" d="M 155.75 16 L 155.75 24 156.25 24 156.25 16 Z "/>
<path id="p114" fill="rgb(0,0,255)" d="M 144 27.75 L 152 27.75 152 28.25 144 28.25 Z "/>
<path id="p115" fill="rgb(0,0,255)" d="M 147.75 24 L 147.75 32 148.25 32 148.25 24 Z "/>
<path id="p116" fill="rgb(0,0,255)" d="M 160 15.75 L 192 15.75 192 16.25 160 16.25 Z "/>
<path id="p117" fill="rgb(0,0,255)" d="M 175.75 0 L 175.75 32 176.25 32 176.25 0 Z "/>
<path id="p118" fill="rgb(0,0,255)" d="M 160 7.75 L 176 7.75 176 8.25 160 8.25 Z "/>
<path id="p119" fill="rgb(0,0,255)" d="M 167.75 0 L 167.75 16 168.25 16 168.25 0 Z "/>
<path id="p120" fill="rgb(0,0,255)" d="M 160 11.75 L 168 11.75 168 12.25 160 12.25 Z "/>
<path id="p121" fill="rgb(0,0,255)" d="M 163.75 8 L 163.75 16 164.25 16 164.25 8 Z "/>
<path id="p122" fill="rgb(0,0,255)" d="M 168 11.75 L 176 11.75 176 12.25 168 12.25 Z "/>
<path id="p123" fill="rgb(0,0,255)" d="M 171.75 8 L 171.75 16 172.25 16 172.25 8 Z "/>
<path id="p124" fill="rgb(0,0,255)" d="M 176 7.75 L 192 7.75 192 8.25 176 8.25 Z "/>
<path id="p125" fill="rgb(0,0,255)" d="M 183.75 0 L 183.75 16 184.25 16 184.25 0 Z "/>
<path id="p126" fill="rgb(0,0,255)" d="M 176 11.75 L 184 11.75 184 12.25 176 12.25 Z "/>
<path id="p127" fill="rgb(0,0,255)" d="M 179.75 8 L 179.75 16 180.25 16 180.25 8 Z "/>
<path id="p128" fill="rgb(0,0,255)" d="M 184 11.75 L 192 11.75 192 12.25 184 12.25 Z "/>
<path id="p129" fill="rgb(0,0,255)" d="M 187.75 8 L 187.75 16 188.25 16 188.25 8 Z "/>
<path id="p130" fill="rgb(0,0,255)" d="M 160 23.75 L 176 23.75 176 24.25 160 24.25 Z "/>
<path id="p131" fill="rgb(0,0,255)" d="M 167.75 16 L 167.75 32 168.25 32 168.25 16 Z "/>
<path id="p132" fill="rgb(0,0,255)" d="M 160 19.75 L 168 19.75 168 20.25 160 20.25 Z "/>
<path id="p133" fill="rgb(0,0,255)" d="M 163.75 16 L 163.75 24 164.25 24 164.25 16 Z "/>
<path id="p134" fill="rgb(0,0,255)" d="M 128 47.75 L 160 47.75 160 48.25 128 48.25 Z "/>
<path id="p135" fill="rgb(0,0,255)" d="M 143.75 32 L 143.75 64 144.25 64 144.25 32 Z "/>
<path id="p136" fill="rgb(0,0,255)" d="M 128 39.75 L 144 39.75 144 40.25 128 40.25 Z "/>
<path id="p137" fill="rgb(0,0,255)" d="M 135.75 32 L 135.75 48 136.25 48 136.25 32 Z "/>
<path id="p138" fill="rgb(0,0,255)" d="M 128 35.75 L 136 35.75 136 36.25 128 36.25 Z "/>
<path id="p139" fill="rgb(0,0,255)" d="M 131.75 32 L 131.75 40 132.25 40 132.25 32 Z "/>
<path id="p140" fill="rgb(0,0,255)" d="M 192 31.75 L 256 31.75 256 32.25 192 32.25 Z "/>
<path id="p141" fill="rgb(0,0,255)" d="M 223.75 0 L 223.75 64 224.25 64 224.25 0 Z "/>
<path id="p142" fill="rgb(0,0,255)" d="M 192 15.75 L 224 15.75 224 16.25 192 16.25 Z "/>
<path id="p143" fill="rgb(0,0,255)" d="M 207.75 0 L 207.75 32 208.25 32 208.25 0 Z "/>
<path id="p144" fill="rgb(0,0,255)" d="M 192 7.75 L 208 7.75 208 8.25 192 8.25 Z "/>
<path id="p145" fill="rgb(0,0,255)" d="M 199.75 0 L 199.75 16 200.25 16 200.25 0 Z "/>
<path id="p146" fill="rgb(0,0,255)" d="M 192 3.75 L 200 3.75 200 4.25 192 4.25 Z "/>
<path id="p147" fill="rgb(0,0,255)" d="M 195.75 0 L 195.75 8 196.25 8 196.25 0 Z "/>
<path id="p148" fill="rgb(0,0,255)" d="M 200 3.75 L 208 3.75 208 4.25 200 4.25 Z "/>
<path id="p149" fill="rgb(0,0,255)" d="M 203.75 0 L 203.75 8 204.25 8 204.25 0 Z "/>
<path id="p150" fill="rgb(0,0,255)" d="M 192 11.75 L 200 11.75 200 12.25 192 12.25 Z "/>
<path id="p151" fill="rgb(0,0,255)" d="M 195.75 8 L 195.75 16 196.25 16 196.25 8 Z "/>
<path id="p152" fill="rgb(0,0,255)" d="M 208 7.75 L 224 7.75 224 8.25 208 8.25 Z "/>
<path id="p153" fill="rgb(0,0,255)" d="M 215.75 0 L 215.75 16 216.25 16 216.25 0 Z "/>
<path id="p154" fill="rgb(0,0,255)" d="M 208 3.75 L 216 3.75 216 4.25 208 4.25 Z "/>
<path id="p155" fill="rgb(0,0,255)" d="M 211.75 0 L 211.75 8 212.25 8 212.25 0 Z "/>
<path id="p156" fill="rgb(0,0,255)" d="M 216 3.75 L 224 3.75 224 4.25 216 4.25 Z "/>
<path id="p157" fill="rgb(0,0,255)" d="M 219.75 0 L 219.75 8 220.25 8 220.25 0 Z "/>
<path id="p158" fill="rgb(0,0,255)" d="M 224 15.75 L 256 15.75 256 16.25 224 16.25 Z "/>
<path id="p159" fill="rgb(0,0,255)" d="M 239.75 0 L 239.75 32 240.25 32 240.25 0 Z "/>
<path id="p160" fill="rgb(0,0,255)" d="M 224 7.75 L 240 7.75 240 8.25 224 8.25 Z "/>
<path id="p161" fill="rgb(0,0,255)" d="M 231.75 0 L 231.75 16 232.25 16 232.25 0 Z "/>
<path id="p162" fill="rgb(0,0,255)" d="M 224 3.75 L 232 3.75 232 4.25 224 4.25 Z "/>
<path id="p163" fill="rgb(0,0,255)" d="M 227.75 0 L 227.75 8 228.25 8 228.25 0 Z "/>
<path id="p164" fill="rgb(0,0,255)" d="M 232 3.75 L 240 3.75 240 4.25 232 4.25 Z "/>
<path id="p165" fill="rgb(0,0,255)" d="M 235.75 0 L 235.75 8 236.25 8 236.25 0 Z "/>
<path id="p166" fill="rgb(0,0,255)" d="M 240 7.75 L 256 7.75 256 8.25 240 8.25 Z "/>
<path id="p167" fill="rgb(0,0,255)" d="M 247.75 0 L 247.75 16 248.25 16 248.25 0 Z "/>
<path id="p168" fill="rgb(0,0,255)" d="M 240 3.75 L 248 3.75 248 4.25 240 4.25 Z "/>
<path id="p169" fill="rgb(0,0,255)" d="M 243.75 0 L 243.75 8 244.25 8 244.25 0 Z "/>
<path id="p170" fill="rgb(0,0,255)" d="M 248 3.75 L 256 3.75 256 4.25 248 4.25 Z "/>
<path id="p171" fill="rgb(0,0,255)" d="M 251.75 0 L 251.75 8 252.25 8 252.25 0 Z "/>
<path id="p172" fill="rgb(0,0,255)" d="M 0 191.75 L 128 191.75 128 192.25 0 192.25 Z "/>
<path id="p173" fill="rgb(0,0,255)" d="M 63.75 128 L 63.75 256 64.25 256 64.25 128 Z "/>
<path id="p174" fill="rgb(0,0,255)" d="M 0 159.75 L 64 159.75 64 160.25 0 160.25 Z "/>
<path id="p175" fill="rgb(0,0,255)" d="M 31.75 128 L 31.75 192 32.25 192 32.25 128 Z "/>
<path id="p176" fill="rgb(0,0,255)" d="M 0 143.75 L 32 143.75 32 144.25 0 144.25 Z "/>
<path id="p177" fill="rgb(0,0,255)" d="M 15.75 128 L 15.75 160 16.25 160 16.25 128 Z "/>
<path id="p178" fill="rgb(0,0,255)" d="M 16 135.75 L 32 135.75 32 136.25 16 136.25 Z "/>
<path id="p179" fill="rgb(0,0,255)" d="M 23.75 128 L 23.75 144 24.25 144 24.25 128 Z "/>
<path id="p180" fill="rgb(0,0,255)" d="M 24 131.75 L 32 131.75 32 132.25 24 132.25 Z "/>
<path id="p181" fill="rgb(0,0,255)" d="M 27.75 128 L 27.75 136 28.25 136 28.25 128 Z "/>
<path id="p182" fill="rgb(0,0,255)" d="M 24 139.75 L 32 139.75 32 140.25 24 140.25 Z "/>
<path id="p183" fill="rgb(0,0,255)" d="M 27.75 136 L 27.75 144 28.25 144 28.25 136 Z "/>
<path id="p184" fill="rgb(0,0,255)" d="M 16 151.75 L 32 151.75 32 152.25 16 152.25 Z "/>
<path id="p185" fill="rgb(0,0,255)" d="M 23.75 144 L 23.75 160 24.25 160 24.25 144 Z "/>
<path id="p186" fill="rgb(0,0,255)" d="M 16 147.75 L 24 147.75 24 148.25 16 148.25 Z "/>
<path id="p187" fill="rgb(0,0,255)" d="M 19.75 144 L 19.75 152 20.25 152 20.25 144 Z "/>
<path id="p188" fill="rgb(0,0,255)" d="M 24 147.75 L 32 147.75 32 148.25 24 148.25 Z "/>
<path id="p189" fill="rgb(0,0,255)" d="M 27.75 144 L 27.75 152 28.25 152 28.25 144 Z "/>
<path id="p190" fill="rgb(0,0,255)" d="M 16 155.75 L 24 155.75 24 156.25 16 156.25 Z "/>
<path id="p191" fill="rgb(0,0,255)" d="M 19.75 152 L 19.75 160 20.25 160 20.25 152 Z "/>
<path id="p192" fill="rgb(0,0,255)" d="M 32 143.75 L 64 143.75 64 144.25 32 144.25 Z "/>
<path id="p193" fill="rgb(0,0,255)" d="M 47.75 128 L 47.75 160 48.25 160 48.25 128 Z "/>
<path id="p194" fill="rgb(0,0,255)" d="M 32 135.75 L 48 135.75 48 136.25 32 136.25 Z "/>
<path id="p195" fill="rgb(0,0,255)" d="M 39.75 128 L 39.75 144 40.25 144 40.25 128 Z "/>
<path id="p196" fill="rgb(0,0,255)" d="M 32 131.75 L 40 131.75 40 132.25 32 132.25 Z "/>
<path id="p197" fill="rgb(0,0,255)" d="M 35.75 128 L 35.75 136 36.25 136 36.25 128 Z "/>
<path id="p198" fill="rgb(0,0,255)" d="M 0 175.75 L 32 175.75 32 176.25 0 176.25 Z "/>
<path id="p199" fill="rgb(0,0,255)" d="M 15.75 160 L 15.75 192 16.25 192 16.25 160 Z "/>
<path id="p200" fill="rgb(0,0,255)" d="M 0 167.75 L 16 167.75 16 168.25 0 168.25 Z "/>
<path id="p201" fill="rgb(0,0,255)" d="M 7.75 160 L 7.75 176 8.25 176 8.25 160 Z "/>
<path id="p202" fill="rgb(0,0,255)" d="M 8 163.75 L 16 163.75 16 164.25 8 164.25 Z "/>
<path id="p203" fill="rgb(0,0,255)" d="M 11.75 160 L 11.75 168 12.25 168 12.25 160 Z "/>
<path id="p204" fill="rgb(0,0,255)" d="M 8 171.75 L 16 171.75 16 172.25 8 172.25 Z "/>
<path id="p205" fill="rgb(0,0,255)" d="M 11.75 168 L 11.75 176 12.25 176 12.25 168 Z "/>
<path id="p206" fill="rgb(0,0,255)" d="M 16 167.75 L 32 167.75 32 168.25 16 168.25 Z "/>
<path id="p207" fill="rgb(0,0,255)" d="M 23.75 160 L 23.75 176 24.25 176 24.25 160 Z "/>
<path id="p208" fill="rgb(0,0,255)" d="M 16 163.75 L 24 163.75 24 164.25 16 164.25 Z "/>
<path id="p209" fill="rgb(0,0,255)" d="M 19.75 160 L 19.75 168 20.25 168 20.25 160 Z "/>
<path id="p210" fill="rgb(0,0,255)" d="M 0 183.75 L 16 183.75 16 184.25 0 184.25 Z "/>
<path id="p211" fill="rgb(0,0,255)" d="M 7.75 176 L 7.75 192 8.25 192 8.25 176 Z "/>
<path id="p212" fill="rgb(0,0,255)" d="M 8 179.75 L 16 179.75 16 180.25 8 180.25 Z "/>
<path id="p213" fill="rgb(0,0,255)" d="M 11.75 176 L 11.75 184 12.25 184 12.25 176 Z "/>
<path id="p214" fill="rgb(0,0,255)" d="M 8 187.75 L 16 187.75 16 188.25 8 188.25 Z "/>
<path id="p215" fill="rgb(0,0,255)" d="M 11.75 184 L 11.75 192 12.25 192 12.25 184 Z "/>
<path id="p216" fill="rgb(0,0,255)" d="M 0 223.75 L 64 223.75 64 224.25 0 224.25 Z "/>
<path id="p217" fill="rgb(0,0,255)" d="M 31.75 192 L 31.75 256 32.25 256 32.25 192 Z "/>
<path id="p218" fill="rgb(0,0,255)" d="M 0 207.75 L 32 207.75 32 208.25 0 208.25 Z "/>
<path id="p219" fill="rgb(0,0,255)" d="M 15.75 192 L 15.75 224 16.25 224 16.25 192 Z "/>
<path id="p220" fill="rgb(0,0,255)" d="M 0 199.75 L 16 199.75 16 200.25 0 200.25 Z "/>
<path id="p221" fill="rgb(0,0,255)" d="M 7.75 192 L 7.75 208 8.25 208 8.25 192 Z "/>
<path id="p222" fill="rgb(0,0,255)" d="M 0 195.75 L 8 195.75 8 196.25 0 196.25 Z "/>
<path id="p223" fill="rgb(0,0,255)" d="M 3.75 192 L 3.75 200 4.25 200 4.25 192 Z "/>
<path id="p224" fill="rgb(0,0,255)" d="M 8 195.75 L 16 195.75 16 196.25 8 196.25 Z "/>
<path id="p225" fill="rgb(0,0,255)" d="M 11.75 192 L 11.75 200 12.25 200 12.25 192 Z "/>
<path id="p226" fill="rgb(0,0,255)" d="M 0 203.75 L 8 203.75 8 204.25 0 204.25 Z "/>
<path id="p227" fill="rgb(0,0,255)" d="M 3.75 200 L 3.75 208 4.25 208 4.25 200 Z "/>
<path id="p228" fill="rgb(0,0,255)" d="M 0 215.75 L 16 215.75 16 216.25 0 216.25 Z "/>
<path id="p229" fill="rgb(0,0,255)" d="M 7.75 208 L 7.75 224 8.25 224 8.25 208 Z "/>
<path id="p230" fill="rgb(0,0,255)" d="M 0 211.75 L 8 211.75 8 212.25 0 212.25 Z "/>
<path id="p231" fill="rgb(0,0,255)" d="M 3.75 208 L 3.75 216 4.25 216 4.25 208 Z "/>
<path id="p232" fill="rgb(0,0,255)" d="M 0 219.75 L 8 219.75 8 220.25 0 220.25 Z "/>
<path id="p233" fill="rgb(0,0,255)" d="M 3.75 216 L 3.75 224 4.25 224 4.25 216 Z "/>
<path id="p234" fill="rgb(0,0,255)" d="M 0 239.75 L 32 239.75 32 240.25 0 240.25 Z "/>
<path id="p235" fill="rgb(0,0,255)" d="M 15.75 224 L 15.75 256 16.25 256 16.25 224 Z "/>
<path id="p236" fill="rgb(0,0,255)" d="M 0 231.75 L 16 231.75 16 232.25 0 232.25 Z "/>
<path id="p237" fill="rgb(0,0,255)" d="M 7.75 224 L 7.75 240 8.25 240 8.25 224 Z "/>
<path id="p238" fill="rgb(0,0,255)" d="M 0 227.75 L 8 227.75 8 228.25 0 228.25 Z "/>
<path id="p239" fill="rgb(0,0,255)" d="M 3.75 224 L 3.75 232 4.25 232 4.25 224 Z "/>
<path id="p240" fill="rgb(0,0,255)" d="M 0 235.75 L 8 235.75 8 236.25 0 236.25 Z "/>
<path id="p241" fill="rgb(0,0,255)" d="M 3.75 232 L 3.75 240 4.25 240 4.25 232 Z "/>
<path id="p242" fill="rgb(0,0,255)" d="M 0 247.75 L 16 247.75 16 248.25 0 248.25 Z "/>
<path id="p243" fill="rgb(0,0,255)" d="M 7.75 240 L 7.75 256 8.25 256 8.25 240 Z "/>
<path id="p244" fill="rgb(0,0,255)" d="M 0 243.75 L 8 243.75 8 244.25 0 244.25 Z "/>
<path id="p245" fill="rgb(0,0,255)" d="M 3.75 240 L 3.75 248 4.25 248 4.25 240 Z "/>
<path id="p246" fill="rgb(0,0,255)" d="M 0 251.75 L 8 251.75 8 252.25 0 252.25 Z "/>
<path id="p247" fill="rgb(0,0,255)" d="M 3.75 248 L 3.75 256 4.25 256 4.25 248 Z "/>
<path id="p248" fill="rgb(0,0,255)" d="M 256 127.75 L 512 127.75 512 128.25 256 128.25 Z "/>
<path id="p249" fill="rgb(0,0,255)" d="M 383.75 0 L 383.75 256 384.25 256 384.25 0 Z "/>
<path id="p250" fill="rgb(0,0,255)" d="M 256 63.75 L 384 63.75 384 64.25 256 64.25 Z "/>
<path id="p251" fill="rgb(0,0,255)" d="M 319.75 0 L 319.75 128 320.25 128 320.25 0 Z "/>
<path id="p252" fill="rgb(0,0,255)" d="M 256 31.75 L 320 31.75 320 32.25 256 32.25 Z "/>
<path id="p253" fill="rgb(0,0,255)" d="M 287.75 0 L 287.75 64 288.25 64 288.25 0 Z "/>
<path id="p254" fill="rgb(0,0,255)" d="M 256 15.75 L 288 15.75 288 16.25 256 16.25 Z "/>
<path id="p255" fill="rgb(0,0,255)" d="M 271.75 0 L 271.75 32 272.25 32 272.25 0 Z "/>
<path id="p256" fill="rgb(0,0,255)" d="M 256 7.75 L 272 7.75 272 8.25 256 8.25 Z "/>
<path id="p257" fill="rgb(0,0,255)" d="M 263.75 0 L 263.75 16 264.25 16 264.25 0 Z "/>
<path id="p258" fill="rgb(0,0,255)" d="M 256 3.75 L 264 3.75 264 4.25 256 4.25 Z "/>
<path id="p259" fill="rgb(0,0,255)" d="M 259.75 0 L 259.75 8 260.25 8 260.25 0 Z "/>
<path id="p260" fill="rgb(0,0,255)" d="M 264 3.75 L 272 3.75 272 4.25 264 4.25 Z "/>
<path id="p261" fill="rgb(0,0,255)" d="M 267.75 0 L 267.75 8 268.25 8 268.25 0 Z "/>
<path id="p262" fill="rgb(0,0,255)" d="M 272 7.75 L 288 7.75 288 8.25 272 8.25 Z "/>
<path id="p263" fill="rgb(0,0,255)" d="M 279.75 0 L 279.75 16 280.25 16 280.25 0 Z "/>
<path id="p264" fill="rgb(0,0,255)" d="M 272 3.75 L 280 3.75 280 4.25 272 4.25 Z "/>
<path id="p265" fill="rgb(0,0,255)" d="M 275.75 0 L 275.75 8 276.25 8 276.25 0 Z "/>
<path id="p266" fill="rgb(0,0,255)" d="M 280 3.75 L 288 3.75 288 4.25 280 4.25 Z "/>
<path id="p267" fill="rgb(0,0,255)" d="M 283.75 0 L 283.75 8 284.25 8 284.25 0 Z "/>
<path id="p268" fill="rgb(0,0,255)" d="M 288 15.75 L 320 15.75 320 16.25 288 16.25 Z "/>
<path id="p269" fill="rgb(0,0,255)" d="M 303.75 0 L 303.75 32 304.25 32 304.25 0 Z "/>
<path id="p270" fill="rgb(0,0,255)" d="M 288 7.75 L 304 7.75 304 8.25 288 8.25 Z "/>
<path id="p271" fill="rgb(0,0,255)" d="M 295.75 0 L 295.75 16 296.25 16 296.25 0 Z "/>
<path id="p272" fill="rgb(0,0,255)" d="M 288 3.75 L 296 3.75 296 4.25 288 4.25 Z "/>
<path id="p273" fill="rgb(0,0,255)" d="M 291.75 0 L 291.75 8 292.25 8 292.25 0 Z "/>
<path id="p274" fill="rgb(0,0,255)" d="M 296 3.75 L 304 3.75 304 4.25 296 4.25 Z "/>
<path id="p275" fill="rgb(0,0,255)" d="M 299.75 0 L 299.75 8 300.25 8 300.25 0 Z "/>
<path id="p276" fill="rgb(0,0,255)" d="M 304 7.75 L 320 7.75 320 8.25 304 8.25 Z "/>
<path id="p277" fill="rgb(0,0,255)" d="M 311.75 0 L 311.75 16 312.25 16 312.25 0 Z "/>
<path id="p278" fill="rgb(0,0,255)" d="M 304 3.75 L 312 3.75 312 4.25 304 4.25 Z "/>
<path id="p279" fill="rgb(0,0,255)" d="M 307.75 0 L 307.75 8 308.25 8 308.25 0 Z "/>
<path id="p280" fill="rgb(0,0,255)" d="M 312 3.75 L 320 3.75 320 4.25 312 4.25 Z "/>
<path id="p281" fill="rgb(0,0,255)" d="M 315.75 0 L 315.75 8 316.25 8 316.25 0 Z "/>
<path id="p282" fill="rgb(0,0,255)" d="M 312 11.75 L 320 11.75 320 12.25 312 12.25 Z "/>
<path id="p283" fill="rgb(0,0,255)" d="M 315.75 8 L 315.75 16 316.25 16 316.25 8 Z "/>
<path id="p284" fill="rgb(0,0,255)" d="M 320 31.75 L 384 31.75 384 32.25 320 32.25 Z "/>
<path id="p285" fill="rgb(0,0,255)" d="M 351.75 0 L 351.75 64 352.25 64 352.25 0 Z "/>
<path id="p286" fill="rgb(0,0,255)" d="M 320 15.75 L 352 15.75 352 16.25 320 16.25 Z "/>
<path id="p287" fill="rgb(0,0,255)" d="M 335.75 0 L 335.75 32 336.25 32 336.25 0 Z "/>
<path id="p288" fill="rgb(0,0,255)" d="M 320 7.75 L 336 7.75 336 8.25 320 8.25 Z "/>
<path id="p289" fill="rgb(0,0,255)" d="M 327.75 0 L 327.75 16 328.25 16 328.25 0 Z "/>
<path id="p290" fill="rgb(0,0,255)" d="M 320 11.75 L 328 11.75 328 12.25 320 12.25 Z "/>
<path id="p291" fill="rgb(0,0,255)" d="M 323.75 8 L 323.75 16 324.25 16 324.25 8 Z "/>
<path id="p292" fill="rgb(0,0,255)" d="M 328 11.75 L 336 11.75 336 12.25 328 12.25 Z "/>
<path id="p293" fill="rgb(0,0,255)" d="M 331.75 8 L 331.75 16 332.25 16 332.25 8 Z "/>
<path id="p294" fill="rgb(0,0,255)" d="M 336 7.75 L 352 7.75 352 8.25 336 8.25 Z "/>
<path id="p295" fill="rgb(0,0,255)" d="M 343.75 0 L 343.75 16 344.25 16 344.25 0 Z "/>
<path id="p296" fill="rgb(0,0,255)" d="M 336 11.75 L 344 11.75 344 12.25 336 12.25 Z "/>
<path id="p297" fill="rgb(0,0,255)" d="M 339.75 8 L 339.75 16 340.25 16 340.25 8 Z "/>
<path id="p298" fill="rgb(0,0,255)" d="M 344 11.75 L 352 11.75 352 12.25 344 12.25 Z "/>
<path id="p299" fill="rgb(0,0,255)" d="M 347.75 8 L 347.75 16 348.25 16 348.25 8 Z "/>
<path id="p300" fill="rgb(0,0,255)" d="M 336 23.75 L 352 23.75 352 24.25 336 24.25 Z "/>
<path id="p301" fill="rgb(0,0,255)" d="M 343.75 16 L 343.75 32 344.25 32 344.25 16 Z "/>
<path id="p302" fill="rgb(0,0,255)" d="M 344 19.75 L 352 19.75 352 20.25 344 20.25 Z "/>
<path id="p303" fill="rgb(0,0,255)" d="M 347.75 16 L 347.75 24 348.25 24 348.25 16 Z "/>
<path id="p304" fill="rgb(0,0,255)" d="M 352 15.75 L 384 15.75 384 16.25 352 16.25 Z "/>
<path id="p305" fill="rgb(0,0,255)" d="M 367.75 0 L 367.75 32 368.25 32 368.25 0 Z "/>
<path id="p306" fill="rgb(0,0,255)" d="M 352 23.75 L 368 23.75 368 24.25 352 24.25 Z "/>
<path id="p307" fill="rgb(0,0,255)" d="M 359.75 16 L 359.75 32 360.25 32 360.25 16 Z "/>
<path id="p308" fill="rgb(0,0,255)" d="M 352 19.75 L 360 19.75 360 20.25 352 20.25 Z "/>
<path id="p309" fill="rgb(0,0,255)" d="M 355.75 16 L 355.75 24 356.25 24 356.25 16 Z "/>
<path id="p310" fill="rgb(0,0,255)" d="M 360 19.75 L 368 19.75 368 20.25 360 20.25 Z "/>
<path id="p311" fill="rgb(0,0,255)" d="M 363.75 16 L 363.75 24 364.25 24 364.25 16 Z "/>
<path id="p312" fill="rgb(0,0,255)" d="M 360 27.75 L 368 27.75 368 28.25 360 28.25 Z "/>
<path id="p313" fill="rgb(0,0,255)" d="M 363.75 24 L 363.75 32 364.25 32 364.25 24 Z "/>
<path id="p314" fill="rgb(0,0,255)" d="M 368 23.75 L 384 23.75 384 24.25 368 24.25 Z "/>
<path id="p315" fill="rgb(0,0,255)" d="M 375.75 16 L 375.75 32 376.25 32 376.25 16 Z "/>
<path id="p316" fill="rgb(0,0,255)" d="M 368 27.75 L 376 27.75 376 28.25 368 28.25 Z "/>
<path id="p317" fill="rgb(0,0,255)" d="M 371.75 24 L 371.75 32 372.25 32 372.25 24 Z "/>
<path id="p318" fill="rgb(0,0,255)" d="M 376 27.75 L 384 27.75 384 28.25 376 28.25 Z "/>
<path id="p319" fill="rgb(0,0,255)" d="M 379.75 24 L 379.75 32 380.25 32 380.25 24 Z "/>
<path id="p320" fill="rgb(0,0,255)" d="M 352 47.75 L 384 47.75 384 48.25 352 48.25 Z "/>
<path id="p321" fill="rgb(0,0,255)" d="M 367.75 32 L 367.75 64 368.25 64 368.25 32 Z "/>
<path id="p322" fill="rgb(0,0,255)" d="M 368 39.75 L 384 39.75 384 40.25 368 40.25 Z "/>
<path id="p323" fill="rgb(0,0,255)" d="M 375.75 32 L 375.75 48 376.25 48 376.25 32 Z "/>
<path id="p324" fill="rgb(0,0,255)" d="M 376 35.75 L 384 35.75 384 36.25 376 36.25 Z "/>
<path id="p325" fill="rgb(0,0,255)" d="M 379.75 32 L 379.75 40 380.25 40 380.25 32 Z "/>
<path id="p326" fill="rgb(0,0,255)" d="M 384 63.75 L 512 63.75 512 64.25 384 64.25 Z "/>
<path id="p327" fill="rgb(0,0,255)" d="M 447.75 0 L 447.75 128 448.25 128 448.25 0 Z "/>
<path id="p328" fill="rgb(0,0,255)" d="M 384 31.75 L 448 31.75 448 32.25 384 32.25 Z "/>
<path id="p329" fill="rgb(0,0,255)" d="M 415.75 0 L 415.75 64 416.25 64 416.25 0 Z "/>
<path id="p330" fill="rgb(0,0,255)" d="M 384 47.75 L 416 47.75 416 48.25 384 48.25 Z "/>
<path id="p331" fill="rgb(0,0,255)" d="M 399.75 32 L 399.75 64 400.25 64 400.25 32 Z "/>
<path id="p332" fill="rgb(0,0,255)" d="M 384 39.75 L 400 39.75 400 40.25 384 40.25 Z "/>
<path id="p333" fill="rgb(0,0,255)" d="M 391.75 32 L 391.75 48 392.25 48 392.25 32 Z "/>
<path id="p334" fill="rgb(0,0,255)" d="M 384 35.75 L 392 35.75 392 36.25 384 36.25 Z "/>
<path id="p335" fill="rgb(0,0,255)" d="M 387.75 32 L 387.75 40 388.25 40 388.25 32 Z "/>
<path id="p336" fill="rgb(0,0,255)" d="M 392 35.75 L 400 35.75 400 36.25 392 36.25 Z "/>
<path id="p337" fill="rgb(0,0,255)" d="M 395.75 32 L 395.75 40 396.25 40 396.25 32 Z "/>
<path id="p338" fill="rgb(0,0,255)" d="M 392 43.75 L 400 43.75 400 44.25 392 44.25 Z "/>
<path id="p339" fill="rgb(0,0,255)" d="M 395.75 40 L 395.75 48 396.25 48 396.25 40 Z "/>
<path id="p340" fill="rgb(0,0,255)" d="M 400 39.75 L 416 39.75 416 40.25 400 40.25 Z "/>
<path id="p341" fill="rgb(0,0,255)" d="M 407.75 32 L 407.75 48 408.25 48 408.25 32 Z "/>
<path id="p342" fill="rgb(0,0,255)" d="M 400 43.75 L 408 43.75 408 44.25 400 44.25 Z "/>
<path id="p343" fill="rgb(0,0,255)" d="M 403.75 40 L 403.75 48 404.25 48 404.25 40 Z "/>
<path id="p344" fill="rgb(0,0,255)" d="M 400 55.75 L 416 55.75 416 56.25 400 56.25 Z "/>
<path id="p345" fill="rgb(0,0,255)" d="M 407.75 48 L 407.75 64 408.25 64 408.25 48 Z "/>
<path id="p346" fill="rgb(0,0,255)" d="M 400 51.75 L 408 51.75 408 52.25 400 52.25 Z "/>
<path id="p347" fill="rgb(0,0,255)" d="M 403.75 48 L 403.75 56 404.25 56 404.25 48 Z "/>
<path id="p348" fill="rgb(0,0,255)" d="M 408 51.75 L 416 51.75 416 52.25 408 52.25 Z "/>
<path id="p349" fill="rgb(0,0,255)" d="M 411.75 48 L 411.75 56 412.25 56 412.25 48 Z "/>
<path id="p350" fill="rgb(0,0,255)" d="M 408 59.75 L 416 59.75 416 60.25 408 60.25 Z "/>
<path id="p351" fill="rgb(0,0,255)" d="M 411.75 56 L 411.75 64 412.25 64 412.25 56 Z "/>
<path id="p352" fill="rgb(0,0,255)" d="M 416 47.75 L 448 47.75 448 48.25 416 48.25 Z "/>
<path id="p353" fill="rgb(0,0,255)" d="M 431.75 32 L 431.75 64 432.25 64 432.25 32 Z "/>
<path id="p354" fill="rgb(0,0,255)" d="M 416 55.75 L 432 55.75 432 56.25 416 56.25 Z "/>
<path id="p355" fill="rgb(0,0,255)" d="M 423.75 48 L 423.75 64 424.25 64 424.25 48 Z "/>
<path id="p356" fill="rgb(0,0,255)" d="M 416 59.75 L 424 59.75 424 60.25 416 60.25 Z "/>
<path id="p357" fill="rgb(0,0,255)" d="M 419.75 56 L 419.75 64 420.25 64 420.25 56 Z "/>
<path id="p358" fill="rgb(0,0,255)" d="M 424 59.75 L 432 59.75 432 60.25 424 60.25 Z "/>
<path id="p359" fill="rgb(0,0,255)" d="M 427.75 56 L 427.75 64 428.25 64 428.25 56 Z "/>
<path id="p360" fill="rgb(0,0,255)" d="M 384 95.75 L 448 95.75 448 96.25 384 96.25 Z "/>
<path id="p361" fill="rgb(0,0,255)" d="M 415.75 64 L 415.75 128 416.25 128 416.25 64 Z "/>
<path id="p362" fill="rgb(0,0,255)" d="M 416 79.75 L 448 79.75 448 80.25 416 80.25 Z "/>
<path id="p363" fill="rgb(0,0,255)" d="M 431.75 64 L 431.75 96 432.25 96 432.25 64 Z "/>
<path id="p364" fill="rgb(0,0,255)" d="M 416 71.75 L 432 71.75 432 72.25 416 72.25 Z "/>
<path id="p365" fill="rgb(0,0,255)" d="M 423.75 64 L 423.75 80 424.25 80 424.25 64 Z "/>
<path id="p366" fill="rgb(0,0,255)" d="M 424 67.75 L 432 67.75 432 68.25 424 68.25 Z "/>
<path id="p367" fill="rgb(0,0,255)" d="M 427.75 64 L 427.75 72 428.25 72 428.25 64 Z "/>
<path id="p368" fill="rgb(0,0,255)" d="M 432 71.75 L 448 71.75 448 72.25 432 72.25 Z "/>
<path id="p369" fill="rgb(0,0,255)" d="M 439.75 64 L 439.75 80 440.25 80 440.25 64 Z "/>
<path id="p370" fill="rgb(0,0,255)" d="M 432 67.75 L 440 67.75 440 68.25 432 68.25 Z "/>
<path id="p371" fill="rgb(0,0,255)" d="M 435.75 64 L 435.75 72 436.25 72 436.25 64 Z "/>
<path id="p372" fill="rgb(0,0,255)" d="M 432 75.75 L 440 75.75 440 76.25 432 76.25 Z "/>
<path id="p373" fill="rgb(0,0,255)" d="M 435.75 72 L 435.75 80 436.25 80 436.25 72 Z "/>
<path id="p374" fill="rgb(0,0,255)" d="M 440 75.75 L 448 75.75 448 76.25 440 76.25 Z "/>
<path id="p375" fill="rgb(0,0,255)" d="M 443.75 72 L 443.75 80 444.25 80 444.25 72 Z "/>
<path id="p376" fill="rgb(0,0,255)" d="M 432 87.75 L 448 87.75 448 88.25 432 88.25 Z "/>
<path id="p377" fill="rgb(0,0,255)" d="M 439.75 80 L 439.75 96 440.25 96 440.25 80 Z "/>
<path id="p378" fill="rgb(0,0,255)" d="M 440 83.75 L 448 83.75 448 84.25 440 84.25 Z "/>
<path id="p379" fill="rgb(0,0,255)" d="M 443.75 80 L 443.75 88 444.25 88 444.25 80 Z "/>
<path id="p380" fill="rgb(0,0,255)" d="M 448 95.75 L 512 95.75 512 96.25 448 96.25 Z "/>
<path id="p381" fill="rgb(0,0,255)" d="M 479.75 64 L 479.75 128 480.25 128 480.25 64 Z "/>
<path id="p382" fill="rgb(0,0,255)" d="M 448 79.75 L 480 79.75 480 80.25 448 80.25 Z "/>
<path id="p383" fill="rgb(0,0,255)" d="M 463.75 64 L 463.75 96 464.25 96 464.25 64 Z "/>
<path id="p384" fill="rgb(0,0,255)" d="M 448 87.75 L 464 87.75 464 88.25 448 88.25 Z "/>
<path id="p385" fill="rgb(0,0,255)" d="M 455.75 80 L 455.75 96 456.25 96 456.25 80 Z "/>
<path id="p386" fill="rgb(0,0,255)" d="M 448 83.75 L 456 83.75 456 84.25 448 84.25 Z "/>
<path id="p387" fill="rgb(0,0,255)" d="M 451.75 80 L 451.75 88 452.25 88 452.25 80 Z "/>
<path id="p388" fill="rgb(0,0,255)" d="M 448 91.75 L 456 91.75 456 92.25 448 92.25 Z "/>
<path id="p389" fill="rgb(0,0,255)" d="M 451.75 88 L 451.75 96 452.25 96 452.25 88 Z "/>
<path id="p390" fill="rgb(0,0,255)" d="M 448 111.75 L 480 111.75 480 112.25 448 112.25 Z "/>
<path id="p391" fill="rgb(0,0,255)" d="M 463.75 96 L 463.75 128 464.25 128 464.25 96 Z "/>
<path id="p392" fill="rgb(0,0,255)" d="M 448 103.75 L 464 103.75 464 104.25 448 104.25 Z "/>
<path id="p393" fill="rgb(0,0,255)" d="M 455.75 96 L 455.75 112 456.25 112 456.25 96 Z "/>
<path id="p394" fill="rgb(0,0,255)" d="M 448 99.75 L 456 99.75 456 100.25 448 100.25 Z "/>
<path id="p395" fill="rgb(0,0,255)" d="M 451.75 96 L 451.75 104 452.25 104 452.25 96 Z "/>
<path id="p396" fill="rgb(0,0,255)" d="M 456 99.75 L 464 99.75 464 100.25 456 100.25 Z "/>
<path id="p397" fill="rgb(0,0,255)" d="M 459.75 96 L 459.75 104 460.25 104 460.25 96 Z "/>
<path id="p398" fill="rgb(0,0,255)" d="M 456 107.75 L 464 107.75 464 108.25 456 108.25 Z "/>
<path id="p399" fill="rgb(0,0,255)" d="M 459.75 104 L 459.75 112 460.25 112 460.25 104 Z "/>
<path id="p400" fill="rgb(0,0,255)" d="M 464 103.75 L 480 103.75 480 104.25 464 104.25 Z "/>
<path id="p401" fill="rgb(0,0,255)" d="M 471.75 96 L 471.75 112 472.25 112 472.25 96 Z "/>
<path id="p402" fill="rgb(0,0,255)" d="M 464 107.75 L 472 107.75 472 108.25 464 108.25 Z "/>
<path id="p403" fill="rgb(0,0,255)" d="M 467.75 104 L 467.75 112 468.25 112 468.25 104 Z "/>
<path id="p404" fill="rgb(0,0,255)" d="M 464 119.75 L 480 119.75 480 120.25 464 120.25 Z "/>
<path id="p405" fill="rgb(0,0,255)" d="M 471.75 112 L 471.75 128 472.25 128 472.25 112 Z "/>
<path id="p406" fill="rgb(0,0,255)" d="M 464 115.75 L 472 115.75 472 116.25 464 116.25 Z "/>
<path id="p407" fill="rgb(0,0,255)" d="M 467.75 112 L 467.75 120 468.25 120 468.25 112 Z "/>
<path id="p408" fill="rgb(0,0,255)" d="M 472 115.75 L 480 115.75 480 116.25 472 116.25 Z "/>
<path id="p409" fill="rgb(0,0,255)" d="M 475.75 112 L 475.75 120 476.25 120 476.25 112 Z "/>
<path id="p410" fill="rgb(0,0,255)" d="M 472 123.75 L 480 123.75 480 124.25 472 124.25 Z "/>
<path id="p411" fill="rgb(0,0,255)" d="M 475.75 120 L 475.75 128 476.25 128 476.25 120 Z "/>
<path id="p412" fill="rgb(0,0,255)" d="M 384 191.75 L 512 191.75 512 192.25 384 192.25 Z "/>
<path id="p413" fill="rgb(0,0,255)" d="M 447.75 128 L 447.75 256 448.25 256 448.25 128 Z "/>
<path id="p414" fill="rgb(0,0,255)" d="M 448 159.75 L 512 159.75 512 160.25 448 160.25 Z "/>
<path id="p415" fill="rgb(0,0,255)" d="M 479.75 128 L 479.75 192 480.25 192 480.25 128 Z "/>
<path id="p416" fill="rgb(0,0,255)" d="M 448 143.75 L 480 143.75 480 144.25 448 144.25 Z "/>
<path id="p417" fill="rgb(0,0,255)" d="M 463.75 128 L 463.75 160 464.25 160 464.25 128 Z "/>
<path id="p418" fill="rgb(0,0,255)" d="M 464 135.75 L 480 135.75 480 136.25 464 136.25 Z "/>
<path id="p419" fill="rgb(0,0,255)" d="M 471.75 128 L 471.75 144 472.25 144 472.25 128 Z "/>
<path id="p420" fill="rgb(0,0,255)" d="M 472 131.75 L 480 131.75 480 132.25 472 132.25 Z "/>
<path id="p421" fill="rgb(0,0,255)" d="M 475.75 128 L 475.75 136 476.25 136 476.25 128 Z "/>
<path id="p422" fill="rgb(0,0,255)" d="M 480 143.75 L 512 143.75 512 144.25 480 144.25 Z "/>
<path id="p423" fill="rgb(0,0,255)" d="M 495.75 128 L 495.75 160 496.25 160 496.25 128 Z "/>
<path id="p424" fill="rgb(0,0,255)" d="M 480 135.75 L 496 135.75 496 136.25 480 136.25 Z "/>
<path id="p425" fill="rgb(0,0,255)" d="M 487.75 128 L 487.75 144 488.25 144 488.25 128 Z "/>
<path id="p426" fill="rgb(0,0,255)" d="M 480 131.75 L 488 131.75 488 132.25 480 132.25 Z "/>
<path id="p427" fill="rgb(0,0,255)" d="M 483.75 128 L 483.75 136 484.25 136 484.25 128 Z "/>
<path id="p428" fill="rgb(0,0,255)" d="M 480 139.75 L 488 139.75 488 140.25 480 140.25 Z "/>
<path id="p429" fill="rgb(0,0,255)" d="M 483.75 136 L 483.75 144 484.25 144 484.25 136 Z "/>
<path id="p430" fill="rgb(0,0,255)" d="M 480 151.75 L 496 151.75 496 152.25 480 152.25 Z "/>
<path id="p431" fill="rgb(0,0,255)" d="M 487.75 144 L 487.75 160 488.25 160 488.25 144 Z "/>
<path id="p432" fill="rgb(0,0,255)" d="M 480 147.75 L 488 147.75 488 148.25 480 148.25 Z "/>
<path id="p433" fill="rgb(0,0,255)" d="M 483.75 144 L 483.75 152 484.25 152 484.25 144 Z "/>
<path id="p434" fill="rgb(0,0,255)" d="M 488 147.75 L 496 147.75 496 148.25 488 148.25 Z "/>
<path id="p435" fill="rgb(0,0,255)" d="M 491.75 144 L 491.75 152 492.25 152 492.25 144 Z "/>
<path id="p436" fill="rgb(0,0,255)" d="M 488 155.75 L 496 155.75 496 156.25 488 156.25 Z "/>
<path id="p437" fill="rgb(0,0,255)" d="M 491.75 152 L 491.75 160 492.25 160 492.25 152 Z "/>
<path id="p438" fill="rgb(0,0,255)" d="M 480 175.75 L 512 175.75 512 176.25 480 176.25 Z "/>
<path id="p439" fill="rgb(0,0,255)" d="M 495.75 160 L 495.75 192 496.25 192 496.25 160 Z "/>
<path id="p440" fill="rgb(0,0,255)" d="M 480 167.75 L 496 167.75 496 168.25 480 168.25 Z "/>
<path id="p441" fill="rgb(0,0,255)" d="M 487.75 160 L 487.75 176 488.25 176 488.25 160 Z "/>
<path id="p442" fill="rgb(0,0,255)" d="M 488 163.75 L 496 163.75 496 164.25 488 164.25 Z "/>
<path id="p443" fill="rgb(0,0,255)" d="M 491.75 160 L 491.75 168 492.25 168 492.25 160 Z "/>
<path id="p444" fill="rgb(0,0,255)" d="M 496 167.75 L 512 167.75 512 168.25 496 168.25 Z "/>
<path id="p445" fill="rgb(0,0,255)" d="M 503.75 160 L 503.75 176 504.25 176 504.25 160 Z "/>
<path id="p446" fill="rgb(0,0,255)" d="M 496 163.75 L 504 163.75 504 164.25 496 164.25 Z "/>
<path id="p447" fill="rgb(0,0,255)" d="M 499.75 160 L 499.75 168 500.25 168 500.25 160 Z "/>
<path id="p448" fill="rgb(0,0,255)" d="M 496 171.75 L 504 171.75 504 172.25 496 172.25 Z "/>
<path id="p449" fill="rgb(0,0,255)" d="M 499.75 168 L 499.75 176 500.25 176 500.25 168 Z "/>
<path id="p450" fill="rgb(0,0,255)" d="M 496 183.75 L 512 183.75 512 184.25 496 184.25 Z "/>
<path id="p451" fill="rgb(0,0,255)" d="M 503.75 176 L 503.75 192 504.25 192 504.25 176 Z "/>
<path id="p452" fill="rgb(0,0,255)" d="M 496 179.75 L 504 179.75 504 180.25 496 180.25 Z "/>
<path id="p453" fill="rgb(0,0,255)" d="M 499.75 176 L 499.75 184 500.25 184 500.25 176 Z "/>
<path id="p454" fill="rgb(0,0,255)" d="M 496 187.75 L 504 187.75 504 188.25 496 188.25 Z "/>
<path id="p455" fill="rgb(0,0,255)" d="M 499.75 184 L 499.75 192 500.25 192 500.25 184 Z "/>
<path id="p456" fill="rgb(0,0,255)" d="M 448 223.75 L 512 223.75 512 224.25 448 224.25 Z "/>
<path id="p457" fill="rgb(0,0,255)" d="M 479.75 192 L 479.75 256 480.25 256 480.25 192 Z "/>
<path id="p458" fill="rgb(0,0,255)" d="M 480 207.75 L 512 207.75 512 208.25 480 208.25 Z "/>
<path id="p459" fill="rgb(0,0,255)" d="M 495.75 192 L 495.75 224 496.25 224 496.25 192 Z "/>
<path id="p460" fill="rgb(0,0,255)" d="M 496 199.75 L 512 199.75 512 200.25 496 200.25 Z "/>
<path id="p461" fill="rgb(0,0,255)" d="M 503.75 192 L 503.75 208 504.25 208 504.25 192 Z "/>
<path id="p462" fill="rgb(0,0,255)" d="M 496 195.75 L 504 195.75 504 196.25 496 196.25 Z "/>
<path id="p463" fill="rgb(0,0,255)" d="M 499.75 192 L 499.75 200 500.25 200 500.25 192 Z "/>
<path id="p464" fill="rgb(0,0,255)" d="M 504 195.75 L 512 195.75 512 196.25 504 196.25 Z "/>
<path id="p465" fill="rgb(0,0,255)" d="M 507.75 192 L 507.75 200 508.25 200 508.25 192 Z "/>
<path id="p466" fill="rgb(0,0,255)" d="M 504 203.75 L 512 203.75 512 204.25 504 204.25 Z "/>
<path id="p467" fill="rgb(0,0,255)" d="M 507.75 200 L 507.75 208 508.25 208 508.25 200 Z "/>
<path id="p468" fill="rgb(0,0,255)" d="M 496 215.75 L 512 215.75 512 216.25 496 216.25 Z "/>
<path id="p469" fill="rgb(0,0,255)" d="M 503.75 208 L 503.75 224 504.25 224 504.25 208 Z "/>
<path id="p470" fill="rgb(0,0,255)" d="M 504 211.75 L 512 211.75 512 212.25 504 212.25 Z "/>
<path id="p471" fill="rgb(0,0,255)" d="M 507.75 208 L 507.75 216 508.25 216 508.25 208 Z "/>
<path id="p472" fill="rgb(0,0,255)" d="M 504 219.75 L 512 219.75 512 220.25 504 220.25 Z "/>
<path id="p473" fill="rgb(0,0,255)" d="M 507.75 216 L 507.75 224 508.25 224 508.25 216 Z "/>
<path id="p474" fill="rgb(0,0,255)" d="M 480 239.75 L 512 239.75 512 240.25 480 240.25 Z "/>
<path id="p475" fill="rgb(0,0,255)" d="M 495.75 224 L 495.75 256 496.25 256 496.25 224 Z "/>
<path id="p476" fill="rgb(0,0,255)" d="M 496 231.75 L 512 231.75 512 232.25 496 232.25 Z "/>
<path id="p477" fill="rgb(0,0,255)" d="M 503.75 224 L 503.75 240 504.25 240 504.25 224 Z "/>
<path id="p478" fill="rgb(0,0,255)" d="M 504 227.75 L 512 227.75 512 228.25 504 228.25 Z "/>
<path id="p479" fill="rgb(0,0,255)" d="M 507.75 224 L 507.75 232 508.25 232 508.25 224 Z "/>
<path id="p480" fill="rgb(0,0,255)" d="M 504 235.75 L 512 235.75 512 236.25 504 236.25 Z "/>
<path id="p481" fill="rgb(0,0,255)" d="M 507.75 232 L 507.75 240 508.25 240 508.25 232 Z "/>
<path id="p482" fill="rgb(0,0,255)" d="M 496 247.75 L 512 247.75 512 248.25 496 248.25 Z "/>
<path id="p483" fill="rgb(0,0,255)" d="M 503.75 240 L 503.75 256 504.25 256 504.25 240 Z "/>
<path id="p484" fill="rgb(0,0,255)" d="M 504 243.75 L 512 243.75 512 244.25 504 244.25 Z "/>
<path id="p485" fill="rgb(0,0,255)" d="M 507.75 240 L 507.75 248 508.25 248 508.25 240 Z "/>
<path id="p486" fill="rgb(0,0,255)" d="M 504 251.75 L 512 251.75 512 252.25 504 252.25 Z "/>
<path id="p487" fill="rgb(0,0,255)" d="M 507.75 248 L 507.75 256 508.25 256 508.25 248 Z "/>
<path id="p488" fill="rgb(0,0,255)" d="M 0 383.75 L 256 383.75 256 384.25 0 384.25 Z "/>
<path id="p489" fill="rgb(0,0,255)" d="M 127.75 256 L 127.75 512 128.25 512 128.25 256 Z "/>
<path id="p490" fill="rgb(0,0,255)" d="M 0 319.75 L 128 319.75 128 320.25 0 320.25 Z "/>
<path id="p491" fill="rgb(0,0,255)" d="M 63.75 256 L 63.75 384 64.25 384 64.25 256 Z "/>
<path id="p492" fill="rgb(0,0,255)" d="M 0 287.75 L 64 287.75 64 288.25 0 288.25 Z "/>
<path id="p493" fill="rgb(0,0,255)" d="M 31.75 256 L 31.75 320 32.25 320 32.25 256 Z "/>
<path id="p494" fill="rgb(0,0,255)" d="M 0 271.75 L 32 271.75 32 272.25 0 272.25 Z "/>
<path id="p495" fill="rgb(0,0,255)" d="M 15.75 256 L 15.75 288 16.25 288 16.25 256 Z "/>
<path id="p496" fill="rgb(0,0,255)" d="M 0 263.75 L 16 263.75 16 264.25 0 264.25 Z "/>
<path id="p497" fill="rgb(0,0,255)" d="M 7.75 256 L 7.75 272 8.25 272 8.25 256 Z "/>
<path id="p498" fill="rgb(0,0,255)" d="M 0 259.75 L 8 259.75 8 260.25 0 260.25 Z "/>
<path id="p499" fill="rgb(0,0,255)" d="M 3.75 256 L 3.75 264 4.25 264 4.25 256 Z "/>
<path id="p500" fill="rgb(0,0,255)" d="M 0 267.75 L 8 267.75 8 268.25 0 268.25 Z "/>
<path id="p501" fill="rgb(0,0,255)" d="M 3.75 264 L 3.75 272 4.25 272 4.25 264 Z "/>
<path id="p502" fill="rgb(0,0,255)" d="M 0 279.75 L 16 279.75 16 280.25 0 280.25 Z "/>
<path id="p503" fill="rgb(0,0,255)" d="M 7.75 272 L 7.75 288 8.25 288 8.25 272 Z "/>
<path id="p504" fill="rgb(0,0,255)" d="M 0 275.75 L 8 275.75 8 276.25 0 276.25 Z "/>
<path id="p505" fill="rgb(0,0,255)" d="M 3.75 272 L 3.75 280 4.25 280 4.25 272 Z "/>
<path id="p506" fill="rgb(0,0,255)" d="M 0 283.75 L 8 283.75 8 284.25 0 284.25 Z "/>
<path id="p507" fill="rgb(0,0,255)" d="M 3.75 280 L 3.75 288 4.25 288 4.25 280 Z "/>
<path id="p508" fill="rgb(0,0,255)" d="M 0 303.75 L 32 303.75 32 304.25 0 304.25 Z "/>
<path id="p509" fill="rgb(0,0,255)" d="M 15.75 288 L 15.75 320 16.25 320 16.25 288 Z "/>
<path id="p510" fill="rgb(0,0,255)" d="M 0 295.75 L 16 295.75 16 296.25 0 296.25 Z "/>
<path id="p511" fill="rgb(0,0,255)" d="M 7.75 288 L 7.75 304 8.25 304 8.25 288 Z "/>
<path id="p512" fill="rgb(0,0,255)" d="M 0 291.75 L 8 291.75 8 292.25 0 292.25 Z "/>
<path id="p513" fill="rgb(0,0,255)" d="M 3.75 288 L 3.75 296 4.25 296 4.25 288 Z "/>
<path id="p514" fill="rgb(0,0,255)" d="M 0 299.75 L 8 299.75 8 300.25 0 300.25 Z "/>
<path id="p515" fill="rgb(0,0,255)" d="M 3.75 296 L 3.75 304 4.25 304 4.25 296 Z "/>
<path id="p516" fill="rgb(0,0,255)" d="M 0 311.75 L 16 311.75 16 312.25 0 312.25 Z "/>
<path id="p517" fill="rgb(0,0,255)" d="M 7.75 304 L 7.75 320 8.25 320 8.25 304 Z "/>
<path id="p518" fill="rgb(0,0,255)" d="M 0 307.75 L 8 307.75 8 308.25 0 308.25 Z "/>
<path id="p519" fill="rgb(0,0,255)" d="M 3.75 304 L 3.75 312 4.25 312 4.25 304 Z "/>
<path id="p520" fill="rgb(0,0,255)" d="M 0 315.75 L 8 315.75 8 316.25 0 316.25 Z "/>
<path id="p521" fill="rgb(0,0,255)" d="M 3.75 312 L 3.75 320 4.25 320 4.25 312 Z "/>
<path id="p522" fill="rgb(0,0,255)" d="M 8 315.75 L 16 315.75 16 316.25 8 316.25 Z "/>
<path id="p523" fill="rgb(0,0,255)" d="M 11.75 312 L 11.75 320 12.25 320 12.25 312 Z "/>
<path id="p524" fill="rgb(0,0,255)" d="M 0 351.75 L 64 351.75 64 352.25 0 352.25 Z "/>
<path id="p525" fill="rgb(0,0,255)" d="M 31.75 320 L 31.75 384 32.25 384 32.25 320 Z "/>
<path id="p526" fill="rgb(0,0,255)" d="M 0 335.75 L 32 335.75 32 336.25 0 336.25 Z "/>
<path id="p527" fill="rgb(0,0,255)" d="M 15.75 320 L 15.75 352 16.25 352 16.25 320 Z "/>
<path id="p528" fill="rgb(0,0,255)" d="M 0 327.75 L 16 327.75 16 328.25 0 328.25 Z "/>
<path id="p529" fill="rgb(0,0,255)" d="M 7.75 320 L 7.75 336 8.25 336 8.25 320 Z "/>
<path id="p530" fill="rgb(0,0,255)" d="M 8 323.75 L 16 323.75 16 324.25 8 324.25 Z "/>
<path id="p531" fill="rgb(0,0,255)" d="M 11.75 320 L 11.75 328 12.25 328 12.25 320 Z "/>
<path id="p532" fill="rgb(0,0,255)" d="M 8 331.75 L 16 331.75 16 332.25 8 332.25 Z "/>
<path id="p533" fill="rgb(0,0,255)" d="M 11.75 328 L 11.75 336 12.25 336 12.25 328 Z "/>
<path id="p534" fill="rgb(0,0,255)" d="M 0 343.75 L 16 343.75 16 344.25 0 344.25 Z "/>
<path id="p535" fill="rgb(0,0,255)" d="M 7.75 336 L 7.75 352 8.25 352 8.25 336 Z "/>
<path id="p536" fill="rgb(0,0,255)" d="M 8 339.75 L 16 339.75 16 340.25 8 340.25 Z "/>
<path id="p537" fill="rgb(0,0,255)" d="M 11.75 336 L 11.75 344 12.25 344 12.25 336 Z "/>
<path id="p538" fill="rgb(0,0,255)" d="M 8 347.75 L 16 347.75 16 348.25 8 348.25 Z "/>
<path id="p539" fill="rgb(0,0,255)" d="M 11.75 344 L 11.75 352 12.25 352 12.25 344 Z "/>
<path id="p540" fill="rgb(0,0,255)" d="M 16 343.75 L 32 343.75 32 344.25 16 344.25 Z "/>
<path id="p541" fill="rgb(0,0,255)" d="M 23.75 336 L 23.75 352 24.25 352 24.25 336 Z "/>
<path id="p542" fill="rgb(0,0,255)" d="M 16 347.75 L 24 347.75 24 348.25 16 348.25 Z "/>
<path id="p543" fill="rgb(0,0,255)" d="M 19.75 344 L 19.75 352 20.25 352 20.25 344 Z "/>
<path id="p544" fill="rgb(0,0,255)" d="M 0 367.75 L 32 367.75 32 368.25 0 368.25 Z "/>
<path id="p545" fill="rgb(0,0,255)" d="M 15.75 352 L 15.75 384 16.25 384 16.25 352 Z "/>
<path id="p546" fill="rgb(0,0,255)" d="M 16 359.75 L 32 359.75 32 360.25 16 360.25 Z "/>
<path id="p547" fill="rgb(0,0,255)" d="M 23.75 352 L 23.75 368 24.25 368 24.25 352 Z "/>
<path id="p548" fill="rgb(0,0,255)" d="M 16 355.75 L 24 355.75 24 356.25 16 356.25 Z "/>
<path id="p549" fill="rgb(0,0,255)" d="M 19.75 352 L 19.75 360 20.25 360 20.25 352 Z "/>
<path id="p550" fill="rgb(0,0,255)" d="M 16 363.75 L 24 363.75 24 364.25 16 364.25 Z "/>
<path id="p551" fill="rgb(0,0,255)" d="M 19.75 360 L 19.75 368 20.25 368 20.25 360 Z "/>
<path id="p552" fill="rgb(0,0,255)" d="M 24 363.75 L 32 363.75 32 364.25 24 364.25 Z "/>
<path id="p553" fill="rgb(0,0,255)" d="M 27.75 360 L 27.75 368 28.25 368 28.25 360 Z "/>
<path id="p554" fill="rgb(0,0,255)" d="M 16 375.75 L 32 375.75 32 376.25 16 376.25 Z "/>
<path id="p555" fill="rgb(0,0,255)" d="M 23.75 368 L 23.75 384 24.25 384 24.25 368 Z "/>
<path id="p556" fill="rgb(0,0,255)" d="M 24 371.75 L 32 371.75 32 372.25 24 372.25 Z "/>
<path id="p557" fill="rgb(0,0,255)" d="M 27.75 368 L 27.75 376 28.25 376 28.25 368 Z "/>
<path id="p558" fill="rgb(0,0,255)" d="M 24 379.75 L 32 379.75 32 380.25 24 380.25 Z "/>
<path id="p559" fill="rgb(0,0,255)" d="M 27.75 376 L 27.75 384 28.25 384 28.25 376 Z "/>
<path id="p560" fill="rgb(0,0,255)" d="M 32 367.75 L 64 367.75 64 368.25 32 368.25 Z "/>
<path id="p561" fill="rgb(0,0,255)" d="M 47.75 352 L 47.75 384 48.25 384 48.25 352 Z "/>
<path id="p562" fill="rgb(0,0,255)" d="M 32 375.75 L 48 375.75 48 376.25 32 376.25 Z "/>
<path id="p563" fill="rgb(0,0,255)" d="M 39.75 368 L 39.75 384 40.25 384 40.25 368 Z "/>
<path id="p564" fill="rgb(0,0,255)" d="M 32 379.75 L 40 379.75 40 380.25 32 380.25 Z "/>
<path id="p565" fill="rgb(0,0,255)" d="M 35.75 376 L 35.75 384 36.25 384 36.25 376 Z "/>
<path id="p566" fill="rgb(0,0,255)" d="M 0 447.75 L 128 447.75 128 448.25 0 448.25 Z "/>
<path id="p567" fill="rgb(0,0,255)" d="M 63.75 384 L 63.75 512 64.25 512 64.25 384 Z "/>
<path id="p568" fill="rgb(0,0,255)" d="M 0 415.75 L 64 415.75 64 416.25 0 416.25 Z "/>
<path id="p569" fill="rgb(0,0,255)" d="M 31.75 384 L 31.75 448 32.25 448 32.25 384 Z "/>
<path id="p570" fill="rgb(0,0,255)" d="M 32 399.75 L 64 399.75 64 400.25 32 400.25 Z "/>
<path id="p571" fill="rgb(0,0,255)" d="M 47.75 384 L 47.75 416 48.25 416 48.25 384 Z "/>
<path id="p572" fill="rgb(0,0,255)" d="M 32 391.75 L 48 391.75 48 392.25 32 392.25 Z "/>
<path id="p573" fill="rgb(0,0,255)" d="M 39.75 384 L 39.75 400 40.25 400 40.25 384 Z "/>
<path id="p574" fill="rgb(0,0,255)" d="M 32 387.75 L 40 387.75 40 388.25 32 388.25 Z "/>
<path id="p575" fill="rgb(0,0,255)" d="M 35.75 384 L 35.75 392 36.25 392 36.25 384 Z "/>
<path id="p576" fill="rgb(0,0,255)" d="M 32 395.75 L 40 395.75 40 396.25 32 396.25 Z "/>
<path id="p577" fill="rgb(0,0,255)" d="M 35.75 392 L 35.75 400 36.25 400 36.25 392 Z "/>
<path id="p578" fill="rgb(0,0,255)" d="M 40 395.75 L 48 395.75 48 396.25 40 396.25 Z "/>
<path id="p579" fill="rgb(0,0,255)" d="M 43.75 392 L 43.75 400 44.25 400 44.25 392 Z "/>
<path id="p580" fill="rgb(0,0,255)" d="M 32 407.75 L 48 407.75 48 408.25 32 408.25 Z "/>
<path id="p581" fill="rgb(0,0,255)" d="M 39.75 400 L 39.75 416 40.25 416 40.25 400 Z "/>
<path id="p582" fill="rgb(0,0,255)" d="M 40 403.75 L 48 403.75 48 404.25 40 404.25 Z "/>
<path id="p583" fill="rgb(0,0,255)" d="M 43.75 400 L 43.75 408 44.25 408 44.25 400 Z "/>
<path id="p584" fill="rgb(0,0,255)" d="M 48 407.75 L 64 407.75 64 408.25 48 408.25 Z "/>
<path id="p585" fill="rgb(0,0,255)" d="M 55.75 400 L 55.75 416 56.25 416 56.25 400 Z "/>
<path id="p586" fill="rgb(0,0,255)" d="M 48 403.75 L 56 403.75 56 404.25 48 404.25 Z "/>
<path id="p587" fill="rgb(0,0,255)" d="M 51.75 400 L 51.75 408 52.25 408 52.25 400 Z "/>
<path id="p588" fill="rgb(0,0,255)" d="M 48 411.75 L 56 411.75 56 412.25 48 412.25 Z "/>
<path id="p589" fill="rgb(0,0,255)" d="M 51.75 408 L 51.75 416 52.25 416 52.25 408 Z "/>
<path id="p590" fill="rgb(0,0,255)" d="M 56 411.75 L 64 411.75 64 412.25 56 412.25 Z "/>
<path id="p591" fill="rgb(0,0,255)" d="M 59.75 408 L 59.75 416 60.25 416 60.25 408 Z "/>
<path id="p592" fill="rgb(0,0,255)" d="M 32 431.75 L 64 431.75 64 432.25 32 432.25 Z "/>
<path id="p593" fill="rgb(0,0,255)" d="M 47.75 416 L 47.75 448 48.25 448 48.25 416 Z "/>
<path id="p594" fill="rgb(0,0,255)" d="M 48 423.75 L 64 423.75 64 424.25 48 424.25 Z "/>
<path id="p595" fill="rgb(0,0,255)" d="M 55.75 416 L 55.75 432 56.25 432 56.25 416 Z "/>
<path id="p596" fill="rgb(0,0,255)" d="M 56 419.75 L 64 419.75 64 420.25 56 420.25 Z "/>
<path id="p597" fill="rgb(0,0,255)" d="M 59.75 416 L 59.75 424 60.25 424 60.25 416 Z "/>
<path id="p598" fill="rgb(0,0,255)" d="M 56 427.75 L 64 427.75 64 428.25 56 428.25 Z "/>
<path id="p599" fill="rgb(0,0,255)" d="M 59.75 424 L 59.75 432 60.25 432 60.25 424 Z "/>
<path id="p600" fill="rgb(0,0,255)" d="M 64 415.75 L 128 415.75 128 416.25 64 416.25 Z "/>
<path id="p601" fill="rgb(0,0,255)" d="M 95.75 384 L 95.75 448 96.25 448 96.25 384 Z "/>
<path id="p602" fill="rgb(0,0,255)" d="M 64 431.75 L 96 431.75 96 432.25 64 432.25 Z "/>
<path id="p603" fill="rgb(0,0,255)" d="M 79.75 416 L 79.75 448 80.25 448 80.25 416 Z "/>
<path id="p604" fill="rgb(0,0,255)" d="M 64 423.75 L 80 423.75 80 424.25 64 424.25 Z "/>
<path id="p605" fill="rgb(0,0,255)" d="M 71.75 416 L 71.75 432 72.25 432 72.25 416 Z "/>
<path id="p606" fill="rgb(0,0,255)" d="M 64 427.75 L 72 427.75 72 428.25 64 428.25 Z "/>
<path id="p607" fill="rgb(0,0,255)" d="M 67.75 424 L 67.75 432 68.25 432 68.25 424 Z "/>
<path id="p608" fill="rgb(0,0,255)" d="M 64 439.75 L 80 439.75 80 440.25 64 440.25 Z "/>
<path id="p609" fill="rgb(0,0,255)" d="M 71.75 432 L 71.75 448 72.25 448 72.25 432 Z "/>
<path id="p610" fill="rgb(0,0,255)" d="M 64 435.75 L 72 435.75 72 436.25 64 436.25 Z "/>
<path id="p611" fill="rgb(0,0,255)" d="M 67.75 432 L 67.75 440 68.25 440 68.25 432 Z "/>
<path id="p612" fill="rgb(0,0,255)" d="M 72 435.75 L 80 435.75 80 436.25 72 436.25 Z "/>
<path id="p613" fill="rgb(0,0,255)" d="M 75.75 432 L 75.75 440 76.25 440 76.25 432 Z "/>
<path id="p614" fill="rgb(0,0,255)" d="M 72 443.75 L 80 443.75 80 444.25 72 444.25 Z "/>
<path id="p615" fill="rgb(0,0,255)" d="M 75.75 440 L 75.75 448 76.25 448 76.25 440 Z "/>
<path id="p616" fill="rgb(0,0,255)" d="M 80 439.75 L 96 439.75 96 440.25 80 440.25 Z "/>
<path id="p617" fill="rgb(0,0,255)" d="M 87.75 432 L 87.75 448 88.25 448 88.25 432 Z "/>
<path id="p618" fill="rgb(0,0,255)" d="M 80 443.75 L 88 443.75 88 444.25 80 444.25 Z "/>
<path id="p619" fill="rgb(0,0,255)" d="M 83.75 440 L 83.75 448 84.25 448 84.25 440 Z "/>
<path id="p620" fill="rgb(0,0,255)" d="M 64 479.75 L 128 479.75 128 480.25 64 480.25 Z "/>
<path id="p621" fill="rgb(0,0,255)" d="M 95.75 448 L 95.75 512 96.25 512 96.25 448 Z "/>
<path id="p622" fill="rgb(0,0,255)" d="M 64 463.75 L 96 463.75 96 464.25 64 464.25 Z "/>
<path id="p623" fill="rgb(0,0,255)" d="M 79.75 448 L 79.75 480 80.25 480 80.25 448 Z "/>
<path id="p624" fill="rgb(0,0,255)" d="M 80 455.75 L 96 455.75 96 456.25 80 456.25 Z "/>
<path id="p625" fill="rgb(0,0,255)" d="M 87.75 448 L 87.75 464 88.25 464 88.25 448 Z "/>
<path id="p626" fill="rgb(0,0,255)" d="M 80 451.75 L 88 451.75 88 452.25 80 452.25 Z "/>
<path id="p627" fill="rgb(0,0,255)" d="M 83.75 448 L 83.75 456 84.25 456 84.25 448 Z "/>
<path id="p628" fill="rgb(0,0,255)" d="M 88 451.75 L 96 451.75 96 452.25 88 452.25 Z "/>
<path id="p629" fill="rgb(0,0,255)" d="M 91.75 448 L 91.75 456 92.25 456 92.25 448 Z "/>
<path id="p630" fill="rgb(0,0,255)" d="M 96 463.75 L 128 463.75 128 464.25 96 464.25 Z "/>
<path id="p631" fill="rgb(0,0,255)" d="M 111.75 448 L 111.75 480 112.25 480 112.25 448 Z "/>
<path id="p632" fill="rgb(0,0,255)" d="M 96 455.75 L 112 455.75 112 456.25 96 456.25 Z "/>
<path id="p633" fill="rgb(0,0,255)" d="M 103.75 448 L 103.75 464 104.25 464 104.25 448 Z "/>
<path id="p634" fill="rgb(0,0,255)" d="M 96 451.75 L 104 451.75 104 452.25 96 452.25 Z "/>
<path id="p635" fill="rgb(0,0,255)" d="M 99.75 448 L 99.75 456 100.25 456 100.25 448 Z "/>
<path id="p636" fill="rgb(0,0,255)" d="M 96 459.75 L 104 459.75 104 460.25 96 460.25 Z "/>
<path id="p637" fill="rgb(0,0,255)" d="M 99.75 456 L 99.75 464 100.25 464 100.25 456 Z "/>
<path id="p638" fill="rgb(0,0,255)" d="M 104 459.75 L 112 459.75 112 460.25 104 460.25 Z "/>
<path id="p639" fill="rgb(0,0,255)" d="M 107.75 456 L 107.75 464 108.25 464 108.25 456 Z "/>
<path id="p640" fill="rgb(0,0,255)" d="M 96 471.75 L 112 471.75 112 472.25 96 472.25 Z "/>
<path id="p641" fill="rgb(0,0,255)" d="M 103.75 464 L 103.75 480 104.25 480 104.25 464 Z "/>
<path id="p642" fill="rgb(0,0,255)" d="M 104 467.75 L 112 467.75 112 468.25 104 468.25 Z "/>
<path id="p643" fill="rgb(0,0,255)" d="M 107.75 464 L 107.75 472 108.25 472 108.25 464 Z "/>
<path id="p644" fill="rgb(0,0,255)" d="M 112 471.75 L 128 471.75 128 472.25 112 472.25 Z "/>
<path id="p645" fill="rgb(0,0,255)" d="M 119.75 464 L 119.75 480 120.25 480 120.25 464 Z "/>
<path id="p646" fill="rgb(0,0,255)" d="M 112 467.75 L 120 467.75 120 468.25 112 468.25 Z "/>
<path id="p647" fill="rgb(0,0,255)" d="M 115.75 464 L 115.75 472 116.25 472 116.25 464 Z "/>
<path id="p648" fill="rgb(0,0,255)" d="M 112 475.75 L 120 475.75 120 476.25 112 476.25 Z "/>
<path id="p649" fill="rgb(0,0,255)" d="M 115.75 472 L 115.75 480 116.25 480 116.25 472 Z "/>
<path id="p650" fill="rgb(0,0,255)" d="M 120 475.75 L 128 475.75 128 476.25 120 476.25 Z "/>
<path id="p651" fill="rgb(0,0,255)" d="M 123.75 472 L 123.75 480 124.25 480 124.25 472 Z "/>
<path id="p652" fill="rgb(0,0,255)" d="M 128 447.75 L 256 447.75 256 448.25 128 448.25 Z "/>
<path id="p653" fill="rgb(0,0,255)" d="M 191.75 384 L 191.75 512 192.25 512 192.25 384 Z "/>
<path id="p654" fill="rgb(0,0,255)" d="M 128 479.75 L 192 479.75 192 480.25 128 480.25 Z "/>
<path id="p655" fill="rgb(0,0,255)" d="M 159.75 448 L 159.75 512 160.25 512 160.25 448 Z "/>
<path id="p656" fill="rgb(0,0,255)" d="M 128 463.75 L 160 463.75 160 464.25 128 464.25 Z "/>
<path id="p657" fill="rgb(0,0,255)" d="M 143.75 448 L 143.75 480 144.25 480 144.25 448 Z "/>
<path id="p658" fill="rgb(0,0,255)" d="M 128 471.75 L 144 471.75 144 472.25 128 472.25 Z "/>
<path id="p659" fill="rgb(0,0,255)" d="M 135.75 464 L 135.75 480 136.25 480 136.25 464 Z "/>
<path id="p660" fill="rgb(0,0,255)" d="M 128 475.75 L 136 475.75 136 476.25 128 476.25 Z "/>
<path id="p661" fill="rgb(0,0,255)" d="M 131.75 472 L 131.75 480 132.25 480 132.25 472 Z "/>
<path id="p662" fill="rgb(0,0,255)" d="M 128 495.75 L 160 495.75 160 496.25 128 496.25 Z "/>
<path id="p663" fill="rgb(0,0,255)" d="M 143.75 480 L 143.75 512 144.25 512 144.25 480 Z "/>
<path id="p664" fill="rgb(0,0,255)" d="M 128 487.75 L 144 487.75 144 488.25 128 488.25 Z "/>
<path id="p665" fill="rgb(0,0,255)" d="M 135.75 480 L 135.75 496 136.25 496 136.25 480 Z "/>
<path id="p666" fill="rgb(0,0,255)" d="M 128 483.75 L 136 483.75 136 484.25 128 484.25 Z "/>
<path id="p667" fill="rgb(0,0,255)" d="M 131.75 480 L 131.75 488 132.25 488 132.25 480 Z "/>
<path id="p668" fill="rgb(0,0,255)" d="M 136 483.75 L 144 483.75 144 484.25 136 484.25 Z "/>
<path id="p669" fill="rgb(0,0,255)" d="M 139.75 480 L 139.75 488 140.25 488 140.25 480 Z "/>
<path id="p670" fill="rgb(0,0,255)" d="M 144 487.75 L 160 487.75 160 488.25 144 488.25 Z "/>
<path id="p671" fill="rgb(0,0,255)" d="M 151.75 480 L 151.75 496 152.25 496 152.25 480 Z "/>
<path id="p672" fill="rgb(0,0,255)" d="M 144 483.75 L 152 483.75 152 484.25 144 484.25 Z "/>
<path id="p673" fill="rgb(0,0,255)" d="M 147.75 480 L 147.75 488 148.25 488 148.25 480 Z "/>
<path id="p674" fill="rgb(0,0,255)" d="M 144 491.75 L 152 491.75 152 492.25 144 492.25 Z "/>
<path id="p675" fill="rgb(0,0,255)" d="M 147.75 488 L 147.75 496 148.25 496 148.25 488 Z "/>
<path id="p676" fill="rgb(0,0,255)" d="M 152 491.75 L 160 491.75 160 492.25 152 492.25 Z "/>
<path id="p677" fill="rgb(0,0,255)" d="M 155.75 488 L 155.75 496 156.25 496 156.25 488 Z "/>
<path id="p678" fill="rgb(0,0,255)" d="M 160 495.75 L 192 495.75 192 496.25 160 496.25 Z "/>
<path id="p679" fill="rgb(0,0,255)" d="M 175.75 480 L 175.75 512 176.25 512 176.25 480 Z "/>
<path id="p680" fill="rgb(0,0,255)" d="M 160 487.75 L 176 487.75 176 488.25 160 488.25 Z "/>
<path id="p681" fill="rgb(0,0,255)" d="M 167.75 480 L 167.75 496 168.25 496 168.25 480 Z "/>
<path id="p682" fill="rgb(0,0,255)" d="M 160 491.75 L 168 491.75 168 492.25 160 492.25 Z "/>
<path id="p683" fill="rgb(0,0,255)" d="M 163.75 488 L 163.75 496 164.25 496 164.25 488 Z "/>
<path id="p684" fill="rgb(0,0,255)" d="M 160 503.75 L 176 503.75 176 504.25 160 504.25 Z "/>
<path id="p685" fill="rgb(0,0,255)" d="M 167.75 496 L 167.75 512 168.25 512 168.25 496 Z "/>
<path id="p686" fill="rgb(0,0,255)" d="M 160 499.75 L 168 499.75 168 500.25 160 500.25 Z "/>
<path id="p687" fill="rgb(0,0,255)" d="M 163.75 496 L 163.75 504 164.25 504 164.25 496 Z "/>
<path id="p688" fill="rgb(0,0,255)" d="M 168 499.75 L 176 499.75 176 500.25 168 500.25 Z "/>
<path id="p689" fill="rgb(0,0,255)" d="M 171.75 496 L 171.75 504 172.25 504 172.25 496 Z "/>
<path id="p690" fill="rgb(0,0,255)" d="M 176 503.75 L 192 503.75 192 504.25 176 504.25 Z "/>
<path id="p691" fill="rgb(0,0,255)" d="M 183.75 496 L 183.75 512 184.25 512 184.25 496 Z "/>
<path id="p692" fill="rgb(0,0,255)" d="M 176 499.75 L 184 499.75 184 500.25 176 500.25 Z "/>
<path id="p693" fill="rgb(0,0,255)" d="M 179.75 496 L 179.75 504 180.25 504 180.25 496 Z "/>
<path id="p694" fill="rgb(0,0,255)" d="M 184 499.75 L 192 499.75 192 500.25 184 500.25 Z "/>
<path id="p695" fill="rgb(0,0,255)" d="M 187.75 496 L 187.75 504 188.25 504 188.25 496 Z "/>
<path id="p696" fill="rgb(0,0,255)" d="M 192 479.75 L 256 479.75 256 480.25 192 480.25 Z "/>
<path id="p697" fill="rgb(0,0,255)" d="M 223.75 448 L 223.75 512 224.25 512 224.25 448 Z "/>
<path id="p698" fill="rgb(0,0,255)" d="M 192 495.75 L 224 495.75 224 496.25 192 496.25 Z "/>
<path id="p699" fill="rgb(0,0,255)" d="M 207.75 480 L 207.75 512 208.25 512 208.25 480 Z "/>
<path id="p700" fill="rgb(0,0,255)" d="M 192 503.75 L 208 503.75 208 504.25 192 504.25 Z "/>
<path id="p701" fill="rgb(0,0,255)" d="M 199.75 496 L 199.75 512 200.25 512 200.25 496 Z "/>
<path id="p702" fill="rgb(0,0,255)" d="M 192 499.75 L 200 499.75 200 500.25 192 500.25 Z "/>
<path id="p703" fill="rgb(0,0,255)" d="M 195.75 496 L 195.75 504 196.25 504 196.25 496 Z "/>
<path id="p704" fill="rgb(0,0,255)" d="M 192 507.75 L 200 507.75 200 508.25 192 508.25 Z "/>
<path id="p705" fill="rgb(0,0,255)" d="M 195.75 504 L 195.75 512 196.25 512 196.25 504 Z "/>
<path id="p706" fill="rgb(0,0,255)" d="M 200 507.75 L 208 507.75 208 508.25 200 508.25 Z "/>
<path id="p707" fill="rgb(0,0,255)" d="M 203.75 504 L 203.75 512 204.25 512 204.25 504 Z "/>
<path id="p708" fill="rgb(0,0,255)" d="M 208 503.75 L 224 503.75 224 504.25 208 504.25 Z "/>
<path id="p709" fill="rgb(0,0,255)" d="M 215.75 496 L 215.75 512 216.25 512 216.25 496 Z "/>
<path id="p710" fill="rgb(0,0,255)" d="M 208 507.75 L 216 507.75 216 508.25 208 508.25 Z "/>
<path id="p711" fill="rgb(0,0,255)" d="M 211.75 504 L 211.75 512 212.25 512 212.25 504 Z "/>
<path id="p712" fill="rgb(0,0,255)" d="M 216 507.75 L 224 507.75 224 508.25 216 508.25 Z "/>
<path id="p713" fill="rgb(0,0,255)" d="M 219.75 504 L 219.75 512 220.25 512 220.25 504 Z "/>
<path id="p714" fill="rgb(0,0,255)" d="M 224 495.75 L 256 495.75 256 496.25 224 496.25 Z "/>
<path id="p715" fill="rgb(0,0,255)" d="M 239.75 480 L 239.75 512 240.25 512 240.25 480 Z "/>
<path id="p716" fill="rgb(0,0,255)" d="M 224 503.75 L 240 503.75 240 504.25 224 504.25 Z "/>
<path id="p717" fill="rgb(0,0,255)" d="M 231.75 496 L 231.75 512 232.25 512 232.25 496 Z "/>
<path id="p718" fill="rgb(0,0,255)" d="M 224 507.75 L 232 507.75 232 508.25 224 508.25 Z "/>
<path id="p719" fill="rgb(0,0,255)" d="M 227.75 504 L 227.75 512 228.25 512 228.25 504 Z "/>
<path id="p720" fill="rgb(0,0,255)" d="M 232 507.75 L 240 507.75 240 508.25 232 508.25 Z "/>
<path id="p721" fill="rgb(0,0,255)" d="M 235.75 504 L 235.75 512 236.25 512 236.25 504 Z "/>
<path id="p722" fill="rgb(0,0,255)" d="M 240 503.75 L 256 503.75 256 504.25 240 504.25 Z "/>
<path id="p723" fill="rgb(0,0,255)" d="M 247.75 496 L 247.75 512 248.25 512 248.25 496 Z "/>
<path id="p724" fill="rgb(0,0,255)" d="M 240 507.75 L 248 507.75 248 508.25 240 508.25 Z "/>
<path id="p725" fill="rgb(0,0,255)" d="M 243.75 504 L 243.75 512 244.25 512 244.25 504 Z "/>
<path id="p726" fill="rgb(0,0,255)" d="M 248 507.75 L 256 507.75 256 508.25 248 508.25 Z "/>
<path id="p727" fill="rgb(0,0,255)" d="M 251.75 504 L 251.75 512 252.25 512 252.25 504 Z "/>
<path id="p728" fill="rgb(0,0,255)" d="M 256 383.75 L 512 383.75 512 384.25 256 384.25 Z "/>
<path id="p729" fill="rgb(0,0,255)" d="M 383.75 256 L 383.75 512 384.25 512 384.25 256 Z "/>
<path id="p730" fill="rgb(0,0,255)" d="M 384 319.75 L 512 319.75 512 320.25 384 320.25 Z "/>
<path id="p731" fill="rgb(0,0,255)" d="M 447.75 256 L 447.75 384 448.25 384 448.25 256 Z "/>
<path id="p732" fill="rgb(0,0,255)" d="M 448 287.75 L 512 287.75 512 288.25 448 288.25 Z "/>
<path id="p733" fill="rgb(0,0,255)" d="M 479.75 256 L 479.75 320 480.25 320 480.25 256 Z "/>
<path id="p734" fill="rgb(0,0,255)" d="M 480 271.75 L 512 271.75 512 272.25 480 272.25 Z "/>
<path id="p735" fill="rgb(0,0,255)" d="M 495.75 256 L 495.75 288 496.25 288 496.25 256 Z "/>
<path id="p736" fill="rgb(0,0,255)" d="M 496 263.75 L 512 263.75 512 264.25 496 264.25 Z "/>
<path id="p737" fill="rgb(0,0,255)" d="M 503.75 256 L 503.75 272 504.25 272 504.25 256 Z "/>
<path id="p738" fill="rgb(0,0,255)" d="M 504 259.75 L 512 259.75 512 260.25 504 260.25 Z "/>
<path id="p739" fill="rgb(0,0,255)" d="M 507.75 256 L 507.75 264 508.25 264 508.25 256 Z "/>
<path id="p740" fill="rgb(0,0,255)" d="M 504 267.75 L 512 267.75 512 268.25 504 268.25 Z "/>
<path id="p741" fill="rgb(0,0,255)" d="M 507.75 264 L 507.75 272 508.25 272 508.25 264 Z "/>
<path id="p742" fill="rgb(0,0,255)" d="M 496 279.75 L 512 279.75 512 280.25 496 280.25 Z "/>
<path id="p743" fill="rgb(0,0,255)" d="M 503.75 272 L 503.75 288 504.25 288 504.25 272 Z "/>
<path id="p744" fill="rgb(0,0,255)" d="M 504 275.75 L 512 275.75 512 276.25 504 276.25 Z "/>
<path id="p745" fill="rgb(0,0,255)" d="M 507.75 272 L 507.75 280 508.25 280 508.25 272 Z "/>
<path id="p746" fill="rgb(0,0,255)" d="M 504 283.75 L 512 283.75 512 284.25 504 284.25 Z "/>
<path id="p747" fill="rgb(0,0,255)" d="M 507.75 280 L 507.75 288 508.25 288 508.25 280 Z "/>
<path id="p748" fill="rgb(0,0,255)" d="M 480 303.75 L 512 303.75 512 304.25 480 304.25 Z "/>
<path id="p749" fill="rgb(0,0,255)" d="M 495.75 288 L 495.75 320 496.25 320 496.25 288 Z "/>
<path id="p750" fill="rgb(0,0,255)" d="M 496 295.75 L 512 295.75 512 296.25 496 296.25 Z "/>
<path id="p751" fill="rgb(0,0,255)" d="M 503.75 288 L 503.75 304 504.25 304 504.25 288 Z "/>
<path id="p752" fill="rgb(0,0,255)" d="M 504 291.75 L 512 291.75 512 292.25 504 292.25 Z "/>
<path id="p753" fill="rgb(0,0,255)" d="M 507.75 288 L 507.75 296 508.25 296 508.25 288 Z "/>
<path id="p754" fill="rgb(0,0,255)" d="M 504 299.75 L 512 299.75 512 300.25 504 300.25 Z "/>
<path id="p755" fill="rgb(0,0,255)" d="M 507.75 296 L 507.75 304 508.25 304 508.25 296 Z "/>
<path id="p756" fill="rgb(0,0,255)" d="M 496 311.75 L 512 311.75 512 312.25 496 312.25 Z "/>
<path id="p757" fill="rgb(0,0,255)" d="M 503.75 304 L 503.75 320 504.25 320 504.25 304 Z "/>
<path id="p758" fill="rgb(0,0,255)" d="M 504 307.75 L 512 307.75 512 308.25 504 308.25 Z "/>
<path id="p759" fill="rgb(0,0,255)" d="M 507.75 304 L 507.75 312 508.25 312 508.25 304 Z "/>
<path id="p760" fill="rgb(0,0,255)" d="M 496 315.75 L 504 315.75 504 316.25 496 316.25 Z "/>
<path id="p761" fill="rgb(0,0,255)" d="M 499.75 312 L 499.75 320 500.25 320 500.25 312 Z "/>
<path id="p762" fill="rgb(0,0,255)" d="M 504 315.75 L 512 315.75 512 316.25 504 316.25 Z "/>
<path id="p763" fill="rgb(0,0,255)" d="M 507.75 312 L 507.75 320 508.25 320 508.25 312 Z "/>
<path id="p764" fill="rgb(0,0,255)" d="M 448 351.75 L 512 351.75 512 352.25 448 352.25 Z "/>
<path id="p765" fill="rgb(0,0,255)" d="M 479.75 320 L 479.75 384 480.25 384 480.25 320 Z "/>
<path id="p766" fill="rgb(0,0,255)" d="M 480 335.75 L 512 335.75 512 336.25 480 336.25 Z "/>
<path id="p767" fill="rgb(0,0,255)" d="M 495.75 320 L 495.75 352 496.25 352 496.25 320 Z "/>
<path id="p768" fill="rgb(0,0,255)" d="M 496 327.75 L 512 327.75 512 328.25 496 328.25 Z "/>
<path id="p769" fill="rgb(0,0,255)" d="M 503.75 320 L 503.75 336 504.25 336 504.25 320 Z "/>
<path id="p770" fill="rgb(0,0,255)" d="M 496 323.75 L 504 323.75 504 324.25 496 324.25 Z "/>
<path id="p771" fill="rgb(0,0,255)" d="M 499.75 320 L 499.75 328 500.25 328 500.25 320 Z "/>
<path id="p772" fill="rgb(0,0,255)" d="M 496 331.75 L 504 331.75 504 332.25 496 332.25 Z "/>
<path id="p773" fill="rgb(0,0,255)" d="M 499.75 328 L 499.75 336 500.25 336 500.25 328 Z "/>
<path id="p774" fill="rgb(0,0,255)" d="M 480 343.75 L 496 343.75 496 344.25 480 344.25 Z "/>
<path id="p775" fill="rgb(0,0,255)" d="M 487.75 336 L 487.75 352 488.25 352 488.25 336 Z "/>
<path id="p776" fill="rgb(0,0,255)" d="M 488 347.75 L 496 347.75 496 348.25 488 348.25 Z "/>
<path id="p777" fill="rgb(0,0,255)" d="M 491.75 344 L 491.75 352 492.25 352 492.25 344 Z "/>
<path id="p778" fill="rgb(0,0,255)" d="M 496 343.75 L 512 343.75 512 344.25 496 344.25 Z "/>
<path id="p779" fill="rgb(0,0,255)" d="M 503.75 336 L 503.75 352 504.25 352 504.25 336 Z "/>
<path id="p780" fill="rgb(0,0,255)" d="M 496 339.75 L 504 339.75 504 340.25 496 340.25 Z "/>
<path id="p781" fill="rgb(0,0,255)" d="M 499.75 336 L 499.75 344 500.25 344 500.25 336 Z "/>
<path id="p782" fill="rgb(0,0,255)" d="M 496 347.75 L 504 347.75 504 348.25 496 348.25 Z "/>
<path id="p783" fill="rgb(0,0,255)" d="M 499.75 344 L 499.75 352 500.25 352 500.25 344 Z "/>
<path id="p784" fill="rgb(0,0,255)" d="M 448 367.75 L 480 367.75 480 368.25 448 368.25 Z "/>
<path id="p785" fill="rgb(0,0,255)" d="M 463.75 352 L 463.75 384 464.25 384 464.25 352 Z "/>
<path id="p786" fill="rgb(0,0,255)" d="M 464 375.75 L 480 375.75 480 376.25 464 376.25 Z "/>
<path id="p787" fill="rgb(0,0,255)" d="M 471.75 368 L 471.75 384 472.25 384 472.25 368 Z "/>
<path id="p788" fill="rgb(0,0,255)" d="M 472 379.75 L 480 379.75 480 380.25 472 380.25 Z "/>
<path id="p789" fill="rgb(0,0,255)" d="M 475.75 376 L 475.75 384 476.25 384 476.25 376 Z "/>
<path id="p790" fill="rgb(0,0,255)" d="M 480 367.75 L 512 367.75 512 368.25 480 368.25 Z "/>
<path id="p791" fill="rgb(0,0,255)" d="M 495.75 352 L 495.75 384 496.25 384 496.25 352 Z "/>
<path id="p792" fill="rgb(0,0,255)" d="M 480 359.75 L 496 359.75 496 360.25 480 360.25 Z "/>
<path id="p793" fill="rgb(0,0,255)" d="M 487.75 352 L 487.75 368 488.25 368 488.25 352 Z "/>
<path id="p794" fill="rgb(0,0,255)" d="M 488 355.75 L 496 355.75 496 356.25 488 356.25 Z "/>
<path id="p795" fill="rgb(0,0,255)" d="M 491.75 352 L 491.75 360 492.25 360 492.25 352 Z "/>
<path id="p796" fill="rgb(0,0,255)" d="M 480 363.75 L 488 363.75 488 364.25 480 364.25 Z "/>
<path id="p797" fill="rgb(0,0,255)" d="M 483.75 360 L 483.75 368 484.25 368 484.25 360 Z "/>
<path id="p798" fill="rgb(0,0,255)" d="M 488 363.75 L 496 363.75 496 364.25 488 364.25 Z "/>
<path id="p799" fill="rgb(0,0,255)" d="M 491.75 360 L 491.75 368 492.25 368 492.25 360 Z "/>
<path id="p800" fill="rgb(0,0,255)" d="M 480 375.75 L 496 375.75 496 376.25 480 376.25 Z "/>
<path id="p801" fill="rgb(0,0,255)" d="M 487.75 368 L 487.75 384 488.25 384 488.25 368 Z "/>
<path id="p802" fill="rgb(0,0,255)" d="M 480 371.75 L 488 371.75 488 372.25 480 372.25 Z "/>
<path id="p803" fill="rgb(0,0,255)" d="M 483.75 368 L 483.75 376 484.25 376 484.25 368 Z "/>
<path id="p804" fill="rgb(0,0,255)" d="M 480 379.75 L 488 379.75 488 380.25 480 380.25 Z "/>
<path id="p805" fill="rgb(0,0,255)" d="M 483.75 376 L 483.75 384 484.25 384 484.25 376 Z "/>
<path id="p806" fill="rgb(0,0,255)" d="M 256 447.75 L 384 447.75 384 448.25 256 448.25 Z "/>
<path id="p807" fill="rgb(0,0,255)" d="M 319.75 384 L 319.75 512 320.25 512 320.25 384 Z "/>
<path id="p808" fill="rgb(0,0,255)" d="M 256 479.75 L 320 479.75 320 480.25 256 480.25 Z "/>
<path id="p809" fill="rgb(0,0,255)" d="M 287.75 448 L 287.75 512 288.25 512 288.25 448 Z "/>
<path id="p810" fill="rgb(0,0,255)" d="M 256 495.75 L 288 495.75 288 496.25 256 496.25 Z "/>
<path id="p811" fill="rgb(0,0,255)" d="M 271.75 480 L 271.75 512 272.25 512 272.25 480 Z "/>
<path id="p812" fill="rgb(0,0,255)" d="M 256 503.75 L 272 503.75 272 504.25 256 504.25 Z "/>
<path id="p813" fill="rgb(0,0,255)" d="M 263.75 496 L 263.75 512 264.25 512 264.25 496 Z "/>
<path id="p814" fill="rgb(0,0,255)" d="M 256 507.75 L 264 507.75 264 508.25 256 508.25 Z "/>
<path id="p815" fill="rgb(0,0,255)" d="M 259.75 504 L 259.75 512 260.25 512 260.25 504 Z "/>
<path id="p816" fill="rgb(0,0,255)" d="M 264 507.75 L 272 507.75 272 508.25 264 508.25 Z "/>
<path id="p817" fill="rgb(0,0,255)" d="M 267.75 504 L 267.75 512 268.25 512 268.25 504 Z "/>
<path id="p818" fill="rgb(0,0,255)" d="M 272 503.75 L 288 503.75 288 504.25 272 504.25 Z "/>
<path id="p819" fill="rgb(0,0,255)" d="M 279.75 496 L 279.75 512 280.25 512 280.25 496 Z "/>
<path id="p820" fill="rgb(0,0,255)" d="M 272 507.75 L 280 507.75 280 508.25 272 508.25 Z "/>
<path id="p821" fill="rgb(0,0,255)" d="M 275.75 504 L 275.75 512 276.25 512 276.25 504 Z "/>
<path id="p822" fill="rgb(0,0,255)" d="M 280 507.75 L 288 507.75 288 508.25 280 508.25 Z "/>
<path id="p823" fill="rgb(0,0,255)" d="M 283.75 504 L 283.75 512 284.25 512 284.25 504 Z "/>
<path id="p824" fill="rgb(0,0,255)" d="M 288 495.75 L 320 495.75 320 496.25 288 496.25 Z "/>
<path id="p825" fill="rgb(0,0,255)" d="M 303.75 480 L 303.75 512 304.25 512 304.25 480 Z "/>
<path id="p826" fill="rgb(0,0,255)" d="M 288 503.75 L 304 503.75 304 504.25 288 504.25 Z "/>
<path id="p827" fill="rgb(0,0,255)" d="M 295.75 496 L 295.75 512 296.25 512 296.25 496 Z "/>
<path id="p828" fill="rgb(0,0,255)" d="M 288 507.75 L 296 507.75 296 508.25 288 508.25 Z "/>
<path id="p829" fill="rgb(0,0,255)" d="M 291.75 504 L 291.75 512 292.25 512 292.25 504 Z "/>
<path id="p830" fill="rgb(0,0,255)" d="M 296 507.75 L 304 507.75 304 508.25 296 508.25 Z "/>
<path id="p831" fill="rgb(0,0,255)" d="M 299.75 504 L 299.75 512 300.25 512 300.25 504 Z "/>
<path id="p832" fill="rgb(0,0,255)" d="M 304 503.75 L 320 503.75 320 504.25 304 504.25 Z "/>
<path id="p833" fill="rgb(0,0,255)" d="M 311.75 496 L 311.75 512 312.25 512 312.25 496 Z "/>
<path id="p834" fill="rgb(0,0,255)" d="M 312 499.75 L 320 499.75 320 500.25 312 500.25 Z "/>
<path id="p835" fill="rgb(0,0,255)" d="M 315.75 496 L 315.75 504 316.25 504 316.25 496 Z "/>
<path id="p836" fill="rgb(0,0,255)" d="M 304 507.75 L 312 507.75 312 508.25 304 508.25 Z "/>
<path id="p837" fill="rgb(0,0,255)" d="M 307.75 504 L 307.75 512 308.25 512 308.25 504 Z "/>
<path id="p838" fill="rgb(0,0,255)" d="M 312 507.75 L 320 507.75 320 508.25 312 508.25 Z "/>
<path id="p839" fill="rgb(0,0,255)" d="M 315.75 504 L 315.75 512 316.25 512 316.25 504 Z "/>
<path id="p840" fill="rgb(0,0,255)" d="M 320 479.75 L 384 479.75 384 480.25 320 480.25 Z "/>
<path id="p841" fill="rgb(0,0,255)" d="M 351.75 448 L 351.75 512 352.25 512 352.25 448 Z "/>
<path id="p842" fill="rgb(0,0,255)" d="M 352 463.75 L 384 463.75 384 464.25 352 464.25 Z "/>
<path id="p843" fill="rgb(0,0,255)" d="M 367.75 448 L 367.75 480 368.25 480 368.25 448 Z "/>
<path id="p844" fill="rgb(0,0,255)" d="M 368 471.75 L 384 471.75 384 472.25 368 472.25 Z "/>
<path id="p845" fill="rgb(0,0,255)" d="M 375.75 464 L 375.75 480 376.25 480 376.25 464 Z "/>
<path id="p846" fill="rgb(0,0,255)" d="M 376 475.75 L 384 475.75 384 476.25 376 476.25 Z "/>
<path id="p847" fill="rgb(0,0,255)" d="M 379.75 472 L 379.75 480 380.25 480 380.25 472 Z "/>
<path id="p848" fill="rgb(0,0,255)" d="M 320 495.75 L 352 495.75 352 496.25 320 496.25 Z "/>
<path id="p849" fill="rgb(0,0,255)" d="M 335.75 480 L 335.75 512 336.25 512 336.25 480 Z "/>
<path id="p850" fill="rgb(0,0,255)" d="M 336 487.75 L 352 487.75 352 488.25 336 488.25 Z "/>
<path id="p851" fill="rgb(0,0,255)" d="M 343.75 480 L 343.75 496 344.25 496 344.25 480 Z "/>
<path id="p852" fill="rgb(0,0,255)" d="M 344 491.75 L 352 491.75 352 492.25 344 492.25 Z "/>
<path id="p853" fill="rgb(0,0,255)" d="M 347.75 488 L 347.75 496 348.25 496 348.25 488 Z "/>
<path id="p854" fill="rgb(0,0,255)" d="M 320 503.75 L 336 503.75 336 504.25 320 504.25 Z "/>
<path id="p855" fill="rgb(0,0,255)" d="M 327.75 496 L 327.75 512 328.25 512 328.25 496 Z "/>
<path id="p856" fill="rgb(0,0,255)" d="M 320 499.75 L 328 499.75 328 500.25 320 500.25 Z "/>
<path id="p857" fill="rgb(0,0,255)" d="M 323.75 496 L 323.75 504 324.25 504 324.25 496 Z "/>
<path id="p858" fill="rgb(0,0,255)" d="M 328 499.75 L 336 499.75 336 500.25 328 500.25 Z "/>
<path id="p859" fill="rgb(0,0,255)" d="M 331.75 496 L 331.75 504 332.25 504 332.25 496 Z "/>
<path id="p860" fill="rgb(0,0,255)" d="M 336 503.75 L 352 503.75 352 504.25 336 504.25 Z "/>
<path id="p861" fill="rgb(0,0,255)" d="M 343.75 496 L 343.75 512 344.25 512 344.25 496 Z "/>
<path id="p862" fill="rgb(0,0,255)" d="M 336 499.75 L 344 499.75 344 500.25 336 500.25 Z "/>
<path id="p863" fill="rgb(0,0,255)" d="M 339.75 496 L 339.75 504 340.25 504 340.25 496 Z "/>
<path id="p864" fill="rgb(0,0,255)" d="M 344 499.75 L 352 499.75 352 500.25 344 500.25 Z "/>
<path id="p865" fill="rgb(0,0,255)" d="M 347.75 496 L 347.75 504 348.25 504 348.25 496 Z "/>
<path id="p866" fill="rgb(0,0,255)" d="M 352 495.75 L 384 495.75 384 496.25 352 496.25 Z "/>
<path id="p867" fill="rgb(0,0,255)" d="M 367.75 480 L 367.75 512 368.25 512 368.25 480 Z "/>
<path id="p868" fill="rgb(0,0,255)" d="M 352 487.75 L 368 487.75 368 488.25 352 488.25 Z "/>
<path id="p869" fill="rgb(0,0,255)" d="M 359.75 480 L 359.75 496 360.25 496 360.25 480 Z "/>
<path id="p870" fill="rgb(0,0,255)" d="M 360 483.75 L 368 483.75 368 484.25 360 484.25 Z "/>
<path id="p871" fill="rgb(0,0,255)" d="M 363.75 480 L 363.75 488 364.25 488 364.25 480 Z "/>
<path id="p872" fill="rgb(0,0,255)" d="M 352 491.75 L 360 491.75 360 492.25 352 492.25 Z "/>
<path id="p873" fill="rgb(0,0,255)" d="M 355.75 488 L 355.75 496 356.25 496 356.25 488 Z "/>
<path id="p874" fill="rgb(0,0,255)" d="M 360 491.75 L 368 491.75 368 492.25 360 492.25 Z "/>
<path id="p875" fill="rgb(0,0,255)" d="M 363.75 488 L 363.75 496 364.25 496 364.25 488 Z "/>
<path id="p876" fill="rgb(0,0,255)" d="M 368 487.75 L 384 487.75 384 488.25 368 488.25 Z "/>
<path id="p877" fill="rgb(0,0,255)" d="M 375.75 480 L 375.75 496 376.25 496 376.25 480 Z "/>
<path id="p878" fill="rgb(0,0,255)" d="M 368 483.75 L 376 483.75 376 484.25 368 484.25 Z "/>
<path id="p879" fill="rgb(0,0,255)" d="M 371.75 480 L 371.75 488 372.25 488 372.25 480 Z "/>
<path id="p880" fill="rgb(0,0,255)" d="M 376 483.75 L 384 483.75 384 484.25 376 484.25 Z "/>
<path id="p881" fill="rgb(0,0,255)" d="M 379.75 480 L 379.75 488 380.25 488 380.25 480 Z "/>
<path id="p882" fill="rgb(0,0,255)" d="M 384 447.75 L 512 447.75 512 448.25 384 448.25 Z "/>
<path id="p883" fill="rgb(0,0,255)" d="M 447.75 384 L 447.75 512 448.25 512 448.25 384 Z "/>
<path id="p884" fill="rgb(0,0,255)" d="M 384 415.75 L 448 415.75 448 416.25 384 416.25 Z "/>
<path id="p885" fill="rgb(0,0,255)" d="M 415.75 384 L 415.75 448 416.25 448 416.25 384 Z "/>
<path id="p886" fill="rgb(0,0,255)" d="M 416 431.75 L 448 431.75 448 432.25 416 432.25 Z "/>
<path id="p887" fill="rgb(0,0,255)" d="M 431.75 416 L 431.75 448 432.25 448 432.25 416 Z "/>
<path id="p888" fill="rgb(0,0,255)" d="M 432 423.75 L 448 423.75 448 424.25 432 424.25 Z "/>
<path id="p889" fill="rgb(0,0,255)" d="M 439.75 416 L 439.75 432 440.25 432 440.25 416 Z "/>
<path id="p890" fill="rgb(0,0,255)" d="M 440 427.75 L 448 427.75 448 428.25 440 428.25 Z "/>
<path id="p891" fill="rgb(0,0,255)" d="M 443.75 424 L 443.75 432 444.25 432 444.25 424 Z "/>
<path id="p892" fill="rgb(0,0,255)" d="M 416 439.75 L 432 439.75 432 440.25 416 440.25 Z "/>
<path id="p893" fill="rgb(0,0,255)" d="M 423.75 432 L 423.75 448 424.25 448 424.25 432 Z "/>
<path id="p894" fill="rgb(0,0,255)" d="M 424 443.75 L 432 443.75 432 444.25 424 444.25 Z "/>
<path id="p895" fill="rgb(0,0,255)" d="M 427.75 440 L 427.75 448 428.25 448 428.25 440 Z "/>
<path id="p896" fill="rgb(0,0,255)" d="M 432 439.75 L 448 439.75 448 440.25 432 440.25 Z "/>
<path id="p897" fill="rgb(0,0,255)" d="M 439.75 432 L 439.75 448 440.25 448 440.25 432 Z "/>
<path id="p898" fill="rgb(0,0,255)" d="M 432 435.75 L 440 435.75 440 436.25 432 436.25 Z "/>
<path id="p899" fill="rgb(0,0,255)" d="M 435.75 432 L 435.75 440 436.25 440 436.25 432 Z "/>
<path id="p900" fill="rgb(0,0,255)" d="M 440 435.75 L 448 435.75 448 436.25 440 436.25 Z "/>
<path id="p901" fill="rgb(0,0,255)" d="M 443.75 432 L 443.75 440 444.25 440 444.25 432 Z "/>
<path id="p902" fill="rgb(0,0,255)" d="M 432 443.75 L 440 443.75 440 444.25 432 444.25 Z "/>
<path id="p903" fill="rgb(0,0,255)" d="M 435.75 440 L 435.75 448 436.25 448 436.25 440 Z "/>
<path id="p904" fill="rgb(0,0,255)" d="M 448 415.75 L 512 415.75 512 416.25 448 416.25 Z "/>
<path id="p905" fill="rgb(0,0,255)" d="M 479.75 384 L 479.75 448 480.25 448 480.25 384 Z "/>
<path id="p906" fill="rgb(0,0,255)" d="M 448 399.75 L 480 399.75 480 400.25 448 400.25 Z "/>
<path id="p907" fill="rgb(0,0,255)" d="M 463.75 384 L 463.75 416 464.25 416 464.25 384 Z "/>
<path id="p908" fill="rgb(0,0,255)" d="M 464 391.75 L 480 391.75 480 392.25 464 392.25 Z "/>
<path id="p909" fill="rgb(0,0,255)" d="M 471.75 384 L 471.75 400 472.25 400 472.25 384 Z "/>
<path id="p910" fill="rgb(0,0,255)" d="M 472 387.75 L 480 387.75 480 388.25 472 388.25 Z "/>
<path id="p911" fill="rgb(0,0,255)" d="M 475.75 384 L 475.75 392 476.25 392 476.25 384 Z "/>
<path id="p912" fill="rgb(0,0,255)" d="M 464 395.75 L 472 395.75 472 396.25 464 396.25 Z "/>
<path id="p913" fill="rgb(0,0,255)" d="M 467.75 392 L 467.75 400 468.25 400 468.25 392 Z "/>
<path id="p914" fill="rgb(0,0,255)" d="M 472 395.75 L 480 395.75 480 396.25 472 396.25 Z "/>
<path id="p915" fill="rgb(0,0,255)" d="M 475.75 392 L 475.75 400 476.25 400 476.25 392 Z "/>
<path id="p916" fill="rgb(0,0,255)" d="M 448 407.75 L 464 407.75 464 408.25 448 408.25 Z "/>
<path id="p917" fill="rgb(0,0,255)" d="M 455.75 400 L 455.75 416 456.25 416 456.25 400 Z "/>
<path id="p918" fill="rgb(0,0,255)" d="M 456 403.75 L 464 403.75 464 404.25 456 404.25 Z "/>
<path id="p919" fill="rgb(0,0,255)" d="M 459.75 400 L 459.75 408 460.25 408 460.25 400 Z "/>
<path id="p920" fill="rgb(0,0,255)" d="M 448 411.75 L 456 411.75 456 412.25 448 412.25 Z "/>
<path id="p921" fill="rgb(0,0,255)" d="M 451.75 408 L 451.75 416 452.25 416 452.25 408 Z "/>
<path id="p922" fill="rgb(0,0,255)" d="M 456 411.75 L 464 411.75 464 412.25 456 412.25 Z "/>
<path id="p923" fill="rgb(0,0,255)" d="M 459.75 408 L 459.75 416 460.25 416 460.25 408 Z "/>
<path id="p924" fill="rgb(0,0,255)" d="M 464 407.75 L 480 407.75 480 408.25 464 408.25 Z "/>
<path id="p925" fill="rgb(0,0,255)" d="M 471.75 400 L 471.75 416 472.25 416 472.25 400 Z "/>
<path id="p926" fill="rgb(0,0,255)" d="M 464 403.75 L 472 403.75 472 404.25 464 404.25 Z "/>
<path id="p927" fill="rgb(0,0,255)" d="M 467.75 400 L 467.75 408 468.25 408 468.25 400 Z "/>
<path id="p928" fill="rgb(0,0,255)" d="M 448 431.75 L 480 431.75 480 432.25 448 432.25 Z "/>
<path id="p929" fill="rgb(0,0,255)" d="M 463.75 416 L 463.75 448 464.25 448 464.25 416 Z "/>
<path id="p930" fill="rgb(0,0,255)" d="M 448 423.75 L 464 423.75 464 424.25 448 424.25 Z "/>
<path id="p931" fill="rgb(0,0,255)" d="M 455.75 416 L 455.75 432 456.25 432 456.25 416 Z "/>
<path id="p932" fill="rgb(0,0,255)" d="M 448 419.75 L 456 419.75 456 420.25 448 420.25 Z "/>
<path id="p933" fill="rgb(0,0,255)" d="M 451.75 416 L 451.75 424 452.25 424 452.25 416 Z "/>
<path id="p934" fill="rgb(0,0,255)" d="M 448 427.75 L 456 427.75 456 428.25 448 428.25 Z "/>
<path id="p935" fill="rgb(0,0,255)" d="M 451.75 424 L 451.75 432 452.25 432 452.25 424 Z "/>
<path id="p936" fill="rgb(0,0,255)" d="M 384 479.75 L 448 479.75 448 480.25 384 480.25 Z "/>
<path id="p937" fill="rgb(0,0,255)" d="M 415.75 448 L 415.75 512 416.25 512 416.25 448 Z "/>
<path id="p938" fill="rgb(0,0,255)" d="M 384 463.75 L 416 463.75 416 464.25 384 464.25 Z "/>
<path id="p939" fill="rgb(0,0,255)" d="M 399.75 448 L 399.75 480 400.25 480 400.25 448 Z "/>
<path id="p940" fill="rgb(0,0,255)" d="M 400 455.75 L 416 455.75 416 456.25 400 456.25 Z "/>
<path id="p941" fill="rgb(0,0,255)" d="M 407.75 448 L 407.75 464 408.25 464 408.25 448 Z "/>
<path id="p942" fill="rgb(0,0,255)" d="M 408 451.75 L 416 451.75 416 452.25 408 452.25 Z "/>
<path id="p943" fill="rgb(0,0,255)" d="M 411.75 448 L 411.75 456 412.25 456 412.25 448 Z "/>
<path id="p944" fill="rgb(0,0,255)" d="M 400 459.75 L 408 459.75 408 460.25 400 460.25 Z "/>
<path id="p945" fill="rgb(0,0,255)" d="M 403.75 456 L 403.75 464 404.25 464 404.25 456 Z "/>
<path id="p946" fill="rgb(0,0,255)" d="M 408 459.75 L 416 459.75 416 460.25 408 460.25 Z "/>
<path id="p947" fill="rgb(0,0,255)" d="M 411.75 456 L 411.75 464 412.25 464 412.25 456 Z "/>
<path id="p948" fill="rgb(0,0,255)" d="M 384 471.75 L 400 471.75 400 472.25 384 472.25 Z "/>
<path id="p949" fill="rgb(0,0,255)" d="M 391.75 464 L 391.75 480 392.25 480 392.25 464 Z "/>
<path id="p950" fill="rgb(0,0,255)" d="M 392 467.75 L 400 467.75 400 468.25 392 468.25 Z "/>
<path id="p951" fill="rgb(0,0,255)" d="M 395.75 464 L 395.75 472 396.25 472 396.25 464 Z "/>
<path id="p952" fill="rgb(0,0,255)" d="M 384 475.75 L 392 475.75 392 476.25 384 476.25 Z "/>
<path id="p953" fill="rgb(0,0,255)" d="M 387.75 472 L 387.75 480 388.25 480 388.25 472 Z "/>
<path id="p954" fill="rgb(0,0,255)" d="M 392 475.75 L 400 475.75 400 476.25 392 476.25 Z "/>
<path id="p955" fill="rgb(0,0,255)" d="M 395.75 472 L 395.75 480 396.25 480 396.25 472 Z "/>
<path id="p956" fill="rgb(0,0,255)" d="M 400 471.75 L 416 471.75 416 472.25 400 472.25 Z "/>
<path id="p957" fill="rgb(0,0,255)" d="M 407.75 464 L 407.75 480 408.25 480 408.25 464 Z "/>
<path id="p958" fill="rgb(0,0,255)" d="M 400 467.75 L 408 467.75 408 468.25 400 468.25 Z "/>
<path id="p959" fill="rgb(0,0,255)" d="M 403.75 464 L 403.75 472 404.25 472 404.25 464 Z "/>
<path id="p960" fill="rgb(0,0,255)" d="M 416 463.75 L 448 463.75 448 464.25 416 464.25 Z "/>
<path id="p961" fill="rgb(0,0,255)" d="M 431.75 448 L 431.75 480 432.25 480 432.25 448 Z "/>
<path id="p962" fill="rgb(0,0,255)" d="M 416 455.75 L 432 455.75 432 456.25 416 456.25 Z "/>
<path id="p963" fill="rgb(0,0,255)" d="M 423.75 448 L 423.75 464 424.25 464 424.25 448 Z "/>
<path id="p964" fill="rgb(0,0,255)" d="M 416 451.75 L 424 451.75 424 452.25 416 452.25 Z "/>
<path id="p965" fill="rgb(0,0,255)" d="M 419.75 448 L 419.75 456 420.25 456 420.25 448 Z "/>
<path id="p966" fill="rgb(0,0,255)" d="M 424 451.75 L 432 451.75 432 452.25 424 452.25 Z "/>
<path id="p967" fill="rgb(0,0,255)" d="M 427.75 448 L 427.75 456 428.25 456 428.25 448 Z "/>
</g>
</svg>
