<?xml version="1.0" standalone="no"?>
<svg
    xmlns:xlink="http://www.w3.org/1999/xlink"
    xmlns:dc="http://purl.org/dc/elements/1.1/"
    xmlns:cc="http://creativecommons.org/ns#"
    xmlns:rdf="http://www.w3.org/1999/02/22-rdf-syntax-ns#"
    xmlns:svg="http://www.w3.org/2000/svg"
    xmlns="http://www.w3.org/2000/svg"
    version="1.1"
    viewBox="0 0 512 512">
<defs>
</defs>
<g transform="translate(0, 512) scale(1, -1)">
<path id="p1" fill="rgb(255,0,0)" d="M 0 0 L 256 256 512 0 0 0 Z "/>
<path id="p2" fill="rgb(0,0,255)" d="M 0 -0.25 L 512 -0.25 512 0.25 0 0.25 Z "/>
<path id="p3" fill="rgb(0,0,255)" d="M 0 511.75 L 512 511.75 512 512.25 0 512.25 Z "/>
<path id="p4" fill="rgb(0,0,255)" d="M -0.25 0 L -0.25 512 0.25 512 0.25 0 Z "/>
<path id="p5" fill="rgb(0,0,255)" d="M 511.75 0 L 511.75 512 512.25 512 512.25 0 Z "/>
<path id="p6" fill="rgb(0,0,255)" d="M 0 255.75 L 512 255.75 512 256.25 0 256.25 Z "/>
<path id="p7" fill="rgb(0,0,255)" d="M 255.75 0 L 255.75 512 256.25 512 256.25 0 Z "/>
<path id="p8" fill="rgb(0,0,255)" d="M 0 127.75 L 256 127.75 256 128.25 0 128.25 Z "/>
<path id="p9" fill="rgb(0,0,255)" d="M 127.75 0 L 127.75 256 128.25 256 128.25 0 Z "/>
<path id="p10" fill="rgb(0,0,255)" d="M 0 63.75 L 128 63.75 128 64.25 0 64.25 Z "/>
<path id="p11" fill="rgb(0,0,255)" d="M 63.75 0 L 63.75 128 64.25 128 64.25 0 Z "/>
<path id="p12" fill="rgb(0,0,255)" d="M 0 31.75 L 64 31.75 64 32.25 0 32.25 Z "/>
<path id="p13" fill="rgb(0,0,255)" d="M 31.75 0 L 31.75 64 32.25 64 32.25 0 Z "/>
<path id="p14" fill="rgb(0,0,255)" d="M 0 15.75 L 32 15.75 32 16.25 0 16.25 Z "/>
<path id="p15" fill="rgb(0,0,255)" d="M 15.75 0 L 15.75 32 16.25 32 16.25 0 Z "/>
<path id="p16" fill="rgb(0,0,255)" d="M 0 7.75 L 16 7.75 16 8.25 0 8.25 Z "/>
<path id="p17" fill="rgb(0,0,255)" d="M 7.75 0 L 7.75 16 8.25 16 8.25 0 Z "/>
<path id="p18" fill="rgb(0,0,255)" d="M 0 3.75 L 8 3.75 8 4.25 0 4.25 Z "/>
<path id="p19" fill="rgb(0,0,255)" d="M 3.75 0 L 3.75 8 4.25 8 4.25 0 Z "/>
<path id="p20" fill="rgb(0,0,255)" d="M 8 11.75 L 16 11.75 16 12.25 8 12.25 Z "/>
<path id="p21" fill="rgb(0,0,255)" d="M 11.75 8 L 11.75 16 12.25 16 12.25 8 Z "/>
<path id="p22" fill="rgb(0,0,255)" d="M 16 23.75 L 32 23.75 32 24.25 16 24.25 Z "/>
<path id="p23" fill="rgb(0,0,255)" d="M 23.75 16 L 23.75 32 24.25 32 24.25 16 Z "/>
<path id="p24" fill="rgb(0,0,255)" d="M 16 19.75 L 24 19.75 24 20.25 16 20.25 Z "/>
<path id="p25" fill="rgb(0,0,255)" d="M 19.75 16 L 19.75 24 20.25 24 20.25 16 Z "/>
<path id="p26" fill="rgb(0,0,255)" d="M 24 27.75 L 32 27.75 32 28.25 24 28.25 Z "/>
<path id="p27" fill="rgb(0,0,255)" d="M 27.75 24 L 27.75 32 28.25 32 28.25 24 Z "/>
<path id="p28" fill="rgb(0,0,255)" d="M 32 47.75 L 64 47.75 64 48.25 32 48.25 Z "/>
<path id="p29" fill="rgb(0,0,255)" d="M 47.75 32 L 47.75 64 48.25 64 48.25 32 Z "/>
<path id="p30" fill="rgb(0,0,255)" d="M 32 39.75 L 48 39.75 48 40.25 32 40.25 Z "/>
<path id="p31" fill="rgb(0,0,255)" d="M 39.75 32 L 39.75 48 40.25 48 40.25 32 Z "/>
<path id="p32" fill="rgb(0,0,255)" d="M 32 35.75 L 40 35.75 40 36.25 32 36.25 Z "/>
<path id="p33" fill="rgb(0,0,255)" d="M 35.75 32 L 35.75 40 36.25 40 36.25 32 Z "/>
<path id="p34" fill="rgb(0,0,255)" d="M 40 43.75 L 48 43.75 48 44.25 40 44.25 Z "/>
<path id="p35" fill="rgb(0,0,255)" d="M 43.75 40 L 43.75 48 44.25 48 44.25 40 Z "/>
<path id="p36" fill="rgb(0,0,255)" d="M 48 55.75 L 64 55.75 64 56.25 48 56.25 Z "/>
<path id="p37" fill="rgb(0,0,255)" d="M 55.75 48 L 55.75 64 56.25 64 56.25 48 Z "/>
<path id="p38" fill="rgb(0,0,255)" d="M 48 51.75 L 56 51.75 56 52.25 48 52.25 Z "/>
<path id="p39" fill="rgb(0,0,255)" d="M 51.75 48 L 51.75 56 52.25 56 52.25 48 Z "/>
<path id="p40" fill="rgb(0,0,255)" d="M 56 59.75 L 64 59.75 64 60.25 56 60.25 Z "/>
<path id="p41" fill="rgb(0,0,255)" d="M 59.75 56 L 59.75 64 60.25 64 60.25 56 Z "/>
<path id="p42" fill="rgb(0,0,255)" d="M 64 95.75 L 128 95.75 128 96.25 64 96.25 Z "/>
<path id="p43" fill="rgb(0,0,255)" d="M 95.75 64 L 95.75 128 96.25 128 96.25 64 Z "/>
<path id="p44" fill="rgb(0,0,255)" d="M 64 79.75 L 96 79.75 96 80.25 64 80.25 Z "/>
<path id="p45" fill="rgb(0,0,255)" d="M 79.75 64 L 79.75 96 80.25 96 80.25 64 Z "/>
<path id="p46" fill="rgb(0,0,255)" d="M 64 71.75 L 80 71.75 80 72.25 64 72.25 Z "/>
<path id="p47" fill="rgb(0,0,255)" d="M 71.75 64 L 71.75 80 72.25 80 72.25 64 Z "/>
<path id="p48" fill="rgb(0,0,255)" d="M 64 67.75 L 72 67.75 72 68.25 64 68.25 Z "/>
<path id="p49" fill="rgb(0,0,255)" d="M 67.75 64 L 67.75 72 68.25 72 68.25 64 Z "/>
<path id="p50" fill="rgb(0,0,255)" d="M 72 75.75 L 80 75.75 80 76.25 72 76.25 Z "/>
<path id="p51" fill="rgb(0,0,255)" d="M 75.75 72 L 75.75 80 76.25 80 76.25 72 Z "/>
<path id="p52" fill="rgb(0,0,255)" d="M 80 87.75 L 96 87.75 96 88.25 80 88.25 Z "/>
<path id="p53" fill="rgb(0,0,255)" d="M 87.75 80 L 87.75 96 88.25 96 88.25 80 Z "/>
<path id="p54" fill="rgb(0,0,255)" d="M 80 83.75 L 88 83.75 88 84.25 80 84.25 Z "/>
<path id="p55" fill="rgb(0,0,255)" d="M 83.75 80 L 83.75 88 84.25 88 84.25 80 Z "/>
<path id="p56" fill="rgb(0,0,255)" d="M 88 91.75 L 96 91.75 96 92.25 88 92.25 Z "/>
<path id="p57" fill="rgb(0,0,255)" d="M 91.75 88 L 91.75 96 92.25 96 92.25 88 Z "/>
<path id="p58" fill="rgb(0,0,255)" d="M 96 111.75 L 128 111.75 128 112.25 96 112.25 Z "/>
<path id="p59" fill="rgb(0,0,255)" d="M 111.75 96 L 111.75 128 112.25 128 112.25 96 Z "/>
<path id="p60" fill="rgb(0,0,255)" d="M 96 103.75 L 112 103.75 112 104.25 96 104.25 Z "/>
<path id="p61" fill="rgb(0,0,255)" d="M 103.75 96 L 103.75 112 104.25 112 104.25 96 Z "/>
<path id="p62" fill="rgb(0,0,255)" d="M 96 99.75 L 104 99.75 104 100.25 96 100.25 Z "/>
<path id="p63" fill="rgb(0,0,255)" d="M 99.75 96 L 99.75 104 100.25 104 100.25 96 Z "/>
<path id="p64" fill="rgb(0,0,255)" d="M 104 107.75 L 112 107.75 112 108.25 104 108.25 Z "/>
<path id="p65" fill="rgb(0,0,255)" d="M 107.75 104 L 107.75 112 108.25 112 108.25 104 Z "/>
<path id="p66" fill="rgb(0,0,255)" d="M 112 119.75 L 128 119.75 128 120.25 112 120.25 Z "/>
<path id="p67" fill="rgb(0,0,255)" d="M 119.75 112 L 119.75 128 120.25 128 120.25 112 Z "/>
<path id="p68" fill="rgb(0,0,255)" d="M 112 115.75 L 120 115.75 120 116.25 112 116.25 Z "/>
<path id="p69" fill="rgb(0,0,255)" d="M 115.75 112 L 115.75 120 116.25 120 116.25 112 Z "/>
<path id="p70" fill="rgb(0,0,255)" d="M 120 123.75 L 128 123.75 128 124.25 120 124.25 Z "/>
<path id="p71" fill="rgb(0,0,255)" d="M 123.75 120 L 123.75 128 124.25 128 124.25 120 Z "/>
<path id="p72" fill="rgb(0,0,255)" d="M 128 191.75 L 256 191.75 256 192.25 128 192.25 Z "/>
<path id="p73" fill="rgb(0,0,255)" d="M 191.75 128 L 191.75 256 192.25 256 192.25 128 Z "/>
<path id="p74" fill="rgb(0,0,255)" d="M 128 159.75 L 192 159.75 192 160.25 128 160.25 Z "/>
<path id="p75" fill="rgb(0,0,255)" d="M 159.75 128 L 159.75 192 160.25 192 160.25 128 Z "/>
<path id="p76" fill="rgb(0,0,255)" d="M 128 143.75 L 160 143.75 160 144.25 128 144.25 Z "/>
<path id="p77" fill="rgb(0,0,255)" d="M 143.75 128 L 143.75 160 144.25 160 144.25 128 Z "/>
<path id="p78" fill="rgb(0,0,255)" d="M 128 135.75 L 144 135.75 144 136.25 128 136.25 Z "/>
<path id="p79" fill="rgb(0,0,255)" d="M 135.75 128 L 135.75 144 136.25 144 136.25 128 Z "/>
<path id="p80" fill="rgb(0,0,255)" d="M 128 131.75 L 136 131.75 136 132.25 128 132.25 Z "/>
<path id="p81" fill="rgb(0,0,255)" d="M 131.75 128 L 131.75 136 132.25 136 132.25 128 Z "/>
<path id="p82" fill="rgb(0,0,255)" d="M 136 139.75 L 144 139.75 144 140.25 136 140.25 Z "/>
<path id="p83" fill="rgb(0,0,255)" d="M 139.75 136 L 139.75 144 140.25 144 140.25 136 Z "/>
<path id="p84" fill="rgb(0,0,255)" d="M 144 151.75 L 160 151.75 160 152.25 144 152.25 Z "/>
<path id="p85" fill="rgb(0,0,255)" d="M 151.75 144 L 151.75 160 152.25 160 152.25 144 Z "/>
<path id="p86" fill="rgb(0,0,255)" d="M 144 147.75 L 152 147.75 152 148.25 144 148.25 Z "/>
<path id="p87" fill="rgb(0,0,255)" d="M 147.75 144 L 147.75 152 148.25 152 148.25 144 Z "/>
<path id="p88" fill="rgb(0,0,255)" d="M 152 155.75 L 160 155.75 160 156.25 152 156.25 Z "/>
<path id="p89" fill="rgb(0,0,255)" d="M 155.75 152 L 155.75 160 156.25 160 156.25 152 Z "/>
<path id="p90" fill="rgb(0,0,255)" d="M 160 175.75 L 192 175.75 192 176.25 160 176.25 Z "/>
<path id="p91" fill="rgb(0,0,255)" d="M 175.75 160 L 175.75 192 176.25 192 176.25 160 Z "/>
<path id="p92" fill="rgb(0,0,255)" d="M 160 167.75 L 176 167.75 176 168.25 160 168.25 Z "/>
<path id="p93" fill="rgb(0,0,255)" d="M 167.75 160 L 167.75 176 168.25 176 168.25 160 Z "/>
<path id="p94" fill="rgb(0,0,255)" d="M 160 163.75 L 168 163.75 168 164.25 160 164.25 Z "/>
<path id="p95" fill="rgb(0,0,255)" d="M 163.75 160 L 163.75 168 164.25 168 164.25 160 Z "/>
<path id="p96" fill="rgb(0,0,255)" d="M 168 171.75 L 176 171.75 176 172.25 168 172.25 Z "/>
<path id="p97" fill="rgb(0,0,255)" d="M 171.75 168 L 171.75 176 172.25 176 172.25 168 Z "/>
<path id="p98" fill="rgb(0,0,255)" d="M 176 183.75 L 192 183.75 192 184.25 176 184.25 Z "/>
<path id="p99" fill="rgb(0,0,255)" d="M 183.75 176 L 183.75 192 184.25 192 184.25 176 Z "/>
<path id="p100" fill="rgb(0,0,255)" d="M 176 179.75 L 184 179.75 184 180.25 176 180.25 Z "/>
<path id="p101" fill="rgb(0,0,255)" d="M 179.75 176 L 179.75 184 180.25 184 180.25 176 Z "/>
<path id="p102" fill="rgb(0,0,255)" d="M 184 187.75 L 192 187.75 192 188.25 184 188.25 Z "/>
<path id="p103" fill="rgb(0,0,255)" d="M 187.75 184 L 187.75 192 188.25 192 188.25 184 Z "/>
<path id="p104" fill="rgb(0,0,255)" d="M 192 223.75 L 256 223.75 256 224.25 192 224.25 Z "/>
<path id="p105" fill="rgb(0,0,255)" d="M 223.75 192 L 223.75 256 224.25 256 224.25 192 Z "/>
<path id="p106" fill="rgb(0,0,255)" d="M 192 207.75 L 224 207.75 224 208.25 192 208.25 Z "/>
<path id="p107" fill="rgb(0,0,255)" d="M 207.75 192 L 207.75 224 208.25 224 208.25 192 Z "/>
<path id="p108" fill="rgb(0,0,255)" d="M 192 199.75 L 208 199.75 208 200.25 192 200.25 Z "/>
<path id="p109" fill="rgb(0,0,255)" d="M 199.75 192 L 199.75 208 200.25 208 200.25 192 Z "/>
<path id="p110" fill="rgb(0,0,255)" d="M 192 195.75 L 200 195.75 200 196.25 192 196.25 Z "/>
<path id="p111" fill="rgb(0,0,255)" d="M 195.75 192 L 195.75 200 196.25 200 196.25 192 Z "/>
<path id="p112" fill="rgb(0,0,255)" d="M 200 203.75 L 208 203.75 208 204.25 200 204.25 Z "/>
<path id="p113" fill="rgb(0,0,255)" d="M 203.75 200 L 203.75 208 204.25 208 204.25 200 Z "/>
<path id="p114" fill="rgb(0,0,255)" d="M 208 215.75 L 224 215.75 224 216.25 208 216.25 Z "/>
<path id="p115" fill="rgb(0,0,255)" d="M 215.75 208 L 215.75 224 216.25 224 216.25 208 Z "/>
<path id="p116" fill="rgb(0,0,255)" d="M 208 211.75 L 216 211.75 216 212.25 208 212.25 Z "/>
<path id="p117" fill="rgb(0,0,255)" d="M 211.75 208 L 211.75 216 212.25 216 212.25 208 Z "/>
<path id="p118" fill="rgb(0,0,255)" d="M 216 219.75 L 224 219.75 224 220.25 216 220.25 Z "/>
<path id="p119" fill="rgb(0,0,255)" d="M 219.75 216 L 219.75 224 220.25 224 220.25 216 Z "/>
<path id="p120" fill="rgb(0,0,255)" d="M 224 239.75 L 256 239.75 256 240.25 224 240.25 Z "/>
<path id="p121" fill="rgb(0,0,255)" d="M 239.75 224 L 239.75 256 240.25 256 240.25 224 Z "/>
<path id="p122" fill="rgb(0,0,255)" d="M 224 231.75 L 240 231.75 240 232.25 224 232.25 Z "/>
<path id="p123" fill="rgb(0,0,255)" d="M 231.75 224 L 231.75 240 232.25 240 232.25 224 Z "/>
<path id="p124" fill="rgb(0,0,255)" d="M 224 227.75 L 232 227.75 232 228.25 224 228.25 Z "/>
<path id="p125" fill="rgb(0,0,255)" d="M 227.75 224 L 227.75 232 228.25 232 228.25 224 Z "/>
<path id="p126" fill="rgb(0,0,255)" d="M 232 235.75 L 240 235.75 240 236.25 232 236.25 Z "/>
<path id="p127" fill="rgb(0,0,255)" d="M 235.75 232 L 235.75 240 236.25 240 236.25 232 Z "/>
<path id="p128" fill="rgb(0,0,255)" d="M 240 247.75 L 256 247.75 256 248.25 240 248.25 Z "/>
<path id="p129" fill="rgb(0,0,255)" d="M 247.75 240 L 247.75 256 248.25 256 248.25 240 Z "/>
<path id="p130" fill="rgb(0,0,255)" d="M 240 243.75 L 248 243.75 248 244.25 240 244.25 Z "/>
<path id="p131" fill="rgb(0,0,255)" d="M 243.75 240 L 243.75 248 244.25 248 244.25 240 Z "/>
<path id="p132" fill="rgb(0,0,255)" d="M 248 251.75 L 256 251.75 256 252.25 248 252.25 Z "/>
<path id="p133" fill="rgb(0,0,255)" d="M 251.75 248 L 251.75 256 252.25 256 252.25 248 Z "/>
<path id="p134" fill="rgb(0,0,255)" d="M 256 127.75 L 512 127.75 512 128.25 256 128.25 Z "/>
<path id="p135" fill="rgb(0,0,255)" d="M 383.75 0 L 383.75 256 384.25 256 384.25 0 Z "/>
<path id="p136" fill="rgb(0,0,255)" d="M 384 63.75 L 512 63.75 512 64.25 384 64.25 Z "/>
<path id="p137" fill="rgb(0,0,255)" d="M 447.75 0 L 447.75 128 448.25 128 448.25 0 Z "/>
<path id="p138" fill="rgb(0,0,255)" d="M 448 31.75 L 512 31.75 512 32.25 448 32.25 Z "/>
<path id="p139" fill="rgb(0,0,255)" d="M 479.75 0 L 479.75 64 480.25 64 480.25 0 Z "/>
<path id="p140" fill="rgb(0,0,255)" d="M 480 15.75 L 512 15.75 512 16.25 480 16.25 Z "/>
<path id="p141" fill="rgb(0,0,255)" d="M 495.75 0 L 495.75 32 496.25 32 496.25 0 Z "/>
<path id="p142" fill="rgb(0,0,255)" d="M 496 7.75 L 512 7.75 512 8.25 496 8.25 Z "/>
<path id="p143" fill="rgb(0,0,255)" d="M 503.75 0 L 503.75 16 504.25 16 504.25 0 Z "/>
<path id="p144" fill="rgb(0,0,255)" d="M 504 3.75 L 512 3.75 512 4.25 504 4.25 Z "/>
<path id="p145" fill="rgb(0,0,255)" d="M 507.75 0 L 507.75 8 508.25 8 508.25 0 Z "/>
<path id="p146" fill="rgb(0,0,255)" d="M 496 11.75 L 504 11.75 504 12.25 496 12.25 Z "/>
<path id="p147" fill="rgb(0,0,255)" d="M 499.75 8 L 499.75 16 500.25 16 500.25 8 Z "/>
<path id="p148" fill="rgb(0,0,255)" d="M 480 23.75 L 496 23.75 496 24.25 480 24.25 Z "/>
<path id="p149" fill="rgb(0,0,255)" d="M 487.75 16 L 487.75 32 488.25 32 488.25 16 Z "/>
<path id="p150" fill="rgb(0,0,255)" d="M 488 19.75 L 496 19.75 496 20.25 488 20.25 Z "/>
<path id="p151" fill="rgb(0,0,255)" d="M 491.75 16 L 491.75 24 492.25 24 492.25 16 Z "/>
<path id="p152" fill="rgb(0,0,255)" d="M 480 27.75 L 488 27.75 488 28.25 480 28.25 Z "/>
<path id="p153" fill="rgb(0,0,255)" d="M 483.75 24 L 483.75 32 484.25 32 484.25 24 Z "/>
<path id="p154" fill="rgb(0,0,255)" d="M 448 47.75 L 480 47.75 480 48.25 448 48.25 Z "/>
<path id="p155" fill="rgb(0,0,255)" d="M 463.75 32 L 463.75 64 464.25 64 464.25 32 Z "/>
<path id="p156" fill="rgb(0,0,255)" d="M 464 39.75 L 480 39.75 480 40.25 464 40.25 Z "/>
<path id="p157" fill="rgb(0,0,255)" d="M 471.75 32 L 471.75 48 472.25 48 472.25 32 Z "/>
<path id="p158" fill="rgb(0,0,255)" d="M 472 35.75 L 480 35.75 480 36.25 472 36.25 Z "/>
<path id="p159" fill="rgb(0,0,255)" d="M 475.75 32 L 475.75 40 476.25 40 476.25 32 Z "/>
<path id="p160" fill="rgb(0,0,255)" d="M 464 43.75 L 472 43.75 472 44.25 464 44.25 Z "/>
<path id="p161" fill="rgb(0,0,255)" d="M 467.75 40 L 467.75 48 468.25 48 468.25 40 Z "/>
<path id="p162" fill="rgb(0,0,255)" d="M 448 55.75 L 464 55.75 464 56.25 448 56.25 Z "/>
<path id="p163" fill="rgb(0,0,255)" d="M 455.75 48 L 455.75 64 456.25 64 456.25 48 Z "/>
<path id="p164" fill="rgb(0,0,255)" d="M 456 51.75 L 464 51.75 464 52.25 456 52.25 Z "/>
<path id="p165" fill="rgb(0,0,255)" d="M 459.75 48 L 459.75 56 460.25 56 460.25 48 Z "/>
<path id="p166" fill="rgb(0,0,255)" d="M 448 59.75 L 456 59.75 456 60.25 448 60.25 Z "/>
<path id="p167" fill="rgb(0,0,255)" d="M 451.75 56 L 451.75 64 452.25 64 452.25 56 Z "/>
<path id="p168" fill="rgb(0,0,255)" d="M 384 95.75 L 448 95.75 448 96.25 384 96.25 Z "/>
<path id="p169" fill="rgb(0,0,255)" d="M 415.75 64 L 415.75 128 416.25 128 416.25 64 Z "/>
<path id="p170" fill="rgb(0,0,255)" d="M 416 79.75 L 448 79.75 448 80.25 416 80.25 Z "/>
<path id="p171" fill="rgb(0,0,255)" d="M 431.75 64 L 431.75 96 432.25 96 432.25 64 Z "/>
<path id="p172" fill="rgb(0,0,255)" d="M 432 71.75 L 448 71.75 448 72.25 432 72.25 Z "/>
<path id="p173" fill="rgb(0,0,255)" d="M 439.75 64 L 439.75 80 440.25 80 440.25 64 Z "/>
<path id="p174" fill="rgb(0,0,255)" d="M 440 67.75 L 448 67.75 448 68.25 440 68.25 Z "/>
<path id="p175" fill="rgb(0,0,255)" d="M 443.75 64 L 443.75 72 444.25 72 444.25 64 Z "/>
<path id="p176" fill="rgb(0,0,255)" d="M 432 75.75 L 440 75.75 440 76.25 432 76.25 Z "/>
<path id="p177" fill="rgb(0,0,255)" d="M 435.75 72 L 435.75 80 436.25 80 436.25 72 Z "/>
<path id="p178" fill="rgb(0,0,255)" d="M 416 87.75 L 432 87.75 432 88.25 416 88.25 Z "/>
<path id="p179" fill="rgb(0,0,255)" d="M 423.75 80 L 423.75 96 424.25 96 424.25 80 Z "/>
<path id="p180" fill="rgb(0,0,255)" d="M 424 83.75 L 432 83.75 432 84.25 424 84.25 Z "/>
<path id="p181" fill="rgb(0,0,255)" d="M 427.75 80 L 427.75 88 428.25 88 428.25 80 Z "/>
<path id="p182" fill="rgb(0,0,255)" d="M 416 91.75 L 424 91.75 424 92.25 416 92.25 Z "/>
<path id="p183" fill="rgb(0,0,255)" d="M 419.75 88 L 419.75 96 420.25 96 420.25 88 Z "/>
<path id="p184" fill="rgb(0,0,255)" d="M 384 111.75 L 416 111.75 416 112.25 384 112.25 Z "/>
<path id="p185" fill="rgb(0,0,255)" d="M 399.75 96 L 399.75 128 400.25 128 400.25 96 Z "/>
<path id="p186" fill="rgb(0,0,255)" d="M 400 103.75 L 416 103.75 416 104.25 400 104.25 Z "/>
<path id="p187" fill="rgb(0,0,255)" d="M 407.75 96 L 407.75 112 408.25 112 408.25 96 Z "/>
<path id="p188" fill="rgb(0,0,255)" d="M 408 99.75 L 416 99.75 416 100.25 408 100.25 Z "/>
<path id="p189" fill="rgb(0,0,255)" d="M 411.75 96 L 411.75 104 412.25 104 412.25 96 Z "/>
<path id="p190" fill="rgb(0,0,255)" d="M 400 107.75 L 408 107.75 408 108.25 400 108.25 Z "/>
<path id="p191" fill="rgb(0,0,255)" d="M 403.75 104 L 403.75 112 404.25 112 404.25 104 Z "/>
<path id="p192" fill="rgb(0,0,255)" d="M 384 119.75 L 400 119.75 400 120.25 384 120.25 Z "/>
<path id="p193" fill="rgb(0,0,255)" d="M 391.75 112 L 391.75 128 392.25 128 392.25 112 Z "/>
<path id="p194" fill="rgb(0,0,255)" d="M 392 115.75 L 400 115.75 400 116.25 392 116.25 Z "/>
<path id="p195" fill="rgb(0,0,255)" d="M 395.75 112 L 395.75 120 396.25 120 396.25 112 Z "/>
<path id="p196" fill="rgb(0,0,255)" d="M 384 123.75 L 392 123.75 392 124.25 384 124.25 Z "/>
<path id="p197" fill="rgb(0,0,255)" d="M 387.75 120 L 387.75 128 388.25 128 388.25 120 Z "/>
<path id="p198" fill="rgb(0,0,255)" d="M 256 191.75 L 384 191.75 384 192.25 256 192.25 Z "/>
<path id="p199" fill="rgb(0,0,255)" d="M 319.75 128 L 319.75 256 320.25 256 320.25 128 Z "/>
<path id="p200" fill="rgb(0,0,255)" d="M 320 159.75 L 384 159.75 384 160.25 320 160.25 Z "/>
<path id="p201" fill="rgb(0,0,255)" d="M 351.75 128 L 351.75 192 352.25 192 352.25 128 Z "/>
<path id="p202" fill="rgb(0,0,255)" d="M 352 143.75 L 384 143.75 384 144.25 352 144.25 Z "/>
<path id="p203" fill="rgb(0,0,255)" d="M 367.75 128 L 367.75 160 368.25 160 368.25 128 Z "/>
<path id="p204" fill="rgb(0,0,255)" d="M 368 135.75 L 384 135.75 384 136.25 368 136.25 Z "/>
<path id="p205" fill="rgb(0,0,255)" d="M 375.75 128 L 375.75 144 376.25 144 376.25 128 Z "/>
<path id="p206" fill="rgb(0,0,255)" d="M 376 131.75 L 384 131.75 384 132.25 376 132.25 Z "/>
<path id="p207" fill="rgb(0,0,255)" d="M 379.75 128 L 379.75 136 380.25 136 380.25 128 Z "/>
<path id="p208" fill="rgb(0,0,255)" d="M 368 139.75 L 376 139.75 376 140.25 368 140.25 Z "/>
<path id="p209" fill="rgb(0,0,255)" d="M 371.75 136 L 371.75 144 372.25 144 372.25 136 Z "/>
<path id="p210" fill="rgb(0,0,255)" d="M 352 151.75 L 368 151.75 368 152.25 352 152.25 Z "/>
<path id="p211" fill="rgb(0,0,255)" d="M 359.75 144 L 359.75 160 360.25 160 360.25 144 Z "/>
<path id="p212" fill="rgb(0,0,255)" d="M 360 147.75 L 368 147.75 368 148.25 360 148.25 Z "/>
<path id="p213" fill="rgb(0,0,255)" d="M 363.75 144 L 363.75 152 364.25 152 364.25 144 Z "/>
<path id="p214" fill="rgb(0,0,255)" d="M 352 155.75 L 360 155.75 360 156.25 352 156.25 Z "/>
<path id="p215" fill="rgb(0,0,255)" d="M 355.75 152 L 355.75 160 356.25 160 356.25 152 Z "/>
<path id="p216" fill="rgb(0,0,255)" d="M 320 175.75 L 352 175.75 352 176.25 320 176.25 Z "/>
<path id="p217" fill="rgb(0,0,255)" d="M 335.75 160 L 335.75 192 336.25 192 336.25 160 Z "/>
<path id="p218" fill="rgb(0,0,255)" d="M 336 167.75 L 352 167.75 352 168.25 336 168.25 Z "/>
<path id="p219" fill="rgb(0,0,255)" d="M 343.75 160 L 343.75 176 344.25 176 344.25 160 Z "/>
<path id="p220" fill="rgb(0,0,255)" d="M 344 163.75 L 352 163.75 352 164.25 344 164.25 Z "/>
<path id="p221" fill="rgb(0,0,255)" d="M 347.75 160 L 347.75 168 348.25 168 348.25 160 Z "/>
<path id="p222" fill="rgb(0,0,255)" d="M 336 171.75 L 344 171.75 344 172.25 336 172.25 Z "/>
<path id="p223" fill="rgb(0,0,255)" d="M 339.75 168 L 339.75 176 340.25 176 340.25 168 Z "/>
<path id="p224" fill="rgb(0,0,255)" d="M 320 183.75 L 336 183.75 336 184.25 320 184.25 Z "/>
<path id="p225" fill="rgb(0,0,255)" d="M 327.75 176 L 327.75 192 328.25 192 328.25 176 Z "/>
<path id="p226" fill="rgb(0,0,255)" d="M 328 179.75 L 336 179.75 336 180.25 328 180.25 Z "/>
<path id="p227" fill="rgb(0,0,255)" d="M 331.75 176 L 331.75 184 332.25 184 332.25 176 Z "/>
<path id="p228" fill="rgb(0,0,255)" d="M 320 187.75 L 328 187.75 328 188.25 320 188.25 Z "/>
<path id="p229" fill="rgb(0,0,255)" d="M 323.75 184 L 323.75 192 324.25 192 324.25 184 Z "/>
<path id="p230" fill="rgb(0,0,255)" d="M 256 223.75 L 320 223.75 320 224.25 256 224.25 Z "/>
<path id="p231" fill="rgb(0,0,255)" d="M 287.75 192 L 287.75 256 288.25 256 288.25 192 Z "/>
<path id="p232" fill="rgb(0,0,255)" d="M 288 207.75 L 320 207.75 320 208.25 288 208.25 Z "/>
<path id="p233" fill="rgb(0,0,255)" d="M 303.75 192 L 303.75 224 304.25 224 304.25 192 Z "/>
<path id="p234" fill="rgb(0,0,255)" d="M 304 199.75 L 320 199.75 320 200.25 304 200.25 Z "/>
<path id="p235" fill="rgb(0,0,255)" d="M 311.75 192 L 311.75 208 312.25 208 312.25 192 Z "/>
<path id="p236" fill="rgb(0,0,255)" d="M 312 195.75 L 320 195.75 320 196.25 312 196.25 Z "/>
<path id="p237" fill="rgb(0,0,255)" d="M 315.75 192 L 315.75 200 316.25 200 316.25 192 Z "/>
<path id="p238" fill="rgb(0,0,255)" d="M 304 203.75 L 312 203.75 312 204.25 304 204.25 Z "/>
<path id="p239" fill="rgb(0,0,255)" d="M 307.75 200 L 307.75 208 308.25 208 308.25 200 Z "/>
<path id="p240" fill="rgb(0,0,255)" d="M 288 215.75 L 304 215.75 304 216.25 288 216.25 Z "/>
<path id="p241" fill="rgb(0,0,255)" d="M 295.75 208 L 295.75 224 296.25 224 296.25 208 Z "/>
<path id="p242" fill="rgb(0,0,255)" d="M 296 211.75 L 304 211.75 304 212.25 296 212.25 Z "/>
<path id="p243" fill="rgb(0,0,255)" d="M 299.75 208 L 299.75 216 300.25 216 300.25 208 Z "/>
<path id="p244" fill="rgb(0,0,255)" d="M 288 219.75 L 296 219.75 296 220.25 288 220.25 Z "/>
<path id="p245" fill="rgb(0,0,255)" d="M 291.75 216 L 291.75 224 292.25 224 292.25 216 Z "/>
<path id="p246" fill="rgb(0,0,255)" d="M 256 239.75 L 288 239.75 288 240.25 256 240.25 Z "/>
<path id="p247" fill="rgb(0,0,255)" d="M 271.75 224 L 271.75 256 272.25 256 272.25 224 Z "/>
<path id="p248" fill="rgb(0,0,255)" d="M 272 231.75 L 288 231.75 288 232.25 272 232.25 Z "/>
<path id="p249" fill="rgb(0,0,255)" d="M 279.75 224 L 279.75 240 280.25 240 280.25 224 Z "/>
<path id="p250" fill="rgb(0,0,255)" d="M 280 227.75 L 288 227.75 288 228.25 280 228.25 Z "/>
<path id="p251" fill="rgb(0,0,255)" d="M 283.75 224 L 283.75 232 284.25 232 284.25 224 Z "/>
<path id="p252" fill="rgb(0,0,255)" d="M 272 235.75 L 280 235.75 280 236.25 272 236.25 Z "/>
<path id="p253" fill="rgb(0,0,255)" d="M 275.75 232 L 275.75 240 276.25 240 276.25 232 Z "/>
<path id="p254" fill="rgb(0,0,255)" d="M 256 247.75 L 272 247.75 272 248.25 256 248.25 Z "/>
<path id="p255" fill="rgb(0,0,255)" d="M 263.75 240 L 263.75 256 264.25 256 264.25 240 Z "/>
<path id="p256" fill="rgb(0,0,255)" d="M 264 243.75 L 272 243.75 272 244.25 264 244.25 Z "/>
<path id="p257" fill="rgb(0,0,255)" d="M 267.75 240 L 267.75 248 268.25 248 268.25 240 Z "/>
<path id="p258" fill="rgb(0,0,255)" d="M 256 251.75 L 264 251.75 264 252.25 256 252.25 Z "/>
<path id="p259" fill="rgb(0,0,255)" d="M 259.75 248 L 259.75 256 260.25 256 260.25 248 Z "/>
</g>
</svg>
