<?xml version="1.0" standalone="no"?>
<svg
    xmlns:xlink="http://www.w3.org/1999/xlink"
    xmlns:dc="http://purl.org/dc/elements/1.1/"
    xmlns:cc="http://creativecommons.org/ns#"
    xmlns:rdf="http://www.w3.org/1999/02/22-rdf-syntax-ns#"
    xmlns:svg="http://www.w3.org/2000/svg"
    xmlns="http://www.w3.org/2000/svg"
    version="1.1"
    viewBox="0 0 512 512">
<defs>
</defs>
<g transform="translate(0, 512) scale(1, -1)">
<path id="p1" fill="rgb(255,0,0)" d="M 0 0 L 256 256 512 0 0 0 Z "/>
<path id="p2" fill="rgb(0,0,255)" d="M 0 -0.25 L 512 -0.25 512 0.25 0 0.25 Z "/>
<path id="p3" fill="rgb(0,0,255)" d="M 0 511.75 L 512 511.75 512 512.25 0 512.25 Z "/>
<path id="p4" fill="rgb(0,0,255)" d="M -0.25 0 L -0.25 512 0.25 512 0.25 0 Z "/>
<path id="p5" fill="rgb(0,0,255)" d="M 511.75 0 L 511.75 512 512.25 512 512.25 0 Z "/>
<path id="p6" fill="rgb(0,0,255)" d="M 0 255.75 L 512 255.75 512 256.25 0 256.25 Z "/>
<path id="p7" fill="rgb(0,0,255)" d="M 255.75 0 L 255.75 512 256.25 512 256.25 0 Z "/>
<path id="p8" fill="rgb(0,0,255)" d="M 0 127.75 L 256 127.75 256 128.25 0 128.25 Z "/>
<path id="p9" fill="rgb(0,0,255)" d="M 127.75 0 L 127.75 256 128.25 256 128.25 0 Z "/>
<path id="p10" fill="rgb(0,0,255)" d="M 0 63.75 L 128 63.75 128 64.25 0 64.25 Z "/>
<path id="p11" fill="rgb(0,0,255)" d="M 63.75 0 L 63.75 128 64.25 128 64.25 0 Z "/>
<path id="p12" fill="rgb(0,0,255)" d="M 0 31.75 L 64 31.75 64 32.25 0 32.25 Z "/>
<path id="p13" fill="rgb(0,0,255)" d="M 31.75 0 L 31.75 64 32.25 64 32.25 0 Z "/>
<path id="p14" fill="rgb(0,0,255)" d="M 0 15.75 L 32 15.75 32 16.25 0 16.25 Z "/>
<path id="p15" fill="rgb(0,0,255)" d="M 15.75 0 L 15.75 32 16.25 32 16.25 0 Z "/>
<path id="p16" fill="rgb(0,0,255)" d="M 0 7.75 L 16 7.75 16 8.25 0 8.25 Z "/>
<path id="p17" fill="rgb(0,0,255)" d="M 7.75 0 L 7.75 16 8.25 16 8.25 0 Z "/>
<path id="p18" fill="rgb(0,0,255)" d="M 16 23.75 L 32 23.75 32 24.25 16 24.25 Z "/>
<path id="p19" fill="rgb(0,0,255)" d="M 23.75 16 L 23.75 32 24.25 32 24.25 16 Z "/>
<path id="p20" fill="rgb(0,0,255)" d="M 32 47.75 L 64 47.75 64 48.25 32 48.25 Z "/>
<path id="p21" fill="rgb(0,0,255)" d="M 47.75 32 L 47.75 64 48.25 64 48.25 32 Z "/>
<path id="p22" fill="rgb(0,0,255)" d="M 32 39.75 L 48 39.75 48 40.25 32 40.25 Z "/>
<path id="p23" fill="rgb(0,0,255)" d="M 39.75 32 L 39.75 48 40.25 48 40.25 32 Z "/>
<path id="p24" fill="rgb(0,0,255)" d="M 48 55.75 L 64 55.75 64 56.25 48 56.25 Z "/>
<path id="p25" fill="rgb(0,0,255)" d="M 55.75 48 L 55.75 64 56.25 64 56.25 48 Z "/>
<path id="p26" fill="rgb(0,0,255)" d="M 64 95.75 L 128 95.75 128 96.25 64 96.25 Z "/>
<path id="p27" fill="rgb(0,0,255)" d="M 95.75 64 L 95.75 128 96.25 128 96.25 64 Z "/>
<path id="p28" fill="rgb(0,0,255)" d="M 64 79.75 L 96 79.75 96 80.25 64 80.25 Z "/>
<path id="p29" fill="rgb(0,0,255)" d="M 79.75 64 L 79.75 96 80.25 96 80.25 64 Z "/>
<path id="p30" fill="rgb(0,0,255)" d="M 64 71.75 L 80 71.75 80 72.25 64 72.25 Z "/>
<path id="p31" fill="rgb(0,0,255)" d="M 71.75 64 L 71.75 80 72.25 80 72.25 64 Z "/>
<path id="p32" fill="rgb(0,0,255)" d="M 80 87.75 L 96 87.75 96 88.25 80 88.25 Z "/>
<path id="p33" fill="rgb(0,0,255)" d="M 87.75 80 L 87.75 96 88.25 96 88.25 80 Z "/>
<path id="p34" fill="rgb(0,0,255)" d="M 96 111.75 L 128 111.75 128 112.25 96 112.25 Z "/>
<path id="p35" fill="rgb(0,0,255)" d="M 111.75 96 L 111.75 128 112.25 128 112.25 96 Z "/>
<path id="p36" fill="rgb(0,0,255)" d="M 96 103.75 L 112 103.75 112 104.25 96 104.25 Z "/>
<path id="p37" fill="rgb(0,0,255)" d="M 103.75 96 L 103.75 112 104.25 112 104.25 96 Z "/>
<path id="p38" fill="rgb(0,0,255)" d="M 112 119.75 L 128 119.75 128 120.25 112 120.25 Z "/>
<path id="p39" fill="rgb(0,0,255)" d="M 119.75 112 L 119.75 128 120.25 128 120.25 112 Z "/>
<path id="p40" fill="rgb(0,0,255)" d="M 128 191.75 L 256 191.75 256 192.25 128 192.25 Z "/>
<path id="p41" fill="rgb(0,0,255)" d="M 191.75 128 L 191.75 256 192.25 256 192.25 128 Z "/>
<path id="p42" fill="rgb(0,0,255)" d="M 128 159.75 L 192 159.75 192 160.25 128 160.25 Z "/>
<path id="p43" fill="rgb(0,0,255)" d="M 159.75 128 L 159.75 192 160.25 192 160.25 128 Z "/>
<path id="p44" fill="rgb(0,0,255)" d="M 128 143.75 L 160 143.75 160 144.25 128 144.25 Z "/>
<path id="p45" fill="rgb(0,0,255)" d="M 143.75 128 L 143.75 160 144.25 160 144.25 128 Z "/>
<path id="p46" fill="rgb(0,0,255)" d="M 128 135.75 L 144 135.75 144 136.25 128 136.25 Z "/>
<path id="p47" fill="rgb(0,0,255)" d="M 135.75 128 L 135.75 144 136.25 144 136.25 128 Z "/>
<path id="p48" fill="rgb(0,0,255)" d="M 144 151.75 L 160 151.75 160 152.25 144 152.25 Z "/>
<path id="p49" fill="rgb(0,0,255)" d="M 151.75 144 L 151.75 160 152.25 160 152.25 144 Z "/>
<path id="p50" fill="rgb(0,0,255)" d="M 160 175.75 L 192 175.75 192 176.25 160 176.25 Z "/>
<path id="p51" fill="rgb(0,0,255)" d="M 175.75 160 L 175.75 192 176.25 192 176.25 160 Z "/>
<path id="p52" fill="rgb(0,0,255)" d="M 160 167.75 L 176 167.75 176 168.25 160 168.25 Z "/>
<path id="p53" fill="rgb(0,0,255)" d="M 167.75 160 L 167.75 176 168.25 176 168.25 160 Z "/>
<path id="p54" fill="rgb(0,0,255)" d="M 176 183.75 L 192 183.75 192 184.25 176 184.25 Z "/>
<path id="p55" fill="rgb(0,0,255)" d="M 183.75 176 L 183.75 192 184.25 192 184.25 176 Z "/>
<path id="p56" fill="rgb(0,0,255)" d="M 192 223.75 L 256 223.75 256 224.25 192 224.25 Z "/>
<path id="p57" fill="rgb(0,0,255)" d="M 223.75 192 L 223.75 256 224.25 256 224.25 192 Z "/>
<path id="p58" fill="rgb(0,0,255)" d="M 192 207.75 L 224 207.75 224 208.25 192 208.25 Z "/>
<path id="p59" fill="rgb(0,0,255)" d="M 207.75 192 L 207.75 224 208.25 224 208.25 192 Z "/>
<path id="p60" fill="rgb(0,0,255)" d="M 192 199.75 L 208 199.75 208 200.25 192 200.25 Z "/>
<path id="p61" fill="rgb(0,0,255)" d="M 199.75 192 L 199.75 208 200.25 208 200.25 192 Z "/>
<path id="p62" fill="rgb(0,0,255)" d="M 208 215.75 L 224 215.75 224 216.25 208 216.25 Z "/>
<path id="p63" fill="rgb(0,0,255)" d="M 215.75 208 L 215.75 224 216.25 224 216.25 208 Z "/>
<path id="p64" fill="rgb(0,0,255)" d="M 224 239.75 L 256 239.75 256 240.25 224 240.25 Z "/>
<path id="p65" fill="rgb(0,0,255)" d="M 239.75 224 L 239.75 256 240.25 256 240.25 224 Z "/>
<path id="p66" fill="rgb(0,0,255)" d="M 224 231.75 L 240 231.75 240 232.25 224 232.25 Z "/>
<path id="p67" fill="rgb(0,0,255)" d="M 231.75 224 L 231.75 240 232.25 240 232.25 224 Z "/>
<path id="p68" fill="rgb(0,0,255)" d="M 240 247.75 L 256 247.75 256 248.25 240 248.25 Z "/>
<path id="p69" fill="rgb(0,0,255)" d="M 247.75 240 L 247.75 256 248.25 256 248.25 240 Z "/>
<path id="p70" fill="rgb(0,0,255)" d="M 256 127.75 L 512 127.75 512 128.25 256 128.25 Z "/>
<path id="p71" fill="rgb(0,0,255)" d="M 383.75 0 L 383.75 256 384.25 256 384.25 0 Z "/>
<path id="p72" fill="rgb(0,0,255)" d="M 384 63.75 L 512 63.75 512 64.25 384 64.25 Z "/>
<path id="p73" fill="rgb(0,0,255)" d="M 447.75 0 L 447.75 128 448.25 128 448.25 0 Z "/>
<path id="p74" fill="rgb(0,0,255)" d="M 448 31.75 L 512 31.75 512 32.25 448 32.25 Z "/>
<path id="p75" fill="rgb(0,0,255)" d="M 479.75 0 L 479.75 64 480.25 64 480.25 0 Z "/>
<path id="p76" fill="rgb(0,0,255)" d="M 480 15.75 L 512 15.75 512 16.25 480 16.25 Z "/>
<path id="p77" fill="rgb(0,0,255)" d="M 495.75 0 L 495.75 32 496.25 32 496.25 0 Z "/>
<path id="p78" fill="rgb(0,0,255)" d="M 496 7.75 L 512 7.75 512 8.25 496 8.25 Z "/>
<path id="p79" fill="rgb(0,0,255)" d="M 503.75 0 L 503.75 16 504.25 16 504.25 0 Z "/>
<path id="p80" fill="rgb(0,0,255)" d="M 480 23.75 L 496 23.75 496 24.25 480 24.25 Z "/>
<path id="p81" fill="rgb(0,0,255)" d="M 487.75 16 L 487.75 32 488.25 32 488.25 16 Z "/>
<path id="p82" fill="rgb(0,0,255)" d="M 448 47.75 L 480 47.75 480 48.25 448 48.25 Z "/>
<path id="p83" fill="rgb(0,0,255)" d="M 463.75 32 L 463.75 64 464.25 64 464.25 32 Z "/>
<path id="p84" fill="rgb(0,0,255)" d="M 464 39.75 L 480 39.75 480 40.25 464 40.25 Z "/>
<path id="p85" fill="rgb(0,0,255)" d="M 471.75 32 L 471.75 48 472.25 48 472.25 32 Z "/>
<path id="p86" fill="rgb(0,0,255)" d="M 448 55.75 L 464 55.75 464 56.25 448 56.25 Z "/>
<path id="p87" fill="rgb(0,0,255)" d="M 455.75 48 L 455.75 64 456.25 64 456.25 48 Z "/>
<path id="p88" fill="rgb(0,0,255)" d="M 384 95.75 L 448 95.75 448 96.25 384 96.25 Z "/>
<path id="p89" fill="rgb(0,0,255)" d="M 415.75 64 L 415.75 128 416.25 128 416.25 64 Z "/>
<path id="p90" fill="rgb(0,0,255)" d="M 416 79.75 L 448 79.75 448 80.25 416 80.25 Z "/>
<path id="p91" fill="rgb(0,0,255)" d="M 431.75 64 L 431.75 96 432.25 96 432.25 64 Z "/>
<path id="p92" fill="rgb(0,0,255)" d="M 432 71.75 L 448 71.75 448 72.25 432 72.25 Z "/>
<path id="p93" fill="rgb(0,0,255)" d="M 439.75 64 L 439.75 80 440.25 80 440.25 64 Z "/>
<path id="p94" fill="rgb(0,0,255)" d="M 416 87.75 L 432 87.75 432 88.25 416 88.25 Z "/>
<path id="p95" fill="rgb(0,0,255)" d="M 423.75 80 L 423.75 96 424.25 96 424.25 80 Z "/>
<path id="p96" fill="rgb(0,0,255)" d="M 384 111.75 L 416 111.75 416 112.25 384 112.25 Z "/>
<path id="p97" fill="rgb(0,0,255)" d="M 399.75 96 L 399.75 128 400.25 128 400.25 96 Z "/>
<path id="p98" fill="rgb(0,0,255)" d="M 400 103.75 L 416 103.75 416 104.25 400 104.25 Z "/>
<path id="p99" fill="rgb(0,0,255)" d="M 407.75 96 L 407.75 112 408.25 112 408.25 96 Z "/>
<path id="p100" fill="rgb(0,0,255)" d="M 384 119.75 L 400 119.75 400 120.25 384 120.25 Z "/>
<path id="p101" fill="rgb(0,0,255)" d="M 391.75 112 L 391.75 128 392.25 128 392.25 112 Z "/>
<path id="p102" fill="rgb(0,0,255)" d="M 256 191.75 L 384 191.75 384 192.25 256 192.25 Z "/>
<path id="p103" fill="rgb(0,0,255)" d="M 319.75 128 L 319.75 256 320.25 256 320.25 128 Z "/>
<path id="p104" fill="rgb(0,0,255)" d="M 320 159.75 L 384 159.75 384 160.25 320 160.25 Z "/>
<path id="p105" fill="rgb(0,0,255)" d="M 351.75 128 L 351.75 192 352.25 192 352.25 128 Z "/>
<path id="p106" fill="rgb(0,0,255)" d="M 352 143.75 L 384 143.75 384 144.25 352 144.25 Z "/>
<path id="p107" fill="rgb(0,0,255)" d="M 367.75 128 L 367.75 160 368.25 160 368.25 128 Z "/>
<path id="p108" fill="rgb(0,0,255)" d="M 368 135.75 L 384 135.75 384 136.25 368 136.25 Z "/>
<path id="p109" fill="rgb(0,0,255)" d="M 375.75 128 L 375.75 144 376.25 144 376.25 128 Z "/>
<path id="p110" fill="rgb(0,0,255)" d="M 352 151.75 L 368 151.75 368 152.25 352 152.25 Z "/>
<path id="p111" fill="rgb(0,0,255)" d="M 359.75 144 L 359.75 160 360.25 160 360.25 144 Z "/>
<path id="p112" fill="rgb(0,0,255)" d="M 320 175.75 L 352 175.75 352 176.25 320 176.25 Z "/>
<path id="p113" fill="rgb(0,0,255)" d="M 335.75 160 L 335.75 192 336.25 192 336.25 160 Z "/>
<path id="p114" fill="rgb(0,0,255)" d="M 336 167.75 L 352 167.75 352 168.25 336 168.25 Z "/>
<path id="p115" fill="rgb(0,0,255)" d="M 343.75 160 L 343.75 176 344.25 176 344.25 160 Z "/>
<path id="p116" fill="rgb(0,0,255)" d="M 320 183.75 L 336 183.75 336 184.25 320 184.25 Z "/>
<path id="p117" fill="rgb(0,0,255)" d="M 327.75 176 L 327.75 192 328.25 192 328.25 176 Z "/>
<path id="p118" fill="rgb(0,0,255)" d="M 256 223.75 L 320 223.75 320 224.25 256 224.25 Z "/>
<path id="p119" fill="rgb(0,0,255)" d="M 287.75 192 L 287.75 256 288.25 256 288.25 192 Z "/>
<path id="p120" fill="rgb(0,0,255)" d="M 288 207.75 L 320 207.75 320 208.25 288 208.25 Z "/>
<path id="p121" fill="rgb(0,0,255)" d="M 303.75 192 L 303.75 224 304.25 224 304.25 192 Z "/>
<path id="p122" fill="rgb(0,0,255)" d="M 304 199.75 L 320 199.75 320 200.25 304 200.25 Z "/>
<path id="p123" fill="rgb(0,0,255)" d="M 311.75 192 L 311.75 208 312.25 208 312.25 192 Z "/>
<path id="p124" fill="rgb(0,0,255)" d="M 288 215.75 L 304 215.75 304 216.25 288 216.25 Z "/>
<path id="p125" fill="rgb(0,0,255)" d="M 295.75 208 L 295.75 224 296.25 224 296.25 208 Z "/>
<path id="p126" fill="rgb(0,0,255)" d="M 256 239.75 L 288 239.75 288 240.25 256 240.25 Z "/>
<path id="p127" fill="rgb(0,0,255)" d="M 271.75 224 L 271.75 256 272.25 256 272.25 224 Z "/>
<path id="p128" fill="rgb(0,0,255)" d="M 272 231.75 L 288 231.75 288 232.25 272 232.25 Z "/>
<path id="p129" fill="rgb(0,0,255)" d="M 279.75 224 L 279.75 240 280.25 240 280.25 224 Z "/>
<path id="p130" fill="rgb(0,0,255)" d="M 256 247.75 L 272 247.75 272 248.25 256 248.25 Z "/>
<path id="p131" fill="rgb(0,0,255)" d="M 263.75 240 L 263.75 256 264.25 256 264.25 240 Z "/>
</g>
</svg>
