<?xml version="1.0" standalone="no"?>
<svg
    xmlns:xlink="http://www.w3.org/1999/xlink"
    xmlns:dc="http://purl.org/dc/elements/1.1/"
    xmlns:cc="http://creativecommons.org/ns#"
    xmlns:rdf="http://www.w3.org/1999/02/22-rdf-syntax-ns#"
    xmlns:svg="http://www.w3.org/2000/svg"
    xmlns="http://www.w3.org/2000/svg"
    version="1.1"
    viewBox="0 0 512 512">
<defs>
</defs>
<g transform="translate(0, 512) scale(1, -1)">
<path id="p1" fill="rgb(255,0,0)" d="M 0 0 L 256 256 512 0 0 0 Z "/>
<path id="p2" fill="rgb(0,0,255)" d="M 0 -0.25 L 512 -0.25 512 0.25 0 0.25 Z "/>
<path id="p3" fill="rgb(0,0,255)" d="M 0 511.75 L 512 511.75 512 512.25 0 512.25 Z "/>
<path id="p4" fill="rgb(0,0,255)" d="M -0.25 0 L -0.25 512 0.25 512 0.25 0 Z "/>
<path id="p5" fill="rgb(0,0,255)" d="M 511.75 0 L 511.75 512 512.25 512 512.25 0 Z "/>
<path id="p6" fill="rgb(0,0,255)" d="M 0 255.75 L 512 255.75 512 256.25 0 256.25 Z "/>
<path id="p7" fill="rgb(0,0,255)" d="M 255.75 0 L 255.75 512 256.25 512 256.25 0 Z "/>
<path id="p8" fill="rgb(0,0,255)" d="M 0 127.75 L 256 127.75 256 128.25 0 128.25 Z "/>
<path id="p9" fill="rgb(0,0,255)" d="M 127.75 0 L 127.75 256 128.25 256 128.25 0 Z "/>
<path id="p10" fill="rgb(0,0,255)" d="M 0 63.75 L 128 63.75 128 64.25 0 64.25 Z "/>
<path id="p11" fill="rgb(0,0,255)" d="M 63.75 0 L 63.75 128 64.25 128 64.25 0 Z "/>
<path id="p12" fill="rgb(0,0,255)" d="M 0 31.75 L 64 31.75 64 32.25 0 32.25 Z "/>
<path id="p13" fill="rgb(0,0,255)" d="M 31.75 0 L 31.75 64 32.25 64 32.25 0 Z "/>
<path id="p14" fill="rgb(0,0,255)" d="M 64 95.75 L 128 95.75 128 96.25 64 96.25 Z "/>
<path id="p15" fill="rgb(0,0,255)" d="M 95.75 64 L 95.75 128 96.25 128 96.25 64 Z "/>
<path id="p16" fill="rgb(0,0,255)" d="M 128 191.75 L 256 191.75 256 192.25 128 192.25 Z "/>
<path id="p17" fill="rgb(0,0,255)" d="M 191.75 128 L 191.75 256 192.25 256 192.25 128 Z "/>
<path id="p18" fill="rgb(0,0,255)" d="M 128 159.75 L 192 159.75 192 160.25 128 160.25 Z "/>
<path id="p19" fill="rgb(0,0,255)" d="M 159.75 128 L 159.75 192 160.25 192 160.25 128 Z "/>
<path id="p20" fill="rgb(0,0,255)" d="M 192 223.75 L 256 223.75 256 224.25 192 224.25 Z "/>
<path id="p21" fill="rgb(0,0,255)" d="M 223.75 192 L 223.75 256 224.25 256 224.25 192 Z "/>
<path id="p22" fill="rgb(0,0,255)" d="M 256 127.75 L 512 127.75 512 128.25 256 128.25 Z "/>
<path id="p23" fill="rgb(0,0,255)" d="M 383.75 0 L 383.75 256 384.25 256 384.25 0 Z "/>
<path id="p24" fill="rgb(0,0,255)" d="M 384 63.75 L 512 63.75 512 64.25 384 64.25 Z "/>
<path id="p25" fill="rgb(0,0,255)" d="M 447.75 0 L 447.75 128 448.25 128 448.25 0 Z "/>
<path id="p26" fill="rgb(0,0,255)" d="M 448 31.75 L 512 31.75 512 32.25 448 32.25 Z "/>
<path id="p27" fill="rgb(0,0,255)" d="M 479.75 0 L 479.75 64 480.25 64 480.25 0 Z "/>
<path id="p28" fill="rgb(0,0,255)" d="M 384 95.75 L 448 95.75 448 96.25 384 96.25 Z "/>
<path id="p29" fill="rgb(0,0,255)" d="M 415.75 64 L 415.75 128 416.25 128 416.25 64 Z "/>
<path id="p30" fill="rgb(0,0,255)" d="M 256 191.75 L 384 191.75 384 192.25 256 192.25 Z "/>
<path id="p31" fill="rgb(0,0,255)" d="M 319.75 128 L 319.75 256 320.25 256 320.25 128 Z "/>
<path id="p32" fill="rgb(0,0,255)" d="M 320 159.75 L 384 159.75 384 160.25 320 160.25 Z "/>
<path id="p33" fill="rgb(0,0,255)" d="M 351.75 128 L 351.75 192 352.25 192 352.25 128 Z "/>
<path id="p34" fill="rgb(0,0,255)" d="M 256 223.75 L 320 223.75 320 224.25 256 224.25 Z "/>
<path id="p35" fill="rgb(0,0,255)" d="M 287.75 192 L 287.75 256 288.25 256 288.25 192 Z "/>
</g>
</svg>
