<?xml version="1.0" standalone="no"?>
<svg
    xmlns:xlink="http://www.w3.org/1999/xlink"
    xmlns:dc="http://purl.org/dc/elements/1.1/"
    xmlns:cc="http://creativecommons.org/ns#"
    xmlns:rdf="http://www.w3.org/1999/02/22-rdf-syntax-ns#"
    xmlns:svg="http://www.w3.org/2000/svg"
    xmlns="http://www.w3.org/2000/svg"
    version="1.1"
    viewBox="0 0 512 512">
<defs>
<linearGradient id="linear1" gradientUnits="userSpaceOnUse" x1="0" y1="0" x2="200" y2="200" spreadMethod="pad" gradientTransform="matrix(0.499995, 0.499995, -0.499995, 0.499995, 100, 0.000959005)">
<stop offset="0" stop-color="rgb(255,0,0)" stop-opacity="1"/>
<stop offset="1" stop-color="rgb(0,255,0)" stop-opacity="1"/>
</linearGradient>
</defs>
<g transform="translate(0, 512) scale(1, -1)">
<path id="p1" fill="url(#linear1)" d="M 256 0.0024550528 L 511.99744 255.9998950528 256 511.9973350528 0.0025599999999883 255.9998950528 256 0.0024550528 Z "/>
<path id="p2" fill="rgb(0,0,255)" d="M 0 -0.25 L 512 -0.25 512 0.25 0 0.25 Z "/>
<path id="p3" fill="rgb(0,0,255)" d="M 0 511.75 L 512 511.75 512 512.25 0 512.25 Z "/>
<path id="p4" fill="rgb(0,0,255)" d="M -0.25 0 L -0.25 512 0.25 512 0.25 0 Z "/>
<path id="p5" fill="rgb(0,0,255)" d="M 511.75 0 L 511.75 512 512.25 512 512.25 0 Z "/>
<path id="p6" fill="rgb(0,0,255)" d="M 0 255.75 L 512 255.75 512 256.25 0 256.25 Z "/>
<path id="p7" fill="rgb(0,0,255)" d="M 255.75 0 L 255.75 512 256.25 512 256.25 0 Z "/>
<path id="p8" fill="rgb(0,0,255)" d="M 0 127.75 L 256 127.75 256 128.25 0 128.25 Z "/>
<path id="p9" fill="rgb(0,0,255)" d="M 127.75 0 L 127.75 256 128.25 256 128.25 0 Z "/>
<path id="p10" fill="rgb(0,0,255)" d="M 128 63.75 L 256 63.75 256 64.25 128 64.25 Z "/>
<path id="p11" fill="rgb(0,0,255)" d="M 191.75 0 L 191.75 128 192.25 128 192.25 0 Z "/>
<path id="p12" fill="rgb(0,0,255)" d="M 192 31.75 L 256 31.75 256 32.25 192 32.25 Z "/>
<path id="p13" fill="rgb(0,0,255)" d="M 223.75 0 L 223.75 64 224.25 64 224.25 0 Z "/>
<path id="p14" fill="rgb(0,0,255)" d="M 224 15.75 L 256 15.75 256 16.25 224 16.25 Z "/>
<path id="p15" fill="rgb(0,0,255)" d="M 239.75 0 L 239.75 32 240.25 32 240.25 0 Z "/>
<path id="p16" fill="rgb(0,0,255)" d="M 192 47.75 L 224 47.75 224 48.25 192 48.25 Z "/>
<path id="p17" fill="rgb(0,0,255)" d="M 207.75 32 L 207.75 64 208.25 64 208.25 32 Z "/>
<path id="p18" fill="rgb(0,0,255)" d="M 128 95.75 L 192 95.75 192 96.25 128 96.25 Z "/>
<path id="p19" fill="rgb(0,0,255)" d="M 159.75 64 L 159.75 128 160.25 128 160.25 64 Z "/>
<path id="p20" fill="rgb(0,0,255)" d="M 160 79.75 L 192 79.75 192 80.25 160 80.25 Z "/>
<path id="p21" fill="rgb(0,0,255)" d="M 175.75 64 L 175.75 96 176.25 96 176.25 64 Z "/>
<path id="p22" fill="rgb(0,0,255)" d="M 128 111.75 L 160 111.75 160 112.25 128 112.25 Z "/>
<path id="p23" fill="rgb(0,0,255)" d="M 143.75 96 L 143.75 128 144.25 128 144.25 96 Z "/>
<path id="p24" fill="rgb(0,0,255)" d="M 0 191.75 L 128 191.75 128 192.25 0 192.25 Z "/>
<path id="p25" fill="rgb(0,0,255)" d="M 63.75 128 L 63.75 256 64.25 256 64.25 128 Z "/>
<path id="p26" fill="rgb(0,0,255)" d="M 64 159.75 L 128 159.75 128 160.25 64 160.25 Z "/>
<path id="p27" fill="rgb(0,0,255)" d="M 95.75 128 L 95.75 192 96.25 192 96.25 128 Z "/>
<path id="p28" fill="rgb(0,0,255)" d="M 96 143.75 L 128 143.75 128 144.25 96 144.25 Z "/>
<path id="p29" fill="rgb(0,0,255)" d="M 111.75 128 L 111.75 160 112.25 160 112.25 128 Z "/>
<path id="p30" fill="rgb(0,0,255)" d="M 64 175.75 L 96 175.75 96 176.25 64 176.25 Z "/>
<path id="p31" fill="rgb(0,0,255)" d="M 79.75 160 L 79.75 192 80.25 192 80.25 160 Z "/>
<path id="p32" fill="rgb(0,0,255)" d="M 0 223.75 L 64 223.75 64 224.25 0 224.25 Z "/>
<path id="p33" fill="rgb(0,0,255)" d="M 31.75 192 L 31.75 256 32.25 256 32.25 192 Z "/>
<path id="p34" fill="rgb(0,0,255)" d="M 32 207.75 L 64 207.75 64 208.25 32 208.25 Z "/>
<path id="p35" fill="rgb(0,0,255)" d="M 47.75 192 L 47.75 224 48.25 224 48.25 192 Z "/>
<path id="p36" fill="rgb(0,0,255)" d="M 0 239.75 L 32 239.75 32 240.25 0 240.25 Z "/>
<path id="p37" fill="rgb(0,0,255)" d="M 15.75 224 L 15.75 256 16.25 256 16.25 224 Z "/>
<path id="p38" fill="rgb(0,0,255)" d="M 256 127.75 L 512 127.75 512 128.25 256 128.25 Z "/>
<path id="p39" fill="rgb(0,0,255)" d="M 383.75 0 L 383.75 256 384.25 256 384.25 0 Z "/>
<path id="p40" fill="rgb(0,0,255)" d="M 256 63.75 L 384 63.75 384 64.25 256 64.25 Z "/>
<path id="p41" fill="rgb(0,0,255)" d="M 319.75 0 L 319.75 128 320.25 128 320.25 0 Z "/>
<path id="p42" fill="rgb(0,0,255)" d="M 256 31.75 L 320 31.75 320 32.25 256 32.25 Z "/>
<path id="p43" fill="rgb(0,0,255)" d="M 287.75 0 L 287.75 64 288.25 64 288.25 0 Z "/>
<path id="p44" fill="rgb(0,0,255)" d="M 256 15.75 L 288 15.75 288 16.25 256 16.25 Z "/>
<path id="p45" fill="rgb(0,0,255)" d="M 271.75 0 L 271.75 32 272.25 32 272.25 0 Z "/>
<path id="p46" fill="rgb(0,0,255)" d="M 288 47.75 L 320 47.75 320 48.25 288 48.25 Z "/>
<path id="p47" fill="rgb(0,0,255)" d="M 303.75 32 L 303.75 64 304.25 64 304.25 32 Z "/>
<path id="p48" fill="rgb(0,0,255)" d="M 320 95.75 L 384 95.75 384 96.25 320 96.25 Z "/>
<path id="p49" fill="rgb(0,0,255)" d="M 351.75 64 L 351.75 128 352.25 128 352.25 64 Z "/>
<path id="p50" fill="rgb(0,0,255)" d="M 320 79.75 L 352 79.75 352 80.25 320 80.25 Z "/>
<path id="p51" fill="rgb(0,0,255)" d="M 335.75 64 L 335.75 96 336.25 96 336.25 64 Z "/>
<path id="p52" fill="rgb(0,0,255)" d="M 352 111.75 L 384 111.75 384 112.25 352 112.25 Z "/>
<path id="p53" fill="rgb(0,0,255)" d="M 367.75 96 L 367.75 128 368.25 128 368.25 96 Z "/>
<path id="p54" fill="rgb(0,0,255)" d="M 384 191.75 L 512 191.75 512 192.25 384 192.25 Z "/>
<path id="p55" fill="rgb(0,0,255)" d="M 447.75 128 L 447.75 256 448.25 256 448.25 128 Z "/>
<path id="p56" fill="rgb(0,0,255)" d="M 384 159.75 L 448 159.75 448 160.25 384 160.25 Z "/>
<path id="p57" fill="rgb(0,0,255)" d="M 415.75 128 L 415.75 192 416.25 192 416.25 128 Z "/>
<path id="p58" fill="rgb(0,0,255)" d="M 384 143.75 L 416 143.75 416 144.25 384 144.25 Z "/>
<path id="p59" fill="rgb(0,0,255)" d="M 399.75 128 L 399.75 160 400.25 160 400.25 128 Z "/>
<path id="p60" fill="rgb(0,0,255)" d="M 416 175.75 L 448 175.75 448 176.25 416 176.25 Z "/>
<path id="p61" fill="rgb(0,0,255)" d="M 431.75 160 L 431.75 192 432.25 192 432.25 160 Z "/>
<path id="p62" fill="rgb(0,0,255)" d="M 448 223.75 L 512 223.75 512 224.25 448 224.25 Z "/>
<path id="p63" fill="rgb(0,0,255)" d="M 479.75 192 L 479.75 256 480.25 256 480.25 192 Z "/>
<path id="p64" fill="rgb(0,0,255)" d="M 448 207.75 L 480 207.75 480 208.25 448 208.25 Z "/>
<path id="p65" fill="rgb(0,0,255)" d="M 463.75 192 L 463.75 224 464.25 224 464.25 192 Z "/>
<path id="p66" fill="rgb(0,0,255)" d="M 480 239.75 L 512 239.75 512 240.25 480 240.25 Z "/>
<path id="p67" fill="rgb(0,0,255)" d="M 495.75 224 L 495.75 256 496.25 256 496.25 224 Z "/>
<path id="p68" fill="rgb(0,0,255)" d="M 0 383.75 L 256 383.75 256 384.25 0 384.25 Z "/>
<path id="p69" fill="rgb(0,0,255)" d="M 127.75 256 L 127.75 512 128.25 512 128.25 256 Z "/>
<path id="p70" fill="rgb(0,0,255)" d="M 0 319.75 L 128 319.75 128 320.25 0 320.25 Z "/>
<path id="p71" fill="rgb(0,0,255)" d="M 63.75 256 L 63.75 384 64.25 384 64.25 256 Z "/>
<path id="p72" fill="rgb(0,0,255)" d="M 0 287.75 L 64 287.75 64 288.25 0 288.25 Z "/>
<path id="p73" fill="rgb(0,0,255)" d="M 31.75 256 L 31.75 320 32.25 320 32.25 256 Z "/>
<path id="p74" fill="rgb(0,0,255)" d="M 0 271.75 L 32 271.75 32 272.25 0 272.25 Z "/>
<path id="p75" fill="rgb(0,0,255)" d="M 15.75 256 L 15.75 288 16.25 288 16.25 256 Z "/>
<path id="p76" fill="rgb(0,0,255)" d="M 32 303.75 L 64 303.75 64 304.25 32 304.25 Z "/>
<path id="p77" fill="rgb(0,0,255)" d="M 47.75 288 L 47.75 320 48.25 320 48.25 288 Z "/>
<path id="p78" fill="rgb(0,0,255)" d="M 64 351.75 L 128 351.75 128 352.25 64 352.25 Z "/>
<path id="p79" fill="rgb(0,0,255)" d="M 95.75 320 L 95.75 384 96.25 384 96.25 320 Z "/>
<path id="p80" fill="rgb(0,0,255)" d="M 64 335.75 L 96 335.75 96 336.25 64 336.25 Z "/>
<path id="p81" fill="rgb(0,0,255)" d="M 79.75 320 L 79.75 352 80.25 352 80.25 320 Z "/>
<path id="p82" fill="rgb(0,0,255)" d="M 96 367.75 L 128 367.75 128 368.25 96 368.25 Z "/>
<path id="p83" fill="rgb(0,0,255)" d="M 111.75 352 L 111.75 384 112.25 384 112.25 352 Z "/>
<path id="p84" fill="rgb(0,0,255)" d="M 128 447.75 L 256 447.75 256 448.25 128 448.25 Z "/>
<path id="p85" fill="rgb(0,0,255)" d="M 191.75 384 L 191.75 512 192.25 512 192.25 384 Z "/>
<path id="p86" fill="rgb(0,0,255)" d="M 128 415.75 L 192 415.75 192 416.25 128 416.25 Z "/>
<path id="p87" fill="rgb(0,0,255)" d="M 159.75 384 L 159.75 448 160.25 448 160.25 384 Z "/>
<path id="p88" fill="rgb(0,0,255)" d="M 128 399.75 L 160 399.75 160 400.25 128 400.25 Z "/>
<path id="p89" fill="rgb(0,0,255)" d="M 143.75 384 L 143.75 416 144.25 416 144.25 384 Z "/>
<path id="p90" fill="rgb(0,0,255)" d="M 160 431.75 L 192 431.75 192 432.25 160 432.25 Z "/>
<path id="p91" fill="rgb(0,0,255)" d="M 175.75 416 L 175.75 448 176.25 448 176.25 416 Z "/>
<path id="p92" fill="rgb(0,0,255)" d="M 192 479.75 L 256 479.75 256 480.25 192 480.25 Z "/>
<path id="p93" fill="rgb(0,0,255)" d="M 223.75 448 L 223.75 512 224.25 512 224.25 448 Z "/>
<path id="p94" fill="rgb(0,0,255)" d="M 192 463.75 L 224 463.75 224 464.25 192 464.25 Z "/>
<path id="p95" fill="rgb(0,0,255)" d="M 207.75 448 L 207.75 480 208.25 480 208.25 448 Z "/>
<path id="p96" fill="rgb(0,0,255)" d="M 224 495.75 L 256 495.75 256 496.25 224 496.25 Z "/>
<path id="p97" fill="rgb(0,0,255)" d="M 239.75 480 L 239.75 512 240.25 512 240.25 480 Z "/>
<path id="p98" fill="rgb(0,0,255)" d="M 256 383.75 L 512 383.75 512 384.25 256 384.25 Z "/>
<path id="p99" fill="rgb(0,0,255)" d="M 383.75 256 L 383.75 512 384.25 512 384.25 256 Z "/>
<path id="p100" fill="rgb(0,0,255)" d="M 384 319.75 L 512 319.75 512 320.25 384 320.25 Z "/>
<path id="p101" fill="rgb(0,0,255)" d="M 447.75 256 L 447.75 384 448.25 384 448.25 256 Z "/>
<path id="p102" fill="rgb(0,0,255)" d="M 448 287.75 L 512 287.75 512 288.25 448 288.25 Z "/>
<path id="p103" fill="rgb(0,0,255)" d="M 479.75 256 L 479.75 320 480.25 320 480.25 256 Z "/>
<path id="p104" fill="rgb(0,0,255)" d="M 480 271.75 L 512 271.75 512 272.25 480 272.25 Z "/>
<path id="p105" fill="rgb(0,0,255)" d="M 495.75 256 L 495.75 288 496.25 288 496.25 256 Z "/>
<path id="p106" fill="rgb(0,0,255)" d="M 448 303.75 L 480 303.75 480 304.25 448 304.25 Z "/>
<path id="p107" fill="rgb(0,0,255)" d="M 463.75 288 L 463.75 320 464.25 320 464.25 288 Z "/>
<path id="p108" fill="rgb(0,0,255)" d="M 384 351.75 L 448 351.75 448 352.25 384 352.25 Z "/>
<path id="p109" fill="rgb(0,0,255)" d="M 415.75 320 L 415.75 384 416.25 384 416.25 320 Z "/>
<path id="p110" fill="rgb(0,0,255)" d="M 416 335.75 L 448 335.75 448 336.25 416 336.25 Z "/>
<path id="p111" fill="rgb(0,0,255)" d="M 431.75 320 L 431.75 352 432.25 352 432.25 320 Z "/>
<path id="p112" fill="rgb(0,0,255)" d="M 384 367.75 L 416 367.75 416 368.25 384 368.25 Z "/>
<path id="p113" fill="rgb(0,0,255)" d="M 399.75 352 L 399.75 384 400.25 384 400.25 352 Z "/>
<path id="p114" fill="rgb(0,0,255)" d="M 256 447.75 L 384 447.75 384 448.25 256 448.25 Z "/>
<path id="p115" fill="rgb(0,0,255)" d="M 319.75 384 L 319.75 512 320.25 512 320.25 384 Z "/>
<path id="p116" fill="rgb(0,0,255)" d="M 320 415.75 L 384 415.75 384 416.25 320 416.25 Z "/>
<path id="p117" fill="rgb(0,0,255)" d="M 351.75 384 L 351.75 448 352.25 448 352.25 384 Z "/>
<path id="p118" fill="rgb(0,0,255)" d="M 352 399.75 L 384 399.75 384 400.25 352 400.25 Z "/>
<path id="p119" fill="rgb(0,0,255)" d="M 367.75 384 L 367.75 416 368.25 416 368.25 384 Z "/>
<path id="p120" fill="rgb(0,0,255)" d="M 320 431.75 L 352 431.75 352 432.25 320 432.25 Z "/>
<path id="p121" fill="rgb(0,0,255)" d="M 335.75 416 L 335.75 448 336.25 448 336.25 416 Z "/>
<path id="p122" fill="rgb(0,0,255)" d="M 256 479.75 L 320 479.75 320 480.25 256 480.25 Z "/>
<path id="p123" fill="rgb(0,0,255)" d="M 287.75 448 L 287.75 512 288.25 512 288.25 448 Z "/>
<path id="p124" fill="rgb(0,0,255)" d="M 288 463.75 L 320 463.75 320 464.25 288 464.25 Z "/>
<path id="p125" fill="rgb(0,0,255)" d="M 303.75 448 L 303.75 480 304.25 480 304.25 448 Z "/>
<path id="p126" fill="rgb(0,0,255)" d="M 256 495.75 L 288 495.75 288 496.25 256 496.25 Z "/>
<path id="p127" fill="rgb(0,0,255)" d="M 271.75 480 L 271.75 512 272.25 512 272.25 480 Z "/>
</g>
</svg>
