<?xml version="1.0" standalone="no"?>
<svg
    xmlns:xlink="http://www.w3.org/1999/xlink"
    xmlns:dc="http://purl.org/dc/elements/1.1/"
    xmlns:cc="http://creativecommons.org/ns#"
    xmlns:rdf="http://www.w3.org/1999/02/22-rdf-syntax-ns#"
    xmlns:svg="http://www.w3.org/2000/svg"
    xmlns="http://www.w3.org/2000/svg"
    version="1.1"
    viewBox="0 0 512 512">
<defs>
<radialGradient id="radial1" gradientUnits="userSpaceOnUse" cx="100" cy="100" fx="150" fy="100" r="100" spreadMethod="pad" gradientTransform="matrix(0.707107, 0.707107, -0.353553, 0.353553, 64.6447, -6.06602)">
<stop offset="0" stop-color="rgb(255,0,0)" stop-opacity="1"/>
<stop offset="1" stop-color="rgb(0,255,0)" stop-opacity="1"/>
</radialGradient>
</defs>
<g transform="translate(0, 512) scale(1, -1)">
<path id="p1" fill="url(#radial1)" d="M 165.490688 346.5095168 A 256.00007921762 127.99985859013 45 0 1 53.614480365297 134.56830024123 256.00007921762 127.99985859013 45 0 1 134.56860744123 53.614173165297 256.00007921757 127.99985859013 -135 0 1 144.48764795119 53.97777275119 256.00007921762 127.99985859013 45 0 1 458.02243204881 367.51255684881 256.00007921759 127.99985859014 -135.00000000001 0 1 458.3860316347 377.43159735877 256.00007921762 127.99985859013 45 0 1 377.43190455877 458.3857244347 256.00007921762 127.99985859013 45 0 1 165.490688 346.5095168 Z "/>
<path id="p2" fill="rgb(0,0,255)" d="M 0 -0.25 L 512 -0.25 512 0.25 0 0.25 Z "/>
<path id="p3" fill="rgb(0,0,255)" d="M 0 511.75 L 512 511.75 512 512.25 0 512.25 Z "/>
<path id="p4" fill="rgb(0,0,255)" d="M -0.25 0 L -0.25 512 0.25 512 0.25 0 Z "/>
<path id="p5" fill="rgb(0,0,255)" d="M 511.75 0 L 511.75 512 512.25 512 512.25 0 Z "/>
<path id="p6" fill="rgb(0,0,255)" d="M 0 255.75 L 512 255.75 512 256.25 0 256.25 Z "/>
<path id="p7" fill="rgb(0,0,255)" d="M 255.75 0 L 255.75 512 256.25 512 256.25 0 Z "/>
<path id="p8" fill="rgb(0,0,255)" d="M 0 127.75 L 256 127.75 256 128.25 0 128.25 Z "/>
<path id="p9" fill="rgb(0,0,255)" d="M 127.75 0 L 127.75 256 128.25 256 128.25 0 Z "/>
<path id="p10" fill="rgb(0,0,255)" d="M 0 63.75 L 128 63.75 128 64.25 0 64.25 Z "/>
<path id="p11" fill="rgb(0,0,255)" d="M 63.75 0 L 63.75 128 64.25 128 64.25 0 Z "/>
<path id="p12" fill="rgb(0,0,255)" d="M 64 31.75 L 128 31.75 128 32.25 64 32.25 Z "/>
<path id="p13" fill="rgb(0,0,255)" d="M 95.75 0 L 95.75 64 96.25 64 96.25 0 Z "/>
<path id="p14" fill="rgb(0,0,255)" d="M 64 47.75 L 96 47.75 96 48.25 64 48.25 Z "/>
<path id="p15" fill="rgb(0,0,255)" d="M 79.75 32 L 79.75 64 80.25 64 80.25 32 Z "/>
<path id="p16" fill="rgb(0,0,255)" d="M 96 47.75 L 128 47.75 128 48.25 96 48.25 Z "/>
<path id="p17" fill="rgb(0,0,255)" d="M 111.75 32 L 111.75 64 112.25 64 112.25 32 Z "/>
<path id="p18" fill="rgb(0,0,255)" d="M 0 95.75 L 64 95.75 64 96.25 0 96.25 Z "/>
<path id="p19" fill="rgb(0,0,255)" d="M 31.75 64 L 31.75 128 32.25 128 32.25 64 Z "/>
<path id="p20" fill="rgb(0,0,255)" d="M 32 79.75 L 64 79.75 64 80.25 32 80.25 Z "/>
<path id="p21" fill="rgb(0,0,255)" d="M 47.75 64 L 47.75 96 48.25 96 48.25 64 Z "/>
<path id="p22" fill="rgb(0,0,255)" d="M 32 111.75 L 64 111.75 64 112.25 32 112.25 Z "/>
<path id="p23" fill="rgb(0,0,255)" d="M 47.75 96 L 47.75 128 48.25 128 48.25 96 Z "/>
<path id="p24" fill="rgb(0,0,255)" d="M 64 95.75 L 128 95.75 128 96.25 64 96.25 Z "/>
<path id="p25" fill="rgb(0,0,255)" d="M 95.75 64 L 95.75 128 96.25 128 96.25 64 Z "/>
<path id="p26" fill="rgb(0,0,255)" d="M 64 79.75 L 96 79.75 96 80.25 64 80.25 Z "/>
<path id="p27" fill="rgb(0,0,255)" d="M 79.75 64 L 79.75 96 80.25 96 80.25 64 Z "/>
<path id="p28" fill="rgb(0,0,255)" d="M 128 63.75 L 256 63.75 256 64.25 128 64.25 Z "/>
<path id="p29" fill="rgb(0,0,255)" d="M 191.75 0 L 191.75 128 192.25 128 192.25 0 Z "/>
<path id="p30" fill="rgb(0,0,255)" d="M 128 31.75 L 192 31.75 192 32.25 128 32.25 Z "/>
<path id="p31" fill="rgb(0,0,255)" d="M 159.75 0 L 159.75 64 160.25 64 160.25 0 Z "/>
<path id="p32" fill="rgb(0,0,255)" d="M 128 47.75 L 160 47.75 160 48.25 128 48.25 Z "/>
<path id="p33" fill="rgb(0,0,255)" d="M 143.75 32 L 143.75 64 144.25 64 144.25 32 Z "/>
<path id="p34" fill="rgb(0,0,255)" d="M 160 47.75 L 192 47.75 192 48.25 160 48.25 Z "/>
<path id="p35" fill="rgb(0,0,255)" d="M 175.75 32 L 175.75 64 176.25 64 176.25 32 Z "/>
<path id="p36" fill="rgb(0,0,255)" d="M 192 31.75 L 256 31.75 256 32.25 192 32.25 Z "/>
<path id="p37" fill="rgb(0,0,255)" d="M 223.75 0 L 223.75 64 224.25 64 224.25 0 Z "/>
<path id="p38" fill="rgb(0,0,255)" d="M 192 47.75 L 224 47.75 224 48.25 192 48.25 Z "/>
<path id="p39" fill="rgb(0,0,255)" d="M 207.75 32 L 207.75 64 208.25 64 208.25 32 Z "/>
<path id="p40" fill="rgb(0,0,255)" d="M 192 95.75 L 256 95.75 256 96.25 192 96.25 Z "/>
<path id="p41" fill="rgb(0,0,255)" d="M 223.75 64 L 223.75 128 224.25 128 224.25 64 Z "/>
<path id="p42" fill="rgb(0,0,255)" d="M 192 79.75 L 224 79.75 224 80.25 192 80.25 Z "/>
<path id="p43" fill="rgb(0,0,255)" d="M 207.75 64 L 207.75 96 208.25 96 208.25 64 Z "/>
<path id="p44" fill="rgb(0,0,255)" d="M 224 79.75 L 256 79.75 256 80.25 224 80.25 Z "/>
<path id="p45" fill="rgb(0,0,255)" d="M 239.75 64 L 239.75 96 240.25 96 240.25 64 Z "/>
<path id="p46" fill="rgb(0,0,255)" d="M 0 191.75 L 128 191.75 128 192.25 0 192.25 Z "/>
<path id="p47" fill="rgb(0,0,255)" d="M 63.75 128 L 63.75 256 64.25 256 64.25 128 Z "/>
<path id="p48" fill="rgb(0,0,255)" d="M 0 159.75 L 64 159.75 64 160.25 0 160.25 Z "/>
<path id="p49" fill="rgb(0,0,255)" d="M 31.75 128 L 31.75 192 32.25 192 32.25 128 Z "/>
<path id="p50" fill="rgb(0,0,255)" d="M 32 143.75 L 64 143.75 64 144.25 32 144.25 Z "/>
<path id="p51" fill="rgb(0,0,255)" d="M 47.75 128 L 47.75 160 48.25 160 48.25 128 Z "/>
<path id="p52" fill="rgb(0,0,255)" d="M 32 175.75 L 64 175.75 64 176.25 32 176.25 Z "/>
<path id="p53" fill="rgb(0,0,255)" d="M 47.75 160 L 47.75 192 48.25 192 48.25 160 Z "/>
<path id="p54" fill="rgb(0,0,255)" d="M 64 223.75 L 128 223.75 128 224.25 64 224.25 Z "/>
<path id="p55" fill="rgb(0,0,255)" d="M 95.75 192 L 95.75 256 96.25 256 96.25 192 Z "/>
<path id="p56" fill="rgb(0,0,255)" d="M 64 207.75 L 96 207.75 96 208.25 64 208.25 Z "/>
<path id="p57" fill="rgb(0,0,255)" d="M 79.75 192 L 79.75 224 80.25 224 80.25 192 Z "/>
<path id="p58" fill="rgb(0,0,255)" d="M 64 239.75 L 96 239.75 96 240.25 64 240.25 Z "/>
<path id="p59" fill="rgb(0,0,255)" d="M 79.75 224 L 79.75 256 80.25 256 80.25 224 Z "/>
<path id="p60" fill="rgb(0,0,255)" d="M 256 127.75 L 512 127.75 512 128.25 256 128.25 Z "/>
<path id="p61" fill="rgb(0,0,255)" d="M 383.75 0 L 383.75 256 384.25 256 384.25 0 Z "/>
<path id="p62" fill="rgb(0,0,255)" d="M 256 63.75 L 384 63.75 384 64.25 256 64.25 Z "/>
<path id="p63" fill="rgb(0,0,255)" d="M 319.75 0 L 319.75 128 320.25 128 320.25 0 Z "/>
<path id="p64" fill="rgb(0,0,255)" d="M 256 95.75 L 320 95.75 320 96.25 256 96.25 Z "/>
<path id="p65" fill="rgb(0,0,255)" d="M 287.75 64 L 287.75 128 288.25 128 288.25 64 Z "/>
<path id="p66" fill="rgb(0,0,255)" d="M 256 79.75 L 288 79.75 288 80.25 256 80.25 Z "/>
<path id="p67" fill="rgb(0,0,255)" d="M 271.75 64 L 271.75 96 272.25 96 272.25 64 Z "/>
<path id="p68" fill="rgb(0,0,255)" d="M 256 111.75 L 288 111.75 288 112.25 256 112.25 Z "/>
<path id="p69" fill="rgb(0,0,255)" d="M 271.75 96 L 271.75 128 272.25 128 272.25 96 Z "/>
<path id="p70" fill="rgb(0,0,255)" d="M 288 111.75 L 320 111.75 320 112.25 288 112.25 Z "/>
<path id="p71" fill="rgb(0,0,255)" d="M 303.75 96 L 303.75 128 304.25 128 304.25 96 Z "/>
<path id="p72" fill="rgb(0,0,255)" d="M 256 191.75 L 384 191.75 384 192.25 256 192.25 Z "/>
<path id="p73" fill="rgb(0,0,255)" d="M 319.75 128 L 319.75 256 320.25 256 320.25 128 Z "/>
<path id="p74" fill="rgb(0,0,255)" d="M 256 159.75 L 320 159.75 320 160.25 256 160.25 Z "/>
<path id="p75" fill="rgb(0,0,255)" d="M 287.75 128 L 287.75 192 288.25 192 288.25 128 Z "/>
<path id="p76" fill="rgb(0,0,255)" d="M 288 143.75 L 320 143.75 320 144.25 288 144.25 Z "/>
<path id="p77" fill="rgb(0,0,255)" d="M 303.75 128 L 303.75 160 304.25 160 304.25 128 Z "/>
<path id="p78" fill="rgb(0,0,255)" d="M 320 159.75 L 384 159.75 384 160.25 320 160.25 Z "/>
<path id="p79" fill="rgb(0,0,255)" d="M 351.75 128 L 351.75 192 352.25 192 352.25 128 Z "/>
<path id="p80" fill="rgb(0,0,255)" d="M 320 143.75 L 352 143.75 352 144.25 320 144.25 Z "/>
<path id="p81" fill="rgb(0,0,255)" d="M 335.75 128 L 335.75 160 336.25 160 336.25 128 Z "/>
<path id="p82" fill="rgb(0,0,255)" d="M 320 175.75 L 352 175.75 352 176.25 320 176.25 Z "/>
<path id="p83" fill="rgb(0,0,255)" d="M 335.75 160 L 335.75 192 336.25 192 336.25 160 Z "/>
<path id="p84" fill="rgb(0,0,255)" d="M 352 175.75 L 384 175.75 384 176.25 352 176.25 Z "/>
<path id="p85" fill="rgb(0,0,255)" d="M 367.75 160 L 367.75 192 368.25 192 368.25 160 Z "/>
<path id="p86" fill="rgb(0,0,255)" d="M 320 223.75 L 384 223.75 384 224.25 320 224.25 Z "/>
<path id="p87" fill="rgb(0,0,255)" d="M 351.75 192 L 351.75 256 352.25 256 352.25 192 Z "/>
<path id="p88" fill="rgb(0,0,255)" d="M 352 207.75 L 384 207.75 384 208.25 352 208.25 Z "/>
<path id="p89" fill="rgb(0,0,255)" d="M 367.75 192 L 367.75 224 368.25 224 368.25 192 Z "/>
<path id="p90" fill="rgb(0,0,255)" d="M 384 191.75 L 512 191.75 512 192.25 384 192.25 Z "/>
<path id="p91" fill="rgb(0,0,255)" d="M 447.75 128 L 447.75 256 448.25 256 448.25 128 Z "/>
<path id="p92" fill="rgb(0,0,255)" d="M 384 223.75 L 448 223.75 448 224.25 384 224.25 Z "/>
<path id="p93" fill="rgb(0,0,255)" d="M 415.75 192 L 415.75 256 416.25 256 416.25 192 Z "/>
<path id="p94" fill="rgb(0,0,255)" d="M 384 207.75 L 416 207.75 416 208.25 384 208.25 Z "/>
<path id="p95" fill="rgb(0,0,255)" d="M 399.75 192 L 399.75 224 400.25 224 400.25 192 Z "/>
<path id="p96" fill="rgb(0,0,255)" d="M 384 239.75 L 416 239.75 416 240.25 384 240.25 Z "/>
<path id="p97" fill="rgb(0,0,255)" d="M 399.75 224 L 399.75 256 400.25 256 400.25 224 Z "/>
<path id="p98" fill="rgb(0,0,255)" d="M 416 239.75 L 448 239.75 448 240.25 416 240.25 Z "/>
<path id="p99" fill="rgb(0,0,255)" d="M 431.75 224 L 431.75 256 432.25 256 432.25 224 Z "/>
<path id="p100" fill="rgb(0,0,255)" d="M 0 383.75 L 256 383.75 256 384.25 0 384.25 Z "/>
<path id="p101" fill="rgb(0,0,255)" d="M 127.75 256 L 127.75 512 128.25 512 128.25 256 Z "/>
<path id="p102" fill="rgb(0,0,255)" d="M 0 319.75 L 128 319.75 128 320.25 0 320.25 Z "/>
<path id="p103" fill="rgb(0,0,255)" d="M 63.75 256 L 63.75 384 64.25 384 64.25 256 Z "/>
<path id="p104" fill="rgb(0,0,255)" d="M 64 287.75 L 128 287.75 128 288.25 64 288.25 Z "/>
<path id="p105" fill="rgb(0,0,255)" d="M 95.75 256 L 95.75 320 96.25 320 96.25 256 Z "/>
<path id="p106" fill="rgb(0,0,255)" d="M 64 271.75 L 96 271.75 96 272.25 64 272.25 Z "/>
<path id="p107" fill="rgb(0,0,255)" d="M 79.75 256 L 79.75 288 80.25 288 80.25 256 Z "/>
<path id="p108" fill="rgb(0,0,255)" d="M 96 271.75 L 128 271.75 128 272.25 96 272.25 Z "/>
<path id="p109" fill="rgb(0,0,255)" d="M 111.75 256 L 111.75 288 112.25 288 112.25 256 Z "/>
<path id="p110" fill="rgb(0,0,255)" d="M 96 303.75 L 128 303.75 128 304.25 96 304.25 Z "/>
<path id="p111" fill="rgb(0,0,255)" d="M 111.75 288 L 111.75 320 112.25 320 112.25 288 Z "/>
<path id="p112" fill="rgb(0,0,255)" d="M 128 319.75 L 256 319.75 256 320.25 128 320.25 Z "/>
<path id="p113" fill="rgb(0,0,255)" d="M 191.75 256 L 191.75 384 192.25 384 192.25 256 Z "/>
<path id="p114" fill="rgb(0,0,255)" d="M 128 287.75 L 192 287.75 192 288.25 128 288.25 Z "/>
<path id="p115" fill="rgb(0,0,255)" d="M 159.75 256 L 159.75 320 160.25 320 160.25 256 Z "/>
<path id="p116" fill="rgb(0,0,255)" d="M 128 303.75 L 160 303.75 160 304.25 128 304.25 Z "/>
<path id="p117" fill="rgb(0,0,255)" d="M 143.75 288 L 143.75 320 144.25 320 144.25 288 Z "/>
<path id="p118" fill="rgb(0,0,255)" d="M 128 351.75 L 192 351.75 192 352.25 128 352.25 Z "/>
<path id="p119" fill="rgb(0,0,255)" d="M 159.75 320 L 159.75 384 160.25 384 160.25 320 Z "/>
<path id="p120" fill="rgb(0,0,255)" d="M 128 335.75 L 160 335.75 160 336.25 128 336.25 Z "/>
<path id="p121" fill="rgb(0,0,255)" d="M 143.75 320 L 143.75 352 144.25 352 144.25 320 Z "/>
<path id="p122" fill="rgb(0,0,255)" d="M 160 335.75 L 192 335.75 192 336.25 160 336.25 Z "/>
<path id="p123" fill="rgb(0,0,255)" d="M 175.75 320 L 175.75 352 176.25 352 176.25 320 Z "/>
<path id="p124" fill="rgb(0,0,255)" d="M 160 367.75 L 192 367.75 192 368.25 160 368.25 Z "/>
<path id="p125" fill="rgb(0,0,255)" d="M 175.75 352 L 175.75 384 176.25 384 176.25 352 Z "/>
<path id="p126" fill="rgb(0,0,255)" d="M 192 351.75 L 256 351.75 256 352.25 192 352.25 Z "/>
<path id="p127" fill="rgb(0,0,255)" d="M 223.75 320 L 223.75 384 224.25 384 224.25 320 Z "/>
<path id="p128" fill="rgb(0,0,255)" d="M 192 367.75 L 224 367.75 224 368.25 192 368.25 Z "/>
<path id="p129" fill="rgb(0,0,255)" d="M 207.75 352 L 207.75 384 208.25 384 208.25 352 Z "/>
<path id="p130" fill="rgb(0,0,255)" d="M 128 447.75 L 256 447.75 256 448.25 128 448.25 Z "/>
<path id="p131" fill="rgb(0,0,255)" d="M 191.75 384 L 191.75 512 192.25 512 192.25 384 Z "/>
<path id="p132" fill="rgb(0,0,255)" d="M 192 415.75 L 256 415.75 256 416.25 192 416.25 Z "/>
<path id="p133" fill="rgb(0,0,255)" d="M 223.75 384 L 223.75 448 224.25 448 224.25 384 Z "/>
<path id="p134" fill="rgb(0,0,255)" d="M 192 399.75 L 224 399.75 224 400.25 192 400.25 Z "/>
<path id="p135" fill="rgb(0,0,255)" d="M 207.75 384 L 207.75 416 208.25 416 208.25 384 Z "/>
<path id="p136" fill="rgb(0,0,255)" d="M 224 399.75 L 256 399.75 256 400.25 224 400.25 Z "/>
<path id="p137" fill="rgb(0,0,255)" d="M 239.75 384 L 239.75 416 240.25 416 240.25 384 Z "/>
<path id="p138" fill="rgb(0,0,255)" d="M 224 431.75 L 256 431.75 256 432.25 224 432.25 Z "/>
<path id="p139" fill="rgb(0,0,255)" d="M 239.75 416 L 239.75 448 240.25 448 240.25 416 Z "/>
<path id="p140" fill="rgb(0,0,255)" d="M 256 383.75 L 512 383.75 512 384.25 256 384.25 Z "/>
<path id="p141" fill="rgb(0,0,255)" d="M 383.75 256 L 383.75 512 384.25 512 384.25 256 Z "/>
<path id="p142" fill="rgb(0,0,255)" d="M 384 319.75 L 512 319.75 512 320.25 384 320.25 Z "/>
<path id="p143" fill="rgb(0,0,255)" d="M 447.75 256 L 447.75 384 448.25 384 448.25 256 Z "/>
<path id="p144" fill="rgb(0,0,255)" d="M 384 287.75 L 448 287.75 448 288.25 384 288.25 Z "/>
<path id="p145" fill="rgb(0,0,255)" d="M 415.75 256 L 415.75 320 416.25 320 416.25 256 Z "/>
<path id="p146" fill="rgb(0,0,255)" d="M 416 271.75 L 448 271.75 448 272.25 416 272.25 Z "/>
<path id="p147" fill="rgb(0,0,255)" d="M 431.75 256 L 431.75 288 432.25 288 432.25 256 Z "/>
<path id="p148" fill="rgb(0,0,255)" d="M 416 303.75 L 448 303.75 448 304.25 416 304.25 Z "/>
<path id="p149" fill="rgb(0,0,255)" d="M 431.75 288 L 431.75 320 432.25 320 432.25 288 Z "/>
<path id="p150" fill="rgb(0,0,255)" d="M 448 287.75 L 512 287.75 512 288.25 448 288.25 Z "/>
<path id="p151" fill="rgb(0,0,255)" d="M 479.75 256 L 479.75 320 480.25 320 480.25 256 Z "/>
<path id="p152" fill="rgb(0,0,255)" d="M 448 351.75 L 512 351.75 512 352.25 448 352.25 Z "/>
<path id="p153" fill="rgb(0,0,255)" d="M 479.75 320 L 479.75 384 480.25 384 480.25 320 Z "/>
<path id="p154" fill="rgb(0,0,255)" d="M 448 335.75 L 480 335.75 480 336.25 448 336.25 Z "/>
<path id="p155" fill="rgb(0,0,255)" d="M 463.75 320 L 463.75 352 464.25 352 464.25 320 Z "/>
<path id="p156" fill="rgb(0,0,255)" d="M 448 367.75 L 480 367.75 480 368.25 448 368.25 Z "/>
<path id="p157" fill="rgb(0,0,255)" d="M 463.75 352 L 463.75 384 464.25 384 464.25 352 Z "/>
<path id="p158" fill="rgb(0,0,255)" d="M 256 447.75 L 384 447.75 384 448.25 256 448.25 Z "/>
<path id="p159" fill="rgb(0,0,255)" d="M 319.75 384 L 319.75 512 320.25 512 320.25 384 Z "/>
<path id="p160" fill="rgb(0,0,255)" d="M 256 415.75 L 320 415.75 320 416.25 256 416.25 Z "/>
<path id="p161" fill="rgb(0,0,255)" d="M 287.75 384 L 287.75 448 288.25 448 288.25 384 Z "/>
<path id="p162" fill="rgb(0,0,255)" d="M 256 431.75 L 288 431.75 288 432.25 256 432.25 Z "/>
<path id="p163" fill="rgb(0,0,255)" d="M 271.75 416 L 271.75 448 272.25 448 272.25 416 Z "/>
<path id="p164" fill="rgb(0,0,255)" d="M 288 431.75 L 320 431.75 320 432.25 288 432.25 Z "/>
<path id="p165" fill="rgb(0,0,255)" d="M 303.75 416 L 303.75 448 304.25 448 304.25 416 Z "/>
<path id="p166" fill="rgb(0,0,255)" d="M 320 415.75 L 384 415.75 384 416.25 320 416.25 Z "/>
<path id="p167" fill="rgb(0,0,255)" d="M 351.75 384 L 351.75 448 352.25 448 352.25 384 Z "/>
<path id="p168" fill="rgb(0,0,255)" d="M 320 431.75 L 352 431.75 352 432.25 320 432.25 Z "/>
<path id="p169" fill="rgb(0,0,255)" d="M 335.75 416 L 335.75 448 336.25 448 336.25 416 Z "/>
<path id="p170" fill="rgb(0,0,255)" d="M 256 479.75 L 320 479.75 320 480.25 256 480.25 Z "/>
<path id="p171" fill="rgb(0,0,255)" d="M 287.75 448 L 287.75 512 288.25 512 288.25 448 Z "/>
<path id="p172" fill="rgb(0,0,255)" d="M 320 479.75 L 384 479.75 384 480.25 320 480.25 Z "/>
<path id="p173" fill="rgb(0,0,255)" d="M 351.75 448 L 351.75 512 352.25 512 352.25 448 Z "/>
<path id="p174" fill="rgb(0,0,255)" d="M 320 463.75 L 352 463.75 352 464.25 320 464.25 Z "/>
<path id="p175" fill="rgb(0,0,255)" d="M 335.75 448 L 335.75 480 336.25 480 336.25 448 Z "/>
<path id="p176" fill="rgb(0,0,255)" d="M 352 463.75 L 384 463.75 384 464.25 352 464.25 Z "/>
<path id="p177" fill="rgb(0,0,255)" d="M 367.75 448 L 367.75 480 368.25 480 368.25 448 Z "/>
<path id="p178" fill="rgb(0,0,255)" d="M 384 447.75 L 512 447.75 512 448.25 384 448.25 Z "/>
<path id="p179" fill="rgb(0,0,255)" d="M 447.75 384 L 447.75 512 448.25 512 448.25 384 Z "/>
<path id="p180" fill="rgb(0,0,255)" d="M 384 415.75 L 448 415.75 448 416.25 384 416.25 Z "/>
<path id="p181" fill="rgb(0,0,255)" d="M 415.75 384 L 415.75 448 416.25 448 416.25 384 Z "/>
<path id="p182" fill="rgb(0,0,255)" d="M 416 431.75 L 448 431.75 448 432.25 416 432.25 Z "/>
<path id="p183" fill="rgb(0,0,255)" d="M 431.75 416 L 431.75 448 432.25 448 432.25 416 Z "/>
<path id="p184" fill="rgb(0,0,255)" d="M 448 415.75 L 512 415.75 512 416.25 448 416.25 Z "/>
<path id="p185" fill="rgb(0,0,255)" d="M 479.75 384 L 479.75 448 480.25 448 480.25 384 Z "/>
<path id="p186" fill="rgb(0,0,255)" d="M 448 399.75 L 480 399.75 480 400.25 448 400.25 Z "/>
<path id="p187" fill="rgb(0,0,255)" d="M 463.75 384 L 463.75 416 464.25 416 464.25 384 Z "/>
<path id="p188" fill="rgb(0,0,255)" d="M 448 431.75 L 480 431.75 480 432.25 448 432.25 Z "/>
<path id="p189" fill="rgb(0,0,255)" d="M 463.75 416 L 463.75 448 464.25 448 464.25 416 Z "/>
<path id="p190" fill="rgb(0,0,255)" d="M 384 479.75 L 448 479.75 448 480.25 384 480.25 Z "/>
<path id="p191" fill="rgb(0,0,255)" d="M 415.75 448 L 415.75 512 416.25 512 416.25 448 Z "/>
<path id="p192" fill="rgb(0,0,255)" d="M 384 463.75 L 416 463.75 416 464.25 384 464.25 Z "/>
<path id="p193" fill="rgb(0,0,255)" d="M 399.75 448 L 399.75 480 400.25 480 400.25 448 Z "/>
<path id="p194" fill="rgb(0,0,255)" d="M 416 463.75 L 448 463.75 448 464.25 416 464.25 Z "/>
<path id="p195" fill="rgb(0,0,255)" d="M 431.75 448 L 431.75 480 432.25 480 432.25 448 Z "/>
</g>
</svg>
