<?xml version="1.0" standalone="no"?>
<svg
    xmlns:xlink="http://www.w3.org/1999/xlink"
    xmlns:dc="http://purl.org/dc/elements/1.1/"
    xmlns:cc="http://creativecommons.org/ns#"
    xmlns:rdf="http://www.w3.org/1999/02/22-rdf-syntax-ns#"
    xmlns:svg="http://www.w3.org/2000/svg"
    xmlns="http://www.w3.org/2000/svg"
    version="1.1"
    viewBox="0 0 512 512">
<defs>
<radialGradient id="radial1" gradientUnits="userSpaceOnUse" cx="100" cy="100" fx="150" fy="100" r="100" spreadMethod="pad" gradientTransform="matrix(0.707107, 0.707107, -0.353553, 0.353553, 64.6447, -6.06602)">
<stop offset="0" stop-color="rgb(255,0,0)" stop-opacity="1"/>
<stop offset="1" stop-color="rgb(0,255,0)" stop-opacity="1"/>
</radialGradient>
</defs>
<g transform="translate(0, 512) scale(1, -1)">
<path id="p1" fill="url(#radial1)" d="M 165.490688 346.5095168 A 256.00007921762 127.99985859013 45 0 1 53.614480365297 134.56830024123 256.00007921762 127.99985859013 45 0 1 134.56860744123 53.614173165297 256.00007921757 127.99985859013 -135 0 1 144.48764795119 53.97777275119 256.00007921762 127.99985859013 45 0 1 458.02243204881 367.51255684881 256.00007921759 127.99985859014 -135.00000000001 0 1 458.3860316347 377.43159735877 256.00007921762 127.99985859013 45 0 1 377.43190455877 458.3857244347 256.00007921762 127.99985859013 45 0 1 165.490688 346.5095168 Z "/>
<path id="p2" fill="rgb(0,0,255)" d="M 0 -0.25 L 512 -0.25 512 0.25 0 0.25 Z "/>
<path id="p3" fill="rgb(0,0,255)" d="M 0 511.75 L 512 511.75 512 512.25 0 512.25 Z "/>
<path id="p4" fill="rgb(0,0,255)" d="M -0.25 0 L -0.25 512 0.25 512 0.25 0 Z "/>
<path id="p5" fill="rgb(0,0,255)" d="M 511.75 0 L 511.75 512 512.25 512 512.25 0 Z "/>
<path id="p6" fill="rgb(0,0,255)" d="M 0 255.75 L 512 255.75 512 256.25 0 256.25 Z "/>
<path id="p7" fill="rgb(0,0,255)" d="M 255.75 0 L 255.75 512 256.25 512 256.25 0 Z "/>
<path id="p8" fill="rgb(0,0,255)" d="M 0 127.75 L 256 127.75 256 128.25 0 128.25 Z "/>
<path id="p9" fill="rgb(0,0,255)" d="M 127.75 0 L 127.75 256 128.25 256 128.25 0 Z "/>
<path id="p10" fill="rgb(0,0,255)" d="M 0 63.75 L 128 63.75 128 64.25 0 64.25 Z "/>
<path id="p11" fill="rgb(0,0,255)" d="M 63.75 0 L 63.75 128 64.25 128 64.25 0 Z "/>
<path id="p12" fill="rgb(0,0,255)" d="M 128 63.75 L 256 63.75 256 64.25 128 64.25 Z "/>
<path id="p13" fill="rgb(0,0,255)" d="M 191.75 0 L 191.75 128 192.25 128 192.25 0 Z "/>
<path id="p14" fill="rgb(0,0,255)" d="M 0 191.75 L 128 191.75 128 192.25 0 192.25 Z "/>
<path id="p15" fill="rgb(0,0,255)" d="M 63.75 128 L 63.75 256 64.25 256 64.25 128 Z "/>
<path id="p16" fill="rgb(0,0,255)" d="M 256 127.75 L 512 127.75 512 128.25 256 128.25 Z "/>
<path id="p17" fill="rgb(0,0,255)" d="M 383.75 0 L 383.75 256 384.25 256 384.25 0 Z "/>
<path id="p18" fill="rgb(0,0,255)" d="M 256 63.75 L 384 63.75 384 64.25 256 64.25 Z "/>
<path id="p19" fill="rgb(0,0,255)" d="M 319.75 0 L 319.75 128 320.25 128 320.25 0 Z "/>
<path id="p20" fill="rgb(0,0,255)" d="M 256 191.75 L 384 191.75 384 192.25 256 192.25 Z "/>
<path id="p21" fill="rgb(0,0,255)" d="M 319.75 128 L 319.75 256 320.25 256 320.25 128 Z "/>
<path id="p22" fill="rgb(0,0,255)" d="M 384 191.75 L 512 191.75 512 192.25 384 192.25 Z "/>
<path id="p23" fill="rgb(0,0,255)" d="M 447.75 128 L 447.75 256 448.25 256 448.25 128 Z "/>
<path id="p24" fill="rgb(0,0,255)" d="M 0 383.75 L 256 383.75 256 384.25 0 384.25 Z "/>
<path id="p25" fill="rgb(0,0,255)" d="M 127.75 256 L 127.75 512 128.25 512 128.25 256 Z "/>
<path id="p26" fill="rgb(0,0,255)" d="M 0 319.75 L 128 319.75 128 320.25 0 320.25 Z "/>
<path id="p27" fill="rgb(0,0,255)" d="M 63.75 256 L 63.75 384 64.25 384 64.25 256 Z "/>
<path id="p28" fill="rgb(0,0,255)" d="M 128 319.75 L 256 319.75 256 320.25 128 320.25 Z "/>
<path id="p29" fill="rgb(0,0,255)" d="M 191.75 256 L 191.75 384 192.25 384 192.25 256 Z "/>
<path id="p30" fill="rgb(0,0,255)" d="M 128 447.75 L 256 447.75 256 448.25 128 448.25 Z "/>
<path id="p31" fill="rgb(0,0,255)" d="M 191.75 384 L 191.75 512 192.25 512 192.25 384 Z "/>
<path id="p32" fill="rgb(0,0,255)" d="M 256 383.75 L 512 383.75 512 384.25 256 384.25 Z "/>
<path id="p33" fill="rgb(0,0,255)" d="M 383.75 256 L 383.75 512 384.25 512 384.25 256 Z "/>
<path id="p34" fill="rgb(0,0,255)" d="M 384 319.75 L 512 319.75 512 320.25 384 320.25 Z "/>
<path id="p35" fill="rgb(0,0,255)" d="M 447.75 256 L 447.75 384 448.25 384 448.25 256 Z "/>
<path id="p36" fill="rgb(0,0,255)" d="M 256 447.75 L 384 447.75 384 448.25 256 448.25 Z "/>
<path id="p37" fill="rgb(0,0,255)" d="M 319.75 384 L 319.75 512 320.25 512 320.25 384 Z "/>
<path id="p38" fill="rgb(0,0,255)" d="M 384 447.75 L 512 447.75 512 448.25 384 448.25 Z "/>
<path id="p39" fill="rgb(0,0,255)" d="M 447.75 384 L 447.75 512 448.25 512 448.25 384 Z "/>
</g>
</svg>
