<?xml version="1.0" standalone="no"?>
<svg
    xmlns:xlink="http://www.w3.org/1999/xlink"
    xmlns:dc="http://purl.org/dc/elements/1.1/"
    xmlns:cc="http://creativecommons.org/ns#"
    xmlns:rdf="http://www.w3.org/1999/02/22-rdf-syntax-ns#"
    xmlns:svg="http://www.w3.org/2000/svg"
    xmlns="http://www.w3.org/2000/svg"
    version="1.1"
    viewBox="0 0 512 512">
<defs>
<radialGradient id="radial1" gradientUnits="userSpaceOnUse" cx="100" cy="100" fx="150" fy="100" r="100" spreadMethod="pad" gradientTransform="matrix(0.707107, 0.707107, -0.353553, 0.353553, 64.6447, -6.06602)">
<stop offset="0" stop-color="rgb(255,0,0)" stop-opacity="1"/>
<stop offset="1" stop-color="rgb(0,255,0)" stop-opacity="1"/>
</radialGradient>
</defs>
<g transform="translate(0, 512) scale(1, -1)">
<path id="p1" fill="url(#radial1)" d="M 165.490688 346.5095168 A 256.00007921762 127.99985859013 45 0 1 53.614480365297 134.56830024123 256.00007921762 127.99985859013 45 0 1 134.56860744123 53.614173165297 256.00007921757 127.99985859013 -135 0 1 144.48764795119 53.97777275119 256.00007921762 127.99985859013 45 0 1 458.02243204881 367.51255684881 256.00007921759 127.99985859014 -135.00000000001 0 1 458.3860316347 377.43159735877 256.00007921762 127.99985859013 45 0 1 377.43190455877 458.3857244347 256.00007921762 127.99985859013 45 0 1 165.490688 346.5095168 Z "/>
<path id="p2" fill="rgb(0,0,255)" d="M 0 -0.25 L 512 -0.25 512 0.25 0 0.25 Z "/>
<path id="p3" fill="rgb(0,0,255)" d="M 0 511.75 L 512 511.75 512 512.25 0 512.25 Z "/>
<path id="p4" fill="rgb(0,0,255)" d="M -0.25 0 L -0.25 512 0.25 512 0.25 0 Z "/>
<path id="p5" fill="rgb(0,0,255)" d="M 511.75 0 L 511.75 512 512.25 512 512.25 0 Z "/>
<path id="p6" fill="rgb(0,0,255)" d="M 0 255.75 L 512 255.75 512 256.25 0 256.25 Z "/>
<path id="p7" fill="rgb(0,0,255)" d="M 255.75 0 L 255.75 512 256.25 512 256.25 0 Z "/>
<path id="p8" fill="rgb(0,0,255)" d="M 0 127.75 L 256 127.75 256 128.25 0 128.25 Z "/>
<path id="p9" fill="rgb(0,0,255)" d="M 127.75 0 L 127.75 256 128.25 256 128.25 0 Z "/>
<path id="p10" fill="rgb(0,0,255)" d="M 0 63.75 L 128 63.75 128 64.25 0 64.25 Z "/>
<path id="p11" fill="rgb(0,0,255)" d="M 63.75 0 L 63.75 128 64.25 128 64.25 0 Z "/>
<path id="p12" fill="rgb(0,0,255)" d="M 64 31.75 L 128 31.75 128 32.25 64 32.25 Z "/>
<path id="p13" fill="rgb(0,0,255)" d="M 95.75 0 L 95.75 64 96.25 64 96.25 0 Z "/>
<path id="p14" fill="rgb(0,0,255)" d="M 64 47.75 L 96 47.75 96 48.25 64 48.25 Z "/>
<path id="p15" fill="rgb(0,0,255)" d="M 79.75 32 L 79.75 64 80.25 64 80.25 32 Z "/>
<path id="p16" fill="rgb(0,0,255)" d="M 80 55.75 L 96 55.75 96 56.25 80 56.25 Z "/>
<path id="p17" fill="rgb(0,0,255)" d="M 87.75 48 L 87.75 64 88.25 64 88.25 48 Z "/>
<path id="p18" fill="rgb(0,0,255)" d="M 88 59.75 L 96 59.75 96 60.25 88 60.25 Z "/>
<path id="p19" fill="rgb(0,0,255)" d="M 91.75 56 L 91.75 64 92.25 64 92.25 56 Z "/>
<path id="p20" fill="rgb(0,0,255)" d="M 96 47.75 L 128 47.75 128 48.25 96 48.25 Z "/>
<path id="p21" fill="rgb(0,0,255)" d="M 111.75 32 L 111.75 64 112.25 64 112.25 32 Z "/>
<path id="p22" fill="rgb(0,0,255)" d="M 96 55.75 L 112 55.75 112 56.25 96 56.25 Z "/>
<path id="p23" fill="rgb(0,0,255)" d="M 103.75 48 L 103.75 64 104.25 64 104.25 48 Z "/>
<path id="p24" fill="rgb(0,0,255)" d="M 104 51.75 L 112 51.75 112 52.25 104 52.25 Z "/>
<path id="p25" fill="rgb(0,0,255)" d="M 107.75 48 L 107.75 56 108.25 56 108.25 48 Z "/>
<path id="p26" fill="rgb(0,0,255)" d="M 96 59.75 L 104 59.75 104 60.25 96 60.25 Z "/>
<path id="p27" fill="rgb(0,0,255)" d="M 99.75 56 L 99.75 64 100.25 64 100.25 56 Z "/>
<path id="p28" fill="rgb(0,0,255)" d="M 104 59.75 L 112 59.75 112 60.25 104 60.25 Z "/>
<path id="p29" fill="rgb(0,0,255)" d="M 107.75 56 L 107.75 64 108.25 64 108.25 56 Z "/>
<path id="p30" fill="rgb(0,0,255)" d="M 112 55.75 L 128 55.75 128 56.25 112 56.25 Z "/>
<path id="p31" fill="rgb(0,0,255)" d="M 119.75 48 L 119.75 64 120.25 64 120.25 48 Z "/>
<path id="p32" fill="rgb(0,0,255)" d="M 112 51.75 L 120 51.75 120 52.25 112 52.25 Z "/>
<path id="p33" fill="rgb(0,0,255)" d="M 115.75 48 L 115.75 56 116.25 56 116.25 48 Z "/>
<path id="p34" fill="rgb(0,0,255)" d="M 120 51.75 L 128 51.75 128 52.25 120 52.25 Z "/>
<path id="p35" fill="rgb(0,0,255)" d="M 123.75 48 L 123.75 56 124.25 56 124.25 48 Z "/>
<path id="p36" fill="rgb(0,0,255)" d="M 0 95.75 L 64 95.75 64 96.25 0 96.25 Z "/>
<path id="p37" fill="rgb(0,0,255)" d="M 31.75 64 L 31.75 128 32.25 128 32.25 64 Z "/>
<path id="p38" fill="rgb(0,0,255)" d="M 32 79.75 L 64 79.75 64 80.25 32 80.25 Z "/>
<path id="p39" fill="rgb(0,0,255)" d="M 47.75 64 L 47.75 96 48.25 96 48.25 64 Z "/>
<path id="p40" fill="rgb(0,0,255)" d="M 48 87.75 L 64 87.75 64 88.25 48 88.25 Z "/>
<path id="p41" fill="rgb(0,0,255)" d="M 55.75 80 L 55.75 96 56.25 96 56.25 80 Z "/>
<path id="p42" fill="rgb(0,0,255)" d="M 56 91.75 L 64 91.75 64 92.25 56 92.25 Z "/>
<path id="p43" fill="rgb(0,0,255)" d="M 59.75 88 L 59.75 96 60.25 96 60.25 88 Z "/>
<path id="p44" fill="rgb(0,0,255)" d="M 32 111.75 L 64 111.75 64 112.25 32 112.25 Z "/>
<path id="p45" fill="rgb(0,0,255)" d="M 47.75 96 L 47.75 128 48.25 128 48.25 96 Z "/>
<path id="p46" fill="rgb(0,0,255)" d="M 48 103.75 L 64 103.75 64 104.25 48 104.25 Z "/>
<path id="p47" fill="rgb(0,0,255)" d="M 55.75 96 L 55.75 112 56.25 112 56.25 96 Z "/>
<path id="p48" fill="rgb(0,0,255)" d="M 56 99.75 L 64 99.75 64 100.25 56 100.25 Z "/>
<path id="p49" fill="rgb(0,0,255)" d="M 59.75 96 L 59.75 104 60.25 104 60.25 96 Z "/>
<path id="p50" fill="rgb(0,0,255)" d="M 48 107.75 L 56 107.75 56 108.25 48 108.25 Z "/>
<path id="p51" fill="rgb(0,0,255)" d="M 51.75 104 L 51.75 112 52.25 112 52.25 104 Z "/>
<path id="p52" fill="rgb(0,0,255)" d="M 56 107.75 L 64 107.75 64 108.25 56 108.25 Z "/>
<path id="p53" fill="rgb(0,0,255)" d="M 59.75 104 L 59.75 112 60.25 112 60.25 104 Z "/>
<path id="p54" fill="rgb(0,0,255)" d="M 48 119.75 L 64 119.75 64 120.25 48 120.25 Z "/>
<path id="p55" fill="rgb(0,0,255)" d="M 55.75 112 L 55.75 128 56.25 128 56.25 112 Z "/>
<path id="p56" fill="rgb(0,0,255)" d="M 48 115.75 L 56 115.75 56 116.25 48 116.25 Z "/>
<path id="p57" fill="rgb(0,0,255)" d="M 51.75 112 L 51.75 120 52.25 120 52.25 112 Z "/>
<path id="p58" fill="rgb(0,0,255)" d="M 48 123.75 L 56 123.75 56 124.25 48 124.25 Z "/>
<path id="p59" fill="rgb(0,0,255)" d="M 51.75 120 L 51.75 128 52.25 128 52.25 120 Z "/>
<path id="p60" fill="rgb(0,0,255)" d="M 64 95.75 L 128 95.75 128 96.25 64 96.25 Z "/>
<path id="p61" fill="rgb(0,0,255)" d="M 95.75 64 L 95.75 128 96.25 128 96.25 64 Z "/>
<path id="p62" fill="rgb(0,0,255)" d="M 64 79.75 L 96 79.75 96 80.25 64 80.25 Z "/>
<path id="p63" fill="rgb(0,0,255)" d="M 79.75 64 L 79.75 96 80.25 96 80.25 64 Z "/>
<path id="p64" fill="rgb(0,0,255)" d="M 64 71.75 L 80 71.75 80 72.25 64 72.25 Z "/>
<path id="p65" fill="rgb(0,0,255)" d="M 71.75 64 L 71.75 80 72.25 80 72.25 64 Z "/>
<path id="p66" fill="rgb(0,0,255)" d="M 72 67.75 L 80 67.75 80 68.25 72 68.25 Z "/>
<path id="p67" fill="rgb(0,0,255)" d="M 75.75 64 L 75.75 72 76.25 72 76.25 64 Z "/>
<path id="p68" fill="rgb(0,0,255)" d="M 64 75.75 L 72 75.75 72 76.25 64 76.25 Z "/>
<path id="p69" fill="rgb(0,0,255)" d="M 67.75 72 L 67.75 80 68.25 80 68.25 72 Z "/>
<path id="p70" fill="rgb(0,0,255)" d="M 72 75.75 L 80 75.75 80 76.25 72 76.25 Z "/>
<path id="p71" fill="rgb(0,0,255)" d="M 75.75 72 L 75.75 80 76.25 80 76.25 72 Z "/>
<path id="p72" fill="rgb(0,0,255)" d="M 80 71.75 L 96 71.75 96 72.25 80 72.25 Z "/>
<path id="p73" fill="rgb(0,0,255)" d="M 87.75 64 L 87.75 80 88.25 80 88.25 64 Z "/>
<path id="p74" fill="rgb(0,0,255)" d="M 80 67.75 L 88 67.75 88 68.25 80 68.25 Z "/>
<path id="p75" fill="rgb(0,0,255)" d="M 83.75 64 L 83.75 72 84.25 72 84.25 64 Z "/>
<path id="p76" fill="rgb(0,0,255)" d="M 88 67.75 L 96 67.75 96 68.25 88 68.25 Z "/>
<path id="p77" fill="rgb(0,0,255)" d="M 91.75 64 L 91.75 72 92.25 72 92.25 64 Z "/>
<path id="p78" fill="rgb(0,0,255)" d="M 64 87.75 L 80 87.75 80 88.25 64 88.25 Z "/>
<path id="p79" fill="rgb(0,0,255)" d="M 71.75 80 L 71.75 96 72.25 96 72.25 80 Z "/>
<path id="p80" fill="rgb(0,0,255)" d="M 64 83.75 L 72 83.75 72 84.25 64 84.25 Z "/>
<path id="p81" fill="rgb(0,0,255)" d="M 67.75 80 L 67.75 88 68.25 88 68.25 80 Z "/>
<path id="p82" fill="rgb(0,0,255)" d="M 64 91.75 L 72 91.75 72 92.25 64 92.25 Z "/>
<path id="p83" fill="rgb(0,0,255)" d="M 67.75 88 L 67.75 96 68.25 96 68.25 88 Z "/>
<path id="p84" fill="rgb(0,0,255)" d="M 128 63.75 L 256 63.75 256 64.25 128 64.25 Z "/>
<path id="p85" fill="rgb(0,0,255)" d="M 191.75 0 L 191.75 128 192.25 128 192.25 0 Z "/>
<path id="p86" fill="rgb(0,0,255)" d="M 128 31.75 L 192 31.75 192 32.25 128 32.25 Z "/>
<path id="p87" fill="rgb(0,0,255)" d="M 159.75 0 L 159.75 64 160.25 64 160.25 0 Z "/>
<path id="p88" fill="rgb(0,0,255)" d="M 128 47.75 L 160 47.75 160 48.25 128 48.25 Z "/>
<path id="p89" fill="rgb(0,0,255)" d="M 143.75 32 L 143.75 64 144.25 64 144.25 32 Z "/>
<path id="p90" fill="rgb(0,0,255)" d="M 128 55.75 L 144 55.75 144 56.25 128 56.25 Z "/>
<path id="p91" fill="rgb(0,0,255)" d="M 135.75 48 L 135.75 64 136.25 64 136.25 48 Z "/>
<path id="p92" fill="rgb(0,0,255)" d="M 128 51.75 L 136 51.75 136 52.25 128 52.25 Z "/>
<path id="p93" fill="rgb(0,0,255)" d="M 131.75 48 L 131.75 56 132.25 56 132.25 48 Z "/>
<path id="p94" fill="rgb(0,0,255)" d="M 136 51.75 L 144 51.75 144 52.25 136 52.25 Z "/>
<path id="p95" fill="rgb(0,0,255)" d="M 139.75 48 L 139.75 56 140.25 56 140.25 48 Z "/>
<path id="p96" fill="rgb(0,0,255)" d="M 144 55.75 L 160 55.75 160 56.25 144 56.25 Z "/>
<path id="p97" fill="rgb(0,0,255)" d="M 151.75 48 L 151.75 64 152.25 64 152.25 48 Z "/>
<path id="p98" fill="rgb(0,0,255)" d="M 144 51.75 L 152 51.75 152 52.25 144 52.25 Z "/>
<path id="p99" fill="rgb(0,0,255)" d="M 147.75 48 L 147.75 56 148.25 56 148.25 48 Z "/>
<path id="p100" fill="rgb(0,0,255)" d="M 152 51.75 L 160 51.75 160 52.25 152 52.25 Z "/>
<path id="p101" fill="rgb(0,0,255)" d="M 155.75 48 L 155.75 56 156.25 56 156.25 48 Z "/>
<path id="p102" fill="rgb(0,0,255)" d="M 160 47.75 L 192 47.75 192 48.25 160 48.25 Z "/>
<path id="p103" fill="rgb(0,0,255)" d="M 175.75 32 L 175.75 64 176.25 64 176.25 32 Z "/>
<path id="p104" fill="rgb(0,0,255)" d="M 160 55.75 L 176 55.75 176 56.25 160 56.25 Z "/>
<path id="p105" fill="rgb(0,0,255)" d="M 167.75 48 L 167.75 64 168.25 64 168.25 48 Z "/>
<path id="p106" fill="rgb(0,0,255)" d="M 160 51.75 L 168 51.75 168 52.25 160 52.25 Z "/>
<path id="p107" fill="rgb(0,0,255)" d="M 163.75 48 L 163.75 56 164.25 56 164.25 48 Z "/>
<path id="p108" fill="rgb(0,0,255)" d="M 160 59.75 L 168 59.75 168 60.25 160 60.25 Z "/>
<path id="p109" fill="rgb(0,0,255)" d="M 163.75 56 L 163.75 64 164.25 64 164.25 56 Z "/>
<path id="p110" fill="rgb(0,0,255)" d="M 168 59.75 L 176 59.75 176 60.25 168 60.25 Z "/>
<path id="p111" fill="rgb(0,0,255)" d="M 171.75 56 L 171.75 64 172.25 64 172.25 56 Z "/>
<path id="p112" fill="rgb(0,0,255)" d="M 176 55.75 L 192 55.75 192 56.25 176 56.25 Z "/>
<path id="p113" fill="rgb(0,0,255)" d="M 183.75 48 L 183.75 64 184.25 64 184.25 48 Z "/>
<path id="p114" fill="rgb(0,0,255)" d="M 176 59.75 L 184 59.75 184 60.25 176 60.25 Z "/>
<path id="p115" fill="rgb(0,0,255)" d="M 179.75 56 L 179.75 64 180.25 64 180.25 56 Z "/>
<path id="p116" fill="rgb(0,0,255)" d="M 184 59.75 L 192 59.75 192 60.25 184 60.25 Z "/>
<path id="p117" fill="rgb(0,0,255)" d="M 187.75 56 L 187.75 64 188.25 64 188.25 56 Z "/>
<path id="p118" fill="rgb(0,0,255)" d="M 192 31.75 L 256 31.75 256 32.25 192 32.25 Z "/>
<path id="p119" fill="rgb(0,0,255)" d="M 223.75 0 L 223.75 64 224.25 64 224.25 0 Z "/>
<path id="p120" fill="rgb(0,0,255)" d="M 192 47.75 L 224 47.75 224 48.25 192 48.25 Z "/>
<path id="p121" fill="rgb(0,0,255)" d="M 207.75 32 L 207.75 64 208.25 64 208.25 32 Z "/>
<path id="p122" fill="rgb(0,0,255)" d="M 192 95.75 L 256 95.75 256 96.25 192 96.25 Z "/>
<path id="p123" fill="rgb(0,0,255)" d="M 223.75 64 L 223.75 128 224.25 128 224.25 64 Z "/>
<path id="p124" fill="rgb(0,0,255)" d="M 192 79.75 L 224 79.75 224 80.25 192 80.25 Z "/>
<path id="p125" fill="rgb(0,0,255)" d="M 207.75 64 L 207.75 96 208.25 96 208.25 64 Z "/>
<path id="p126" fill="rgb(0,0,255)" d="M 192 71.75 L 208 71.75 208 72.25 192 72.25 Z "/>
<path id="p127" fill="rgb(0,0,255)" d="M 199.75 64 L 199.75 80 200.25 80 200.25 64 Z "/>
<path id="p128" fill="rgb(0,0,255)" d="M 192 67.75 L 200 67.75 200 68.25 192 68.25 Z "/>
<path id="p129" fill="rgb(0,0,255)" d="M 195.75 64 L 195.75 72 196.25 72 196.25 64 Z "/>
<path id="p130" fill="rgb(0,0,255)" d="M 200 67.75 L 208 67.75 208 68.25 200 68.25 Z "/>
<path id="p131" fill="rgb(0,0,255)" d="M 203.75 64 L 203.75 72 204.25 72 204.25 64 Z "/>
<path id="p132" fill="rgb(0,0,255)" d="M 208 71.75 L 224 71.75 224 72.25 208 72.25 Z "/>
<path id="p133" fill="rgb(0,0,255)" d="M 215.75 64 L 215.75 80 216.25 80 216.25 64 Z "/>
<path id="p134" fill="rgb(0,0,255)" d="M 208 67.75 L 216 67.75 216 68.25 208 68.25 Z "/>
<path id="p135" fill="rgb(0,0,255)" d="M 211.75 64 L 211.75 72 212.25 72 212.25 64 Z "/>
<path id="p136" fill="rgb(0,0,255)" d="M 208 75.75 L 216 75.75 216 76.25 208 76.25 Z "/>
<path id="p137" fill="rgb(0,0,255)" d="M 211.75 72 L 211.75 80 212.25 80 212.25 72 Z "/>
<path id="p138" fill="rgb(0,0,255)" d="M 216 75.75 L 224 75.75 224 76.25 216 76.25 Z "/>
<path id="p139" fill="rgb(0,0,255)" d="M 219.75 72 L 219.75 80 220.25 80 220.25 72 Z "/>
<path id="p140" fill="rgb(0,0,255)" d="M 224 79.75 L 256 79.75 256 80.25 224 80.25 Z "/>
<path id="p141" fill="rgb(0,0,255)" d="M 239.75 64 L 239.75 96 240.25 96 240.25 64 Z "/>
<path id="p142" fill="rgb(0,0,255)" d="M 224 71.75 L 240 71.75 240 72.25 224 72.25 Z "/>
<path id="p143" fill="rgb(0,0,255)" d="M 231.75 64 L 231.75 80 232.25 80 232.25 64 Z "/>
<path id="p144" fill="rgb(0,0,255)" d="M 224 75.75 L 232 75.75 232 76.25 224 76.25 Z "/>
<path id="p145" fill="rgb(0,0,255)" d="M 227.75 72 L 227.75 80 228.25 80 228.25 72 Z "/>
<path id="p146" fill="rgb(0,0,255)" d="M 224 87.75 L 240 87.75 240 88.25 224 88.25 Z "/>
<path id="p147" fill="rgb(0,0,255)" d="M 231.75 80 L 231.75 96 232.25 96 232.25 80 Z "/>
<path id="p148" fill="rgb(0,0,255)" d="M 224 83.75 L 232 83.75 232 84.25 224 84.25 Z "/>
<path id="p149" fill="rgb(0,0,255)" d="M 227.75 80 L 227.75 88 228.25 88 228.25 80 Z "/>
<path id="p150" fill="rgb(0,0,255)" d="M 232 83.75 L 240 83.75 240 84.25 232 84.25 Z "/>
<path id="p151" fill="rgb(0,0,255)" d="M 235.75 80 L 235.75 88 236.25 88 236.25 80 Z "/>
<path id="p152" fill="rgb(0,0,255)" d="M 240 87.75 L 256 87.75 256 88.25 240 88.25 Z "/>
<path id="p153" fill="rgb(0,0,255)" d="M 247.75 80 L 247.75 96 248.25 96 248.25 80 Z "/>
<path id="p154" fill="rgb(0,0,255)" d="M 240 83.75 L 248 83.75 248 84.25 240 84.25 Z "/>
<path id="p155" fill="rgb(0,0,255)" d="M 243.75 80 L 243.75 88 244.25 88 244.25 80 Z "/>
<path id="p156" fill="rgb(0,0,255)" d="M 240 91.75 L 248 91.75 248 92.25 240 92.25 Z "/>
<path id="p157" fill="rgb(0,0,255)" d="M 243.75 88 L 243.75 96 244.25 96 244.25 88 Z "/>
<path id="p158" fill="rgb(0,0,255)" d="M 248 91.75 L 256 91.75 256 92.25 248 92.25 Z "/>
<path id="p159" fill="rgb(0,0,255)" d="M 251.75 88 L 251.75 96 252.25 96 252.25 88 Z "/>
<path id="p160" fill="rgb(0,0,255)" d="M 0 191.75 L 128 191.75 128 192.25 0 192.25 Z "/>
<path id="p161" fill="rgb(0,0,255)" d="M 63.75 128 L 63.75 256 64.25 256 64.25 128 Z "/>
<path id="p162" fill="rgb(0,0,255)" d="M 0 159.75 L 64 159.75 64 160.25 0 160.25 Z "/>
<path id="p163" fill="rgb(0,0,255)" d="M 31.75 128 L 31.75 192 32.25 192 32.25 128 Z "/>
<path id="p164" fill="rgb(0,0,255)" d="M 32 143.75 L 64 143.75 64 144.25 32 144.25 Z "/>
<path id="p165" fill="rgb(0,0,255)" d="M 47.75 128 L 47.75 160 48.25 160 48.25 128 Z "/>
<path id="p166" fill="rgb(0,0,255)" d="M 48 135.75 L 64 135.75 64 136.25 48 136.25 Z "/>
<path id="p167" fill="rgb(0,0,255)" d="M 55.75 128 L 55.75 144 56.25 144 56.25 128 Z "/>
<path id="p168" fill="rgb(0,0,255)" d="M 48 131.75 L 56 131.75 56 132.25 48 132.25 Z "/>
<path id="p169" fill="rgb(0,0,255)" d="M 51.75 128 L 51.75 136 52.25 136 52.25 128 Z "/>
<path id="p170" fill="rgb(0,0,255)" d="M 48 139.75 L 56 139.75 56 140.25 48 140.25 Z "/>
<path id="p171" fill="rgb(0,0,255)" d="M 51.75 136 L 51.75 144 52.25 144 52.25 136 Z "/>
<path id="p172" fill="rgb(0,0,255)" d="M 48 151.75 L 64 151.75 64 152.25 48 152.25 Z "/>
<path id="p173" fill="rgb(0,0,255)" d="M 55.75 144 L 55.75 160 56.25 160 56.25 144 Z "/>
<path id="p174" fill="rgb(0,0,255)" d="M 48 147.75 L 56 147.75 56 148.25 48 148.25 Z "/>
<path id="p175" fill="rgb(0,0,255)" d="M 51.75 144 L 51.75 152 52.25 152 52.25 144 Z "/>
<path id="p176" fill="rgb(0,0,255)" d="M 48 155.75 L 56 155.75 56 156.25 48 156.25 Z "/>
<path id="p177" fill="rgb(0,0,255)" d="M 51.75 152 L 51.75 160 52.25 160 52.25 152 Z "/>
<path id="p178" fill="rgb(0,0,255)" d="M 32 175.75 L 64 175.75 64 176.25 32 176.25 Z "/>
<path id="p179" fill="rgb(0,0,255)" d="M 47.75 160 L 47.75 192 48.25 192 48.25 160 Z "/>
<path id="p180" fill="rgb(0,0,255)" d="M 48 167.75 L 64 167.75 64 168.25 48 168.25 Z "/>
<path id="p181" fill="rgb(0,0,255)" d="M 55.75 160 L 55.75 176 56.25 176 56.25 160 Z "/>
<path id="p182" fill="rgb(0,0,255)" d="M 48 163.75 L 56 163.75 56 164.25 48 164.25 Z "/>
<path id="p183" fill="rgb(0,0,255)" d="M 51.75 160 L 51.75 168 52.25 168 52.25 160 Z "/>
<path id="p184" fill="rgb(0,0,255)" d="M 56 163.75 L 64 163.75 64 164.25 56 164.25 Z "/>
<path id="p185" fill="rgb(0,0,255)" d="M 59.75 160 L 59.75 168 60.25 168 60.25 160 Z "/>
<path id="p186" fill="rgb(0,0,255)" d="M 56 171.75 L 64 171.75 64 172.25 56 172.25 Z "/>
<path id="p187" fill="rgb(0,0,255)" d="M 59.75 168 L 59.75 176 60.25 176 60.25 168 Z "/>
<path id="p188" fill="rgb(0,0,255)" d="M 48 183.75 L 64 183.75 64 184.25 48 184.25 Z "/>
<path id="p189" fill="rgb(0,0,255)" d="M 55.75 176 L 55.75 192 56.25 192 56.25 176 Z "/>
<path id="p190" fill="rgb(0,0,255)" d="M 56 179.75 L 64 179.75 64 180.25 56 180.25 Z "/>
<path id="p191" fill="rgb(0,0,255)" d="M 59.75 176 L 59.75 184 60.25 184 60.25 176 Z "/>
<path id="p192" fill="rgb(0,0,255)" d="M 56 187.75 L 64 187.75 64 188.25 56 188.25 Z "/>
<path id="p193" fill="rgb(0,0,255)" d="M 59.75 184 L 59.75 192 60.25 192 60.25 184 Z "/>
<path id="p194" fill="rgb(0,0,255)" d="M 64 223.75 L 128 223.75 128 224.25 64 224.25 Z "/>
<path id="p195" fill="rgb(0,0,255)" d="M 95.75 192 L 95.75 256 96.25 256 96.25 192 Z "/>
<path id="p196" fill="rgb(0,0,255)" d="M 64 207.75 L 96 207.75 96 208.25 64 208.25 Z "/>
<path id="p197" fill="rgb(0,0,255)" d="M 79.75 192 L 79.75 224 80.25 224 80.25 192 Z "/>
<path id="p198" fill="rgb(0,0,255)" d="M 64 199.75 L 80 199.75 80 200.25 64 200.25 Z "/>
<path id="p199" fill="rgb(0,0,255)" d="M 71.75 192 L 71.75 208 72.25 208 72.25 192 Z "/>
<path id="p200" fill="rgb(0,0,255)" d="M 64 195.75 L 72 195.75 72 196.25 64 196.25 Z "/>
<path id="p201" fill="rgb(0,0,255)" d="M 67.75 192 L 67.75 200 68.25 200 68.25 192 Z "/>
<path id="p202" fill="rgb(0,0,255)" d="M 64 203.75 L 72 203.75 72 204.25 64 204.25 Z "/>
<path id="p203" fill="rgb(0,0,255)" d="M 67.75 200 L 67.75 208 68.25 208 68.25 200 Z "/>
<path id="p204" fill="rgb(0,0,255)" d="M 64 215.75 L 80 215.75 80 216.25 64 216.25 Z "/>
<path id="p205" fill="rgb(0,0,255)" d="M 71.75 208 L 71.75 224 72.25 224 72.25 208 Z "/>
<path id="p206" fill="rgb(0,0,255)" d="M 64 211.75 L 72 211.75 72 212.25 64 212.25 Z "/>
<path id="p207" fill="rgb(0,0,255)" d="M 67.75 208 L 67.75 216 68.25 216 68.25 208 Z "/>
<path id="p208" fill="rgb(0,0,255)" d="M 72 211.75 L 80 211.75 80 212.25 72 212.25 Z "/>
<path id="p209" fill="rgb(0,0,255)" d="M 75.75 208 L 75.75 216 76.25 216 76.25 208 Z "/>
<path id="p210" fill="rgb(0,0,255)" d="M 72 219.75 L 80 219.75 80 220.25 72 220.25 Z "/>
<path id="p211" fill="rgb(0,0,255)" d="M 75.75 216 L 75.75 224 76.25 224 76.25 216 Z "/>
<path id="p212" fill="rgb(0,0,255)" d="M 64 239.75 L 96 239.75 96 240.25 64 240.25 Z "/>
<path id="p213" fill="rgb(0,0,255)" d="M 79.75 224 L 79.75 256 80.25 256 80.25 224 Z "/>
<path id="p214" fill="rgb(0,0,255)" d="M 64 231.75 L 80 231.75 80 232.25 64 232.25 Z "/>
<path id="p215" fill="rgb(0,0,255)" d="M 71.75 224 L 71.75 240 72.25 240 72.25 224 Z "/>
<path id="p216" fill="rgb(0,0,255)" d="M 72 227.75 L 80 227.75 80 228.25 72 228.25 Z "/>
<path id="p217" fill="rgb(0,0,255)" d="M 75.75 224 L 75.75 232 76.25 232 76.25 224 Z "/>
<path id="p218" fill="rgb(0,0,255)" d="M 80 231.75 L 96 231.75 96 232.25 80 232.25 Z "/>
<path id="p219" fill="rgb(0,0,255)" d="M 87.75 224 L 87.75 240 88.25 240 88.25 224 Z "/>
<path id="p220" fill="rgb(0,0,255)" d="M 80 227.75 L 88 227.75 88 228.25 80 228.25 Z "/>
<path id="p221" fill="rgb(0,0,255)" d="M 83.75 224 L 83.75 232 84.25 232 84.25 224 Z "/>
<path id="p222" fill="rgb(0,0,255)" d="M 80 235.75 L 88 235.75 88 236.25 80 236.25 Z "/>
<path id="p223" fill="rgb(0,0,255)" d="M 83.75 232 L 83.75 240 84.25 240 84.25 232 Z "/>
<path id="p224" fill="rgb(0,0,255)" d="M 80 247.75 L 96 247.75 96 248.25 80 248.25 Z "/>
<path id="p225" fill="rgb(0,0,255)" d="M 87.75 240 L 87.75 256 88.25 256 88.25 240 Z "/>
<path id="p226" fill="rgb(0,0,255)" d="M 80 243.75 L 88 243.75 88 244.25 80 244.25 Z "/>
<path id="p227" fill="rgb(0,0,255)" d="M 83.75 240 L 83.75 248 84.25 248 84.25 240 Z "/>
<path id="p228" fill="rgb(0,0,255)" d="M 88 243.75 L 96 243.75 96 244.25 88 244.25 Z "/>
<path id="p229" fill="rgb(0,0,255)" d="M 91.75 240 L 91.75 248 92.25 248 92.25 240 Z "/>
<path id="p230" fill="rgb(0,0,255)" d="M 88 251.75 L 96 251.75 96 252.25 88 252.25 Z "/>
<path id="p231" fill="rgb(0,0,255)" d="M 91.75 248 L 91.75 256 92.25 256 92.25 248 Z "/>
<path id="p232" fill="rgb(0,0,255)" d="M 256 127.75 L 512 127.75 512 128.25 256 128.25 Z "/>
<path id="p233" fill="rgb(0,0,255)" d="M 383.75 0 L 383.75 256 384.25 256 384.25 0 Z "/>
<path id="p234" fill="rgb(0,0,255)" d="M 256 63.75 L 384 63.75 384 64.25 256 64.25 Z "/>
<path id="p235" fill="rgb(0,0,255)" d="M 319.75 0 L 319.75 128 320.25 128 320.25 0 Z "/>
<path id="p236" fill="rgb(0,0,255)" d="M 256 95.75 L 320 95.75 320 96.25 256 96.25 Z "/>
<path id="p237" fill="rgb(0,0,255)" d="M 287.75 64 L 287.75 128 288.25 128 288.25 64 Z "/>
<path id="p238" fill="rgb(0,0,255)" d="M 256 79.75 L 288 79.75 288 80.25 256 80.25 Z "/>
<path id="p239" fill="rgb(0,0,255)" d="M 271.75 64 L 271.75 96 272.25 96 272.25 64 Z "/>
<path id="p240" fill="rgb(0,0,255)" d="M 256 87.75 L 272 87.75 272 88.25 256 88.25 Z "/>
<path id="p241" fill="rgb(0,0,255)" d="M 263.75 80 L 263.75 96 264.25 96 264.25 80 Z "/>
<path id="p242" fill="rgb(0,0,255)" d="M 256 91.75 L 264 91.75 264 92.25 256 92.25 Z "/>
<path id="p243" fill="rgb(0,0,255)" d="M 259.75 88 L 259.75 96 260.25 96 260.25 88 Z "/>
<path id="p244" fill="rgb(0,0,255)" d="M 256 111.75 L 288 111.75 288 112.25 256 112.25 Z "/>
<path id="p245" fill="rgb(0,0,255)" d="M 271.75 96 L 271.75 128 272.25 128 272.25 96 Z "/>
<path id="p246" fill="rgb(0,0,255)" d="M 256 103.75 L 272 103.75 272 104.25 256 104.25 Z "/>
<path id="p247" fill="rgb(0,0,255)" d="M 263.75 96 L 263.75 112 264.25 112 264.25 96 Z "/>
<path id="p248" fill="rgb(0,0,255)" d="M 256 99.75 L 264 99.75 264 100.25 256 100.25 Z "/>
<path id="p249" fill="rgb(0,0,255)" d="M 259.75 96 L 259.75 104 260.25 104 260.25 96 Z "/>
<path id="p250" fill="rgb(0,0,255)" d="M 264 99.75 L 272 99.75 272 100.25 264 100.25 Z "/>
<path id="p251" fill="rgb(0,0,255)" d="M 267.75 96 L 267.75 104 268.25 104 268.25 96 Z "/>
<path id="p252" fill="rgb(0,0,255)" d="M 264 107.75 L 272 107.75 272 108.25 264 108.25 Z "/>
<path id="p253" fill="rgb(0,0,255)" d="M 267.75 104 L 267.75 112 268.25 112 268.25 104 Z "/>
<path id="p254" fill="rgb(0,0,255)" d="M 272 103.75 L 288 103.75 288 104.25 272 104.25 Z "/>
<path id="p255" fill="rgb(0,0,255)" d="M 279.75 96 L 279.75 112 280.25 112 280.25 96 Z "/>
<path id="p256" fill="rgb(0,0,255)" d="M 272 107.75 L 280 107.75 280 108.25 272 108.25 Z "/>
<path id="p257" fill="rgb(0,0,255)" d="M 275.75 104 L 275.75 112 276.25 112 276.25 104 Z "/>
<path id="p258" fill="rgb(0,0,255)" d="M 280 107.75 L 288 107.75 288 108.25 280 108.25 Z "/>
<path id="p259" fill="rgb(0,0,255)" d="M 283.75 104 L 283.75 112 284.25 112 284.25 104 Z "/>
<path id="p260" fill="rgb(0,0,255)" d="M 272 119.75 L 288 119.75 288 120.25 272 120.25 Z "/>
<path id="p261" fill="rgb(0,0,255)" d="M 279.75 112 L 279.75 128 280.25 128 280.25 112 Z "/>
<path id="p262" fill="rgb(0,0,255)" d="M 280 115.75 L 288 115.75 288 116.25 280 116.25 Z "/>
<path id="p263" fill="rgb(0,0,255)" d="M 283.75 112 L 283.75 120 284.25 120 284.25 112 Z "/>
<path id="p264" fill="rgb(0,0,255)" d="M 288 111.75 L 320 111.75 320 112.25 288 112.25 Z "/>
<path id="p265" fill="rgb(0,0,255)" d="M 303.75 96 L 303.75 128 304.25 128 304.25 96 Z "/>
<path id="p266" fill="rgb(0,0,255)" d="M 288 119.75 L 304 119.75 304 120.25 288 120.25 Z "/>
<path id="p267" fill="rgb(0,0,255)" d="M 295.75 112 L 295.75 128 296.25 128 296.25 112 Z "/>
<path id="p268" fill="rgb(0,0,255)" d="M 288 115.75 L 296 115.75 296 116.25 288 116.25 Z "/>
<path id="p269" fill="rgb(0,0,255)" d="M 291.75 112 L 291.75 120 292.25 120 292.25 112 Z "/>
<path id="p270" fill="rgb(0,0,255)" d="M 288 123.75 L 296 123.75 296 124.25 288 124.25 Z "/>
<path id="p271" fill="rgb(0,0,255)" d="M 291.75 120 L 291.75 128 292.25 128 292.25 120 Z "/>
<path id="p272" fill="rgb(0,0,255)" d="M 296 123.75 L 304 123.75 304 124.25 296 124.25 Z "/>
<path id="p273" fill="rgb(0,0,255)" d="M 299.75 120 L 299.75 128 300.25 128 300.25 120 Z "/>
<path id="p274" fill="rgb(0,0,255)" d="M 304 119.75 L 320 119.75 320 120.25 304 120.25 Z "/>
<path id="p275" fill="rgb(0,0,255)" d="M 311.75 112 L 311.75 128 312.25 128 312.25 112 Z "/>
<path id="p276" fill="rgb(0,0,255)" d="M 304 123.75 L 312 123.75 312 124.25 304 124.25 Z "/>
<path id="p277" fill="rgb(0,0,255)" d="M 307.75 120 L 307.75 128 308.25 128 308.25 120 Z "/>
<path id="p278" fill="rgb(0,0,255)" d="M 256 191.75 L 384 191.75 384 192.25 256 192.25 Z "/>
<path id="p279" fill="rgb(0,0,255)" d="M 319.75 128 L 319.75 256 320.25 256 320.25 128 Z "/>
<path id="p280" fill="rgb(0,0,255)" d="M 256 159.75 L 320 159.75 320 160.25 256 160.25 Z "/>
<path id="p281" fill="rgb(0,0,255)" d="M 287.75 128 L 287.75 192 288.25 192 288.25 128 Z "/>
<path id="p282" fill="rgb(0,0,255)" d="M 288 143.75 L 320 143.75 320 144.25 288 144.25 Z "/>
<path id="p283" fill="rgb(0,0,255)" d="M 303.75 128 L 303.75 160 304.25 160 304.25 128 Z "/>
<path id="p284" fill="rgb(0,0,255)" d="M 304 135.75 L 320 135.75 320 136.25 304 136.25 Z "/>
<path id="p285" fill="rgb(0,0,255)" d="M 311.75 128 L 311.75 144 312.25 144 312.25 128 Z "/>
<path id="p286" fill="rgb(0,0,255)" d="M 304 131.75 L 312 131.75 312 132.25 304 132.25 Z "/>
<path id="p287" fill="rgb(0,0,255)" d="M 307.75 128 L 307.75 136 308.25 136 308.25 128 Z "/>
<path id="p288" fill="rgb(0,0,255)" d="M 312 131.75 L 320 131.75 320 132.25 312 132.25 Z "/>
<path id="p289" fill="rgb(0,0,255)" d="M 315.75 128 L 315.75 136 316.25 136 316.25 128 Z "/>
<path id="p290" fill="rgb(0,0,255)" d="M 312 139.75 L 320 139.75 320 140.25 312 140.25 Z "/>
<path id="p291" fill="rgb(0,0,255)" d="M 315.75 136 L 315.75 144 316.25 144 316.25 136 Z "/>
<path id="p292" fill="rgb(0,0,255)" d="M 320 159.75 L 384 159.75 384 160.25 320 160.25 Z "/>
<path id="p293" fill="rgb(0,0,255)" d="M 351.75 128 L 351.75 192 352.25 192 352.25 128 Z "/>
<path id="p294" fill="rgb(0,0,255)" d="M 320 143.75 L 352 143.75 352 144.25 320 144.25 Z "/>
<path id="p295" fill="rgb(0,0,255)" d="M 335.75 128 L 335.75 160 336.25 160 336.25 128 Z "/>
<path id="p296" fill="rgb(0,0,255)" d="M 320 135.75 L 336 135.75 336 136.25 320 136.25 Z "/>
<path id="p297" fill="rgb(0,0,255)" d="M 327.75 128 L 327.75 144 328.25 144 328.25 128 Z "/>
<path id="p298" fill="rgb(0,0,255)" d="M 320 139.75 L 328 139.75 328 140.25 320 140.25 Z "/>
<path id="p299" fill="rgb(0,0,255)" d="M 323.75 136 L 323.75 144 324.25 144 324.25 136 Z "/>
<path id="p300" fill="rgb(0,0,255)" d="M 320 151.75 L 336 151.75 336 152.25 320 152.25 Z "/>
<path id="p301" fill="rgb(0,0,255)" d="M 327.75 144 L 327.75 160 328.25 160 328.25 144 Z "/>
<path id="p302" fill="rgb(0,0,255)" d="M 320 147.75 L 328 147.75 328 148.25 320 148.25 Z "/>
<path id="p303" fill="rgb(0,0,255)" d="M 323.75 144 L 323.75 152 324.25 152 324.25 144 Z "/>
<path id="p304" fill="rgb(0,0,255)" d="M 328 147.75 L 336 147.75 336 148.25 328 148.25 Z "/>
<path id="p305" fill="rgb(0,0,255)" d="M 331.75 144 L 331.75 152 332.25 152 332.25 144 Z "/>
<path id="p306" fill="rgb(0,0,255)" d="M 328 155.75 L 336 155.75 336 156.25 328 156.25 Z "/>
<path id="p307" fill="rgb(0,0,255)" d="M 331.75 152 L 331.75 160 332.25 160 332.25 152 Z "/>
<path id="p308" fill="rgb(0,0,255)" d="M 336 151.75 L 352 151.75 352 152.25 336 152.25 Z "/>
<path id="p309" fill="rgb(0,0,255)" d="M 343.75 144 L 343.75 160 344.25 160 344.25 144 Z "/>
<path id="p310" fill="rgb(0,0,255)" d="M 336 155.75 L 344 155.75 344 156.25 336 156.25 Z "/>
<path id="p311" fill="rgb(0,0,255)" d="M 339.75 152 L 339.75 160 340.25 160 340.25 152 Z "/>
<path id="p312" fill="rgb(0,0,255)" d="M 320 175.75 L 352 175.75 352 176.25 320 176.25 Z "/>
<path id="p313" fill="rgb(0,0,255)" d="M 335.75 160 L 335.75 192 336.25 192 336.25 160 Z "/>
<path id="p314" fill="rgb(0,0,255)" d="M 336 167.75 L 352 167.75 352 168.25 336 168.25 Z "/>
<path id="p315" fill="rgb(0,0,255)" d="M 343.75 160 L 343.75 176 344.25 176 344.25 160 Z "/>
<path id="p316" fill="rgb(0,0,255)" d="M 336 163.75 L 344 163.75 344 164.25 336 164.25 Z "/>
<path id="p317" fill="rgb(0,0,255)" d="M 339.75 160 L 339.75 168 340.25 168 340.25 160 Z "/>
<path id="p318" fill="rgb(0,0,255)" d="M 344 163.75 L 352 163.75 352 164.25 344 164.25 Z "/>
<path id="p319" fill="rgb(0,0,255)" d="M 347.75 160 L 347.75 168 348.25 168 348.25 160 Z "/>
<path id="p320" fill="rgb(0,0,255)" d="M 344 171.75 L 352 171.75 352 172.25 344 172.25 Z "/>
<path id="p321" fill="rgb(0,0,255)" d="M 347.75 168 L 347.75 176 348.25 176 348.25 168 Z "/>
<path id="p322" fill="rgb(0,0,255)" d="M 352 175.75 L 384 175.75 384 176.25 352 176.25 Z "/>
<path id="p323" fill="rgb(0,0,255)" d="M 367.75 160 L 367.75 192 368.25 192 368.25 160 Z "/>
<path id="p324" fill="rgb(0,0,255)" d="M 352 167.75 L 368 167.75 368 168.25 352 168.25 Z "/>
<path id="p325" fill="rgb(0,0,255)" d="M 359.75 160 L 359.75 176 360.25 176 360.25 160 Z "/>
<path id="p326" fill="rgb(0,0,255)" d="M 352 171.75 L 360 171.75 360 172.25 352 172.25 Z "/>
<path id="p327" fill="rgb(0,0,255)" d="M 355.75 168 L 355.75 176 356.25 176 356.25 168 Z "/>
<path id="p328" fill="rgb(0,0,255)" d="M 352 183.75 L 368 183.75 368 184.25 352 184.25 Z "/>
<path id="p329" fill="rgb(0,0,255)" d="M 359.75 176 L 359.75 192 360.25 192 360.25 176 Z "/>
<path id="p330" fill="rgb(0,0,255)" d="M 352 179.75 L 360 179.75 360 180.25 352 180.25 Z "/>
<path id="p331" fill="rgb(0,0,255)" d="M 355.75 176 L 355.75 184 356.25 184 356.25 176 Z "/>
<path id="p332" fill="rgb(0,0,255)" d="M 360 179.75 L 368 179.75 368 180.25 360 180.25 Z "/>
<path id="p333" fill="rgb(0,0,255)" d="M 363.75 176 L 363.75 184 364.25 184 364.25 176 Z "/>
<path id="p334" fill="rgb(0,0,255)" d="M 360 187.75 L 368 187.75 368 188.25 360 188.25 Z "/>
<path id="p335" fill="rgb(0,0,255)" d="M 363.75 184 L 363.75 192 364.25 192 364.25 184 Z "/>
<path id="p336" fill="rgb(0,0,255)" d="M 368 183.75 L 384 183.75 384 184.25 368 184.25 Z "/>
<path id="p337" fill="rgb(0,0,255)" d="M 375.75 176 L 375.75 192 376.25 192 376.25 176 Z "/>
<path id="p338" fill="rgb(0,0,255)" d="M 368 187.75 L 376 187.75 376 188.25 368 188.25 Z "/>
<path id="p339" fill="rgb(0,0,255)" d="M 371.75 184 L 371.75 192 372.25 192 372.25 184 Z "/>
<path id="p340" fill="rgb(0,0,255)" d="M 320 223.75 L 384 223.75 384 224.25 320 224.25 Z "/>
<path id="p341" fill="rgb(0,0,255)" d="M 351.75 192 L 351.75 256 352.25 256 352.25 192 Z "/>
<path id="p342" fill="rgb(0,0,255)" d="M 352 207.75 L 384 207.75 384 208.25 352 208.25 Z "/>
<path id="p343" fill="rgb(0,0,255)" d="M 367.75 192 L 367.75 224 368.25 224 368.25 192 Z "/>
<path id="p344" fill="rgb(0,0,255)" d="M 368 199.75 L 384 199.75 384 200.25 368 200.25 Z "/>
<path id="p345" fill="rgb(0,0,255)" d="M 375.75 192 L 375.75 208 376.25 208 376.25 192 Z "/>
<path id="p346" fill="rgb(0,0,255)" d="M 368 195.75 L 376 195.75 376 196.25 368 196.25 Z "/>
<path id="p347" fill="rgb(0,0,255)" d="M 371.75 192 L 371.75 200 372.25 200 372.25 192 Z "/>
<path id="p348" fill="rgb(0,0,255)" d="M 376 195.75 L 384 195.75 384 196.25 376 196.25 Z "/>
<path id="p349" fill="rgb(0,0,255)" d="M 379.75 192 L 379.75 200 380.25 200 380.25 192 Z "/>
<path id="p350" fill="rgb(0,0,255)" d="M 376 203.75 L 384 203.75 384 204.25 376 204.25 Z "/>
<path id="p351" fill="rgb(0,0,255)" d="M 379.75 200 L 379.75 208 380.25 208 380.25 200 Z "/>
<path id="p352" fill="rgb(0,0,255)" d="M 384 191.75 L 512 191.75 512 192.25 384 192.25 Z "/>
<path id="p353" fill="rgb(0,0,255)" d="M 447.75 128 L 447.75 256 448.25 256 448.25 128 Z "/>
<path id="p354" fill="rgb(0,0,255)" d="M 384 223.75 L 448 223.75 448 224.25 384 224.25 Z "/>
<path id="p355" fill="rgb(0,0,255)" d="M 415.75 192 L 415.75 256 416.25 256 416.25 192 Z "/>
<path id="p356" fill="rgb(0,0,255)" d="M 384 207.75 L 416 207.75 416 208.25 384 208.25 Z "/>
<path id="p357" fill="rgb(0,0,255)" d="M 399.75 192 L 399.75 224 400.25 224 400.25 192 Z "/>
<path id="p358" fill="rgb(0,0,255)" d="M 384 199.75 L 400 199.75 400 200.25 384 200.25 Z "/>
<path id="p359" fill="rgb(0,0,255)" d="M 391.75 192 L 391.75 208 392.25 208 392.25 192 Z "/>
<path id="p360" fill="rgb(0,0,255)" d="M 384 203.75 L 392 203.75 392 204.25 384 204.25 Z "/>
<path id="p361" fill="rgb(0,0,255)" d="M 387.75 200 L 387.75 208 388.25 208 388.25 200 Z "/>
<path id="p362" fill="rgb(0,0,255)" d="M 384 215.75 L 400 215.75 400 216.25 384 216.25 Z "/>
<path id="p363" fill="rgb(0,0,255)" d="M 391.75 208 L 391.75 224 392.25 224 392.25 208 Z "/>
<path id="p364" fill="rgb(0,0,255)" d="M 384 211.75 L 392 211.75 392 212.25 384 212.25 Z "/>
<path id="p365" fill="rgb(0,0,255)" d="M 387.75 208 L 387.75 216 388.25 216 388.25 208 Z "/>
<path id="p366" fill="rgb(0,0,255)" d="M 384 219.75 L 392 219.75 392 220.25 384 220.25 Z "/>
<path id="p367" fill="rgb(0,0,255)" d="M 387.75 216 L 387.75 224 388.25 224 388.25 216 Z "/>
<path id="p368" fill="rgb(0,0,255)" d="M 392 219.75 L 400 219.75 400 220.25 392 220.25 Z "/>
<path id="p369" fill="rgb(0,0,255)" d="M 395.75 216 L 395.75 224 396.25 224 396.25 216 Z "/>
<path id="p370" fill="rgb(0,0,255)" d="M 384 239.75 L 416 239.75 416 240.25 384 240.25 Z "/>
<path id="p371" fill="rgb(0,0,255)" d="M 399.75 224 L 399.75 256 400.25 256 400.25 224 Z "/>
<path id="p372" fill="rgb(0,0,255)" d="M 384 231.75 L 400 231.75 400 232.25 384 232.25 Z "/>
<path id="p373" fill="rgb(0,0,255)" d="M 391.75 224 L 391.75 240 392.25 240 392.25 224 Z "/>
<path id="p374" fill="rgb(0,0,255)" d="M 392 227.75 L 400 227.75 400 228.25 392 228.25 Z "/>
<path id="p375" fill="rgb(0,0,255)" d="M 395.75 224 L 395.75 232 396.25 232 396.25 224 Z "/>
<path id="p376" fill="rgb(0,0,255)" d="M 400 231.75 L 416 231.75 416 232.25 400 232.25 Z "/>
<path id="p377" fill="rgb(0,0,255)" d="M 407.75 224 L 407.75 240 408.25 240 408.25 224 Z "/>
<path id="p378" fill="rgb(0,0,255)" d="M 400 227.75 L 408 227.75 408 228.25 400 228.25 Z "/>
<path id="p379" fill="rgb(0,0,255)" d="M 403.75 224 L 403.75 232 404.25 232 404.25 224 Z "/>
<path id="p380" fill="rgb(0,0,255)" d="M 400 235.75 L 408 235.75 408 236.25 400 236.25 Z "/>
<path id="p381" fill="rgb(0,0,255)" d="M 403.75 232 L 403.75 240 404.25 240 404.25 232 Z "/>
<path id="p382" fill="rgb(0,0,255)" d="M 400 247.75 L 416 247.75 416 248.25 400 248.25 Z "/>
<path id="p383" fill="rgb(0,0,255)" d="M 407.75 240 L 407.75 256 408.25 256 408.25 240 Z "/>
<path id="p384" fill="rgb(0,0,255)" d="M 400 243.75 L 408 243.75 408 244.25 400 244.25 Z "/>
<path id="p385" fill="rgb(0,0,255)" d="M 403.75 240 L 403.75 248 404.25 248 404.25 240 Z "/>
<path id="p386" fill="rgb(0,0,255)" d="M 408 243.75 L 416 243.75 416 244.25 408 244.25 Z "/>
<path id="p387" fill="rgb(0,0,255)" d="M 411.75 240 L 411.75 248 412.25 248 412.25 240 Z "/>
<path id="p388" fill="rgb(0,0,255)" d="M 408 251.75 L 416 251.75 416 252.25 408 252.25 Z "/>
<path id="p389" fill="rgb(0,0,255)" d="M 411.75 248 L 411.75 256 412.25 256 412.25 248 Z "/>
<path id="p390" fill="rgb(0,0,255)" d="M 416 239.75 L 448 239.75 448 240.25 416 240.25 Z "/>
<path id="p391" fill="rgb(0,0,255)" d="M 431.75 224 L 431.75 256 432.25 256 432.25 224 Z "/>
<path id="p392" fill="rgb(0,0,255)" d="M 416 247.75 L 432 247.75 432 248.25 416 248.25 Z "/>
<path id="p393" fill="rgb(0,0,255)" d="M 423.75 240 L 423.75 256 424.25 256 424.25 240 Z "/>
<path id="p394" fill="rgb(0,0,255)" d="M 416 251.75 L 424 251.75 424 252.25 416 252.25 Z "/>
<path id="p395" fill="rgb(0,0,255)" d="M 419.75 248 L 419.75 256 420.25 256 420.25 248 Z "/>
<path id="p396" fill="rgb(0,0,255)" d="M 0 383.75 L 256 383.75 256 384.25 0 384.25 Z "/>
<path id="p397" fill="rgb(0,0,255)" d="M 127.75 256 L 127.75 512 128.25 512 128.25 256 Z "/>
<path id="p398" fill="rgb(0,0,255)" d="M 0 319.75 L 128 319.75 128 320.25 0 320.25 Z "/>
<path id="p399" fill="rgb(0,0,255)" d="M 63.75 256 L 63.75 384 64.25 384 64.25 256 Z "/>
<path id="p400" fill="rgb(0,0,255)" d="M 64 287.75 L 128 287.75 128 288.25 64 288.25 Z "/>
<path id="p401" fill="rgb(0,0,255)" d="M 95.75 256 L 95.75 320 96.25 320 96.25 256 Z "/>
<path id="p402" fill="rgb(0,0,255)" d="M 64 271.75 L 96 271.75 96 272.25 64 272.25 Z "/>
<path id="p403" fill="rgb(0,0,255)" d="M 79.75 256 L 79.75 288 80.25 288 80.25 256 Z "/>
<path id="p404" fill="rgb(0,0,255)" d="M 80 263.75 L 96 263.75 96 264.25 80 264.25 Z "/>
<path id="p405" fill="rgb(0,0,255)" d="M 87.75 256 L 87.75 272 88.25 272 88.25 256 Z "/>
<path id="p406" fill="rgb(0,0,255)" d="M 88 259.75 L 96 259.75 96 260.25 88 260.25 Z "/>
<path id="p407" fill="rgb(0,0,255)" d="M 91.75 256 L 91.75 264 92.25 264 92.25 256 Z "/>
<path id="p408" fill="rgb(0,0,255)" d="M 96 271.75 L 128 271.75 128 272.25 96 272.25 Z "/>
<path id="p409" fill="rgb(0,0,255)" d="M 111.75 256 L 111.75 288 112.25 288 112.25 256 Z "/>
<path id="p410" fill="rgb(0,0,255)" d="M 96 263.75 L 112 263.75 112 264.25 96 264.25 Z "/>
<path id="p411" fill="rgb(0,0,255)" d="M 103.75 256 L 103.75 272 104.25 272 104.25 256 Z "/>
<path id="p412" fill="rgb(0,0,255)" d="M 96 259.75 L 104 259.75 104 260.25 96 260.25 Z "/>
<path id="p413" fill="rgb(0,0,255)" d="M 99.75 256 L 99.75 264 100.25 264 100.25 256 Z "/>
<path id="p414" fill="rgb(0,0,255)" d="M 96 267.75 L 104 267.75 104 268.25 96 268.25 Z "/>
<path id="p415" fill="rgb(0,0,255)" d="M 99.75 264 L 99.75 272 100.25 272 100.25 264 Z "/>
<path id="p416" fill="rgb(0,0,255)" d="M 104 267.75 L 112 267.75 112 268.25 104 268.25 Z "/>
<path id="p417" fill="rgb(0,0,255)" d="M 107.75 264 L 107.75 272 108.25 272 108.25 264 Z "/>
<path id="p418" fill="rgb(0,0,255)" d="M 96 279.75 L 112 279.75 112 280.25 96 280.25 Z "/>
<path id="p419" fill="rgb(0,0,255)" d="M 103.75 272 L 103.75 288 104.25 288 104.25 272 Z "/>
<path id="p420" fill="rgb(0,0,255)" d="M 104 275.75 L 112 275.75 112 276.25 104 276.25 Z "/>
<path id="p421" fill="rgb(0,0,255)" d="M 107.75 272 L 107.75 280 108.25 280 108.25 272 Z "/>
<path id="p422" fill="rgb(0,0,255)" d="M 104 283.75 L 112 283.75 112 284.25 104 284.25 Z "/>
<path id="p423" fill="rgb(0,0,255)" d="M 107.75 280 L 107.75 288 108.25 288 108.25 280 Z "/>
<path id="p424" fill="rgb(0,0,255)" d="M 112 279.75 L 128 279.75 128 280.25 112 280.25 Z "/>
<path id="p425" fill="rgb(0,0,255)" d="M 119.75 272 L 119.75 288 120.25 288 120.25 272 Z "/>
<path id="p426" fill="rgb(0,0,255)" d="M 112 283.75 L 120 283.75 120 284.25 112 284.25 Z "/>
<path id="p427" fill="rgb(0,0,255)" d="M 115.75 280 L 115.75 288 116.25 288 116.25 280 Z "/>
<path id="p428" fill="rgb(0,0,255)" d="M 96 303.75 L 128 303.75 128 304.25 96 304.25 Z "/>
<path id="p429" fill="rgb(0,0,255)" d="M 111.75 288 L 111.75 320 112.25 320 112.25 288 Z "/>
<path id="p430" fill="rgb(0,0,255)" d="M 112 295.75 L 128 295.75 128 296.25 112 296.25 Z "/>
<path id="p431" fill="rgb(0,0,255)" d="M 119.75 288 L 119.75 304 120.25 304 120.25 288 Z "/>
<path id="p432" fill="rgb(0,0,255)" d="M 112 291.75 L 120 291.75 120 292.25 112 292.25 Z "/>
<path id="p433" fill="rgb(0,0,255)" d="M 115.75 288 L 115.75 296 116.25 296 116.25 288 Z "/>
<path id="p434" fill="rgb(0,0,255)" d="M 120 291.75 L 128 291.75 128 292.25 120 292.25 Z "/>
<path id="p435" fill="rgb(0,0,255)" d="M 123.75 288 L 123.75 296 124.25 296 124.25 288 Z "/>
<path id="p436" fill="rgb(0,0,255)" d="M 120 299.75 L 128 299.75 128 300.25 120 300.25 Z "/>
<path id="p437" fill="rgb(0,0,255)" d="M 123.75 296 L 123.75 304 124.25 304 124.25 296 Z "/>
<path id="p438" fill="rgb(0,0,255)" d="M 112 311.75 L 128 311.75 128 312.25 112 312.25 Z "/>
<path id="p439" fill="rgb(0,0,255)" d="M 119.75 304 L 119.75 320 120.25 320 120.25 304 Z "/>
<path id="p440" fill="rgb(0,0,255)" d="M 120 307.75 L 128 307.75 128 308.25 120 308.25 Z "/>
<path id="p441" fill="rgb(0,0,255)" d="M 123.75 304 L 123.75 312 124.25 312 124.25 304 Z "/>
<path id="p442" fill="rgb(0,0,255)" d="M 128 319.75 L 256 319.75 256 320.25 128 320.25 Z "/>
<path id="p443" fill="rgb(0,0,255)" d="M 191.75 256 L 191.75 384 192.25 384 192.25 256 Z "/>
<path id="p444" fill="rgb(0,0,255)" d="M 128 287.75 L 192 287.75 192 288.25 128 288.25 Z "/>
<path id="p445" fill="rgb(0,0,255)" d="M 159.75 256 L 159.75 320 160.25 320 160.25 256 Z "/>
<path id="p446" fill="rgb(0,0,255)" d="M 128 303.75 L 160 303.75 160 304.25 128 304.25 Z "/>
<path id="p447" fill="rgb(0,0,255)" d="M 143.75 288 L 143.75 320 144.25 320 144.25 288 Z "/>
<path id="p448" fill="rgb(0,0,255)" d="M 128 311.75 L 144 311.75 144 312.25 128 312.25 Z "/>
<path id="p449" fill="rgb(0,0,255)" d="M 135.75 304 L 135.75 320 136.25 320 136.25 304 Z "/>
<path id="p450" fill="rgb(0,0,255)" d="M 128 307.75 L 136 307.75 136 308.25 128 308.25 Z "/>
<path id="p451" fill="rgb(0,0,255)" d="M 131.75 304 L 131.75 312 132.25 312 132.25 304 Z "/>
<path id="p452" fill="rgb(0,0,255)" d="M 128 315.75 L 136 315.75 136 316.25 128 316.25 Z "/>
<path id="p453" fill="rgb(0,0,255)" d="M 131.75 312 L 131.75 320 132.25 320 132.25 312 Z "/>
<path id="p454" fill="rgb(0,0,255)" d="M 136 315.75 L 144 315.75 144 316.25 136 316.25 Z "/>
<path id="p455" fill="rgb(0,0,255)" d="M 139.75 312 L 139.75 320 140.25 320 140.25 312 Z "/>
<path id="p456" fill="rgb(0,0,255)" d="M 128 351.75 L 192 351.75 192 352.25 128 352.25 Z "/>
<path id="p457" fill="rgb(0,0,255)" d="M 159.75 320 L 159.75 384 160.25 384 160.25 320 Z "/>
<path id="p458" fill="rgb(0,0,255)" d="M 128 335.75 L 160 335.75 160 336.25 128 336.25 Z "/>
<path id="p459" fill="rgb(0,0,255)" d="M 143.75 320 L 143.75 352 144.25 352 144.25 320 Z "/>
<path id="p460" fill="rgb(0,0,255)" d="M 128 327.75 L 144 327.75 144 328.25 128 328.25 Z "/>
<path id="p461" fill="rgb(0,0,255)" d="M 135.75 320 L 135.75 336 136.25 336 136.25 320 Z "/>
<path id="p462" fill="rgb(0,0,255)" d="M 136 323.75 L 144 323.75 144 324.25 136 324.25 Z "/>
<path id="p463" fill="rgb(0,0,255)" d="M 139.75 320 L 139.75 328 140.25 328 140.25 320 Z "/>
<path id="p464" fill="rgb(0,0,255)" d="M 144 327.75 L 160 327.75 160 328.25 144 328.25 Z "/>
<path id="p465" fill="rgb(0,0,255)" d="M 151.75 320 L 151.75 336 152.25 336 152.25 320 Z "/>
<path id="p466" fill="rgb(0,0,255)" d="M 144 323.75 L 152 323.75 152 324.25 144 324.25 Z "/>
<path id="p467" fill="rgb(0,0,255)" d="M 147.75 320 L 147.75 328 148.25 328 148.25 320 Z "/>
<path id="p468" fill="rgb(0,0,255)" d="M 144 331.75 L 152 331.75 152 332.25 144 332.25 Z "/>
<path id="p469" fill="rgb(0,0,255)" d="M 147.75 328 L 147.75 336 148.25 336 148.25 328 Z "/>
<path id="p470" fill="rgb(0,0,255)" d="M 152 331.75 L 160 331.75 160 332.25 152 332.25 Z "/>
<path id="p471" fill="rgb(0,0,255)" d="M 155.75 328 L 155.75 336 156.25 336 156.25 328 Z "/>
<path id="p472" fill="rgb(0,0,255)" d="M 144 343.75 L 160 343.75 160 344.25 144 344.25 Z "/>
<path id="p473" fill="rgb(0,0,255)" d="M 151.75 336 L 151.75 352 152.25 352 152.25 336 Z "/>
<path id="p474" fill="rgb(0,0,255)" d="M 152 339.75 L 160 339.75 160 340.25 152 340.25 Z "/>
<path id="p475" fill="rgb(0,0,255)" d="M 155.75 336 L 155.75 344 156.25 344 156.25 336 Z "/>
<path id="p476" fill="rgb(0,0,255)" d="M 160 335.75 L 192 335.75 192 336.25 160 336.25 Z "/>
<path id="p477" fill="rgb(0,0,255)" d="M 175.75 320 L 175.75 352 176.25 352 176.25 320 Z "/>
<path id="p478" fill="rgb(0,0,255)" d="M 160 343.75 L 176 343.75 176 344.25 160 344.25 Z "/>
<path id="p479" fill="rgb(0,0,255)" d="M 167.75 336 L 167.75 352 168.25 352 168.25 336 Z "/>
<path id="p480" fill="rgb(0,0,255)" d="M 160 339.75 L 168 339.75 168 340.25 160 340.25 Z "/>
<path id="p481" fill="rgb(0,0,255)" d="M 163.75 336 L 163.75 344 164.25 344 164.25 336 Z "/>
<path id="p482" fill="rgb(0,0,255)" d="M 160 347.75 L 168 347.75 168 348.25 160 348.25 Z "/>
<path id="p483" fill="rgb(0,0,255)" d="M 163.75 344 L 163.75 352 164.25 352 164.25 344 Z "/>
<path id="p484" fill="rgb(0,0,255)" d="M 168 347.75 L 176 347.75 176 348.25 168 348.25 Z "/>
<path id="p485" fill="rgb(0,0,255)" d="M 171.75 344 L 171.75 352 172.25 352 172.25 344 Z "/>
<path id="p486" fill="rgb(0,0,255)" d="M 160 367.75 L 192 367.75 192 368.25 160 368.25 Z "/>
<path id="p487" fill="rgb(0,0,255)" d="M 175.75 352 L 175.75 384 176.25 384 176.25 352 Z "/>
<path id="p488" fill="rgb(0,0,255)" d="M 160 359.75 L 176 359.75 176 360.25 160 360.25 Z "/>
<path id="p489" fill="rgb(0,0,255)" d="M 167.75 352 L 167.75 368 168.25 368 168.25 352 Z "/>
<path id="p490" fill="rgb(0,0,255)" d="M 168 355.75 L 176 355.75 176 356.25 168 356.25 Z "/>
<path id="p491" fill="rgb(0,0,255)" d="M 171.75 352 L 171.75 360 172.25 360 172.25 352 Z "/>
<path id="p492" fill="rgb(0,0,255)" d="M 176 359.75 L 192 359.75 192 360.25 176 360.25 Z "/>
<path id="p493" fill="rgb(0,0,255)" d="M 183.75 352 L 183.75 368 184.25 368 184.25 352 Z "/>
<path id="p494" fill="rgb(0,0,255)" d="M 176 355.75 L 184 355.75 184 356.25 176 356.25 Z "/>
<path id="p495" fill="rgb(0,0,255)" d="M 179.75 352 L 179.75 360 180.25 360 180.25 352 Z "/>
<path id="p496" fill="rgb(0,0,255)" d="M 176 363.75 L 184 363.75 184 364.25 176 364.25 Z "/>
<path id="p497" fill="rgb(0,0,255)" d="M 179.75 360 L 179.75 368 180.25 368 180.25 360 Z "/>
<path id="p498" fill="rgb(0,0,255)" d="M 184 363.75 L 192 363.75 192 364.25 184 364.25 Z "/>
<path id="p499" fill="rgb(0,0,255)" d="M 187.75 360 L 187.75 368 188.25 368 188.25 360 Z "/>
<path id="p500" fill="rgb(0,0,255)" d="M 176 375.75 L 192 375.75 192 376.25 176 376.25 Z "/>
<path id="p501" fill="rgb(0,0,255)" d="M 183.75 368 L 183.75 384 184.25 384 184.25 368 Z "/>
<path id="p502" fill="rgb(0,0,255)" d="M 184 371.75 L 192 371.75 192 372.25 184 372.25 Z "/>
<path id="p503" fill="rgb(0,0,255)" d="M 187.75 368 L 187.75 376 188.25 376 188.25 368 Z "/>
<path id="p504" fill="rgb(0,0,255)" d="M 192 351.75 L 256 351.75 256 352.25 192 352.25 Z "/>
<path id="p505" fill="rgb(0,0,255)" d="M 223.75 320 L 223.75 384 224.25 384 224.25 320 Z "/>
<path id="p506" fill="rgb(0,0,255)" d="M 192 367.75 L 224 367.75 224 368.25 192 368.25 Z "/>
<path id="p507" fill="rgb(0,0,255)" d="M 207.75 352 L 207.75 384 208.25 384 208.25 352 Z "/>
<path id="p508" fill="rgb(0,0,255)" d="M 192 375.75 L 208 375.75 208 376.25 192 376.25 Z "/>
<path id="p509" fill="rgb(0,0,255)" d="M 199.75 368 L 199.75 384 200.25 384 200.25 368 Z "/>
<path id="p510" fill="rgb(0,0,255)" d="M 192 371.75 L 200 371.75 200 372.25 192 372.25 Z "/>
<path id="p511" fill="rgb(0,0,255)" d="M 195.75 368 L 195.75 376 196.25 376 196.25 368 Z "/>
<path id="p512" fill="rgb(0,0,255)" d="M 192 379.75 L 200 379.75 200 380.25 192 380.25 Z "/>
<path id="p513" fill="rgb(0,0,255)" d="M 195.75 376 L 195.75 384 196.25 384 196.25 376 Z "/>
<path id="p514" fill="rgb(0,0,255)" d="M 200 379.75 L 208 379.75 208 380.25 200 380.25 Z "/>
<path id="p515" fill="rgb(0,0,255)" d="M 203.75 376 L 203.75 384 204.25 384 204.25 376 Z "/>
<path id="p516" fill="rgb(0,0,255)" d="M 128 447.75 L 256 447.75 256 448.25 128 448.25 Z "/>
<path id="p517" fill="rgb(0,0,255)" d="M 191.75 384 L 191.75 512 192.25 512 192.25 384 Z "/>
<path id="p518" fill="rgb(0,0,255)" d="M 192 415.75 L 256 415.75 256 416.25 192 416.25 Z "/>
<path id="p519" fill="rgb(0,0,255)" d="M 223.75 384 L 223.75 448 224.25 448 224.25 384 Z "/>
<path id="p520" fill="rgb(0,0,255)" d="M 192 399.75 L 224 399.75 224 400.25 192 400.25 Z "/>
<path id="p521" fill="rgb(0,0,255)" d="M 207.75 384 L 207.75 416 208.25 416 208.25 384 Z "/>
<path id="p522" fill="rgb(0,0,255)" d="M 192 391.75 L 208 391.75 208 392.25 192 392.25 Z "/>
<path id="p523" fill="rgb(0,0,255)" d="M 199.75 384 L 199.75 400 200.25 400 200.25 384 Z "/>
<path id="p524" fill="rgb(0,0,255)" d="M 200 387.75 L 208 387.75 208 388.25 200 388.25 Z "/>
<path id="p525" fill="rgb(0,0,255)" d="M 203.75 384 L 203.75 392 204.25 392 204.25 384 Z "/>
<path id="p526" fill="rgb(0,0,255)" d="M 208 391.75 L 224 391.75 224 392.25 208 392.25 Z "/>
<path id="p527" fill="rgb(0,0,255)" d="M 215.75 384 L 215.75 400 216.25 400 216.25 384 Z "/>
<path id="p528" fill="rgb(0,0,255)" d="M 208 387.75 L 216 387.75 216 388.25 208 388.25 Z "/>
<path id="p529" fill="rgb(0,0,255)" d="M 211.75 384 L 211.75 392 212.25 392 212.25 384 Z "/>
<path id="p530" fill="rgb(0,0,255)" d="M 216 387.75 L 224 387.75 224 388.25 216 388.25 Z "/>
<path id="p531" fill="rgb(0,0,255)" d="M 219.75 384 L 219.75 392 220.25 392 220.25 384 Z "/>
<path id="p532" fill="rgb(0,0,255)" d="M 216 395.75 L 224 395.75 224 396.25 216 396.25 Z "/>
<path id="p533" fill="rgb(0,0,255)" d="M 219.75 392 L 219.75 400 220.25 400 220.25 392 Z "/>
<path id="p534" fill="rgb(0,0,255)" d="M 224 399.75 L 256 399.75 256 400.25 224 400.25 Z "/>
<path id="p535" fill="rgb(0,0,255)" d="M 239.75 384 L 239.75 416 240.25 416 240.25 384 Z "/>
<path id="p536" fill="rgb(0,0,255)" d="M 224 391.75 L 240 391.75 240 392.25 224 392.25 Z "/>
<path id="p537" fill="rgb(0,0,255)" d="M 231.75 384 L 231.75 400 232.25 400 232.25 384 Z "/>
<path id="p538" fill="rgb(0,0,255)" d="M 224 395.75 L 232 395.75 232 396.25 224 396.25 Z "/>
<path id="p539" fill="rgb(0,0,255)" d="M 227.75 392 L 227.75 400 228.25 400 228.25 392 Z "/>
<path id="p540" fill="rgb(0,0,255)" d="M 224 407.75 L 240 407.75 240 408.25 224 408.25 Z "/>
<path id="p541" fill="rgb(0,0,255)" d="M 231.75 400 L 231.75 416 232.25 416 232.25 400 Z "/>
<path id="p542" fill="rgb(0,0,255)" d="M 224 403.75 L 232 403.75 232 404.25 224 404.25 Z "/>
<path id="p543" fill="rgb(0,0,255)" d="M 227.75 400 L 227.75 408 228.25 408 228.25 400 Z "/>
<path id="p544" fill="rgb(0,0,255)" d="M 232 403.75 L 240 403.75 240 404.25 232 404.25 Z "/>
<path id="p545" fill="rgb(0,0,255)" d="M 235.75 400 L 235.75 408 236.25 408 236.25 400 Z "/>
<path id="p546" fill="rgb(0,0,255)" d="M 240 407.75 L 256 407.75 256 408.25 240 408.25 Z "/>
<path id="p547" fill="rgb(0,0,255)" d="M 247.75 400 L 247.75 416 248.25 416 248.25 400 Z "/>
<path id="p548" fill="rgb(0,0,255)" d="M 240 403.75 L 248 403.75 248 404.25 240 404.25 Z "/>
<path id="p549" fill="rgb(0,0,255)" d="M 243.75 400 L 243.75 408 244.25 408 244.25 400 Z "/>
<path id="p550" fill="rgb(0,0,255)" d="M 240 411.75 L 248 411.75 248 412.25 240 412.25 Z "/>
<path id="p551" fill="rgb(0,0,255)" d="M 243.75 408 L 243.75 416 244.25 416 244.25 408 Z "/>
<path id="p552" fill="rgb(0,0,255)" d="M 248 411.75 L 256 411.75 256 412.25 248 412.25 Z "/>
<path id="p553" fill="rgb(0,0,255)" d="M 251.75 408 L 251.75 416 252.25 416 252.25 408 Z "/>
<path id="p554" fill="rgb(0,0,255)" d="M 224 431.75 L 256 431.75 256 432.25 224 432.25 Z "/>
<path id="p555" fill="rgb(0,0,255)" d="M 239.75 416 L 239.75 448 240.25 448 240.25 416 Z "/>
<path id="p556" fill="rgb(0,0,255)" d="M 240 423.75 L 256 423.75 256 424.25 240 424.25 Z "/>
<path id="p557" fill="rgb(0,0,255)" d="M 247.75 416 L 247.75 432 248.25 432 248.25 416 Z "/>
<path id="p558" fill="rgb(0,0,255)" d="M 248 419.75 L 256 419.75 256 420.25 248 420.25 Z "/>
<path id="p559" fill="rgb(0,0,255)" d="M 251.75 416 L 251.75 424 252.25 424 252.25 416 Z "/>
<path id="p560" fill="rgb(0,0,255)" d="M 256 383.75 L 512 383.75 512 384.25 256 384.25 Z "/>
<path id="p561" fill="rgb(0,0,255)" d="M 383.75 256 L 383.75 512 384.25 512 384.25 256 Z "/>
<path id="p562" fill="rgb(0,0,255)" d="M 384 319.75 L 512 319.75 512 320.25 384 320.25 Z "/>
<path id="p563" fill="rgb(0,0,255)" d="M 447.75 256 L 447.75 384 448.25 384 448.25 256 Z "/>
<path id="p564" fill="rgb(0,0,255)" d="M 384 287.75 L 448 287.75 448 288.25 384 288.25 Z "/>
<path id="p565" fill="rgb(0,0,255)" d="M 415.75 256 L 415.75 320 416.25 320 416.25 256 Z "/>
<path id="p566" fill="rgb(0,0,255)" d="M 416 271.75 L 448 271.75 448 272.25 416 272.25 Z "/>
<path id="p567" fill="rgb(0,0,255)" d="M 431.75 256 L 431.75 288 432.25 288 432.25 256 Z "/>
<path id="p568" fill="rgb(0,0,255)" d="M 416 263.75 L 432 263.75 432 264.25 416 264.25 Z "/>
<path id="p569" fill="rgb(0,0,255)" d="M 423.75 256 L 423.75 272 424.25 272 424.25 256 Z "/>
<path id="p570" fill="rgb(0,0,255)" d="M 416 259.75 L 424 259.75 424 260.25 416 260.25 Z "/>
<path id="p571" fill="rgb(0,0,255)" d="M 419.75 256 L 419.75 264 420.25 264 420.25 256 Z "/>
<path id="p572" fill="rgb(0,0,255)" d="M 416 267.75 L 424 267.75 424 268.25 416 268.25 Z "/>
<path id="p573" fill="rgb(0,0,255)" d="M 419.75 264 L 419.75 272 420.25 272 420.25 264 Z "/>
<path id="p574" fill="rgb(0,0,255)" d="M 424 267.75 L 432 267.75 432 268.25 424 268.25 Z "/>
<path id="p575" fill="rgb(0,0,255)" d="M 427.75 264 L 427.75 272 428.25 272 428.25 264 Z "/>
<path id="p576" fill="rgb(0,0,255)" d="M 416 279.75 L 432 279.75 432 280.25 416 280.25 Z "/>
<path id="p577" fill="rgb(0,0,255)" d="M 423.75 272 L 423.75 288 424.25 288 424.25 272 Z "/>
<path id="p578" fill="rgb(0,0,255)" d="M 424 275.75 L 432 275.75 432 276.25 424 276.25 Z "/>
<path id="p579" fill="rgb(0,0,255)" d="M 427.75 272 L 427.75 280 428.25 280 428.25 272 Z "/>
<path id="p580" fill="rgb(0,0,255)" d="M 424 283.75 L 432 283.75 432 284.25 424 284.25 Z "/>
<path id="p581" fill="rgb(0,0,255)" d="M 427.75 280 L 427.75 288 428.25 288 428.25 280 Z "/>
<path id="p582" fill="rgb(0,0,255)" d="M 432 279.75 L 448 279.75 448 280.25 432 280.25 Z "/>
<path id="p583" fill="rgb(0,0,255)" d="M 439.75 272 L 439.75 288 440.25 288 440.25 272 Z "/>
<path id="p584" fill="rgb(0,0,255)" d="M 432 283.75 L 440 283.75 440 284.25 432 284.25 Z "/>
<path id="p585" fill="rgb(0,0,255)" d="M 435.75 280 L 435.75 288 436.25 288 436.25 280 Z "/>
<path id="p586" fill="rgb(0,0,255)" d="M 416 303.75 L 448 303.75 448 304.25 416 304.25 Z "/>
<path id="p587" fill="rgb(0,0,255)" d="M 431.75 288 L 431.75 320 432.25 320 432.25 288 Z "/>
<path id="p588" fill="rgb(0,0,255)" d="M 432 295.75 L 448 295.75 448 296.25 432 296.25 Z "/>
<path id="p589" fill="rgb(0,0,255)" d="M 439.75 288 L 439.75 304 440.25 304 440.25 288 Z "/>
<path id="p590" fill="rgb(0,0,255)" d="M 432 291.75 L 440 291.75 440 292.25 432 292.25 Z "/>
<path id="p591" fill="rgb(0,0,255)" d="M 435.75 288 L 435.75 296 436.25 296 436.25 288 Z "/>
<path id="p592" fill="rgb(0,0,255)" d="M 432 299.75 L 440 299.75 440 300.25 432 300.25 Z "/>
<path id="p593" fill="rgb(0,0,255)" d="M 435.75 296 L 435.75 304 436.25 304 436.25 296 Z "/>
<path id="p594" fill="rgb(0,0,255)" d="M 440 299.75 L 448 299.75 448 300.25 440 300.25 Z "/>
<path id="p595" fill="rgb(0,0,255)" d="M 443.75 296 L 443.75 304 444.25 304 444.25 296 Z "/>
<path id="p596" fill="rgb(0,0,255)" d="M 432 311.75 L 448 311.75 448 312.25 432 312.25 Z "/>
<path id="p597" fill="rgb(0,0,255)" d="M 439.75 304 L 439.75 320 440.25 320 440.25 304 Z "/>
<path id="p598" fill="rgb(0,0,255)" d="M 440 307.75 L 448 307.75 448 308.25 440 308.25 Z "/>
<path id="p599" fill="rgb(0,0,255)" d="M 443.75 304 L 443.75 312 444.25 312 444.25 304 Z "/>
<path id="p600" fill="rgb(0,0,255)" d="M 440 315.75 L 448 315.75 448 316.25 440 316.25 Z "/>
<path id="p601" fill="rgb(0,0,255)" d="M 443.75 312 L 443.75 320 444.25 320 444.25 312 Z "/>
<path id="p602" fill="rgb(0,0,255)" d="M 448 287.75 L 512 287.75 512 288.25 448 288.25 Z "/>
<path id="p603" fill="rgb(0,0,255)" d="M 479.75 256 L 479.75 320 480.25 320 480.25 256 Z "/>
<path id="p604" fill="rgb(0,0,255)" d="M 448 351.75 L 512 351.75 512 352.25 448 352.25 Z "/>
<path id="p605" fill="rgb(0,0,255)" d="M 479.75 320 L 479.75 384 480.25 384 480.25 320 Z "/>
<path id="p606" fill="rgb(0,0,255)" d="M 448 335.75 L 480 335.75 480 336.25 448 336.25 Z "/>
<path id="p607" fill="rgb(0,0,255)" d="M 463.75 320 L 463.75 352 464.25 352 464.25 320 Z "/>
<path id="p608" fill="rgb(0,0,255)" d="M 448 327.75 L 464 327.75 464 328.25 448 328.25 Z "/>
<path id="p609" fill="rgb(0,0,255)" d="M 455.75 320 L 455.75 336 456.25 336 456.25 320 Z "/>
<path id="p610" fill="rgb(0,0,255)" d="M 448 323.75 L 456 323.75 456 324.25 448 324.25 Z "/>
<path id="p611" fill="rgb(0,0,255)" d="M 451.75 320 L 451.75 328 452.25 328 452.25 320 Z "/>
<path id="p612" fill="rgb(0,0,255)" d="M 448 331.75 L 456 331.75 456 332.25 448 332.25 Z "/>
<path id="p613" fill="rgb(0,0,255)" d="M 451.75 328 L 451.75 336 452.25 336 452.25 328 Z "/>
<path id="p614" fill="rgb(0,0,255)" d="M 448 343.75 L 464 343.75 464 344.25 448 344.25 Z "/>
<path id="p615" fill="rgb(0,0,255)" d="M 455.75 336 L 455.75 352 456.25 352 456.25 336 Z "/>
<path id="p616" fill="rgb(0,0,255)" d="M 448 339.75 L 456 339.75 456 340.25 448 340.25 Z "/>
<path id="p617" fill="rgb(0,0,255)" d="M 451.75 336 L 451.75 344 452.25 344 452.25 336 Z "/>
<path id="p618" fill="rgb(0,0,255)" d="M 448 347.75 L 456 347.75 456 348.25 448 348.25 Z "/>
<path id="p619" fill="rgb(0,0,255)" d="M 451.75 344 L 451.75 352 452.25 352 452.25 344 Z "/>
<path id="p620" fill="rgb(0,0,255)" d="M 456 347.75 L 464 347.75 464 348.25 456 348.25 Z "/>
<path id="p621" fill="rgb(0,0,255)" d="M 459.75 344 L 459.75 352 460.25 352 460.25 344 Z "/>
<path id="p622" fill="rgb(0,0,255)" d="M 448 367.75 L 480 367.75 480 368.25 448 368.25 Z "/>
<path id="p623" fill="rgb(0,0,255)" d="M 463.75 352 L 463.75 384 464.25 384 464.25 352 Z "/>
<path id="p624" fill="rgb(0,0,255)" d="M 448 359.75 L 464 359.75 464 360.25 448 360.25 Z "/>
<path id="p625" fill="rgb(0,0,255)" d="M 455.75 352 L 455.75 368 456.25 368 456.25 352 Z "/>
<path id="p626" fill="rgb(0,0,255)" d="M 456 355.75 L 464 355.75 464 356.25 456 356.25 Z "/>
<path id="p627" fill="rgb(0,0,255)" d="M 459.75 352 L 459.75 360 460.25 360 460.25 352 Z "/>
<path id="p628" fill="rgb(0,0,255)" d="M 456 363.75 L 464 363.75 464 364.25 456 364.25 Z "/>
<path id="p629" fill="rgb(0,0,255)" d="M 459.75 360 L 459.75 368 460.25 368 460.25 360 Z "/>
<path id="p630" fill="rgb(0,0,255)" d="M 448 375.75 L 464 375.75 464 376.25 448 376.25 Z "/>
<path id="p631" fill="rgb(0,0,255)" d="M 455.75 368 L 455.75 384 456.25 384 456.25 368 Z "/>
<path id="p632" fill="rgb(0,0,255)" d="M 456 371.75 L 464 371.75 464 372.25 456 372.25 Z "/>
<path id="p633" fill="rgb(0,0,255)" d="M 459.75 368 L 459.75 376 460.25 376 460.25 368 Z "/>
<path id="p634" fill="rgb(0,0,255)" d="M 456 379.75 L 464 379.75 464 380.25 456 380.25 Z "/>
<path id="p635" fill="rgb(0,0,255)" d="M 459.75 376 L 459.75 384 460.25 384 460.25 376 Z "/>
<path id="p636" fill="rgb(0,0,255)" d="M 256 447.75 L 384 447.75 384 448.25 256 448.25 Z "/>
<path id="p637" fill="rgb(0,0,255)" d="M 319.75 384 L 319.75 512 320.25 512 320.25 384 Z "/>
<path id="p638" fill="rgb(0,0,255)" d="M 256 415.75 L 320 415.75 320 416.25 256 416.25 Z "/>
<path id="p639" fill="rgb(0,0,255)" d="M 287.75 384 L 287.75 448 288.25 448 288.25 384 Z "/>
<path id="p640" fill="rgb(0,0,255)" d="M 256 431.75 L 288 431.75 288 432.25 256 432.25 Z "/>
<path id="p641" fill="rgb(0,0,255)" d="M 271.75 416 L 271.75 448 272.25 448 272.25 416 Z "/>
<path id="p642" fill="rgb(0,0,255)" d="M 256 423.75 L 272 423.75 272 424.25 256 424.25 Z "/>
<path id="p643" fill="rgb(0,0,255)" d="M 263.75 416 L 263.75 432 264.25 432 264.25 416 Z "/>
<path id="p644" fill="rgb(0,0,255)" d="M 256 419.75 L 264 419.75 264 420.25 256 420.25 Z "/>
<path id="p645" fill="rgb(0,0,255)" d="M 259.75 416 L 259.75 424 260.25 424 260.25 416 Z "/>
<path id="p646" fill="rgb(0,0,255)" d="M 264 419.75 L 272 419.75 272 420.25 264 420.25 Z "/>
<path id="p647" fill="rgb(0,0,255)" d="M 267.75 416 L 267.75 424 268.25 424 268.25 416 Z "/>
<path id="p648" fill="rgb(0,0,255)" d="M 264 427.75 L 272 427.75 272 428.25 264 428.25 Z "/>
<path id="p649" fill="rgb(0,0,255)" d="M 267.75 424 L 267.75 432 268.25 432 268.25 424 Z "/>
<path id="p650" fill="rgb(0,0,255)" d="M 272 423.75 L 288 423.75 288 424.25 272 424.25 Z "/>
<path id="p651" fill="rgb(0,0,255)" d="M 279.75 416 L 279.75 432 280.25 432 280.25 416 Z "/>
<path id="p652" fill="rgb(0,0,255)" d="M 272 427.75 L 280 427.75 280 428.25 272 428.25 Z "/>
<path id="p653" fill="rgb(0,0,255)" d="M 275.75 424 L 275.75 432 276.25 432 276.25 424 Z "/>
<path id="p654" fill="rgb(0,0,255)" d="M 280 427.75 L 288 427.75 288 428.25 280 428.25 Z "/>
<path id="p655" fill="rgb(0,0,255)" d="M 283.75 424 L 283.75 432 284.25 432 284.25 424 Z "/>
<path id="p656" fill="rgb(0,0,255)" d="M 272 439.75 L 288 439.75 288 440.25 272 440.25 Z "/>
<path id="p657" fill="rgb(0,0,255)" d="M 279.75 432 L 279.75 448 280.25 448 280.25 432 Z "/>
<path id="p658" fill="rgb(0,0,255)" d="M 280 435.75 L 288 435.75 288 436.25 280 436.25 Z "/>
<path id="p659" fill="rgb(0,0,255)" d="M 283.75 432 L 283.75 440 284.25 440 284.25 432 Z "/>
<path id="p660" fill="rgb(0,0,255)" d="M 288 431.75 L 320 431.75 320 432.25 288 432.25 Z "/>
<path id="p661" fill="rgb(0,0,255)" d="M 303.75 416 L 303.75 448 304.25 448 304.25 416 Z "/>
<path id="p662" fill="rgb(0,0,255)" d="M 288 439.75 L 304 439.75 304 440.25 288 440.25 Z "/>
<path id="p663" fill="rgb(0,0,255)" d="M 295.75 432 L 295.75 448 296.25 448 296.25 432 Z "/>
<path id="p664" fill="rgb(0,0,255)" d="M 288 435.75 L 296 435.75 296 436.25 288 436.25 Z "/>
<path id="p665" fill="rgb(0,0,255)" d="M 291.75 432 L 291.75 440 292.25 440 292.25 432 Z "/>
<path id="p666" fill="rgb(0,0,255)" d="M 296 435.75 L 304 435.75 304 436.25 296 436.25 Z "/>
<path id="p667" fill="rgb(0,0,255)" d="M 299.75 432 L 299.75 440 300.25 440 300.25 432 Z "/>
<path id="p668" fill="rgb(0,0,255)" d="M 296 443.75 L 304 443.75 304 444.25 296 444.25 Z "/>
<path id="p669" fill="rgb(0,0,255)" d="M 299.75 440 L 299.75 448 300.25 448 300.25 440 Z "/>
<path id="p670" fill="rgb(0,0,255)" d="M 304 439.75 L 320 439.75 320 440.25 304 440.25 Z "/>
<path id="p671" fill="rgb(0,0,255)" d="M 311.75 432 L 311.75 448 312.25 448 312.25 432 Z "/>
<path id="p672" fill="rgb(0,0,255)" d="M 304 443.75 L 312 443.75 312 444.25 304 444.25 Z "/>
<path id="p673" fill="rgb(0,0,255)" d="M 307.75 440 L 307.75 448 308.25 448 308.25 440 Z "/>
<path id="p674" fill="rgb(0,0,255)" d="M 312 443.75 L 320 443.75 320 444.25 312 444.25 Z "/>
<path id="p675" fill="rgb(0,0,255)" d="M 315.75 440 L 315.75 448 316.25 448 316.25 440 Z "/>
<path id="p676" fill="rgb(0,0,255)" d="M 320 415.75 L 384 415.75 384 416.25 320 416.25 Z "/>
<path id="p677" fill="rgb(0,0,255)" d="M 351.75 384 L 351.75 448 352.25 448 352.25 384 Z "/>
<path id="p678" fill="rgb(0,0,255)" d="M 320 431.75 L 352 431.75 352 432.25 320 432.25 Z "/>
<path id="p679" fill="rgb(0,0,255)" d="M 335.75 416 L 335.75 448 336.25 448 336.25 416 Z "/>
<path id="p680" fill="rgb(0,0,255)" d="M 256 479.75 L 320 479.75 320 480.25 256 480.25 Z "/>
<path id="p681" fill="rgb(0,0,255)" d="M 287.75 448 L 287.75 512 288.25 512 288.25 448 Z "/>
<path id="p682" fill="rgb(0,0,255)" d="M 320 479.75 L 384 479.75 384 480.25 320 480.25 Z "/>
<path id="p683" fill="rgb(0,0,255)" d="M 351.75 448 L 351.75 512 352.25 512 352.25 448 Z "/>
<path id="p684" fill="rgb(0,0,255)" d="M 320 463.75 L 352 463.75 352 464.25 320 464.25 Z "/>
<path id="p685" fill="rgb(0,0,255)" d="M 335.75 448 L 335.75 480 336.25 480 336.25 448 Z "/>
<path id="p686" fill="rgb(0,0,255)" d="M 320 455.75 L 336 455.75 336 456.25 320 456.25 Z "/>
<path id="p687" fill="rgb(0,0,255)" d="M 327.75 448 L 327.75 464 328.25 464 328.25 448 Z "/>
<path id="p688" fill="rgb(0,0,255)" d="M 320 451.75 L 328 451.75 328 452.25 320 452.25 Z "/>
<path id="p689" fill="rgb(0,0,255)" d="M 323.75 448 L 323.75 456 324.25 456 324.25 448 Z "/>
<path id="p690" fill="rgb(0,0,255)" d="M 328 451.75 L 336 451.75 336 452.25 328 452.25 Z "/>
<path id="p691" fill="rgb(0,0,255)" d="M 331.75 448 L 331.75 456 332.25 456 332.25 448 Z "/>
<path id="p692" fill="rgb(0,0,255)" d="M 336 455.75 L 352 455.75 352 456.25 336 456.25 Z "/>
<path id="p693" fill="rgb(0,0,255)" d="M 343.75 448 L 343.75 464 344.25 464 344.25 448 Z "/>
<path id="p694" fill="rgb(0,0,255)" d="M 336 451.75 L 344 451.75 344 452.25 336 452.25 Z "/>
<path id="p695" fill="rgb(0,0,255)" d="M 339.75 448 L 339.75 456 340.25 456 340.25 448 Z "/>
<path id="p696" fill="rgb(0,0,255)" d="M 344 451.75 L 352 451.75 352 452.25 344 452.25 Z "/>
<path id="p697" fill="rgb(0,0,255)" d="M 347.75 448 L 347.75 456 348.25 456 348.25 448 Z "/>
<path id="p698" fill="rgb(0,0,255)" d="M 344 459.75 L 352 459.75 352 460.25 344 460.25 Z "/>
<path id="p699" fill="rgb(0,0,255)" d="M 347.75 456 L 347.75 464 348.25 464 348.25 456 Z "/>
<path id="p700" fill="rgb(0,0,255)" d="M 352 463.75 L 384 463.75 384 464.25 352 464.25 Z "/>
<path id="p701" fill="rgb(0,0,255)" d="M 367.75 448 L 367.75 480 368.25 480 368.25 448 Z "/>
<path id="p702" fill="rgb(0,0,255)" d="M 352 455.75 L 368 455.75 368 456.25 352 456.25 Z "/>
<path id="p703" fill="rgb(0,0,255)" d="M 359.75 448 L 359.75 464 360.25 464 360.25 448 Z "/>
<path id="p704" fill="rgb(0,0,255)" d="M 352 459.75 L 360 459.75 360 460.25 352 460.25 Z "/>
<path id="p705" fill="rgb(0,0,255)" d="M 355.75 456 L 355.75 464 356.25 464 356.25 456 Z "/>
<path id="p706" fill="rgb(0,0,255)" d="M 360 459.75 L 368 459.75 368 460.25 360 460.25 Z "/>
<path id="p707" fill="rgb(0,0,255)" d="M 363.75 456 L 363.75 464 364.25 464 364.25 456 Z "/>
<path id="p708" fill="rgb(0,0,255)" d="M 368 455.75 L 384 455.75 384 456.25 368 456.25 Z "/>
<path id="p709" fill="rgb(0,0,255)" d="M 375.75 448 L 375.75 464 376.25 464 376.25 448 Z "/>
<path id="p710" fill="rgb(0,0,255)" d="M 368 459.75 L 376 459.75 376 460.25 368 460.25 Z "/>
<path id="p711" fill="rgb(0,0,255)" d="M 371.75 456 L 371.75 464 372.25 464 372.25 456 Z "/>
<path id="p712" fill="rgb(0,0,255)" d="M 376 459.75 L 384 459.75 384 460.25 376 460.25 Z "/>
<path id="p713" fill="rgb(0,0,255)" d="M 379.75 456 L 379.75 464 380.25 464 380.25 456 Z "/>
<path id="p714" fill="rgb(0,0,255)" d="M 384 447.75 L 512 447.75 512 448.25 384 448.25 Z "/>
<path id="p715" fill="rgb(0,0,255)" d="M 447.75 384 L 447.75 512 448.25 512 448.25 384 Z "/>
<path id="p716" fill="rgb(0,0,255)" d="M 384 415.75 L 448 415.75 448 416.25 384 416.25 Z "/>
<path id="p717" fill="rgb(0,0,255)" d="M 415.75 384 L 415.75 448 416.25 448 416.25 384 Z "/>
<path id="p718" fill="rgb(0,0,255)" d="M 416 431.75 L 448 431.75 448 432.25 416 432.25 Z "/>
<path id="p719" fill="rgb(0,0,255)" d="M 431.75 416 L 431.75 448 432.25 448 432.25 416 Z "/>
<path id="p720" fill="rgb(0,0,255)" d="M 432 423.75 L 448 423.75 448 424.25 432 424.25 Z "/>
<path id="p721" fill="rgb(0,0,255)" d="M 439.75 416 L 439.75 432 440.25 432 440.25 416 Z "/>
<path id="p722" fill="rgb(0,0,255)" d="M 440 419.75 L 448 419.75 448 420.25 440 420.25 Z "/>
<path id="p723" fill="rgb(0,0,255)" d="M 443.75 416 L 443.75 424 444.25 424 444.25 416 Z "/>
<path id="p724" fill="rgb(0,0,255)" d="M 440 427.75 L 448 427.75 448 428.25 440 428.25 Z "/>
<path id="p725" fill="rgb(0,0,255)" d="M 443.75 424 L 443.75 432 444.25 432 444.25 424 Z "/>
<path id="p726" fill="rgb(0,0,255)" d="M 416 439.75 L 432 439.75 432 440.25 416 440.25 Z "/>
<path id="p727" fill="rgb(0,0,255)" d="M 423.75 432 L 423.75 448 424.25 448 424.25 432 Z "/>
<path id="p728" fill="rgb(0,0,255)" d="M 416 443.75 L 424 443.75 424 444.25 416 444.25 Z "/>
<path id="p729" fill="rgb(0,0,255)" d="M 419.75 440 L 419.75 448 420.25 448 420.25 440 Z "/>
<path id="p730" fill="rgb(0,0,255)" d="M 424 443.75 L 432 443.75 432 444.25 424 444.25 Z "/>
<path id="p731" fill="rgb(0,0,255)" d="M 427.75 440 L 427.75 448 428.25 448 428.25 440 Z "/>
<path id="p732" fill="rgb(0,0,255)" d="M 432 439.75 L 448 439.75 448 440.25 432 440.25 Z "/>
<path id="p733" fill="rgb(0,0,255)" d="M 439.75 432 L 439.75 448 440.25 448 440.25 432 Z "/>
<path id="p734" fill="rgb(0,0,255)" d="M 432 435.75 L 440 435.75 440 436.25 432 436.25 Z "/>
<path id="p735" fill="rgb(0,0,255)" d="M 435.75 432 L 435.75 440 436.25 440 436.25 432 Z "/>
<path id="p736" fill="rgb(0,0,255)" d="M 440 435.75 L 448 435.75 448 436.25 440 436.25 Z "/>
<path id="p737" fill="rgb(0,0,255)" d="M 443.75 432 L 443.75 440 444.25 440 444.25 432 Z "/>
<path id="p738" fill="rgb(0,0,255)" d="M 432 443.75 L 440 443.75 440 444.25 432 444.25 Z "/>
<path id="p739" fill="rgb(0,0,255)" d="M 435.75 440 L 435.75 448 436.25 448 436.25 440 Z "/>
<path id="p740" fill="rgb(0,0,255)" d="M 448 415.75 L 512 415.75 512 416.25 448 416.25 Z "/>
<path id="p741" fill="rgb(0,0,255)" d="M 479.75 384 L 479.75 448 480.25 448 480.25 384 Z "/>
<path id="p742" fill="rgb(0,0,255)" d="M 448 399.75 L 480 399.75 480 400.25 448 400.25 Z "/>
<path id="p743" fill="rgb(0,0,255)" d="M 463.75 384 L 463.75 416 464.25 416 464.25 384 Z "/>
<path id="p744" fill="rgb(0,0,255)" d="M 448 391.75 L 464 391.75 464 392.25 448 392.25 Z "/>
<path id="p745" fill="rgb(0,0,255)" d="M 455.75 384 L 455.75 400 456.25 400 456.25 384 Z "/>
<path id="p746" fill="rgb(0,0,255)" d="M 456 387.75 L 464 387.75 464 388.25 456 388.25 Z "/>
<path id="p747" fill="rgb(0,0,255)" d="M 459.75 384 L 459.75 392 460.25 392 460.25 384 Z "/>
<path id="p748" fill="rgb(0,0,255)" d="M 456 395.75 L 464 395.75 464 396.25 456 396.25 Z "/>
<path id="p749" fill="rgb(0,0,255)" d="M 459.75 392 L 459.75 400 460.25 400 460.25 392 Z "/>
<path id="p750" fill="rgb(0,0,255)" d="M 448 407.75 L 464 407.75 464 408.25 448 408.25 Z "/>
<path id="p751" fill="rgb(0,0,255)" d="M 455.75 400 L 455.75 416 456.25 416 456.25 400 Z "/>
<path id="p752" fill="rgb(0,0,255)" d="M 448 403.75 L 456 403.75 456 404.25 448 404.25 Z "/>
<path id="p753" fill="rgb(0,0,255)" d="M 451.75 400 L 451.75 408 452.25 408 452.25 400 Z "/>
<path id="p754" fill="rgb(0,0,255)" d="M 456 403.75 L 464 403.75 464 404.25 456 404.25 Z "/>
<path id="p755" fill="rgb(0,0,255)" d="M 459.75 400 L 459.75 408 460.25 408 460.25 400 Z "/>
<path id="p756" fill="rgb(0,0,255)" d="M 448 411.75 L 456 411.75 456 412.25 448 412.25 Z "/>
<path id="p757" fill="rgb(0,0,255)" d="M 451.75 408 L 451.75 416 452.25 416 452.25 408 Z "/>
<path id="p758" fill="rgb(0,0,255)" d="M 448 431.75 L 480 431.75 480 432.25 448 432.25 Z "/>
<path id="p759" fill="rgb(0,0,255)" d="M 463.75 416 L 463.75 448 464.25 448 464.25 416 Z "/>
<path id="p760" fill="rgb(0,0,255)" d="M 448 423.75 L 464 423.75 464 424.25 448 424.25 Z "/>
<path id="p761" fill="rgb(0,0,255)" d="M 455.75 416 L 455.75 432 456.25 432 456.25 416 Z "/>
<path id="p762" fill="rgb(0,0,255)" d="M 448 419.75 L 456 419.75 456 420.25 448 420.25 Z "/>
<path id="p763" fill="rgb(0,0,255)" d="M 451.75 416 L 451.75 424 452.25 424 452.25 416 Z "/>
<path id="p764" fill="rgb(0,0,255)" d="M 384 479.75 L 448 479.75 448 480.25 384 480.25 Z "/>
<path id="p765" fill="rgb(0,0,255)" d="M 415.75 448 L 415.75 512 416.25 512 416.25 448 Z "/>
<path id="p766" fill="rgb(0,0,255)" d="M 384 463.75 L 416 463.75 416 464.25 384 464.25 Z "/>
<path id="p767" fill="rgb(0,0,255)" d="M 399.75 448 L 399.75 480 400.25 480 400.25 448 Z "/>
<path id="p768" fill="rgb(0,0,255)" d="M 384 455.75 L 400 455.75 400 456.25 384 456.25 Z "/>
<path id="p769" fill="rgb(0,0,255)" d="M 391.75 448 L 391.75 464 392.25 464 392.25 448 Z "/>
<path id="p770" fill="rgb(0,0,255)" d="M 384 459.75 L 392 459.75 392 460.25 384 460.25 Z "/>
<path id="p771" fill="rgb(0,0,255)" d="M 387.75 456 L 387.75 464 388.25 464 388.25 456 Z "/>
<path id="p772" fill="rgb(0,0,255)" d="M 392 459.75 L 400 459.75 400 460.25 392 460.25 Z "/>
<path id="p773" fill="rgb(0,0,255)" d="M 395.75 456 L 395.75 464 396.25 464 396.25 456 Z "/>
<path id="p774" fill="rgb(0,0,255)" d="M 400 455.75 L 416 455.75 416 456.25 400 456.25 Z "/>
<path id="p775" fill="rgb(0,0,255)" d="M 407.75 448 L 407.75 464 408.25 464 408.25 448 Z "/>
<path id="p776" fill="rgb(0,0,255)" d="M 400 451.75 L 408 451.75 408 452.25 400 452.25 Z "/>
<path id="p777" fill="rgb(0,0,255)" d="M 403.75 448 L 403.75 456 404.25 456 404.25 448 Z "/>
<path id="p778" fill="rgb(0,0,255)" d="M 408 451.75 L 416 451.75 416 452.25 408 452.25 Z "/>
<path id="p779" fill="rgb(0,0,255)" d="M 411.75 448 L 411.75 456 412.25 456 412.25 448 Z "/>
<path id="p780" fill="rgb(0,0,255)" d="M 400 459.75 L 408 459.75 408 460.25 400 460.25 Z "/>
<path id="p781" fill="rgb(0,0,255)" d="M 403.75 456 L 403.75 464 404.25 464 404.25 456 Z "/>
<path id="p782" fill="rgb(0,0,255)" d="M 416 463.75 L 448 463.75 448 464.25 416 464.25 Z "/>
<path id="p783" fill="rgb(0,0,255)" d="M 431.75 448 L 431.75 480 432.25 480 432.25 448 Z "/>
<path id="p784" fill="rgb(0,0,255)" d="M 416 455.75 L 432 455.75 432 456.25 416 456.25 Z "/>
<path id="p785" fill="rgb(0,0,255)" d="M 423.75 448 L 423.75 464 424.25 464 424.25 448 Z "/>
<path id="p786" fill="rgb(0,0,255)" d="M 416 451.75 L 424 451.75 424 452.25 416 452.25 Z "/>
<path id="p787" fill="rgb(0,0,255)" d="M 419.75 448 L 419.75 456 420.25 456 420.25 448 Z "/>
</g>
</svg>
