<?xml version="1.0" standalone="no"?>
<svg
    xmlns:xlink="http://www.w3.org/1999/xlink"
    xmlns:dc="http://purl.org/dc/elements/1.1/"
    xmlns:cc="http://creativecommons.org/ns#"
    xmlns:rdf="http://www.w3.org/1999/02/22-rdf-syntax-ns#"
    xmlns:svg="http://www.w3.org/2000/svg"
    xmlns="http://www.w3.org/2000/svg"
    version="1.1"
    viewBox="0 0 512 512">
<defs>
<linearGradient id="linear1" gradientUnits="userSpaceOnUse" x1="0" y1="0" x2="200" y2="200" spreadMethod="pad" gradientTransform="matrix(0.499995, 0.499995, -0.499995, 0.499995, 100, 0.000959005)">
<stop offset="0" stop-color="rgb(255,0,0)" stop-opacity="1"/>
<stop offset="1" stop-color="rgb(0,255,0)" stop-opacity="1"/>
</linearGradient>
</defs>
<g transform="translate(0, 512) scale(1, -1)">
<path id="p1" fill="url(#linear1)" d="M 256 0.0024550528 L 511.99744 255.9998950528 256 511.9973350528 0.0025599999999883 255.9998950528 256 0.0024550528 Z "/>
<path id="p2" fill="rgb(0,0,255)" d="M 0 -0.25 L 512 -0.25 512 0.25 0 0.25 Z "/>
<path id="p3" fill="rgb(0,0,255)" d="M 0 511.75 L 512 511.75 512 512.25 0 512.25 Z "/>
<path id="p4" fill="rgb(0,0,255)" d="M -0.25 0 L -0.25 512 0.25 512 0.25 0 Z "/>
<path id="p5" fill="rgb(0,0,255)" d="M 511.75 0 L 511.75 512 512.25 512 512.25 0 Z "/>
<path id="p6" fill="rgb(0,0,255)" d="M 0 255.75 L 512 255.75 512 256.25 0 256.25 Z "/>
<path id="p7" fill="rgb(0,0,255)" d="M 255.75 0 L 255.75 512 256.25 512 256.25 0 Z "/>
<path id="p8" fill="rgb(0,0,255)" d="M 0 127.75 L 256 127.75 256 128.25 0 128.25 Z "/>
<path id="p9" fill="rgb(0,0,255)" d="M 127.75 0 L 127.75 256 128.25 256 128.25 0 Z "/>
<path id="p10" fill="rgb(0,0,255)" d="M 128 63.75 L 256 63.75 256 64.25 128 64.25 Z "/>
<path id="p11" fill="rgb(0,0,255)" d="M 191.75 0 L 191.75 128 192.25 128 192.25 0 Z "/>
<path id="p12" fill="rgb(0,0,255)" d="M 192 31.75 L 256 31.75 256 32.25 192 32.25 Z "/>
<path id="p13" fill="rgb(0,0,255)" d="M 223.75 0 L 223.75 64 224.25 64 224.25 0 Z "/>
<path id="p14" fill="rgb(0,0,255)" d="M 224 15.75 L 256 15.75 256 16.25 224 16.25 Z "/>
<path id="p15" fill="rgb(0,0,255)" d="M 239.75 0 L 239.75 32 240.25 32 240.25 0 Z "/>
<path id="p16" fill="rgb(0,0,255)" d="M 240 7.75 L 256 7.75 256 8.25 240 8.25 Z "/>
<path id="p17" fill="rgb(0,0,255)" d="M 247.75 0 L 247.75 16 248.25 16 248.25 0 Z "/>
<path id="p18" fill="rgb(0,0,255)" d="M 224 23.75 L 240 23.75 240 24.25 224 24.25 Z "/>
<path id="p19" fill="rgb(0,0,255)" d="M 231.75 16 L 231.75 32 232.25 32 232.25 16 Z "/>
<path id="p20" fill="rgb(0,0,255)" d="M 192 47.75 L 224 47.75 224 48.25 192 48.25 Z "/>
<path id="p21" fill="rgb(0,0,255)" d="M 207.75 32 L 207.75 64 208.25 64 208.25 32 Z "/>
<path id="p22" fill="rgb(0,0,255)" d="M 208 39.75 L 224 39.75 224 40.25 208 40.25 Z "/>
<path id="p23" fill="rgb(0,0,255)" d="M 215.75 32 L 215.75 48 216.25 48 216.25 32 Z "/>
<path id="p24" fill="rgb(0,0,255)" d="M 192 55.75 L 208 55.75 208 56.25 192 56.25 Z "/>
<path id="p25" fill="rgb(0,0,255)" d="M 199.75 48 L 199.75 64 200.25 64 200.25 48 Z "/>
<path id="p26" fill="rgb(0,0,255)" d="M 128 95.75 L 192 95.75 192 96.25 128 96.25 Z "/>
<path id="p27" fill="rgb(0,0,255)" d="M 159.75 64 L 159.75 128 160.25 128 160.25 64 Z "/>
<path id="p28" fill="rgb(0,0,255)" d="M 160 79.75 L 192 79.75 192 80.25 160 80.25 Z "/>
<path id="p29" fill="rgb(0,0,255)" d="M 175.75 64 L 175.75 96 176.25 96 176.25 64 Z "/>
<path id="p30" fill="rgb(0,0,255)" d="M 176 71.75 L 192 71.75 192 72.25 176 72.25 Z "/>
<path id="p31" fill="rgb(0,0,255)" d="M 183.75 64 L 183.75 80 184.25 80 184.25 64 Z "/>
<path id="p32" fill="rgb(0,0,255)" d="M 160 87.75 L 176 87.75 176 88.25 160 88.25 Z "/>
<path id="p33" fill="rgb(0,0,255)" d="M 167.75 80 L 167.75 96 168.25 96 168.25 80 Z "/>
<path id="p34" fill="rgb(0,0,255)" d="M 128 111.75 L 160 111.75 160 112.25 128 112.25 Z "/>
<path id="p35" fill="rgb(0,0,255)" d="M 143.75 96 L 143.75 128 144.25 128 144.25 96 Z "/>
<path id="p36" fill="rgb(0,0,255)" d="M 144 103.75 L 160 103.75 160 104.25 144 104.25 Z "/>
<path id="p37" fill="rgb(0,0,255)" d="M 151.75 96 L 151.75 112 152.25 112 152.25 96 Z "/>
<path id="p38" fill="rgb(0,0,255)" d="M 128 119.75 L 144 119.75 144 120.25 128 120.25 Z "/>
<path id="p39" fill="rgb(0,0,255)" d="M 135.75 112 L 135.75 128 136.25 128 136.25 112 Z "/>
<path id="p40" fill="rgb(0,0,255)" d="M 0 191.75 L 128 191.75 128 192.25 0 192.25 Z "/>
<path id="p41" fill="rgb(0,0,255)" d="M 63.75 128 L 63.75 256 64.25 256 64.25 128 Z "/>
<path id="p42" fill="rgb(0,0,255)" d="M 64 159.75 L 128 159.75 128 160.25 64 160.25 Z "/>
<path id="p43" fill="rgb(0,0,255)" d="M 95.75 128 L 95.75 192 96.25 192 96.25 128 Z "/>
<path id="p44" fill="rgb(0,0,255)" d="M 96 143.75 L 128 143.75 128 144.25 96 144.25 Z "/>
<path id="p45" fill="rgb(0,0,255)" d="M 111.75 128 L 111.75 160 112.25 160 112.25 128 Z "/>
<path id="p46" fill="rgb(0,0,255)" d="M 112 135.75 L 128 135.75 128 136.25 112 136.25 Z "/>
<path id="p47" fill="rgb(0,0,255)" d="M 119.75 128 L 119.75 144 120.25 144 120.25 128 Z "/>
<path id="p48" fill="rgb(0,0,255)" d="M 96 151.75 L 112 151.75 112 152.25 96 152.25 Z "/>
<path id="p49" fill="rgb(0,0,255)" d="M 103.75 144 L 103.75 160 104.25 160 104.25 144 Z "/>
<path id="p50" fill="rgb(0,0,255)" d="M 64 175.75 L 96 175.75 96 176.25 64 176.25 Z "/>
<path id="p51" fill="rgb(0,0,255)" d="M 79.75 160 L 79.75 192 80.25 192 80.25 160 Z "/>
<path id="p52" fill="rgb(0,0,255)" d="M 80 167.75 L 96 167.75 96 168.25 80 168.25 Z "/>
<path id="p53" fill="rgb(0,0,255)" d="M 87.75 160 L 87.75 176 88.25 176 88.25 160 Z "/>
<path id="p54" fill="rgb(0,0,255)" d="M 64 183.75 L 80 183.75 80 184.25 64 184.25 Z "/>
<path id="p55" fill="rgb(0,0,255)" d="M 71.75 176 L 71.75 192 72.25 192 72.25 176 Z "/>
<path id="p56" fill="rgb(0,0,255)" d="M 0 223.75 L 64 223.75 64 224.25 0 224.25 Z "/>
<path id="p57" fill="rgb(0,0,255)" d="M 31.75 192 L 31.75 256 32.25 256 32.25 192 Z "/>
<path id="p58" fill="rgb(0,0,255)" d="M 32 207.75 L 64 207.75 64 208.25 32 208.25 Z "/>
<path id="p59" fill="rgb(0,0,255)" d="M 47.75 192 L 47.75 224 48.25 224 48.25 192 Z "/>
<path id="p60" fill="rgb(0,0,255)" d="M 48 199.75 L 64 199.75 64 200.25 48 200.25 Z "/>
<path id="p61" fill="rgb(0,0,255)" d="M 55.75 192 L 55.75 208 56.25 208 56.25 192 Z "/>
<path id="p62" fill="rgb(0,0,255)" d="M 32 215.75 L 48 215.75 48 216.25 32 216.25 Z "/>
<path id="p63" fill="rgb(0,0,255)" d="M 39.75 208 L 39.75 224 40.25 224 40.25 208 Z "/>
<path id="p64" fill="rgb(0,0,255)" d="M 0 239.75 L 32 239.75 32 240.25 0 240.25 Z "/>
<path id="p65" fill="rgb(0,0,255)" d="M 15.75 224 L 15.75 256 16.25 256 16.25 224 Z "/>
<path id="p66" fill="rgb(0,0,255)" d="M 16 231.75 L 32 231.75 32 232.25 16 232.25 Z "/>
<path id="p67" fill="rgb(0,0,255)" d="M 23.75 224 L 23.75 240 24.25 240 24.25 224 Z "/>
<path id="p68" fill="rgb(0,0,255)" d="M 0 247.75 L 16 247.75 16 248.25 0 248.25 Z "/>
<path id="p69" fill="rgb(0,0,255)" d="M 7.75 240 L 7.75 256 8.25 256 8.25 240 Z "/>
<path id="p70" fill="rgb(0,0,255)" d="M 256 127.75 L 512 127.75 512 128.25 256 128.25 Z "/>
<path id="p71" fill="rgb(0,0,255)" d="M 383.75 0 L 383.75 256 384.25 256 384.25 0 Z "/>
<path id="p72" fill="rgb(0,0,255)" d="M 256 63.75 L 384 63.75 384 64.25 256 64.25 Z "/>
<path id="p73" fill="rgb(0,0,255)" d="M 319.75 0 L 319.75 128 320.25 128 320.25 0 Z "/>
<path id="p74" fill="rgb(0,0,255)" d="M 256 31.75 L 320 31.75 320 32.25 256 32.25 Z "/>
<path id="p75" fill="rgb(0,0,255)" d="M 287.75 0 L 287.75 64 288.25 64 288.25 0 Z "/>
<path id="p76" fill="rgb(0,0,255)" d="M 256 15.75 L 288 15.75 288 16.25 256 16.25 Z "/>
<path id="p77" fill="rgb(0,0,255)" d="M 271.75 0 L 271.75 32 272.25 32 272.25 0 Z "/>
<path id="p78" fill="rgb(0,0,255)" d="M 256 7.75 L 272 7.75 272 8.25 256 8.25 Z "/>
<path id="p79" fill="rgb(0,0,255)" d="M 263.75 0 L 263.75 16 264.25 16 264.25 0 Z "/>
<path id="p80" fill="rgb(0,0,255)" d="M 272 23.75 L 288 23.75 288 24.25 272 24.25 Z "/>
<path id="p81" fill="rgb(0,0,255)" d="M 279.75 16 L 279.75 32 280.25 32 280.25 16 Z "/>
<path id="p82" fill="rgb(0,0,255)" d="M 288 47.75 L 320 47.75 320 48.25 288 48.25 Z "/>
<path id="p83" fill="rgb(0,0,255)" d="M 303.75 32 L 303.75 64 304.25 64 304.25 32 Z "/>
<path id="p84" fill="rgb(0,0,255)" d="M 288 39.75 L 304 39.75 304 40.25 288 40.25 Z "/>
<path id="p85" fill="rgb(0,0,255)" d="M 295.75 32 L 295.75 48 296.25 48 296.25 32 Z "/>
<path id="p86" fill="rgb(0,0,255)" d="M 304 55.75 L 320 55.75 320 56.25 304 56.25 Z "/>
<path id="p87" fill="rgb(0,0,255)" d="M 311.75 48 L 311.75 64 312.25 64 312.25 48 Z "/>
<path id="p88" fill="rgb(0,0,255)" d="M 320 95.75 L 384 95.75 384 96.25 320 96.25 Z "/>
<path id="p89" fill="rgb(0,0,255)" d="M 351.75 64 L 351.75 128 352.25 128 352.25 64 Z "/>
<path id="p90" fill="rgb(0,0,255)" d="M 320 79.75 L 352 79.75 352 80.25 320 80.25 Z "/>
<path id="p91" fill="rgb(0,0,255)" d="M 335.75 64 L 335.75 96 336.25 96 336.25 64 Z "/>
<path id="p92" fill="rgb(0,0,255)" d="M 320 71.75 L 336 71.75 336 72.25 320 72.25 Z "/>
<path id="p93" fill="rgb(0,0,255)" d="M 327.75 64 L 327.75 80 328.25 80 328.25 64 Z "/>
<path id="p94" fill="rgb(0,0,255)" d="M 336 87.75 L 352 87.75 352 88.25 336 88.25 Z "/>
<path id="p95" fill="rgb(0,0,255)" d="M 343.75 80 L 343.75 96 344.25 96 344.25 80 Z "/>
<path id="p96" fill="rgb(0,0,255)" d="M 352 111.75 L 384 111.75 384 112.25 352 112.25 Z "/>
<path id="p97" fill="rgb(0,0,255)" d="M 367.75 96 L 367.75 128 368.25 128 368.25 96 Z "/>
<path id="p98" fill="rgb(0,0,255)" d="M 352 103.75 L 368 103.75 368 104.25 352 104.25 Z "/>
<path id="p99" fill="rgb(0,0,255)" d="M 359.75 96 L 359.75 112 360.25 112 360.25 96 Z "/>
<path id="p100" fill="rgb(0,0,255)" d="M 368 119.75 L 384 119.75 384 120.25 368 120.25 Z "/>
<path id="p101" fill="rgb(0,0,255)" d="M 375.75 112 L 375.75 128 376.25 128 376.25 112 Z "/>
<path id="p102" fill="rgb(0,0,255)" d="M 384 191.75 L 512 191.75 512 192.25 384 192.25 Z "/>
<path id="p103" fill="rgb(0,0,255)" d="M 447.75 128 L 447.75 256 448.25 256 448.25 128 Z "/>
<path id="p104" fill="rgb(0,0,255)" d="M 384 159.75 L 448 159.75 448 160.25 384 160.25 Z "/>
<path id="p105" fill="rgb(0,0,255)" d="M 415.75 128 L 415.75 192 416.25 192 416.25 128 Z "/>
<path id="p106" fill="rgb(0,0,255)" d="M 384 143.75 L 416 143.75 416 144.25 384 144.25 Z "/>
<path id="p107" fill="rgb(0,0,255)" d="M 399.75 128 L 399.75 160 400.25 160 400.25 128 Z "/>
<path id="p108" fill="rgb(0,0,255)" d="M 384 135.75 L 400 135.75 400 136.25 384 136.25 Z "/>
<path id="p109" fill="rgb(0,0,255)" d="M 391.75 128 L 391.75 144 392.25 144 392.25 128 Z "/>
<path id="p110" fill="rgb(0,0,255)" d="M 400 151.75 L 416 151.75 416 152.25 400 152.25 Z "/>
<path id="p111" fill="rgb(0,0,255)" d="M 407.75 144 L 407.75 160 408.25 160 408.25 144 Z "/>
<path id="p112" fill="rgb(0,0,255)" d="M 416 175.75 L 448 175.75 448 176.25 416 176.25 Z "/>
<path id="p113" fill="rgb(0,0,255)" d="M 431.75 160 L 431.75 192 432.25 192 432.25 160 Z "/>
<path id="p114" fill="rgb(0,0,255)" d="M 416 167.75 L 432 167.75 432 168.25 416 168.25 Z "/>
<path id="p115" fill="rgb(0,0,255)" d="M 423.75 160 L 423.75 176 424.25 176 424.25 160 Z "/>
<path id="p116" fill="rgb(0,0,255)" d="M 432 183.75 L 448 183.75 448 184.25 432 184.25 Z "/>
<path id="p117" fill="rgb(0,0,255)" d="M 439.75 176 L 439.75 192 440.25 192 440.25 176 Z "/>
<path id="p118" fill="rgb(0,0,255)" d="M 448 223.75 L 512 223.75 512 224.25 448 224.25 Z "/>
<path id="p119" fill="rgb(0,0,255)" d="M 479.75 192 L 479.75 256 480.25 256 480.25 192 Z "/>
<path id="p120" fill="rgb(0,0,255)" d="M 448 207.75 L 480 207.75 480 208.25 448 208.25 Z "/>
<path id="p121" fill="rgb(0,0,255)" d="M 463.75 192 L 463.75 224 464.25 224 464.25 192 Z "/>
<path id="p122" fill="rgb(0,0,255)" d="M 448 199.75 L 464 199.75 464 200.25 448 200.25 Z "/>
<path id="p123" fill="rgb(0,0,255)" d="M 455.75 192 L 455.75 208 456.25 208 456.25 192 Z "/>
<path id="p124" fill="rgb(0,0,255)" d="M 464 215.75 L 480 215.75 480 216.25 464 216.25 Z "/>
<path id="p125" fill="rgb(0,0,255)" d="M 471.75 208 L 471.75 224 472.25 224 472.25 208 Z "/>
<path id="p126" fill="rgb(0,0,255)" d="M 480 239.75 L 512 239.75 512 240.25 480 240.25 Z "/>
<path id="p127" fill="rgb(0,0,255)" d="M 495.75 224 L 495.75 256 496.25 256 496.25 224 Z "/>
<path id="p128" fill="rgb(0,0,255)" d="M 480 231.75 L 496 231.75 496 232.25 480 232.25 Z "/>
<path id="p129" fill="rgb(0,0,255)" d="M 487.75 224 L 487.75 240 488.25 240 488.25 224 Z "/>
<path id="p130" fill="rgb(0,0,255)" d="M 496 247.75 L 512 247.75 512 248.25 496 248.25 Z "/>
<path id="p131" fill="rgb(0,0,255)" d="M 503.75 240 L 503.75 256 504.25 256 504.25 240 Z "/>
<path id="p132" fill="rgb(0,0,255)" d="M 0 383.75 L 256 383.75 256 384.25 0 384.25 Z "/>
<path id="p133" fill="rgb(0,0,255)" d="M 127.75 256 L 127.75 512 128.25 512 128.25 256 Z "/>
<path id="p134" fill="rgb(0,0,255)" d="M 0 319.75 L 128 319.75 128 320.25 0 320.25 Z "/>
<path id="p135" fill="rgb(0,0,255)" d="M 63.75 256 L 63.75 384 64.25 384 64.25 256 Z "/>
<path id="p136" fill="rgb(0,0,255)" d="M 0 287.75 L 64 287.75 64 288.25 0 288.25 Z "/>
<path id="p137" fill="rgb(0,0,255)" d="M 31.75 256 L 31.75 320 32.25 320 32.25 256 Z "/>
<path id="p138" fill="rgb(0,0,255)" d="M 0 271.75 L 32 271.75 32 272.25 0 272.25 Z "/>
<path id="p139" fill="rgb(0,0,255)" d="M 15.75 256 L 15.75 288 16.25 288 16.25 256 Z "/>
<path id="p140" fill="rgb(0,0,255)" d="M 0 263.75 L 16 263.75 16 264.25 0 264.25 Z "/>
<path id="p141" fill="rgb(0,0,255)" d="M 7.75 256 L 7.75 272 8.25 272 8.25 256 Z "/>
<path id="p142" fill="rgb(0,0,255)" d="M 16 279.75 L 32 279.75 32 280.25 16 280.25 Z "/>
<path id="p143" fill="rgb(0,0,255)" d="M 23.75 272 L 23.75 288 24.25 288 24.25 272 Z "/>
<path id="p144" fill="rgb(0,0,255)" d="M 32 303.75 L 64 303.75 64 304.25 32 304.25 Z "/>
<path id="p145" fill="rgb(0,0,255)" d="M 47.75 288 L 47.75 320 48.25 320 48.25 288 Z "/>
<path id="p146" fill="rgb(0,0,255)" d="M 32 295.75 L 48 295.75 48 296.25 32 296.25 Z "/>
<path id="p147" fill="rgb(0,0,255)" d="M 39.75 288 L 39.75 304 40.25 304 40.25 288 Z "/>
<path id="p148" fill="rgb(0,0,255)" d="M 48 311.75 L 64 311.75 64 312.25 48 312.25 Z "/>
<path id="p149" fill="rgb(0,0,255)" d="M 55.75 304 L 55.75 320 56.25 320 56.25 304 Z "/>
<path id="p150" fill="rgb(0,0,255)" d="M 64 351.75 L 128 351.75 128 352.25 64 352.25 Z "/>
<path id="p151" fill="rgb(0,0,255)" d="M 95.75 320 L 95.75 384 96.25 384 96.25 320 Z "/>
<path id="p152" fill="rgb(0,0,255)" d="M 64 335.75 L 96 335.75 96 336.25 64 336.25 Z "/>
<path id="p153" fill="rgb(0,0,255)" d="M 79.75 320 L 79.75 352 80.25 352 80.25 320 Z "/>
<path id="p154" fill="rgb(0,0,255)" d="M 64 327.75 L 80 327.75 80 328.25 64 328.25 Z "/>
<path id="p155" fill="rgb(0,0,255)" d="M 71.75 320 L 71.75 336 72.25 336 72.25 320 Z "/>
<path id="p156" fill="rgb(0,0,255)" d="M 80 343.75 L 96 343.75 96 344.25 80 344.25 Z "/>
<path id="p157" fill="rgb(0,0,255)" d="M 87.75 336 L 87.75 352 88.25 352 88.25 336 Z "/>
<path id="p158" fill="rgb(0,0,255)" d="M 96 367.75 L 128 367.75 128 368.25 96 368.25 Z "/>
<path id="p159" fill="rgb(0,0,255)" d="M 111.75 352 L 111.75 384 112.25 384 112.25 352 Z "/>
<path id="p160" fill="rgb(0,0,255)" d="M 96 359.75 L 112 359.75 112 360.25 96 360.25 Z "/>
<path id="p161" fill="rgb(0,0,255)" d="M 103.75 352 L 103.75 368 104.25 368 104.25 352 Z "/>
<path id="p162" fill="rgb(0,0,255)" d="M 112 375.75 L 128 375.75 128 376.25 112 376.25 Z "/>
<path id="p163" fill="rgb(0,0,255)" d="M 119.75 368 L 119.75 384 120.25 384 120.25 368 Z "/>
<path id="p164" fill="rgb(0,0,255)" d="M 128 447.75 L 256 447.75 256 448.25 128 448.25 Z "/>
<path id="p165" fill="rgb(0,0,255)" d="M 191.75 384 L 191.75 512 192.25 512 192.25 384 Z "/>
<path id="p166" fill="rgb(0,0,255)" d="M 128 415.75 L 192 415.75 192 416.25 128 416.25 Z "/>
<path id="p167" fill="rgb(0,0,255)" d="M 159.75 384 L 159.75 448 160.25 448 160.25 384 Z "/>
<path id="p168" fill="rgb(0,0,255)" d="M 128 399.75 L 160 399.75 160 400.25 128 400.25 Z "/>
<path id="p169" fill="rgb(0,0,255)" d="M 143.75 384 L 143.75 416 144.25 416 144.25 384 Z "/>
<path id="p170" fill="rgb(0,0,255)" d="M 128 391.75 L 144 391.75 144 392.25 128 392.25 Z "/>
<path id="p171" fill="rgb(0,0,255)" d="M 135.75 384 L 135.75 400 136.25 400 136.25 384 Z "/>
<path id="p172" fill="rgb(0,0,255)" d="M 144 407.75 L 160 407.75 160 408.25 144 408.25 Z "/>
<path id="p173" fill="rgb(0,0,255)" d="M 151.75 400 L 151.75 416 152.25 416 152.25 400 Z "/>
<path id="p174" fill="rgb(0,0,255)" d="M 160 431.75 L 192 431.75 192 432.25 160 432.25 Z "/>
<path id="p175" fill="rgb(0,0,255)" d="M 175.75 416 L 175.75 448 176.25 448 176.25 416 Z "/>
<path id="p176" fill="rgb(0,0,255)" d="M 160 423.75 L 176 423.75 176 424.25 160 424.25 Z "/>
<path id="p177" fill="rgb(0,0,255)" d="M 167.75 416 L 167.75 432 168.25 432 168.25 416 Z "/>
<path id="p178" fill="rgb(0,0,255)" d="M 176 439.75 L 192 439.75 192 440.25 176 440.25 Z "/>
<path id="p179" fill="rgb(0,0,255)" d="M 183.75 432 L 183.75 448 184.25 448 184.25 432 Z "/>
<path id="p180" fill="rgb(0,0,255)" d="M 192 479.75 L 256 479.75 256 480.25 192 480.25 Z "/>
<path id="p181" fill="rgb(0,0,255)" d="M 223.75 448 L 223.75 512 224.25 512 224.25 448 Z "/>
<path id="p182" fill="rgb(0,0,255)" d="M 192 463.75 L 224 463.75 224 464.25 192 464.25 Z "/>
<path id="p183" fill="rgb(0,0,255)" d="M 207.75 448 L 207.75 480 208.25 480 208.25 448 Z "/>
<path id="p184" fill="rgb(0,0,255)" d="M 192 455.75 L 208 455.75 208 456.25 192 456.25 Z "/>
<path id="p185" fill="rgb(0,0,255)" d="M 199.75 448 L 199.75 464 200.25 464 200.25 448 Z "/>
<path id="p186" fill="rgb(0,0,255)" d="M 208 471.75 L 224 471.75 224 472.25 208 472.25 Z "/>
<path id="p187" fill="rgb(0,0,255)" d="M 215.75 464 L 215.75 480 216.25 480 216.25 464 Z "/>
<path id="p188" fill="rgb(0,0,255)" d="M 224 495.75 L 256 495.75 256 496.25 224 496.25 Z "/>
<path id="p189" fill="rgb(0,0,255)" d="M 239.75 480 L 239.75 512 240.25 512 240.25 480 Z "/>
<path id="p190" fill="rgb(0,0,255)" d="M 224 487.75 L 240 487.75 240 488.25 224 488.25 Z "/>
<path id="p191" fill="rgb(0,0,255)" d="M 231.75 480 L 231.75 496 232.25 496 232.25 480 Z "/>
<path id="p192" fill="rgb(0,0,255)" d="M 240 503.75 L 256 503.75 256 504.25 240 504.25 Z "/>
<path id="p193" fill="rgb(0,0,255)" d="M 247.75 496 L 247.75 512 248.25 512 248.25 496 Z "/>
<path id="p194" fill="rgb(0,0,255)" d="M 256 383.75 L 512 383.75 512 384.25 256 384.25 Z "/>
<path id="p195" fill="rgb(0,0,255)" d="M 383.75 256 L 383.75 512 384.25 512 384.25 256 Z "/>
<path id="p196" fill="rgb(0,0,255)" d="M 384 319.75 L 512 319.75 512 320.25 384 320.25 Z "/>
<path id="p197" fill="rgb(0,0,255)" d="M 447.75 256 L 447.75 384 448.25 384 448.25 256 Z "/>
<path id="p198" fill="rgb(0,0,255)" d="M 448 287.75 L 512 287.75 512 288.25 448 288.25 Z "/>
<path id="p199" fill="rgb(0,0,255)" d="M 479.75 256 L 479.75 320 480.25 320 480.25 256 Z "/>
<path id="p200" fill="rgb(0,0,255)" d="M 480 271.75 L 512 271.75 512 272.25 480 272.25 Z "/>
<path id="p201" fill="rgb(0,0,255)" d="M 495.75 256 L 495.75 288 496.25 288 496.25 256 Z "/>
<path id="p202" fill="rgb(0,0,255)" d="M 496 263.75 L 512 263.75 512 264.25 496 264.25 Z "/>
<path id="p203" fill="rgb(0,0,255)" d="M 503.75 256 L 503.75 272 504.25 272 504.25 256 Z "/>
<path id="p204" fill="rgb(0,0,255)" d="M 480 279.75 L 496 279.75 496 280.25 480 280.25 Z "/>
<path id="p205" fill="rgb(0,0,255)" d="M 487.75 272 L 487.75 288 488.25 288 488.25 272 Z "/>
<path id="p206" fill="rgb(0,0,255)" d="M 448 303.75 L 480 303.75 480 304.25 448 304.25 Z "/>
<path id="p207" fill="rgb(0,0,255)" d="M 463.75 288 L 463.75 320 464.25 320 464.25 288 Z "/>
<path id="p208" fill="rgb(0,0,255)" d="M 464 295.75 L 480 295.75 480 296.25 464 296.25 Z "/>
<path id="p209" fill="rgb(0,0,255)" d="M 471.75 288 L 471.75 304 472.25 304 472.25 288 Z "/>
<path id="p210" fill="rgb(0,0,255)" d="M 448 311.75 L 464 311.75 464 312.25 448 312.25 Z "/>
<path id="p211" fill="rgb(0,0,255)" d="M 455.75 304 L 455.75 320 456.25 320 456.25 304 Z "/>
<path id="p212" fill="rgb(0,0,255)" d="M 384 351.75 L 448 351.75 448 352.25 384 352.25 Z "/>
<path id="p213" fill="rgb(0,0,255)" d="M 415.75 320 L 415.75 384 416.25 384 416.25 320 Z "/>
<path id="p214" fill="rgb(0,0,255)" d="M 416 335.75 L 448 335.75 448 336.25 416 336.25 Z "/>
<path id="p215" fill="rgb(0,0,255)" d="M 431.75 320 L 431.75 352 432.25 352 432.25 320 Z "/>
<path id="p216" fill="rgb(0,0,255)" d="M 432 327.75 L 448 327.75 448 328.25 432 328.25 Z "/>
<path id="p217" fill="rgb(0,0,255)" d="M 439.75 320 L 439.75 336 440.25 336 440.25 320 Z "/>
<path id="p218" fill="rgb(0,0,255)" d="M 416 343.75 L 432 343.75 432 344.25 416 344.25 Z "/>
<path id="p219" fill="rgb(0,0,255)" d="M 423.75 336 L 423.75 352 424.25 352 424.25 336 Z "/>
<path id="p220" fill="rgb(0,0,255)" d="M 384 367.75 L 416 367.75 416 368.25 384 368.25 Z "/>
<path id="p221" fill="rgb(0,0,255)" d="M 399.75 352 L 399.75 384 400.25 384 400.25 352 Z "/>
<path id="p222" fill="rgb(0,0,255)" d="M 400 359.75 L 416 359.75 416 360.25 400 360.25 Z "/>
<path id="p223" fill="rgb(0,0,255)" d="M 407.75 352 L 407.75 368 408.25 368 408.25 352 Z "/>
<path id="p224" fill="rgb(0,0,255)" d="M 384 375.75 L 400 375.75 400 376.25 384 376.25 Z "/>
<path id="p225" fill="rgb(0,0,255)" d="M 391.75 368 L 391.75 384 392.25 384 392.25 368 Z "/>
<path id="p226" fill="rgb(0,0,255)" d="M 256 447.75 L 384 447.75 384 448.25 256 448.25 Z "/>
<path id="p227" fill="rgb(0,0,255)" d="M 319.75 384 L 319.75 512 320.25 512 320.25 384 Z "/>
<path id="p228" fill="rgb(0,0,255)" d="M 320 415.75 L 384 415.75 384 416.25 320 416.25 Z "/>
<path id="p229" fill="rgb(0,0,255)" d="M 351.75 384 L 351.75 448 352.25 448 352.25 384 Z "/>
<path id="p230" fill="rgb(0,0,255)" d="M 352 399.75 L 384 399.75 384 400.25 352 400.25 Z "/>
<path id="p231" fill="rgb(0,0,255)" d="M 367.75 384 L 367.75 416 368.25 416 368.25 384 Z "/>
<path id="p232" fill="rgb(0,0,255)" d="M 368 391.75 L 384 391.75 384 392.25 368 392.25 Z "/>
<path id="p233" fill="rgb(0,0,255)" d="M 375.75 384 L 375.75 400 376.25 400 376.25 384 Z "/>
<path id="p234" fill="rgb(0,0,255)" d="M 352 407.75 L 368 407.75 368 408.25 352 408.25 Z "/>
<path id="p235" fill="rgb(0,0,255)" d="M 359.75 400 L 359.75 416 360.25 416 360.25 400 Z "/>
<path id="p236" fill="rgb(0,0,255)" d="M 320 431.75 L 352 431.75 352 432.25 320 432.25 Z "/>
<path id="p237" fill="rgb(0,0,255)" d="M 335.75 416 L 335.75 448 336.25 448 336.25 416 Z "/>
<path id="p238" fill="rgb(0,0,255)" d="M 336 423.75 L 352 423.75 352 424.25 336 424.25 Z "/>
<path id="p239" fill="rgb(0,0,255)" d="M 343.75 416 L 343.75 432 344.25 432 344.25 416 Z "/>
<path id="p240" fill="rgb(0,0,255)" d="M 320 439.75 L 336 439.75 336 440.25 320 440.25 Z "/>
<path id="p241" fill="rgb(0,0,255)" d="M 327.75 432 L 327.75 448 328.25 448 328.25 432 Z "/>
<path id="p242" fill="rgb(0,0,255)" d="M 256 479.75 L 320 479.75 320 480.25 256 480.25 Z "/>
<path id="p243" fill="rgb(0,0,255)" d="M 287.75 448 L 287.75 512 288.25 512 288.25 448 Z "/>
<path id="p244" fill="rgb(0,0,255)" d="M 288 463.75 L 320 463.75 320 464.25 288 464.25 Z "/>
<path id="p245" fill="rgb(0,0,255)" d="M 303.75 448 L 303.75 480 304.25 480 304.25 448 Z "/>
<path id="p246" fill="rgb(0,0,255)" d="M 304 455.75 L 320 455.75 320 456.25 304 456.25 Z "/>
<path id="p247" fill="rgb(0,0,255)" d="M 311.75 448 L 311.75 464 312.25 464 312.25 448 Z "/>
<path id="p248" fill="rgb(0,0,255)" d="M 288 471.75 L 304 471.75 304 472.25 288 472.25 Z "/>
<path id="p249" fill="rgb(0,0,255)" d="M 295.75 464 L 295.75 480 296.25 480 296.25 464 Z "/>
<path id="p250" fill="rgb(0,0,255)" d="M 256 495.75 L 288 495.75 288 496.25 256 496.25 Z "/>
<path id="p251" fill="rgb(0,0,255)" d="M 271.75 480 L 271.75 512 272.25 512 272.25 480 Z "/>
<path id="p252" fill="rgb(0,0,255)" d="M 272 487.75 L 288 487.75 288 488.25 272 488.25 Z "/>
<path id="p253" fill="rgb(0,0,255)" d="M 279.75 480 L 279.75 496 280.25 496 280.25 480 Z "/>
<path id="p254" fill="rgb(0,0,255)" d="M 256 503.75 L 272 503.75 272 504.25 256 504.25 Z "/>
<path id="p255" fill="rgb(0,0,255)" d="M 263.75 496 L 263.75 512 264.25 512 264.25 496 Z "/>
</g>
</svg>
