<?xml version="1.0" standalone="no"?>
<svg
    xmlns:xlink="http://www.w3.org/1999/xlink"
    xmlns:dc="http://purl.org/dc/elements/1.1/"
    xmlns:cc="http://creativecommons.org/ns#"
    xmlns:rdf="http://www.w3.org/1999/02/22-rdf-syntax-ns#"
    xmlns:svg="http://www.w3.org/2000/svg"
    xmlns="http://www.w3.org/2000/svg"
    version="1.1"
    viewBox="0 0 512 512">
<defs>
<linearGradient id="linear1" gradientUnits="userSpaceOnUse" x1="0" y1="0" x2="200" y2="200" spreadMethod="pad" gradientTransform="matrix(0.499995, 0.499995, -0.499995, 0.499995, 100, 0.000959005)">
<stop offset="0" stop-color="rgb(255,0,0)" stop-opacity="1"/>
<stop offset="1" stop-color="rgb(0,255,0)" stop-opacity="1"/>
</linearGradient>
</defs>
<g transform="translate(0, 512) scale(1, -1)">
<path id="p1" fill="url(#linear1)" d="M 256 0.0024550528 L 511.99744 255.9998950528 256 511.9973350528 0.0025599999999883 255.9998950528 256 0.0024550528 Z "/>
<path id="p2" fill="rgb(0,0,255)" d="M 0 -0.25 L 512 -0.25 512 0.25 0 0.25 Z "/>
<path id="p3" fill="rgb(0,0,255)" d="M 0 511.75 L 512 511.75 512 512.25 0 512.25 Z "/>
<path id="p4" fill="rgb(0,0,255)" d="M -0.25 0 L -0.25 512 0.25 512 0.25 0 Z "/>
<path id="p5" fill="rgb(0,0,255)" d="M 511.75 0 L 511.75 512 512.25 512 512.25 0 Z "/>
<path id="p6" fill="rgb(0,0,255)" d="M 0 255.75 L 512 255.75 512 256.25 0 256.25 Z "/>
<path id="p7" fill="rgb(0,0,255)" d="M 255.75 0 L 255.75 512 256.25 512 256.25 0 Z "/>
<path id="p8" fill="rgb(0,0,255)" d="M 0 127.75 L 256 127.75 256 128.25 0 128.25 Z "/>
<path id="p9" fill="rgb(0,0,255)" d="M 127.75 0 L 127.75 256 128.25 256 128.25 0 Z "/>
<path id="p10" fill="rgb(0,0,255)" d="M 128 63.75 L 256 63.75 256 64.25 128 64.25 Z "/>
<path id="p11" fill="rgb(0,0,255)" d="M 191.75 0 L 191.75 128 192.25 128 192.25 0 Z "/>
<path id="p12" fill="rgb(0,0,255)" d="M 192 31.75 L 256 31.75 256 32.25 192 32.25 Z "/>
<path id="p13" fill="rgb(0,0,255)" d="M 223.75 0 L 223.75 64 224.25 64 224.25 0 Z "/>
<path id="p14" fill="rgb(0,0,255)" d="M 224 15.75 L 256 15.75 256 16.25 224 16.25 Z "/>
<path id="p15" fill="rgb(0,0,255)" d="M 239.75 0 L 239.75 32 240.25 32 240.25 0 Z "/>
<path id="p16" fill="rgb(0,0,255)" d="M 240 7.75 L 256 7.75 256 8.25 240 8.25 Z "/>
<path id="p17" fill="rgb(0,0,255)" d="M 247.75 0 L 247.75 16 248.25 16 248.25 0 Z "/>
<path id="p18" fill="rgb(0,0,255)" d="M 248 3.75 L 256 3.75 256 4.25 248 4.25 Z "/>
<path id="p19" fill="rgb(0,0,255)" d="M 251.75 0 L 251.75 8 252.25 8 252.25 0 Z "/>
<path id="p20" fill="rgb(0,0,255)" d="M 240 11.75 L 248 11.75 248 12.25 240 12.25 Z "/>
<path id="p21" fill="rgb(0,0,255)" d="M 243.75 8 L 243.75 16 244.25 16 244.25 8 Z "/>
<path id="p22" fill="rgb(0,0,255)" d="M 224 23.75 L 240 23.75 240 24.25 224 24.25 Z "/>
<path id="p23" fill="rgb(0,0,255)" d="M 231.75 16 L 231.75 32 232.25 32 232.25 16 Z "/>
<path id="p24" fill="rgb(0,0,255)" d="M 232 19.75 L 240 19.75 240 20.25 232 20.25 Z "/>
<path id="p25" fill="rgb(0,0,255)" d="M 235.75 16 L 235.75 24 236.25 24 236.25 16 Z "/>
<path id="p26" fill="rgb(0,0,255)" d="M 224 27.75 L 232 27.75 232 28.25 224 28.25 Z "/>
<path id="p27" fill="rgb(0,0,255)" d="M 227.75 24 L 227.75 32 228.25 32 228.25 24 Z "/>
<path id="p28" fill="rgb(0,0,255)" d="M 192 47.75 L 224 47.75 224 48.25 192 48.25 Z "/>
<path id="p29" fill="rgb(0,0,255)" d="M 207.75 32 L 207.75 64 208.25 64 208.25 32 Z "/>
<path id="p30" fill="rgb(0,0,255)" d="M 208 39.75 L 224 39.75 224 40.25 208 40.25 Z "/>
<path id="p31" fill="rgb(0,0,255)" d="M 215.75 32 L 215.75 48 216.25 48 216.25 32 Z "/>
<path id="p32" fill="rgb(0,0,255)" d="M 216 35.75 L 224 35.75 224 36.25 216 36.25 Z "/>
<path id="p33" fill="rgb(0,0,255)" d="M 219.75 32 L 219.75 40 220.25 40 220.25 32 Z "/>
<path id="p34" fill="rgb(0,0,255)" d="M 208 43.75 L 216 43.75 216 44.25 208 44.25 Z "/>
<path id="p35" fill="rgb(0,0,255)" d="M 211.75 40 L 211.75 48 212.25 48 212.25 40 Z "/>
<path id="p36" fill="rgb(0,0,255)" d="M 192 55.75 L 208 55.75 208 56.25 192 56.25 Z "/>
<path id="p37" fill="rgb(0,0,255)" d="M 199.75 48 L 199.75 64 200.25 64 200.25 48 Z "/>
<path id="p38" fill="rgb(0,0,255)" d="M 200 51.75 L 208 51.75 208 52.25 200 52.25 Z "/>
<path id="p39" fill="rgb(0,0,255)" d="M 203.75 48 L 203.75 56 204.25 56 204.25 48 Z "/>
<path id="p40" fill="rgb(0,0,255)" d="M 192 59.75 L 200 59.75 200 60.25 192 60.25 Z "/>
<path id="p41" fill="rgb(0,0,255)" d="M 195.75 56 L 195.75 64 196.25 64 196.25 56 Z "/>
<path id="p42" fill="rgb(0,0,255)" d="M 128 95.75 L 192 95.75 192 96.25 128 96.25 Z "/>
<path id="p43" fill="rgb(0,0,255)" d="M 159.75 64 L 159.75 128 160.25 128 160.25 64 Z "/>
<path id="p44" fill="rgb(0,0,255)" d="M 160 79.75 L 192 79.75 192 80.25 160 80.25 Z "/>
<path id="p45" fill="rgb(0,0,255)" d="M 175.75 64 L 175.75 96 176.25 96 176.25 64 Z "/>
<path id="p46" fill="rgb(0,0,255)" d="M 176 71.75 L 192 71.75 192 72.25 176 72.25 Z "/>
<path id="p47" fill="rgb(0,0,255)" d="M 183.75 64 L 183.75 80 184.25 80 184.25 64 Z "/>
<path id="p48" fill="rgb(0,0,255)" d="M 184 67.75 L 192 67.75 192 68.25 184 68.25 Z "/>
<path id="p49" fill="rgb(0,0,255)" d="M 187.75 64 L 187.75 72 188.25 72 188.25 64 Z "/>
<path id="p50" fill="rgb(0,0,255)" d="M 176 75.75 L 184 75.75 184 76.25 176 76.25 Z "/>
<path id="p51" fill="rgb(0,0,255)" d="M 179.75 72 L 179.75 80 180.25 80 180.25 72 Z "/>
<path id="p52" fill="rgb(0,0,255)" d="M 160 87.75 L 176 87.75 176 88.25 160 88.25 Z "/>
<path id="p53" fill="rgb(0,0,255)" d="M 167.75 80 L 167.75 96 168.25 96 168.25 80 Z "/>
<path id="p54" fill="rgb(0,0,255)" d="M 168 83.75 L 176 83.75 176 84.25 168 84.25 Z "/>
<path id="p55" fill="rgb(0,0,255)" d="M 171.75 80 L 171.75 88 172.25 88 172.25 80 Z "/>
<path id="p56" fill="rgb(0,0,255)" d="M 160 91.75 L 168 91.75 168 92.25 160 92.25 Z "/>
<path id="p57" fill="rgb(0,0,255)" d="M 163.75 88 L 163.75 96 164.25 96 164.25 88 Z "/>
<path id="p58" fill="rgb(0,0,255)" d="M 128 111.75 L 160 111.75 160 112.25 128 112.25 Z "/>
<path id="p59" fill="rgb(0,0,255)" d="M 143.75 96 L 143.75 128 144.25 128 144.25 96 Z "/>
<path id="p60" fill="rgb(0,0,255)" d="M 144 103.75 L 160 103.75 160 104.25 144 104.25 Z "/>
<path id="p61" fill="rgb(0,0,255)" d="M 151.75 96 L 151.75 112 152.25 112 152.25 96 Z "/>
<path id="p62" fill="rgb(0,0,255)" d="M 152 99.75 L 160 99.75 160 100.25 152 100.25 Z "/>
<path id="p63" fill="rgb(0,0,255)" d="M 155.75 96 L 155.75 104 156.25 104 156.25 96 Z "/>
<path id="p64" fill="rgb(0,0,255)" d="M 144 107.75 L 152 107.75 152 108.25 144 108.25 Z "/>
<path id="p65" fill="rgb(0,0,255)" d="M 147.75 104 L 147.75 112 148.25 112 148.25 104 Z "/>
<path id="p66" fill="rgb(0,0,255)" d="M 128 119.75 L 144 119.75 144 120.25 128 120.25 Z "/>
<path id="p67" fill="rgb(0,0,255)" d="M 135.75 112 L 135.75 128 136.25 128 136.25 112 Z "/>
<path id="p68" fill="rgb(0,0,255)" d="M 136 115.75 L 144 115.75 144 116.25 136 116.25 Z "/>
<path id="p69" fill="rgb(0,0,255)" d="M 139.75 112 L 139.75 120 140.25 120 140.25 112 Z "/>
<path id="p70" fill="rgb(0,0,255)" d="M 128 123.75 L 136 123.75 136 124.25 128 124.25 Z "/>
<path id="p71" fill="rgb(0,0,255)" d="M 131.75 120 L 131.75 128 132.25 128 132.25 120 Z "/>
<path id="p72" fill="rgb(0,0,255)" d="M 0 191.75 L 128 191.75 128 192.25 0 192.25 Z "/>
<path id="p73" fill="rgb(0,0,255)" d="M 63.75 128 L 63.75 256 64.25 256 64.25 128 Z "/>
<path id="p74" fill="rgb(0,0,255)" d="M 64 159.75 L 128 159.75 128 160.25 64 160.25 Z "/>
<path id="p75" fill="rgb(0,0,255)" d="M 95.75 128 L 95.75 192 96.25 192 96.25 128 Z "/>
<path id="p76" fill="rgb(0,0,255)" d="M 96 143.75 L 128 143.75 128 144.25 96 144.25 Z "/>
<path id="p77" fill="rgb(0,0,255)" d="M 111.75 128 L 111.75 160 112.25 160 112.25 128 Z "/>
<path id="p78" fill="rgb(0,0,255)" d="M 112 135.75 L 128 135.75 128 136.25 112 136.25 Z "/>
<path id="p79" fill="rgb(0,0,255)" d="M 119.75 128 L 119.75 144 120.25 144 120.25 128 Z "/>
<path id="p80" fill="rgb(0,0,255)" d="M 120 131.75 L 128 131.75 128 132.25 120 132.25 Z "/>
<path id="p81" fill="rgb(0,0,255)" d="M 123.75 128 L 123.75 136 124.25 136 124.25 128 Z "/>
<path id="p82" fill="rgb(0,0,255)" d="M 112 139.75 L 120 139.75 120 140.25 112 140.25 Z "/>
<path id="p83" fill="rgb(0,0,255)" d="M 115.75 136 L 115.75 144 116.25 144 116.25 136 Z "/>
<path id="p84" fill="rgb(0,0,255)" d="M 96 151.75 L 112 151.75 112 152.25 96 152.25 Z "/>
<path id="p85" fill="rgb(0,0,255)" d="M 103.75 144 L 103.75 160 104.25 160 104.25 144 Z "/>
<path id="p86" fill="rgb(0,0,255)" d="M 104 147.75 L 112 147.75 112 148.25 104 148.25 Z "/>
<path id="p87" fill="rgb(0,0,255)" d="M 107.75 144 L 107.75 152 108.25 152 108.25 144 Z "/>
<path id="p88" fill="rgb(0,0,255)" d="M 96 155.75 L 104 155.75 104 156.25 96 156.25 Z "/>
<path id="p89" fill="rgb(0,0,255)" d="M 99.75 152 L 99.75 160 100.25 160 100.25 152 Z "/>
<path id="p90" fill="rgb(0,0,255)" d="M 64 175.75 L 96 175.75 96 176.25 64 176.25 Z "/>
<path id="p91" fill="rgb(0,0,255)" d="M 79.75 160 L 79.75 192 80.25 192 80.25 160 Z "/>
<path id="p92" fill="rgb(0,0,255)" d="M 80 167.75 L 96 167.75 96 168.25 80 168.25 Z "/>
<path id="p93" fill="rgb(0,0,255)" d="M 87.75 160 L 87.75 176 88.25 176 88.25 160 Z "/>
<path id="p94" fill="rgb(0,0,255)" d="M 88 163.75 L 96 163.75 96 164.25 88 164.25 Z "/>
<path id="p95" fill="rgb(0,0,255)" d="M 91.75 160 L 91.75 168 92.25 168 92.25 160 Z "/>
<path id="p96" fill="rgb(0,0,255)" d="M 80 171.75 L 88 171.75 88 172.25 80 172.25 Z "/>
<path id="p97" fill="rgb(0,0,255)" d="M 83.75 168 L 83.75 176 84.25 176 84.25 168 Z "/>
<path id="p98" fill="rgb(0,0,255)" d="M 64 183.75 L 80 183.75 80 184.25 64 184.25 Z "/>
<path id="p99" fill="rgb(0,0,255)" d="M 71.75 176 L 71.75 192 72.25 192 72.25 176 Z "/>
<path id="p100" fill="rgb(0,0,255)" d="M 72 179.75 L 80 179.75 80 180.25 72 180.25 Z "/>
<path id="p101" fill="rgb(0,0,255)" d="M 75.75 176 L 75.75 184 76.25 184 76.25 176 Z "/>
<path id="p102" fill="rgb(0,0,255)" d="M 64 187.75 L 72 187.75 72 188.25 64 188.25 Z "/>
<path id="p103" fill="rgb(0,0,255)" d="M 67.75 184 L 67.75 192 68.25 192 68.25 184 Z "/>
<path id="p104" fill="rgb(0,0,255)" d="M 0 223.75 L 64 223.75 64 224.25 0 224.25 Z "/>
<path id="p105" fill="rgb(0,0,255)" d="M 31.75 192 L 31.75 256 32.25 256 32.25 192 Z "/>
<path id="p106" fill="rgb(0,0,255)" d="M 32 207.75 L 64 207.75 64 208.25 32 208.25 Z "/>
<path id="p107" fill="rgb(0,0,255)" d="M 47.75 192 L 47.75 224 48.25 224 48.25 192 Z "/>
<path id="p108" fill="rgb(0,0,255)" d="M 48 199.75 L 64 199.75 64 200.25 48 200.25 Z "/>
<path id="p109" fill="rgb(0,0,255)" d="M 55.75 192 L 55.75 208 56.25 208 56.25 192 Z "/>
<path id="p110" fill="rgb(0,0,255)" d="M 56 195.75 L 64 195.75 64 196.25 56 196.25 Z "/>
<path id="p111" fill="rgb(0,0,255)" d="M 59.75 192 L 59.75 200 60.25 200 60.25 192 Z "/>
<path id="p112" fill="rgb(0,0,255)" d="M 48 203.75 L 56 203.75 56 204.25 48 204.25 Z "/>
<path id="p113" fill="rgb(0,0,255)" d="M 51.75 200 L 51.75 208 52.25 208 52.25 200 Z "/>
<path id="p114" fill="rgb(0,0,255)" d="M 32 215.75 L 48 215.75 48 216.25 32 216.25 Z "/>
<path id="p115" fill="rgb(0,0,255)" d="M 39.75 208 L 39.75 224 40.25 224 40.25 208 Z "/>
<path id="p116" fill="rgb(0,0,255)" d="M 40 211.75 L 48 211.75 48 212.25 40 212.25 Z "/>
<path id="p117" fill="rgb(0,0,255)" d="M 43.75 208 L 43.75 216 44.25 216 44.25 208 Z "/>
<path id="p118" fill="rgb(0,0,255)" d="M 32 219.75 L 40 219.75 40 220.25 32 220.25 Z "/>
<path id="p119" fill="rgb(0,0,255)" d="M 35.75 216 L 35.75 224 36.25 224 36.25 216 Z "/>
<path id="p120" fill="rgb(0,0,255)" d="M 0 239.75 L 32 239.75 32 240.25 0 240.25 Z "/>
<path id="p121" fill="rgb(0,0,255)" d="M 15.75 224 L 15.75 256 16.25 256 16.25 224 Z "/>
<path id="p122" fill="rgb(0,0,255)" d="M 16 231.75 L 32 231.75 32 232.25 16 232.25 Z "/>
<path id="p123" fill="rgb(0,0,255)" d="M 23.75 224 L 23.75 240 24.25 240 24.25 224 Z "/>
<path id="p124" fill="rgb(0,0,255)" d="M 24 227.75 L 32 227.75 32 228.25 24 228.25 Z "/>
<path id="p125" fill="rgb(0,0,255)" d="M 27.75 224 L 27.75 232 28.25 232 28.25 224 Z "/>
<path id="p126" fill="rgb(0,0,255)" d="M 16 235.75 L 24 235.75 24 236.25 16 236.25 Z "/>
<path id="p127" fill="rgb(0,0,255)" d="M 19.75 232 L 19.75 240 20.25 240 20.25 232 Z "/>
<path id="p128" fill="rgb(0,0,255)" d="M 0 247.75 L 16 247.75 16 248.25 0 248.25 Z "/>
<path id="p129" fill="rgb(0,0,255)" d="M 7.75 240 L 7.75 256 8.25 256 8.25 240 Z "/>
<path id="p130" fill="rgb(0,0,255)" d="M 8 243.75 L 16 243.75 16 244.25 8 244.25 Z "/>
<path id="p131" fill="rgb(0,0,255)" d="M 11.75 240 L 11.75 248 12.25 248 12.25 240 Z "/>
<path id="p132" fill="rgb(0,0,255)" d="M 0 251.75 L 8 251.75 8 252.25 0 252.25 Z "/>
<path id="p133" fill="rgb(0,0,255)" d="M 3.75 248 L 3.75 256 4.25 256 4.25 248 Z "/>
<path id="p134" fill="rgb(0,0,255)" d="M 256 127.75 L 512 127.75 512 128.25 256 128.25 Z "/>
<path id="p135" fill="rgb(0,0,255)" d="M 383.75 0 L 383.75 256 384.25 256 384.25 0 Z "/>
<path id="p136" fill="rgb(0,0,255)" d="M 256 63.75 L 384 63.75 384 64.25 256 64.25 Z "/>
<path id="p137" fill="rgb(0,0,255)" d="M 319.75 0 L 319.75 128 320.25 128 320.25 0 Z "/>
<path id="p138" fill="rgb(0,0,255)" d="M 256 31.75 L 320 31.75 320 32.25 256 32.25 Z "/>
<path id="p139" fill="rgb(0,0,255)" d="M 287.75 0 L 287.75 64 288.25 64 288.25 0 Z "/>
<path id="p140" fill="rgb(0,0,255)" d="M 256 15.75 L 288 15.75 288 16.25 256 16.25 Z "/>
<path id="p141" fill="rgb(0,0,255)" d="M 271.75 0 L 271.75 32 272.25 32 272.25 0 Z "/>
<path id="p142" fill="rgb(0,0,255)" d="M 256 7.75 L 272 7.75 272 8.25 256 8.25 Z "/>
<path id="p143" fill="rgb(0,0,255)" d="M 263.75 0 L 263.75 16 264.25 16 264.25 0 Z "/>
<path id="p144" fill="rgb(0,0,255)" d="M 256 3.75 L 264 3.75 264 4.25 256 4.25 Z "/>
<path id="p145" fill="rgb(0,0,255)" d="M 259.75 0 L 259.75 8 260.25 8 260.25 0 Z "/>
<path id="p146" fill="rgb(0,0,255)" d="M 264 11.75 L 272 11.75 272 12.25 264 12.25 Z "/>
<path id="p147" fill="rgb(0,0,255)" d="M 267.75 8 L 267.75 16 268.25 16 268.25 8 Z "/>
<path id="p148" fill="rgb(0,0,255)" d="M 272 23.75 L 288 23.75 288 24.25 272 24.25 Z "/>
<path id="p149" fill="rgb(0,0,255)" d="M 279.75 16 L 279.75 32 280.25 32 280.25 16 Z "/>
<path id="p150" fill="rgb(0,0,255)" d="M 272 19.75 L 280 19.75 280 20.25 272 20.25 Z "/>
<path id="p151" fill="rgb(0,0,255)" d="M 275.75 16 L 275.75 24 276.25 24 276.25 16 Z "/>
<path id="p152" fill="rgb(0,0,255)" d="M 280 27.75 L 288 27.75 288 28.25 280 28.25 Z "/>
<path id="p153" fill="rgb(0,0,255)" d="M 283.75 24 L 283.75 32 284.25 32 284.25 24 Z "/>
<path id="p154" fill="rgb(0,0,255)" d="M 288 47.75 L 320 47.75 320 48.25 288 48.25 Z "/>
<path id="p155" fill="rgb(0,0,255)" d="M 303.75 32 L 303.75 64 304.25 64 304.25 32 Z "/>
<path id="p156" fill="rgb(0,0,255)" d="M 288 39.75 L 304 39.75 304 40.25 288 40.25 Z "/>
<path id="p157" fill="rgb(0,0,255)" d="M 295.75 32 L 295.75 48 296.25 48 296.25 32 Z "/>
<path id="p158" fill="rgb(0,0,255)" d="M 288 35.75 L 296 35.75 296 36.25 288 36.25 Z "/>
<path id="p159" fill="rgb(0,0,255)" d="M 291.75 32 L 291.75 40 292.25 40 292.25 32 Z "/>
<path id="p160" fill="rgb(0,0,255)" d="M 296 43.75 L 304 43.75 304 44.25 296 44.25 Z "/>
<path id="p161" fill="rgb(0,0,255)" d="M 299.75 40 L 299.75 48 300.25 48 300.25 40 Z "/>
<path id="p162" fill="rgb(0,0,255)" d="M 304 55.75 L 320 55.75 320 56.25 304 56.25 Z "/>
<path id="p163" fill="rgb(0,0,255)" d="M 311.75 48 L 311.75 64 312.25 64 312.25 48 Z "/>
<path id="p164" fill="rgb(0,0,255)" d="M 304 51.75 L 312 51.75 312 52.25 304 52.25 Z "/>
<path id="p165" fill="rgb(0,0,255)" d="M 307.75 48 L 307.75 56 308.25 56 308.25 48 Z "/>
<path id="p166" fill="rgb(0,0,255)" d="M 312 59.75 L 320 59.75 320 60.25 312 60.25 Z "/>
<path id="p167" fill="rgb(0,0,255)" d="M 315.75 56 L 315.75 64 316.25 64 316.25 56 Z "/>
<path id="p168" fill="rgb(0,0,255)" d="M 320 95.75 L 384 95.75 384 96.25 320 96.25 Z "/>
<path id="p169" fill="rgb(0,0,255)" d="M 351.75 64 L 351.75 128 352.25 128 352.25 64 Z "/>
<path id="p170" fill="rgb(0,0,255)" d="M 320 79.75 L 352 79.75 352 80.25 320 80.25 Z "/>
<path id="p171" fill="rgb(0,0,255)" d="M 335.75 64 L 335.75 96 336.25 96 336.25 64 Z "/>
<path id="p172" fill="rgb(0,0,255)" d="M 320 71.75 L 336 71.75 336 72.25 320 72.25 Z "/>
<path id="p173" fill="rgb(0,0,255)" d="M 327.75 64 L 327.75 80 328.25 80 328.25 64 Z "/>
<path id="p174" fill="rgb(0,0,255)" d="M 320 67.75 L 328 67.75 328 68.25 320 68.25 Z "/>
<path id="p175" fill="rgb(0,0,255)" d="M 323.75 64 L 323.75 72 324.25 72 324.25 64 Z "/>
<path id="p176" fill="rgb(0,0,255)" d="M 328 75.75 L 336 75.75 336 76.25 328 76.25 Z "/>
<path id="p177" fill="rgb(0,0,255)" d="M 331.75 72 L 331.75 80 332.25 80 332.25 72 Z "/>
<path id="p178" fill="rgb(0,0,255)" d="M 336 87.75 L 352 87.75 352 88.25 336 88.25 Z "/>
<path id="p179" fill="rgb(0,0,255)" d="M 343.75 80 L 343.75 96 344.25 96 344.25 80 Z "/>
<path id="p180" fill="rgb(0,0,255)" d="M 336 83.75 L 344 83.75 344 84.25 336 84.25 Z "/>
<path id="p181" fill="rgb(0,0,255)" d="M 339.75 80 L 339.75 88 340.25 88 340.25 80 Z "/>
<path id="p182" fill="rgb(0,0,255)" d="M 344 91.75 L 352 91.75 352 92.25 344 92.25 Z "/>
<path id="p183" fill="rgb(0,0,255)" d="M 347.75 88 L 347.75 96 348.25 96 348.25 88 Z "/>
<path id="p184" fill="rgb(0,0,255)" d="M 352 111.75 L 384 111.75 384 112.25 352 112.25 Z "/>
<path id="p185" fill="rgb(0,0,255)" d="M 367.75 96 L 367.75 128 368.25 128 368.25 96 Z "/>
<path id="p186" fill="rgb(0,0,255)" d="M 352 103.75 L 368 103.75 368 104.25 352 104.25 Z "/>
<path id="p187" fill="rgb(0,0,255)" d="M 359.75 96 L 359.75 112 360.25 112 360.25 96 Z "/>
<path id="p188" fill="rgb(0,0,255)" d="M 352 99.75 L 360 99.75 360 100.25 352 100.25 Z "/>
<path id="p189" fill="rgb(0,0,255)" d="M 355.75 96 L 355.75 104 356.25 104 356.25 96 Z "/>
<path id="p190" fill="rgb(0,0,255)" d="M 360 107.75 L 368 107.75 368 108.25 360 108.25 Z "/>
<path id="p191" fill="rgb(0,0,255)" d="M 363.75 104 L 363.75 112 364.25 112 364.25 104 Z "/>
<path id="p192" fill="rgb(0,0,255)" d="M 368 119.75 L 384 119.75 384 120.25 368 120.25 Z "/>
<path id="p193" fill="rgb(0,0,255)" d="M 375.75 112 L 375.75 128 376.25 128 376.25 112 Z "/>
<path id="p194" fill="rgb(0,0,255)" d="M 368 115.75 L 376 115.75 376 116.25 368 116.25 Z "/>
<path id="p195" fill="rgb(0,0,255)" d="M 371.75 112 L 371.75 120 372.25 120 372.25 112 Z "/>
<path id="p196" fill="rgb(0,0,255)" d="M 376 123.75 L 384 123.75 384 124.25 376 124.25 Z "/>
<path id="p197" fill="rgb(0,0,255)" d="M 379.75 120 L 379.75 128 380.25 128 380.25 120 Z "/>
<path id="p198" fill="rgb(0,0,255)" d="M 384 191.75 L 512 191.75 512 192.25 384 192.25 Z "/>
<path id="p199" fill="rgb(0,0,255)" d="M 447.75 128 L 447.75 256 448.25 256 448.25 128 Z "/>
<path id="p200" fill="rgb(0,0,255)" d="M 384 159.75 L 448 159.75 448 160.25 384 160.25 Z "/>
<path id="p201" fill="rgb(0,0,255)" d="M 415.75 128 L 415.75 192 416.25 192 416.25 128 Z "/>
<path id="p202" fill="rgb(0,0,255)" d="M 384 143.75 L 416 143.75 416 144.25 384 144.25 Z "/>
<path id="p203" fill="rgb(0,0,255)" d="M 399.75 128 L 399.75 160 400.25 160 400.25 128 Z "/>
<path id="p204" fill="rgb(0,0,255)" d="M 384 135.75 L 400 135.75 400 136.25 384 136.25 Z "/>
<path id="p205" fill="rgb(0,0,255)" d="M 391.75 128 L 391.75 144 392.25 144 392.25 128 Z "/>
<path id="p206" fill="rgb(0,0,255)" d="M 384 131.75 L 392 131.75 392 132.25 384 132.25 Z "/>
<path id="p207" fill="rgb(0,0,255)" d="M 387.75 128 L 387.75 136 388.25 136 388.25 128 Z "/>
<path id="p208" fill="rgb(0,0,255)" d="M 392 139.75 L 400 139.75 400 140.25 392 140.25 Z "/>
<path id="p209" fill="rgb(0,0,255)" d="M 395.75 136 L 395.75 144 396.25 144 396.25 136 Z "/>
<path id="p210" fill="rgb(0,0,255)" d="M 400 151.75 L 416 151.75 416 152.25 400 152.25 Z "/>
<path id="p211" fill="rgb(0,0,255)" d="M 407.75 144 L 407.75 160 408.25 160 408.25 144 Z "/>
<path id="p212" fill="rgb(0,0,255)" d="M 400 147.75 L 408 147.75 408 148.25 400 148.25 Z "/>
<path id="p213" fill="rgb(0,0,255)" d="M 403.75 144 L 403.75 152 404.25 152 404.25 144 Z "/>
<path id="p214" fill="rgb(0,0,255)" d="M 408 155.75 L 416 155.75 416 156.25 408 156.25 Z "/>
<path id="p215" fill="rgb(0,0,255)" d="M 411.75 152 L 411.75 160 412.25 160 412.25 152 Z "/>
<path id="p216" fill="rgb(0,0,255)" d="M 416 175.75 L 448 175.75 448 176.25 416 176.25 Z "/>
<path id="p217" fill="rgb(0,0,255)" d="M 431.75 160 L 431.75 192 432.25 192 432.25 160 Z "/>
<path id="p218" fill="rgb(0,0,255)" d="M 416 167.75 L 432 167.75 432 168.25 416 168.25 Z "/>
<path id="p219" fill="rgb(0,0,255)" d="M 423.75 160 L 423.75 176 424.25 176 424.25 160 Z "/>
<path id="p220" fill="rgb(0,0,255)" d="M 416 163.75 L 424 163.75 424 164.25 416 164.25 Z "/>
<path id="p221" fill="rgb(0,0,255)" d="M 419.75 160 L 419.75 168 420.25 168 420.25 160 Z "/>
<path id="p222" fill="rgb(0,0,255)" d="M 424 171.75 L 432 171.75 432 172.25 424 172.25 Z "/>
<path id="p223" fill="rgb(0,0,255)" d="M 427.75 168 L 427.75 176 428.25 176 428.25 168 Z "/>
<path id="p224" fill="rgb(0,0,255)" d="M 432 183.75 L 448 183.75 448 184.25 432 184.25 Z "/>
<path id="p225" fill="rgb(0,0,255)" d="M 439.75 176 L 439.75 192 440.25 192 440.25 176 Z "/>
<path id="p226" fill="rgb(0,0,255)" d="M 432 179.75 L 440 179.75 440 180.25 432 180.25 Z "/>
<path id="p227" fill="rgb(0,0,255)" d="M 435.75 176 L 435.75 184 436.25 184 436.25 176 Z "/>
<path id="p228" fill="rgb(0,0,255)" d="M 440 187.75 L 448 187.75 448 188.25 440 188.25 Z "/>
<path id="p229" fill="rgb(0,0,255)" d="M 443.75 184 L 443.75 192 444.25 192 444.25 184 Z "/>
<path id="p230" fill="rgb(0,0,255)" d="M 448 223.75 L 512 223.75 512 224.25 448 224.25 Z "/>
<path id="p231" fill="rgb(0,0,255)" d="M 479.75 192 L 479.75 256 480.25 256 480.25 192 Z "/>
<path id="p232" fill="rgb(0,0,255)" d="M 448 207.75 L 480 207.75 480 208.25 448 208.25 Z "/>
<path id="p233" fill="rgb(0,0,255)" d="M 463.75 192 L 463.75 224 464.25 224 464.25 192 Z "/>
<path id="p234" fill="rgb(0,0,255)" d="M 448 199.75 L 464 199.75 464 200.25 448 200.25 Z "/>
<path id="p235" fill="rgb(0,0,255)" d="M 455.75 192 L 455.75 208 456.25 208 456.25 192 Z "/>
<path id="p236" fill="rgb(0,0,255)" d="M 448 195.75 L 456 195.75 456 196.25 448 196.25 Z "/>
<path id="p237" fill="rgb(0,0,255)" d="M 451.75 192 L 451.75 200 452.25 200 452.25 192 Z "/>
<path id="p238" fill="rgb(0,0,255)" d="M 456 203.75 L 464 203.75 464 204.25 456 204.25 Z "/>
<path id="p239" fill="rgb(0,0,255)" d="M 459.75 200 L 459.75 208 460.25 208 460.25 200 Z "/>
<path id="p240" fill="rgb(0,0,255)" d="M 464 215.75 L 480 215.75 480 216.25 464 216.25 Z "/>
<path id="p241" fill="rgb(0,0,255)" d="M 471.75 208 L 471.75 224 472.25 224 472.25 208 Z "/>
<path id="p242" fill="rgb(0,0,255)" d="M 464 211.75 L 472 211.75 472 212.25 464 212.25 Z "/>
<path id="p243" fill="rgb(0,0,255)" d="M 467.75 208 L 467.75 216 468.25 216 468.25 208 Z "/>
<path id="p244" fill="rgb(0,0,255)" d="M 472 219.75 L 480 219.75 480 220.25 472 220.25 Z "/>
<path id="p245" fill="rgb(0,0,255)" d="M 475.75 216 L 475.75 224 476.25 224 476.25 216 Z "/>
<path id="p246" fill="rgb(0,0,255)" d="M 480 239.75 L 512 239.75 512 240.25 480 240.25 Z "/>
<path id="p247" fill="rgb(0,0,255)" d="M 495.75 224 L 495.75 256 496.25 256 496.25 224 Z "/>
<path id="p248" fill="rgb(0,0,255)" d="M 480 231.75 L 496 231.75 496 232.25 480 232.25 Z "/>
<path id="p249" fill="rgb(0,0,255)" d="M 487.75 224 L 487.75 240 488.25 240 488.25 224 Z "/>
<path id="p250" fill="rgb(0,0,255)" d="M 480 227.75 L 488 227.75 488 228.25 480 228.25 Z "/>
<path id="p251" fill="rgb(0,0,255)" d="M 483.75 224 L 483.75 232 484.25 232 484.25 224 Z "/>
<path id="p252" fill="rgb(0,0,255)" d="M 488 235.75 L 496 235.75 496 236.25 488 236.25 Z "/>
<path id="p253" fill="rgb(0,0,255)" d="M 491.75 232 L 491.75 240 492.25 240 492.25 232 Z "/>
<path id="p254" fill="rgb(0,0,255)" d="M 496 247.75 L 512 247.75 512 248.25 496 248.25 Z "/>
<path id="p255" fill="rgb(0,0,255)" d="M 503.75 240 L 503.75 256 504.25 256 504.25 240 Z "/>
<path id="p256" fill="rgb(0,0,255)" d="M 496 243.75 L 504 243.75 504 244.25 496 244.25 Z "/>
<path id="p257" fill="rgb(0,0,255)" d="M 499.75 240 L 499.75 248 500.25 248 500.25 240 Z "/>
<path id="p258" fill="rgb(0,0,255)" d="M 504 251.75 L 512 251.75 512 252.25 504 252.25 Z "/>
<path id="p259" fill="rgb(0,0,255)" d="M 507.75 248 L 507.75 256 508.25 256 508.25 248 Z "/>
<path id="p260" fill="rgb(0,0,255)" d="M 0 383.75 L 256 383.75 256 384.25 0 384.25 Z "/>
<path id="p261" fill="rgb(0,0,255)" d="M 127.75 256 L 127.75 512 128.25 512 128.25 256 Z "/>
<path id="p262" fill="rgb(0,0,255)" d="M 0 319.75 L 128 319.75 128 320.25 0 320.25 Z "/>
<path id="p263" fill="rgb(0,0,255)" d="M 63.75 256 L 63.75 384 64.25 384 64.25 256 Z "/>
<path id="p264" fill="rgb(0,0,255)" d="M 0 287.75 L 64 287.75 64 288.25 0 288.25 Z "/>
<path id="p265" fill="rgb(0,0,255)" d="M 31.75 256 L 31.75 320 32.25 320 32.25 256 Z "/>
<path id="p266" fill="rgb(0,0,255)" d="M 0 271.75 L 32 271.75 32 272.25 0 272.25 Z "/>
<path id="p267" fill="rgb(0,0,255)" d="M 15.75 256 L 15.75 288 16.25 288 16.25 256 Z "/>
<path id="p268" fill="rgb(0,0,255)" d="M 0 263.75 L 16 263.75 16 264.25 0 264.25 Z "/>
<path id="p269" fill="rgb(0,0,255)" d="M 7.75 256 L 7.75 272 8.25 272 8.25 256 Z "/>
<path id="p270" fill="rgb(0,0,255)" d="M 0 259.75 L 8 259.75 8 260.25 0 260.25 Z "/>
<path id="p271" fill="rgb(0,0,255)" d="M 3.75 256 L 3.75 264 4.25 264 4.25 256 Z "/>
<path id="p272" fill="rgb(0,0,255)" d="M 8 267.75 L 16 267.75 16 268.25 8 268.25 Z "/>
<path id="p273" fill="rgb(0,0,255)" d="M 11.75 264 L 11.75 272 12.25 272 12.25 264 Z "/>
<path id="p274" fill="rgb(0,0,255)" d="M 16 279.75 L 32 279.75 32 280.25 16 280.25 Z "/>
<path id="p275" fill="rgb(0,0,255)" d="M 23.75 272 L 23.75 288 24.25 288 24.25 272 Z "/>
<path id="p276" fill="rgb(0,0,255)" d="M 16 275.75 L 24 275.75 24 276.25 16 276.25 Z "/>
<path id="p277" fill="rgb(0,0,255)" d="M 19.75 272 L 19.75 280 20.25 280 20.25 272 Z "/>
<path id="p278" fill="rgb(0,0,255)" d="M 24 283.75 L 32 283.75 32 284.25 24 284.25 Z "/>
<path id="p279" fill="rgb(0,0,255)" d="M 27.75 280 L 27.75 288 28.25 288 28.25 280 Z "/>
<path id="p280" fill="rgb(0,0,255)" d="M 32 303.75 L 64 303.75 64 304.25 32 304.25 Z "/>
<path id="p281" fill="rgb(0,0,255)" d="M 47.75 288 L 47.75 320 48.25 320 48.25 288 Z "/>
<path id="p282" fill="rgb(0,0,255)" d="M 32 295.75 L 48 295.75 48 296.25 32 296.25 Z "/>
<path id="p283" fill="rgb(0,0,255)" d="M 39.75 288 L 39.75 304 40.25 304 40.25 288 Z "/>
<path id="p284" fill="rgb(0,0,255)" d="M 32 291.75 L 40 291.75 40 292.25 32 292.25 Z "/>
<path id="p285" fill="rgb(0,0,255)" d="M 35.75 288 L 35.75 296 36.25 296 36.25 288 Z "/>
<path id="p286" fill="rgb(0,0,255)" d="M 40 299.75 L 48 299.75 48 300.25 40 300.25 Z "/>
<path id="p287" fill="rgb(0,0,255)" d="M 43.75 296 L 43.75 304 44.25 304 44.25 296 Z "/>
<path id="p288" fill="rgb(0,0,255)" d="M 48 311.75 L 64 311.75 64 312.25 48 312.25 Z "/>
<path id="p289" fill="rgb(0,0,255)" d="M 55.75 304 L 55.75 320 56.25 320 56.25 304 Z "/>
<path id="p290" fill="rgb(0,0,255)" d="M 48 307.75 L 56 307.75 56 308.25 48 308.25 Z "/>
<path id="p291" fill="rgb(0,0,255)" d="M 51.75 304 L 51.75 312 52.25 312 52.25 304 Z "/>
<path id="p292" fill="rgb(0,0,255)" d="M 56 315.75 L 64 315.75 64 316.25 56 316.25 Z "/>
<path id="p293" fill="rgb(0,0,255)" d="M 59.75 312 L 59.75 320 60.25 320 60.25 312 Z "/>
<path id="p294" fill="rgb(0,0,255)" d="M 64 351.75 L 128 351.75 128 352.25 64 352.25 Z "/>
<path id="p295" fill="rgb(0,0,255)" d="M 95.75 320 L 95.75 384 96.25 384 96.25 320 Z "/>
<path id="p296" fill="rgb(0,0,255)" d="M 64 335.75 L 96 335.75 96 336.25 64 336.25 Z "/>
<path id="p297" fill="rgb(0,0,255)" d="M 79.75 320 L 79.75 352 80.25 352 80.25 320 Z "/>
<path id="p298" fill="rgb(0,0,255)" d="M 64 327.75 L 80 327.75 80 328.25 64 328.25 Z "/>
<path id="p299" fill="rgb(0,0,255)" d="M 71.75 320 L 71.75 336 72.25 336 72.25 320 Z "/>
<path id="p300" fill="rgb(0,0,255)" d="M 64 323.75 L 72 323.75 72 324.25 64 324.25 Z "/>
<path id="p301" fill="rgb(0,0,255)" d="M 67.75 320 L 67.75 328 68.25 328 68.25 320 Z "/>
<path id="p302" fill="rgb(0,0,255)" d="M 72 331.75 L 80 331.75 80 332.25 72 332.25 Z "/>
<path id="p303" fill="rgb(0,0,255)" d="M 75.75 328 L 75.75 336 76.25 336 76.25 328 Z "/>
<path id="p304" fill="rgb(0,0,255)" d="M 80 343.75 L 96 343.75 96 344.25 80 344.25 Z "/>
<path id="p305" fill="rgb(0,0,255)" d="M 87.75 336 L 87.75 352 88.25 352 88.25 336 Z "/>
<path id="p306" fill="rgb(0,0,255)" d="M 80 339.75 L 88 339.75 88 340.25 80 340.25 Z "/>
<path id="p307" fill="rgb(0,0,255)" d="M 83.75 336 L 83.75 344 84.25 344 84.25 336 Z "/>
<path id="p308" fill="rgb(0,0,255)" d="M 88 347.75 L 96 347.75 96 348.25 88 348.25 Z "/>
<path id="p309" fill="rgb(0,0,255)" d="M 91.75 344 L 91.75 352 92.25 352 92.25 344 Z "/>
<path id="p310" fill="rgb(0,0,255)" d="M 96 367.75 L 128 367.75 128 368.25 96 368.25 Z "/>
<path id="p311" fill="rgb(0,0,255)" d="M 111.75 352 L 111.75 384 112.25 384 112.25 352 Z "/>
<path id="p312" fill="rgb(0,0,255)" d="M 96 359.75 L 112 359.75 112 360.25 96 360.25 Z "/>
<path id="p313" fill="rgb(0,0,255)" d="M 103.75 352 L 103.75 368 104.25 368 104.25 352 Z "/>
<path id="p314" fill="rgb(0,0,255)" d="M 96 355.75 L 104 355.75 104 356.25 96 356.25 Z "/>
<path id="p315" fill="rgb(0,0,255)" d="M 99.75 352 L 99.75 360 100.25 360 100.25 352 Z "/>
<path id="p316" fill="rgb(0,0,255)" d="M 104 363.75 L 112 363.75 112 364.25 104 364.25 Z "/>
<path id="p317" fill="rgb(0,0,255)" d="M 107.75 360 L 107.75 368 108.25 368 108.25 360 Z "/>
<path id="p318" fill="rgb(0,0,255)" d="M 112 375.75 L 128 375.75 128 376.25 112 376.25 Z "/>
<path id="p319" fill="rgb(0,0,255)" d="M 119.75 368 L 119.75 384 120.25 384 120.25 368 Z "/>
<path id="p320" fill="rgb(0,0,255)" d="M 112 371.75 L 120 371.75 120 372.25 112 372.25 Z "/>
<path id="p321" fill="rgb(0,0,255)" d="M 115.75 368 L 115.75 376 116.25 376 116.25 368 Z "/>
<path id="p322" fill="rgb(0,0,255)" d="M 120 379.75 L 128 379.75 128 380.25 120 380.25 Z "/>
<path id="p323" fill="rgb(0,0,255)" d="M 123.75 376 L 123.75 384 124.25 384 124.25 376 Z "/>
<path id="p324" fill="rgb(0,0,255)" d="M 128 447.75 L 256 447.75 256 448.25 128 448.25 Z "/>
<path id="p325" fill="rgb(0,0,255)" d="M 191.75 384 L 191.75 512 192.25 512 192.25 384 Z "/>
<path id="p326" fill="rgb(0,0,255)" d="M 128 415.75 L 192 415.75 192 416.25 128 416.25 Z "/>
<path id="p327" fill="rgb(0,0,255)" d="M 159.75 384 L 159.75 448 160.25 448 160.25 384 Z "/>
<path id="p328" fill="rgb(0,0,255)" d="M 128 399.75 L 160 399.75 160 400.25 128 400.25 Z "/>
<path id="p329" fill="rgb(0,0,255)" d="M 143.75 384 L 143.75 416 144.25 416 144.25 384 Z "/>
<path id="p330" fill="rgb(0,0,255)" d="M 128 391.75 L 144 391.75 144 392.25 128 392.25 Z "/>
<path id="p331" fill="rgb(0,0,255)" d="M 135.75 384 L 135.75 400 136.25 400 136.25 384 Z "/>
<path id="p332" fill="rgb(0,0,255)" d="M 128 387.75 L 136 387.75 136 388.25 128 388.25 Z "/>
<path id="p333" fill="rgb(0,0,255)" d="M 131.75 384 L 131.75 392 132.25 392 132.25 384 Z "/>
<path id="p334" fill="rgb(0,0,255)" d="M 136 395.75 L 144 395.75 144 396.25 136 396.25 Z "/>
<path id="p335" fill="rgb(0,0,255)" d="M 139.75 392 L 139.75 400 140.25 400 140.25 392 Z "/>
<path id="p336" fill="rgb(0,0,255)" d="M 144 407.75 L 160 407.75 160 408.25 144 408.25 Z "/>
<path id="p337" fill="rgb(0,0,255)" d="M 151.75 400 L 151.75 416 152.25 416 152.25 400 Z "/>
<path id="p338" fill="rgb(0,0,255)" d="M 144 403.75 L 152 403.75 152 404.25 144 404.25 Z "/>
<path id="p339" fill="rgb(0,0,255)" d="M 147.75 400 L 147.75 408 148.25 408 148.25 400 Z "/>
<path id="p340" fill="rgb(0,0,255)" d="M 152 411.75 L 160 411.75 160 412.25 152 412.25 Z "/>
<path id="p341" fill="rgb(0,0,255)" d="M 155.75 408 L 155.75 416 156.25 416 156.25 408 Z "/>
<path id="p342" fill="rgb(0,0,255)" d="M 160 431.75 L 192 431.75 192 432.25 160 432.25 Z "/>
<path id="p343" fill="rgb(0,0,255)" d="M 175.75 416 L 175.75 448 176.25 448 176.25 416 Z "/>
<path id="p344" fill="rgb(0,0,255)" d="M 160 423.75 L 176 423.75 176 424.25 160 424.25 Z "/>
<path id="p345" fill="rgb(0,0,255)" d="M 167.75 416 L 167.75 432 168.25 432 168.25 416 Z "/>
<path id="p346" fill="rgb(0,0,255)" d="M 160 419.75 L 168 419.75 168 420.25 160 420.25 Z "/>
<path id="p347" fill="rgb(0,0,255)" d="M 163.75 416 L 163.75 424 164.25 424 164.25 416 Z "/>
<path id="p348" fill="rgb(0,0,255)" d="M 168 427.75 L 176 427.75 176 428.25 168 428.25 Z "/>
<path id="p349" fill="rgb(0,0,255)" d="M 171.75 424 L 171.75 432 172.25 432 172.25 424 Z "/>
<path id="p350" fill="rgb(0,0,255)" d="M 176 439.75 L 192 439.75 192 440.25 176 440.25 Z "/>
<path id="p351" fill="rgb(0,0,255)" d="M 183.75 432 L 183.75 448 184.25 448 184.25 432 Z "/>
<path id="p352" fill="rgb(0,0,255)" d="M 176 435.75 L 184 435.75 184 436.25 176 436.25 Z "/>
<path id="p353" fill="rgb(0,0,255)" d="M 179.75 432 L 179.75 440 180.25 440 180.25 432 Z "/>
<path id="p354" fill="rgb(0,0,255)" d="M 184 443.75 L 192 443.75 192 444.25 184 444.25 Z "/>
<path id="p355" fill="rgb(0,0,255)" d="M 187.75 440 L 187.75 448 188.25 448 188.25 440 Z "/>
<path id="p356" fill="rgb(0,0,255)" d="M 192 479.75 L 256 479.75 256 480.25 192 480.25 Z "/>
<path id="p357" fill="rgb(0,0,255)" d="M 223.75 448 L 223.75 512 224.25 512 224.25 448 Z "/>
<path id="p358" fill="rgb(0,0,255)" d="M 192 463.75 L 224 463.75 224 464.25 192 464.25 Z "/>
<path id="p359" fill="rgb(0,0,255)" d="M 207.75 448 L 207.75 480 208.25 480 208.25 448 Z "/>
<path id="p360" fill="rgb(0,0,255)" d="M 192 455.75 L 208 455.75 208 456.25 192 456.25 Z "/>
<path id="p361" fill="rgb(0,0,255)" d="M 199.75 448 L 199.75 464 200.25 464 200.25 448 Z "/>
<path id="p362" fill="rgb(0,0,255)" d="M 192 451.75 L 200 451.75 200 452.25 192 452.25 Z "/>
<path id="p363" fill="rgb(0,0,255)" d="M 195.75 448 L 195.75 456 196.25 456 196.25 448 Z "/>
<path id="p364" fill="rgb(0,0,255)" d="M 200 459.75 L 208 459.75 208 460.25 200 460.25 Z "/>
<path id="p365" fill="rgb(0,0,255)" d="M 203.75 456 L 203.75 464 204.25 464 204.25 456 Z "/>
<path id="p366" fill="rgb(0,0,255)" d="M 208 471.75 L 224 471.75 224 472.25 208 472.25 Z "/>
<path id="p367" fill="rgb(0,0,255)" d="M 215.75 464 L 215.75 480 216.25 480 216.25 464 Z "/>
<path id="p368" fill="rgb(0,0,255)" d="M 208 467.75 L 216 467.75 216 468.25 208 468.25 Z "/>
<path id="p369" fill="rgb(0,0,255)" d="M 211.75 464 L 211.75 472 212.25 472 212.25 464 Z "/>
<path id="p370" fill="rgb(0,0,255)" d="M 216 475.75 L 224 475.75 224 476.25 216 476.25 Z "/>
<path id="p371" fill="rgb(0,0,255)" d="M 219.75 472 L 219.75 480 220.25 480 220.25 472 Z "/>
<path id="p372" fill="rgb(0,0,255)" d="M 224 495.75 L 256 495.75 256 496.25 224 496.25 Z "/>
<path id="p373" fill="rgb(0,0,255)" d="M 239.75 480 L 239.75 512 240.25 512 240.25 480 Z "/>
<path id="p374" fill="rgb(0,0,255)" d="M 224 487.75 L 240 487.75 240 488.25 224 488.25 Z "/>
<path id="p375" fill="rgb(0,0,255)" d="M 231.75 480 L 231.75 496 232.25 496 232.25 480 Z "/>
<path id="p376" fill="rgb(0,0,255)" d="M 224 483.75 L 232 483.75 232 484.25 224 484.25 Z "/>
<path id="p377" fill="rgb(0,0,255)" d="M 227.75 480 L 227.75 488 228.25 488 228.25 480 Z "/>
<path id="p378" fill="rgb(0,0,255)" d="M 232 491.75 L 240 491.75 240 492.25 232 492.25 Z "/>
<path id="p379" fill="rgb(0,0,255)" d="M 235.75 488 L 235.75 496 236.25 496 236.25 488 Z "/>
<path id="p380" fill="rgb(0,0,255)" d="M 240 503.75 L 256 503.75 256 504.25 240 504.25 Z "/>
<path id="p381" fill="rgb(0,0,255)" d="M 247.75 496 L 247.75 512 248.25 512 248.25 496 Z "/>
<path id="p382" fill="rgb(0,0,255)" d="M 240 499.75 L 248 499.75 248 500.25 240 500.25 Z "/>
<path id="p383" fill="rgb(0,0,255)" d="M 243.75 496 L 243.75 504 244.25 504 244.25 496 Z "/>
<path id="p384" fill="rgb(0,0,255)" d="M 248 507.75 L 256 507.75 256 508.25 248 508.25 Z "/>
<path id="p385" fill="rgb(0,0,255)" d="M 251.75 504 L 251.75 512 252.25 512 252.25 504 Z "/>
<path id="p386" fill="rgb(0,0,255)" d="M 256 383.75 L 512 383.75 512 384.25 256 384.25 Z "/>
<path id="p387" fill="rgb(0,0,255)" d="M 383.75 256 L 383.75 512 384.25 512 384.25 256 Z "/>
<path id="p388" fill="rgb(0,0,255)" d="M 384 319.75 L 512 319.75 512 320.25 384 320.25 Z "/>
<path id="p389" fill="rgb(0,0,255)" d="M 447.75 256 L 447.75 384 448.25 384 448.25 256 Z "/>
<path id="p390" fill="rgb(0,0,255)" d="M 448 287.75 L 512 287.75 512 288.25 448 288.25 Z "/>
<path id="p391" fill="rgb(0,0,255)" d="M 479.75 256 L 479.75 320 480.25 320 480.25 256 Z "/>
<path id="p392" fill="rgb(0,0,255)" d="M 480 271.75 L 512 271.75 512 272.25 480 272.25 Z "/>
<path id="p393" fill="rgb(0,0,255)" d="M 495.75 256 L 495.75 288 496.25 288 496.25 256 Z "/>
<path id="p394" fill="rgb(0,0,255)" d="M 496 263.75 L 512 263.75 512 264.25 496 264.25 Z "/>
<path id="p395" fill="rgb(0,0,255)" d="M 503.75 256 L 503.75 272 504.25 272 504.25 256 Z "/>
<path id="p396" fill="rgb(0,0,255)" d="M 504 259.75 L 512 259.75 512 260.25 504 260.25 Z "/>
<path id="p397" fill="rgb(0,0,255)" d="M 507.75 256 L 507.75 264 508.25 264 508.25 256 Z "/>
<path id="p398" fill="rgb(0,0,255)" d="M 496 267.75 L 504 267.75 504 268.25 496 268.25 Z "/>
<path id="p399" fill="rgb(0,0,255)" d="M 499.75 264 L 499.75 272 500.25 272 500.25 264 Z "/>
<path id="p400" fill="rgb(0,0,255)" d="M 480 279.75 L 496 279.75 496 280.25 480 280.25 Z "/>
<path id="p401" fill="rgb(0,0,255)" d="M 487.75 272 L 487.75 288 488.25 288 488.25 272 Z "/>
<path id="p402" fill="rgb(0,0,255)" d="M 488 275.75 L 496 275.75 496 276.25 488 276.25 Z "/>
<path id="p403" fill="rgb(0,0,255)" d="M 491.75 272 L 491.75 280 492.25 280 492.25 272 Z "/>
<path id="p404" fill="rgb(0,0,255)" d="M 480 283.75 L 488 283.75 488 284.25 480 284.25 Z "/>
<path id="p405" fill="rgb(0,0,255)" d="M 483.75 280 L 483.75 288 484.25 288 484.25 280 Z "/>
<path id="p406" fill="rgb(0,0,255)" d="M 448 303.75 L 480 303.75 480 304.25 448 304.25 Z "/>
<path id="p407" fill="rgb(0,0,255)" d="M 463.75 288 L 463.75 320 464.25 320 464.25 288 Z "/>
<path id="p408" fill="rgb(0,0,255)" d="M 464 295.75 L 480 295.75 480 296.25 464 296.25 Z "/>
<path id="p409" fill="rgb(0,0,255)" d="M 471.75 288 L 471.75 304 472.25 304 472.25 288 Z "/>
<path id="p410" fill="rgb(0,0,255)" d="M 472 291.75 L 480 291.75 480 292.25 472 292.25 Z "/>
<path id="p411" fill="rgb(0,0,255)" d="M 475.75 288 L 475.75 296 476.25 296 476.25 288 Z "/>
<path id="p412" fill="rgb(0,0,255)" d="M 464 299.75 L 472 299.75 472 300.25 464 300.25 Z "/>
<path id="p413" fill="rgb(0,0,255)" d="M 467.75 296 L 467.75 304 468.25 304 468.25 296 Z "/>
<path id="p414" fill="rgb(0,0,255)" d="M 448 311.75 L 464 311.75 464 312.25 448 312.25 Z "/>
<path id="p415" fill="rgb(0,0,255)" d="M 455.75 304 L 455.75 320 456.25 320 456.25 304 Z "/>
<path id="p416" fill="rgb(0,0,255)" d="M 456 307.75 L 464 307.75 464 308.25 456 308.25 Z "/>
<path id="p417" fill="rgb(0,0,255)" d="M 459.75 304 L 459.75 312 460.25 312 460.25 304 Z "/>
<path id="p418" fill="rgb(0,0,255)" d="M 448 315.75 L 456 315.75 456 316.25 448 316.25 Z "/>
<path id="p419" fill="rgb(0,0,255)" d="M 451.75 312 L 451.75 320 452.25 320 452.25 312 Z "/>
<path id="p420" fill="rgb(0,0,255)" d="M 384 351.75 L 448 351.75 448 352.25 384 352.25 Z "/>
<path id="p421" fill="rgb(0,0,255)" d="M 415.75 320 L 415.75 384 416.25 384 416.25 320 Z "/>
<path id="p422" fill="rgb(0,0,255)" d="M 416 335.75 L 448 335.75 448 336.25 416 336.25 Z "/>
<path id="p423" fill="rgb(0,0,255)" d="M 431.75 320 L 431.75 352 432.25 352 432.25 320 Z "/>
<path id="p424" fill="rgb(0,0,255)" d="M 432 327.75 L 448 327.75 448 328.25 432 328.25 Z "/>
<path id="p425" fill="rgb(0,0,255)" d="M 439.75 320 L 439.75 336 440.25 336 440.25 320 Z "/>
<path id="p426" fill="rgb(0,0,255)" d="M 440 323.75 L 448 323.75 448 324.25 440 324.25 Z "/>
<path id="p427" fill="rgb(0,0,255)" d="M 443.75 320 L 443.75 328 444.25 328 444.25 320 Z "/>
<path id="p428" fill="rgb(0,0,255)" d="M 432 331.75 L 440 331.75 440 332.25 432 332.25 Z "/>
<path id="p429" fill="rgb(0,0,255)" d="M 435.75 328 L 435.75 336 436.25 336 436.25 328 Z "/>
<path id="p430" fill="rgb(0,0,255)" d="M 416 343.75 L 432 343.75 432 344.25 416 344.25 Z "/>
<path id="p431" fill="rgb(0,0,255)" d="M 423.75 336 L 423.75 352 424.25 352 424.25 336 Z "/>
<path id="p432" fill="rgb(0,0,255)" d="M 424 339.75 L 432 339.75 432 340.25 424 340.25 Z "/>
<path id="p433" fill="rgb(0,0,255)" d="M 427.75 336 L 427.75 344 428.25 344 428.25 336 Z "/>
<path id="p434" fill="rgb(0,0,255)" d="M 416 347.75 L 424 347.75 424 348.25 416 348.25 Z "/>
<path id="p435" fill="rgb(0,0,255)" d="M 419.75 344 L 419.75 352 420.25 352 420.25 344 Z "/>
<path id="p436" fill="rgb(0,0,255)" d="M 384 367.75 L 416 367.75 416 368.25 384 368.25 Z "/>
<path id="p437" fill="rgb(0,0,255)" d="M 399.75 352 L 399.75 384 400.25 384 400.25 352 Z "/>
<path id="p438" fill="rgb(0,0,255)" d="M 400 359.75 L 416 359.75 416 360.25 400 360.25 Z "/>
<path id="p439" fill="rgb(0,0,255)" d="M 407.75 352 L 407.75 368 408.25 368 408.25 352 Z "/>
<path id="p440" fill="rgb(0,0,255)" d="M 408 355.75 L 416 355.75 416 356.25 408 356.25 Z "/>
<path id="p441" fill="rgb(0,0,255)" d="M 411.75 352 L 411.75 360 412.25 360 412.25 352 Z "/>
<path id="p442" fill="rgb(0,0,255)" d="M 400 363.75 L 408 363.75 408 364.25 400 364.25 Z "/>
<path id="p443" fill="rgb(0,0,255)" d="M 403.75 360 L 403.75 368 404.25 368 404.25 360 Z "/>
<path id="p444" fill="rgb(0,0,255)" d="M 384 375.75 L 400 375.75 400 376.25 384 376.25 Z "/>
<path id="p445" fill="rgb(0,0,255)" d="M 391.75 368 L 391.75 384 392.25 384 392.25 368 Z "/>
<path id="p446" fill="rgb(0,0,255)" d="M 392 371.75 L 400 371.75 400 372.25 392 372.25 Z "/>
<path id="p447" fill="rgb(0,0,255)" d="M 395.75 368 L 395.75 376 396.25 376 396.25 368 Z "/>
<path id="p448" fill="rgb(0,0,255)" d="M 384 379.75 L 392 379.75 392 380.25 384 380.25 Z "/>
<path id="p449" fill="rgb(0,0,255)" d="M 387.75 376 L 387.75 384 388.25 384 388.25 376 Z "/>
<path id="p450" fill="rgb(0,0,255)" d="M 256 447.75 L 384 447.75 384 448.25 256 448.25 Z "/>
<path id="p451" fill="rgb(0,0,255)" d="M 319.75 384 L 319.75 512 320.25 512 320.25 384 Z "/>
<path id="p452" fill="rgb(0,0,255)" d="M 320 415.75 L 384 415.75 384 416.25 320 416.25 Z "/>
<path id="p453" fill="rgb(0,0,255)" d="M 351.75 384 L 351.75 448 352.25 448 352.25 384 Z "/>
<path id="p454" fill="rgb(0,0,255)" d="M 352 399.75 L 384 399.75 384 400.25 352 400.25 Z "/>
<path id="p455" fill="rgb(0,0,255)" d="M 367.75 384 L 367.75 416 368.25 416 368.25 384 Z "/>
<path id="p456" fill="rgb(0,0,255)" d="M 368 391.75 L 384 391.75 384 392.25 368 392.25 Z "/>
<path id="p457" fill="rgb(0,0,255)" d="M 375.75 384 L 375.75 400 376.25 400 376.25 384 Z "/>
<path id="p458" fill="rgb(0,0,255)" d="M 376 387.75 L 384 387.75 384 388.25 376 388.25 Z "/>
<path id="p459" fill="rgb(0,0,255)" d="M 379.75 384 L 379.75 392 380.25 392 380.25 384 Z "/>
<path id="p460" fill="rgb(0,0,255)" d="M 368 395.75 L 376 395.75 376 396.25 368 396.25 Z "/>
<path id="p461" fill="rgb(0,0,255)" d="M 371.75 392 L 371.75 400 372.25 400 372.25 392 Z "/>
<path id="p462" fill="rgb(0,0,255)" d="M 352 407.75 L 368 407.75 368 408.25 352 408.25 Z "/>
<path id="p463" fill="rgb(0,0,255)" d="M 359.75 400 L 359.75 416 360.25 416 360.25 400 Z "/>
<path id="p464" fill="rgb(0,0,255)" d="M 360 403.75 L 368 403.75 368 404.25 360 404.25 Z "/>
<path id="p465" fill="rgb(0,0,255)" d="M 363.75 400 L 363.75 408 364.25 408 364.25 400 Z "/>
<path id="p466" fill="rgb(0,0,255)" d="M 352 411.75 L 360 411.75 360 412.25 352 412.25 Z "/>
<path id="p467" fill="rgb(0,0,255)" d="M 355.75 408 L 355.75 416 356.25 416 356.25 408 Z "/>
<path id="p468" fill="rgb(0,0,255)" d="M 320 431.75 L 352 431.75 352 432.25 320 432.25 Z "/>
<path id="p469" fill="rgb(0,0,255)" d="M 335.75 416 L 335.75 448 336.25 448 336.25 416 Z "/>
<path id="p470" fill="rgb(0,0,255)" d="M 336 423.75 L 352 423.75 352 424.25 336 424.25 Z "/>
<path id="p471" fill="rgb(0,0,255)" d="M 343.75 416 L 343.75 432 344.25 432 344.25 416 Z "/>
<path id="p472" fill="rgb(0,0,255)" d="M 344 419.75 L 352 419.75 352 420.25 344 420.25 Z "/>
<path id="p473" fill="rgb(0,0,255)" d="M 347.75 416 L 347.75 424 348.25 424 348.25 416 Z "/>
<path id="p474" fill="rgb(0,0,255)" d="M 336 427.75 L 344 427.75 344 428.25 336 428.25 Z "/>
<path id="p475" fill="rgb(0,0,255)" d="M 339.75 424 L 339.75 432 340.25 432 340.25 424 Z "/>
<path id="p476" fill="rgb(0,0,255)" d="M 320 439.75 L 336 439.75 336 440.25 320 440.25 Z "/>
<path id="p477" fill="rgb(0,0,255)" d="M 327.75 432 L 327.75 448 328.25 448 328.25 432 Z "/>
<path id="p478" fill="rgb(0,0,255)" d="M 328 435.75 L 336 435.75 336 436.25 328 436.25 Z "/>
<path id="p479" fill="rgb(0,0,255)" d="M 331.75 432 L 331.75 440 332.25 440 332.25 432 Z "/>
<path id="p480" fill="rgb(0,0,255)" d="M 320 443.75 L 328 443.75 328 444.25 320 444.25 Z "/>
<path id="p481" fill="rgb(0,0,255)" d="M 323.75 440 L 323.75 448 324.25 448 324.25 440 Z "/>
<path id="p482" fill="rgb(0,0,255)" d="M 256 479.75 L 320 479.75 320 480.25 256 480.25 Z "/>
<path id="p483" fill="rgb(0,0,255)" d="M 287.75 448 L 287.75 512 288.25 512 288.25 448 Z "/>
<path id="p484" fill="rgb(0,0,255)" d="M 288 463.75 L 320 463.75 320 464.25 288 464.25 Z "/>
<path id="p485" fill="rgb(0,0,255)" d="M 303.75 448 L 303.75 480 304.25 480 304.25 448 Z "/>
<path id="p486" fill="rgb(0,0,255)" d="M 304 455.75 L 320 455.75 320 456.25 304 456.25 Z "/>
<path id="p487" fill="rgb(0,0,255)" d="M 311.75 448 L 311.75 464 312.25 464 312.25 448 Z "/>
<path id="p488" fill="rgb(0,0,255)" d="M 312 451.75 L 320 451.75 320 452.25 312 452.25 Z "/>
<path id="p489" fill="rgb(0,0,255)" d="M 315.75 448 L 315.75 456 316.25 456 316.25 448 Z "/>
<path id="p490" fill="rgb(0,0,255)" d="M 304 459.75 L 312 459.75 312 460.25 304 460.25 Z "/>
<path id="p491" fill="rgb(0,0,255)" d="M 307.75 456 L 307.75 464 308.25 464 308.25 456 Z "/>
<path id="p492" fill="rgb(0,0,255)" d="M 288 471.75 L 304 471.75 304 472.25 288 472.25 Z "/>
<path id="p493" fill="rgb(0,0,255)" d="M 295.75 464 L 295.75 480 296.25 480 296.25 464 Z "/>
<path id="p494" fill="rgb(0,0,255)" d="M 296 467.75 L 304 467.75 304 468.25 296 468.25 Z "/>
<path id="p495" fill="rgb(0,0,255)" d="M 299.75 464 L 299.75 472 300.25 472 300.25 464 Z "/>
<path id="p496" fill="rgb(0,0,255)" d="M 288 475.75 L 296 475.75 296 476.25 288 476.25 Z "/>
<path id="p497" fill="rgb(0,0,255)" d="M 291.75 472 L 291.75 480 292.25 480 292.25 472 Z "/>
<path id="p498" fill="rgb(0,0,255)" d="M 256 495.75 L 288 495.75 288 496.25 256 496.25 Z "/>
<path id="p499" fill="rgb(0,0,255)" d="M 271.75 480 L 271.75 512 272.25 512 272.25 480 Z "/>
<path id="p500" fill="rgb(0,0,255)" d="M 272 487.75 L 288 487.75 288 488.25 272 488.25 Z "/>
<path id="p501" fill="rgb(0,0,255)" d="M 279.75 480 L 279.75 496 280.25 496 280.25 480 Z "/>
<path id="p502" fill="rgb(0,0,255)" d="M 280 483.75 L 288 483.75 288 484.25 280 484.25 Z "/>
<path id="p503" fill="rgb(0,0,255)" d="M 283.75 480 L 283.75 488 284.25 488 284.25 480 Z "/>
<path id="p504" fill="rgb(0,0,255)" d="M 272 491.75 L 280 491.75 280 492.25 272 492.25 Z "/>
<path id="p505" fill="rgb(0,0,255)" d="M 275.75 488 L 275.75 496 276.25 496 276.25 488 Z "/>
<path id="p506" fill="rgb(0,0,255)" d="M 256 503.75 L 272 503.75 272 504.25 256 504.25 Z "/>
<path id="p507" fill="rgb(0,0,255)" d="M 263.75 496 L 263.75 512 264.25 512 264.25 496 Z "/>
<path id="p508" fill="rgb(0,0,255)" d="M 264 499.75 L 272 499.75 272 500.25 264 500.25 Z "/>
<path id="p509" fill="rgb(0,0,255)" d="M 267.75 496 L 267.75 504 268.25 504 268.25 496 Z "/>
<path id="p510" fill="rgb(0,0,255)" d="M 256 507.75 L 264 507.75 264 508.25 256 508.25 Z "/>
<path id="p511" fill="rgb(0,0,255)" d="M 259.75 504 L 259.75 512 260.25 512 260.25 504 Z "/>
</g>
</svg>
